%
M48
M72
T01C0.0200
T02C0.0276
T03C0.0335
T04C0.0400
%
T01
X12240Y6848
X16212Y9837
X14798Y10724
X14311Y10510
X12089Y11146
X11427Y10931
X11402Y12175
X11409Y12698
X11411Y13846
X10560Y13639
X9790Y14096
X10066Y14514
X11229Y16587
X11763Y17042
X12259Y17042
X10795Y18031
X11300Y18554
X10413Y21463
X16455Y17964
X20014Y17171
X20875Y16796
X20754Y17945
X19029Y15058
X18610Y14734
X20065Y13164
X19234Y12271
X19664Y11890
X20182Y11582
X20123Y9847
X19357Y9175
X21899Y7595
X17890Y11249
X24459Y17317
X24918Y17798
X25641Y18128
X26135Y18370
X27779Y17641
X2173Y12284
X909Y11458
X1970Y13818
T02
X1607Y21402
X2394Y21402
T03
X1510Y4502
X2691Y4502
T04
X8821Y2592
X8821Y812
X11381Y812
X11381Y2592
X13601Y1702
X14601Y1702
X15601Y1702
X16601Y1702
X17601Y1702
X18601Y1702
X19601Y1702
M30
