G75*
G70*
%OFA0B0*%
%FSLAX24Y24*%
%IPPOS*%
%LPD*%
%AMOC8*
5,1,8,0,0,1.08239X$1,22.5*
%
%ADD10R,0.0512X0.0118*%
%ADD11R,0.0866X0.0709*%
%ADD12R,0.0217X0.0472*%
%ADD13R,0.0394X0.0709*%
%ADD14R,0.0220X0.0470*%
%ADD15R,0.0470X0.0220*%
%ADD16R,0.0394X0.0453*%
%ADD17R,0.0630X0.0709*%
%ADD18R,0.0236X0.0906*%
%ADD19R,0.0394X0.0551*%
%ADD20R,0.0600X0.0300*%
%ADD21R,0.2165X0.0591*%
%ADD22R,0.0591X0.0591*%
%ADD23R,0.1400X0.0800*%
%ADD24C,0.0570*%
%ADD25C,0.0740*%
%ADD26C,0.0080*%
%ADD27C,0.0400*%
D10*
X027231Y011539D03*
X027231Y011735D03*
X027231Y011932D03*
X027231Y012129D03*
X027231Y012326D03*
X027231Y012523D03*
X027231Y012720D03*
X027231Y012917D03*
X027231Y013113D03*
X027231Y013310D03*
X027231Y013507D03*
X027231Y013704D03*
X027231Y013901D03*
X027231Y014098D03*
X027231Y014294D03*
X027231Y014491D03*
X027231Y014688D03*
X027231Y014885D03*
X027231Y015082D03*
X027231Y015279D03*
X027231Y015476D03*
X027231Y015672D03*
X027231Y015869D03*
X027231Y016066D03*
X027231Y016263D03*
X027231Y016460D03*
X027231Y016657D03*
X027231Y016854D03*
X027231Y017050D03*
X027231Y017247D03*
X027231Y017444D03*
X027231Y017641D03*
X027231Y017838D03*
X027231Y018035D03*
X027231Y018231D03*
X027231Y018428D03*
X027231Y018625D03*
X027231Y018822D03*
X027231Y019019D03*
X027231Y019216D03*
X027231Y019413D03*
X027231Y019609D03*
X027231Y019806D03*
X027231Y020003D03*
X027231Y020200D03*
X027231Y020397D03*
X027231Y020594D03*
X027231Y020791D03*
X027231Y020987D03*
X027231Y021184D03*
D11*
X028511Y021932D03*
X028511Y010791D03*
D12*
X020958Y021937D03*
X020584Y021937D03*
X020210Y021937D03*
X020210Y022961D03*
X020958Y022961D03*
X003975Y013013D03*
X003227Y013013D03*
X003227Y011990D03*
X003601Y011990D03*
X003975Y011990D03*
X001775Y011990D03*
X001401Y011990D03*
X001027Y011990D03*
X001027Y013013D03*
X001775Y013013D03*
D13*
X001702Y007149D03*
X002805Y007149D03*
D14*
X012666Y011256D03*
X012976Y011256D03*
X013286Y011256D03*
X013596Y011256D03*
X013906Y011256D03*
X014216Y011256D03*
X014526Y011256D03*
X014836Y011256D03*
X015146Y011256D03*
X015456Y011256D03*
X015766Y011256D03*
X016076Y011256D03*
X016386Y011256D03*
X016696Y011256D03*
X017006Y011256D03*
X017316Y011256D03*
X017316Y017366D03*
X017006Y017366D03*
X016696Y017366D03*
X016386Y017366D03*
X016076Y017366D03*
X015766Y017366D03*
X015456Y017366D03*
X015146Y017366D03*
X014836Y017366D03*
X014526Y017366D03*
X014216Y017366D03*
X013906Y017366D03*
X013596Y017366D03*
X013286Y017366D03*
X012976Y017366D03*
X012666Y017366D03*
D15*
X011936Y016636D03*
X011936Y016326D03*
X011936Y016016D03*
X011936Y015706D03*
X011936Y015396D03*
X011936Y015086D03*
X011936Y014776D03*
X011936Y014466D03*
X011936Y014156D03*
X011936Y013846D03*
X011936Y013536D03*
X011936Y013226D03*
X011936Y012916D03*
X011936Y012606D03*
X011936Y012296D03*
X011936Y011986D03*
X018046Y011986D03*
X018046Y012296D03*
X018046Y012606D03*
X018046Y012916D03*
X018046Y013226D03*
X018046Y013536D03*
X018046Y013846D03*
X018046Y014156D03*
X018046Y014466D03*
X018046Y014776D03*
X018046Y015086D03*
X018046Y015396D03*
X018046Y015706D03*
X018046Y016016D03*
X018046Y016326D03*
X018046Y016636D03*
D16*
X001117Y003389D03*
X002101Y003389D03*
X003085Y003389D03*
X003085Y005614D03*
X002101Y005614D03*
X001117Y005614D03*
D17*
X001450Y009002D03*
X002552Y009002D03*
X005550Y009202D03*
X006652Y009202D03*
X008550Y011202D03*
X009652Y011202D03*
X009550Y009202D03*
X010652Y009202D03*
X012550Y009202D03*
X013652Y009202D03*
X013652Y006202D03*
X012550Y006202D03*
X012550Y004202D03*
X013652Y004202D03*
X003852Y017902D03*
X002750Y017902D03*
X002750Y019502D03*
X003852Y019502D03*
X006050Y022702D03*
X007152Y022702D03*
X011550Y022702D03*
X012652Y022702D03*
X014750Y021002D03*
X015852Y021002D03*
X016152Y022702D03*
X015050Y022702D03*
X017550Y022702D03*
X018652Y022702D03*
X019950Y020202D03*
X021052Y020202D03*
D18*
X009534Y016510D03*
X009140Y016510D03*
X008746Y016510D03*
X008353Y016510D03*
D19*
X023192Y022222D03*
X023940Y022222D03*
X023566Y023088D03*
D20*
X006601Y007952D03*
X006601Y006452D03*
X004601Y006452D03*
X004601Y007952D03*
D21*
X006369Y020146D03*
X009754Y020146D03*
D22*
X001801Y015791D03*
X001801Y014413D03*
X001412Y010602D03*
X002790Y010602D03*
X009412Y004202D03*
X010790Y004202D03*
X021312Y007602D03*
X022690Y007602D03*
D23*
X017801Y019102D03*
X017801Y021102D03*
D24*
X002394Y021402D03*
X001607Y021402D03*
D25*
X008821Y002592D03*
X008821Y000812D03*
X011381Y000812D03*
X011381Y002592D03*
X013601Y001702D03*
X014601Y001702D03*
X015601Y001702D03*
X016601Y001702D03*
X017601Y001702D03*
X018601Y001702D03*
X019601Y001702D03*
D26*
X017841Y001702D02*
X025509Y009370D01*
X025703Y009370D01*
X027796Y011463D01*
X027796Y014572D01*
X027680Y014688D01*
X028315Y015323D01*
X028315Y019306D01*
X027617Y020003D01*
X027231Y020003D01*
X027231Y019806D02*
X026846Y019806D01*
X026846Y019609D01*
X026888Y019609D01*
X027231Y019609D01*
X027231Y019216D02*
X026846Y019216D01*
X026846Y019019D01*
X026903Y019019D01*
X026946Y019019D01*
X027231Y019019D01*
X027231Y018822D02*
X027617Y018822D01*
X027617Y018680D01*
X027562Y018625D01*
X027424Y018625D01*
X027231Y018625D01*
X027231Y018822D02*
X026846Y018822D01*
X026846Y018961D01*
X026903Y019019D01*
X026846Y019216D02*
X026846Y019609D01*
X026756Y019717D02*
X026846Y019806D01*
X026756Y019717D02*
X020677Y019717D01*
X020283Y020111D01*
X020283Y020202D01*
X020061Y020202D01*
X019950Y020202D01*
X016076Y020202D01*
X016076Y017366D01*
X016076Y017001D01*
X012976Y017001D01*
X012976Y017366D01*
X012666Y017366D02*
X012666Y017509D01*
X011763Y017509D01*
X011229Y016975D01*
X011229Y016587D01*
X009266Y014624D01*
X009266Y012647D01*
X003227Y012647D01*
X003227Y013013D01*
X003227Y012356D02*
X003975Y012356D01*
X003975Y011990D01*
X003975Y011934D01*
X003975Y011623D01*
X003378Y011027D01*
X002377Y011027D01*
X001895Y010544D01*
X001837Y010602D01*
X001823Y010602D01*
X001412Y010602D01*
X001895Y010544D02*
X001895Y007825D01*
X001702Y007633D01*
X001702Y007149D01*
X001430Y006663D02*
X002101Y006663D01*
X002101Y008995D01*
X002107Y009002D01*
X002552Y009002D01*
X001450Y009002D02*
X001005Y009002D01*
X000986Y009020D01*
X000986Y011054D01*
X001401Y011468D01*
X001401Y011623D01*
X001401Y011990D01*
X001775Y011990D02*
X001775Y012356D01*
X001375Y012755D01*
X001375Y014940D01*
X001801Y015365D01*
X001801Y015791D01*
X001801Y014413D02*
X001801Y013987D01*
X001970Y013818D01*
X001775Y013013D02*
X001775Y012647D01*
X001810Y012647D01*
X002173Y012284D01*
X002750Y011682D02*
X002809Y011623D01*
X003601Y011623D01*
X003601Y011990D01*
X003227Y011990D02*
X003227Y012356D01*
X002750Y011682D02*
X002750Y017417D01*
X002750Y017902D01*
X002750Y019502D01*
X002750Y019986D01*
X002814Y020051D01*
X002814Y021569D01*
X004432Y023186D01*
X006445Y023186D01*
X006707Y022924D01*
X006707Y022702D01*
X007152Y022702D01*
X007597Y022702D01*
X008081Y023186D01*
X011945Y023186D01*
X012207Y022924D01*
X012207Y022702D01*
X012652Y022702D01*
X013097Y022702D01*
X014313Y021486D01*
X014750Y021486D01*
X014750Y021002D01*
X015195Y021002D01*
X015195Y020779D01*
X015772Y020202D01*
X016076Y020202D01*
X016297Y021002D02*
X015852Y021002D01*
X016297Y021002D02*
X017135Y021839D01*
X019128Y021839D01*
X019883Y022594D01*
X022048Y022594D01*
X022542Y023088D01*
X023566Y023088D01*
X025830Y023088D01*
X027617Y021301D01*
X027617Y020987D01*
X027231Y020987D01*
X027231Y020791D02*
X026846Y020791D01*
X026846Y021184D01*
X027231Y021184D01*
X027799Y021363D02*
X025669Y023494D01*
X020377Y023494D01*
X020210Y023327D01*
X020210Y023214D01*
X020210Y022961D01*
X020210Y023214D02*
X018284Y023214D01*
X017995Y022924D01*
X017995Y022702D01*
X017550Y022702D01*
X017105Y022702D01*
X016620Y023186D01*
X015757Y023186D01*
X015272Y022702D01*
X015050Y022702D01*
X016152Y022702D02*
X016374Y022702D01*
X016597Y022702D01*
X017081Y022217D01*
X017945Y022217D01*
X018207Y022479D01*
X018207Y022702D01*
X018652Y022702D01*
X019100Y021571D02*
X018631Y021102D01*
X017801Y021102D01*
X019100Y021571D02*
X020210Y021571D01*
X020210Y021754D01*
X020210Y021937D01*
X020210Y022303D01*
X022784Y022303D01*
X022865Y022222D01*
X023192Y022222D01*
X020958Y021937D02*
X020958Y021571D01*
X021052Y021477D01*
X021052Y020593D01*
X021052Y020202D01*
X021052Y020593D02*
X026845Y020593D01*
X026846Y020594D01*
X027231Y020594D01*
X027231Y020200D02*
X027424Y020200D01*
X027562Y020200D01*
X027617Y020145D01*
X027617Y020003D01*
X027562Y020200D02*
X027799Y020437D01*
X027799Y021363D01*
X027562Y018625D02*
X028128Y018059D01*
X028128Y015396D01*
X027617Y014885D01*
X027231Y014885D01*
X026846Y014885D01*
X026846Y014491D01*
X027231Y014491D01*
X027231Y014294D01*
X027617Y014294D01*
X027617Y012523D01*
X027424Y012523D01*
X027424Y012326D01*
X027231Y012326D01*
X027424Y012326D02*
X027575Y012326D01*
X027617Y012283D01*
X027617Y012129D01*
X027231Y012129D01*
X027617Y012129D02*
X027617Y011539D01*
X027231Y011539D01*
X026846Y011539D01*
X026846Y010976D01*
X022071Y006202D01*
X014097Y006202D01*
X013652Y006202D01*
X014097Y006202D02*
X014097Y003717D01*
X014097Y003205D01*
X015601Y001702D01*
X017601Y001702D02*
X017841Y001702D01*
X014097Y003717D02*
X012550Y003717D01*
X012550Y004202D01*
X012550Y003717D02*
X012506Y003717D01*
X011381Y002592D01*
X008986Y002592D01*
X008821Y002592D01*
X008986Y002592D02*
X008986Y007324D01*
X010207Y008545D01*
X011448Y008545D01*
X012105Y009202D01*
X012550Y009202D01*
X012550Y009686D01*
X013011Y009686D01*
X014216Y010891D01*
X014216Y011256D01*
X014456Y011186D02*
X014456Y010655D01*
X014311Y010510D01*
X014798Y010724D02*
X014836Y010762D01*
X014836Y011256D01*
X014526Y011256D02*
X014456Y011186D01*
X013906Y011256D02*
X013906Y010891D01*
X013357Y010891D01*
X011183Y008717D01*
X010281Y008717D01*
X010080Y008918D01*
X010080Y009558D01*
X009652Y009986D01*
X009652Y011202D01*
X009652Y011444D01*
X009652Y011686D01*
X009266Y012071D01*
X009266Y012647D01*
X008927Y011694D02*
X008162Y011694D01*
X008046Y011579D01*
X008046Y009612D01*
X006386Y007952D01*
X006601Y007952D01*
X006386Y007952D02*
X006171Y007952D01*
X005746Y008376D01*
X005550Y008376D01*
X005550Y008717D01*
X005550Y009202D01*
X006207Y009202D02*
X006652Y009202D01*
X006207Y009202D02*
X006207Y009410D01*
X005016Y010602D01*
X002790Y010602D01*
X002691Y011623D02*
X002750Y011682D01*
X002691Y011623D02*
X001401Y011623D01*
X001027Y011623D02*
X000909Y011506D01*
X000909Y011458D01*
X001027Y011623D02*
X001027Y011990D01*
X000564Y012185D02*
X000564Y007529D01*
X001430Y006663D01*
X002101Y006663D02*
X002101Y005614D01*
X002101Y003746D01*
X002101Y003389D01*
X003085Y003389D02*
X003085Y005614D01*
X003085Y006384D01*
X002805Y006664D01*
X002805Y007149D01*
X004601Y006452D02*
X006601Y006452D01*
X007031Y006452D01*
X007031Y002602D01*
X008821Y000812D01*
X010262Y003776D02*
X009837Y004202D01*
X009412Y004202D01*
X010262Y003776D02*
X011236Y003776D01*
X012146Y004686D01*
X012945Y004686D01*
X013207Y004424D01*
X013207Y004202D01*
X013652Y004202D01*
X012550Y006202D02*
X012550Y006686D01*
X012402Y006686D01*
X012240Y006848D01*
X012995Y008149D02*
X012995Y009426D01*
X013254Y009686D01*
X014363Y009686D01*
X015203Y008845D01*
X019591Y008845D01*
X020524Y009777D01*
X020524Y011724D01*
X019641Y012606D01*
X018046Y012606D01*
X018046Y012296D02*
X018411Y012296D01*
X018437Y012271D01*
X019234Y012271D01*
X019664Y011890D02*
X018507Y011890D01*
X018411Y011986D01*
X018046Y011986D01*
X017895Y011582D02*
X019505Y011582D01*
X019527Y011560D01*
X020160Y011560D01*
X020182Y011582D01*
X020509Y012720D02*
X020065Y013164D01*
X020159Y013536D02*
X018046Y013536D01*
X018046Y013846D02*
X020458Y013846D01*
X020994Y013310D01*
X027231Y013310D01*
X027231Y013113D02*
X020582Y013113D01*
X020159Y013536D01*
X020644Y013901D02*
X020389Y014156D01*
X018046Y014156D01*
X018046Y014466D02*
X018411Y014466D01*
X018481Y014396D01*
X026547Y014396D01*
X026846Y014098D01*
X027231Y014098D01*
X027231Y013901D02*
X020644Y013901D01*
X020509Y012720D02*
X027231Y012720D01*
X027231Y012523D02*
X027424Y012523D01*
X027617Y014688D02*
X027231Y014688D01*
X027617Y014688D02*
X027680Y014688D01*
X027231Y015082D02*
X019472Y015082D01*
X019158Y015396D01*
X018411Y015396D01*
X018046Y015396D01*
X018046Y015086D02*
X018411Y015086D01*
X019001Y015086D01*
X019029Y015058D01*
X018610Y014734D02*
X018453Y014734D01*
X018411Y014776D01*
X018046Y014776D01*
X018046Y015706D02*
X018411Y015706D01*
X019088Y015706D01*
X019516Y015279D01*
X027231Y015279D01*
X027231Y015476D02*
X019559Y015476D01*
X019019Y016016D01*
X018411Y016016D01*
X018046Y016016D01*
X018046Y016326D02*
X018949Y016326D01*
X019603Y015672D01*
X027231Y015672D01*
X027231Y015869D02*
X019646Y015869D01*
X018880Y016636D01*
X018046Y016636D01*
X017316Y017001D02*
X018841Y017001D01*
X019775Y016066D01*
X027231Y016066D01*
X027231Y016263D02*
X020102Y016263D01*
X018634Y017731D01*
X017006Y017731D01*
X017006Y017366D01*
X016696Y017366D02*
X016696Y017731D01*
X016886Y017920D01*
X018798Y017920D01*
X020258Y016460D01*
X027231Y016460D01*
X027231Y016854D02*
X024943Y016854D01*
X024885Y016796D01*
X020875Y016796D01*
X020014Y017171D02*
X024138Y017171D01*
X024327Y016982D01*
X024830Y016982D01*
X024899Y017050D01*
X026846Y017050D01*
X027231Y017050D01*
X027231Y017247D02*
X024529Y017247D01*
X024459Y017317D01*
X024799Y017444D02*
X024298Y017945D01*
X020754Y017945D01*
X020283Y020202D02*
X020584Y020502D01*
X020584Y021937D01*
X017801Y019102D02*
X017801Y018572D01*
X017227Y018572D01*
X016537Y017882D01*
X016455Y017964D01*
X016537Y017882D02*
X016386Y017731D01*
X016386Y017366D01*
X017316Y017366D02*
X017316Y017001D01*
X014526Y017366D02*
X014526Y017731D01*
X013835Y018423D01*
X011654Y018423D01*
X010932Y017701D01*
X008960Y017701D01*
X008353Y017093D01*
X008353Y016510D01*
X008746Y016510D02*
X008746Y017093D01*
X009184Y017531D01*
X011063Y017531D01*
X011783Y018250D01*
X013697Y018250D01*
X014216Y017731D01*
X014216Y017366D01*
X013906Y017366D02*
X013906Y017731D01*
X013557Y018080D01*
X011853Y018080D01*
X011134Y017361D01*
X009408Y017361D01*
X009140Y017093D01*
X009140Y016510D01*
X009534Y016510D02*
X009534Y017093D01*
X011107Y017093D01*
X011924Y017910D01*
X013417Y017910D01*
X013596Y017731D01*
X013596Y017366D01*
X013286Y017366D02*
X013286Y017731D01*
X012780Y017731D01*
X012666Y017617D01*
X012666Y017509D01*
X012259Y017042D02*
X012301Y016999D01*
X012301Y016636D01*
X011936Y016636D01*
X011936Y016326D02*
X011571Y016326D01*
X011571Y016850D01*
X011763Y017042D01*
X012976Y017001D02*
X012976Y015761D01*
X012301Y015086D01*
X011936Y015086D01*
X011936Y015396D02*
X011571Y015396D01*
X010271Y014096D01*
X009790Y014096D01*
X009629Y013763D02*
X009446Y013946D01*
X009446Y014372D01*
X011089Y016016D01*
X011936Y016016D01*
X011936Y015706D02*
X011571Y015706D01*
X010379Y014514D01*
X010066Y014514D01*
X010217Y013763D02*
X009629Y013763D01*
X010217Y013763D02*
X011230Y014776D01*
X011571Y014776D01*
X011936Y014776D01*
X011936Y014466D02*
X011387Y014466D01*
X010560Y013639D01*
X010217Y013763D02*
X010217Y010120D01*
X010652Y009686D01*
X010652Y009202D01*
X010207Y008545D02*
X009550Y009202D01*
X009105Y009202D01*
X009105Y011516D01*
X008927Y011694D01*
X008550Y011202D02*
X008550Y007970D01*
X007031Y006452D01*
X005455Y008376D02*
X005031Y007952D01*
X004601Y007952D01*
X005455Y008376D02*
X005550Y008376D01*
X010790Y005944D02*
X010790Y004202D01*
X010790Y005944D02*
X012995Y008149D01*
X013652Y009202D02*
X014097Y009202D01*
X015272Y008027D01*
X021946Y008027D01*
X022264Y007708D01*
X022264Y007602D01*
X022690Y007602D01*
X021899Y007595D02*
X021744Y007595D01*
X021737Y007602D01*
X021312Y007602D01*
X019357Y009175D02*
X017482Y009175D01*
X015766Y010891D01*
X015766Y011256D01*
X016076Y011256D02*
X016076Y010891D01*
X017121Y009847D01*
X020123Y009847D01*
X017890Y011249D02*
X017347Y011792D01*
X013458Y011792D01*
X013286Y011621D01*
X013286Y011256D01*
X012976Y011256D02*
X012976Y010891D01*
X012902Y010816D01*
X011542Y010816D01*
X011427Y010931D01*
X012089Y011146D02*
X012301Y011359D01*
X012301Y013226D01*
X011936Y013226D01*
X011936Y012916D02*
X011571Y012916D01*
X011571Y012861D01*
X011409Y012698D01*
X011072Y012505D02*
X011402Y012175D01*
X011072Y012505D02*
X011072Y013036D01*
X011571Y013536D01*
X011936Y013536D01*
X011936Y013846D02*
X011411Y013846D01*
X011936Y014156D02*
X015321Y014156D01*
X017895Y011582D01*
X016212Y009837D02*
X015158Y010891D01*
X015146Y010891D01*
X015146Y011256D01*
X015146Y011621D01*
X013596Y011621D01*
X013596Y011256D01*
X010795Y018031D02*
X009434Y019392D01*
X008951Y019392D01*
X008951Y020146D01*
X009754Y020146D01*
X008951Y019392D02*
X005787Y019392D01*
X004297Y017902D01*
X003852Y017902D01*
X003852Y019502D02*
X004297Y019502D01*
X004941Y020146D01*
X006369Y020146D01*
X007581Y020146D01*
X008007Y020571D01*
X010921Y020571D01*
X011300Y020193D01*
X011300Y018554D01*
X010413Y021463D02*
X011167Y022217D01*
X011550Y022217D01*
X011550Y022702D01*
X014750Y021486D02*
X015159Y021486D01*
X016374Y022702D01*
X024918Y017798D02*
X025778Y017798D01*
X025818Y017838D01*
X027231Y017838D01*
X027231Y018035D02*
X025735Y018035D01*
X025641Y018128D01*
X026135Y018370D02*
X026274Y018231D01*
X027231Y018231D01*
X027231Y017641D02*
X027617Y017641D01*
X027779Y017641D01*
X027231Y017444D02*
X024799Y017444D01*
X006050Y022702D02*
X005605Y022702D01*
X003407Y020504D01*
X003407Y013948D01*
X003975Y013380D01*
X003975Y013013D01*
X001027Y013013D02*
X001027Y012647D01*
X000564Y012185D01*
X001027Y013013D02*
X001027Y020034D01*
X002394Y021402D01*
X002566Y021817D02*
X002022Y021817D01*
X001607Y021402D01*
X002566Y021817D02*
X002814Y021569D01*
D27*
X010413Y021463D03*
X011300Y018554D03*
X010795Y018031D03*
X011763Y017042D03*
X012259Y017042D03*
X011229Y016587D03*
X010066Y014514D03*
X009790Y014096D03*
X010560Y013639D03*
X011411Y013846D03*
X011409Y012698D03*
X011402Y012175D03*
X012089Y011146D03*
X011427Y010931D03*
X014311Y010510D03*
X014798Y010724D03*
X016212Y009837D03*
X017890Y011249D03*
X019234Y012271D03*
X019664Y011890D03*
X020182Y011582D03*
X020065Y013164D03*
X018610Y014734D03*
X019029Y015058D03*
X020875Y016796D03*
X020014Y017171D03*
X020754Y017945D03*
X024459Y017317D03*
X024918Y017798D03*
X025641Y018128D03*
X026135Y018370D03*
X027779Y017641D03*
X020123Y009847D03*
X019357Y009175D03*
X021899Y007595D03*
X012240Y006848D03*
X002173Y012284D03*
X000909Y011458D03*
X001970Y013818D03*
X016455Y017964D03*
M02*
