G75*
G70*
%OFA0B0*%
%FSLAX24Y24*%
%IPPOS*%
%LPD*%
%AMOC8*
5,1,8,0,0,1.08239X$1,22.5*
%
%ADD10R,0.0492X0.0098*%
%ADD11R,0.0807X0.0650*%
%ADD12R,0.0217X0.0472*%
%ADD13R,0.0394X0.0709*%
%ADD14R,0.0220X0.0470*%
%ADD15R,0.0470X0.0220*%
%ADD16R,0.0394X0.0453*%
%ADD17R,0.0630X0.0709*%
%ADD18R,0.0236X0.0906*%
%ADD19R,0.0394X0.0551*%
%ADD20R,0.0600X0.0300*%
%ADD21R,0.2165X0.0591*%
%ADD22R,0.0591X0.0591*%
%ADD23R,0.1400X0.0800*%
D10*
X027231Y011539D03*
X027231Y011735D03*
X027231Y011932D03*
X027231Y012129D03*
X027231Y012326D03*
X027231Y012523D03*
X027231Y012720D03*
X027231Y012917D03*
X027231Y013113D03*
X027231Y013310D03*
X027231Y013507D03*
X027231Y013704D03*
X027231Y013901D03*
X027231Y014098D03*
X027231Y014294D03*
X027231Y014491D03*
X027231Y014688D03*
X027231Y014885D03*
X027231Y015082D03*
X027231Y015279D03*
X027231Y015476D03*
X027231Y015672D03*
X027231Y015869D03*
X027231Y016066D03*
X027231Y016263D03*
X027231Y016460D03*
X027231Y016657D03*
X027231Y016854D03*
X027231Y017050D03*
X027231Y017247D03*
X027231Y017444D03*
X027231Y017641D03*
X027231Y017838D03*
X027231Y018035D03*
X027231Y018231D03*
X027231Y018428D03*
X027231Y018625D03*
X027231Y018822D03*
X027231Y019019D03*
X027231Y019216D03*
X027231Y019413D03*
X027231Y019609D03*
X027231Y019806D03*
X027231Y020003D03*
X027231Y020200D03*
X027231Y020397D03*
X027231Y020594D03*
X027231Y020791D03*
X027231Y020987D03*
X027231Y021184D03*
D11*
X028511Y021932D03*
X028511Y010791D03*
D12*
X020958Y021937D03*
X020584Y021937D03*
X020210Y021937D03*
X020210Y022961D03*
X020958Y022961D03*
X003975Y013013D03*
X003227Y013013D03*
X003227Y011990D03*
X003601Y011990D03*
X003975Y011990D03*
X001775Y011990D03*
X001401Y011990D03*
X001027Y011990D03*
X001027Y013013D03*
X001775Y013013D03*
D13*
X001702Y007149D03*
X002805Y007149D03*
D14*
X012666Y011256D03*
X012976Y011256D03*
X013286Y011256D03*
X013596Y011256D03*
X013906Y011256D03*
X014216Y011256D03*
X014526Y011256D03*
X014836Y011256D03*
X015146Y011256D03*
X015456Y011256D03*
X015766Y011256D03*
X016076Y011256D03*
X016386Y011256D03*
X016696Y011256D03*
X017006Y011256D03*
X017316Y011256D03*
X017316Y017366D03*
X017006Y017366D03*
X016696Y017366D03*
X016386Y017366D03*
X016076Y017366D03*
X015766Y017366D03*
X015456Y017366D03*
X015146Y017366D03*
X014836Y017366D03*
X014526Y017366D03*
X014216Y017366D03*
X013906Y017366D03*
X013596Y017366D03*
X013286Y017366D03*
X012976Y017366D03*
X012666Y017366D03*
D15*
X011936Y016636D03*
X011936Y016326D03*
X011936Y016016D03*
X011936Y015706D03*
X011936Y015396D03*
X011936Y015086D03*
X011936Y014776D03*
X011936Y014466D03*
X011936Y014156D03*
X011936Y013846D03*
X011936Y013536D03*
X011936Y013226D03*
X011936Y012916D03*
X011936Y012606D03*
X011936Y012296D03*
X011936Y011986D03*
X018046Y011986D03*
X018046Y012296D03*
X018046Y012606D03*
X018046Y012916D03*
X018046Y013226D03*
X018046Y013536D03*
X018046Y013846D03*
X018046Y014156D03*
X018046Y014466D03*
X018046Y014776D03*
X018046Y015086D03*
X018046Y015396D03*
X018046Y015706D03*
X018046Y016016D03*
X018046Y016326D03*
X018046Y016636D03*
D16*
X001117Y003389D03*
X002101Y003389D03*
X003085Y003389D03*
X003085Y005614D03*
X002101Y005614D03*
X001117Y005614D03*
D17*
X001450Y009002D03*
X002552Y009002D03*
X005550Y009202D03*
X006652Y009202D03*
X008550Y011202D03*
X009652Y011202D03*
X009550Y009202D03*
X010652Y009202D03*
X012550Y009202D03*
X013652Y009202D03*
X013652Y006202D03*
X012550Y006202D03*
X012550Y004202D03*
X013652Y004202D03*
X003852Y017902D03*
X002750Y017902D03*
X002750Y019502D03*
X003852Y019502D03*
X006050Y022702D03*
X007152Y022702D03*
X011550Y022702D03*
X012652Y022702D03*
X014750Y021002D03*
X015852Y021002D03*
X016152Y022702D03*
X015050Y022702D03*
X017550Y022702D03*
X018652Y022702D03*
X019950Y020202D03*
X021052Y020202D03*
D18*
X009534Y016510D03*
X009140Y016510D03*
X008746Y016510D03*
X008353Y016510D03*
D19*
X023192Y022222D03*
X023940Y022222D03*
X023566Y023088D03*
D20*
X006601Y007952D03*
X006601Y006452D03*
X004601Y006452D03*
X004601Y007952D03*
D21*
X006369Y020146D03*
X009754Y020146D03*
D22*
X001801Y015791D03*
X001801Y014413D03*
X001412Y010602D03*
X002790Y010602D03*
X009412Y004202D03*
X010790Y004202D03*
X021312Y007602D03*
X022690Y007602D03*
D23*
X017801Y019102D03*
X017801Y021102D03*
M02*
