G75*
G70*
%OFA0B0*%
%FSLAX24Y24*%
%IPPOS*%
%LPD*%
%AMOC8*
5,1,8,0,0,1.08239X$1,22.5*
%
%ADD10C,0.0010*%
%ADD11C,0.0030*%
%ADD12C,0.0040*%
%ADD13C,0.0080*%
%ADD14C,0.0060*%
%ADD15C,0.0050*%
%ADD16R,0.0167X0.0128*%
%ADD17R,0.0138X0.0138*%
%ADD18R,0.0128X0.0167*%
D10*
X004906Y000607D02*
X004906Y000757D01*
X004956Y000707D01*
X005006Y000757D01*
X005006Y000607D01*
X005053Y000607D02*
X005103Y000607D01*
X005078Y000607D02*
X005078Y000707D01*
X005053Y000707D01*
X005078Y000757D02*
X005078Y000782D01*
X005176Y000707D02*
X005151Y000682D01*
X005151Y000632D01*
X005176Y000607D01*
X005251Y000607D01*
X005299Y000607D02*
X005299Y000707D01*
X005251Y000707D02*
X005176Y000707D01*
X005299Y000657D02*
X005349Y000707D01*
X005374Y000707D01*
X005421Y000682D02*
X005421Y000632D01*
X005446Y000607D01*
X005496Y000607D01*
X005521Y000632D01*
X005521Y000682D01*
X005496Y000707D01*
X005446Y000707D01*
X005421Y000682D01*
X005569Y000632D02*
X005569Y000757D01*
X005669Y000757D02*
X005669Y000632D01*
X005644Y000607D01*
X005594Y000607D01*
X005569Y000632D01*
X005716Y000632D02*
X005741Y000607D01*
X005791Y000607D01*
X005816Y000632D01*
X005816Y000657D01*
X005791Y000682D01*
X005741Y000682D01*
X005716Y000707D01*
X005716Y000732D01*
X005741Y000757D01*
X005791Y000757D01*
X005816Y000732D01*
X005863Y000757D02*
X005938Y000757D01*
X005963Y000732D01*
X005963Y000707D01*
X005938Y000682D01*
X005863Y000682D01*
X005863Y000607D02*
X005863Y000757D01*
X005938Y000682D02*
X005963Y000657D01*
X005963Y000632D01*
X005938Y000607D01*
X005863Y000607D01*
X006158Y000632D02*
X006158Y000732D01*
X006183Y000757D01*
X006233Y000757D01*
X006258Y000732D01*
X006305Y000682D02*
X006305Y000632D01*
X006330Y000607D01*
X006380Y000607D01*
X006405Y000632D01*
X006405Y000682D01*
X006380Y000707D01*
X006330Y000707D01*
X006305Y000682D01*
X006258Y000632D02*
X006233Y000607D01*
X006183Y000607D01*
X006158Y000632D01*
X006453Y000607D02*
X006453Y000707D01*
X006528Y000707D01*
X006553Y000682D01*
X006553Y000607D01*
X006600Y000607D02*
X006600Y000707D01*
X006675Y000707D01*
X006700Y000682D01*
X006700Y000607D01*
X006747Y000632D02*
X006747Y000682D01*
X006772Y000707D01*
X006822Y000707D01*
X006847Y000682D01*
X006847Y000657D01*
X006747Y000657D01*
X006747Y000632D02*
X006772Y000607D01*
X006822Y000607D01*
X006895Y000632D02*
X006920Y000607D01*
X006995Y000607D01*
X007067Y000632D02*
X007092Y000607D01*
X007067Y000632D02*
X007067Y000732D01*
X007042Y000707D02*
X007092Y000707D01*
X007140Y000682D02*
X007140Y000632D01*
X007165Y000607D01*
X007215Y000607D01*
X007240Y000632D01*
X007240Y000682D01*
X007215Y000707D01*
X007165Y000707D01*
X007140Y000682D01*
X006995Y000707D02*
X006920Y000707D01*
X006895Y000682D01*
X006895Y000632D01*
X007287Y000657D02*
X007337Y000707D01*
X007362Y000707D01*
X007287Y000707D02*
X007287Y000607D01*
X012594Y003499D02*
X012694Y003499D01*
X012644Y003499D02*
X012644Y003650D01*
X012594Y003600D01*
X012742Y003574D02*
X012817Y003574D01*
X012842Y003549D01*
X012842Y003524D01*
X012817Y003499D01*
X012767Y003499D01*
X012742Y003524D01*
X012742Y003574D01*
X012792Y003625D01*
X012842Y003650D01*
X012889Y003650D02*
X012889Y003574D01*
X012939Y003600D01*
X012964Y003600D01*
X012989Y003574D01*
X012989Y003524D01*
X012964Y003499D01*
X012914Y003499D01*
X012889Y003524D01*
X012889Y003650D02*
X012989Y003650D01*
X012940Y005602D02*
X013015Y005602D01*
X013015Y005702D01*
X013062Y005677D02*
X013112Y005677D01*
X013062Y005602D02*
X013062Y005752D01*
X013162Y005752D01*
X012915Y005702D02*
X012915Y005627D01*
X012940Y005602D01*
X012867Y005727D02*
X012767Y005627D01*
X012767Y005602D01*
X012719Y005602D02*
X012694Y005602D01*
X012694Y005627D01*
X012719Y005627D01*
X012719Y005602D01*
X012621Y005602D02*
X012621Y005752D01*
X012546Y005677D01*
X012646Y005677D01*
X012767Y005752D02*
X012867Y005752D01*
X012867Y005727D01*
X012878Y008610D02*
X012853Y008635D01*
X012878Y008610D02*
X012929Y008610D01*
X012954Y008635D01*
X012954Y008685D01*
X012929Y008710D01*
X012904Y008710D01*
X012853Y008685D01*
X012853Y008760D01*
X012954Y008760D01*
X012806Y008760D02*
X012756Y008735D01*
X012706Y008685D01*
X012781Y008685D01*
X012806Y008660D01*
X012806Y008635D01*
X012781Y008610D01*
X012731Y008610D01*
X012706Y008635D01*
X012706Y008685D01*
X012659Y008610D02*
X012559Y008610D01*
X012609Y008610D02*
X012609Y008760D01*
X012559Y008710D01*
X009659Y009782D02*
X009559Y009782D01*
X009559Y009632D01*
X009512Y009632D02*
X009512Y009732D01*
X009559Y009707D02*
X009609Y009707D01*
X009512Y009632D02*
X009436Y009632D01*
X009411Y009657D01*
X009411Y009732D01*
X009314Y009782D02*
X009314Y009632D01*
X009264Y009632D02*
X009364Y009632D01*
X009264Y009732D02*
X009314Y009782D01*
X008924Y010601D02*
X008849Y010651D01*
X008924Y010701D01*
X008849Y010751D02*
X008849Y010601D01*
X008802Y010626D02*
X008777Y010601D01*
X008727Y010601D01*
X008702Y010626D01*
X008802Y010726D01*
X008802Y010626D01*
X008802Y010726D02*
X008777Y010751D01*
X008727Y010751D01*
X008702Y010726D01*
X008702Y010626D01*
X008654Y010601D02*
X008554Y010601D01*
X008604Y010601D02*
X008604Y010751D01*
X008554Y010701D01*
X005952Y008748D02*
X005852Y008748D01*
X005852Y008673D01*
X005902Y008698D01*
X005927Y008698D01*
X005952Y008673D01*
X005952Y008623D01*
X005927Y008598D01*
X005877Y008598D01*
X005852Y008623D01*
X005804Y008623D02*
X005804Y008648D01*
X005779Y008673D01*
X005704Y008673D01*
X005704Y008623D01*
X005729Y008598D01*
X005779Y008598D01*
X005804Y008623D01*
X005754Y008723D02*
X005704Y008673D01*
X005754Y008723D02*
X005804Y008748D01*
X005607Y008748D02*
X005607Y008598D01*
X005557Y008598D02*
X005657Y008598D01*
X005557Y008698D02*
X005607Y008748D01*
X001844Y008558D02*
X001744Y008558D01*
X001744Y008408D01*
X001697Y008408D02*
X001697Y008508D01*
X001744Y008483D02*
X001794Y008483D01*
X001697Y008408D02*
X001622Y008408D01*
X001597Y008433D01*
X001597Y008508D01*
X001499Y008558D02*
X001499Y008408D01*
X001449Y008408D02*
X001549Y008408D01*
X001449Y008508D02*
X001499Y008558D01*
X001520Y012507D02*
X001495Y012532D01*
X001520Y012507D02*
X001570Y012507D01*
X001595Y012532D01*
X001595Y012582D01*
X001570Y012607D01*
X001545Y012607D01*
X001495Y012582D01*
X001495Y012657D01*
X001595Y012657D01*
X001642Y012657D02*
X001642Y012582D01*
X001692Y012607D01*
X001717Y012607D01*
X001742Y012582D01*
X001742Y012532D01*
X001717Y012507D01*
X001667Y012507D01*
X001642Y012532D01*
X001642Y012657D02*
X001742Y012657D01*
X001790Y012657D02*
X001790Y012582D01*
X001840Y012607D01*
X001865Y012607D01*
X001890Y012582D01*
X001890Y012532D01*
X001865Y012507D01*
X001815Y012507D01*
X001790Y012532D01*
X001790Y012657D02*
X001890Y012657D01*
X001448Y012507D02*
X001348Y012507D01*
X001301Y012507D02*
X001200Y012657D01*
X001153Y012607D02*
X001103Y012657D01*
X001053Y012607D01*
X001053Y012507D01*
X001006Y012507D02*
X001006Y012657D01*
X000956Y012607D01*
X000906Y012657D01*
X000906Y012507D01*
X001053Y012582D02*
X001153Y012582D01*
X001153Y012607D02*
X001153Y012507D01*
X001200Y012507D02*
X001301Y012657D01*
X001348Y012607D02*
X001398Y012657D01*
X001398Y012507D01*
X003206Y012525D02*
X003224Y012507D01*
X003261Y012507D01*
X003279Y012525D01*
X003279Y012543D01*
X003261Y012562D01*
X003242Y012562D01*
X003261Y012562D02*
X003279Y012580D01*
X003279Y012598D01*
X003261Y012617D01*
X003224Y012617D01*
X003206Y012598D01*
X003316Y012525D02*
X003335Y012525D01*
X003335Y012507D01*
X003316Y012507D01*
X003316Y012525D01*
X003371Y012525D02*
X003390Y012507D01*
X003427Y012507D01*
X003445Y012525D01*
X003445Y012543D01*
X003427Y012562D01*
X003408Y012562D01*
X003427Y012562D02*
X003445Y012580D01*
X003445Y012598D01*
X003427Y012617D01*
X003390Y012617D01*
X003371Y012598D01*
X003482Y012617D02*
X003482Y012543D01*
X003519Y012507D01*
X003555Y012543D01*
X003555Y012617D01*
X003703Y012617D02*
X003758Y012617D01*
X003776Y012598D01*
X003776Y012562D01*
X003758Y012543D01*
X003703Y012543D01*
X003703Y012507D02*
X003703Y012617D01*
X003740Y012543D02*
X003776Y012507D01*
X003813Y012525D02*
X003813Y012562D01*
X003832Y012580D01*
X003868Y012580D01*
X003887Y012562D01*
X003887Y012543D01*
X003813Y012543D01*
X003813Y012525D02*
X003832Y012507D01*
X003868Y012507D01*
X003924Y012525D02*
X003942Y012507D01*
X003997Y012507D01*
X003997Y012488D02*
X003997Y012580D01*
X003942Y012580D01*
X003924Y012562D01*
X003924Y012525D01*
X003961Y012470D02*
X003979Y012470D01*
X003997Y012488D01*
X007146Y013807D02*
X007146Y013907D01*
X007146Y013857D02*
X007296Y013857D01*
X007271Y013954D02*
X007296Y013979D01*
X007296Y014029D01*
X007271Y014054D01*
X007221Y014054D01*
X007196Y014029D01*
X007196Y013979D01*
X007221Y013954D01*
X007271Y013954D01*
X007271Y014101D02*
X007196Y014101D01*
X007271Y014101D02*
X007296Y014126D01*
X007296Y014201D01*
X007196Y014201D01*
X007221Y014249D02*
X007271Y014249D01*
X007296Y014274D01*
X007296Y014349D01*
X007296Y014396D02*
X007146Y014396D01*
X007196Y014421D02*
X007196Y014471D01*
X007221Y014496D01*
X007296Y014496D01*
X007296Y014543D02*
X007296Y014618D01*
X007271Y014643D01*
X007221Y014643D01*
X007196Y014618D01*
X007196Y014543D01*
X007346Y014543D01*
X007271Y014691D02*
X007246Y014716D01*
X007246Y014791D01*
X007221Y014791D02*
X007296Y014791D01*
X007296Y014716D01*
X007271Y014691D01*
X007196Y014716D02*
X007196Y014766D01*
X007221Y014791D01*
X007221Y014838D02*
X007196Y014863D01*
X007196Y014938D01*
X007146Y014938D02*
X007296Y014938D01*
X007296Y014863D01*
X007271Y014838D01*
X007221Y014838D01*
X007171Y015132D02*
X007271Y015132D01*
X007296Y015157D01*
X007296Y015208D01*
X007271Y015233D01*
X007271Y015280D02*
X007296Y015305D01*
X007296Y015355D01*
X007271Y015380D01*
X007221Y015380D01*
X007196Y015355D01*
X007196Y015305D01*
X007221Y015280D01*
X007271Y015280D01*
X007171Y015233D02*
X007146Y015208D01*
X007146Y015157D01*
X007171Y015132D01*
X007196Y015427D02*
X007196Y015502D01*
X007221Y015527D01*
X007296Y015527D01*
X007296Y015574D02*
X007196Y015574D01*
X007196Y015649D01*
X007221Y015675D01*
X007296Y015675D01*
X007271Y015722D02*
X007221Y015722D01*
X007196Y015747D01*
X007196Y015797D01*
X007221Y015822D01*
X007246Y015822D01*
X007246Y015722D01*
X007271Y015722D02*
X007296Y015747D01*
X007296Y015797D01*
X007271Y015869D02*
X007221Y015869D01*
X007196Y015894D01*
X007196Y015969D01*
X007196Y016016D02*
X007196Y016066D01*
X007171Y016041D02*
X007271Y016041D01*
X007296Y016066D01*
X007271Y016115D02*
X007296Y016140D01*
X007296Y016190D01*
X007271Y016215D01*
X007221Y016215D01*
X007196Y016190D01*
X007196Y016140D01*
X007221Y016115D01*
X007271Y016115D01*
X007296Y015969D02*
X007296Y015894D01*
X007271Y015869D01*
X007296Y016262D02*
X007196Y016262D01*
X007246Y016262D02*
X007196Y016312D01*
X007196Y016337D01*
X007196Y015427D02*
X007296Y015427D01*
X007196Y014421D02*
X007221Y014396D01*
X007196Y014349D02*
X007196Y014274D01*
X007221Y014249D01*
X003710Y018348D02*
X003710Y018499D01*
X003810Y018499D01*
X003760Y018423D02*
X003710Y018423D01*
X003663Y018423D02*
X003663Y018373D01*
X003638Y018348D01*
X003563Y018348D01*
X003563Y018298D02*
X003563Y018449D01*
X003638Y018449D01*
X003663Y018423D01*
X003516Y018474D02*
X003516Y018373D01*
X003491Y018348D01*
X003441Y018348D01*
X003416Y018373D01*
X003516Y018474D01*
X003491Y018499D01*
X003441Y018499D01*
X003416Y018474D01*
X003416Y018373D01*
X003368Y018348D02*
X003268Y018348D01*
X003368Y018449D01*
X003368Y018474D01*
X003343Y018499D01*
X003293Y018499D01*
X003268Y018474D01*
X003565Y019891D02*
X003565Y020041D01*
X003640Y020041D01*
X003665Y020016D01*
X003665Y019966D01*
X003640Y019941D01*
X003565Y019941D01*
X003517Y019966D02*
X003492Y019941D01*
X003442Y019941D01*
X003417Y019966D01*
X003517Y020066D01*
X003517Y019966D01*
X003417Y019966D02*
X003417Y020066D01*
X003442Y020091D01*
X003492Y020091D01*
X003517Y020066D01*
X003370Y020066D02*
X003345Y020091D01*
X003295Y020091D01*
X003270Y020066D01*
X003370Y020066D02*
X003370Y020041D01*
X003270Y019941D01*
X003370Y019941D01*
X003712Y019941D02*
X003712Y020091D01*
X003812Y020091D01*
X003762Y020016D02*
X003712Y020016D01*
X006056Y022111D02*
X006156Y022111D01*
X006106Y022111D02*
X006106Y022261D01*
X006056Y022211D01*
X006203Y022211D02*
X006203Y022136D01*
X006228Y022111D01*
X006303Y022111D01*
X006303Y022211D01*
X006350Y022186D02*
X006400Y022186D01*
X006350Y022111D02*
X006350Y022261D01*
X006450Y022261D01*
X011557Y022204D02*
X011607Y022254D01*
X011607Y022104D01*
X011557Y022104D02*
X011657Y022104D01*
X011704Y022129D02*
X011729Y022104D01*
X011804Y022104D01*
X011804Y022204D01*
X011852Y022179D02*
X011902Y022179D01*
X011852Y022104D02*
X011852Y022254D01*
X011952Y022254D01*
X011704Y022204D02*
X011704Y022129D01*
X014760Y020527D02*
X014785Y020552D01*
X014835Y020552D01*
X014860Y020527D01*
X014760Y020427D01*
X014785Y020402D01*
X014835Y020402D01*
X014860Y020427D01*
X014860Y020527D01*
X014760Y020527D02*
X014760Y020427D01*
X014907Y020427D02*
X014907Y020402D01*
X014932Y020402D01*
X014932Y020427D01*
X014907Y020427D01*
X014981Y020402D02*
X015081Y020402D01*
X015031Y020402D02*
X015031Y020552D01*
X014981Y020502D01*
X015128Y020502D02*
X015128Y020427D01*
X015153Y020402D01*
X015229Y020402D01*
X015229Y020502D01*
X015276Y020477D02*
X015326Y020477D01*
X015276Y020552D02*
X015376Y020552D01*
X015276Y020552D02*
X015276Y020402D01*
X015291Y022101D02*
X015291Y022126D01*
X015391Y022226D01*
X015391Y022251D01*
X015291Y022251D01*
X015242Y022126D02*
X015242Y022101D01*
X015217Y022101D01*
X015217Y022126D01*
X015242Y022126D01*
X015170Y022176D02*
X015070Y022176D01*
X015145Y022251D01*
X015145Y022101D01*
X015438Y022126D02*
X015463Y022101D01*
X015539Y022101D01*
X015539Y022201D01*
X015586Y022176D02*
X015636Y022176D01*
X015586Y022251D02*
X015686Y022251D01*
X015586Y022251D02*
X015586Y022101D01*
X015438Y022126D02*
X015438Y022201D01*
X017556Y022202D02*
X017606Y022252D01*
X017606Y022102D01*
X017556Y022102D02*
X017656Y022102D01*
X017703Y022127D02*
X017728Y022102D01*
X017803Y022102D01*
X017803Y022202D01*
X017851Y022177D02*
X017901Y022177D01*
X017851Y022102D02*
X017851Y022252D01*
X017951Y022252D01*
X017703Y022202D02*
X017703Y022127D01*
X018648Y020229D02*
X018798Y020229D01*
X018723Y020229D02*
X018723Y020129D01*
X018698Y020082D02*
X018798Y020082D01*
X018798Y020007D01*
X018773Y019982D01*
X018698Y019982D01*
X018698Y019935D02*
X018723Y019910D01*
X018723Y019859D01*
X018698Y019834D01*
X018673Y019834D01*
X018648Y019859D01*
X018648Y019910D01*
X018673Y019935D01*
X018698Y019935D01*
X018723Y019910D02*
X018748Y019935D01*
X018773Y019935D01*
X018798Y019910D01*
X018798Y019859D01*
X018773Y019834D01*
X018748Y019834D01*
X018723Y019859D01*
X018773Y019786D02*
X018798Y019786D01*
X018798Y019761D01*
X018773Y019761D01*
X018773Y019786D01*
X018773Y019714D02*
X018748Y019714D01*
X018723Y019689D01*
X018723Y019614D01*
X018773Y019614D01*
X018798Y019639D01*
X018798Y019689D01*
X018773Y019714D01*
X018673Y019664D02*
X018723Y019614D01*
X018673Y019664D02*
X018648Y019714D01*
X018648Y020129D02*
X018798Y020129D01*
X019947Y019734D02*
X019972Y019759D01*
X020022Y019759D01*
X020047Y019734D01*
X020047Y019709D01*
X019947Y019609D01*
X020047Y019609D01*
X020094Y019634D02*
X020119Y019609D01*
X020169Y019609D01*
X020194Y019634D01*
X020194Y019684D01*
X020169Y019709D01*
X020144Y019709D01*
X020094Y019684D01*
X020094Y019759D01*
X020194Y019759D01*
X020315Y019759D02*
X020315Y019684D01*
X020365Y019709D01*
X020390Y019709D01*
X020415Y019684D01*
X020415Y019634D01*
X020390Y019609D01*
X020340Y019609D01*
X020315Y019634D01*
X020267Y019634D02*
X020267Y019609D01*
X020242Y019609D01*
X020242Y019634D01*
X020267Y019634D01*
X020315Y019759D02*
X020415Y019759D01*
X020400Y022407D02*
X020400Y022557D01*
X020501Y022407D01*
X020501Y022557D01*
X020548Y022557D02*
X020548Y022482D01*
X020598Y022507D01*
X020623Y022507D01*
X020648Y022482D01*
X020648Y022432D01*
X020623Y022407D01*
X020573Y022407D01*
X020548Y022432D01*
X020548Y022557D02*
X020648Y022557D01*
X020695Y022532D02*
X020720Y022557D01*
X020770Y022557D01*
X020795Y022532D01*
X020795Y022507D01*
X020770Y022482D01*
X020795Y022457D01*
X020795Y022432D01*
X020770Y022407D01*
X020720Y022407D01*
X020695Y022432D01*
X020745Y022482D02*
X020770Y022482D01*
X020842Y022532D02*
X020867Y022557D01*
X020917Y022557D01*
X020942Y022532D01*
X020942Y022507D01*
X020917Y022482D01*
X020942Y022457D01*
X020942Y022432D01*
X020917Y022407D01*
X020867Y022407D01*
X020842Y022432D01*
X020892Y022482D02*
X020917Y022482D01*
X020990Y022532D02*
X021015Y022557D01*
X021065Y022557D01*
X021090Y022532D01*
X021090Y022507D01*
X021065Y022482D01*
X021090Y022457D01*
X021090Y022432D01*
X021065Y022407D01*
X021015Y022407D01*
X020990Y022432D01*
X021040Y022482D02*
X021065Y022482D01*
X020353Y022482D02*
X020253Y022482D01*
X020253Y022507D02*
X020303Y022557D01*
X020353Y022507D01*
X020353Y022407D01*
X020253Y022407D02*
X020253Y022507D01*
X020206Y022557D02*
X020106Y022557D01*
X020106Y022407D01*
X020106Y022482D02*
X020156Y022482D01*
D11*
X008984Y021473D02*
X008737Y021227D01*
X008984Y021227D01*
X008984Y021473D02*
X008737Y021473D01*
X008616Y021412D02*
X008369Y021412D01*
X008369Y021227D02*
X008369Y021597D01*
X008248Y021597D02*
X008248Y021227D01*
X008001Y021227D02*
X008001Y021597D01*
X008124Y021473D01*
X008248Y021597D01*
X008616Y021597D02*
X008616Y021227D01*
X007511Y021288D02*
X007449Y021227D01*
X007326Y021227D01*
X007264Y021288D01*
X007511Y021535D01*
X007511Y021288D01*
X007264Y021288D02*
X007264Y021535D01*
X007326Y021597D01*
X007449Y021597D01*
X007511Y021535D01*
X007143Y021227D02*
X006896Y021227D01*
X007019Y021227D02*
X007019Y021597D01*
X006896Y021473D01*
X002734Y016625D02*
X002492Y016625D01*
X002492Y016480D01*
X002541Y016432D01*
X002637Y016432D01*
X002686Y016480D01*
X002686Y016625D01*
X002734Y016625D02*
X002783Y016577D01*
X002783Y016528D01*
X002686Y016331D02*
X002541Y016331D01*
X002492Y016282D01*
X002492Y016137D01*
X002686Y016137D01*
X002686Y016037D02*
X002686Y015941D01*
X002686Y015989D02*
X002492Y015989D01*
X002492Y015941D01*
X002492Y015839D02*
X002492Y015694D01*
X002541Y015646D01*
X002637Y015646D01*
X002686Y015694D01*
X002686Y015839D01*
X002734Y015839D02*
X002492Y015839D01*
X002396Y015989D02*
X002347Y015989D01*
X002734Y015839D02*
X002783Y015791D01*
X002783Y015743D01*
X002492Y015546D02*
X002492Y015497D01*
X002589Y015401D01*
X002686Y015401D02*
X002492Y015401D01*
X002541Y015299D02*
X002686Y015299D01*
X002686Y015154D01*
X002637Y015106D01*
X002589Y015154D01*
X002589Y015299D01*
X002541Y015299D02*
X002492Y015251D01*
X002492Y015154D01*
X002541Y015005D02*
X002686Y015005D01*
X002541Y015005D02*
X002492Y014956D01*
X002492Y014860D01*
X002541Y014811D01*
X002637Y014710D02*
X002686Y014662D01*
X002686Y014565D01*
X002637Y014517D01*
X002444Y014517D01*
X002396Y014565D01*
X002396Y014662D01*
X002444Y014710D01*
X002396Y014811D02*
X002686Y014811D01*
X002735Y011407D02*
X002735Y011117D01*
X002928Y011117D01*
X003029Y011117D02*
X003029Y011407D01*
X003223Y011407D01*
X003324Y011407D02*
X003469Y011407D01*
X003517Y011358D01*
X003517Y011165D01*
X003469Y011117D01*
X003324Y011117D01*
X003324Y011407D01*
X003126Y011262D02*
X003029Y011262D01*
X003029Y011117D02*
X003223Y011117D01*
X002339Y011310D02*
X002291Y011310D01*
X002194Y011213D01*
X002194Y011117D02*
X002194Y011310D01*
X002093Y011262D02*
X002093Y011213D01*
X001900Y011213D01*
X001900Y011165D02*
X001900Y011262D01*
X001948Y011310D01*
X002045Y011310D01*
X002093Y011262D01*
X002045Y011117D02*
X001948Y011117D01*
X001900Y011165D01*
X001799Y011165D02*
X001799Y011310D01*
X001799Y011165D02*
X001750Y011117D01*
X001702Y011165D01*
X001653Y011117D01*
X001605Y011165D01*
X001605Y011310D01*
X001504Y011262D02*
X001504Y011165D01*
X001456Y011117D01*
X001359Y011117D01*
X001310Y011165D01*
X001310Y011262D01*
X001359Y011310D01*
X001456Y011310D01*
X001504Y011262D01*
X001209Y011262D02*
X001161Y011213D01*
X001016Y011213D01*
X001016Y011117D02*
X001016Y011407D01*
X001161Y011407D01*
X001209Y011358D01*
X001209Y011262D01*
X001416Y007907D02*
X001561Y007907D01*
X001609Y007858D01*
X001609Y007762D01*
X001561Y007713D01*
X001416Y007713D01*
X001416Y007617D02*
X001416Y007907D01*
X001710Y007907D02*
X001904Y007907D01*
X001807Y007907D02*
X001807Y007617D01*
X002005Y007665D02*
X002005Y007858D01*
X002053Y007907D01*
X002150Y007907D01*
X002199Y007858D01*
X002300Y007858D02*
X002300Y007810D01*
X002348Y007762D01*
X002445Y007762D01*
X002493Y007713D01*
X002493Y007665D01*
X002445Y007617D01*
X002348Y007617D01*
X002300Y007665D01*
X002199Y007665D02*
X002150Y007617D01*
X002053Y007617D01*
X002005Y007665D01*
X002300Y007858D02*
X002348Y007907D01*
X002445Y007907D01*
X002493Y007858D01*
X002594Y007907D02*
X002691Y007810D01*
X002788Y007907D01*
X002788Y007617D01*
X002889Y007617D02*
X003034Y007617D01*
X003082Y007665D01*
X003082Y007858D01*
X003034Y007907D01*
X002889Y007907D01*
X002889Y007617D01*
X002594Y007617D02*
X002594Y007907D01*
X004796Y006077D02*
X004981Y006077D01*
X005043Y006015D01*
X005043Y005892D01*
X004981Y005830D01*
X004796Y005830D01*
X004919Y005830D02*
X005043Y005707D01*
X005164Y005768D02*
X005164Y005892D01*
X005226Y005953D01*
X005349Y005953D01*
X005411Y005892D01*
X005411Y005830D01*
X005164Y005830D01*
X005164Y005768D02*
X005226Y005707D01*
X005349Y005707D01*
X005532Y005707D02*
X005718Y005707D01*
X005779Y005768D01*
X005718Y005830D01*
X005594Y005830D01*
X005532Y005892D01*
X005594Y005953D01*
X005779Y005953D01*
X005901Y005892D02*
X005962Y005953D01*
X006086Y005953D01*
X006148Y005892D01*
X006148Y005830D01*
X005901Y005830D01*
X005901Y005768D02*
X005901Y005892D01*
X005901Y005768D02*
X005962Y005707D01*
X006086Y005707D01*
X006331Y005768D02*
X006392Y005707D01*
X006331Y005768D02*
X006331Y006015D01*
X006392Y005953D02*
X006269Y005953D01*
X004796Y006077D02*
X004796Y005707D01*
X008716Y005007D02*
X008716Y004717D01*
X008861Y004717D01*
X008909Y004765D01*
X008909Y004958D01*
X008861Y005007D01*
X008716Y005007D01*
X009010Y004862D02*
X009010Y004765D01*
X009059Y004717D01*
X009156Y004717D01*
X009204Y004813D02*
X009010Y004813D01*
X009010Y004862D02*
X009059Y004910D01*
X009156Y004910D01*
X009204Y004862D01*
X009204Y004813D01*
X009305Y004717D02*
X009450Y004717D01*
X009499Y004765D01*
X009499Y004862D01*
X009450Y004910D01*
X009305Y004910D01*
X009305Y005007D02*
X009305Y004717D01*
X009600Y004765D02*
X009600Y004910D01*
X009600Y004765D02*
X009648Y004717D01*
X009793Y004717D01*
X009793Y004910D01*
X009894Y004862D02*
X009894Y004765D01*
X009943Y004717D01*
X010088Y004717D01*
X010088Y004668D02*
X010088Y004910D01*
X009943Y004910D01*
X009894Y004862D01*
X009991Y004620D02*
X010039Y004620D01*
X010088Y004668D01*
X010484Y004717D02*
X010484Y005007D01*
X010484Y004717D02*
X010677Y004717D01*
X010778Y004717D02*
X010972Y004717D01*
X011073Y004717D02*
X011218Y004717D01*
X011266Y004765D01*
X011266Y004958D01*
X011218Y005007D01*
X011073Y005007D01*
X011073Y004717D01*
X010875Y004862D02*
X010778Y004862D01*
X010778Y005007D02*
X010778Y004717D01*
X010778Y005007D02*
X010972Y005007D01*
X010903Y003577D02*
X010855Y003577D01*
X010903Y003577D02*
X010903Y003287D01*
X010855Y003287D02*
X010951Y003287D01*
X011051Y003335D02*
X011051Y003432D01*
X011099Y003480D01*
X011196Y003480D01*
X011244Y003432D01*
X011244Y003383D01*
X011051Y003383D01*
X011051Y003335D02*
X011099Y003287D01*
X011196Y003287D01*
X011346Y003335D02*
X011346Y003432D01*
X011394Y003480D01*
X011491Y003480D01*
X011539Y003432D01*
X011539Y003383D01*
X011346Y003383D01*
X011346Y003335D02*
X011394Y003287D01*
X011491Y003287D01*
X011640Y003287D02*
X011785Y003287D01*
X011834Y003335D01*
X011834Y003432D01*
X011785Y003480D01*
X011640Y003480D01*
X011640Y003190D01*
X010753Y003335D02*
X010705Y003287D01*
X010608Y003287D01*
X010560Y003335D01*
X010608Y003432D02*
X010560Y003480D01*
X010560Y003528D01*
X010608Y003577D01*
X010705Y003577D01*
X010753Y003528D01*
X010705Y003432D02*
X010753Y003383D01*
X010753Y003335D01*
X010705Y003432D02*
X010608Y003432D01*
X010459Y003577D02*
X010265Y003287D01*
X010164Y003383D02*
X009971Y003383D01*
X009971Y003335D02*
X009971Y003432D01*
X010019Y003480D01*
X010116Y003480D01*
X010164Y003432D01*
X010164Y003383D01*
X010116Y003287D02*
X010019Y003287D01*
X009971Y003335D01*
X009870Y003287D02*
X009725Y003383D01*
X009870Y003480D01*
X009725Y003577D02*
X009725Y003287D01*
X009624Y003287D02*
X009624Y003432D01*
X009576Y003480D01*
X009479Y003480D01*
X009479Y003383D02*
X009624Y003383D01*
X009624Y003287D02*
X009479Y003287D01*
X009430Y003335D01*
X009479Y003383D01*
X009329Y003287D02*
X009329Y003577D01*
X009136Y003577D02*
X009136Y003287D01*
X009233Y003383D01*
X009329Y003287D01*
X020314Y008175D02*
X020459Y008175D01*
X020508Y008223D01*
X020508Y008272D01*
X020459Y008320D01*
X020314Y008320D01*
X020314Y008175D02*
X020314Y008465D01*
X020459Y008465D01*
X020508Y008417D01*
X020508Y008369D01*
X020459Y008320D01*
X020609Y008175D02*
X020706Y008175D01*
X020657Y008175D02*
X020657Y008465D01*
X020609Y008465D01*
X020805Y008369D02*
X020805Y008223D01*
X020854Y008175D01*
X020999Y008175D01*
X020999Y008369D01*
X021100Y008320D02*
X021148Y008369D01*
X021245Y008369D01*
X021293Y008320D01*
X021293Y008272D01*
X021100Y008272D01*
X021100Y008320D02*
X021100Y008223D01*
X021148Y008175D01*
X021245Y008175D01*
X021443Y008223D02*
X021491Y008175D01*
X021443Y008223D02*
X021443Y008417D01*
X021395Y008369D02*
X021491Y008369D01*
X021591Y008320D02*
X021591Y008223D01*
X021639Y008175D01*
X021736Y008175D01*
X021785Y008223D01*
X021785Y008320D01*
X021736Y008369D01*
X021639Y008369D01*
X021591Y008320D01*
X021886Y008320D02*
X021886Y008223D01*
X021934Y008175D01*
X022031Y008175D01*
X022079Y008223D01*
X022079Y008320D01*
X022031Y008369D01*
X021934Y008369D01*
X021886Y008320D01*
X022180Y008369D02*
X022277Y008369D01*
X022229Y008417D02*
X022229Y008223D01*
X022277Y008175D01*
X022377Y008175D02*
X022377Y008465D01*
X022425Y008369D02*
X022522Y008369D01*
X022570Y008320D01*
X022570Y008175D01*
X022377Y008320D02*
X022425Y008369D01*
X022966Y008369D02*
X023014Y008320D01*
X023111Y008320D01*
X023160Y008272D01*
X023160Y008223D01*
X023111Y008175D01*
X023014Y008175D01*
X022966Y008223D01*
X022966Y008369D02*
X022966Y008417D01*
X023014Y008465D01*
X023111Y008465D01*
X023160Y008417D01*
X023261Y008369D02*
X023357Y008369D01*
X023309Y008417D02*
X023309Y008223D01*
X023357Y008175D01*
X023457Y008223D02*
X023505Y008272D01*
X023651Y008272D01*
X023651Y008320D02*
X023651Y008175D01*
X023505Y008175D01*
X023457Y008223D01*
X023505Y008369D02*
X023602Y008369D01*
X023651Y008320D01*
X023752Y008369D02*
X023849Y008369D01*
X023800Y008417D02*
X023800Y008223D01*
X023849Y008175D01*
X023948Y008223D02*
X023948Y008369D01*
X023948Y008223D02*
X023997Y008175D01*
X024142Y008175D01*
X024142Y008369D01*
X024243Y008320D02*
X024291Y008369D01*
X024436Y008369D01*
X024388Y008272D02*
X024291Y008272D01*
X024243Y008320D01*
X024243Y008175D02*
X024388Y008175D01*
X024436Y008223D01*
X024388Y008272D01*
D12*
X024432Y021422D02*
X024279Y021422D01*
X024202Y021498D01*
X024202Y021652D02*
X024355Y021728D01*
X024432Y021728D01*
X024509Y021652D01*
X024509Y021498D01*
X024432Y021422D01*
X024202Y021652D02*
X024202Y021882D01*
X024509Y021882D01*
X024662Y021652D02*
X024969Y021652D01*
X024892Y021422D02*
X024892Y021882D01*
X024662Y021652D01*
X024048Y021882D02*
X023741Y021882D01*
X023895Y021882D02*
X023895Y021422D01*
X023588Y021422D02*
X023588Y021728D01*
X023435Y021882D01*
X023281Y021728D01*
X023281Y021422D01*
X023128Y021498D02*
X023051Y021422D01*
X022821Y021422D01*
X022821Y021882D01*
X023051Y021882D01*
X023128Y021805D01*
X023128Y021728D01*
X023051Y021652D01*
X022821Y021652D01*
X023051Y021652D02*
X023128Y021575D01*
X023128Y021498D01*
X023281Y021652D02*
X023588Y021652D01*
D13*
X003518Y003813D02*
X000683Y003813D01*
X000683Y005191D01*
X003518Y005191D01*
X003518Y003813D01*
X004994Y006202D02*
X006207Y006202D01*
X006601Y006713D02*
X006601Y007690D01*
X006207Y008202D02*
X004994Y008202D01*
X004601Y007702D02*
X004601Y006713D01*
X005101Y007202D02*
X005103Y007246D01*
X005109Y007290D01*
X005119Y007333D01*
X005132Y007375D01*
X005149Y007416D01*
X005170Y007455D01*
X005194Y007492D01*
X005221Y007527D01*
X005251Y007559D01*
X005284Y007589D01*
X005320Y007615D01*
X005357Y007639D01*
X005397Y007658D01*
X005438Y007675D01*
X005481Y007687D01*
X005524Y007696D01*
X005568Y007701D01*
X005612Y007702D01*
X005656Y007699D01*
X005700Y007692D01*
X005743Y007681D01*
X005785Y007667D01*
X005825Y007649D01*
X005864Y007627D01*
X005900Y007603D01*
X005934Y007575D01*
X005966Y007544D01*
X005995Y007510D01*
X006021Y007474D01*
X006043Y007436D01*
X006062Y007396D01*
X006077Y007354D01*
X006089Y007312D01*
X006097Y007268D01*
X006101Y007224D01*
X006101Y007180D01*
X006097Y007136D01*
X006089Y007092D01*
X006077Y007050D01*
X006062Y007008D01*
X006043Y006968D01*
X006021Y006930D01*
X005995Y006894D01*
X005966Y006860D01*
X005934Y006829D01*
X005900Y006801D01*
X005864Y006777D01*
X005825Y006755D01*
X005785Y006737D01*
X005743Y006723D01*
X005700Y006712D01*
X005656Y006705D01*
X005612Y006702D01*
X005568Y006703D01*
X005524Y006708D01*
X005481Y006717D01*
X005438Y006729D01*
X005397Y006746D01*
X005357Y006765D01*
X005320Y006789D01*
X005284Y006815D01*
X005251Y006845D01*
X005221Y006877D01*
X005194Y006912D01*
X005170Y006949D01*
X005149Y006988D01*
X005132Y007029D01*
X005119Y007071D01*
X005109Y007114D01*
X005103Y007158D01*
X005101Y007202D01*
X002504Y007449D02*
X002004Y007449D01*
X002004Y006849D02*
X002504Y006849D01*
X008901Y002106D02*
X008901Y001302D01*
X009251Y000502D02*
X010951Y000502D01*
X011301Y001302D02*
X011301Y002094D01*
X010951Y002902D02*
X009251Y002902D01*
X009401Y001702D02*
X009403Y001754D01*
X009409Y001806D01*
X009419Y001858D01*
X009432Y001908D01*
X009449Y001958D01*
X009470Y002006D01*
X009495Y002052D01*
X009523Y002096D01*
X009554Y002138D01*
X009588Y002178D01*
X009625Y002215D01*
X009665Y002249D01*
X009707Y002280D01*
X009751Y002308D01*
X009797Y002333D01*
X009845Y002354D01*
X009895Y002371D01*
X009945Y002384D01*
X009997Y002394D01*
X010049Y002400D01*
X010101Y002402D01*
X010153Y002400D01*
X010205Y002394D01*
X010257Y002384D01*
X010307Y002371D01*
X010357Y002354D01*
X010405Y002333D01*
X010451Y002308D01*
X010495Y002280D01*
X010537Y002249D01*
X010577Y002215D01*
X010614Y002178D01*
X010648Y002138D01*
X010679Y002096D01*
X010707Y002052D01*
X010732Y002006D01*
X010753Y001958D01*
X010770Y001908D01*
X010783Y001858D01*
X010793Y001806D01*
X010799Y001754D01*
X010801Y001702D01*
X010799Y001650D01*
X010793Y001598D01*
X010783Y001546D01*
X010770Y001496D01*
X010753Y001446D01*
X010732Y001398D01*
X010707Y001352D01*
X010679Y001308D01*
X010648Y001266D01*
X010614Y001226D01*
X010577Y001189D01*
X010537Y001155D01*
X010495Y001124D01*
X010451Y001096D01*
X010405Y001071D01*
X010357Y001050D01*
X010307Y001033D01*
X010257Y001020D01*
X010205Y001010D01*
X010153Y001004D01*
X010101Y001002D01*
X010049Y001004D01*
X009997Y001010D01*
X009945Y001020D01*
X009895Y001033D01*
X009845Y001050D01*
X009797Y001071D01*
X009751Y001096D01*
X009707Y001124D01*
X009665Y001155D01*
X009625Y001189D01*
X009588Y001226D01*
X009554Y001266D01*
X009523Y001308D01*
X009495Y001352D01*
X009470Y001398D01*
X009449Y001446D01*
X009432Y001496D01*
X009419Y001546D01*
X009409Y001598D01*
X009403Y001650D01*
X009401Y001702D01*
X004161Y012333D02*
X004161Y012671D01*
X003706Y012821D02*
X003495Y012821D01*
X003041Y012671D02*
X003041Y012333D01*
X001961Y012333D02*
X001961Y012671D01*
X001506Y012821D02*
X001295Y012821D01*
X000841Y012671D02*
X000841Y012333D01*
X020024Y022280D02*
X020024Y022618D01*
X020479Y022768D02*
X020690Y022768D01*
X021144Y022618D02*
X021144Y022280D01*
X027527Y021854D02*
X027527Y021381D01*
X027527Y021854D02*
X027920Y021854D01*
X029102Y021854D02*
X029259Y021854D01*
X029259Y021735D01*
X029259Y010987D01*
X029377Y010987D01*
X029377Y010869D01*
X029653Y010869D01*
X029653Y021854D01*
X029377Y021854D01*
X029377Y021735D01*
X029259Y021735D01*
X029377Y011617D02*
X029377Y011460D01*
X029535Y011539D01*
X029377Y011617D01*
X029377Y011590D02*
X029431Y011590D01*
X029481Y011512D02*
X029377Y011512D01*
X029259Y010987D02*
X029259Y010869D01*
X029102Y010869D01*
X027920Y010869D02*
X027527Y010869D01*
X027527Y011342D01*
D14*
X017699Y011603D02*
X012284Y011603D01*
X012284Y016849D01*
X012454Y017019D01*
X017699Y017019D01*
X017699Y011603D01*
X012456Y016626D02*
X012458Y016655D01*
X012464Y016684D01*
X012473Y016712D01*
X012487Y016738D01*
X012503Y016762D01*
X012523Y016784D01*
X012546Y016803D01*
X012570Y016819D01*
X012597Y016831D01*
X012625Y016840D01*
X012654Y016845D01*
X012683Y016846D01*
X012713Y016843D01*
X012741Y016836D01*
X012769Y016826D01*
X012794Y016811D01*
X012818Y016794D01*
X012839Y016774D01*
X012857Y016751D01*
X012872Y016725D01*
X012884Y016698D01*
X012892Y016670D01*
X012896Y016641D01*
X012896Y016611D01*
X012892Y016582D01*
X012884Y016554D01*
X012872Y016527D01*
X012857Y016501D01*
X012839Y016478D01*
X012818Y016458D01*
X012794Y016441D01*
X012769Y016426D01*
X012741Y016416D01*
X012713Y016409D01*
X012683Y016406D01*
X012654Y016407D01*
X012625Y016412D01*
X012597Y016421D01*
X012570Y016433D01*
X012546Y016449D01*
X012523Y016468D01*
X012503Y016490D01*
X012487Y016514D01*
X012473Y016540D01*
X012464Y016568D01*
X012458Y016597D01*
X012456Y016626D01*
X023006Y022595D02*
X023006Y022915D01*
X023226Y022915D01*
X023906Y022915D02*
X024126Y022915D01*
X024126Y022595D01*
D15*
X018601Y021602D02*
X018601Y020702D01*
X018601Y021602D02*
X017001Y021602D01*
X017001Y020702D01*
X018601Y019502D02*
X018601Y018602D01*
X017001Y018602D01*
X017001Y019402D01*
X010502Y019555D02*
X010502Y019201D01*
X005620Y019201D01*
X005620Y019555D01*
X005620Y020736D02*
X005620Y021091D01*
X010502Y021091D01*
X010502Y020736D01*
X010400Y013991D02*
X010400Y013715D01*
X010124Y013715D01*
X007762Y013715D02*
X007487Y013715D01*
X007487Y013991D01*
D16*
X002322Y010872D03*
X002322Y010331D03*
X009879Y004472D03*
X009879Y003931D03*
X022222Y007331D03*
X022222Y007872D03*
D17*
X022070Y007602D03*
X010032Y004202D03*
X002170Y010602D03*
X001801Y015170D03*
D18*
X002071Y015323D03*
X001530Y015323D03*
M02*
