G75*
G70*
%OFA0B0*%
%FSLAX24Y24*%
%IPPOS*%
%LPD*%
%AMOC8*
5,1,8,0,0,1.08239X$1,22.5*
%
%ADD10C,0.0560*%
%ADD11OC8,0.0740*%
%ADD12C,0.0740*%
%ADD13C,0.1700*%
%ADD14C,0.0650*%
%ADD15OC8,0.0560*%
%ADD16C,0.0640*%
%ADD17C,0.0680*%
%ADD18C,0.0984*%
%ADD19R,0.3000X0.3000*%
%ADD20R,0.1095X0.1095*%
%ADD21R,0.0740X0.0740*%
%ADD22C,0.0080*%
%ADD23C,0.0320*%
D10*
X007421Y013101D02*
X007981Y013101D01*
X007981Y014101D02*
X007421Y014101D01*
X007421Y015101D02*
X007981Y015101D01*
X007981Y016101D02*
X007421Y016101D01*
X007421Y017101D02*
X007981Y017101D01*
X007981Y018101D02*
X007421Y018101D01*
X007421Y019101D02*
X007981Y019101D01*
X007981Y020101D02*
X007421Y020101D01*
X007421Y021101D02*
X007981Y021101D01*
X007981Y022101D02*
X007421Y022101D01*
X007421Y023101D02*
X007981Y023101D01*
X007981Y024101D02*
X007421Y024101D01*
X007421Y025101D02*
X007981Y025101D01*
X007981Y026101D02*
X007421Y026101D01*
X010421Y026101D02*
X010981Y026101D01*
X010981Y025101D02*
X010421Y025101D01*
X010421Y024101D02*
X010981Y024101D01*
X010981Y023101D02*
X010421Y023101D01*
X010421Y022101D02*
X010981Y022101D01*
X010981Y021101D02*
X010421Y021101D01*
X010421Y020101D02*
X010981Y020101D01*
X010981Y019101D02*
X010421Y019101D01*
X010421Y018101D02*
X010981Y018101D01*
X010981Y017101D02*
X010421Y017101D01*
X010421Y016101D02*
X010981Y016101D01*
X010981Y015101D02*
X010421Y015101D01*
X010421Y014101D02*
X010981Y014101D01*
X010981Y013101D02*
X010421Y013101D01*
X029601Y007161D02*
X029601Y006601D01*
X030601Y006601D02*
X030601Y007161D01*
X031601Y007161D02*
X031601Y006601D01*
X031601Y003601D02*
X031601Y003041D01*
X030601Y003041D02*
X030601Y003601D01*
X029601Y003601D02*
X029601Y003041D01*
X037601Y003041D02*
X037601Y003601D01*
X038601Y003601D02*
X038601Y003041D01*
X039601Y003041D02*
X039601Y003601D01*
X039601Y006601D02*
X039601Y007161D01*
X038601Y007161D02*
X038601Y006601D01*
X037601Y006601D02*
X037601Y007161D01*
D11*
X003101Y009101D03*
X002101Y009101D03*
X002101Y010101D03*
X003101Y010101D03*
X003101Y011101D03*
X002101Y011101D03*
D12*
X008821Y007491D03*
X011381Y007491D03*
X011381Y005711D03*
X008821Y005711D03*
X009031Y002101D03*
X010101Y002101D03*
X011171Y002101D03*
X015101Y001601D03*
X017321Y003711D03*
X017321Y005491D03*
X019881Y005491D03*
X022601Y005101D03*
X022601Y006101D03*
X022601Y007101D03*
X026101Y007101D03*
X026101Y006101D03*
X026101Y005101D03*
X026101Y004101D03*
X026101Y003101D03*
X026101Y002101D03*
X022601Y002101D03*
X022601Y003101D03*
X022601Y004101D03*
X019881Y003711D03*
X019101Y001601D03*
X014601Y004601D03*
X014601Y006601D03*
X028601Y009101D03*
X028601Y011101D03*
X028601Y013101D03*
X028601Y015101D03*
X032601Y015101D03*
X032601Y013101D03*
X032601Y011101D03*
X032601Y009101D03*
X042601Y007101D03*
X042601Y003101D03*
X026601Y018101D03*
X029101Y020101D03*
X026601Y022101D03*
X029101Y022601D03*
X029101Y025101D03*
X029101Y027601D03*
X029134Y029021D03*
X028134Y029021D03*
X027134Y029021D03*
X024601Y029101D03*
X023601Y029101D03*
X022601Y029101D03*
X021601Y029101D03*
X020601Y029101D03*
X019601Y029101D03*
X021821Y026491D03*
X024381Y026491D03*
X024381Y024711D03*
X021821Y024711D03*
X015661Y029071D03*
X014661Y029071D03*
X013661Y029071D03*
X013171Y027121D03*
X010571Y029061D03*
X009571Y029061D03*
X008571Y029061D03*
X006491Y029081D03*
X005491Y029081D03*
X004491Y029081D03*
X005101Y025101D03*
X001101Y025101D03*
X005101Y020601D03*
X005101Y016601D03*
X013171Y023121D03*
X034101Y022601D03*
X034101Y025101D03*
X034101Y027601D03*
X034101Y020101D03*
D13*
X005101Y004132D03*
X006951Y005313D03*
X005101Y006494D03*
D14*
X004601Y014101D03*
X002601Y014101D03*
X003101Y017101D03*
X002101Y017101D03*
X002101Y019601D03*
X003101Y019601D03*
X003101Y021601D03*
X002101Y021601D03*
X013051Y021711D03*
X013051Y020711D03*
X030601Y017601D03*
X031601Y017601D03*
X034101Y004101D03*
X035101Y004101D03*
D15*
X007101Y009601D03*
X006101Y009601D03*
D16*
X023101Y009281D02*
X023101Y009921D01*
X024101Y009921D02*
X024101Y009281D01*
X025101Y009281D02*
X025101Y009921D01*
D17*
X035601Y009441D02*
X035601Y008761D01*
X036601Y008761D02*
X036601Y009441D01*
X037601Y009441D02*
X037601Y008761D01*
D18*
X042101Y009601D03*
X042101Y012101D03*
X042101Y014601D03*
X042101Y019101D03*
X042101Y021601D03*
X042101Y024101D03*
D19*
X016601Y014101D03*
D20*
X014001Y014101D03*
X019201Y014101D03*
D21*
X026134Y029021D03*
D22*
X026134Y028531D01*
X026601Y028064D01*
X027177Y028064D01*
X028134Y029021D01*
X027624Y029512D02*
X028643Y029512D01*
X029134Y029021D01*
X027624Y029512D02*
X027134Y029021D01*
X026601Y028064D02*
X026601Y022101D01*
X024381Y020321D02*
X024381Y024711D01*
X024381Y026491D02*
X021821Y026491D01*
X019601Y028376D02*
X019601Y029101D01*
X019399Y029592D02*
X018907Y029100D01*
X018907Y027909D01*
X013459Y022461D01*
X011741Y022461D01*
X011381Y022101D01*
X010701Y022101D01*
X011381Y023101D02*
X011861Y022621D01*
X013378Y022621D01*
X013992Y023235D01*
X013992Y024413D01*
X019332Y029752D01*
X020949Y029752D01*
X021601Y029101D01*
X020601Y029101D02*
X020110Y029592D01*
X019399Y029592D01*
X019601Y028376D02*
X013469Y022244D01*
X012524Y022244D01*
X011381Y021101D01*
X010701Y021101D01*
X010701Y020101D02*
X010727Y020101D01*
X011381Y020101D01*
X013051Y020101D01*
X013051Y020711D01*
X013051Y020101D02*
X013051Y019271D01*
X016601Y015721D01*
X016601Y014101D01*
X014981Y015669D02*
X014981Y012522D01*
X015644Y011859D01*
X018543Y011859D01*
X023106Y007296D01*
X023106Y005606D01*
X022601Y005101D01*
X022601Y004101D02*
X021211Y005491D01*
X019881Y005491D01*
X018381Y007101D02*
X011381Y014101D01*
X010701Y014101D01*
X010701Y013101D02*
X009170Y014632D01*
X009170Y018487D01*
X008056Y019601D01*
X007343Y019601D01*
X006615Y020329D01*
X006615Y027957D01*
X006615Y027957D01*
X005491Y029081D01*
X004991Y029296D02*
X004991Y026599D01*
X005845Y025745D01*
X005845Y020096D01*
X007340Y018601D01*
X008061Y018601D01*
X008400Y018261D01*
X008400Y015935D01*
X008066Y015601D01*
X007354Y015601D01*
X007021Y015267D01*
X007021Y013101D01*
X007701Y013101D01*
X008381Y014554D02*
X012326Y010609D01*
X013734Y010609D01*
X021242Y003101D01*
X022601Y003101D01*
X023266Y002766D02*
X022601Y002101D01*
X023266Y002766D02*
X023266Y008676D01*
X023101Y008841D01*
X023101Y009601D01*
X024661Y009601D02*
X024661Y010101D01*
X013051Y021711D01*
X013171Y023121D02*
X013171Y026154D01*
X010571Y028754D01*
X010571Y029061D01*
X010037Y029594D01*
X005289Y029594D01*
X004991Y029296D01*
X004491Y029081D02*
X004491Y025711D01*
X005101Y025101D01*
X005101Y020601D01*
X003101Y019601D02*
X003101Y021601D01*
X002601Y021101D02*
X002101Y021601D01*
X002601Y021101D02*
X002601Y014101D01*
X004601Y014101D02*
X007021Y016521D01*
X007021Y018101D01*
X007701Y018101D01*
X010021Y018101D02*
X010701Y018101D01*
X010021Y018101D02*
X010021Y019101D01*
X010701Y019101D01*
X011049Y019601D02*
X010330Y019601D01*
X008381Y021550D01*
X008381Y023101D01*
X007701Y023101D01*
X009095Y021733D02*
X009095Y028567D01*
X009571Y029043D01*
X009571Y029061D01*
X009095Y028567D02*
X007004Y028567D01*
X006491Y029081D01*
X013171Y027121D02*
X014661Y028611D01*
X014661Y029071D01*
X011381Y023101D02*
X010701Y023101D01*
X009095Y021733D02*
X010727Y020101D01*
X011049Y019601D02*
X014981Y015669D01*
X010021Y019101D02*
X009021Y020101D01*
X007701Y020101D01*
X003101Y019601D02*
X003101Y017101D01*
X003101Y012022D01*
X003204Y011919D01*
X002591Y011306D01*
X002591Y011101D01*
X002101Y011101D01*
X003101Y011101D02*
X003591Y011101D01*
X003591Y010941D01*
X008821Y005711D01*
X008883Y003319D02*
X007559Y003319D01*
X005101Y005777D01*
X005101Y006494D01*
X005922Y009200D02*
X006300Y009200D01*
X006701Y009601D01*
X007101Y009601D01*
X006101Y009601D02*
X006101Y010001D01*
X004152Y011950D01*
X004152Y015652D01*
X005101Y016601D01*
X007701Y015101D02*
X008381Y015101D01*
X008381Y014554D01*
X003204Y011919D02*
X005922Y009200D01*
X002101Y009101D02*
X002101Y009591D01*
X001917Y009591D01*
X001603Y009905D01*
X001603Y016603D01*
X002101Y017101D01*
X018381Y007101D02*
X022601Y007101D01*
X024661Y009601D02*
X025101Y009601D01*
X028601Y011101D02*
X029601Y010101D01*
X029601Y006601D01*
X030013Y004413D02*
X029601Y004001D01*
X029601Y003601D01*
X030201Y003038D02*
X029264Y002101D01*
X026101Y002101D01*
X030013Y004413D02*
X030013Y011688D01*
X028601Y013101D01*
X030201Y012701D02*
X030201Y003038D01*
X026611Y005611D02*
X026101Y005101D01*
X026611Y005611D02*
X026611Y013111D01*
X028601Y015101D01*
X030201Y012701D02*
X032601Y015101D01*
X034101Y011719D02*
X036087Y009733D01*
X036087Y006515D01*
X038601Y004001D01*
X038601Y003601D01*
X035601Y004601D02*
X035101Y004101D01*
X035601Y004601D02*
X035601Y009101D01*
X034101Y011719D02*
X034101Y020101D01*
X034101Y022601D01*
X034101Y025101D02*
X034101Y027601D01*
X026601Y018101D02*
X024381Y020321D01*
X014601Y004601D02*
X012101Y002101D01*
X011171Y002101D01*
X010101Y002101D02*
X008883Y003319D01*
X017321Y003711D02*
X018321Y003711D01*
X019101Y002931D01*
X019881Y003711D01*
X019101Y002931D02*
X019101Y001601D01*
D23*
X036601Y009101D02*
X036601Y010041D01*
X039320Y010041D01*
X039335Y010056D01*
X039335Y018264D01*
X041264Y018264D01*
X042101Y019101D01*
X039335Y018264D02*
X032499Y025101D01*
X029101Y025101D01*
X029101Y027601D01*
X029101Y022601D02*
X029101Y020101D01*
X031601Y017601D01*
X039335Y010056D02*
X039645Y010056D01*
X042601Y007101D01*
M02*
