G75*
G70*
%OFA0B0*%
%FSLAX24Y24*%
%IPPOS*%
%LPD*%
%AMOC8*
5,1,8,0,0,1.08239X$1,22.5*
%
%ADD10C,0.0560*%
%ADD11OC8,0.0740*%
%ADD12C,0.0740*%
%ADD13C,0.1700*%
%ADD14C,0.0650*%
%ADD15OC8,0.0560*%
%ADD16R,0.0630X0.0315*%
%ADD17R,0.0315X0.0630*%
%ADD18C,0.0640*%
%ADD19C,0.0680*%
%ADD20C,0.0984*%
%ADD21R,0.1095X0.1095*%
%ADD22R,0.0780X0.0209*%
%ADD23R,0.0740X0.0740*%
%ADD24C,0.0080*%
%ADD25C,0.0100*%
%ADD26C,0.0320*%
%ADD27C,0.0400*%
D10*
X009702Y013149D02*
X010262Y013149D01*
X010262Y014149D02*
X009702Y014149D01*
X009702Y015149D02*
X010262Y015149D01*
X010262Y016149D02*
X009702Y016149D01*
X009702Y017149D02*
X010262Y017149D01*
X010262Y018149D02*
X009702Y018149D01*
X009702Y019149D02*
X010262Y019149D01*
X010262Y020149D02*
X009702Y020149D01*
X009702Y021149D02*
X010262Y021149D01*
X010262Y022149D02*
X009702Y022149D01*
X009702Y023149D02*
X010262Y023149D01*
X010262Y024149D02*
X009702Y024149D01*
X009702Y025149D02*
X010262Y025149D01*
X010262Y026149D02*
X009702Y026149D01*
X012702Y026149D02*
X013262Y026149D01*
X013262Y025149D02*
X012702Y025149D01*
X012702Y024149D02*
X013262Y024149D01*
X013262Y023149D02*
X012702Y023149D01*
X012702Y022149D02*
X013262Y022149D01*
X013262Y021149D02*
X012702Y021149D01*
X012702Y020149D02*
X013262Y020149D01*
X013262Y019149D02*
X012702Y019149D01*
X012702Y018149D02*
X013262Y018149D01*
X013262Y017149D02*
X012702Y017149D01*
X012702Y016149D02*
X013262Y016149D01*
X013262Y015149D02*
X012702Y015149D01*
X012702Y014149D02*
X013262Y014149D01*
X013262Y013149D02*
X012702Y013149D01*
X029601Y007161D02*
X029601Y006601D01*
X030601Y006601D02*
X030601Y007161D01*
X031601Y007161D02*
X031601Y006601D01*
X031601Y003601D02*
X031601Y003041D01*
X030601Y003041D02*
X030601Y003601D01*
X029601Y003601D02*
X029601Y003041D01*
X037601Y003041D02*
X037601Y003601D01*
X038601Y003601D02*
X038601Y003041D01*
X039601Y003041D02*
X039601Y003601D01*
X039601Y006601D02*
X039601Y007161D01*
X038601Y007161D02*
X038601Y006601D01*
X037601Y006601D02*
X037601Y007161D01*
D11*
X003101Y009101D03*
X002101Y009101D03*
X002101Y010101D03*
X003101Y010101D03*
X003101Y011101D03*
X002101Y011101D03*
D12*
X008821Y007491D03*
X011381Y007491D03*
X011381Y005711D03*
X008821Y005711D03*
X009031Y002101D03*
X010101Y002101D03*
X011171Y002101D03*
X015101Y001601D03*
X017321Y003711D03*
X017321Y005491D03*
X019881Y005491D03*
X022601Y005101D03*
X022601Y006101D03*
X022601Y007101D03*
X026101Y007101D03*
X026101Y006101D03*
X026101Y005101D03*
X026101Y004101D03*
X026101Y003101D03*
X026101Y002101D03*
X022601Y002101D03*
X022601Y003101D03*
X022601Y004101D03*
X019881Y003711D03*
X019101Y001601D03*
X014601Y004601D03*
X014601Y006601D03*
X028601Y009101D03*
X028601Y011101D03*
X028601Y013101D03*
X028601Y015101D03*
X032601Y015101D03*
X032601Y013101D03*
X032601Y011101D03*
X032601Y009101D03*
X042601Y007101D03*
X042601Y003101D03*
X026601Y018101D03*
X029101Y020101D03*
X026601Y022101D03*
X029101Y022601D03*
X027425Y024638D03*
X029101Y025101D03*
X027425Y026418D03*
X029101Y027601D03*
X024865Y026418D03*
X024865Y024638D03*
X034101Y025101D03*
X034101Y027601D03*
X034101Y022601D03*
X034101Y020101D03*
X020304Y018090D03*
X016304Y018090D03*
X007179Y016601D03*
X002209Y017185D03*
X002209Y018185D03*
X002209Y019185D03*
X002209Y020185D03*
X002209Y021185D03*
X002209Y022185D03*
X002289Y024718D03*
X003139Y025101D03*
X002289Y025718D03*
X002289Y026718D03*
X004491Y029081D03*
X005491Y029081D03*
X006491Y029081D03*
X008571Y029061D03*
X009571Y029061D03*
X010571Y029061D03*
X013345Y029071D03*
X014345Y029071D03*
X015345Y029071D03*
X007139Y025101D03*
X007179Y020601D03*
D13*
X005101Y006494D03*
X006951Y005313D03*
X005101Y004132D03*
D14*
X004243Y014101D03*
X006243Y014101D03*
X004743Y017101D03*
X003743Y017101D03*
X004178Y019641D03*
X005178Y019641D03*
X005258Y021601D03*
X004258Y021601D03*
X021714Y017970D03*
X022714Y017970D03*
X030601Y017601D03*
X031601Y017601D03*
X034101Y004101D03*
X035101Y004101D03*
D15*
X007101Y009601D03*
X006101Y009601D03*
D16*
X018284Y021252D03*
X018284Y021725D03*
X018284Y022197D03*
X018284Y022670D03*
X018284Y023142D03*
X018284Y023615D03*
X018284Y024087D03*
X018284Y024559D03*
X018284Y025032D03*
X018284Y025504D03*
X018284Y025977D03*
X018284Y026449D03*
X023481Y026449D03*
X023481Y025977D03*
X023481Y025504D03*
X023481Y025032D03*
X023481Y024559D03*
X023481Y024087D03*
X023481Y023615D03*
X023481Y023142D03*
X023481Y022670D03*
X023481Y022197D03*
X023481Y021725D03*
X023481Y021252D03*
D17*
X022506Y020150D03*
X022103Y020150D03*
X021631Y020150D03*
X021158Y020150D03*
X020607Y020150D03*
X020135Y020150D03*
X019662Y020150D03*
X019260Y020150D03*
X021513Y027552D03*
X022143Y027552D03*
X022773Y027552D03*
D18*
X023101Y009921D02*
X023101Y009281D01*
X024101Y009281D02*
X024101Y009921D01*
X025101Y009921D02*
X025101Y009281D01*
D19*
X035601Y009441D02*
X035601Y008761D01*
X036601Y008761D02*
X036601Y009441D01*
X037601Y009441D02*
X037601Y008761D01*
D20*
X042101Y009601D03*
X042101Y012101D03*
X042101Y014601D03*
X042101Y019101D03*
X042101Y021601D03*
X042101Y024101D03*
D21*
X020582Y014101D03*
X015382Y014101D03*
D22*
X016116Y012851D03*
X016116Y012351D03*
X016116Y011851D03*
X016116Y011351D03*
X016116Y010851D03*
X016116Y010351D03*
X016116Y009851D03*
X016116Y009351D03*
X016116Y008851D03*
X016116Y008351D03*
X019805Y008351D03*
X019805Y008851D03*
X019805Y009351D03*
X019805Y009851D03*
X019805Y010351D03*
X019805Y010851D03*
X019805Y011351D03*
X019805Y011851D03*
X019805Y012351D03*
X019805Y012851D03*
D23*
X002289Y023718D03*
D24*
X003139Y025101D02*
X004187Y026149D01*
X009982Y026149D01*
X009982Y025149D02*
X010662Y025149D01*
X012410Y026897D01*
X018737Y026897D01*
X023046Y022588D01*
X023046Y021725D01*
X023481Y021725D01*
X023481Y021252D02*
X023046Y021252D01*
X022820Y021479D01*
X022820Y022560D01*
X018649Y026731D01*
X015159Y026731D01*
X014164Y025736D01*
X012469Y025736D01*
X010882Y024149D01*
X009982Y024149D01*
X010756Y024603D02*
X012302Y026149D01*
X012982Y026149D01*
X012982Y025149D02*
X012302Y025149D01*
X010802Y023649D01*
X004673Y023649D01*
X002209Y021185D01*
X002209Y022185D02*
X004627Y024603D01*
X010756Y024603D01*
X012302Y024149D02*
X012982Y024149D01*
X012302Y024149D02*
X010775Y022623D01*
X004646Y022623D01*
X002209Y020185D01*
X002209Y019185D02*
X003289Y020265D01*
X006005Y020265D01*
X007389Y021649D01*
X010802Y021649D01*
X012302Y023149D01*
X012982Y023149D01*
X012982Y022149D02*
X012302Y022149D01*
X012302Y021602D01*
X010435Y019735D01*
X008290Y019735D01*
X007392Y018837D01*
X002861Y018837D01*
X002209Y018185D01*
X003129Y018105D02*
X007548Y018105D01*
X009012Y019569D01*
X010722Y019569D01*
X012302Y021149D01*
X012982Y021149D01*
X013662Y020149D02*
X014765Y021252D01*
X017849Y021252D01*
X017849Y026449D01*
X018284Y026449D01*
X017763Y027547D02*
X021513Y027552D01*
X021513Y027157D01*
X021553Y027117D01*
X022773Y027117D01*
X022773Y027552D01*
X022773Y027117D02*
X024166Y027117D01*
X024865Y026418D01*
X027425Y026418D01*
X027425Y024638D02*
X024865Y024638D01*
X024865Y021981D01*
X023793Y020909D01*
X026601Y018101D01*
X023164Y017512D02*
X023164Y011538D01*
X024661Y010041D01*
X024661Y009601D01*
X025101Y009601D01*
X024101Y009601D02*
X023661Y009601D01*
X023661Y009216D01*
X023041Y008596D01*
X020315Y008596D01*
X020060Y008851D01*
X019933Y008851D01*
X019933Y009351D01*
X019869Y009351D01*
X019869Y009851D01*
X019805Y009851D01*
X019869Y009851D02*
X019933Y009851D01*
X019933Y010351D01*
X019869Y010351D01*
X019805Y010351D01*
X017726Y010351D01*
X017426Y010651D01*
X016626Y009851D01*
X016116Y009851D01*
X016116Y009351D02*
X016586Y009351D01*
X016626Y009391D01*
X016626Y009851D01*
X016586Y009351D02*
X016586Y009193D01*
X016244Y008851D01*
X016244Y008351D01*
X016116Y008351D01*
X016132Y008851D02*
X016116Y008851D01*
X016132Y008851D02*
X016244Y008851D01*
X016116Y010351D02*
X015606Y010351D01*
X015606Y005425D01*
X017321Y003711D01*
X015601Y002101D02*
X015446Y002255D01*
X015446Y005755D01*
X014601Y006601D01*
X012987Y008214D01*
X003274Y008214D01*
X002591Y008898D01*
X002591Y009101D01*
X002101Y009101D01*
X002888Y009601D02*
X002591Y009898D01*
X002591Y010101D01*
X002101Y010101D01*
X002888Y009601D02*
X003659Y009601D01*
X004225Y009035D01*
X009734Y009035D01*
X013662Y012963D01*
X013662Y013103D01*
X013662Y015149D01*
X012982Y015149D01*
X012982Y016149D02*
X015497Y016149D01*
X019295Y012351D01*
X019296Y012351D01*
X019356Y012351D01*
X019805Y012351D01*
X019805Y011851D02*
X020275Y011851D01*
X020315Y011891D01*
X020315Y012851D01*
X019900Y012851D01*
X019805Y012851D01*
X019295Y012851D01*
X015037Y017109D01*
X012982Y017109D01*
X012982Y017149D01*
X012982Y017109D02*
X011248Y015375D01*
X011248Y013169D01*
X007275Y009196D01*
X004496Y009196D01*
X003591Y010101D01*
X003101Y010101D01*
X003101Y009101D02*
X003591Y009101D01*
X003824Y008868D01*
X011432Y008868D01*
X015205Y012641D01*
X015572Y012641D01*
X015637Y012576D01*
X017229Y012576D01*
X018679Y011126D01*
X020266Y011126D01*
X020315Y011176D01*
X020315Y011521D01*
X020210Y011626D01*
X019366Y011626D01*
X019295Y011697D01*
X019295Y012351D01*
X019087Y011351D02*
X017335Y013103D01*
X013662Y013103D01*
X015443Y012317D02*
X015606Y012154D01*
X015606Y010851D01*
X016116Y010851D01*
X016626Y011451D02*
X016626Y012351D01*
X016116Y012351D01*
X016626Y011451D02*
X017426Y010651D01*
X019087Y011351D02*
X019805Y011351D01*
X019805Y010851D02*
X020315Y010851D01*
X020582Y011118D01*
X020582Y014101D01*
X019813Y017599D02*
X012585Y017599D01*
X010662Y015675D01*
X010662Y013149D01*
X009982Y013149D01*
X007413Y015260D02*
X005402Y015260D01*
X004243Y014101D01*
X003756Y012546D02*
X002311Y011101D01*
X002101Y011101D01*
X003756Y012546D02*
X003756Y012546D01*
X003756Y016114D01*
X004743Y017101D01*
X007254Y017101D01*
X009302Y019149D01*
X009982Y019149D01*
X012042Y019149D01*
X013042Y020149D01*
X013116Y020149D01*
X013662Y020149D01*
X013042Y020149D02*
X012982Y020149D01*
X012982Y018149D02*
X013662Y018149D01*
X013721Y018090D01*
X016304Y018090D01*
X019813Y017599D02*
X020304Y018090D01*
X021714Y017970D02*
X022171Y017512D01*
X023164Y017512D01*
X023164Y020152D01*
X021591Y021725D01*
X018284Y021725D01*
X018284Y021252D02*
X017849Y021252D01*
X018284Y021252D02*
X018719Y021252D01*
X019387Y020585D01*
X019662Y020585D01*
X019662Y020150D01*
X019662Y020585D02*
X022103Y020585D01*
X022103Y020150D01*
X022103Y018580D01*
X022714Y017970D01*
X019662Y020585D02*
X019662Y020585D01*
X022693Y020909D02*
X023793Y020909D01*
X022693Y020909D02*
X019042Y024559D01*
X018284Y024559D01*
X017763Y027547D02*
X016675Y029574D01*
X013838Y029564D01*
X013345Y029071D01*
X012855Y029561D01*
X010071Y029561D01*
X009571Y029061D01*
X009071Y029561D01*
X006971Y029561D01*
X006491Y029081D01*
X004941Y028591D02*
X008101Y028591D01*
X008571Y029061D01*
X009063Y028569D01*
X013843Y028569D01*
X014345Y029071D01*
X004941Y028631D02*
X004941Y028591D01*
X004941Y028370D01*
X002289Y025718D01*
X004941Y028631D02*
X004491Y029081D01*
X007179Y020601D02*
X008850Y020601D01*
X009302Y020149D01*
X009982Y020149D01*
X009982Y017149D02*
X009302Y017149D01*
X007413Y015260D01*
X003756Y012546D02*
X006701Y009601D01*
X007101Y009601D01*
X008821Y007491D02*
X011381Y007491D01*
X008821Y007491D02*
X008821Y007183D01*
X006951Y005313D01*
X006282Y005313D01*
X005101Y004132D01*
X008821Y005711D02*
X011381Y005711D01*
X015101Y001601D02*
X015601Y002101D01*
X022601Y002101D01*
X022601Y004101D02*
X021271Y004101D01*
X019881Y005491D01*
X019881Y008171D01*
X020060Y008351D01*
X019805Y008351D01*
X020060Y008351D02*
X020315Y008351D01*
X020315Y008596D01*
X019933Y008851D02*
X019805Y008851D01*
X019805Y009351D02*
X019869Y009351D01*
X025445Y007226D02*
X025445Y002756D01*
X026101Y002101D01*
X026101Y003101D02*
X025611Y003591D01*
X025611Y006334D01*
X025887Y006611D01*
X026304Y006611D01*
X027634Y007941D01*
X027634Y008832D01*
X031903Y013101D01*
X032601Y013101D01*
X032601Y014381D02*
X025445Y007226D01*
X026101Y005101D02*
X037501Y005101D01*
X038601Y006201D01*
X038601Y006601D01*
X039601Y006601D02*
X039601Y006201D01*
X038200Y004800D01*
X031400Y004800D01*
X030601Y004001D01*
X026201Y004001D01*
X026101Y004101D01*
X030601Y004001D02*
X030601Y003601D01*
X031601Y006201D02*
X034751Y006201D01*
X037141Y008591D01*
X037141Y009101D01*
X037601Y009101D01*
X031601Y006601D02*
X031601Y006201D01*
X019881Y005491D02*
X017321Y005491D01*
X032601Y014381D02*
X032601Y015101D01*
X023916Y022197D02*
X023481Y022197D01*
X023916Y022197D02*
X023916Y022670D01*
X023481Y022670D01*
X003129Y018105D02*
X002209Y017185D01*
D25*
X001101Y027801D02*
X001101Y003101D01*
X012101Y003101D01*
X014101Y001101D01*
X014792Y001101D01*
X014772Y001109D01*
X014609Y001272D01*
X014521Y001485D01*
X014521Y001716D01*
X014609Y001929D01*
X014772Y002092D01*
X014985Y002181D01*
X015207Y002181D01*
X015196Y002205D01*
X015196Y005652D01*
X014795Y006053D01*
X014716Y006021D01*
X014485Y006021D01*
X014272Y006109D01*
X014109Y006272D01*
X014021Y006485D01*
X014021Y006716D01*
X014053Y006795D01*
X012884Y007964D01*
X011597Y007964D01*
X011653Y007936D01*
X011720Y007887D01*
X011777Y007830D01*
X011826Y007763D01*
X011863Y007690D01*
X011888Y007613D01*
X011899Y007541D01*
X011431Y007541D01*
X011431Y007441D01*
X011899Y007441D01*
X011888Y007369D01*
X011863Y007291D01*
X011826Y007218D01*
X011777Y007152D01*
X011720Y007094D01*
X011653Y007046D01*
X011580Y007009D01*
X011503Y006984D01*
X011431Y006972D01*
X011431Y007441D01*
X011331Y007441D01*
X011331Y006972D01*
X011259Y006984D01*
X011181Y007009D01*
X011108Y007046D01*
X011042Y007094D01*
X010984Y007152D01*
X010936Y007218D01*
X010899Y007291D01*
X010874Y007369D01*
X010862Y007441D01*
X011331Y007441D01*
X011331Y007541D01*
X010862Y007541D01*
X010874Y007613D01*
X010899Y007690D01*
X010936Y007763D01*
X010984Y007830D01*
X011042Y007887D01*
X011108Y007936D01*
X011165Y007964D01*
X009037Y007964D01*
X009093Y007936D01*
X009160Y007887D01*
X009217Y007830D01*
X009266Y007763D01*
X009303Y007690D01*
X009328Y007613D01*
X009339Y007541D01*
X008871Y007541D01*
X008871Y007441D01*
X009339Y007441D01*
X009328Y007369D01*
X009303Y007291D01*
X009266Y007218D01*
X009217Y007152D01*
X009160Y007094D01*
X009093Y007046D01*
X009020Y007009D01*
X008943Y006984D01*
X008871Y006972D01*
X008871Y007441D01*
X008771Y007441D01*
X008771Y006972D01*
X008699Y006984D01*
X008621Y007009D01*
X008548Y007046D01*
X008482Y007094D01*
X008424Y007152D01*
X008376Y007218D01*
X008339Y007291D01*
X008314Y007369D01*
X008302Y007441D01*
X008771Y007441D01*
X008771Y007541D01*
X008302Y007541D01*
X008314Y007613D01*
X008339Y007690D01*
X008376Y007763D01*
X008424Y007830D01*
X008482Y007887D01*
X008548Y007936D01*
X008605Y007964D01*
X003324Y007964D01*
X003225Y007964D01*
X003133Y008002D01*
X002478Y008657D01*
X002341Y008521D01*
X001861Y008521D01*
X001521Y008861D01*
X001521Y009341D01*
X001781Y009601D01*
X001521Y009861D01*
X001521Y010341D01*
X001823Y010643D01*
X001581Y010885D01*
X001581Y011051D01*
X002051Y011051D01*
X002051Y011151D01*
X002051Y011621D01*
X001885Y011621D01*
X001581Y011316D01*
X001581Y011151D01*
X002051Y011151D01*
X002151Y011151D01*
X002151Y011621D01*
X002316Y011621D01*
X002558Y011379D01*
X002861Y011681D01*
X003341Y011681D01*
X003681Y011341D01*
X003681Y010861D01*
X003421Y010601D01*
X003681Y010341D01*
X003681Y010334D01*
X003732Y010313D01*
X003803Y010242D01*
X004599Y009446D01*
X005611Y009446D01*
X005611Y009804D01*
X005898Y010091D01*
X006304Y010091D01*
X006591Y009804D01*
X006591Y009446D01*
X006671Y009446D01*
X006671Y009571D01*
X007071Y009571D01*
X007071Y009631D01*
X007071Y010031D01*
X006923Y010031D01*
X006671Y009779D01*
X006671Y009631D01*
X007071Y009631D01*
X007131Y009631D01*
X007131Y010031D01*
X007279Y010031D01*
X007518Y009792D01*
X010402Y012677D01*
X010359Y012659D01*
X009604Y012659D01*
X009424Y012733D01*
X009286Y012871D01*
X009212Y013051D01*
X009212Y013246D01*
X009286Y013426D01*
X009424Y013564D01*
X009604Y013639D01*
X010359Y013639D01*
X010412Y013617D01*
X010412Y013681D01*
X010359Y013659D01*
X009604Y013659D01*
X009424Y013733D01*
X009286Y013871D01*
X009212Y014051D01*
X009212Y014246D01*
X009286Y014426D01*
X009424Y014564D01*
X009604Y014639D01*
X010359Y014639D01*
X010412Y014617D01*
X010412Y014681D01*
X010359Y014659D01*
X009604Y014659D01*
X009424Y014733D01*
X009286Y014871D01*
X009212Y015051D01*
X009212Y015246D01*
X009286Y015426D01*
X009424Y015564D01*
X009604Y015639D01*
X010359Y015639D01*
X010412Y015617D01*
X010412Y015681D01*
X010359Y015659D01*
X009604Y015659D01*
X009424Y015733D01*
X009286Y015871D01*
X009212Y016051D01*
X009212Y016246D01*
X009286Y016426D01*
X009424Y016564D01*
X009604Y016639D01*
X010359Y016639D01*
X010539Y016564D01*
X010677Y016426D01*
X010752Y016246D01*
X010752Y016119D01*
X012395Y017762D01*
X012286Y017871D01*
X012212Y018051D01*
X012212Y018246D01*
X012286Y018426D01*
X012424Y018564D01*
X012604Y018639D01*
X013359Y018639D01*
X013539Y018564D01*
X013677Y018426D01*
X013689Y018399D01*
X013712Y018399D01*
X013803Y018361D01*
X013824Y018340D01*
X015780Y018340D01*
X015812Y018418D01*
X015975Y018581D01*
X016188Y018670D01*
X016419Y018670D01*
X016632Y018581D01*
X016795Y018418D01*
X016884Y018205D01*
X016884Y017974D01*
X016832Y017849D01*
X019709Y017849D01*
X019756Y017896D01*
X019724Y017974D01*
X019724Y018205D01*
X019812Y018418D01*
X019975Y018581D01*
X020188Y018670D01*
X020419Y018670D01*
X020632Y018581D01*
X020795Y018418D01*
X020884Y018205D01*
X020884Y017974D01*
X020795Y017761D01*
X020632Y017598D01*
X020419Y017510D01*
X020188Y017510D01*
X020110Y017542D01*
X020025Y017457D01*
X019954Y017387D01*
X019863Y017349D01*
X015111Y017349D01*
X015179Y017321D01*
X015249Y017250D01*
X019335Y013165D01*
X020282Y013165D01*
X020332Y013115D01*
X020332Y013343D01*
X019947Y013343D01*
X019824Y013466D01*
X019824Y014735D01*
X019947Y014858D01*
X021216Y014858D01*
X021339Y014735D01*
X021339Y013466D01*
X021216Y013343D01*
X020832Y013343D01*
X020832Y011068D01*
X020794Y010976D01*
X020723Y010906D01*
X020457Y010639D01*
X020365Y010601D01*
X020346Y010601D01*
X020304Y010558D01*
X020315Y010547D01*
X020335Y010513D01*
X020345Y010475D01*
X020345Y010353D01*
X019808Y010353D01*
X019808Y010349D01*
X022780Y010349D01*
X022801Y010370D02*
X022651Y010221D01*
X022571Y010026D01*
X022571Y009175D01*
X022651Y008981D01*
X022801Y008831D01*
X022995Y008751D01*
X023206Y008751D01*
X023401Y008831D01*
X023550Y008981D01*
X023631Y009175D01*
X023631Y010026D01*
X023550Y010221D01*
X023401Y010370D01*
X023206Y010451D01*
X022995Y010451D01*
X022801Y010370D01*
X022681Y010251D02*
X020345Y010251D01*
X020345Y010227D02*
X020345Y010349D01*
X019808Y010349D01*
X019807Y010348D02*
X019807Y010096D01*
X019807Y009853D01*
X019803Y009853D01*
X019803Y009849D01*
X019266Y009849D01*
X019266Y009727D01*
X019276Y009689D01*
X019295Y009654D01*
X019323Y009626D01*
X019358Y009607D01*
X019380Y009601D01*
X019358Y009595D01*
X019323Y009575D01*
X019295Y009547D01*
X019276Y009513D01*
X019266Y009475D01*
X019266Y009353D01*
X019803Y009353D01*
X019803Y009349D01*
X019266Y009349D01*
X019266Y009227D01*
X019276Y009189D01*
X019295Y009154D01*
X019323Y009126D01*
X019358Y009107D01*
X019380Y009101D01*
X019358Y009095D01*
X019323Y009075D01*
X019295Y009047D01*
X019276Y009013D01*
X019266Y008975D01*
X019266Y008853D01*
X019803Y008853D01*
X019803Y008849D01*
X019266Y008849D01*
X019266Y008727D01*
X019276Y008689D01*
X019295Y008654D01*
X019323Y008626D01*
X019358Y008607D01*
X019380Y008601D01*
X019358Y008595D01*
X019323Y008575D01*
X019295Y008547D01*
X019276Y008513D01*
X019266Y008475D01*
X019266Y008353D01*
X019803Y008353D01*
X019803Y008349D01*
X019266Y008349D01*
X019266Y008227D01*
X019276Y008189D01*
X019295Y008154D01*
X019323Y008126D01*
X019358Y008107D01*
X019396Y008096D01*
X019803Y008096D01*
X019803Y008348D01*
X019807Y008348D01*
X019807Y008096D01*
X020215Y008096D01*
X020253Y008107D01*
X020287Y008126D01*
X020315Y008154D01*
X020335Y008189D01*
X020345Y008227D01*
X020345Y008349D01*
X019808Y008349D01*
X019808Y008353D01*
X020345Y008353D01*
X020345Y008475D01*
X020335Y008513D01*
X020315Y008547D01*
X020287Y008575D01*
X020253Y008595D01*
X020231Y008601D01*
X020253Y008607D01*
X020287Y008626D01*
X020315Y008654D01*
X020335Y008689D01*
X020345Y008727D01*
X020345Y008849D01*
X019808Y008849D01*
X019808Y008853D01*
X020345Y008853D01*
X020345Y008975D01*
X020335Y009013D01*
X020315Y009047D01*
X020287Y009075D01*
X020253Y009095D01*
X020231Y009101D01*
X020253Y009107D01*
X020287Y009126D01*
X020315Y009154D01*
X020335Y009189D01*
X020345Y009227D01*
X020345Y009349D01*
X019808Y009349D01*
X019808Y009353D01*
X020345Y009353D01*
X020345Y009475D01*
X020335Y009513D01*
X020315Y009547D01*
X020287Y009575D01*
X020253Y009595D01*
X020231Y009601D01*
X020253Y009607D01*
X020287Y009626D01*
X020315Y009654D01*
X020335Y009689D01*
X020345Y009727D01*
X020345Y009849D01*
X019808Y009849D01*
X019808Y009853D01*
X020345Y009853D01*
X020345Y009975D01*
X020335Y010013D01*
X020315Y010047D01*
X020287Y010075D01*
X020253Y010095D01*
X020231Y010101D01*
X020253Y010107D01*
X020287Y010126D01*
X020315Y010154D01*
X020335Y010189D01*
X020345Y010227D01*
X020313Y010152D02*
X022623Y010152D01*
X022582Y010054D02*
X020309Y010054D01*
X020345Y009955D02*
X022571Y009955D01*
X022571Y009857D02*
X020345Y009857D01*
X020345Y009758D02*
X022571Y009758D01*
X022571Y009659D02*
X020318Y009659D01*
X020301Y009561D02*
X022571Y009561D01*
X022571Y009462D02*
X020345Y009462D01*
X020345Y009364D02*
X022571Y009364D01*
X022571Y009265D02*
X020345Y009265D01*
X020322Y009167D02*
X022574Y009167D01*
X022615Y009068D02*
X020294Y009068D01*
X020345Y008970D02*
X022662Y008970D01*
X022761Y008871D02*
X020345Y008871D01*
X020345Y008773D02*
X022943Y008773D01*
X023259Y008773D02*
X024943Y008773D01*
X024995Y008751D02*
X024801Y008831D01*
X024651Y008981D01*
X024571Y009175D01*
X024571Y009367D01*
X024571Y009367D01*
X024571Y009244D01*
X024559Y009171D01*
X024536Y009100D01*
X024503Y009034D01*
X024459Y008975D01*
X024407Y008922D01*
X024347Y008879D01*
X024281Y008845D01*
X024211Y008822D01*
X024151Y008813D01*
X024151Y009551D01*
X024051Y009551D01*
X024051Y008813D01*
X023991Y008822D01*
X023920Y008845D01*
X023854Y008879D01*
X023795Y008922D01*
X023742Y008975D01*
X023699Y009034D01*
X023665Y009100D01*
X023642Y009171D01*
X023631Y009244D01*
X023631Y009551D01*
X024051Y009551D01*
X024051Y009651D01*
X023631Y009651D01*
X023631Y009958D01*
X023642Y010031D01*
X023665Y010101D01*
X023699Y010167D01*
X023742Y010227D01*
X023795Y010279D01*
X023854Y010323D01*
X023920Y010356D01*
X023974Y010374D01*
X023022Y011326D01*
X022952Y011396D01*
X022914Y011488D01*
X022914Y017262D01*
X022122Y017262D01*
X022030Y017300D01*
X021959Y017371D01*
X021873Y017457D01*
X021820Y017435D01*
X021607Y017435D01*
X021411Y017516D01*
X021260Y017667D01*
X021179Y017863D01*
X021179Y018076D01*
X021260Y018273D01*
X021411Y018423D01*
X021607Y018505D01*
X021820Y018505D01*
X022017Y018423D01*
X022167Y018273D01*
X022249Y018076D01*
X022249Y018070D01*
X022250Y018081D01*
X022274Y018152D01*
X022308Y018219D01*
X022351Y018279D01*
X022404Y018332D01*
X022465Y018376D01*
X022531Y018410D01*
X022603Y018433D01*
X022676Y018445D01*
X022695Y018445D01*
X022695Y017989D01*
X022733Y017989D01*
X022733Y018445D01*
X022751Y018445D01*
X022825Y018433D01*
X022896Y018410D01*
X022914Y018401D01*
X022914Y020048D01*
X022873Y020089D01*
X022873Y019748D01*
X022750Y019625D01*
X022261Y019625D01*
X022201Y019685D01*
X022132Y019685D01*
X022132Y020121D01*
X022074Y020121D01*
X022074Y019685D01*
X021935Y019685D01*
X021875Y019625D01*
X021386Y019625D01*
X020914Y019625D01*
X020883Y019656D01*
X020852Y019625D01*
X020363Y019625D01*
X019890Y019625D01*
X019830Y019685D01*
X019691Y019685D01*
X019691Y020121D01*
X019633Y020121D01*
X019633Y019685D01*
X019564Y019685D01*
X019504Y019625D01*
X019015Y019625D01*
X018892Y019748D01*
X018892Y020552D01*
X019015Y020675D01*
X019504Y020675D01*
X019564Y020615D01*
X019633Y020615D01*
X019633Y020179D01*
X019691Y020179D01*
X019691Y020615D01*
X019830Y020615D01*
X019890Y020675D01*
X020363Y020675D01*
X020852Y020675D01*
X020883Y020644D01*
X020914Y020675D01*
X021386Y020675D01*
X021875Y020675D01*
X021935Y020615D01*
X022074Y020615D01*
X022074Y020179D01*
X022132Y020179D01*
X022132Y020615D01*
X022201Y020615D01*
X022261Y020675D01*
X022287Y020675D01*
X021487Y021475D01*
X018804Y021475D01*
X018749Y021420D01*
X018749Y021281D01*
X018313Y021281D01*
X018313Y021224D01*
X018749Y021224D01*
X018749Y021075D01*
X018739Y021037D01*
X018719Y021003D01*
X018691Y020975D01*
X018657Y020955D01*
X018619Y020945D01*
X018313Y020945D01*
X018313Y021223D01*
X018256Y021223D01*
X018256Y020945D01*
X017950Y020945D01*
X017911Y020955D01*
X017877Y020975D01*
X017849Y021003D01*
X017830Y021037D01*
X017819Y021075D01*
X017819Y021224D01*
X018255Y021224D01*
X018255Y021281D01*
X017819Y021281D01*
X017819Y021420D01*
X017759Y021480D01*
X017759Y021969D01*
X017759Y022442D01*
X017759Y022914D01*
X017759Y023387D01*
X017759Y023859D01*
X017759Y024331D01*
X017759Y024804D01*
X017759Y025276D01*
X017759Y025749D01*
X017759Y026221D01*
X017819Y026281D01*
X017819Y026420D01*
X018255Y026420D01*
X018255Y026478D01*
X017819Y026478D01*
X017819Y026481D01*
X015263Y026481D01*
X014306Y025524D01*
X014214Y025486D01*
X014114Y025486D01*
X013618Y025486D01*
X013677Y025426D01*
X013752Y025246D01*
X013752Y025051D01*
X013677Y024871D01*
X013539Y024733D01*
X013359Y024659D01*
X012604Y024659D01*
X012424Y024733D01*
X012332Y024826D01*
X010943Y023437D01*
X010851Y023399D01*
X010752Y023399D01*
X010689Y023399D01*
X010752Y023246D01*
X010752Y023051D01*
X010682Y022882D01*
X012090Y024290D01*
X012090Y024290D01*
X012160Y024361D01*
X012252Y024399D01*
X012275Y024399D01*
X012286Y024426D01*
X012424Y024564D01*
X012604Y024639D01*
X013359Y024639D01*
X013539Y024564D01*
X013677Y024426D01*
X013752Y024246D01*
X013752Y024051D01*
X013677Y023871D01*
X013539Y023733D01*
X013359Y023659D01*
X012604Y023659D01*
X012424Y023733D01*
X012332Y023826D01*
X010987Y022481D01*
X010917Y022411D01*
X010825Y022373D01*
X010699Y022373D01*
X010752Y022246D01*
X010752Y022051D01*
X010689Y021899D01*
X010698Y021899D01*
X012090Y023290D01*
X012090Y023290D01*
X012160Y023361D01*
X012252Y023399D01*
X012275Y023399D01*
X012286Y023426D01*
X012424Y023564D01*
X012604Y023639D01*
X013359Y023639D01*
X013539Y023564D01*
X013677Y023426D01*
X013752Y023246D01*
X013752Y023051D01*
X013677Y022871D01*
X013539Y022733D01*
X013359Y022659D01*
X012604Y022659D01*
X012424Y022733D01*
X012332Y022826D01*
X011014Y021507D01*
X011014Y021507D01*
X010943Y021437D01*
X010851Y021399D01*
X010689Y021399D01*
X010752Y021246D01*
X010752Y021051D01*
X010677Y020871D01*
X010539Y020733D01*
X010359Y020659D01*
X009604Y020659D01*
X009424Y020733D01*
X009286Y020871D01*
X009212Y021051D01*
X009212Y021246D01*
X009275Y021399D01*
X007492Y021399D01*
X007274Y021181D01*
X007294Y021181D01*
X007507Y021092D01*
X007670Y020929D01*
X007703Y020851D01*
X008800Y020851D01*
X008899Y020851D01*
X008991Y020813D01*
X009332Y020472D01*
X009424Y020564D01*
X009604Y020639D01*
X010359Y020639D01*
X010539Y020564D01*
X010677Y020426D01*
X010705Y020359D01*
X012052Y021706D01*
X012052Y022099D01*
X012052Y022199D01*
X012090Y022290D01*
X012160Y022361D01*
X012252Y022399D01*
X012275Y022399D01*
X012286Y022426D01*
X012424Y022564D01*
X012604Y022639D01*
X013359Y022639D01*
X013539Y022564D01*
X013677Y022426D01*
X013752Y022246D01*
X013752Y022051D01*
X013677Y021871D01*
X013539Y021733D01*
X013359Y021659D01*
X012604Y021659D01*
X012552Y021681D01*
X012552Y021652D01*
X012552Y021617D01*
X012604Y021639D01*
X013359Y021639D01*
X013539Y021564D01*
X013677Y021426D01*
X013752Y021246D01*
X013752Y021051D01*
X013677Y020871D01*
X013539Y020733D01*
X013359Y020659D01*
X012604Y020659D01*
X012424Y020733D01*
X012332Y020826D01*
X010863Y019357D01*
X010771Y019319D01*
X010672Y019319D01*
X010658Y019319D01*
X010660Y019314D01*
X010681Y019249D01*
X010692Y019183D01*
X010692Y019179D01*
X010012Y019179D01*
X010012Y019119D01*
X010692Y019119D01*
X010692Y019115D01*
X010681Y019048D01*
X010660Y018984D01*
X010629Y018923D01*
X012265Y018923D01*
X012286Y018871D02*
X012424Y018733D01*
X012604Y018659D01*
X013359Y018659D01*
X013539Y018733D01*
X013677Y018871D01*
X013752Y019051D01*
X013752Y019246D01*
X013677Y019426D01*
X013539Y019564D01*
X013359Y019639D01*
X012604Y019639D01*
X012424Y019564D01*
X012286Y019426D01*
X012212Y019246D01*
X012212Y019051D01*
X012286Y018871D01*
X012334Y018824D02*
X010545Y018824D01*
X010542Y018821D02*
X010590Y018869D01*
X010629Y018923D01*
X010672Y019021D02*
X012224Y019021D01*
X012212Y019120D02*
X010012Y019120D01*
X010012Y019119D02*
X010012Y018719D01*
X010296Y018719D01*
X010362Y018729D01*
X010427Y018750D01*
X010487Y018781D01*
X010542Y018821D01*
X010338Y018725D02*
X012443Y018725D01*
X012576Y018627D02*
X010388Y018627D01*
X010359Y018639D02*
X010539Y018564D01*
X010677Y018426D01*
X010752Y018246D01*
X010752Y018051D01*
X010677Y017871D01*
X010539Y017733D01*
X010359Y017659D01*
X009604Y017659D01*
X009424Y017733D01*
X009286Y017871D01*
X009212Y018051D01*
X009212Y018246D01*
X009286Y018426D01*
X009424Y018564D01*
X009604Y018639D01*
X010359Y018639D01*
X010575Y018528D02*
X012388Y018528D01*
X012290Y018430D02*
X010674Y018430D01*
X010716Y018331D02*
X012247Y018331D01*
X012212Y018233D02*
X010752Y018233D01*
X010752Y018134D02*
X012212Y018134D01*
X012218Y018036D02*
X010745Y018036D01*
X010704Y017937D02*
X012259Y017937D01*
X012319Y017839D02*
X010645Y017839D01*
X010546Y017740D02*
X012373Y017740D01*
X012274Y017641D02*
X003019Y017641D01*
X002920Y017543D02*
X003428Y017543D01*
X003440Y017554D02*
X003289Y017404D01*
X003208Y017207D01*
X003208Y016994D01*
X003289Y016798D01*
X003440Y016647D01*
X003636Y016566D01*
X003849Y016566D01*
X004046Y016647D01*
X004196Y016798D01*
X004278Y016994D01*
X004278Y017001D01*
X004279Y016990D01*
X004303Y016918D01*
X004336Y016852D01*
X004380Y016791D01*
X004433Y016738D01*
X004494Y016695D01*
X004560Y016661D01*
X004631Y016637D01*
X004705Y016626D01*
X004724Y016626D01*
X004724Y017082D01*
X004762Y017082D01*
X004762Y017120D01*
X005218Y017120D01*
X005218Y017138D01*
X005206Y017212D01*
X005183Y017283D01*
X005149Y017350D01*
X005105Y017410D01*
X005052Y017463D01*
X004992Y017507D01*
X004925Y017541D01*
X004854Y017564D01*
X004780Y017576D01*
X004762Y017576D01*
X004762Y017120D01*
X004724Y017120D01*
X004724Y017576D01*
X004705Y017576D01*
X004631Y017564D01*
X004560Y017541D01*
X004494Y017507D01*
X004433Y017463D01*
X004380Y017410D01*
X004336Y017350D01*
X004303Y017283D01*
X004279Y017212D01*
X004278Y017201D01*
X004278Y017207D01*
X004196Y017404D01*
X004046Y017554D01*
X003849Y017636D01*
X003636Y017636D01*
X003440Y017554D01*
X003330Y017444D02*
X002822Y017444D01*
X002756Y017379D02*
X003232Y017855D01*
X007498Y017855D01*
X007597Y017855D01*
X007689Y017893D01*
X009115Y019319D01*
X009306Y019319D01*
X009303Y019314D01*
X009282Y019249D01*
X009272Y019183D01*
X009272Y019179D01*
X009951Y019179D01*
X009951Y019119D01*
X009272Y019119D01*
X009272Y019115D01*
X009282Y019048D01*
X009303Y018984D01*
X009334Y018923D01*
X009374Y018869D01*
X009422Y018821D01*
X009476Y018781D01*
X009537Y018750D01*
X009601Y018729D01*
X009668Y018719D01*
X009952Y018719D01*
X009952Y019119D01*
X010012Y019119D01*
X009951Y019120D02*
X008916Y019120D01*
X009015Y019218D02*
X009277Y019218D01*
X009305Y019317D02*
X009113Y019317D01*
X009291Y019021D02*
X008817Y019021D01*
X008719Y018923D02*
X009335Y018923D01*
X009418Y018824D02*
X008620Y018824D01*
X008522Y018725D02*
X009626Y018725D01*
X009576Y018627D02*
X008423Y018627D01*
X008325Y018528D02*
X009388Y018528D01*
X009290Y018430D02*
X008226Y018430D01*
X008128Y018331D02*
X009247Y018331D01*
X009212Y018233D02*
X008029Y018233D01*
X007931Y018134D02*
X009212Y018134D01*
X009218Y018036D02*
X007832Y018036D01*
X007734Y017937D02*
X009259Y017937D01*
X009319Y017839D02*
X003216Y017839D01*
X003117Y017740D02*
X009418Y017740D01*
X009424Y017564D02*
X009286Y017426D01*
X009275Y017399D01*
X009252Y017399D01*
X009160Y017361D01*
X007309Y015510D01*
X005452Y015510D01*
X005352Y015510D01*
X005260Y015472D01*
X004402Y014614D01*
X004349Y014636D01*
X004136Y014636D01*
X003940Y014554D01*
X003789Y014404D01*
X003708Y014207D01*
X003708Y013994D01*
X003789Y013798D01*
X001101Y013798D01*
X001101Y013700D02*
X003887Y013700D01*
X003940Y013647D02*
X003789Y013798D01*
X003748Y013897D02*
X001101Y013897D01*
X001101Y013995D02*
X003708Y013995D01*
X003708Y014094D02*
X001101Y014094D01*
X001101Y014192D02*
X003708Y014192D01*
X003743Y014291D02*
X001101Y014291D01*
X001101Y014390D02*
X003783Y014390D01*
X003874Y014488D02*
X001101Y014488D01*
X001101Y014587D02*
X004018Y014587D01*
X004474Y014685D02*
X001101Y014685D01*
X001101Y014784D02*
X004572Y014784D01*
X004671Y014882D02*
X001101Y014882D01*
X001101Y014981D02*
X004769Y014981D01*
X004868Y015079D02*
X001101Y015079D01*
X001101Y015178D02*
X004966Y015178D01*
X005065Y015276D02*
X001101Y015276D01*
X001101Y015375D02*
X005164Y015375D01*
X005264Y015474D02*
X001101Y015474D01*
X001101Y015572D02*
X007372Y015572D01*
X007470Y015671D02*
X001101Y015671D01*
X001101Y015769D02*
X007569Y015769D01*
X007667Y015868D02*
X001101Y015868D01*
X001101Y015966D02*
X007766Y015966D01*
X007864Y016065D02*
X007400Y016065D01*
X007294Y016021D02*
X007507Y016109D01*
X007670Y016272D01*
X007759Y016485D01*
X007759Y016716D01*
X007670Y016929D01*
X007507Y017092D01*
X007294Y017181D01*
X007063Y017181D01*
X006850Y017092D01*
X006687Y016929D01*
X006599Y016716D01*
X006599Y016485D01*
X006687Y016272D01*
X006850Y016109D01*
X007063Y016021D01*
X007294Y016021D01*
X007562Y016163D02*
X007963Y016163D01*
X008061Y016262D02*
X007660Y016262D01*
X007707Y016360D02*
X008160Y016360D01*
X008258Y016459D02*
X007748Y016459D01*
X007759Y016558D02*
X008357Y016558D01*
X008456Y016656D02*
X007759Y016656D01*
X007743Y016755D02*
X008554Y016755D01*
X008653Y016853D02*
X007702Y016853D01*
X007648Y016952D02*
X008751Y016952D01*
X008850Y017050D02*
X007549Y017050D01*
X007371Y017149D02*
X008948Y017149D01*
X009047Y017247D02*
X005195Y017247D01*
X005216Y017149D02*
X006986Y017149D01*
X006808Y017050D02*
X005216Y017050D01*
X005218Y017063D02*
X005218Y017082D01*
X004762Y017082D01*
X004762Y016626D01*
X004780Y016626D01*
X004854Y016637D01*
X004925Y016661D01*
X004992Y016695D01*
X005052Y016738D01*
X005105Y016791D01*
X005149Y016852D01*
X005183Y016918D01*
X005206Y016990D01*
X005218Y017063D01*
X005194Y016952D02*
X006709Y016952D01*
X006656Y016853D02*
X005150Y016853D01*
X005068Y016755D02*
X006615Y016755D01*
X006599Y016656D02*
X004911Y016656D01*
X004762Y016656D02*
X004724Y016656D01*
X004724Y016755D02*
X004762Y016755D01*
X004762Y016853D02*
X004724Y016853D01*
X004724Y016952D02*
X004762Y016952D01*
X004762Y017050D02*
X004724Y017050D01*
X004724Y017149D02*
X004762Y017149D01*
X004762Y017247D02*
X004724Y017247D01*
X004724Y017346D02*
X004762Y017346D01*
X004762Y017444D02*
X004724Y017444D01*
X004724Y017543D02*
X004762Y017543D01*
X004919Y017543D02*
X009403Y017543D01*
X009424Y017564D02*
X009604Y017639D01*
X010359Y017639D01*
X010539Y017564D01*
X010677Y017426D01*
X010752Y017246D01*
X010752Y017051D01*
X010677Y016871D01*
X010539Y016733D01*
X010359Y016659D01*
X009604Y016659D01*
X009424Y016733D01*
X009332Y016826D01*
X007625Y015118D01*
X007554Y015048D01*
X007463Y015010D01*
X005505Y015010D01*
X004756Y014260D01*
X004778Y014207D01*
X004778Y013994D01*
X004696Y013798D01*
X004546Y013647D01*
X004349Y013566D01*
X004136Y013566D01*
X003940Y013647D01*
X004051Y013601D02*
X001101Y013601D01*
X001101Y013503D02*
X009363Y013503D01*
X009277Y013404D02*
X001101Y013404D01*
X001101Y013306D02*
X009236Y013306D01*
X009212Y013207D02*
X001101Y013207D01*
X001101Y013109D02*
X009212Y013109D01*
X009229Y013010D02*
X001101Y013010D01*
X001101Y012911D02*
X009270Y012911D01*
X009345Y012813D02*
X001101Y012813D01*
X001101Y012714D02*
X009470Y012714D01*
X009947Y012222D02*
X001101Y012222D01*
X001101Y012320D02*
X010046Y012320D01*
X010144Y012419D02*
X001101Y012419D01*
X001101Y012517D02*
X010243Y012517D01*
X010341Y012616D02*
X001101Y012616D01*
X001101Y012123D02*
X009849Y012123D01*
X009750Y012025D02*
X001101Y012025D01*
X001101Y011926D02*
X009652Y011926D01*
X009553Y011827D02*
X001101Y011827D01*
X001101Y011729D02*
X009455Y011729D01*
X009356Y011630D02*
X003391Y011630D01*
X003490Y011532D02*
X009258Y011532D01*
X009159Y011433D02*
X003588Y011433D01*
X003681Y011335D02*
X009060Y011335D01*
X008962Y011236D02*
X003681Y011236D01*
X003681Y011138D02*
X008863Y011138D01*
X008765Y011039D02*
X003681Y011039D01*
X003681Y010941D02*
X008666Y010941D01*
X008568Y010842D02*
X003662Y010842D01*
X003564Y010743D02*
X008469Y010743D01*
X008371Y010645D02*
X003465Y010645D01*
X003475Y010546D02*
X008272Y010546D01*
X008174Y010448D02*
X003574Y010448D01*
X003672Y010349D02*
X008075Y010349D01*
X007976Y010251D02*
X003794Y010251D01*
X003893Y010152D02*
X007878Y010152D01*
X007779Y010054D02*
X006341Y010054D01*
X006439Y009955D02*
X006847Y009955D01*
X006749Y009857D02*
X006538Y009857D01*
X006591Y009758D02*
X006671Y009758D01*
X006671Y009659D02*
X006591Y009659D01*
X006591Y009561D02*
X006671Y009561D01*
X006671Y009462D02*
X006591Y009462D01*
X007071Y009659D02*
X007131Y009659D01*
X007131Y009758D02*
X007071Y009758D01*
X007071Y009857D02*
X007131Y009857D01*
X007131Y009955D02*
X007071Y009955D01*
X007354Y009955D02*
X007681Y009955D01*
X007582Y009857D02*
X007453Y009857D01*
X005861Y010054D02*
X003991Y010054D01*
X004090Y009955D02*
X005762Y009955D01*
X005664Y009857D02*
X004189Y009857D01*
X004287Y009758D02*
X005611Y009758D01*
X005611Y009659D02*
X004386Y009659D01*
X004484Y009561D02*
X005611Y009561D01*
X005611Y009462D02*
X004583Y009462D01*
X003052Y008083D02*
X001101Y008083D01*
X001101Y008181D02*
X002954Y008181D01*
X002855Y008280D02*
X001101Y008280D01*
X001101Y008378D02*
X002757Y008378D01*
X002658Y008477D02*
X001101Y008477D01*
X001101Y008576D02*
X001806Y008576D01*
X001707Y008674D02*
X001101Y008674D01*
X001101Y008773D02*
X001609Y008773D01*
X001521Y008871D02*
X001101Y008871D01*
X001101Y008970D02*
X001521Y008970D01*
X001521Y009068D02*
X001101Y009068D01*
X001101Y009167D02*
X001521Y009167D01*
X001521Y009265D02*
X001101Y009265D01*
X001101Y009364D02*
X001544Y009364D01*
X001642Y009462D02*
X001101Y009462D01*
X001101Y009561D02*
X001741Y009561D01*
X001722Y009659D02*
X001101Y009659D01*
X001101Y009758D02*
X001623Y009758D01*
X001525Y009857D02*
X001101Y009857D01*
X001101Y009955D02*
X001521Y009955D01*
X001521Y010054D02*
X001101Y010054D01*
X001101Y010152D02*
X001521Y010152D01*
X001521Y010251D02*
X001101Y010251D01*
X001101Y010349D02*
X001529Y010349D01*
X001628Y010448D02*
X001101Y010448D01*
X001101Y010546D02*
X001726Y010546D01*
X001821Y010645D02*
X001101Y010645D01*
X001101Y010743D02*
X001723Y010743D01*
X001624Y010842D02*
X001101Y010842D01*
X001101Y010941D02*
X001581Y010941D01*
X001581Y011039D02*
X001101Y011039D01*
X001101Y011138D02*
X002051Y011138D01*
X002051Y011236D02*
X002151Y011236D01*
X002151Y011151D02*
X002521Y011151D01*
X002521Y011051D01*
X002151Y011051D01*
X002151Y011151D01*
X002151Y011138D02*
X002521Y011138D01*
X002504Y011433D02*
X002613Y011433D01*
X002712Y011532D02*
X002405Y011532D01*
X002151Y011532D02*
X002051Y011532D01*
X002051Y011433D02*
X002151Y011433D01*
X002151Y011335D02*
X002051Y011335D01*
X001796Y011532D02*
X001101Y011532D01*
X001101Y011630D02*
X002810Y011630D01*
X001698Y011433D02*
X001101Y011433D01*
X001101Y011335D02*
X001599Y011335D01*
X001581Y011236D02*
X001101Y011236D01*
X004435Y013601D02*
X006051Y013601D01*
X006136Y013566D02*
X006349Y013566D01*
X006546Y013647D01*
X006696Y013798D01*
X006778Y013994D01*
X006778Y014207D01*
X006696Y014404D01*
X006546Y014554D01*
X006349Y014636D01*
X006136Y014636D01*
X005940Y014554D01*
X005789Y014404D01*
X005708Y014207D01*
X005708Y013994D01*
X005789Y013798D01*
X004696Y013798D01*
X004737Y013897D02*
X005748Y013897D01*
X005708Y013995D02*
X004778Y013995D01*
X004778Y014094D02*
X005708Y014094D01*
X005708Y014192D02*
X004778Y014192D01*
X004786Y014291D02*
X005743Y014291D01*
X005783Y014390D02*
X004885Y014390D01*
X004984Y014488D02*
X005874Y014488D01*
X006018Y014587D02*
X005082Y014587D01*
X005181Y014685D02*
X009541Y014685D01*
X009479Y014587D02*
X006468Y014587D01*
X006612Y014488D02*
X009348Y014488D01*
X009271Y014390D02*
X006702Y014390D01*
X006743Y014291D02*
X009230Y014291D01*
X009212Y014192D02*
X006778Y014192D01*
X006778Y014094D02*
X009212Y014094D01*
X009235Y013995D02*
X006778Y013995D01*
X006737Y013897D02*
X009276Y013897D01*
X009359Y013798D02*
X006696Y013798D01*
X006598Y013700D02*
X009505Y013700D01*
X009514Y013601D02*
X006435Y013601D01*
X006136Y013566D02*
X005940Y013647D01*
X005789Y013798D01*
X005887Y013700D02*
X004598Y013700D01*
X005279Y014784D02*
X009374Y014784D01*
X009282Y014882D02*
X005378Y014882D01*
X005476Y014981D02*
X009241Y014981D01*
X009212Y015079D02*
X007586Y015079D01*
X007684Y015178D02*
X009212Y015178D01*
X009224Y015276D02*
X007783Y015276D01*
X007881Y015375D02*
X009265Y015375D01*
X009334Y015474D02*
X007980Y015474D01*
X008079Y015572D02*
X009443Y015572D01*
X009576Y015671D02*
X008177Y015671D01*
X008276Y015769D02*
X009388Y015769D01*
X009290Y015868D02*
X008374Y015868D01*
X008473Y015966D02*
X009247Y015966D01*
X009212Y016065D02*
X008571Y016065D01*
X008670Y016163D02*
X009212Y016163D01*
X009218Y016262D02*
X008768Y016262D01*
X008867Y016360D02*
X009259Y016360D01*
X009319Y016459D02*
X008965Y016459D01*
X009064Y016558D02*
X009418Y016558D01*
X009403Y016755D02*
X009261Y016755D01*
X009162Y016656D02*
X011289Y016656D01*
X011387Y016755D02*
X010561Y016755D01*
X010659Y016853D02*
X011486Y016853D01*
X011585Y016952D02*
X010710Y016952D01*
X010751Y017050D02*
X011683Y017050D01*
X011782Y017149D02*
X010752Y017149D01*
X010751Y017247D02*
X011880Y017247D01*
X011979Y017346D02*
X010710Y017346D01*
X010659Y017444D02*
X012077Y017444D01*
X012176Y017543D02*
X010561Y017543D01*
X009304Y017444D02*
X005071Y017444D01*
X005151Y017346D02*
X009145Y017346D01*
X010546Y016558D02*
X011190Y016558D01*
X011092Y016459D02*
X010644Y016459D01*
X010704Y016360D02*
X010993Y016360D01*
X010895Y016262D02*
X010745Y016262D01*
X010752Y016163D02*
X010796Y016163D01*
X010412Y015671D02*
X010388Y015671D01*
X006957Y016065D02*
X001101Y016065D01*
X001101Y016163D02*
X006796Y016163D01*
X006697Y016262D02*
X001101Y016262D01*
X001101Y016360D02*
X006651Y016360D01*
X006610Y016459D02*
X001101Y016459D01*
X001101Y016558D02*
X006599Y016558D01*
X004574Y016656D02*
X004055Y016656D01*
X004153Y016755D02*
X004417Y016755D01*
X004336Y016853D02*
X004219Y016853D01*
X004260Y016952D02*
X004292Y016952D01*
X004291Y017247D02*
X004261Y017247D01*
X004220Y017346D02*
X004335Y017346D01*
X004415Y017444D02*
X004156Y017444D01*
X004057Y017543D02*
X004567Y017543D01*
X003265Y017346D02*
X002770Y017346D01*
X002756Y017379D02*
X002789Y017300D01*
X002789Y017069D01*
X002700Y016856D01*
X002537Y016693D01*
X002324Y016605D01*
X002093Y016605D01*
X001880Y016693D01*
X001717Y016856D01*
X001629Y017069D01*
X001629Y017300D01*
X001717Y017513D01*
X001880Y017676D01*
X001900Y017685D01*
X001880Y017693D01*
X001717Y017856D01*
X001629Y018069D01*
X001629Y018300D01*
X001717Y018513D01*
X001880Y018676D01*
X001900Y018685D01*
X001880Y018693D01*
X001717Y018856D01*
X001629Y019069D01*
X001629Y019300D01*
X001717Y019513D01*
X001880Y019676D01*
X001900Y019685D01*
X001880Y019693D01*
X001717Y019856D01*
X001629Y020069D01*
X001629Y020300D01*
X001717Y020513D01*
X001880Y020676D01*
X001900Y020685D01*
X001880Y020693D01*
X001717Y020856D01*
X001629Y021069D01*
X001629Y021300D01*
X001717Y021513D01*
X001880Y021676D01*
X001900Y021685D01*
X001880Y021693D01*
X001717Y021856D01*
X001629Y022069D01*
X001629Y022300D01*
X001717Y022513D01*
X001880Y022676D01*
X002093Y022765D01*
X002324Y022765D01*
X002403Y022732D01*
X004415Y024744D01*
X004485Y024815D01*
X004577Y024853D01*
X006614Y024853D01*
X006559Y024985D01*
X006559Y025216D01*
X006647Y025429D01*
X006810Y025592D01*
X007023Y025681D01*
X007254Y025681D01*
X007467Y025592D01*
X007630Y025429D01*
X007719Y025216D01*
X007719Y024985D01*
X007664Y024853D01*
X009305Y024853D01*
X009286Y024871D01*
X009212Y025051D01*
X009212Y025246D01*
X009286Y025426D01*
X009424Y025564D01*
X009604Y025639D01*
X010359Y025639D01*
X010539Y025564D01*
X010631Y025472D01*
X012268Y027109D01*
X012360Y027147D01*
X012460Y027147D01*
X018787Y027147D01*
X018879Y027109D01*
X018949Y027039D01*
X022956Y023031D01*
X022956Y023370D01*
X022956Y023843D01*
X022956Y024315D01*
X022956Y024787D01*
X022956Y025260D01*
X022956Y025732D01*
X022956Y026205D01*
X022956Y026694D01*
X023079Y026817D01*
X023883Y026817D01*
X024006Y026694D01*
X024006Y026205D01*
X024006Y025732D01*
X024006Y025260D01*
X024006Y024787D01*
X024006Y024315D01*
X024006Y023843D01*
X024006Y023370D01*
X024006Y022903D01*
X024058Y022882D01*
X024128Y022811D01*
X024166Y022719D01*
X024166Y022148D01*
X024128Y022056D01*
X024058Y021985D01*
X024006Y021964D01*
X024006Y021953D01*
X024006Y021480D01*
X024006Y021475D01*
X024615Y022084D01*
X024615Y024114D01*
X024536Y024146D01*
X024373Y024309D01*
X024285Y024522D01*
X024285Y024753D01*
X024373Y024966D01*
X024536Y025129D01*
X024749Y025218D01*
X024980Y025218D01*
X025193Y025129D01*
X025356Y024966D01*
X025389Y024888D01*
X026901Y024888D01*
X026933Y024966D01*
X027096Y025129D01*
X027309Y025218D01*
X027540Y025218D01*
X027753Y025129D01*
X027916Y024966D01*
X028005Y024753D01*
X028005Y024522D01*
X027916Y024309D01*
X027753Y024146D01*
X027540Y024058D01*
X027309Y024058D01*
X027096Y024146D01*
X026933Y024309D01*
X026901Y024388D01*
X025389Y024388D01*
X025356Y024309D01*
X025193Y024146D01*
X025115Y024114D01*
X025115Y021931D01*
X025077Y021839D01*
X025006Y021769D01*
X024146Y020909D01*
X026407Y018648D01*
X026485Y018681D01*
X026716Y018681D01*
X026929Y018592D01*
X027092Y018429D01*
X027181Y018216D01*
X027181Y017985D01*
X027092Y017772D01*
X026929Y017609D01*
X026716Y017521D01*
X026485Y017521D01*
X026272Y017609D01*
X026109Y017772D01*
X026021Y017985D01*
X026021Y018216D01*
X026053Y018295D01*
X023689Y020659D01*
X023010Y020659D01*
X023375Y020293D01*
X023414Y020202D01*
X023414Y020102D01*
X023414Y017562D01*
X023414Y016030D01*
X023614Y016230D01*
X023930Y016361D01*
X024272Y016361D01*
X024588Y016230D01*
X024830Y015988D01*
X024961Y015672D01*
X024961Y015330D01*
X024830Y015014D01*
X024588Y014772D01*
X024272Y014641D01*
X023930Y014641D01*
X023614Y014772D01*
X023414Y014972D01*
X023414Y011642D01*
X024743Y010312D01*
X024801Y010370D01*
X024995Y010451D01*
X025206Y010451D01*
X025401Y010370D01*
X025550Y010221D01*
X025631Y010026D01*
X025631Y009175D01*
X025550Y008981D01*
X025401Y008831D01*
X025206Y008751D01*
X024995Y008751D01*
X024761Y008871D02*
X024332Y008871D01*
X024454Y008970D02*
X024662Y008970D01*
X024615Y009068D02*
X024520Y009068D01*
X024558Y009167D02*
X024574Y009167D01*
X024571Y009265D02*
X024571Y009265D01*
X024571Y009364D02*
X024571Y009364D01*
X024151Y009364D02*
X024051Y009364D01*
X024051Y009462D02*
X024151Y009462D01*
X024051Y009561D02*
X023631Y009561D01*
X023631Y009659D02*
X023631Y009659D01*
X023631Y009758D02*
X023631Y009758D01*
X023631Y009857D02*
X023631Y009857D01*
X023631Y009955D02*
X023631Y009955D01*
X023619Y010054D02*
X023650Y010054D01*
X023691Y010152D02*
X023579Y010152D01*
X023520Y010251D02*
X023766Y010251D01*
X023907Y010349D02*
X023422Y010349D01*
X023213Y010448D02*
X023900Y010448D01*
X023802Y010546D02*
X020316Y010546D01*
X020345Y010448D02*
X022988Y010448D01*
X023506Y010842D02*
X020660Y010842D01*
X020758Y010941D02*
X023407Y010941D01*
X023309Y011039D02*
X020820Y011039D01*
X020832Y011138D02*
X023210Y011138D01*
X023112Y011236D02*
X020832Y011236D01*
X020832Y011335D02*
X023013Y011335D01*
X022936Y011433D02*
X020832Y011433D01*
X020832Y011532D02*
X022914Y011532D01*
X022914Y011630D02*
X020832Y011630D01*
X020832Y011729D02*
X022914Y011729D01*
X022914Y011827D02*
X020832Y011827D01*
X020832Y011926D02*
X022914Y011926D01*
X022914Y012025D02*
X020832Y012025D01*
X020832Y012123D02*
X022914Y012123D01*
X022914Y012222D02*
X020832Y012222D01*
X020832Y012320D02*
X022914Y012320D01*
X022914Y012419D02*
X020832Y012419D01*
X020832Y012517D02*
X022914Y012517D01*
X022914Y012616D02*
X020832Y012616D01*
X020832Y012714D02*
X022914Y012714D01*
X022914Y012813D02*
X020832Y012813D01*
X020832Y012911D02*
X022914Y012911D01*
X022914Y013010D02*
X020832Y013010D01*
X020832Y013109D02*
X022914Y013109D01*
X022914Y013207D02*
X020832Y013207D01*
X020832Y013306D02*
X022914Y013306D01*
X022914Y013404D02*
X021277Y013404D01*
X021339Y013503D02*
X022914Y013503D01*
X022914Y013601D02*
X021339Y013601D01*
X021339Y013700D02*
X022914Y013700D01*
X022914Y013798D02*
X021339Y013798D01*
X021339Y013897D02*
X022914Y013897D01*
X022914Y013995D02*
X021339Y013995D01*
X021339Y014094D02*
X022914Y014094D01*
X022914Y014192D02*
X021339Y014192D01*
X021339Y014291D02*
X022914Y014291D01*
X022914Y014390D02*
X021339Y014390D01*
X021339Y014488D02*
X022914Y014488D01*
X022914Y014587D02*
X021339Y014587D01*
X021339Y014685D02*
X022914Y014685D01*
X022914Y014784D02*
X021291Y014784D01*
X019873Y014784D02*
X017716Y014784D01*
X017617Y014882D02*
X022914Y014882D01*
X022914Y014981D02*
X017519Y014981D01*
X017420Y015079D02*
X022914Y015079D01*
X022914Y015178D02*
X017322Y015178D01*
X017223Y015276D02*
X022914Y015276D01*
X022914Y015375D02*
X017125Y015375D01*
X017026Y015474D02*
X022914Y015474D01*
X022914Y015572D02*
X016928Y015572D01*
X016829Y015671D02*
X022914Y015671D01*
X022914Y015769D02*
X016731Y015769D01*
X016632Y015868D02*
X022914Y015868D01*
X022914Y015966D02*
X016533Y015966D01*
X016435Y016065D02*
X022914Y016065D01*
X022914Y016163D02*
X016336Y016163D01*
X016238Y016262D02*
X022914Y016262D01*
X022914Y016360D02*
X016139Y016360D01*
X016041Y016459D02*
X022914Y016459D01*
X022914Y016558D02*
X015942Y016558D01*
X015844Y016656D02*
X022914Y016656D01*
X022914Y016755D02*
X015745Y016755D01*
X015647Y016853D02*
X022914Y016853D01*
X022914Y016952D02*
X015548Y016952D01*
X015449Y017050D02*
X022914Y017050D01*
X022914Y017149D02*
X015351Y017149D01*
X015252Y017247D02*
X022914Y017247D01*
X023414Y017247D02*
X028101Y017247D01*
X028101Y017149D02*
X023414Y017149D01*
X023414Y017050D02*
X028050Y017050D01*
X028101Y017101D02*
X027101Y016101D01*
X027101Y010101D01*
X024101Y007101D01*
X024101Y001101D01*
X019409Y001101D01*
X019429Y001109D01*
X019592Y001272D01*
X019681Y001485D01*
X019681Y001716D01*
X019625Y001851D01*
X022077Y001851D01*
X022109Y001772D01*
X022272Y001609D01*
X022485Y001521D01*
X022716Y001521D01*
X022929Y001609D01*
X023092Y001772D01*
X023181Y001985D01*
X023181Y002216D01*
X023092Y002429D01*
X022929Y002592D01*
X022909Y002601D01*
X022929Y002609D01*
X023092Y002772D01*
X023181Y002985D01*
X023181Y003216D01*
X023092Y003429D01*
X022929Y003592D01*
X022830Y003634D01*
X022873Y003656D01*
X022940Y003704D01*
X022997Y003762D01*
X023046Y003828D01*
X023083Y003901D01*
X023108Y003979D01*
X023119Y004051D01*
X022651Y004051D01*
X022651Y004151D01*
X023119Y004151D01*
X023108Y004223D01*
X023083Y004300D01*
X023046Y004373D01*
X022997Y004440D01*
X022940Y004497D01*
X022873Y004546D01*
X022830Y004568D01*
X022929Y004609D01*
X023092Y004772D01*
X023181Y004985D01*
X023181Y005216D01*
X023092Y005429D01*
X022929Y005592D01*
X022909Y005601D01*
X022929Y005609D01*
X023092Y005772D01*
X023181Y005985D01*
X023181Y006216D01*
X023092Y006429D01*
X022929Y006592D01*
X022909Y006601D01*
X022929Y006609D01*
X023092Y006772D01*
X023181Y006985D01*
X023181Y007216D01*
X023092Y007429D01*
X022929Y007592D01*
X022716Y007681D01*
X022485Y007681D01*
X022272Y007592D01*
X022109Y007429D01*
X022021Y007216D01*
X022021Y006985D01*
X022109Y006772D01*
X022272Y006609D01*
X022292Y006601D01*
X022272Y006592D01*
X022109Y006429D01*
X022021Y006216D01*
X022021Y005985D01*
X022109Y005772D01*
X022272Y005609D01*
X022292Y005601D01*
X022272Y005592D01*
X022109Y005429D01*
X022021Y005216D01*
X022021Y004985D01*
X022109Y004772D01*
X022272Y004609D01*
X022372Y004568D01*
X022328Y004546D01*
X022262Y004497D01*
X022204Y004440D01*
X022156Y004373D01*
X022119Y004300D01*
X022094Y004223D01*
X022082Y004151D01*
X022551Y004151D01*
X022551Y004051D01*
X022082Y004051D01*
X022094Y003979D01*
X022119Y003901D01*
X022156Y003828D01*
X022204Y003762D01*
X022262Y003704D01*
X022328Y003656D01*
X022372Y003634D01*
X022272Y003592D01*
X022109Y003429D01*
X022021Y003216D01*
X022021Y002985D01*
X022109Y002772D01*
X022272Y002609D01*
X022292Y002601D01*
X022272Y002592D01*
X022109Y002429D01*
X022077Y002351D01*
X015704Y002351D01*
X015696Y002359D01*
X015696Y004982D01*
X016773Y003905D01*
X016741Y003826D01*
X016741Y003595D01*
X016829Y003382D01*
X016992Y003219D01*
X017205Y003131D01*
X017436Y003131D01*
X017649Y003219D01*
X017812Y003382D01*
X017901Y003595D01*
X017901Y003826D01*
X017812Y004039D01*
X017649Y004202D01*
X017436Y004291D01*
X017205Y004291D01*
X017127Y004258D01*
X015856Y005529D01*
X015856Y008096D01*
X016114Y008096D01*
X016114Y008348D01*
X016118Y008348D01*
X016118Y008096D01*
X016526Y008096D01*
X016564Y008107D01*
X016598Y008126D01*
X016626Y008154D01*
X016646Y008189D01*
X016656Y008227D01*
X016656Y008349D01*
X016119Y008349D01*
X016119Y008353D01*
X016656Y008353D01*
X016656Y008475D01*
X016646Y008513D01*
X016626Y008547D01*
X016598Y008575D01*
X016564Y008595D01*
X016542Y008601D01*
X016564Y008607D01*
X016598Y008626D01*
X016626Y008654D01*
X016646Y008689D01*
X016656Y008727D01*
X016656Y008849D01*
X016119Y008849D01*
X016119Y008853D01*
X016656Y008853D01*
X016656Y008975D01*
X016646Y009013D01*
X016626Y009047D01*
X016598Y009075D01*
X016564Y009095D01*
X016542Y009101D01*
X016564Y009107D01*
X016598Y009126D01*
X016626Y009154D01*
X016646Y009189D01*
X016656Y009227D01*
X016656Y009349D01*
X016119Y009349D01*
X016119Y009353D01*
X016656Y009353D01*
X016656Y009475D01*
X016646Y009513D01*
X016626Y009547D01*
X016598Y009575D01*
X016564Y009595D01*
X016542Y009601D01*
X016564Y009607D01*
X016598Y009626D01*
X016626Y009654D01*
X016646Y009689D01*
X016656Y009727D01*
X016656Y009849D01*
X016119Y009849D01*
X016119Y009853D01*
X016656Y009853D01*
X016656Y009975D01*
X016646Y010013D01*
X016626Y010047D01*
X016615Y010058D01*
X016716Y010159D01*
X016716Y010542D01*
X016657Y010601D01*
X016716Y010659D01*
X016716Y011042D01*
X016657Y011101D01*
X016716Y011159D01*
X016716Y011542D01*
X016657Y011601D01*
X016716Y011659D01*
X016716Y012042D01*
X016615Y012143D01*
X016626Y012154D01*
X016646Y012189D01*
X016656Y012227D01*
X016656Y012326D01*
X017126Y012326D01*
X018467Y010985D01*
X018538Y010914D01*
X018629Y010876D01*
X019206Y010876D01*
X019206Y010659D01*
X019307Y010558D01*
X019295Y010547D01*
X019276Y010513D01*
X019266Y010475D01*
X019266Y010353D01*
X019803Y010353D01*
X019803Y010349D01*
X016716Y010349D01*
X016716Y010251D02*
X019266Y010251D01*
X019266Y010227D02*
X019276Y010189D01*
X019295Y010154D01*
X019323Y010126D01*
X019358Y010107D01*
X019380Y010101D01*
X019358Y010095D01*
X019323Y010075D01*
X019295Y010047D01*
X019276Y010013D01*
X019266Y009975D01*
X019266Y009853D01*
X019803Y009853D01*
X019803Y010096D01*
X019803Y010348D01*
X019807Y010348D01*
X019803Y010349D02*
X019266Y010349D01*
X019266Y010227D01*
X019298Y010152D02*
X016709Y010152D01*
X016620Y010054D02*
X019302Y010054D01*
X019266Y009955D02*
X016656Y009955D01*
X016656Y009857D02*
X019266Y009857D01*
X019266Y009758D02*
X016656Y009758D01*
X016629Y009659D02*
X019292Y009659D01*
X019309Y009561D02*
X016612Y009561D01*
X016656Y009462D02*
X019266Y009462D01*
X019266Y009364D02*
X016656Y009364D01*
X016656Y009265D02*
X019266Y009265D01*
X019288Y009167D02*
X016633Y009167D01*
X016605Y009068D02*
X019316Y009068D01*
X019266Y008970D02*
X016656Y008970D01*
X016656Y008871D02*
X019266Y008871D01*
X019266Y008773D02*
X016656Y008773D01*
X016637Y008674D02*
X019284Y008674D01*
X019324Y008576D02*
X016597Y008576D01*
X016655Y008477D02*
X019266Y008477D01*
X019266Y008378D02*
X016656Y008378D01*
X016656Y008280D02*
X019266Y008280D01*
X019280Y008181D02*
X016642Y008181D01*
X016118Y008181D02*
X016114Y008181D01*
X016114Y008280D02*
X016118Y008280D01*
X016118Y008353D02*
X016114Y008353D01*
X016114Y008605D01*
X016114Y008848D01*
X016118Y008848D01*
X016118Y008605D01*
X016118Y008353D01*
X016114Y008378D02*
X016118Y008378D01*
X016114Y008477D02*
X016118Y008477D01*
X016114Y008576D02*
X016118Y008576D01*
X016114Y008674D02*
X016118Y008674D01*
X016114Y008773D02*
X016118Y008773D01*
X016118Y008853D02*
X016114Y008853D01*
X016114Y009096D01*
X016114Y009348D01*
X016118Y009348D01*
X016118Y009096D01*
X016118Y008853D01*
X016114Y008871D02*
X016118Y008871D01*
X016114Y008970D02*
X016118Y008970D01*
X016114Y009068D02*
X016118Y009068D01*
X016114Y009167D02*
X016118Y009167D01*
X016114Y009265D02*
X016118Y009265D01*
X016118Y009353D02*
X016114Y009353D01*
X016114Y009596D01*
X016114Y009848D01*
X016118Y009848D01*
X016118Y009596D01*
X016118Y009353D01*
X016114Y009364D02*
X016118Y009364D01*
X016114Y009462D02*
X016118Y009462D01*
X016114Y009561D02*
X016118Y009561D01*
X016114Y009659D02*
X016118Y009659D01*
X016114Y009758D02*
X016118Y009758D01*
X016716Y010448D02*
X019266Y010448D01*
X019295Y010546D02*
X016712Y010546D01*
X016701Y010645D02*
X019220Y010645D01*
X019206Y010743D02*
X016716Y010743D01*
X016716Y010842D02*
X019206Y010842D01*
X018511Y010941D02*
X016716Y010941D01*
X016716Y011039D02*
X018413Y011039D01*
X018467Y010985D02*
X018467Y010985D01*
X018314Y011138D02*
X016694Y011138D01*
X016716Y011236D02*
X018216Y011236D01*
X018117Y011335D02*
X016716Y011335D01*
X016716Y011433D02*
X018019Y011433D01*
X017920Y011532D02*
X016716Y011532D01*
X016687Y011630D02*
X017822Y011630D01*
X017723Y011729D02*
X016716Y011729D01*
X016716Y011827D02*
X017625Y011827D01*
X017526Y011926D02*
X016716Y011926D01*
X016716Y012025D02*
X017427Y012025D01*
X017329Y012123D02*
X016635Y012123D01*
X016655Y012222D02*
X017230Y012222D01*
X017132Y012320D02*
X016656Y012320D01*
X018899Y013601D02*
X019824Y013601D01*
X019824Y013503D02*
X018997Y013503D01*
X019096Y013404D02*
X019886Y013404D01*
X019824Y013700D02*
X018800Y013700D01*
X018701Y013798D02*
X019824Y013798D01*
X019824Y013897D02*
X018603Y013897D01*
X018504Y013995D02*
X019824Y013995D01*
X019824Y014094D02*
X018406Y014094D01*
X018307Y014192D02*
X019824Y014192D01*
X019824Y014291D02*
X018209Y014291D01*
X018110Y014390D02*
X019824Y014390D01*
X019824Y014488D02*
X018012Y014488D01*
X017913Y014587D02*
X019824Y014587D01*
X019824Y014685D02*
X017815Y014685D01*
X019194Y013306D02*
X020332Y013306D01*
X020332Y013207D02*
X019293Y013207D01*
X020561Y010743D02*
X023605Y010743D01*
X023703Y010645D02*
X020463Y010645D01*
X019807Y010251D02*
X019803Y010251D01*
X019803Y010152D02*
X019807Y010152D01*
X019803Y010054D02*
X019807Y010054D01*
X019803Y009955D02*
X019807Y009955D01*
X019803Y009857D02*
X019807Y009857D01*
X019807Y009848D02*
X019807Y009605D01*
X019807Y009353D01*
X019803Y009353D01*
X019803Y009605D01*
X019803Y009848D01*
X019807Y009848D01*
X019803Y009758D02*
X019807Y009758D01*
X019803Y009659D02*
X019807Y009659D01*
X019803Y009561D02*
X019807Y009561D01*
X019803Y009462D02*
X019807Y009462D01*
X019803Y009364D02*
X019807Y009364D01*
X019807Y009348D02*
X019807Y009096D01*
X019807Y008853D01*
X019803Y008853D01*
X019803Y009096D01*
X019803Y009348D01*
X019807Y009348D01*
X019803Y009265D02*
X019807Y009265D01*
X019803Y009167D02*
X019807Y009167D01*
X019803Y009068D02*
X019807Y009068D01*
X019803Y008970D02*
X019807Y008970D01*
X019803Y008871D02*
X019807Y008871D01*
X019807Y008848D02*
X019807Y008596D01*
X019807Y008353D01*
X019803Y008353D01*
X019803Y008596D01*
X019803Y008848D01*
X019807Y008848D01*
X019803Y008773D02*
X019807Y008773D01*
X019803Y008674D02*
X019807Y008674D01*
X019803Y008576D02*
X019807Y008576D01*
X019803Y008477D02*
X019807Y008477D01*
X019803Y008378D02*
X019807Y008378D01*
X019803Y008280D02*
X019807Y008280D01*
X019803Y008181D02*
X019807Y008181D01*
X020286Y008576D02*
X025576Y008576D01*
X025674Y008674D02*
X020326Y008674D01*
X020344Y008477D02*
X025477Y008477D01*
X025378Y008378D02*
X020345Y008378D01*
X020345Y008280D02*
X025280Y008280D01*
X025181Y008181D02*
X020331Y008181D01*
X022094Y007393D02*
X015856Y007393D01*
X015856Y007294D02*
X022053Y007294D01*
X022021Y007196D02*
X015856Y007196D01*
X015856Y007097D02*
X022021Y007097D01*
X022021Y006999D02*
X015856Y006999D01*
X015856Y006900D02*
X022056Y006900D01*
X022097Y006802D02*
X015856Y006802D01*
X015856Y006703D02*
X022178Y006703D01*
X022283Y006605D02*
X015856Y006605D01*
X015856Y006506D02*
X022186Y006506D01*
X022100Y006408D02*
X015856Y006408D01*
X015856Y006309D02*
X022059Y006309D01*
X022021Y006210D02*
X015856Y006210D01*
X015856Y006112D02*
X022021Y006112D01*
X022021Y006013D02*
X015856Y006013D01*
X015856Y005915D02*
X017020Y005915D01*
X017048Y005936D02*
X016982Y005887D01*
X016924Y005830D01*
X016876Y005763D01*
X016839Y005690D01*
X016814Y005613D01*
X016802Y005541D01*
X017271Y005541D01*
X017271Y006009D01*
X017199Y005998D01*
X017121Y005973D01*
X017048Y005936D01*
X016915Y005816D02*
X015856Y005816D01*
X015856Y005718D02*
X016853Y005718D01*
X016816Y005619D02*
X015856Y005619D01*
X015864Y005521D02*
X017271Y005521D01*
X017271Y005541D02*
X017271Y005441D01*
X017371Y005441D01*
X017371Y005541D01*
X017839Y005541D01*
X017828Y005613D01*
X017803Y005690D01*
X017766Y005763D01*
X017717Y005830D01*
X017660Y005887D01*
X017593Y005936D01*
X017520Y005973D01*
X017443Y005998D01*
X017371Y006009D01*
X017371Y005541D01*
X017271Y005541D01*
X017271Y005619D02*
X017371Y005619D01*
X017371Y005521D02*
X019831Y005521D01*
X019831Y005541D02*
X019831Y005441D01*
X019931Y005441D01*
X019931Y005541D01*
X020399Y005541D01*
X020388Y005613D01*
X020363Y005690D01*
X020326Y005763D01*
X020277Y005830D01*
X020220Y005887D01*
X020153Y005936D01*
X020080Y005973D01*
X020003Y005998D01*
X019931Y006009D01*
X019931Y005541D01*
X019831Y005541D01*
X019831Y006009D01*
X019759Y005998D01*
X019681Y005973D01*
X019608Y005936D01*
X019542Y005887D01*
X019484Y005830D01*
X019436Y005763D01*
X019399Y005690D01*
X019374Y005613D01*
X019362Y005541D01*
X019831Y005541D01*
X019831Y005619D02*
X019931Y005619D01*
X019931Y005521D02*
X022200Y005521D01*
X022262Y005619D02*
X020386Y005619D01*
X020349Y005718D02*
X022164Y005718D01*
X022091Y005816D02*
X020287Y005816D01*
X020182Y005915D02*
X022050Y005915D01*
X022106Y005422D02*
X020396Y005422D01*
X020399Y005441D02*
X019931Y005441D01*
X019931Y004972D01*
X020003Y004984D01*
X020080Y005009D01*
X020153Y005046D01*
X020220Y005094D01*
X020277Y005152D01*
X020326Y005218D01*
X020363Y005291D01*
X020388Y005369D01*
X020399Y005441D01*
X020373Y005324D02*
X022065Y005324D01*
X022024Y005225D02*
X020329Y005225D01*
X020252Y005126D02*
X022021Y005126D01*
X022021Y005028D02*
X020118Y005028D01*
X019931Y005028D02*
X019831Y005028D01*
X019831Y004972D02*
X019831Y005441D01*
X019362Y005441D01*
X019374Y005369D01*
X019399Y005291D01*
X019436Y005218D01*
X019484Y005152D01*
X019542Y005094D01*
X019608Y005046D01*
X019681Y005009D01*
X019759Y004984D01*
X019831Y004972D01*
X019831Y005126D02*
X019931Y005126D01*
X019931Y005225D02*
X019831Y005225D01*
X019831Y005324D02*
X019931Y005324D01*
X019931Y005422D02*
X019831Y005422D01*
X019831Y005718D02*
X019931Y005718D01*
X019931Y005816D02*
X019831Y005816D01*
X019831Y005915D02*
X019931Y005915D01*
X019580Y005915D02*
X017622Y005915D01*
X017727Y005816D02*
X019475Y005816D01*
X019413Y005718D02*
X017789Y005718D01*
X017826Y005619D02*
X019376Y005619D01*
X019365Y005422D02*
X017836Y005422D01*
X017839Y005441D02*
X017371Y005441D01*
X017371Y004972D01*
X017443Y004984D01*
X017520Y005009D01*
X017593Y005046D01*
X017660Y005094D01*
X017717Y005152D01*
X017766Y005218D01*
X017803Y005291D01*
X017828Y005369D01*
X017839Y005441D01*
X017813Y005324D02*
X019388Y005324D01*
X019433Y005225D02*
X017769Y005225D01*
X017692Y005126D02*
X019510Y005126D01*
X019644Y005028D02*
X017558Y005028D01*
X017371Y005028D02*
X017271Y005028D01*
X017271Y004972D02*
X017271Y005441D01*
X016802Y005441D01*
X016814Y005369D01*
X016839Y005291D01*
X016876Y005218D01*
X016924Y005152D01*
X016982Y005094D01*
X017048Y005046D01*
X017121Y005009D01*
X017199Y004984D01*
X017271Y004972D01*
X017271Y005126D02*
X017371Y005126D01*
X017371Y005225D02*
X017271Y005225D01*
X017271Y005324D02*
X017371Y005324D01*
X017371Y005422D02*
X017271Y005422D01*
X017271Y005718D02*
X017371Y005718D01*
X017371Y005816D02*
X017271Y005816D01*
X017271Y005915D02*
X017371Y005915D01*
X016805Y005422D02*
X015963Y005422D01*
X016061Y005324D02*
X016828Y005324D01*
X016873Y005225D02*
X016160Y005225D01*
X016259Y005126D02*
X016950Y005126D01*
X017084Y005028D02*
X016357Y005028D01*
X016456Y004929D02*
X022044Y004929D01*
X022085Y004831D02*
X016554Y004831D01*
X016653Y004732D02*
X022149Y004732D01*
X022248Y004634D02*
X016751Y004634D01*
X016850Y004535D02*
X022314Y004535D01*
X022202Y004437D02*
X016948Y004437D01*
X017047Y004338D02*
X022138Y004338D01*
X022099Y004240D02*
X020120Y004240D01*
X020209Y004202D02*
X019996Y004291D01*
X019765Y004291D01*
X019552Y004202D01*
X019389Y004039D01*
X019301Y003826D01*
X019301Y003595D01*
X019389Y003382D01*
X019552Y003219D01*
X019765Y003131D01*
X019996Y003131D01*
X020209Y003219D01*
X020372Y003382D01*
X020461Y003595D01*
X020461Y003826D01*
X020372Y004039D01*
X020209Y004202D01*
X020271Y004141D02*
X022551Y004141D01*
X022651Y004141D02*
X024101Y004141D01*
X024101Y004043D02*
X023118Y004043D01*
X023097Y003944D02*
X024101Y003944D01*
X024101Y003845D02*
X023054Y003845D01*
X022982Y003747D02*
X024101Y003747D01*
X024101Y003648D02*
X022858Y003648D01*
X022972Y003550D02*
X024101Y003550D01*
X024101Y003451D02*
X023070Y003451D01*
X023124Y003353D02*
X024101Y003353D01*
X024101Y003254D02*
X023165Y003254D01*
X023181Y003156D02*
X024101Y003156D01*
X024101Y003057D02*
X023181Y003057D01*
X023170Y002959D02*
X024101Y002959D01*
X024101Y002860D02*
X023129Y002860D01*
X023082Y002761D02*
X024101Y002761D01*
X024101Y002663D02*
X022983Y002663D01*
X022957Y002564D02*
X024101Y002564D01*
X024101Y002466D02*
X023056Y002466D01*
X023118Y002367D02*
X024101Y002367D01*
X024101Y002269D02*
X023159Y002269D01*
X023181Y002170D02*
X024101Y002170D01*
X024101Y002072D02*
X023181Y002072D01*
X023176Y001973D02*
X024101Y001973D01*
X024101Y001875D02*
X023135Y001875D01*
X023094Y001776D02*
X024101Y001776D01*
X024101Y001677D02*
X022998Y001677D01*
X022856Y001579D02*
X024101Y001579D01*
X024101Y001480D02*
X019679Y001480D01*
X019681Y001579D02*
X022345Y001579D01*
X022204Y001677D02*
X019681Y001677D01*
X019656Y001776D02*
X022108Y001776D01*
X022083Y002367D02*
X015696Y002367D01*
X015696Y002466D02*
X022146Y002466D01*
X022244Y002564D02*
X015696Y002564D01*
X015696Y002663D02*
X022218Y002663D01*
X022120Y002761D02*
X015696Y002761D01*
X015696Y002860D02*
X022073Y002860D01*
X022032Y002959D02*
X015696Y002959D01*
X015696Y003057D02*
X022021Y003057D01*
X022021Y003156D02*
X020056Y003156D01*
X020244Y003254D02*
X022037Y003254D01*
X022077Y003353D02*
X020343Y003353D01*
X020401Y003451D02*
X022131Y003451D01*
X022230Y003550D02*
X020442Y003550D01*
X020461Y003648D02*
X022343Y003648D01*
X022219Y003747D02*
X020461Y003747D01*
X020453Y003845D02*
X022147Y003845D01*
X022105Y003944D02*
X020412Y003944D01*
X020369Y004043D02*
X022084Y004043D01*
X022887Y004535D02*
X024101Y004535D01*
X024101Y004437D02*
X022999Y004437D01*
X023063Y004338D02*
X024101Y004338D01*
X024101Y004240D02*
X023102Y004240D01*
X022954Y004634D02*
X024101Y004634D01*
X024101Y004732D02*
X023053Y004732D01*
X023117Y004831D02*
X024101Y004831D01*
X024101Y004929D02*
X023158Y004929D01*
X023181Y005028D02*
X024101Y005028D01*
X024101Y005126D02*
X023181Y005126D01*
X023177Y005225D02*
X024101Y005225D01*
X024101Y005324D02*
X023136Y005324D01*
X023095Y005422D02*
X024101Y005422D01*
X024101Y005521D02*
X023001Y005521D01*
X022939Y005619D02*
X024101Y005619D01*
X024101Y005718D02*
X023038Y005718D01*
X023111Y005816D02*
X024101Y005816D01*
X024101Y005915D02*
X023151Y005915D01*
X023181Y006013D02*
X024101Y006013D01*
X024101Y006112D02*
X023181Y006112D01*
X023181Y006210D02*
X024101Y006210D01*
X024101Y006309D02*
X023142Y006309D01*
X023101Y006408D02*
X024101Y006408D01*
X024101Y006506D02*
X023016Y006506D01*
X022919Y006605D02*
X024101Y006605D01*
X024101Y006703D02*
X023023Y006703D01*
X023105Y006802D02*
X024101Y006802D01*
X024101Y006900D02*
X023145Y006900D01*
X023181Y006999D02*
X024101Y006999D01*
X024101Y007097D02*
X023181Y007097D01*
X023181Y007196D02*
X024196Y007196D01*
X024294Y007294D02*
X023148Y007294D01*
X023107Y007393D02*
X024393Y007393D01*
X024492Y007492D02*
X023030Y007492D01*
X022932Y007590D02*
X024590Y007590D01*
X024689Y007689D02*
X015856Y007689D01*
X015856Y007787D02*
X024787Y007787D01*
X024886Y007886D02*
X015856Y007886D01*
X015856Y007984D02*
X024984Y007984D01*
X025083Y008083D02*
X015856Y008083D01*
X015856Y007590D02*
X022270Y007590D01*
X022171Y007492D02*
X015856Y007492D01*
X014046Y006802D02*
X006116Y006802D01*
X006089Y006900D02*
X013948Y006900D01*
X013849Y006999D02*
X011549Y006999D01*
X011431Y006999D02*
X011331Y006999D01*
X011331Y007097D02*
X011431Y007097D01*
X011431Y007196D02*
X011331Y007196D01*
X011331Y007294D02*
X011431Y007294D01*
X011431Y007393D02*
X011331Y007393D01*
X011331Y007492D02*
X008871Y007492D01*
X008871Y007393D02*
X008771Y007393D01*
X008771Y007294D02*
X008871Y007294D01*
X008871Y007196D02*
X008771Y007196D01*
X008771Y007097D02*
X008871Y007097D01*
X008871Y006999D02*
X008771Y006999D01*
X008652Y006999D02*
X006034Y006999D01*
X006089Y006904D02*
X005949Y007145D01*
X005752Y007343D01*
X005510Y007482D01*
X005240Y007554D01*
X004961Y007554D01*
X004692Y007482D01*
X004450Y007343D01*
X004253Y007145D01*
X004113Y006904D01*
X004041Y006634D01*
X004041Y006355D01*
X004113Y006085D01*
X004253Y005844D01*
X004450Y005646D01*
X004692Y005507D01*
X004961Y005434D01*
X005240Y005434D01*
X005510Y005507D01*
X005752Y005646D01*
X005949Y005844D01*
X006089Y006085D01*
X006161Y006355D01*
X006161Y006634D01*
X006089Y006904D01*
X006142Y006703D02*
X014021Y006703D01*
X014021Y006605D02*
X006161Y006605D01*
X006161Y006506D02*
X014021Y006506D01*
X014053Y006408D02*
X006161Y006408D01*
X006148Y006309D02*
X006857Y006309D01*
X006895Y006313D02*
X006783Y006301D01*
X006674Y006276D01*
X006568Y006239D01*
X006467Y006190D01*
X006372Y006130D01*
X006284Y006060D01*
X006204Y005981D01*
X006134Y005893D01*
X006075Y005798D01*
X006026Y005697D01*
X005989Y005591D01*
X005964Y005481D01*
X005951Y005370D01*
X005951Y005363D01*
X006901Y005363D01*
X006901Y005263D01*
X007001Y005263D01*
X007001Y004313D01*
X007007Y004313D01*
X007119Y004326D01*
X007228Y004351D01*
X007334Y004388D01*
X007436Y004437D01*
X007531Y004497D01*
X007619Y004567D01*
X007698Y004646D01*
X007768Y004734D01*
X007828Y004829D01*
X007876Y004930D01*
X007914Y005036D01*
X007939Y005146D01*
X007951Y005257D01*
X007951Y005263D01*
X007001Y005263D01*
X007001Y005363D01*
X007951Y005363D01*
X007951Y005370D01*
X007939Y005481D01*
X007914Y005591D01*
X007876Y005697D01*
X007828Y005798D01*
X007768Y005893D01*
X007698Y005981D01*
X007619Y006060D01*
X007531Y006130D01*
X007436Y006190D01*
X007334Y006239D01*
X007228Y006276D01*
X007119Y006301D01*
X007007Y006313D01*
X007001Y006313D01*
X007001Y005364D01*
X006901Y005364D01*
X006901Y006313D01*
X006895Y006313D01*
X006901Y006309D02*
X007001Y006309D01*
X007046Y006309D02*
X014094Y006309D01*
X014171Y006210D02*
X011690Y006210D01*
X011709Y006202D02*
X011496Y006291D01*
X011265Y006291D01*
X011052Y006202D01*
X010889Y006039D01*
X010857Y005961D01*
X009345Y005961D01*
X009312Y006039D01*
X009149Y006202D01*
X008936Y006291D01*
X008705Y006291D01*
X008492Y006202D01*
X008329Y006039D01*
X008241Y005826D01*
X008241Y005595D01*
X008329Y005382D01*
X008492Y005219D01*
X008705Y005131D01*
X008936Y005131D01*
X009149Y005219D01*
X009312Y005382D01*
X009345Y005461D01*
X010857Y005461D01*
X010889Y005382D01*
X011052Y005219D01*
X011265Y005131D01*
X011496Y005131D01*
X011709Y005219D01*
X011872Y005382D01*
X011961Y005595D01*
X011961Y005826D01*
X011872Y006039D01*
X011709Y006202D01*
X011800Y006112D02*
X014269Y006112D01*
X014835Y006013D02*
X011883Y006013D01*
X011924Y005915D02*
X014933Y005915D01*
X015032Y005816D02*
X011961Y005816D01*
X011961Y005718D02*
X015130Y005718D01*
X015196Y005619D02*
X011961Y005619D01*
X011930Y005521D02*
X015196Y005521D01*
X015196Y005422D02*
X011889Y005422D01*
X011814Y005324D02*
X015196Y005324D01*
X015196Y005225D02*
X011715Y005225D01*
X011046Y005225D02*
X009155Y005225D01*
X009254Y005324D02*
X010948Y005324D01*
X010873Y005422D02*
X009329Y005422D01*
X009323Y006013D02*
X010878Y006013D01*
X010962Y006112D02*
X009240Y006112D01*
X009130Y006210D02*
X011072Y006210D01*
X011212Y006999D02*
X008989Y006999D01*
X009163Y007097D02*
X011039Y007097D01*
X010952Y007196D02*
X009249Y007196D01*
X009304Y007294D02*
X010898Y007294D01*
X010870Y007393D02*
X009332Y007393D01*
X009332Y007590D02*
X010870Y007590D01*
X010898Y007689D02*
X009303Y007689D01*
X009248Y007787D02*
X010953Y007787D01*
X011040Y007886D02*
X009161Y007886D01*
X008771Y007492D02*
X005475Y007492D01*
X005664Y007393D02*
X008310Y007393D01*
X008338Y007294D02*
X005800Y007294D01*
X005898Y007196D02*
X008392Y007196D01*
X008479Y007097D02*
X005977Y007097D01*
X004726Y007492D02*
X001101Y007492D01*
X001101Y007590D02*
X008310Y007590D01*
X008338Y007689D02*
X001101Y007689D01*
X001101Y007787D02*
X008393Y007787D01*
X008480Y007886D02*
X001101Y007886D01*
X001101Y007984D02*
X003176Y007984D01*
X002559Y008576D02*
X002396Y008576D01*
X001101Y007393D02*
X004537Y007393D01*
X004402Y007294D02*
X001101Y007294D01*
X001101Y007196D02*
X004303Y007196D01*
X004225Y007097D02*
X001101Y007097D01*
X001101Y006999D02*
X004168Y006999D01*
X004112Y006900D02*
X001101Y006900D01*
X001101Y006802D02*
X004086Y006802D01*
X004059Y006703D02*
X001101Y006703D01*
X001101Y006605D02*
X004041Y006605D01*
X004041Y006506D02*
X001101Y006506D01*
X001101Y006408D02*
X004041Y006408D01*
X004053Y006309D02*
X001101Y006309D01*
X001101Y006210D02*
X004079Y006210D01*
X004106Y006112D02*
X001101Y006112D01*
X001101Y006013D02*
X004155Y006013D01*
X004211Y005915D02*
X001101Y005915D01*
X001101Y005816D02*
X004280Y005816D01*
X004378Y005718D02*
X001101Y005718D01*
X001101Y005619D02*
X004497Y005619D01*
X004667Y005521D02*
X001101Y005521D01*
X001101Y005422D02*
X005957Y005422D01*
X005973Y005521D02*
X005534Y005521D01*
X005705Y005619D02*
X005999Y005619D01*
X006036Y005718D02*
X005823Y005718D01*
X005922Y005816D02*
X006086Y005816D01*
X006152Y005915D02*
X005990Y005915D01*
X006047Y006013D02*
X006237Y006013D01*
X006349Y006112D02*
X006096Y006112D01*
X006122Y006210D02*
X006509Y006210D01*
X006901Y006210D02*
X007001Y006210D01*
X007001Y006112D02*
X006901Y006112D01*
X006901Y006013D02*
X007001Y006013D01*
X007001Y005915D02*
X006901Y005915D01*
X006901Y005816D02*
X007001Y005816D01*
X007001Y005718D02*
X006901Y005718D01*
X006901Y005619D02*
X007001Y005619D01*
X007001Y005521D02*
X006901Y005521D01*
X006901Y005422D02*
X007001Y005422D01*
X007001Y005324D02*
X008388Y005324D01*
X008313Y005422D02*
X007945Y005422D01*
X007930Y005521D02*
X008272Y005521D01*
X008241Y005619D02*
X007904Y005619D01*
X007866Y005718D02*
X008241Y005718D01*
X008241Y005816D02*
X007816Y005816D01*
X007751Y005915D02*
X008278Y005915D01*
X008318Y006013D02*
X007665Y006013D01*
X007554Y006112D02*
X008402Y006112D01*
X008512Y006210D02*
X007393Y006210D01*
X006901Y005324D02*
X001101Y005324D01*
X001101Y005225D02*
X005955Y005225D01*
X005951Y005257D02*
X005964Y005146D01*
X005989Y005036D01*
X006026Y004930D01*
X006075Y004829D01*
X006134Y004734D01*
X006204Y004646D01*
X006284Y004567D01*
X006372Y004497D01*
X006467Y004437D01*
X006054Y004437D01*
X006063Y004410D02*
X006026Y004516D01*
X005977Y004617D01*
X005918Y004712D01*
X005848Y004800D01*
X005768Y004879D01*
X005680Y004949D01*
X005585Y005009D01*
X005484Y005058D01*
X005378Y005095D01*
X005269Y005120D01*
X005157Y005132D01*
X005151Y005132D01*
X005151Y004182D01*
X006101Y004182D01*
X006101Y004188D01*
X006088Y004300D01*
X006063Y004410D01*
X006079Y004338D02*
X006730Y004338D01*
X006783Y004326D02*
X006895Y004313D01*
X006901Y004313D01*
X006901Y005263D01*
X005951Y005263D01*
X005951Y005257D01*
X005968Y005126D02*
X005208Y005126D01*
X005151Y005126D02*
X005051Y005126D01*
X005051Y005132D02*
X005045Y005132D01*
X004933Y005120D01*
X004824Y005095D01*
X004717Y005058D01*
X004616Y005009D01*
X004521Y004949D01*
X004433Y004879D01*
X004354Y004800D01*
X004284Y004712D01*
X004224Y004617D01*
X004175Y004516D01*
X004138Y004410D01*
X004113Y004300D01*
X004101Y004188D01*
X004101Y004182D01*
X005051Y004182D01*
X005051Y004082D01*
X005151Y004082D01*
X005151Y004182D01*
X005051Y004182D01*
X005051Y005132D01*
X004994Y005126D02*
X001101Y005126D01*
X001101Y005028D02*
X004656Y005028D01*
X004497Y004929D02*
X001101Y004929D01*
X001101Y004831D02*
X004385Y004831D01*
X004300Y004732D02*
X001101Y004732D01*
X001101Y004634D02*
X004235Y004634D01*
X004185Y004535D02*
X001101Y004535D01*
X001101Y004437D02*
X004148Y004437D01*
X004122Y004338D02*
X001101Y004338D01*
X001101Y004240D02*
X004107Y004240D01*
X004101Y004082D02*
X004101Y004076D01*
X004113Y003964D01*
X004138Y003855D01*
X004175Y003749D01*
X004224Y003648D01*
X004284Y003553D01*
X004354Y003465D01*
X004433Y003385D01*
X004521Y003315D01*
X004616Y003256D01*
X004717Y003207D01*
X004824Y003170D01*
X004933Y003145D01*
X005045Y003132D01*
X005051Y003132D01*
X005051Y004082D01*
X004101Y004082D01*
X004105Y004043D02*
X001101Y004043D01*
X001101Y004141D02*
X005051Y004141D01*
X005051Y004043D02*
X005151Y004043D01*
X005151Y004082D02*
X005151Y003132D01*
X005157Y003132D01*
X005269Y003145D01*
X005378Y003170D01*
X005484Y003207D01*
X005585Y003256D01*
X005680Y003315D01*
X005768Y003385D01*
X005848Y003465D01*
X005918Y003553D01*
X005977Y003648D01*
X006026Y003749D01*
X006063Y003855D01*
X006088Y003964D01*
X006101Y004076D01*
X006101Y004082D01*
X005151Y004082D01*
X005151Y004141D02*
X014240Y004141D01*
X014272Y004109D02*
X014485Y004021D01*
X014716Y004021D01*
X014929Y004109D01*
X015092Y004272D01*
X015181Y004485D01*
X015181Y004716D01*
X015092Y004929D01*
X015196Y004929D01*
X015196Y004831D02*
X015133Y004831D01*
X015092Y004929D02*
X014929Y005092D01*
X014716Y005181D01*
X014485Y005181D01*
X014272Y005092D01*
X014109Y004929D01*
X014021Y004716D01*
X014021Y004485D01*
X014109Y004272D01*
X014272Y004109D01*
X014433Y004043D02*
X006097Y004043D01*
X006084Y003944D02*
X015196Y003944D01*
X015196Y004043D02*
X014769Y004043D01*
X014961Y004141D02*
X015196Y004141D01*
X015196Y004240D02*
X015060Y004240D01*
X015120Y004338D02*
X015196Y004338D01*
X015196Y004437D02*
X015161Y004437D01*
X015181Y004535D02*
X015196Y004535D01*
X015196Y004634D02*
X015181Y004634D01*
X015174Y004732D02*
X015196Y004732D01*
X015196Y005028D02*
X014994Y005028D01*
X014847Y005126D02*
X015196Y005126D01*
X015696Y004929D02*
X015749Y004929D01*
X015696Y004831D02*
X015847Y004831D01*
X015946Y004732D02*
X015696Y004732D01*
X015696Y004634D02*
X016044Y004634D01*
X016143Y004535D02*
X015696Y004535D01*
X015696Y004437D02*
X016241Y004437D01*
X016340Y004338D02*
X015696Y004338D01*
X015696Y004240D02*
X016438Y004240D01*
X016537Y004141D02*
X015696Y004141D01*
X015696Y004043D02*
X016636Y004043D01*
X016734Y003944D02*
X015696Y003944D01*
X015696Y003845D02*
X016749Y003845D01*
X016741Y003747D02*
X015696Y003747D01*
X015696Y003648D02*
X016741Y003648D01*
X016760Y003550D02*
X015696Y003550D01*
X015696Y003451D02*
X016800Y003451D01*
X016859Y003353D02*
X015696Y003353D01*
X015696Y003254D02*
X016957Y003254D01*
X017145Y003156D02*
X015696Y003156D01*
X015196Y003156D02*
X005316Y003156D01*
X005151Y003156D02*
X005051Y003156D01*
X005051Y003254D02*
X005151Y003254D01*
X005151Y003353D02*
X005051Y003353D01*
X005051Y003451D02*
X005151Y003451D01*
X005151Y003550D02*
X005051Y003550D01*
X005051Y003648D02*
X005151Y003648D01*
X005151Y003747D02*
X005051Y003747D01*
X005051Y003845D02*
X005151Y003845D01*
X005151Y003944D02*
X005051Y003944D01*
X005051Y004240D02*
X005151Y004240D01*
X005151Y004338D02*
X005051Y004338D01*
X005051Y004437D02*
X005151Y004437D01*
X005151Y004535D02*
X005051Y004535D01*
X005051Y004634D02*
X005151Y004634D01*
X005151Y004732D02*
X005051Y004732D01*
X005051Y004831D02*
X005151Y004831D01*
X005151Y004929D02*
X005051Y004929D01*
X005051Y005028D02*
X005151Y005028D01*
X005546Y005028D02*
X005992Y005028D01*
X006026Y004929D02*
X005705Y004929D01*
X005816Y004831D02*
X006074Y004831D01*
X006135Y004732D02*
X005901Y004732D01*
X005967Y004634D02*
X006217Y004634D01*
X006323Y004535D02*
X006017Y004535D01*
X006095Y004240D02*
X014142Y004240D01*
X014082Y004338D02*
X007172Y004338D01*
X007001Y004338D02*
X006901Y004338D01*
X006901Y004437D02*
X007001Y004437D01*
X007001Y004535D02*
X006901Y004535D01*
X006901Y004634D02*
X007001Y004634D01*
X007001Y004732D02*
X006901Y004732D01*
X006901Y004831D02*
X007001Y004831D01*
X007001Y004929D02*
X006901Y004929D01*
X006901Y005028D02*
X007001Y005028D01*
X007001Y005126D02*
X006901Y005126D01*
X006901Y005225D02*
X007001Y005225D01*
X007767Y004732D02*
X014028Y004732D01*
X014021Y004634D02*
X007686Y004634D01*
X007579Y004535D02*
X014021Y004535D01*
X014041Y004437D02*
X007435Y004437D01*
X007829Y004831D02*
X014068Y004831D01*
X014109Y004929D02*
X007876Y004929D01*
X007911Y005028D02*
X014208Y005028D01*
X014354Y005126D02*
X007934Y005126D01*
X007948Y005225D02*
X008486Y005225D01*
X006783Y004326D02*
X006674Y004351D01*
X006568Y004388D01*
X006467Y004437D01*
X006060Y003845D02*
X015196Y003845D01*
X015196Y003747D02*
X006025Y003747D01*
X005978Y003648D02*
X015196Y003648D01*
X015196Y003550D02*
X005915Y003550D01*
X005834Y003451D02*
X015196Y003451D01*
X015196Y003353D02*
X005727Y003353D01*
X005582Y003254D02*
X015196Y003254D01*
X015196Y003057D02*
X012144Y003057D01*
X012243Y002959D02*
X015196Y002959D01*
X015196Y002860D02*
X012342Y002860D01*
X012440Y002761D02*
X015196Y002761D01*
X015196Y002663D02*
X012539Y002663D01*
X012637Y002564D02*
X015196Y002564D01*
X015196Y002466D02*
X012736Y002466D01*
X012834Y002367D02*
X015196Y002367D01*
X015196Y002269D02*
X012933Y002269D01*
X013031Y002170D02*
X014960Y002170D01*
X014751Y002072D02*
X013130Y002072D01*
X013228Y001973D02*
X014653Y001973D01*
X014586Y001875D02*
X013327Y001875D01*
X013426Y001776D02*
X014546Y001776D01*
X014521Y001677D02*
X013524Y001677D01*
X013623Y001579D02*
X014521Y001579D01*
X014523Y001480D02*
X013721Y001480D01*
X013820Y001382D02*
X014564Y001382D01*
X014604Y001283D02*
X013918Y001283D01*
X014017Y001185D02*
X014697Y001185D01*
X017496Y003156D02*
X019705Y003156D01*
X019517Y003254D02*
X017684Y003254D01*
X017783Y003353D02*
X019419Y003353D01*
X019360Y003451D02*
X017841Y003451D01*
X017882Y003550D02*
X019320Y003550D01*
X019301Y003648D02*
X017901Y003648D01*
X017901Y003747D02*
X019301Y003747D01*
X019309Y003845D02*
X017893Y003845D01*
X017852Y003944D02*
X019350Y003944D01*
X019392Y004043D02*
X017809Y004043D01*
X017711Y004141D02*
X019491Y004141D01*
X019642Y004240D02*
X017560Y004240D01*
X019638Y001382D02*
X024101Y001382D01*
X024101Y001283D02*
X019597Y001283D01*
X019505Y001185D02*
X024101Y001185D01*
X025101Y001185D02*
X043525Y001185D01*
X043539Y001161D02*
X043539Y001161D01*
X043611Y001101D01*
X025101Y001101D01*
X025101Y007101D01*
X025195Y007195D01*
X025195Y002806D01*
X025195Y002707D01*
X025233Y002615D01*
X025553Y002295D01*
X025521Y002216D01*
X025521Y001985D01*
X025609Y001772D01*
X025772Y001609D01*
X025985Y001521D01*
X026216Y001521D01*
X026429Y001609D01*
X026592Y001772D01*
X026681Y001985D01*
X026681Y002216D01*
X026592Y002429D01*
X026429Y002592D01*
X026409Y002601D01*
X026429Y002609D01*
X026592Y002772D01*
X026681Y002985D01*
X026681Y003216D01*
X026592Y003429D01*
X026429Y003592D01*
X026330Y003634D01*
X026373Y003656D01*
X026440Y003704D01*
X026497Y003762D01*
X026546Y003828D01*
X026583Y003901D01*
X026608Y003979D01*
X026619Y004051D01*
X026151Y004051D01*
X026151Y004151D01*
X026619Y004151D01*
X026608Y004223D01*
X026583Y004300D01*
X026546Y004373D01*
X026497Y004440D01*
X026440Y004497D01*
X026373Y004546D01*
X026330Y004568D01*
X026429Y004609D01*
X026592Y004772D01*
X026625Y004851D01*
X037551Y004851D01*
X037642Y004889D01*
X037713Y004959D01*
X038742Y005989D01*
X038742Y005989D01*
X038813Y006059D01*
X038851Y006151D01*
X038851Y006174D01*
X038878Y006185D01*
X039016Y006323D01*
X039091Y006503D01*
X039091Y007258D01*
X039016Y007438D01*
X038878Y007576D01*
X038698Y007651D01*
X038503Y007651D01*
X038323Y007576D01*
X038185Y007438D01*
X038111Y007258D01*
X038111Y006503D01*
X038185Y006323D01*
X038278Y006231D01*
X037397Y005351D01*
X026625Y005351D01*
X026592Y005429D01*
X026429Y005592D01*
X026409Y005601D01*
X026429Y005609D01*
X026592Y005772D01*
X026681Y005985D01*
X026681Y006216D01*
X026592Y006429D01*
X026534Y006487D01*
X027776Y007729D01*
X027846Y007799D01*
X027884Y007891D01*
X027884Y008728D01*
X028056Y008900D01*
X028109Y008772D01*
X028272Y008609D01*
X028485Y008521D01*
X028716Y008521D01*
X028929Y008609D01*
X029092Y008772D01*
X029181Y008985D01*
X029181Y009158D01*
X030754Y010731D01*
X032151Y010731D01*
X032272Y010609D01*
X032485Y010521D01*
X032716Y010521D01*
X032929Y010609D01*
X033092Y010772D01*
X033181Y010985D01*
X033181Y011216D01*
X033092Y011429D01*
X032929Y011592D01*
X032716Y011681D01*
X032485Y011681D01*
X032272Y011592D01*
X032151Y011471D01*
X030627Y011471D01*
X032007Y012851D01*
X032077Y012851D01*
X032109Y012772D01*
X032272Y012609D01*
X032485Y012521D01*
X032716Y012521D01*
X032929Y012609D01*
X033092Y012772D01*
X033181Y012985D01*
X033181Y013216D01*
X033092Y013429D01*
X032929Y013592D01*
X032716Y013681D01*
X032485Y013681D01*
X032272Y013592D01*
X032109Y013429D01*
X032077Y013351D01*
X031953Y013351D01*
X031924Y013351D01*
X032813Y014240D01*
X032851Y014331D01*
X032851Y014431D01*
X032851Y014577D01*
X032929Y014609D01*
X033092Y014772D01*
X033181Y014985D01*
X033181Y015216D01*
X033092Y015429D01*
X032929Y015592D01*
X032716Y015681D01*
X032485Y015681D01*
X032272Y015592D01*
X032109Y015429D01*
X032021Y015216D01*
X032021Y014985D01*
X032109Y014772D01*
X032272Y014609D01*
X032351Y014577D01*
X032351Y014485D01*
X029152Y011286D01*
X029092Y011429D01*
X028929Y011592D01*
X028716Y011681D01*
X028485Y011681D01*
X028272Y011592D01*
X028109Y011429D01*
X028101Y011409D01*
X028101Y012792D01*
X028109Y012772D01*
X028272Y012609D01*
X028485Y012521D01*
X028716Y012521D01*
X028929Y012609D01*
X029092Y012772D01*
X029181Y012985D01*
X029181Y013216D01*
X029092Y013429D01*
X028929Y013592D01*
X028716Y013681D01*
X028485Y013681D01*
X028272Y013592D01*
X028109Y013429D01*
X028101Y013409D01*
X028101Y014792D01*
X028109Y014772D01*
X028272Y014609D01*
X028485Y014521D01*
X028716Y014521D01*
X028929Y014609D01*
X029092Y014772D01*
X029181Y014985D01*
X029181Y015216D01*
X029092Y015429D01*
X028929Y015592D01*
X028716Y015681D01*
X028485Y015681D01*
X028272Y015592D01*
X028109Y015429D01*
X028101Y015409D01*
X028101Y016101D01*
X029101Y017101D01*
X029101Y019521D01*
X029216Y019521D01*
X029429Y019609D01*
X029592Y019772D01*
X029681Y019985D01*
X029681Y020216D01*
X029592Y020429D01*
X029429Y020592D01*
X029216Y020681D01*
X029101Y020681D01*
X029101Y022021D01*
X029216Y022021D01*
X029429Y022109D01*
X029592Y022272D01*
X029681Y022485D01*
X029681Y022658D01*
X029887Y022864D01*
X033582Y022864D01*
X033521Y022716D01*
X033521Y022485D01*
X033609Y022272D01*
X033731Y022151D01*
X033731Y020551D01*
X033609Y020429D01*
X033521Y020216D01*
X033521Y019985D01*
X033609Y019772D01*
X033772Y019609D01*
X033985Y019521D01*
X034158Y019521D01*
X036850Y016828D01*
X036772Y016861D01*
X036430Y016861D01*
X036114Y016730D01*
X035872Y016488D01*
X035741Y016172D01*
X035741Y015830D01*
X035872Y015514D01*
X036114Y015272D01*
X036430Y015141D01*
X036772Y015141D01*
X037088Y015272D01*
X037330Y015514D01*
X037461Y015830D01*
X037461Y016172D01*
X037428Y016250D01*
X040577Y013101D01*
X040577Y012015D01*
X040577Y011868D01*
X040633Y011732D01*
X042062Y010303D01*
X041961Y010303D01*
X041933Y010291D01*
X041870Y010354D01*
X041734Y010411D01*
X035527Y010411D01*
X035391Y010354D01*
X035287Y010250D01*
X035231Y010114D01*
X035231Y009967D01*
X035231Y009849D01*
X035135Y009752D01*
X035051Y009550D01*
X035051Y008651D01*
X035135Y008449D01*
X035289Y008295D01*
X035491Y008211D01*
X035710Y008211D01*
X035912Y008295D01*
X036067Y008449D01*
X036101Y008531D01*
X036135Y008449D01*
X036289Y008295D01*
X036432Y008235D01*
X034647Y006451D01*
X032069Y006451D01*
X032091Y006503D01*
X032091Y007258D01*
X032016Y007438D01*
X031878Y007576D01*
X031698Y007651D01*
X031503Y007651D01*
X031323Y007576D01*
X031185Y007438D01*
X031111Y007258D01*
X031111Y006503D01*
X031185Y006323D01*
X031323Y006185D01*
X031351Y006174D01*
X031351Y006151D01*
X031389Y006059D01*
X031459Y005989D01*
X031551Y005951D01*
X034800Y005951D01*
X034892Y005989D01*
X034963Y006059D01*
X037244Y008340D01*
X037289Y008295D01*
X037491Y008211D01*
X037710Y008211D01*
X037912Y008295D01*
X038067Y008449D01*
X038151Y008651D01*
X038151Y009550D01*
X038101Y009671D01*
X041399Y009671D01*
X041399Y009461D01*
X041506Y009203D01*
X041703Y009006D01*
X041961Y008899D01*
X042240Y008899D01*
X042490Y009002D01*
X042490Y008553D01*
X038391Y004454D01*
X038287Y004350D01*
X038231Y004214D01*
X038231Y003924D01*
X038185Y003878D01*
X038111Y003698D01*
X038111Y002943D01*
X038185Y002763D01*
X038323Y002625D01*
X038503Y002551D01*
X038698Y002551D01*
X038878Y002625D01*
X039016Y002763D01*
X039091Y002943D01*
X039091Y003698D01*
X039016Y003878D01*
X038971Y003924D01*
X038971Y003988D01*
X042021Y007038D01*
X042021Y006985D01*
X042109Y006772D01*
X042272Y006609D01*
X042485Y006521D01*
X042716Y006521D01*
X042929Y006609D01*
X043092Y006772D01*
X043181Y006985D01*
X043181Y007216D01*
X043092Y007429D01*
X042929Y007592D01*
X042716Y007681D01*
X042664Y007681D01*
X043070Y008087D01*
X043174Y008191D01*
X043230Y008327D01*
X043230Y010102D01*
X043174Y010238D01*
X043070Y010342D01*
X042013Y011399D01*
X042240Y011399D01*
X042499Y011506D01*
X042696Y011703D01*
X042803Y011961D01*
X042803Y012240D01*
X042696Y012499D01*
X042499Y012696D01*
X042240Y012803D01*
X041961Y012803D01*
X041703Y012696D01*
X041506Y012499D01*
X041399Y012240D01*
X041399Y012013D01*
X041317Y012094D01*
X041317Y013328D01*
X041261Y013464D01*
X041157Y013568D01*
X034681Y020044D01*
X034681Y020216D01*
X034592Y020429D01*
X034471Y020551D01*
X034471Y022151D01*
X034592Y022272D01*
X034681Y022485D01*
X034681Y022716D01*
X034620Y022864D01*
X040957Y022864D01*
X040957Y015449D01*
X040957Y015301D01*
X041013Y015165D01*
X041410Y014768D01*
X041399Y014740D01*
X041399Y014461D01*
X041506Y014203D01*
X041703Y014006D01*
X041961Y013899D01*
X042240Y013899D01*
X042499Y014006D01*
X042696Y014203D01*
X042803Y014461D01*
X042803Y014740D01*
X042696Y014999D01*
X042499Y015196D01*
X042240Y015303D01*
X041961Y015303D01*
X041933Y015291D01*
X041696Y015528D01*
X041696Y018512D01*
X041703Y018506D01*
X041961Y018399D01*
X042240Y018399D01*
X042499Y018506D01*
X042696Y018703D01*
X042803Y018961D01*
X042803Y019240D01*
X042696Y019499D01*
X042499Y019696D01*
X042240Y019803D01*
X041961Y019803D01*
X041703Y019696D01*
X041696Y019689D01*
X041696Y021012D01*
X041703Y021006D01*
X041961Y020899D01*
X042240Y020899D01*
X042499Y021006D01*
X042696Y021203D01*
X042803Y021461D01*
X042803Y021740D01*
X042696Y021999D01*
X042499Y022196D01*
X042240Y022303D01*
X041961Y022303D01*
X041703Y022196D01*
X041696Y022189D01*
X041696Y023160D01*
X045101Y023160D01*
X045101Y023258D02*
X041782Y023258D01*
X041696Y023173D02*
X041933Y023410D01*
X041961Y023399D01*
X042240Y023399D01*
X042499Y023506D01*
X042696Y023703D01*
X042803Y023961D01*
X042803Y024240D01*
X042696Y024499D01*
X042499Y024696D01*
X042240Y024803D01*
X041961Y024803D01*
X041703Y024696D01*
X041506Y024499D01*
X041399Y024240D01*
X041399Y023961D01*
X041410Y023933D01*
X041117Y023640D01*
X041080Y023604D01*
X029807Y023604D01*
X029660Y023604D01*
X029524Y023547D01*
X029158Y023181D01*
X029101Y023181D01*
X029101Y024521D01*
X029216Y024521D01*
X029429Y024609D01*
X029592Y024772D01*
X029681Y024985D01*
X029681Y025216D01*
X029592Y025429D01*
X029429Y025592D01*
X029216Y025681D01*
X029101Y025681D01*
X029101Y027021D01*
X029216Y027021D01*
X029429Y027109D01*
X029592Y027272D01*
X029681Y027485D01*
X029681Y027716D01*
X029592Y027929D01*
X029429Y028092D01*
X029216Y028181D01*
X029101Y028181D01*
X029101Y029101D01*
X035101Y029101D01*
X035101Y026101D01*
X040101Y026101D01*
X042101Y028101D01*
X042101Y029101D01*
X043441Y029101D01*
X043466Y028960D01*
X043639Y028661D01*
X043903Y028439D01*
X043903Y028439D01*
X044228Y028321D01*
X044351Y028321D01*
X044351Y028321D01*
X044376Y028321D01*
X044401Y028321D01*
X044451Y028321D01*
X044574Y028321D01*
X044898Y028439D01*
X044898Y028439D01*
X045101Y028609D01*
X045101Y002375D01*
X045063Y002440D01*
X045063Y002440D01*
X044798Y002663D01*
X044474Y002781D01*
X044351Y002781D01*
X044301Y002781D01*
X044298Y002781D01*
X044251Y002781D01*
X044251Y002781D01*
X044128Y002781D01*
X043803Y002663D01*
X043539Y002440D01*
X043366Y002141D01*
X043306Y001801D01*
X043306Y001801D01*
X043366Y001460D01*
X043539Y001161D01*
X043468Y001283D02*
X025101Y001283D01*
X025101Y001382D02*
X043411Y001382D01*
X043366Y001460D02*
X043366Y001460D01*
X043362Y001480D02*
X025101Y001480D01*
X025101Y001579D02*
X025845Y001579D01*
X025704Y001677D02*
X025101Y001677D01*
X025101Y001776D02*
X025608Y001776D01*
X025567Y001875D02*
X025101Y001875D01*
X025101Y001973D02*
X025526Y001973D01*
X025521Y002072D02*
X025101Y002072D01*
X025101Y002170D02*
X025521Y002170D01*
X025543Y002269D02*
X025101Y002269D01*
X025101Y002367D02*
X025481Y002367D01*
X025382Y002466D02*
X025101Y002466D01*
X025101Y002564D02*
X025284Y002564D01*
X025213Y002663D02*
X025101Y002663D01*
X025101Y002761D02*
X025195Y002761D01*
X025195Y002860D02*
X025101Y002860D01*
X025101Y002959D02*
X025195Y002959D01*
X025195Y003057D02*
X025101Y003057D01*
X025101Y003156D02*
X025195Y003156D01*
X025195Y003254D02*
X025101Y003254D01*
X025101Y003353D02*
X025195Y003353D01*
X025195Y003451D02*
X025101Y003451D01*
X025101Y003550D02*
X025195Y003550D01*
X025195Y003648D02*
X025101Y003648D01*
X025101Y003747D02*
X025195Y003747D01*
X025195Y003845D02*
X025101Y003845D01*
X025101Y003944D02*
X025195Y003944D01*
X025195Y004043D02*
X025101Y004043D01*
X025101Y004141D02*
X025195Y004141D01*
X025195Y004240D02*
X025101Y004240D01*
X025101Y004338D02*
X025195Y004338D01*
X025195Y004437D02*
X025101Y004437D01*
X025101Y004535D02*
X025195Y004535D01*
X025195Y004634D02*
X025101Y004634D01*
X025101Y004732D02*
X025195Y004732D01*
X025195Y004831D02*
X025101Y004831D01*
X025101Y004929D02*
X025195Y004929D01*
X025195Y005028D02*
X025101Y005028D01*
X025101Y005126D02*
X025195Y005126D01*
X025195Y005225D02*
X025101Y005225D01*
X025101Y005324D02*
X025195Y005324D01*
X025195Y005422D02*
X025101Y005422D01*
X025101Y005521D02*
X025195Y005521D01*
X025195Y005619D02*
X025101Y005619D01*
X025101Y005718D02*
X025195Y005718D01*
X025195Y005816D02*
X025101Y005816D01*
X025101Y005915D02*
X025195Y005915D01*
X025195Y006013D02*
X025101Y006013D01*
X025101Y006112D02*
X025195Y006112D01*
X025195Y006210D02*
X025101Y006210D01*
X025101Y006309D02*
X025195Y006309D01*
X025195Y006408D02*
X025101Y006408D01*
X025101Y006506D02*
X025195Y006506D01*
X025195Y006605D02*
X025101Y006605D01*
X025101Y006703D02*
X025195Y006703D01*
X025195Y006802D02*
X025101Y006802D01*
X025101Y006900D02*
X025195Y006900D01*
X025195Y006999D02*
X025101Y006999D01*
X025101Y007097D02*
X025195Y007097D01*
X026553Y006506D02*
X029111Y006506D01*
X029111Y006503D02*
X029185Y006323D01*
X029323Y006185D01*
X029503Y006111D01*
X029698Y006111D01*
X029878Y006185D01*
X030016Y006323D01*
X030091Y006503D01*
X030091Y007258D01*
X030016Y007438D01*
X029878Y007576D01*
X029698Y007651D01*
X029503Y007651D01*
X029323Y007576D01*
X029185Y007438D01*
X029111Y007258D01*
X029111Y006503D01*
X029111Y006605D02*
X026652Y006605D01*
X026750Y006703D02*
X029111Y006703D01*
X029111Y006802D02*
X026849Y006802D01*
X026947Y006900D02*
X029111Y006900D01*
X029111Y006999D02*
X027046Y006999D01*
X027144Y007097D02*
X029111Y007097D01*
X029111Y007196D02*
X027243Y007196D01*
X027342Y007294D02*
X029126Y007294D01*
X029167Y007393D02*
X027440Y007393D01*
X027539Y007492D02*
X029239Y007492D01*
X029357Y007590D02*
X027637Y007590D01*
X027736Y007689D02*
X035885Y007689D01*
X035984Y007787D02*
X027834Y007787D01*
X027776Y007729D02*
X027776Y007729D01*
X027882Y007886D02*
X036082Y007886D01*
X036181Y007984D02*
X027884Y007984D01*
X027884Y008083D02*
X036279Y008083D01*
X036378Y008181D02*
X027884Y008181D01*
X027884Y008280D02*
X035325Y008280D01*
X035205Y008378D02*
X027884Y008378D01*
X027884Y008477D02*
X035123Y008477D01*
X035082Y008576D02*
X032848Y008576D01*
X032929Y008609D02*
X033092Y008772D01*
X033181Y008985D01*
X033181Y009216D01*
X033092Y009429D01*
X032929Y009592D01*
X032716Y009681D01*
X032485Y009681D01*
X032272Y009592D01*
X032109Y009429D01*
X032021Y009216D01*
X032021Y008985D01*
X032109Y008772D01*
X032272Y008609D01*
X032485Y008521D01*
X032716Y008521D01*
X032929Y008609D01*
X032994Y008674D02*
X035051Y008674D01*
X035051Y008773D02*
X033093Y008773D01*
X033133Y008871D02*
X035051Y008871D01*
X035051Y008970D02*
X033174Y008970D01*
X033181Y009068D02*
X035051Y009068D01*
X035051Y009167D02*
X033181Y009167D01*
X033160Y009265D02*
X035051Y009265D01*
X035051Y009364D02*
X033120Y009364D01*
X033059Y009462D02*
X035051Y009462D01*
X035055Y009561D02*
X032961Y009561D01*
X032767Y009659D02*
X035096Y009659D01*
X035140Y009758D02*
X029781Y009758D01*
X029683Y009659D02*
X032434Y009659D01*
X032241Y009561D02*
X029584Y009561D01*
X029486Y009462D02*
X032142Y009462D01*
X032082Y009364D02*
X029387Y009364D01*
X029289Y009265D02*
X032041Y009265D01*
X032021Y009167D02*
X029190Y009167D01*
X029181Y009068D02*
X032021Y009068D01*
X032027Y008970D02*
X029174Y008970D01*
X029133Y008871D02*
X032068Y008871D01*
X032109Y008773D02*
X029093Y008773D01*
X028994Y008674D02*
X032207Y008674D01*
X032353Y008576D02*
X028848Y008576D01*
X028353Y008576D02*
X027884Y008576D01*
X027884Y008674D02*
X028207Y008674D01*
X028109Y008773D02*
X027929Y008773D01*
X028027Y008871D02*
X028068Y008871D01*
X026857Y009857D02*
X025631Y009857D01*
X025631Y009955D02*
X026955Y009955D01*
X027054Y010054D02*
X025619Y010054D01*
X025579Y010152D02*
X027101Y010152D01*
X027101Y010251D02*
X025520Y010251D01*
X025422Y010349D02*
X027101Y010349D01*
X027101Y010448D02*
X025213Y010448D01*
X024988Y010448D02*
X024607Y010448D01*
X024509Y010546D02*
X027101Y010546D01*
X027101Y010645D02*
X024410Y010645D01*
X024312Y010743D02*
X027101Y010743D01*
X027101Y010842D02*
X024213Y010842D01*
X024114Y010941D02*
X027101Y010941D01*
X027101Y011039D02*
X024016Y011039D01*
X023917Y011138D02*
X027101Y011138D01*
X027101Y011236D02*
X023819Y011236D01*
X023720Y011335D02*
X027101Y011335D01*
X027101Y011433D02*
X023622Y011433D01*
X023523Y011532D02*
X027101Y011532D01*
X027101Y011630D02*
X023425Y011630D01*
X023414Y011729D02*
X027101Y011729D01*
X027101Y011827D02*
X023414Y011827D01*
X023414Y011926D02*
X027101Y011926D01*
X027101Y012025D02*
X023414Y012025D01*
X023414Y012123D02*
X027101Y012123D01*
X027101Y012222D02*
X023414Y012222D01*
X023414Y012320D02*
X027101Y012320D01*
X027101Y012419D02*
X023414Y012419D01*
X023414Y012517D02*
X027101Y012517D01*
X027101Y012616D02*
X023414Y012616D01*
X023414Y012714D02*
X027101Y012714D01*
X027101Y012813D02*
X023414Y012813D01*
X023414Y012911D02*
X027101Y012911D01*
X027101Y013010D02*
X023414Y013010D01*
X023414Y013109D02*
X027101Y013109D01*
X027101Y013207D02*
X023414Y013207D01*
X023414Y013306D02*
X027101Y013306D01*
X027101Y013404D02*
X023414Y013404D01*
X023414Y013503D02*
X027101Y013503D01*
X027101Y013601D02*
X023414Y013601D01*
X023414Y013700D02*
X027101Y013700D01*
X027101Y013798D02*
X023414Y013798D01*
X023414Y013897D02*
X027101Y013897D01*
X027101Y013995D02*
X023414Y013995D01*
X023414Y014094D02*
X027101Y014094D01*
X027101Y014192D02*
X023414Y014192D01*
X023414Y014291D02*
X027101Y014291D01*
X027101Y014390D02*
X023414Y014390D01*
X023414Y014488D02*
X027101Y014488D01*
X027101Y014587D02*
X023414Y014587D01*
X023414Y014685D02*
X023822Y014685D01*
X023602Y014784D02*
X023414Y014784D01*
X023414Y014882D02*
X023503Y014882D01*
X024379Y014685D02*
X027101Y014685D01*
X027101Y014784D02*
X024600Y014784D01*
X024699Y014882D02*
X027101Y014882D01*
X027101Y014981D02*
X024797Y014981D01*
X024857Y015079D02*
X027101Y015079D01*
X027101Y015178D02*
X024898Y015178D01*
X024939Y015276D02*
X027101Y015276D01*
X027101Y015375D02*
X024961Y015375D01*
X024961Y015474D02*
X027101Y015474D01*
X027101Y015572D02*
X024961Y015572D01*
X024961Y015671D02*
X027101Y015671D01*
X027101Y015769D02*
X024920Y015769D01*
X024880Y015868D02*
X027101Y015868D01*
X027101Y015966D02*
X024839Y015966D01*
X024753Y016065D02*
X027101Y016065D01*
X027163Y016163D02*
X024654Y016163D01*
X024511Y016262D02*
X027262Y016262D01*
X027360Y016360D02*
X024273Y016360D01*
X023929Y016360D02*
X023414Y016360D01*
X023414Y016262D02*
X023691Y016262D01*
X023547Y016163D02*
X023414Y016163D01*
X023414Y016065D02*
X023449Y016065D01*
X023414Y016459D02*
X027459Y016459D01*
X027558Y016558D02*
X023414Y016558D01*
X023414Y016656D02*
X027656Y016656D01*
X027755Y016755D02*
X023414Y016755D01*
X023414Y016853D02*
X027853Y016853D01*
X027952Y016952D02*
X023414Y016952D01*
X023414Y017346D02*
X028101Y017346D01*
X028101Y017444D02*
X023414Y017444D01*
X023414Y017543D02*
X026432Y017543D01*
X026240Y017641D02*
X023414Y017641D01*
X023414Y017740D02*
X026141Y017740D01*
X026082Y017839D02*
X023414Y017839D01*
X023414Y017937D02*
X026041Y017937D01*
X026021Y018036D02*
X023414Y018036D01*
X023414Y018134D02*
X026021Y018134D01*
X026028Y018233D02*
X023414Y018233D01*
X023414Y018331D02*
X026017Y018331D01*
X025918Y018430D02*
X023414Y018430D01*
X023414Y018528D02*
X025820Y018528D01*
X025721Y018627D02*
X023414Y018627D01*
X023414Y018725D02*
X025623Y018725D01*
X025524Y018824D02*
X023414Y018824D01*
X023414Y018923D02*
X025425Y018923D01*
X025327Y019021D02*
X023414Y019021D01*
X023414Y019120D02*
X025228Y019120D01*
X025130Y019218D02*
X023414Y019218D01*
X023414Y019317D02*
X025031Y019317D01*
X024933Y019415D02*
X023414Y019415D01*
X023414Y019514D02*
X024834Y019514D01*
X024736Y019612D02*
X023414Y019612D01*
X023414Y019711D02*
X024637Y019711D01*
X024539Y019809D02*
X023414Y019809D01*
X023414Y019908D02*
X024440Y019908D01*
X024341Y020007D02*
X023414Y020007D01*
X023414Y020105D02*
X024243Y020105D01*
X024144Y020204D02*
X023413Y020204D01*
X023367Y020302D02*
X024046Y020302D01*
X023947Y020401D02*
X023268Y020401D01*
X023170Y020499D02*
X023849Y020499D01*
X023750Y020598D02*
X023071Y020598D01*
X022265Y020696D02*
X013450Y020696D01*
X013427Y020547D02*
X013362Y020568D01*
X013296Y020579D01*
X013012Y020579D01*
X013012Y020179D01*
X012952Y020179D01*
X012952Y020579D01*
X012668Y020579D01*
X012601Y020568D01*
X012537Y020547D01*
X012476Y020516D01*
X012422Y020477D01*
X012374Y020429D01*
X012334Y020374D01*
X012303Y020314D01*
X012282Y020249D01*
X012272Y020183D01*
X012272Y020179D01*
X012951Y020179D01*
X012951Y020119D01*
X012272Y020119D01*
X012272Y020115D01*
X012282Y020048D01*
X012303Y019984D01*
X012334Y019923D01*
X012374Y019869D01*
X012422Y019821D01*
X012476Y019781D01*
X012537Y019750D01*
X012601Y019729D01*
X012668Y019719D01*
X012952Y019719D01*
X012952Y020119D01*
X013012Y020119D01*
X013012Y020179D01*
X013692Y020179D01*
X013692Y020183D01*
X013681Y020249D01*
X013660Y020314D01*
X013629Y020374D01*
X013590Y020429D01*
X013542Y020477D01*
X013487Y020516D01*
X013427Y020547D01*
X013511Y020499D02*
X018892Y020499D01*
X018892Y020401D02*
X013610Y020401D01*
X013664Y020302D02*
X018892Y020302D01*
X018892Y020204D02*
X013688Y020204D01*
X013692Y020119D02*
X013012Y020119D01*
X013012Y019719D01*
X013296Y019719D01*
X013362Y019729D01*
X013427Y019750D01*
X013487Y019781D01*
X013542Y019821D01*
X013590Y019869D01*
X013629Y019923D01*
X013660Y019984D01*
X013681Y020048D01*
X013692Y020115D01*
X013692Y020119D01*
X013690Y020105D02*
X018892Y020105D01*
X018892Y020007D02*
X013668Y020007D01*
X013618Y019908D02*
X018892Y019908D01*
X018892Y019809D02*
X013526Y019809D01*
X013423Y019612D02*
X022914Y019612D01*
X022914Y019514D02*
X013590Y019514D01*
X013682Y019415D02*
X022914Y019415D01*
X022914Y019317D02*
X013723Y019317D01*
X013752Y019218D02*
X022914Y019218D01*
X022914Y019120D02*
X013752Y019120D01*
X013739Y019021D02*
X022914Y019021D01*
X022914Y018923D02*
X013698Y018923D01*
X013630Y018824D02*
X022914Y018824D01*
X022914Y018725D02*
X013520Y018725D01*
X013388Y018627D02*
X016085Y018627D01*
X015922Y018528D02*
X013575Y018528D01*
X013674Y018430D02*
X015824Y018430D01*
X016523Y018627D02*
X020085Y018627D01*
X019922Y018528D02*
X016685Y018528D01*
X016784Y018430D02*
X019824Y018430D01*
X019776Y018331D02*
X016831Y018331D01*
X016872Y018233D02*
X019735Y018233D01*
X019724Y018134D02*
X016884Y018134D01*
X016884Y018036D02*
X019724Y018036D01*
X019739Y017937D02*
X016868Y017937D01*
X015118Y017346D02*
X021984Y017346D01*
X021886Y017444D02*
X021843Y017444D01*
X021584Y017444D02*
X020012Y017444D01*
X020499Y017543D02*
X021384Y017543D01*
X021285Y017641D02*
X020676Y017641D01*
X020774Y017740D02*
X021230Y017740D01*
X021189Y017839D02*
X020827Y017839D01*
X020868Y017937D02*
X021179Y017937D01*
X021179Y018036D02*
X020884Y018036D01*
X020884Y018134D02*
X021203Y018134D01*
X021244Y018233D02*
X020872Y018233D01*
X020831Y018331D02*
X021319Y018331D01*
X021426Y018430D02*
X020784Y018430D01*
X020685Y018528D02*
X022914Y018528D01*
X022914Y018430D02*
X022835Y018430D01*
X022733Y018430D02*
X022695Y018430D01*
X022695Y018331D02*
X022733Y018331D01*
X022733Y018233D02*
X022695Y018233D01*
X022695Y018134D02*
X022733Y018134D01*
X022733Y018036D02*
X022695Y018036D01*
X022593Y018430D02*
X022001Y018430D01*
X022109Y018331D02*
X022404Y018331D01*
X022318Y018233D02*
X022184Y018233D01*
X022225Y018134D02*
X022268Y018134D01*
X022914Y018627D02*
X020523Y018627D01*
X019691Y019711D02*
X019633Y019711D01*
X019633Y019809D02*
X019691Y019809D01*
X019691Y019908D02*
X019633Y019908D01*
X019633Y020007D02*
X019691Y020007D01*
X019691Y020105D02*
X019633Y020105D01*
X019633Y020204D02*
X019691Y020204D01*
X019691Y020302D02*
X019633Y020302D01*
X019633Y020401D02*
X019691Y020401D01*
X019691Y020499D02*
X019633Y020499D01*
X019633Y020598D02*
X019691Y020598D01*
X018938Y020598D02*
X012104Y020598D01*
X012203Y020696D02*
X012514Y020696D01*
X012363Y020795D02*
X012301Y020795D01*
X012453Y020499D02*
X012006Y020499D01*
X011907Y020401D02*
X012353Y020401D01*
X012299Y020302D02*
X011809Y020302D01*
X011710Y020204D02*
X012275Y020204D01*
X012273Y020105D02*
X011611Y020105D01*
X011513Y020007D02*
X012296Y020007D01*
X012345Y019908D02*
X011414Y019908D01*
X011316Y019809D02*
X012437Y019809D01*
X012541Y019612D02*
X011119Y019612D01*
X011020Y019514D02*
X012374Y019514D01*
X012282Y019415D02*
X010922Y019415D01*
X010659Y019317D02*
X012241Y019317D01*
X012212Y019218D02*
X010686Y019218D01*
X010012Y019021D02*
X009952Y019021D01*
X009952Y018923D02*
X010012Y018923D01*
X010012Y018824D02*
X009952Y018824D01*
X009952Y018725D02*
X010012Y018725D01*
X011217Y019711D02*
X018930Y019711D01*
X018708Y020992D02*
X021970Y020992D01*
X022068Y020893D02*
X013686Y020893D01*
X013727Y020992D02*
X017860Y020992D01*
X017819Y021091D02*
X013752Y021091D01*
X013752Y021189D02*
X017819Y021189D01*
X017819Y021288D02*
X013735Y021288D01*
X013694Y021386D02*
X017819Y021386D01*
X017759Y021485D02*
X013619Y021485D01*
X013493Y021583D02*
X017759Y021583D01*
X017759Y021682D02*
X013415Y021682D01*
X013586Y021780D02*
X017759Y021780D01*
X017759Y021879D02*
X013680Y021879D01*
X013721Y021977D02*
X017759Y021977D01*
X017759Y022076D02*
X013752Y022076D01*
X013752Y022174D02*
X017759Y022174D01*
X017759Y022273D02*
X013741Y022273D01*
X013700Y022372D02*
X017759Y022372D01*
X017759Y022470D02*
X013633Y022470D01*
X013528Y022569D02*
X017759Y022569D01*
X017759Y022667D02*
X013380Y022667D01*
X013572Y022766D02*
X017759Y022766D01*
X017759Y022864D02*
X013670Y022864D01*
X013715Y022963D02*
X017759Y022963D01*
X017759Y023061D02*
X013752Y023061D01*
X013752Y023160D02*
X017759Y023160D01*
X017759Y023258D02*
X013747Y023258D01*
X013706Y023357D02*
X017759Y023357D01*
X017759Y023456D02*
X013648Y023456D01*
X013549Y023554D02*
X017759Y023554D01*
X017759Y023653D02*
X012159Y023653D01*
X012258Y023751D02*
X012406Y023751D01*
X012414Y023554D02*
X012061Y023554D01*
X011962Y023456D02*
X012316Y023456D01*
X012156Y023357D02*
X011863Y023357D01*
X011765Y023258D02*
X012058Y023258D01*
X011959Y023160D02*
X011666Y023160D01*
X011568Y023061D02*
X011861Y023061D01*
X011762Y022963D02*
X011469Y022963D01*
X011371Y022864D02*
X011664Y022864D01*
X011565Y022766D02*
X011272Y022766D01*
X011174Y022667D02*
X011467Y022667D01*
X011368Y022569D02*
X011075Y022569D01*
X010977Y022470D02*
X011270Y022470D01*
X011171Y022372D02*
X010700Y022372D01*
X010741Y022273D02*
X011073Y022273D01*
X010974Y022174D02*
X010752Y022174D01*
X010752Y022076D02*
X010875Y022076D01*
X010777Y021977D02*
X010721Y021977D01*
X011090Y021583D02*
X011929Y021583D01*
X011831Y021485D02*
X010991Y021485D01*
X011188Y021682D02*
X012028Y021682D01*
X012052Y021780D02*
X011287Y021780D01*
X011385Y021879D02*
X012052Y021879D01*
X012052Y021977D02*
X011484Y021977D01*
X011582Y022076D02*
X012052Y022076D01*
X012052Y022174D02*
X011681Y022174D01*
X011779Y022273D02*
X012083Y022273D01*
X012186Y022372D02*
X011878Y022372D01*
X011977Y022470D02*
X012330Y022470D01*
X012435Y022569D02*
X012075Y022569D01*
X012174Y022667D02*
X012584Y022667D01*
X012392Y022766D02*
X012272Y022766D01*
X011354Y023554D02*
X011061Y023554D01*
X011159Y023653D02*
X011452Y023653D01*
X011551Y023751D02*
X011258Y023751D01*
X011356Y023850D02*
X011649Y023850D01*
X011748Y023948D02*
X011455Y023948D01*
X011553Y024047D02*
X011846Y024047D01*
X011945Y024145D02*
X011652Y024145D01*
X011750Y024244D02*
X012043Y024244D01*
X012142Y024342D02*
X011849Y024342D01*
X011947Y024441D02*
X012301Y024441D01*
X012400Y024540D02*
X012046Y024540D01*
X012144Y024638D02*
X012603Y024638D01*
X012421Y024737D02*
X012243Y024737D01*
X013361Y024638D02*
X017759Y024638D01*
X017759Y024540D02*
X013564Y024540D01*
X013662Y024441D02*
X017759Y024441D01*
X017759Y024342D02*
X013712Y024342D01*
X013752Y024244D02*
X017759Y024244D01*
X017759Y024145D02*
X013752Y024145D01*
X013750Y024047D02*
X017759Y024047D01*
X017759Y023948D02*
X013709Y023948D01*
X013656Y023850D02*
X017759Y023850D01*
X017759Y023751D02*
X013557Y023751D01*
X013543Y024737D02*
X017759Y024737D01*
X017759Y024835D02*
X013641Y024835D01*
X013703Y024934D02*
X017759Y024934D01*
X017759Y025032D02*
X013744Y025032D01*
X013752Y025131D02*
X017759Y025131D01*
X017759Y025229D02*
X013752Y025229D01*
X013718Y025328D02*
X017759Y025328D01*
X017759Y025426D02*
X013677Y025426D01*
X014307Y025525D02*
X017759Y025525D01*
X017759Y025624D02*
X014405Y025624D01*
X014504Y025722D02*
X017759Y025722D01*
X017759Y025821D02*
X014602Y025821D01*
X014701Y025919D02*
X017759Y025919D01*
X017759Y026018D02*
X014799Y026018D01*
X014898Y026116D02*
X017759Y026116D01*
X017759Y026215D02*
X014996Y026215D01*
X015095Y026313D02*
X017819Y026313D01*
X017819Y026412D02*
X015194Y026412D01*
X012261Y027102D02*
X004026Y027102D01*
X004125Y027200D02*
X021210Y027200D01*
X021205Y027217D02*
X021215Y027179D01*
X021235Y027145D01*
X021263Y027117D01*
X021297Y027097D01*
X021335Y027087D01*
X021484Y027087D01*
X021484Y027523D01*
X021541Y027523D01*
X021541Y027087D01*
X021690Y027087D01*
X021728Y027097D01*
X021762Y027117D01*
X021785Y027140D01*
X021898Y027027D01*
X022387Y027027D01*
X022500Y027140D01*
X022523Y027117D01*
X022557Y027097D01*
X022595Y027087D01*
X022744Y027087D01*
X022744Y027523D01*
X022801Y027523D01*
X022801Y027087D01*
X022950Y027087D01*
X022988Y027097D01*
X023022Y027117D01*
X023050Y027145D01*
X023070Y027179D01*
X023080Y027217D01*
X023080Y027523D01*
X022801Y027523D01*
X022801Y027580D01*
X023080Y027580D01*
X023080Y027801D01*
X028101Y027801D01*
X028101Y017101D01*
X028101Y017543D02*
X026770Y017543D01*
X026962Y017641D02*
X028101Y017641D01*
X028101Y017740D02*
X027060Y017740D01*
X027120Y017839D02*
X028101Y017839D01*
X028101Y017937D02*
X027161Y017937D01*
X027181Y018036D02*
X028101Y018036D01*
X028101Y018134D02*
X027181Y018134D01*
X027174Y018233D02*
X028101Y018233D01*
X028101Y018331D02*
X027133Y018331D01*
X027092Y018430D02*
X028101Y018430D01*
X028101Y018528D02*
X026993Y018528D01*
X026846Y018627D02*
X028101Y018627D01*
X028101Y018725D02*
X026330Y018725D01*
X026231Y018824D02*
X028101Y018824D01*
X028101Y018923D02*
X026132Y018923D01*
X026034Y019021D02*
X028101Y019021D01*
X028101Y019120D02*
X025935Y019120D01*
X025837Y019218D02*
X028101Y019218D01*
X028101Y019317D02*
X025738Y019317D01*
X025640Y019415D02*
X028101Y019415D01*
X028101Y019514D02*
X025541Y019514D01*
X025443Y019612D02*
X028101Y019612D01*
X028101Y019711D02*
X025344Y019711D01*
X025246Y019809D02*
X028101Y019809D01*
X028101Y019908D02*
X025147Y019908D01*
X025048Y020007D02*
X028101Y020007D01*
X028101Y020105D02*
X024950Y020105D01*
X024851Y020204D02*
X028101Y020204D01*
X028101Y020302D02*
X024753Y020302D01*
X024654Y020401D02*
X028101Y020401D01*
X028101Y020499D02*
X024556Y020499D01*
X024457Y020598D02*
X028101Y020598D01*
X028101Y020696D02*
X024359Y020696D01*
X024260Y020795D02*
X028101Y020795D01*
X028101Y020893D02*
X024162Y020893D01*
X024230Y020992D02*
X028101Y020992D01*
X028101Y021091D02*
X024328Y021091D01*
X024427Y021189D02*
X028101Y021189D01*
X028101Y021288D02*
X024525Y021288D01*
X024624Y021386D02*
X028101Y021386D01*
X028101Y021485D02*
X024722Y021485D01*
X024821Y021583D02*
X026335Y021583D01*
X026272Y021609D02*
X026485Y021521D01*
X026716Y021521D01*
X026929Y021609D01*
X027092Y021772D01*
X027181Y021985D01*
X027181Y022216D01*
X027092Y022429D01*
X026929Y022592D01*
X026716Y022681D01*
X026485Y022681D01*
X026272Y022592D01*
X026109Y022429D01*
X026021Y022216D01*
X026021Y021985D01*
X026109Y021772D01*
X026272Y021609D01*
X026200Y021682D02*
X024919Y021682D01*
X025018Y021780D02*
X026106Y021780D01*
X026065Y021879D02*
X025093Y021879D01*
X025115Y021977D02*
X026024Y021977D01*
X026021Y022076D02*
X025115Y022076D01*
X025115Y022174D02*
X026021Y022174D01*
X026044Y022273D02*
X025115Y022273D01*
X025115Y022372D02*
X026085Y022372D01*
X026150Y022470D02*
X025115Y022470D01*
X025115Y022569D02*
X026248Y022569D01*
X026453Y022667D02*
X025115Y022667D01*
X025115Y022766D02*
X028101Y022766D01*
X028101Y022864D02*
X025115Y022864D01*
X025115Y022963D02*
X028101Y022963D01*
X028101Y023061D02*
X025115Y023061D01*
X025115Y023160D02*
X028101Y023160D01*
X028101Y023258D02*
X025115Y023258D01*
X025115Y023357D02*
X028101Y023357D01*
X028101Y023456D02*
X025115Y023456D01*
X025115Y023554D02*
X028101Y023554D01*
X028101Y023653D02*
X025115Y023653D01*
X025115Y023751D02*
X028101Y023751D01*
X028101Y023850D02*
X025115Y023850D01*
X025115Y023948D02*
X028101Y023948D01*
X028101Y024047D02*
X025115Y024047D01*
X025192Y024145D02*
X027098Y024145D01*
X026998Y024244D02*
X025291Y024244D01*
X025370Y024342D02*
X026919Y024342D01*
X026920Y024934D02*
X025370Y024934D01*
X025290Y025032D02*
X026999Y025032D01*
X027100Y025131D02*
X025190Y025131D01*
X024540Y025131D02*
X024006Y025131D01*
X024006Y025229D02*
X028101Y025229D01*
X028101Y025131D02*
X027750Y025131D01*
X027850Y025032D02*
X028101Y025032D01*
X028101Y024934D02*
X027930Y024934D01*
X027971Y024835D02*
X028101Y024835D01*
X028101Y024737D02*
X028005Y024737D01*
X028005Y024638D02*
X028101Y024638D01*
X028101Y024540D02*
X028005Y024540D01*
X027971Y024441D02*
X028101Y024441D01*
X028101Y024342D02*
X027930Y024342D01*
X027851Y024244D02*
X028101Y024244D01*
X028101Y024145D02*
X027752Y024145D01*
X029101Y024145D02*
X041399Y024145D01*
X041399Y024047D02*
X029101Y024047D01*
X029101Y023948D02*
X041404Y023948D01*
X041326Y023850D02*
X029101Y023850D01*
X029101Y023751D02*
X041228Y023751D01*
X041129Y023653D02*
X029101Y023653D01*
X029101Y023554D02*
X029541Y023554D01*
X029432Y023456D02*
X029101Y023456D01*
X029101Y023357D02*
X029334Y023357D01*
X029235Y023258D02*
X029101Y023258D01*
X029690Y022667D02*
X033521Y022667D01*
X033521Y022569D02*
X029681Y022569D01*
X029674Y022470D02*
X033527Y022470D01*
X033568Y022372D02*
X029634Y022372D01*
X029593Y022273D02*
X033609Y022273D01*
X033707Y022174D02*
X029495Y022174D01*
X029349Y022076D02*
X033731Y022076D01*
X033731Y021977D02*
X029101Y021977D01*
X029101Y021879D02*
X033731Y021879D01*
X033731Y021780D02*
X029101Y021780D01*
X029101Y021682D02*
X033731Y021682D01*
X033731Y021583D02*
X029101Y021583D01*
X029101Y021485D02*
X033731Y021485D01*
X033731Y021386D02*
X029101Y021386D01*
X029101Y021288D02*
X033731Y021288D01*
X033731Y021189D02*
X029101Y021189D01*
X029101Y021091D02*
X033731Y021091D01*
X033731Y020992D02*
X029101Y020992D01*
X029101Y020893D02*
X033731Y020893D01*
X033731Y020795D02*
X029101Y020795D01*
X029101Y020696D02*
X033731Y020696D01*
X033731Y020598D02*
X029416Y020598D01*
X029522Y020499D02*
X033679Y020499D01*
X033597Y020401D02*
X029604Y020401D01*
X029645Y020302D02*
X033556Y020302D01*
X033521Y020204D02*
X029681Y020204D01*
X029681Y020105D02*
X033521Y020105D01*
X033521Y020007D02*
X029681Y020007D01*
X029649Y019908D02*
X033553Y019908D01*
X033594Y019809D02*
X029608Y019809D01*
X029531Y019711D02*
X033670Y019711D01*
X033769Y019612D02*
X029433Y019612D01*
X029101Y019514D02*
X034164Y019514D01*
X034263Y019415D02*
X029101Y019415D01*
X029101Y019317D02*
X034362Y019317D01*
X034460Y019218D02*
X029101Y019218D01*
X029101Y019120D02*
X034559Y019120D01*
X034657Y019021D02*
X029101Y019021D01*
X029101Y018923D02*
X034756Y018923D01*
X034854Y018824D02*
X029101Y018824D01*
X029101Y018725D02*
X034953Y018725D01*
X035051Y018627D02*
X029101Y018627D01*
X029101Y018528D02*
X035150Y018528D01*
X035248Y018430D02*
X029101Y018430D01*
X029101Y018331D02*
X035347Y018331D01*
X035446Y018233D02*
X029101Y018233D01*
X029101Y018134D02*
X030491Y018134D01*
X030494Y018136D02*
X030298Y018054D01*
X030147Y017904D01*
X030066Y017707D01*
X030066Y017494D01*
X030147Y017298D01*
X030298Y017147D01*
X030494Y017066D01*
X030707Y017066D01*
X030904Y017147D01*
X031054Y017298D01*
X031101Y017410D01*
X031147Y017298D01*
X031298Y017147D01*
X031494Y017066D01*
X031707Y017066D01*
X031904Y017147D01*
X032054Y017298D01*
X032136Y017494D01*
X032136Y017707D01*
X032054Y017904D01*
X031904Y018054D01*
X031707Y018136D01*
X031494Y018136D01*
X031298Y018054D01*
X031147Y017904D01*
X031101Y017792D01*
X031054Y017904D01*
X030904Y018054D01*
X030707Y018136D01*
X030494Y018136D01*
X030711Y018134D02*
X031491Y018134D01*
X031711Y018134D02*
X035544Y018134D01*
X035643Y018036D02*
X031922Y018036D01*
X032021Y017937D02*
X035741Y017937D01*
X035840Y017839D02*
X032081Y017839D01*
X032122Y017740D02*
X035938Y017740D01*
X036037Y017641D02*
X032136Y017641D01*
X032136Y017543D02*
X036135Y017543D01*
X036234Y017444D02*
X032115Y017444D01*
X032074Y017346D02*
X036332Y017346D01*
X036431Y017247D02*
X032004Y017247D01*
X031905Y017149D02*
X036530Y017149D01*
X036628Y017050D02*
X029050Y017050D01*
X029101Y017149D02*
X030296Y017149D01*
X030198Y017247D02*
X029101Y017247D01*
X029101Y017346D02*
X030127Y017346D01*
X030086Y017444D02*
X029101Y017444D01*
X029101Y017543D02*
X030066Y017543D01*
X030066Y017641D02*
X029101Y017641D01*
X029101Y017740D02*
X030079Y017740D01*
X030120Y017839D02*
X029101Y017839D01*
X029101Y017937D02*
X030181Y017937D01*
X030279Y018036D02*
X029101Y018036D01*
X028952Y016952D02*
X036727Y016952D01*
X036790Y016853D02*
X036825Y016853D01*
X036411Y016853D02*
X028853Y016853D01*
X028755Y016755D02*
X036173Y016755D01*
X036040Y016656D02*
X028656Y016656D01*
X028558Y016558D02*
X035941Y016558D01*
X035860Y016459D02*
X028459Y016459D01*
X028360Y016360D02*
X035819Y016360D01*
X035778Y016262D02*
X028262Y016262D01*
X028163Y016163D02*
X035741Y016163D01*
X035741Y016065D02*
X028101Y016065D01*
X028101Y015966D02*
X035741Y015966D01*
X035741Y015868D02*
X028101Y015868D01*
X028101Y015769D02*
X035766Y015769D01*
X035807Y015671D02*
X032741Y015671D01*
X032950Y015572D02*
X035847Y015572D01*
X035912Y015474D02*
X033048Y015474D01*
X033115Y015375D02*
X036010Y015375D01*
X036109Y015276D02*
X033156Y015276D01*
X033181Y015178D02*
X036340Y015178D01*
X036861Y015178D02*
X038500Y015178D01*
X038402Y015276D02*
X037093Y015276D01*
X037191Y015375D02*
X038303Y015375D01*
X038205Y015474D02*
X037290Y015474D01*
X037354Y015572D02*
X038106Y015572D01*
X038008Y015671D02*
X037395Y015671D01*
X037436Y015769D02*
X037909Y015769D01*
X037811Y015868D02*
X037461Y015868D01*
X037461Y015966D02*
X037712Y015966D01*
X037614Y016065D02*
X037461Y016065D01*
X037461Y016163D02*
X037515Y016163D01*
X038069Y016656D02*
X040957Y016656D01*
X040957Y016558D02*
X038167Y016558D01*
X038266Y016459D02*
X040957Y016459D01*
X040957Y016360D02*
X038364Y016360D01*
X038463Y016262D02*
X040957Y016262D01*
X040957Y016163D02*
X038561Y016163D01*
X038660Y016065D02*
X040957Y016065D01*
X040957Y015966D02*
X038759Y015966D01*
X038857Y015868D02*
X040957Y015868D01*
X040957Y015769D02*
X038956Y015769D01*
X039054Y015671D02*
X040957Y015671D01*
X040957Y015572D02*
X039153Y015572D01*
X039251Y015474D02*
X040957Y015474D01*
X040957Y015375D02*
X039350Y015375D01*
X039448Y015276D02*
X040967Y015276D01*
X041008Y015178D02*
X039547Y015178D01*
X039645Y015079D02*
X041099Y015079D01*
X041197Y014981D02*
X039744Y014981D01*
X039842Y014882D02*
X041296Y014882D01*
X041395Y014784D02*
X039941Y014784D01*
X040040Y014685D02*
X041399Y014685D01*
X041399Y014587D02*
X040138Y014587D01*
X040237Y014488D02*
X041399Y014488D01*
X041428Y014390D02*
X040335Y014390D01*
X040434Y014291D02*
X041469Y014291D01*
X041516Y014192D02*
X040532Y014192D01*
X040631Y014094D02*
X041615Y014094D01*
X041728Y013995D02*
X040729Y013995D01*
X040828Y013897D02*
X045101Y013897D01*
X045101Y013995D02*
X042474Y013995D01*
X042587Y014094D02*
X045101Y014094D01*
X045101Y014192D02*
X042685Y014192D01*
X042732Y014291D02*
X045101Y014291D01*
X045101Y014390D02*
X042773Y014390D01*
X042803Y014488D02*
X045101Y014488D01*
X045101Y014587D02*
X042803Y014587D01*
X042803Y014685D02*
X045101Y014685D01*
X045101Y014784D02*
X042785Y014784D01*
X042744Y014882D02*
X045101Y014882D01*
X045101Y014981D02*
X042703Y014981D01*
X042615Y015079D02*
X045101Y015079D01*
X045101Y015178D02*
X042517Y015178D01*
X042304Y015276D02*
X045101Y015276D01*
X045101Y015375D02*
X041850Y015375D01*
X041751Y015474D02*
X045101Y015474D01*
X045101Y015572D02*
X041696Y015572D01*
X041696Y015671D02*
X045101Y015671D01*
X045101Y015769D02*
X041696Y015769D01*
X041696Y015868D02*
X045101Y015868D01*
X045101Y015966D02*
X041696Y015966D01*
X041696Y016065D02*
X045101Y016065D01*
X045101Y016163D02*
X041696Y016163D01*
X041696Y016262D02*
X045101Y016262D01*
X045101Y016360D02*
X041696Y016360D01*
X041696Y016459D02*
X045101Y016459D01*
X045101Y016558D02*
X041696Y016558D01*
X041696Y016656D02*
X045101Y016656D01*
X045101Y016755D02*
X041696Y016755D01*
X041696Y016853D02*
X045101Y016853D01*
X045101Y016952D02*
X041696Y016952D01*
X041696Y017050D02*
X045101Y017050D01*
X045101Y017149D02*
X041696Y017149D01*
X041696Y017247D02*
X045101Y017247D01*
X045101Y017346D02*
X041696Y017346D01*
X041696Y017444D02*
X045101Y017444D01*
X045101Y017543D02*
X041696Y017543D01*
X041696Y017641D02*
X045101Y017641D01*
X045101Y017740D02*
X041696Y017740D01*
X041696Y017839D02*
X045101Y017839D01*
X045101Y017937D02*
X041696Y017937D01*
X041696Y018036D02*
X045101Y018036D01*
X045101Y018134D02*
X041696Y018134D01*
X041696Y018233D02*
X045101Y018233D01*
X045101Y018331D02*
X041696Y018331D01*
X041696Y018430D02*
X041886Y018430D01*
X042316Y018430D02*
X045101Y018430D01*
X045101Y018528D02*
X042521Y018528D01*
X042620Y018627D02*
X045101Y018627D01*
X045101Y018725D02*
X042705Y018725D01*
X042746Y018824D02*
X045101Y018824D01*
X045101Y018923D02*
X042787Y018923D01*
X042803Y019021D02*
X045101Y019021D01*
X045101Y019120D02*
X042803Y019120D01*
X042803Y019218D02*
X045101Y019218D01*
X045101Y019317D02*
X042771Y019317D01*
X042730Y019415D02*
X045101Y019415D01*
X045101Y019514D02*
X042681Y019514D01*
X042582Y019612D02*
X045101Y019612D01*
X045101Y019711D02*
X042462Y019711D01*
X041739Y019711D02*
X041696Y019711D01*
X041696Y019809D02*
X045101Y019809D01*
X045101Y019908D02*
X041696Y019908D01*
X041696Y020007D02*
X045101Y020007D01*
X045101Y020105D02*
X041696Y020105D01*
X041696Y020204D02*
X045101Y020204D01*
X045101Y020302D02*
X041696Y020302D01*
X041696Y020401D02*
X045101Y020401D01*
X045101Y020499D02*
X041696Y020499D01*
X041696Y020598D02*
X045101Y020598D01*
X045101Y020696D02*
X041696Y020696D01*
X041696Y020795D02*
X045101Y020795D01*
X045101Y020893D02*
X041696Y020893D01*
X041696Y020992D02*
X041736Y020992D01*
X042466Y020992D02*
X045101Y020992D01*
X045101Y021091D02*
X042583Y021091D01*
X042682Y021189D02*
X045101Y021189D01*
X045101Y021288D02*
X042731Y021288D01*
X042772Y021386D02*
X045101Y021386D01*
X045101Y021485D02*
X042803Y021485D01*
X042803Y021583D02*
X045101Y021583D01*
X045101Y021682D02*
X042803Y021682D01*
X042786Y021780D02*
X045101Y021780D01*
X045101Y021879D02*
X042746Y021879D01*
X042705Y021977D02*
X045101Y021977D01*
X045101Y022076D02*
X042619Y022076D01*
X042520Y022174D02*
X045101Y022174D01*
X045101Y022273D02*
X042313Y022273D01*
X041889Y022273D02*
X041696Y022273D01*
X041696Y022372D02*
X045101Y022372D01*
X045101Y022470D02*
X041696Y022470D01*
X041696Y022569D02*
X045101Y022569D01*
X045101Y022667D02*
X041696Y022667D01*
X041696Y022766D02*
X045101Y022766D01*
X045101Y022864D02*
X041696Y022864D01*
X041696Y022963D02*
X045101Y022963D01*
X045101Y023061D02*
X041696Y023061D01*
X041696Y023160D02*
X041696Y023173D01*
X041880Y023357D02*
X045101Y023357D01*
X045101Y023456D02*
X042378Y023456D01*
X042547Y023554D02*
X045101Y023554D01*
X045101Y023653D02*
X042646Y023653D01*
X042716Y023751D02*
X045101Y023751D01*
X045101Y023850D02*
X042757Y023850D01*
X042798Y023948D02*
X045101Y023948D01*
X045101Y024047D02*
X042803Y024047D01*
X042803Y024145D02*
X045101Y024145D01*
X045101Y024244D02*
X042801Y024244D01*
X042761Y024342D02*
X045101Y024342D01*
X045101Y024441D02*
X042720Y024441D01*
X042655Y024540D02*
X045101Y024540D01*
X045101Y024638D02*
X042556Y024638D01*
X042400Y024737D02*
X045101Y024737D01*
X045101Y024835D02*
X034619Y024835D01*
X034592Y024772D02*
X034681Y024985D01*
X034681Y025216D01*
X034592Y025429D01*
X034429Y025592D01*
X034216Y025681D01*
X033985Y025681D01*
X033772Y025592D01*
X033609Y025429D01*
X033521Y025216D01*
X033521Y024985D01*
X033609Y024772D01*
X033772Y024609D01*
X033985Y024521D01*
X034216Y024521D01*
X034429Y024609D01*
X034592Y024772D01*
X034557Y024737D02*
X041801Y024737D01*
X041645Y024638D02*
X034458Y024638D01*
X034261Y024540D02*
X041547Y024540D01*
X041482Y024441D02*
X029101Y024441D01*
X029101Y024342D02*
X041441Y024342D01*
X041400Y024244D02*
X029101Y024244D01*
X029261Y024540D02*
X033940Y024540D01*
X033743Y024638D02*
X029458Y024638D01*
X029557Y024737D02*
X033645Y024737D01*
X033583Y024835D02*
X029619Y024835D01*
X029659Y024934D02*
X033542Y024934D01*
X033521Y025032D02*
X029681Y025032D01*
X029681Y025131D02*
X033521Y025131D01*
X033526Y025229D02*
X029675Y025229D01*
X029634Y025328D02*
X033567Y025328D01*
X033608Y025426D02*
X029594Y025426D01*
X029497Y025525D02*
X033705Y025525D01*
X033847Y025624D02*
X029354Y025624D01*
X029101Y025722D02*
X045101Y025722D01*
X045101Y025624D02*
X034354Y025624D01*
X034497Y025525D02*
X045101Y025525D01*
X045101Y025426D02*
X034594Y025426D01*
X034634Y025328D02*
X045101Y025328D01*
X045101Y025229D02*
X034675Y025229D01*
X034681Y025131D02*
X045101Y025131D01*
X045101Y025032D02*
X034681Y025032D01*
X034659Y024934D02*
X045101Y024934D01*
X045101Y025821D02*
X029101Y025821D01*
X029101Y025919D02*
X045101Y025919D01*
X045101Y026018D02*
X029101Y026018D01*
X029101Y026116D02*
X035101Y026116D01*
X035101Y026215D02*
X029101Y026215D01*
X029101Y026313D02*
X035101Y026313D01*
X035101Y026412D02*
X029101Y026412D01*
X029101Y026510D02*
X035101Y026510D01*
X035101Y026609D02*
X029101Y026609D01*
X029101Y026707D02*
X035101Y026707D01*
X035101Y026806D02*
X029101Y026806D01*
X029101Y026905D02*
X035101Y026905D01*
X035101Y027003D02*
X029101Y027003D01*
X029411Y027102D02*
X033790Y027102D01*
X033772Y027109D02*
X033985Y027021D01*
X034216Y027021D01*
X034429Y027109D01*
X034592Y027272D01*
X034681Y027485D01*
X034681Y027716D01*
X034592Y027929D01*
X034429Y028092D01*
X034216Y028181D01*
X033985Y028181D01*
X033772Y028092D01*
X033609Y027929D01*
X033521Y027716D01*
X033521Y027485D01*
X033609Y027272D01*
X033772Y027109D01*
X033681Y027200D02*
X029520Y027200D01*
X029603Y027299D02*
X033598Y027299D01*
X033557Y027397D02*
X029644Y027397D01*
X029681Y027496D02*
X033521Y027496D01*
X033521Y027594D02*
X029681Y027594D01*
X029681Y027693D02*
X033521Y027693D01*
X033552Y027791D02*
X029650Y027791D01*
X029609Y027890D02*
X033593Y027890D01*
X033668Y027989D02*
X029533Y027989D01*
X029435Y028087D02*
X033767Y028087D01*
X034435Y028087D02*
X035101Y028087D01*
X035101Y027989D02*
X034533Y027989D01*
X034609Y027890D02*
X035101Y027890D01*
X035101Y027791D02*
X034650Y027791D01*
X034681Y027693D02*
X035101Y027693D01*
X035101Y027594D02*
X034681Y027594D01*
X034681Y027496D02*
X035101Y027496D01*
X035101Y027397D02*
X034644Y027397D01*
X034603Y027299D02*
X035101Y027299D01*
X035101Y027200D02*
X034520Y027200D01*
X034411Y027102D02*
X035101Y027102D01*
X035101Y028186D02*
X029101Y028186D01*
X029101Y028284D02*
X035101Y028284D01*
X035101Y028383D02*
X029101Y028383D01*
X029101Y028481D02*
X035101Y028481D01*
X035101Y028580D02*
X029101Y028580D01*
X029101Y028678D02*
X035101Y028678D01*
X035101Y028777D02*
X029101Y028777D01*
X029101Y028875D02*
X035101Y028875D01*
X035101Y028974D02*
X029101Y028974D01*
X029101Y029073D02*
X035101Y029073D01*
X040116Y026116D02*
X045101Y026116D01*
X045101Y026215D02*
X040215Y026215D01*
X040313Y026313D02*
X045101Y026313D01*
X045101Y026412D02*
X040412Y026412D01*
X040510Y026510D02*
X045101Y026510D01*
X045101Y026609D02*
X040609Y026609D01*
X040707Y026707D02*
X045101Y026707D01*
X045101Y026806D02*
X040806Y026806D01*
X040905Y026905D02*
X045101Y026905D01*
X045101Y027003D02*
X041003Y027003D01*
X041102Y027102D02*
X045101Y027102D01*
X045101Y027200D02*
X041200Y027200D01*
X041299Y027299D02*
X045101Y027299D01*
X045101Y027397D02*
X041397Y027397D01*
X041496Y027496D02*
X045101Y027496D01*
X045101Y027594D02*
X041594Y027594D01*
X041693Y027693D02*
X045101Y027693D01*
X045101Y027791D02*
X041791Y027791D01*
X041890Y027890D02*
X045101Y027890D01*
X045101Y027989D02*
X041989Y027989D01*
X042087Y028087D02*
X045101Y028087D01*
X045101Y028186D02*
X042101Y028186D01*
X042101Y028284D02*
X045101Y028284D01*
X045101Y028383D02*
X044744Y028383D01*
X044574Y028321D02*
X044574Y028321D01*
X044451Y028321D02*
X044451Y028321D01*
X044228Y028321D02*
X044228Y028321D01*
X044058Y028383D02*
X042101Y028383D01*
X042101Y028481D02*
X043853Y028481D01*
X043735Y028580D02*
X042101Y028580D01*
X042101Y028678D02*
X043629Y028678D01*
X043639Y028661D02*
X043639Y028661D01*
X043572Y028777D02*
X042101Y028777D01*
X042101Y028875D02*
X043515Y028875D01*
X043466Y028960D02*
X043466Y028960D01*
X043463Y028974D02*
X042101Y028974D01*
X042101Y029073D02*
X043446Y029073D01*
X044949Y028481D02*
X045101Y028481D01*
X045101Y028580D02*
X045066Y028580D01*
X040957Y022766D02*
X034660Y022766D01*
X034681Y022667D02*
X040957Y022667D01*
X040957Y022569D02*
X034681Y022569D01*
X034674Y022470D02*
X040957Y022470D01*
X040957Y022372D02*
X034634Y022372D01*
X034593Y022273D02*
X040957Y022273D01*
X040957Y022174D02*
X034495Y022174D01*
X034471Y022076D02*
X040957Y022076D01*
X040957Y021977D02*
X034471Y021977D01*
X034471Y021879D02*
X040957Y021879D01*
X040957Y021780D02*
X034471Y021780D01*
X034471Y021682D02*
X040957Y021682D01*
X040957Y021583D02*
X034471Y021583D01*
X034471Y021485D02*
X040957Y021485D01*
X040957Y021386D02*
X034471Y021386D01*
X034471Y021288D02*
X040957Y021288D01*
X040957Y021189D02*
X034471Y021189D01*
X034471Y021091D02*
X040957Y021091D01*
X040957Y020992D02*
X034471Y020992D01*
X034471Y020893D02*
X040957Y020893D01*
X040957Y020795D02*
X034471Y020795D01*
X034471Y020696D02*
X040957Y020696D01*
X040957Y020598D02*
X034471Y020598D01*
X034522Y020499D02*
X040957Y020499D01*
X040957Y020401D02*
X034604Y020401D01*
X034645Y020302D02*
X040957Y020302D01*
X040957Y020204D02*
X034681Y020204D01*
X034681Y020105D02*
X040957Y020105D01*
X040957Y020007D02*
X034718Y020007D01*
X034817Y019908D02*
X040957Y019908D01*
X040957Y019809D02*
X034915Y019809D01*
X035014Y019711D02*
X040957Y019711D01*
X040957Y019612D02*
X035112Y019612D01*
X035211Y019514D02*
X040957Y019514D01*
X040957Y019415D02*
X035309Y019415D01*
X035408Y019317D02*
X040957Y019317D01*
X040957Y019218D02*
X035507Y019218D01*
X035605Y019120D02*
X040957Y019120D01*
X040957Y019021D02*
X035704Y019021D01*
X035802Y018923D02*
X040957Y018923D01*
X040957Y018824D02*
X035901Y018824D01*
X035999Y018725D02*
X040957Y018725D01*
X040957Y018627D02*
X036098Y018627D01*
X036196Y018528D02*
X040957Y018528D01*
X040957Y018430D02*
X036295Y018430D01*
X036393Y018331D02*
X040957Y018331D01*
X040957Y018233D02*
X036492Y018233D01*
X036591Y018134D02*
X040957Y018134D01*
X040957Y018036D02*
X036689Y018036D01*
X036788Y017937D02*
X040957Y017937D01*
X040957Y017839D02*
X036886Y017839D01*
X036985Y017740D02*
X040957Y017740D01*
X040957Y017641D02*
X037083Y017641D01*
X037182Y017543D02*
X040957Y017543D01*
X040957Y017444D02*
X037280Y017444D01*
X037379Y017346D02*
X040957Y017346D01*
X040957Y017247D02*
X037477Y017247D01*
X037576Y017149D02*
X040957Y017149D01*
X040957Y017050D02*
X037675Y017050D01*
X037773Y016952D02*
X040957Y016952D01*
X040957Y016853D02*
X037872Y016853D01*
X037970Y016755D02*
X040957Y016755D01*
X038697Y014981D02*
X033179Y014981D01*
X033181Y015079D02*
X038599Y015079D01*
X038796Y014882D02*
X033138Y014882D01*
X033097Y014784D02*
X038895Y014784D01*
X038993Y014685D02*
X033005Y014685D01*
X032875Y014587D02*
X039092Y014587D01*
X039190Y014488D02*
X032851Y014488D01*
X032851Y014390D02*
X039289Y014390D01*
X039387Y014291D02*
X032834Y014291D01*
X032766Y014192D02*
X039486Y014192D01*
X039584Y014094D02*
X032667Y014094D01*
X032568Y013995D02*
X039683Y013995D01*
X039781Y013897D02*
X032470Y013897D01*
X032371Y013798D02*
X039880Y013798D01*
X039979Y013700D02*
X032273Y013700D01*
X032293Y013601D02*
X032174Y013601D01*
X032182Y013503D02*
X032076Y013503D01*
X032099Y013404D02*
X031977Y013404D01*
X031664Y013798D02*
X028101Y013798D01*
X028101Y013700D02*
X031566Y013700D01*
X031467Y013601D02*
X028908Y013601D01*
X029019Y013503D02*
X031369Y013503D01*
X031270Y013404D02*
X029103Y013404D01*
X029144Y013306D02*
X031172Y013306D01*
X031073Y013207D02*
X029181Y013207D01*
X029181Y013109D02*
X030975Y013109D01*
X030876Y013010D02*
X029181Y013010D01*
X029150Y012911D02*
X030777Y012911D01*
X030679Y012813D02*
X029109Y012813D01*
X029035Y012714D02*
X030580Y012714D01*
X030482Y012616D02*
X028936Y012616D01*
X028266Y012616D02*
X028101Y012616D01*
X028101Y012714D02*
X028167Y012714D01*
X028101Y012517D02*
X030383Y012517D01*
X030285Y012419D02*
X028101Y012419D01*
X028101Y012320D02*
X030186Y012320D01*
X030088Y012222D02*
X028101Y012222D01*
X028101Y012123D02*
X029989Y012123D01*
X029891Y012025D02*
X028101Y012025D01*
X028101Y011926D02*
X029792Y011926D01*
X029694Y011827D02*
X028101Y011827D01*
X028101Y011729D02*
X029595Y011729D01*
X029496Y011630D02*
X028838Y011630D01*
X028990Y011532D02*
X029398Y011532D01*
X029299Y011433D02*
X029088Y011433D01*
X029132Y011335D02*
X029201Y011335D01*
X028364Y011630D02*
X028101Y011630D01*
X028101Y011532D02*
X028212Y011532D01*
X028113Y011433D02*
X028101Y011433D01*
X029978Y009955D02*
X035231Y009955D01*
X035231Y009857D02*
X029880Y009857D01*
X030077Y010054D02*
X035231Y010054D01*
X035246Y010152D02*
X030175Y010152D01*
X030274Y010251D02*
X035287Y010251D01*
X035386Y010349D02*
X030373Y010349D01*
X030471Y010448D02*
X041917Y010448D01*
X041875Y010349D02*
X042016Y010349D01*
X041819Y010546D02*
X032778Y010546D01*
X032965Y010645D02*
X041720Y010645D01*
X041622Y010743D02*
X033064Y010743D01*
X033121Y010842D02*
X041523Y010842D01*
X041424Y010941D02*
X033162Y010941D01*
X033181Y011039D02*
X041326Y011039D01*
X041227Y011138D02*
X033181Y011138D01*
X033172Y011236D02*
X041129Y011236D01*
X041030Y011335D02*
X033132Y011335D01*
X033088Y011433D02*
X040932Y011433D01*
X040833Y011532D02*
X032990Y011532D01*
X032838Y011630D02*
X040735Y011630D01*
X040636Y011729D02*
X030885Y011729D01*
X030983Y011827D02*
X040594Y011827D01*
X040577Y011926D02*
X031082Y011926D01*
X031180Y012025D02*
X040577Y012025D01*
X040577Y012123D02*
X031279Y012123D01*
X031378Y012222D02*
X040577Y012222D01*
X040577Y012320D02*
X031476Y012320D01*
X031575Y012419D02*
X040577Y012419D01*
X040577Y012517D02*
X031673Y012517D01*
X031772Y012616D02*
X032266Y012616D01*
X032167Y012714D02*
X031870Y012714D01*
X031969Y012813D02*
X032092Y012813D01*
X032936Y012616D02*
X040577Y012616D01*
X040577Y012714D02*
X033035Y012714D01*
X033109Y012813D02*
X040577Y012813D01*
X040577Y012911D02*
X033150Y012911D01*
X033181Y013010D02*
X040577Y013010D01*
X040570Y013109D02*
X033181Y013109D01*
X033181Y013207D02*
X040471Y013207D01*
X040373Y013306D02*
X033144Y013306D01*
X033103Y013404D02*
X040274Y013404D01*
X040176Y013503D02*
X033019Y013503D01*
X032908Y013601D02*
X040077Y013601D01*
X040926Y013798D02*
X045101Y013798D01*
X045101Y013700D02*
X041025Y013700D01*
X041124Y013601D02*
X045101Y013601D01*
X045101Y013503D02*
X041222Y013503D01*
X041286Y013404D02*
X045101Y013404D01*
X045101Y013306D02*
X041317Y013306D01*
X041317Y013207D02*
X045101Y013207D01*
X045101Y013109D02*
X041317Y013109D01*
X041317Y013010D02*
X045101Y013010D01*
X045101Y012911D02*
X041317Y012911D01*
X041317Y012813D02*
X045101Y012813D01*
X045101Y012714D02*
X042454Y012714D01*
X042579Y012616D02*
X045101Y012616D01*
X045101Y012517D02*
X042677Y012517D01*
X042729Y012419D02*
X045101Y012419D01*
X045101Y012320D02*
X042770Y012320D01*
X042803Y012222D02*
X045101Y012222D01*
X045101Y012123D02*
X042803Y012123D01*
X042803Y012025D02*
X045101Y012025D01*
X045101Y011926D02*
X042788Y011926D01*
X042747Y011827D02*
X045101Y011827D01*
X045101Y011729D02*
X042707Y011729D01*
X042623Y011630D02*
X045101Y011630D01*
X045101Y011532D02*
X042525Y011532D01*
X042324Y011433D02*
X045101Y011433D01*
X045101Y011335D02*
X042077Y011335D01*
X042175Y011236D02*
X045101Y011236D01*
X045101Y011138D02*
X042274Y011138D01*
X042372Y011039D02*
X045101Y011039D01*
X045101Y010941D02*
X042471Y010941D01*
X042569Y010842D02*
X045101Y010842D01*
X045101Y010743D02*
X042668Y010743D01*
X042767Y010645D02*
X045101Y010645D01*
X045101Y010546D02*
X042865Y010546D01*
X042964Y010448D02*
X045101Y010448D01*
X045101Y010349D02*
X043062Y010349D01*
X043161Y010251D02*
X045101Y010251D01*
X045101Y010152D02*
X043209Y010152D01*
X043230Y010054D02*
X045101Y010054D01*
X045101Y009955D02*
X043230Y009955D01*
X043230Y009857D02*
X045101Y009857D01*
X045101Y009758D02*
X043230Y009758D01*
X043230Y009659D02*
X045101Y009659D01*
X045101Y009561D02*
X043230Y009561D01*
X043230Y009462D02*
X045101Y009462D01*
X045101Y009364D02*
X043230Y009364D01*
X043230Y009265D02*
X045101Y009265D01*
X045101Y009167D02*
X043230Y009167D01*
X043230Y009068D02*
X045101Y009068D01*
X045101Y008970D02*
X043230Y008970D01*
X043230Y008871D02*
X045101Y008871D01*
X045101Y008773D02*
X043230Y008773D01*
X043230Y008674D02*
X045101Y008674D01*
X045101Y008576D02*
X043230Y008576D01*
X043230Y008477D02*
X045101Y008477D01*
X045101Y008378D02*
X043230Y008378D01*
X043211Y008280D02*
X045101Y008280D01*
X045101Y008181D02*
X043165Y008181D01*
X043070Y008087D02*
X043070Y008087D01*
X043066Y008083D02*
X045101Y008083D01*
X045101Y007984D02*
X042967Y007984D01*
X042869Y007886D02*
X045101Y007886D01*
X045101Y007787D02*
X042770Y007787D01*
X042672Y007689D02*
X045101Y007689D01*
X045101Y007590D02*
X042932Y007590D01*
X043030Y007492D02*
X045101Y007492D01*
X045101Y007393D02*
X043107Y007393D01*
X043148Y007294D02*
X045101Y007294D01*
X045101Y007196D02*
X043181Y007196D01*
X043181Y007097D02*
X045101Y007097D01*
X045101Y006999D02*
X043181Y006999D01*
X043145Y006900D02*
X045101Y006900D01*
X045101Y006802D02*
X043105Y006802D01*
X043023Y006703D02*
X045101Y006703D01*
X045101Y006605D02*
X042919Y006605D01*
X042283Y006605D02*
X041588Y006605D01*
X041686Y006703D02*
X042178Y006703D01*
X042097Y006802D02*
X041785Y006802D01*
X041883Y006900D02*
X042056Y006900D01*
X042021Y006999D02*
X041982Y006999D01*
X041330Y007393D02*
X039964Y007393D01*
X039969Y007386D02*
X039929Y007441D01*
X039881Y007489D01*
X039826Y007529D01*
X039766Y007559D01*
X039701Y007580D01*
X039635Y007591D01*
X039631Y007591D01*
X039631Y006631D01*
X040031Y006631D01*
X040031Y007195D01*
X040020Y007261D01*
X039999Y007326D01*
X039969Y007386D01*
X040009Y007294D02*
X041231Y007294D01*
X041133Y007196D02*
X040031Y007196D01*
X040031Y007097D02*
X041034Y007097D01*
X040936Y006999D02*
X040031Y006999D01*
X040031Y006900D02*
X040837Y006900D01*
X040739Y006802D02*
X040031Y006802D01*
X040031Y006703D02*
X040640Y006703D01*
X040541Y006605D02*
X039631Y006605D01*
X039631Y006631D02*
X039631Y006571D01*
X040031Y006571D01*
X040031Y006567D01*
X040020Y006500D01*
X039999Y006436D01*
X039969Y006375D01*
X039929Y006321D01*
X039881Y006273D01*
X039826Y006233D01*
X039766Y006202D01*
X039701Y006181D01*
X039635Y006171D01*
X039631Y006171D01*
X039631Y006571D01*
X039571Y006571D01*
X039571Y006171D01*
X039567Y006171D01*
X039500Y006181D01*
X039436Y006202D01*
X039375Y006233D01*
X039321Y006273D01*
X039273Y006321D01*
X039233Y006375D01*
X039202Y006436D01*
X039181Y006500D01*
X039171Y006567D01*
X039171Y006571D01*
X039571Y006571D01*
X039571Y006631D01*
X039571Y007591D01*
X039567Y007591D01*
X039500Y007580D01*
X039436Y007559D01*
X039375Y007529D01*
X039321Y007489D01*
X039273Y007441D01*
X039233Y007386D01*
X039202Y007326D01*
X039181Y007261D01*
X039171Y007195D01*
X039171Y006631D01*
X039571Y006631D01*
X039631Y006631D01*
X039571Y006605D02*
X039091Y006605D01*
X039091Y006703D02*
X039171Y006703D01*
X039171Y006802D02*
X039091Y006802D01*
X039091Y006900D02*
X039171Y006900D01*
X039171Y006999D02*
X039091Y006999D01*
X039091Y007097D02*
X039171Y007097D01*
X039171Y007196D02*
X039091Y007196D01*
X039076Y007294D02*
X039192Y007294D01*
X039238Y007393D02*
X039035Y007393D01*
X038963Y007492D02*
X039324Y007492D01*
X039571Y007492D02*
X039631Y007492D01*
X039631Y007590D02*
X039571Y007590D01*
X039563Y007590D02*
X038845Y007590D01*
X038357Y007590D02*
X037845Y007590D01*
X037878Y007576D02*
X037698Y007651D01*
X037503Y007651D01*
X037323Y007576D01*
X037185Y007438D01*
X037111Y007258D01*
X037111Y006503D01*
X037185Y006323D01*
X037323Y006185D01*
X037503Y006111D01*
X037698Y006111D01*
X037878Y006185D01*
X038016Y006323D01*
X038091Y006503D01*
X038091Y007258D01*
X038016Y007438D01*
X037878Y007576D01*
X037963Y007492D02*
X038239Y007492D01*
X038167Y007393D02*
X038035Y007393D01*
X038076Y007294D02*
X038126Y007294D01*
X038111Y007196D02*
X038091Y007196D01*
X038091Y007097D02*
X038111Y007097D01*
X038111Y006999D02*
X038091Y006999D01*
X038091Y006900D02*
X038111Y006900D01*
X038111Y006802D02*
X038091Y006802D01*
X038091Y006703D02*
X038111Y006703D01*
X038111Y006605D02*
X038091Y006605D01*
X038091Y006506D02*
X038111Y006506D01*
X038150Y006408D02*
X038051Y006408D01*
X038002Y006309D02*
X038200Y006309D01*
X038257Y006210D02*
X037903Y006210D01*
X037701Y006112D02*
X038159Y006112D01*
X038060Y006013D02*
X034917Y006013D01*
X035015Y006112D02*
X037501Y006112D01*
X037298Y006210D02*
X035114Y006210D01*
X035213Y006309D02*
X037200Y006309D01*
X037150Y006408D02*
X035311Y006408D01*
X035410Y006506D02*
X037111Y006506D01*
X037111Y006605D02*
X035508Y006605D01*
X035607Y006703D02*
X037111Y006703D01*
X037111Y006802D02*
X035705Y006802D01*
X035804Y006900D02*
X037111Y006900D01*
X037111Y006999D02*
X035902Y006999D01*
X036001Y007097D02*
X037111Y007097D01*
X037111Y007196D02*
X036099Y007196D01*
X036198Y007294D02*
X037126Y007294D01*
X037167Y007393D02*
X036296Y007393D01*
X036395Y007492D02*
X037239Y007492D01*
X037357Y007590D02*
X036494Y007590D01*
X036592Y007689D02*
X041625Y007689D01*
X041724Y007787D02*
X036691Y007787D01*
X036789Y007886D02*
X041822Y007886D01*
X041921Y007984D02*
X036888Y007984D01*
X036986Y008083D02*
X042020Y008083D01*
X042118Y008181D02*
X037085Y008181D01*
X037183Y008280D02*
X037325Y008280D01*
X037877Y008280D02*
X042217Y008280D01*
X042315Y008378D02*
X037996Y008378D01*
X038079Y008477D02*
X042414Y008477D01*
X042490Y008576D02*
X038119Y008576D01*
X038151Y008674D02*
X042490Y008674D01*
X042490Y008773D02*
X038151Y008773D01*
X038151Y008871D02*
X042490Y008871D01*
X042490Y008970D02*
X042412Y008970D01*
X041790Y008970D02*
X038151Y008970D01*
X038151Y009068D02*
X041640Y009068D01*
X041542Y009167D02*
X038151Y009167D01*
X038151Y009265D02*
X041480Y009265D01*
X041439Y009364D02*
X038151Y009364D01*
X038151Y009462D02*
X041399Y009462D01*
X041399Y009561D02*
X038146Y009561D01*
X038105Y009659D02*
X041399Y009659D01*
X041527Y007590D02*
X039639Y007590D01*
X039631Y007393D02*
X039571Y007393D01*
X039571Y007294D02*
X039631Y007294D01*
X039631Y007196D02*
X039571Y007196D01*
X039571Y007097D02*
X039631Y007097D01*
X039631Y006999D02*
X039571Y006999D01*
X039571Y006900D02*
X039631Y006900D01*
X039631Y006802D02*
X039571Y006802D01*
X039571Y006703D02*
X039631Y006703D01*
X039631Y006506D02*
X039571Y006506D01*
X039571Y006408D02*
X039631Y006408D01*
X039631Y006309D02*
X039571Y006309D01*
X039571Y006210D02*
X039631Y006210D01*
X039782Y006210D02*
X040147Y006210D01*
X040049Y006112D02*
X038835Y006112D01*
X038767Y006013D02*
X039950Y006013D01*
X039852Y005915D02*
X038668Y005915D01*
X038570Y005816D02*
X039753Y005816D01*
X039655Y005718D02*
X038471Y005718D01*
X038373Y005619D02*
X039556Y005619D01*
X039457Y005521D02*
X038274Y005521D01*
X038176Y005422D02*
X039359Y005422D01*
X039260Y005324D02*
X038077Y005324D01*
X037979Y005225D02*
X039162Y005225D01*
X039063Y005126D02*
X037880Y005126D01*
X037781Y005028D02*
X038965Y005028D01*
X038866Y004929D02*
X037683Y004929D01*
X037469Y005422D02*
X026595Y005422D01*
X026501Y005521D02*
X037567Y005521D01*
X037666Y005619D02*
X026439Y005619D01*
X026538Y005718D02*
X037764Y005718D01*
X037863Y005816D02*
X026611Y005816D01*
X026651Y005915D02*
X037961Y005915D01*
X038903Y006210D02*
X039420Y006210D01*
X039284Y006309D02*
X039002Y006309D01*
X039051Y006408D02*
X039217Y006408D01*
X039180Y006506D02*
X039091Y006506D01*
X039917Y006309D02*
X040246Y006309D01*
X040344Y006408D02*
X039985Y006408D01*
X040021Y006506D02*
X040443Y006506D01*
X040997Y006013D02*
X045101Y006013D01*
X045101Y005915D02*
X040898Y005915D01*
X040799Y005816D02*
X045101Y005816D01*
X045101Y005718D02*
X040701Y005718D01*
X040602Y005619D02*
X045101Y005619D01*
X045101Y005521D02*
X040504Y005521D01*
X040405Y005422D02*
X045101Y005422D01*
X045101Y005324D02*
X040307Y005324D01*
X040208Y005225D02*
X045101Y005225D01*
X045101Y005126D02*
X040110Y005126D01*
X040011Y005028D02*
X045101Y005028D01*
X045101Y004929D02*
X039913Y004929D01*
X039814Y004831D02*
X045101Y004831D01*
X045101Y004732D02*
X039715Y004732D01*
X039617Y004634D02*
X045101Y004634D01*
X045101Y004535D02*
X039518Y004535D01*
X039420Y004437D02*
X045101Y004437D01*
X045101Y004338D02*
X039321Y004338D01*
X039223Y004240D02*
X045101Y004240D01*
X045101Y004141D02*
X039124Y004141D01*
X039026Y004043D02*
X039387Y004043D01*
X039323Y004016D02*
X039503Y004091D01*
X039698Y004091D01*
X039878Y004016D01*
X040016Y003878D01*
X040091Y003698D01*
X040091Y002943D01*
X040016Y002763D01*
X039878Y002625D01*
X039698Y002551D01*
X039503Y002551D01*
X039323Y002625D01*
X039185Y002763D01*
X039111Y002943D01*
X039111Y003698D01*
X039185Y003878D01*
X039323Y004016D01*
X039251Y003944D02*
X038971Y003944D01*
X039030Y003845D02*
X039172Y003845D01*
X039131Y003747D02*
X039071Y003747D01*
X039091Y003648D02*
X039111Y003648D01*
X039111Y003550D02*
X039091Y003550D01*
X039091Y003451D02*
X039111Y003451D01*
X039111Y003353D02*
X039091Y003353D01*
X039091Y003254D02*
X039111Y003254D01*
X039111Y003156D02*
X039091Y003156D01*
X039091Y003057D02*
X039111Y003057D01*
X039111Y002959D02*
X039091Y002959D01*
X039056Y002860D02*
X039145Y002860D01*
X039187Y002761D02*
X039014Y002761D01*
X038916Y002663D02*
X039286Y002663D01*
X039471Y002564D02*
X038731Y002564D01*
X038471Y002564D02*
X037731Y002564D01*
X037698Y002551D02*
X037878Y002625D01*
X038016Y002763D01*
X038091Y002943D01*
X038091Y003698D01*
X038016Y003878D01*
X037878Y004016D01*
X037698Y004091D01*
X037503Y004091D01*
X037323Y004016D01*
X037185Y003878D01*
X037111Y003698D01*
X037111Y002943D01*
X037185Y002763D01*
X037323Y002625D01*
X037503Y002551D01*
X037698Y002551D01*
X037471Y002564D02*
X031731Y002564D01*
X031698Y002551D02*
X031878Y002625D01*
X032016Y002763D01*
X032091Y002943D01*
X032091Y003698D01*
X032016Y003878D01*
X031878Y004016D01*
X031698Y004091D01*
X031503Y004091D01*
X031323Y004016D01*
X031185Y003878D01*
X031111Y003698D01*
X031111Y002943D01*
X031185Y002763D01*
X031323Y002625D01*
X031503Y002551D01*
X031698Y002551D01*
X031471Y002564D02*
X029731Y002564D01*
X029698Y002551D02*
X029878Y002625D01*
X030016Y002763D01*
X030091Y002943D01*
X030091Y003698D01*
X030016Y003878D01*
X029878Y004016D01*
X029698Y004091D01*
X029503Y004091D01*
X029323Y004016D01*
X029185Y003878D01*
X029111Y003698D01*
X029111Y002943D01*
X029185Y002763D01*
X029323Y002625D01*
X029503Y002551D01*
X029698Y002551D01*
X029471Y002564D02*
X026457Y002564D01*
X026483Y002663D02*
X029286Y002663D01*
X029187Y002761D02*
X026582Y002761D01*
X026629Y002860D02*
X029145Y002860D01*
X029111Y002959D02*
X026670Y002959D01*
X026681Y003057D02*
X029111Y003057D01*
X029111Y003156D02*
X026681Y003156D01*
X026665Y003254D02*
X029111Y003254D01*
X029111Y003353D02*
X026624Y003353D01*
X026570Y003451D02*
X029111Y003451D01*
X029111Y003550D02*
X026472Y003550D01*
X026358Y003648D02*
X029111Y003648D01*
X029131Y003747D02*
X026482Y003747D01*
X026554Y003845D02*
X029172Y003845D01*
X029251Y003944D02*
X026597Y003944D01*
X026618Y004043D02*
X029387Y004043D01*
X029815Y004043D02*
X031387Y004043D01*
X031251Y003944D02*
X030860Y003944D01*
X030881Y003929D02*
X030826Y003969D01*
X030766Y003999D01*
X030701Y004020D01*
X030635Y004031D01*
X030631Y004031D01*
X030631Y003631D01*
X030571Y003631D01*
X030571Y004031D01*
X030567Y004031D01*
X030500Y004020D01*
X030436Y003999D01*
X030375Y003969D01*
X030321Y003929D01*
X030273Y003881D01*
X030233Y003826D01*
X030202Y003766D01*
X030181Y003701D01*
X030171Y003635D01*
X030171Y003631D01*
X030571Y003631D01*
X030571Y003571D01*
X030171Y003571D01*
X030171Y003007D01*
X030181Y002940D01*
X030202Y002876D01*
X030233Y002815D01*
X030273Y002761D01*
X030321Y002713D01*
X030375Y002673D01*
X030436Y002642D01*
X030500Y002621D01*
X030567Y002611D01*
X030571Y002611D01*
X030571Y003571D01*
X030631Y003571D01*
X030631Y003631D01*
X031031Y003631D01*
X031031Y003635D01*
X031020Y003701D01*
X030999Y003766D01*
X030969Y003826D01*
X030929Y003881D01*
X030881Y003929D01*
X030955Y003845D02*
X031172Y003845D01*
X031131Y003747D02*
X031005Y003747D01*
X031029Y003648D02*
X031111Y003648D01*
X031111Y003550D02*
X031031Y003550D01*
X031031Y003571D02*
X030631Y003571D01*
X030631Y002611D01*
X030635Y002611D01*
X030701Y002621D01*
X030766Y002642D01*
X030826Y002673D01*
X030881Y002713D01*
X030929Y002761D01*
X030969Y002815D01*
X030999Y002876D01*
X031020Y002940D01*
X031031Y003007D01*
X031031Y003571D01*
X031031Y003451D02*
X031111Y003451D01*
X031111Y003353D02*
X031031Y003353D01*
X031031Y003254D02*
X031111Y003254D01*
X031111Y003156D02*
X031031Y003156D01*
X031031Y003057D02*
X031111Y003057D01*
X031111Y002959D02*
X031023Y002959D01*
X030991Y002860D02*
X031145Y002860D01*
X031187Y002761D02*
X030929Y002761D01*
X030806Y002663D02*
X031286Y002663D01*
X030631Y002663D02*
X030571Y002663D01*
X030571Y002761D02*
X030631Y002761D01*
X030631Y002860D02*
X030571Y002860D01*
X030571Y002959D02*
X030631Y002959D01*
X030631Y003057D02*
X030571Y003057D01*
X030571Y003156D02*
X030631Y003156D01*
X030631Y003254D02*
X030571Y003254D01*
X030571Y003353D02*
X030631Y003353D01*
X030631Y003451D02*
X030571Y003451D01*
X030571Y003550D02*
X030631Y003550D01*
X030631Y003648D02*
X030571Y003648D01*
X030571Y003747D02*
X030631Y003747D01*
X030631Y003845D02*
X030571Y003845D01*
X030571Y003944D02*
X030631Y003944D01*
X030342Y003944D02*
X029951Y003944D01*
X030030Y003845D02*
X030247Y003845D01*
X030196Y003747D02*
X030071Y003747D01*
X030091Y003648D02*
X030173Y003648D01*
X030171Y003550D02*
X030091Y003550D01*
X030091Y003451D02*
X030171Y003451D01*
X030171Y003353D02*
X030091Y003353D01*
X030091Y003254D02*
X030171Y003254D01*
X030171Y003156D02*
X030091Y003156D01*
X030091Y003057D02*
X030171Y003057D01*
X030178Y002959D02*
X030091Y002959D01*
X030056Y002860D02*
X030210Y002860D01*
X030272Y002761D02*
X030014Y002761D01*
X029916Y002663D02*
X030395Y002663D01*
X031916Y002663D02*
X037286Y002663D01*
X037187Y002761D02*
X032014Y002761D01*
X032056Y002860D02*
X037145Y002860D01*
X037111Y002959D02*
X032091Y002959D01*
X032091Y003057D02*
X037111Y003057D01*
X037111Y003156D02*
X032091Y003156D01*
X032091Y003254D02*
X037111Y003254D01*
X037111Y003353D02*
X032091Y003353D01*
X032091Y003451D02*
X037111Y003451D01*
X037111Y003550D02*
X032091Y003550D01*
X032091Y003648D02*
X033797Y003648D01*
X033798Y003647D02*
X033994Y003566D01*
X034207Y003566D01*
X034404Y003647D01*
X034554Y003798D01*
X034601Y003910D01*
X034647Y003798D01*
X034798Y003647D01*
X034994Y003566D01*
X035207Y003566D01*
X035404Y003647D01*
X035554Y003798D01*
X035636Y003994D01*
X035636Y004207D01*
X035554Y004404D01*
X035404Y004554D01*
X035207Y004636D01*
X034994Y004636D01*
X034798Y004554D01*
X034647Y004404D01*
X034601Y004292D01*
X034554Y004404D01*
X034404Y004554D01*
X034207Y004636D01*
X033994Y004636D01*
X033798Y004554D01*
X033647Y004404D01*
X033566Y004207D01*
X033566Y003994D01*
X033647Y003798D01*
X033798Y003647D01*
X033698Y003747D02*
X032071Y003747D01*
X032030Y003845D02*
X033627Y003845D01*
X033587Y003944D02*
X031951Y003944D01*
X031815Y004043D02*
X033566Y004043D01*
X033566Y004141D02*
X026151Y004141D01*
X026499Y004437D02*
X033680Y004437D01*
X033620Y004338D02*
X026563Y004338D01*
X026602Y004240D02*
X033579Y004240D01*
X033779Y004535D02*
X026387Y004535D01*
X026454Y004634D02*
X033990Y004634D01*
X034212Y004634D02*
X034990Y004634D01*
X035212Y004634D02*
X038571Y004634D01*
X038669Y004732D02*
X026553Y004732D01*
X026617Y004831D02*
X038768Y004831D01*
X038472Y004535D02*
X035423Y004535D01*
X035521Y004437D02*
X038373Y004437D01*
X038391Y004454D02*
X038391Y004454D01*
X038282Y004338D02*
X035582Y004338D01*
X035622Y004240D02*
X038241Y004240D01*
X038231Y004141D02*
X035636Y004141D01*
X035636Y004043D02*
X037387Y004043D01*
X037251Y003944D02*
X035615Y003944D01*
X035574Y003845D02*
X037172Y003845D01*
X037131Y003747D02*
X035503Y003747D01*
X035405Y003648D02*
X037111Y003648D01*
X037815Y004043D02*
X038231Y004043D01*
X038231Y003944D02*
X037951Y003944D01*
X038030Y003845D02*
X038172Y003845D01*
X038131Y003747D02*
X038071Y003747D01*
X038091Y003648D02*
X038111Y003648D01*
X038111Y003550D02*
X038091Y003550D01*
X038091Y003451D02*
X038111Y003451D01*
X038111Y003353D02*
X038091Y003353D01*
X038091Y003254D02*
X038111Y003254D01*
X038111Y003156D02*
X038091Y003156D01*
X038091Y003057D02*
X038111Y003057D01*
X038111Y002959D02*
X038091Y002959D01*
X038056Y002860D02*
X038145Y002860D01*
X038187Y002761D02*
X038014Y002761D01*
X037916Y002663D02*
X038286Y002663D01*
X039731Y002564D02*
X042380Y002564D01*
X042485Y002521D02*
X042716Y002521D01*
X042929Y002609D01*
X043092Y002772D01*
X043181Y002985D01*
X043181Y003216D01*
X043092Y003429D01*
X042929Y003592D01*
X042716Y003681D01*
X042485Y003681D01*
X042272Y003592D01*
X042109Y003429D01*
X042021Y003216D01*
X042021Y002985D01*
X042109Y002772D01*
X042272Y002609D01*
X042485Y002521D01*
X042218Y002663D02*
X039916Y002663D01*
X040014Y002761D02*
X042120Y002761D01*
X042073Y002860D02*
X040056Y002860D01*
X040091Y002959D02*
X042032Y002959D01*
X042021Y003057D02*
X040091Y003057D01*
X040091Y003156D02*
X042021Y003156D01*
X042037Y003254D02*
X040091Y003254D01*
X040091Y003353D02*
X042077Y003353D01*
X042131Y003451D02*
X040091Y003451D01*
X040091Y003550D02*
X042230Y003550D01*
X042407Y003648D02*
X040091Y003648D01*
X040071Y003747D02*
X045101Y003747D01*
X045101Y003845D02*
X040030Y003845D01*
X039951Y003944D02*
X045101Y003944D01*
X045101Y004043D02*
X039815Y004043D01*
X041095Y006112D02*
X045101Y006112D01*
X045101Y006210D02*
X041194Y006210D01*
X041292Y006309D02*
X045101Y006309D01*
X045101Y006408D02*
X041391Y006408D01*
X041489Y006506D02*
X045101Y006506D01*
X041428Y007492D02*
X039877Y007492D01*
X036325Y008280D02*
X035877Y008280D01*
X035996Y008378D02*
X036205Y008378D01*
X036123Y008477D02*
X036078Y008477D01*
X035787Y007590D02*
X031845Y007590D01*
X031963Y007492D02*
X035688Y007492D01*
X035589Y007393D02*
X032035Y007393D01*
X032076Y007294D02*
X035491Y007294D01*
X035392Y007196D02*
X032091Y007196D01*
X032091Y007097D02*
X035294Y007097D01*
X035195Y006999D02*
X032091Y006999D01*
X032091Y006900D02*
X035097Y006900D01*
X034998Y006802D02*
X032091Y006802D01*
X032091Y006703D02*
X034900Y006703D01*
X034801Y006605D02*
X032091Y006605D01*
X032091Y006506D02*
X034703Y006506D01*
X034779Y004535D02*
X034423Y004535D01*
X034521Y004437D02*
X034680Y004437D01*
X034620Y004338D02*
X034581Y004338D01*
X034574Y003845D02*
X034627Y003845D01*
X034698Y003747D02*
X034503Y003747D01*
X034405Y003648D02*
X034797Y003648D01*
X031435Y006013D02*
X026681Y006013D01*
X026681Y006112D02*
X029501Y006112D01*
X029701Y006112D02*
X030501Y006112D01*
X030503Y006111D02*
X030698Y006111D01*
X030878Y006185D01*
X031016Y006323D01*
X031091Y006503D01*
X031091Y007258D01*
X031016Y007438D01*
X030878Y007576D01*
X030698Y007651D01*
X030503Y007651D01*
X030323Y007576D01*
X030185Y007438D01*
X030111Y007258D01*
X030111Y006503D01*
X030185Y006323D01*
X030323Y006185D01*
X030503Y006111D01*
X030701Y006112D02*
X031367Y006112D01*
X031298Y006210D02*
X030903Y006210D01*
X031002Y006309D02*
X031200Y006309D01*
X031150Y006408D02*
X031051Y006408D01*
X031091Y006506D02*
X031111Y006506D01*
X031111Y006605D02*
X031091Y006605D01*
X031091Y006703D02*
X031111Y006703D01*
X031111Y006802D02*
X031091Y006802D01*
X031091Y006900D02*
X031111Y006900D01*
X031111Y006999D02*
X031091Y006999D01*
X031091Y007097D02*
X031111Y007097D01*
X031111Y007196D02*
X031091Y007196D01*
X031076Y007294D02*
X031126Y007294D01*
X031167Y007393D02*
X031035Y007393D01*
X030963Y007492D02*
X031239Y007492D01*
X031357Y007590D02*
X030845Y007590D01*
X030357Y007590D02*
X029845Y007590D01*
X029963Y007492D02*
X030239Y007492D01*
X030167Y007393D02*
X030035Y007393D01*
X030076Y007294D02*
X030126Y007294D01*
X030111Y007196D02*
X030091Y007196D01*
X030091Y007097D02*
X030111Y007097D01*
X030111Y006999D02*
X030091Y006999D01*
X030091Y006900D02*
X030111Y006900D01*
X030111Y006802D02*
X030091Y006802D01*
X030091Y006703D02*
X030111Y006703D01*
X030111Y006605D02*
X030091Y006605D01*
X030091Y006506D02*
X030111Y006506D01*
X030150Y006408D02*
X030051Y006408D01*
X030002Y006309D02*
X030200Y006309D01*
X030298Y006210D02*
X029903Y006210D01*
X029298Y006210D02*
X026681Y006210D01*
X026642Y006309D02*
X029200Y006309D01*
X029150Y006408D02*
X026601Y006408D01*
X025773Y008773D02*
X025259Y008773D01*
X025441Y008871D02*
X025871Y008871D01*
X025970Y008970D02*
X025539Y008970D01*
X025586Y009068D02*
X026068Y009068D01*
X026167Y009167D02*
X025627Y009167D01*
X025631Y009265D02*
X026265Y009265D01*
X026364Y009364D02*
X025631Y009364D01*
X025631Y009462D02*
X026462Y009462D01*
X026561Y009561D02*
X025631Y009561D01*
X025631Y009659D02*
X026659Y009659D01*
X026758Y009758D02*
X025631Y009758D01*
X024780Y010349D02*
X024706Y010349D01*
X023631Y009462D02*
X023631Y009462D01*
X023631Y009364D02*
X023631Y009364D01*
X023631Y009265D02*
X023631Y009265D01*
X023627Y009167D02*
X023644Y009167D01*
X023682Y009068D02*
X023586Y009068D01*
X023539Y008970D02*
X023747Y008970D01*
X023869Y008871D02*
X023441Y008871D01*
X024051Y008871D02*
X024151Y008871D01*
X024151Y008970D02*
X024051Y008970D01*
X024051Y009068D02*
X024151Y009068D01*
X024151Y009167D02*
X024051Y009167D01*
X024051Y009265D02*
X024151Y009265D01*
X028101Y013503D02*
X028182Y013503D01*
X028101Y013601D02*
X028293Y013601D01*
X028101Y013897D02*
X031763Y013897D01*
X031861Y013995D02*
X028101Y013995D01*
X028101Y014094D02*
X031960Y014094D01*
X032059Y014192D02*
X028101Y014192D01*
X028101Y014291D02*
X032157Y014291D01*
X032256Y014390D02*
X028101Y014390D01*
X028101Y014488D02*
X032351Y014488D01*
X032326Y014587D02*
X028875Y014587D01*
X029005Y014685D02*
X032196Y014685D01*
X032104Y014784D02*
X029097Y014784D01*
X029138Y014882D02*
X032064Y014882D01*
X032023Y014981D02*
X029179Y014981D01*
X029181Y015079D02*
X032021Y015079D01*
X032021Y015178D02*
X029181Y015178D01*
X029156Y015276D02*
X032046Y015276D01*
X032087Y015375D02*
X029115Y015375D01*
X029048Y015474D02*
X032153Y015474D01*
X032252Y015572D02*
X028950Y015572D01*
X028741Y015671D02*
X032461Y015671D01*
X031296Y017149D02*
X030905Y017149D01*
X031004Y017247D02*
X031198Y017247D01*
X031127Y017346D02*
X031074Y017346D01*
X031081Y017839D02*
X031120Y017839D01*
X031181Y017937D02*
X031021Y017937D01*
X030922Y018036D02*
X031279Y018036D01*
X028461Y015671D02*
X028101Y015671D01*
X028101Y015572D02*
X028252Y015572D01*
X028153Y015474D02*
X028101Y015474D01*
X028101Y014784D02*
X028104Y014784D01*
X028101Y014685D02*
X028196Y014685D01*
X028101Y014587D02*
X028326Y014587D01*
X030786Y011630D02*
X032364Y011630D01*
X032212Y011532D02*
X030688Y011532D01*
X030668Y010645D02*
X032236Y010645D01*
X032424Y010546D02*
X030570Y010546D01*
X041317Y012123D02*
X041399Y012123D01*
X041387Y012025D02*
X041399Y012025D01*
X041399Y012222D02*
X041317Y012222D01*
X041317Y012320D02*
X041432Y012320D01*
X041473Y012419D02*
X041317Y012419D01*
X041317Y012517D02*
X041524Y012517D01*
X041623Y012616D02*
X041317Y012616D01*
X041317Y012714D02*
X041747Y012714D01*
X042794Y003648D02*
X045101Y003648D01*
X045101Y003550D02*
X042972Y003550D01*
X043070Y003451D02*
X045101Y003451D01*
X045101Y003353D02*
X043124Y003353D01*
X043165Y003254D02*
X045101Y003254D01*
X045101Y003156D02*
X043181Y003156D01*
X043181Y003057D02*
X045101Y003057D01*
X045101Y002959D02*
X043170Y002959D01*
X043129Y002860D02*
X045101Y002860D01*
X045101Y002761D02*
X044526Y002761D01*
X044351Y002781D02*
X044351Y002781D01*
X044128Y002781D02*
X044128Y002781D01*
X044075Y002761D02*
X043082Y002761D01*
X042983Y002663D02*
X043804Y002663D01*
X043803Y002663D02*
X043803Y002663D01*
X043686Y002564D02*
X042821Y002564D01*
X043439Y002269D02*
X026659Y002269D01*
X026681Y002170D02*
X043383Y002170D01*
X043366Y002141D02*
X043366Y002141D01*
X043354Y002072D02*
X026681Y002072D01*
X026676Y001973D02*
X043336Y001973D01*
X043319Y001875D02*
X026635Y001875D01*
X026594Y001776D02*
X043310Y001776D01*
X043327Y001677D02*
X026498Y001677D01*
X026356Y001579D02*
X043345Y001579D01*
X043496Y002367D02*
X026618Y002367D01*
X026556Y002466D02*
X043569Y002466D01*
X043539Y002440D02*
X043539Y002440D01*
X043539Y002440D01*
X044797Y002663D02*
X045101Y002663D01*
X045101Y002564D02*
X044915Y002564D01*
X044798Y002663D02*
X044798Y002663D01*
X045033Y002466D02*
X045101Y002466D01*
X022914Y019711D02*
X022836Y019711D01*
X022873Y019809D02*
X022914Y019809D01*
X022914Y019908D02*
X022873Y019908D01*
X022873Y020007D02*
X022914Y020007D01*
X022132Y020007D02*
X022074Y020007D01*
X022074Y020105D02*
X022132Y020105D01*
X022132Y020204D02*
X022074Y020204D01*
X022074Y020302D02*
X022132Y020302D01*
X022132Y020401D02*
X022074Y020401D01*
X022074Y020499D02*
X022132Y020499D01*
X022132Y020598D02*
X022074Y020598D01*
X022167Y020795D02*
X013601Y020795D01*
X013012Y020499D02*
X012952Y020499D01*
X012952Y020401D02*
X013012Y020401D01*
X013012Y020302D02*
X012952Y020302D01*
X012952Y020204D02*
X013012Y020204D01*
X013012Y020105D02*
X012952Y020105D01*
X012952Y020007D02*
X013012Y020007D01*
X013012Y019908D02*
X012952Y019908D01*
X012952Y019809D02*
X013012Y019809D01*
X011436Y021091D02*
X010752Y021091D01*
X010752Y021189D02*
X011535Y021189D01*
X011634Y021288D02*
X010735Y021288D01*
X010694Y021386D02*
X011732Y021386D01*
X011338Y020992D02*
X010727Y020992D01*
X010686Y020893D02*
X011239Y020893D01*
X011141Y020795D02*
X010601Y020795D01*
X010450Y020696D02*
X011042Y020696D01*
X010944Y020598D02*
X010458Y020598D01*
X010604Y020499D02*
X010845Y020499D01*
X010747Y020401D02*
X010688Y020401D01*
X009505Y020598D02*
X009206Y020598D01*
X009108Y020696D02*
X009514Y020696D01*
X009363Y020795D02*
X009009Y020795D01*
X009277Y020893D02*
X007685Y020893D01*
X007608Y020992D02*
X009236Y020992D01*
X009212Y021091D02*
X007509Y021091D01*
X007381Y021288D02*
X009229Y021288D01*
X009212Y021189D02*
X007282Y021189D01*
X007479Y021386D02*
X009270Y021386D01*
X009275Y021899D02*
X009212Y022051D01*
X009212Y022246D01*
X009264Y022373D01*
X004750Y022373D01*
X004469Y022092D01*
X004561Y022054D01*
X004711Y021904D01*
X004793Y021707D01*
X004793Y021701D01*
X004794Y021712D01*
X004818Y021783D01*
X004851Y021850D01*
X004895Y021910D01*
X004948Y021963D01*
X005009Y022007D01*
X005075Y022041D01*
X005146Y022064D01*
X005220Y022076D01*
X005239Y022076D01*
X005239Y021620D01*
X005277Y021620D01*
X005733Y021620D01*
X005733Y021638D01*
X005721Y021712D01*
X005698Y021783D01*
X005664Y021850D01*
X005620Y021910D01*
X005567Y021963D01*
X005507Y022007D01*
X005440Y022041D01*
X005369Y022064D01*
X005295Y022076D01*
X005277Y022076D01*
X005277Y021620D01*
X005277Y021582D01*
X005733Y021582D01*
X005733Y021563D01*
X005721Y021490D01*
X005698Y021418D01*
X005664Y021352D01*
X005620Y021291D01*
X005567Y021238D01*
X005507Y021195D01*
X005440Y021161D01*
X005369Y021137D01*
X005295Y021126D01*
X005277Y021126D01*
X005277Y021582D01*
X005239Y021582D01*
X005239Y021126D01*
X005220Y021126D01*
X005146Y021137D01*
X005075Y021161D01*
X005009Y021195D01*
X004948Y021238D01*
X004895Y021291D01*
X004851Y021352D01*
X004818Y021418D01*
X004794Y021490D01*
X004793Y021501D01*
X004793Y021494D01*
X004711Y021298D01*
X004561Y021147D01*
X004364Y021066D01*
X004151Y021066D01*
X003955Y021147D01*
X003804Y021298D01*
X003766Y021389D01*
X002756Y020379D01*
X002789Y020300D01*
X002789Y020118D01*
X003147Y020477D01*
X003239Y020515D01*
X003339Y020515D01*
X005901Y020515D01*
X007247Y021861D01*
X007339Y021899D01*
X007438Y021899D01*
X009275Y021899D01*
X009242Y021977D02*
X005547Y021977D01*
X005643Y021879D02*
X007291Y021879D01*
X007167Y021780D02*
X005699Y021780D01*
X005726Y021682D02*
X007068Y021682D01*
X006969Y021583D02*
X005277Y021583D01*
X005277Y021485D02*
X005239Y021485D01*
X005239Y021386D02*
X005277Y021386D01*
X005277Y021288D02*
X005239Y021288D01*
X005239Y021189D02*
X005277Y021189D01*
X005496Y021189D02*
X006575Y021189D01*
X006477Y021091D02*
X004424Y021091D01*
X004603Y021189D02*
X005019Y021189D01*
X004899Y021288D02*
X004701Y021288D01*
X004748Y021386D02*
X004834Y021386D01*
X004796Y021485D02*
X004789Y021485D01*
X004762Y021780D02*
X004817Y021780D01*
X004873Y021879D02*
X004722Y021879D01*
X004638Y021977D02*
X004968Y021977D01*
X005239Y021977D02*
X005277Y021977D01*
X005277Y021879D02*
X005239Y021879D01*
X005239Y021780D02*
X005277Y021780D01*
X005277Y021682D02*
X005239Y021682D01*
X005719Y021485D02*
X006871Y021485D01*
X006772Y021386D02*
X005681Y021386D01*
X005616Y021288D02*
X006674Y021288D01*
X006378Y020992D02*
X003369Y020992D01*
X003271Y020893D02*
X006280Y020893D01*
X006181Y020795D02*
X003172Y020795D01*
X003074Y020696D02*
X006083Y020696D01*
X005984Y020598D02*
X002975Y020598D01*
X002877Y020499D02*
X003202Y020499D01*
X003071Y020401D02*
X002778Y020401D01*
X002788Y020302D02*
X002973Y020302D01*
X002874Y020204D02*
X002789Y020204D01*
X003285Y019908D02*
X003709Y019908D01*
X003724Y019944D02*
X003795Y020015D01*
X003392Y020015D01*
X002756Y019379D01*
X002789Y019300D01*
X002789Y019078D01*
X002811Y019087D01*
X007288Y019087D01*
X008078Y019877D01*
X008149Y019947D01*
X008240Y019985D01*
X009112Y019985D01*
X009090Y020007D01*
X009090Y020007D01*
X008746Y020351D01*
X007703Y020351D01*
X007670Y020272D01*
X007507Y020109D01*
X007294Y020021D01*
X007063Y020021D01*
X006850Y020109D01*
X006687Y020272D01*
X006599Y020485D01*
X006599Y020506D01*
X006216Y020123D01*
X006146Y020053D01*
X006054Y020015D01*
X005471Y020015D01*
X005487Y020003D01*
X005540Y019950D01*
X005584Y019890D01*
X005618Y019823D01*
X005641Y019752D01*
X005653Y019678D01*
X005653Y019660D01*
X005197Y019660D01*
X005197Y019622D01*
X005653Y019622D01*
X005653Y019603D01*
X005641Y019530D01*
X005618Y019458D01*
X005584Y019392D01*
X005540Y019331D01*
X005487Y019278D01*
X005427Y019235D01*
X005360Y019201D01*
X005289Y019177D01*
X005215Y019166D01*
X005197Y019166D01*
X005197Y019622D01*
X005159Y019622D01*
X005159Y019166D01*
X005140Y019166D01*
X005066Y019177D01*
X004995Y019201D01*
X004929Y019235D01*
X004868Y019278D01*
X004815Y019331D01*
X004771Y019392D01*
X004738Y019458D01*
X004714Y019530D01*
X004713Y019541D01*
X004713Y019534D01*
X004631Y019338D01*
X004481Y019187D01*
X004284Y019106D01*
X004071Y019106D01*
X003875Y019187D01*
X003724Y019338D01*
X003643Y019534D01*
X003643Y019747D01*
X003724Y019944D01*
X003787Y020007D02*
X003384Y020007D01*
X003187Y019809D02*
X003669Y019809D01*
X003643Y019711D02*
X003088Y019711D01*
X002990Y019612D02*
X003643Y019612D01*
X003651Y019514D02*
X002891Y019514D01*
X002793Y019415D02*
X003692Y019415D01*
X003745Y019317D02*
X002782Y019317D01*
X002789Y019218D02*
X003844Y019218D01*
X004038Y019120D02*
X002789Y019120D01*
X001862Y019711D02*
X001101Y019711D01*
X001101Y019809D02*
X001764Y019809D01*
X001696Y019908D02*
X001101Y019908D01*
X001101Y020007D02*
X001655Y020007D01*
X001629Y020105D02*
X001101Y020105D01*
X001101Y020204D02*
X001629Y020204D01*
X001630Y020302D02*
X001101Y020302D01*
X001101Y020401D02*
X001670Y020401D01*
X001711Y020499D02*
X001101Y020499D01*
X001101Y020598D02*
X001802Y020598D01*
X001877Y020696D02*
X001101Y020696D01*
X001101Y020795D02*
X001778Y020795D01*
X001702Y020893D02*
X001101Y020893D01*
X001101Y020992D02*
X001661Y020992D01*
X001629Y021091D02*
X001101Y021091D01*
X001101Y021189D02*
X001629Y021189D01*
X001629Y021288D02*
X001101Y021288D01*
X001101Y021386D02*
X001664Y021386D01*
X001705Y021485D02*
X001101Y021485D01*
X001101Y021583D02*
X001787Y021583D01*
X001893Y021682D02*
X001101Y021682D01*
X001101Y021780D02*
X001793Y021780D01*
X001708Y021879D02*
X001101Y021879D01*
X001101Y021977D02*
X001667Y021977D01*
X001629Y022076D02*
X001101Y022076D01*
X001101Y022174D02*
X001629Y022174D01*
X001629Y022273D02*
X001101Y022273D01*
X001101Y022372D02*
X001658Y022372D01*
X001699Y022470D02*
X001101Y022470D01*
X001101Y022569D02*
X001772Y022569D01*
X001871Y022667D02*
X001101Y022667D01*
X001101Y022766D02*
X002436Y022766D01*
X002535Y022864D02*
X001101Y022864D01*
X001101Y022963D02*
X002633Y022963D01*
X002732Y023061D02*
X001101Y023061D01*
X001101Y023160D02*
X001810Y023160D01*
X001832Y023138D02*
X002746Y023138D01*
X002869Y023261D01*
X002869Y024175D01*
X002746Y024298D01*
X002595Y024298D01*
X002627Y024321D01*
X002685Y024379D01*
X002733Y024445D01*
X002771Y024518D01*
X002796Y024596D01*
X002800Y024620D01*
X002810Y024609D01*
X003023Y024521D01*
X003254Y024521D01*
X003467Y024609D01*
X003630Y024772D01*
X003719Y024985D01*
X003719Y025216D01*
X003686Y025295D01*
X004290Y025899D01*
X009275Y025899D01*
X009286Y025871D01*
X009424Y025733D01*
X009604Y025659D01*
X010359Y025659D01*
X010539Y025733D01*
X010677Y025871D01*
X010752Y026051D01*
X010752Y026246D01*
X010677Y026426D01*
X010539Y026564D01*
X010359Y026639D01*
X009604Y026639D01*
X009424Y026564D01*
X009286Y026426D01*
X009275Y026399D01*
X004137Y026399D01*
X004045Y026361D01*
X003975Y026290D01*
X003333Y025648D01*
X003254Y025681D01*
X003023Y025681D01*
X002869Y025617D01*
X002869Y025833D01*
X002836Y025912D01*
X004725Y027801D01*
X021205Y027801D01*
X021205Y027580D01*
X021484Y027580D01*
X021484Y027523D01*
X021205Y027523D01*
X021205Y027217D01*
X021205Y027299D02*
X004223Y027299D01*
X004322Y027397D02*
X021205Y027397D01*
X021205Y027496D02*
X004420Y027496D01*
X004519Y027594D02*
X021205Y027594D01*
X021205Y027693D02*
X004617Y027693D01*
X004716Y027791D02*
X021205Y027791D01*
X021484Y027496D02*
X021541Y027496D01*
X021541Y027397D02*
X021484Y027397D01*
X021484Y027299D02*
X021541Y027299D01*
X021541Y027200D02*
X021484Y027200D01*
X021484Y027102D02*
X021541Y027102D01*
X021736Y027102D02*
X021823Y027102D01*
X021289Y027102D02*
X018886Y027102D01*
X018985Y027003D02*
X028101Y027003D01*
X028101Y026905D02*
X027609Y026905D01*
X027624Y026900D02*
X027547Y026925D01*
X027475Y026936D01*
X027475Y026468D01*
X027375Y026468D01*
X027375Y026936D01*
X027303Y026925D01*
X027225Y026900D01*
X027152Y026862D01*
X027086Y026814D01*
X027028Y026756D01*
X026980Y026690D01*
X026943Y026617D01*
X026918Y026540D01*
X026906Y026468D01*
X027375Y026468D01*
X027375Y026368D01*
X026906Y026368D01*
X026918Y026296D01*
X026943Y026218D01*
X026980Y026145D01*
X027028Y026079D01*
X027086Y026021D01*
X027152Y025973D01*
X027225Y025936D01*
X027303Y025911D01*
X027375Y025899D01*
X027375Y026368D01*
X027475Y026368D01*
X027475Y026468D01*
X027943Y026468D01*
X027932Y026540D01*
X027907Y026617D01*
X027870Y026690D01*
X027821Y026756D01*
X027764Y026814D01*
X027697Y026862D01*
X027624Y026900D01*
X027475Y026905D02*
X027375Y026905D01*
X027375Y026806D02*
X027475Y026806D01*
X027475Y026707D02*
X027375Y026707D01*
X027375Y026609D02*
X027475Y026609D01*
X027475Y026510D02*
X027375Y026510D01*
X027375Y026412D02*
X024915Y026412D01*
X024915Y026368D02*
X024915Y026468D01*
X024815Y026468D01*
X024815Y026936D01*
X024743Y026925D01*
X024665Y026900D01*
X024592Y026862D01*
X024526Y026814D01*
X024468Y026756D01*
X024420Y026690D01*
X024383Y026617D01*
X024358Y026540D01*
X024346Y026468D01*
X024815Y026468D01*
X024815Y026368D01*
X024346Y026368D01*
X024358Y026296D01*
X024383Y026218D01*
X024420Y026145D01*
X024468Y026079D01*
X024526Y026021D01*
X024592Y025973D01*
X024665Y025936D01*
X024743Y025911D01*
X024815Y025899D01*
X024815Y026368D01*
X024915Y026368D01*
X025383Y026368D01*
X025372Y026296D01*
X025347Y026218D01*
X025310Y026145D01*
X025261Y026079D01*
X025204Y026021D01*
X025137Y025973D01*
X025064Y025936D01*
X024987Y025911D01*
X024915Y025899D01*
X024915Y026368D01*
X024915Y026313D02*
X024815Y026313D01*
X024815Y026215D02*
X024915Y026215D01*
X024915Y026116D02*
X024815Y026116D01*
X024815Y026018D02*
X024915Y026018D01*
X024915Y025919D02*
X024815Y025919D01*
X024717Y025919D02*
X024006Y025919D01*
X024006Y025821D02*
X028101Y025821D01*
X028101Y025919D02*
X027573Y025919D01*
X027547Y025911D02*
X027624Y025936D01*
X027697Y025973D01*
X027764Y026021D01*
X027821Y026079D01*
X027870Y026145D01*
X027907Y026218D01*
X027932Y026296D01*
X027943Y026368D01*
X027475Y026368D01*
X027475Y025899D01*
X027547Y025911D01*
X027475Y025919D02*
X027375Y025919D01*
X027277Y025919D02*
X025013Y025919D01*
X025199Y026018D02*
X027091Y026018D01*
X027001Y026116D02*
X025288Y026116D01*
X025345Y026215D02*
X026945Y026215D01*
X026915Y026313D02*
X025375Y026313D01*
X025383Y026468D02*
X024915Y026468D01*
X024915Y026936D01*
X024987Y026925D01*
X025064Y026900D01*
X025137Y026862D01*
X025204Y026814D01*
X025261Y026756D01*
X025310Y026690D01*
X025347Y026617D01*
X025372Y026540D01*
X025383Y026468D01*
X025377Y026510D02*
X026913Y026510D01*
X026940Y026609D02*
X025349Y026609D01*
X025297Y026707D02*
X026993Y026707D01*
X027078Y026806D02*
X025212Y026806D01*
X025049Y026905D02*
X027240Y026905D01*
X027475Y026412D02*
X028101Y026412D01*
X028101Y026510D02*
X027937Y026510D01*
X027909Y026609D02*
X028101Y026609D01*
X028101Y026707D02*
X027857Y026707D01*
X027772Y026806D02*
X028101Y026806D01*
X028101Y027102D02*
X022996Y027102D01*
X023075Y027200D02*
X028101Y027200D01*
X028101Y027299D02*
X023080Y027299D01*
X023080Y027397D02*
X028101Y027397D01*
X028101Y027496D02*
X023080Y027496D01*
X023080Y027594D02*
X028101Y027594D01*
X028101Y027693D02*
X023080Y027693D01*
X023080Y027791D02*
X028101Y027791D01*
X028101Y026313D02*
X027935Y026313D01*
X027905Y026215D02*
X028101Y026215D01*
X028101Y026116D02*
X027848Y026116D01*
X027759Y026018D02*
X028101Y026018D01*
X028101Y025722D02*
X024006Y025722D01*
X024006Y025624D02*
X028101Y025624D01*
X028101Y025525D02*
X024006Y025525D01*
X024006Y025426D02*
X028101Y025426D01*
X028101Y025328D02*
X024006Y025328D01*
X024006Y025032D02*
X024439Y025032D01*
X024360Y024934D02*
X024006Y024934D01*
X024006Y024835D02*
X024319Y024835D01*
X024285Y024737D02*
X024006Y024737D01*
X024006Y024638D02*
X024285Y024638D01*
X024285Y024540D02*
X024006Y024540D01*
X024006Y024441D02*
X024319Y024441D01*
X024359Y024342D02*
X024006Y024342D01*
X024006Y024244D02*
X024438Y024244D01*
X024538Y024145D02*
X024006Y024145D01*
X024006Y024047D02*
X024615Y024047D01*
X024615Y023948D02*
X024006Y023948D01*
X024006Y023850D02*
X024615Y023850D01*
X024615Y023751D02*
X024006Y023751D01*
X024006Y023653D02*
X024615Y023653D01*
X024615Y023554D02*
X024006Y023554D01*
X024006Y023456D02*
X024615Y023456D01*
X024615Y023357D02*
X024006Y023357D01*
X024006Y023258D02*
X024615Y023258D01*
X024615Y023160D02*
X024006Y023160D01*
X024006Y023061D02*
X024615Y023061D01*
X024615Y022963D02*
X024006Y022963D01*
X024075Y022864D02*
X024615Y022864D01*
X024615Y022766D02*
X024147Y022766D01*
X024166Y022667D02*
X024615Y022667D01*
X024615Y022569D02*
X024166Y022569D01*
X024166Y022470D02*
X024615Y022470D01*
X024615Y022372D02*
X024166Y022372D01*
X024166Y022273D02*
X024615Y022273D01*
X024615Y022174D02*
X024166Y022174D01*
X024136Y022076D02*
X024607Y022076D01*
X024508Y021977D02*
X024039Y021977D01*
X024006Y021879D02*
X024409Y021879D01*
X024311Y021780D02*
X024006Y021780D01*
X024006Y021682D02*
X024212Y021682D01*
X024114Y021583D02*
X024006Y021583D01*
X024006Y021485D02*
X024015Y021485D01*
X021871Y021091D02*
X018749Y021091D01*
X018749Y021189D02*
X021773Y021189D01*
X021674Y021288D02*
X018749Y021288D01*
X018749Y021386D02*
X021576Y021386D01*
X022074Y019908D02*
X022132Y019908D01*
X022132Y019809D02*
X022074Y019809D01*
X022074Y019711D02*
X022132Y019711D01*
X018313Y020992D02*
X018256Y020992D01*
X018256Y021091D02*
X018313Y021091D01*
X018313Y021189D02*
X018256Y021189D01*
X022138Y023850D02*
X022956Y023850D01*
X022956Y023948D02*
X022039Y023948D01*
X021941Y024047D02*
X022956Y024047D01*
X022956Y024145D02*
X021842Y024145D01*
X021744Y024244D02*
X022956Y024244D01*
X022956Y024342D02*
X021645Y024342D01*
X021547Y024441D02*
X022956Y024441D01*
X022956Y024540D02*
X021448Y024540D01*
X021350Y024638D02*
X022956Y024638D01*
X022956Y024737D02*
X021251Y024737D01*
X021153Y024835D02*
X022956Y024835D01*
X022956Y024934D02*
X021054Y024934D01*
X020955Y025032D02*
X022956Y025032D01*
X022956Y025131D02*
X020857Y025131D01*
X020758Y025229D02*
X022956Y025229D01*
X022956Y025328D02*
X020660Y025328D01*
X020561Y025426D02*
X022956Y025426D01*
X022956Y025525D02*
X020463Y025525D01*
X020364Y025624D02*
X022956Y025624D01*
X022956Y025722D02*
X020266Y025722D01*
X020167Y025821D02*
X022956Y025821D01*
X022956Y025919D02*
X020069Y025919D01*
X019970Y026018D02*
X022956Y026018D01*
X022956Y026116D02*
X019871Y026116D01*
X019773Y026215D02*
X022956Y026215D01*
X022956Y026313D02*
X019674Y026313D01*
X019576Y026412D02*
X022956Y026412D01*
X022956Y026510D02*
X019477Y026510D01*
X019379Y026609D02*
X022956Y026609D01*
X022970Y026707D02*
X019280Y026707D01*
X019182Y026806D02*
X023069Y026806D01*
X022801Y027102D02*
X022744Y027102D01*
X022744Y027200D02*
X022801Y027200D01*
X022801Y027299D02*
X022744Y027299D01*
X022744Y027397D02*
X022801Y027397D01*
X022801Y027496D02*
X022744Y027496D01*
X022549Y027102D02*
X022462Y027102D01*
X023894Y026806D02*
X024518Y026806D01*
X024433Y026707D02*
X023992Y026707D01*
X024006Y026609D02*
X024380Y026609D01*
X024353Y026510D02*
X024006Y026510D01*
X024006Y026412D02*
X024815Y026412D01*
X024815Y026510D02*
X024915Y026510D01*
X024915Y026609D02*
X024815Y026609D01*
X024815Y026707D02*
X024915Y026707D01*
X024915Y026806D02*
X024815Y026806D01*
X024815Y026905D02*
X024915Y026905D01*
X024680Y026905D02*
X019083Y026905D01*
X022237Y023751D02*
X022956Y023751D01*
X022956Y023653D02*
X022335Y023653D01*
X022434Y023554D02*
X022956Y023554D01*
X022956Y023456D02*
X022532Y023456D01*
X022631Y023357D02*
X022956Y023357D01*
X022956Y023258D02*
X022729Y023258D01*
X022828Y023160D02*
X022956Y023160D01*
X022956Y023061D02*
X022926Y023061D01*
X026749Y022667D02*
X028101Y022667D01*
X028101Y022569D02*
X026953Y022569D01*
X027052Y022470D02*
X028101Y022470D01*
X028101Y022372D02*
X027116Y022372D01*
X027157Y022273D02*
X028101Y022273D01*
X028101Y022174D02*
X027181Y022174D01*
X027181Y022076D02*
X028101Y022076D01*
X028101Y021977D02*
X027177Y021977D01*
X027137Y021879D02*
X028101Y021879D01*
X028101Y021780D02*
X027096Y021780D01*
X027002Y021682D02*
X028101Y021682D01*
X028101Y021583D02*
X026867Y021583D01*
X029789Y022766D02*
X033541Y022766D01*
X027475Y026018D02*
X027375Y026018D01*
X027375Y026116D02*
X027475Y026116D01*
X027475Y026215D02*
X027375Y026215D01*
X027375Y026313D02*
X027475Y026313D01*
X024531Y026018D02*
X024006Y026018D01*
X024006Y026116D02*
X024441Y026116D01*
X024385Y026215D02*
X024006Y026215D01*
X024006Y026313D02*
X024355Y026313D01*
X012163Y027003D02*
X003927Y027003D01*
X003829Y026905D02*
X012064Y026905D01*
X011966Y026806D02*
X003730Y026806D01*
X003632Y026707D02*
X011867Y026707D01*
X011769Y026609D02*
X010431Y026609D01*
X010593Y026510D02*
X011670Y026510D01*
X011571Y026412D02*
X010683Y026412D01*
X010724Y026313D02*
X011473Y026313D01*
X011374Y026215D02*
X010752Y026215D01*
X010752Y026116D02*
X011276Y026116D01*
X011177Y026018D02*
X010738Y026018D01*
X010697Y025919D02*
X011079Y025919D01*
X010980Y025821D02*
X010627Y025821D01*
X010512Y025722D02*
X010882Y025722D01*
X010783Y025624D02*
X010396Y025624D01*
X010579Y025525D02*
X010685Y025525D01*
X009568Y025624D02*
X007392Y025624D01*
X007535Y025525D02*
X009385Y025525D01*
X009286Y025426D02*
X007632Y025426D01*
X007672Y025328D02*
X009246Y025328D01*
X009212Y025229D02*
X007713Y025229D01*
X007719Y025131D02*
X009212Y025131D01*
X009220Y025032D02*
X007719Y025032D01*
X007697Y024934D02*
X009260Y024934D01*
X009452Y025722D02*
X004113Y025722D01*
X004015Y025624D02*
X006885Y025624D01*
X006743Y025525D02*
X003916Y025525D01*
X003818Y025426D02*
X006646Y025426D01*
X006605Y025328D02*
X003719Y025328D01*
X003713Y025229D02*
X006564Y025229D01*
X006559Y025131D02*
X003719Y025131D01*
X003719Y025032D02*
X006559Y025032D01*
X006580Y024934D02*
X003697Y024934D01*
X003656Y024835D02*
X004534Y024835D01*
X004407Y024737D02*
X003595Y024737D01*
X003496Y024638D02*
X004309Y024638D01*
X004210Y024540D02*
X003299Y024540D01*
X002978Y024540D02*
X002777Y024540D01*
X002730Y024441D02*
X004111Y024441D01*
X004013Y024342D02*
X002649Y024342D01*
X002800Y024244D02*
X003914Y024244D01*
X003816Y024145D02*
X002869Y024145D01*
X002869Y024047D02*
X003717Y024047D01*
X003619Y023948D02*
X002869Y023948D01*
X002869Y023850D02*
X003520Y023850D01*
X003422Y023751D02*
X002869Y023751D01*
X002869Y023653D02*
X003323Y023653D01*
X003225Y023554D02*
X002869Y023554D01*
X002869Y023456D02*
X003126Y023456D01*
X003027Y023357D02*
X002869Y023357D01*
X002866Y023258D02*
X002929Y023258D01*
X002830Y023160D02*
X002768Y023160D01*
X001832Y023138D02*
X001709Y023261D01*
X001709Y024175D01*
X001832Y024298D01*
X001982Y024298D01*
X001950Y024321D01*
X001892Y024379D01*
X001844Y024445D01*
X001807Y024518D01*
X001781Y024596D01*
X001770Y024668D01*
X002239Y024668D01*
X002239Y024768D01*
X001770Y024768D01*
X001781Y024840D01*
X001807Y024917D01*
X001844Y024990D01*
X001892Y025057D01*
X001950Y025114D01*
X002016Y025163D01*
X002060Y025185D01*
X001960Y025226D01*
X001797Y025389D01*
X001709Y025602D01*
X001709Y025833D01*
X001797Y026046D01*
X001960Y026209D01*
X002060Y026251D01*
X002016Y026273D01*
X001950Y026321D01*
X001892Y026379D01*
X001844Y026445D01*
X001807Y026518D01*
X001781Y026596D01*
X001770Y026668D01*
X002239Y026668D01*
X002239Y026768D01*
X002239Y027236D01*
X002167Y027225D01*
X002089Y027200D01*
X002016Y027163D01*
X001950Y027114D01*
X001892Y027057D01*
X001844Y026990D01*
X001807Y026917D01*
X001781Y026840D01*
X001770Y026768D01*
X002239Y026768D01*
X002339Y026768D01*
X002807Y026768D01*
X002796Y026840D01*
X002771Y026917D01*
X002733Y026990D01*
X002685Y027057D01*
X002627Y027114D01*
X002561Y027163D01*
X002488Y027200D01*
X002410Y027225D01*
X002339Y027236D01*
X002339Y026768D01*
X002339Y026668D01*
X002807Y026668D01*
X002796Y026596D01*
X002787Y026570D01*
X004018Y027801D01*
X001101Y027801D01*
X001101Y027791D02*
X004009Y027791D01*
X003910Y027693D02*
X001101Y027693D01*
X001101Y027594D02*
X003812Y027594D01*
X003713Y027496D02*
X001101Y027496D01*
X001101Y027397D02*
X003615Y027397D01*
X003516Y027299D02*
X001101Y027299D01*
X001101Y027200D02*
X002091Y027200D01*
X002239Y027200D02*
X002339Y027200D01*
X002339Y027102D02*
X002239Y027102D01*
X002239Y027003D02*
X002339Y027003D01*
X002339Y026905D02*
X002239Y026905D01*
X002239Y026806D02*
X002339Y026806D01*
X002339Y026707D02*
X002925Y026707D01*
X002826Y026609D02*
X002798Y026609D01*
X002801Y026806D02*
X003023Y026806D01*
X003122Y026905D02*
X002775Y026905D01*
X002724Y027003D02*
X003221Y027003D01*
X003319Y027102D02*
X002640Y027102D01*
X002487Y027200D02*
X003418Y027200D01*
X003533Y026609D02*
X009532Y026609D01*
X009370Y026510D02*
X003435Y026510D01*
X003336Y026412D02*
X009280Y026412D01*
X009337Y025821D02*
X004212Y025821D01*
X003899Y026215D02*
X003139Y026215D01*
X003238Y026313D02*
X003998Y026313D01*
X003801Y026116D02*
X003041Y026116D01*
X002942Y026018D02*
X003702Y026018D01*
X003604Y025919D02*
X002844Y025919D01*
X002869Y025821D02*
X003505Y025821D01*
X003407Y025722D02*
X002869Y025722D01*
X002869Y025624D02*
X002885Y025624D01*
X001957Y025229D02*
X001101Y025229D01*
X001101Y025131D02*
X001972Y025131D01*
X001874Y025032D02*
X001101Y025032D01*
X001101Y024934D02*
X001815Y024934D01*
X001781Y024835D02*
X001101Y024835D01*
X001101Y024737D02*
X002239Y024737D01*
X001775Y024638D02*
X001101Y024638D01*
X001101Y024540D02*
X001800Y024540D01*
X001847Y024441D02*
X001101Y024441D01*
X001101Y024342D02*
X001929Y024342D01*
X001778Y024244D02*
X001101Y024244D01*
X001101Y024145D02*
X001709Y024145D01*
X001709Y024047D02*
X001101Y024047D01*
X001101Y023948D02*
X001709Y023948D01*
X001709Y023850D02*
X001101Y023850D01*
X001101Y023751D02*
X001709Y023751D01*
X001709Y023653D02*
X001101Y023653D01*
X001101Y023554D02*
X001709Y023554D01*
X001709Y023456D02*
X001101Y023456D01*
X001101Y023357D02*
X001709Y023357D01*
X001711Y023258D02*
X001101Y023258D01*
X003566Y021189D02*
X003913Y021189D01*
X003814Y021288D02*
X003665Y021288D01*
X003764Y021386D02*
X003768Y021386D01*
X003468Y021091D02*
X004092Y021091D01*
X005482Y020007D02*
X009090Y020007D01*
X008992Y020105D02*
X007498Y020105D01*
X007602Y020204D02*
X008893Y020204D01*
X008795Y020302D02*
X007683Y020302D01*
X008109Y019908D02*
X005571Y019908D01*
X005622Y019809D02*
X008011Y019809D01*
X007912Y019711D02*
X005648Y019711D01*
X005653Y019612D02*
X007814Y019612D01*
X007715Y019514D02*
X005636Y019514D01*
X005596Y019415D02*
X007617Y019415D01*
X007518Y019317D02*
X005525Y019317D01*
X005395Y019218D02*
X007419Y019218D01*
X007321Y019120D02*
X004318Y019120D01*
X004512Y019218D02*
X004961Y019218D01*
X004830Y019317D02*
X004610Y019317D01*
X004663Y019415D02*
X004760Y019415D01*
X004720Y019514D02*
X004704Y019514D01*
X005159Y019514D02*
X005197Y019514D01*
X005197Y019612D02*
X005159Y019612D01*
X005159Y019415D02*
X005197Y019415D01*
X005197Y019317D02*
X005159Y019317D01*
X005159Y019218D02*
X005197Y019218D01*
X006198Y020105D02*
X006860Y020105D01*
X006756Y020204D02*
X006297Y020204D01*
X006395Y020302D02*
X006675Y020302D01*
X006634Y020401D02*
X006494Y020401D01*
X006592Y020499D02*
X006599Y020499D01*
X004509Y022076D02*
X009212Y022076D01*
X009212Y022174D02*
X004552Y022174D01*
X004650Y022273D02*
X009223Y022273D01*
X009264Y022372D02*
X004749Y022372D01*
X001816Y019612D02*
X001101Y019612D01*
X001101Y019514D02*
X001718Y019514D01*
X001676Y019415D02*
X001101Y019415D01*
X001101Y019317D02*
X001636Y019317D01*
X001629Y019218D02*
X001101Y019218D01*
X001101Y019120D02*
X001629Y019120D01*
X001649Y019021D02*
X001101Y019021D01*
X001101Y018923D02*
X001690Y018923D01*
X001749Y018824D02*
X001101Y018824D01*
X001101Y018725D02*
X001848Y018725D01*
X001831Y018627D02*
X001101Y018627D01*
X001101Y018528D02*
X001732Y018528D01*
X001682Y018430D02*
X001101Y018430D01*
X001101Y018331D02*
X001642Y018331D01*
X001629Y018233D02*
X001101Y018233D01*
X001101Y018134D02*
X001629Y018134D01*
X001643Y018036D02*
X001101Y018036D01*
X001101Y017937D02*
X001684Y017937D01*
X001735Y017839D02*
X001101Y017839D01*
X001101Y017740D02*
X001833Y017740D01*
X001845Y017641D02*
X001101Y017641D01*
X001101Y017543D02*
X001747Y017543D01*
X001689Y017444D02*
X001101Y017444D01*
X001101Y017346D02*
X001648Y017346D01*
X001629Y017247D02*
X001101Y017247D01*
X001101Y017149D02*
X001629Y017149D01*
X001637Y017050D02*
X001101Y017050D01*
X001101Y016952D02*
X001677Y016952D01*
X001720Y016853D02*
X001101Y016853D01*
X001101Y016755D02*
X001819Y016755D01*
X001970Y016656D02*
X001101Y016656D01*
X002448Y016656D02*
X003431Y016656D01*
X003332Y016755D02*
X002599Y016755D01*
X002697Y016853D02*
X003266Y016853D01*
X003225Y016952D02*
X002740Y016952D01*
X002781Y017050D02*
X003208Y017050D01*
X003208Y017149D02*
X002789Y017149D01*
X002789Y017247D02*
X003224Y017247D01*
X009305Y020499D02*
X009359Y020499D01*
X010715Y022963D02*
X010762Y022963D01*
X010752Y023061D02*
X010861Y023061D01*
X010959Y023160D02*
X010752Y023160D01*
X010747Y023258D02*
X011058Y023258D01*
X011156Y023357D02*
X010706Y023357D01*
X010962Y023456D02*
X011255Y023456D01*
X001858Y025328D02*
X001101Y025328D01*
X001101Y025426D02*
X001782Y025426D01*
X001741Y025525D02*
X001101Y025525D01*
X001101Y025624D02*
X001709Y025624D01*
X001709Y025722D02*
X001101Y025722D01*
X001101Y025821D02*
X001709Y025821D01*
X001744Y025919D02*
X001101Y025919D01*
X001101Y026018D02*
X001785Y026018D01*
X001867Y026116D02*
X001101Y026116D01*
X001101Y026215D02*
X001973Y026215D01*
X001961Y026313D02*
X001101Y026313D01*
X001101Y026412D02*
X001868Y026412D01*
X001811Y026510D02*
X001101Y026510D01*
X001101Y026609D02*
X001779Y026609D01*
X001776Y026806D02*
X001101Y026806D01*
X001101Y026707D02*
X002239Y026707D01*
X001803Y026905D02*
X001101Y026905D01*
X001101Y027003D02*
X001853Y027003D01*
X001937Y027102D02*
X001101Y027102D01*
X011721Y007886D02*
X012962Y007886D01*
X013061Y007787D02*
X011808Y007787D01*
X011863Y007689D02*
X013159Y007689D01*
X013258Y007590D02*
X011892Y007590D01*
X011892Y007393D02*
X013455Y007393D01*
X013356Y007492D02*
X011431Y007492D01*
X011864Y007294D02*
X013554Y007294D01*
X013652Y007196D02*
X011809Y007196D01*
X011723Y007097D02*
X013751Y007097D01*
X004886Y003156D02*
X001101Y003156D01*
X001101Y003254D02*
X004619Y003254D01*
X004474Y003353D02*
X001101Y003353D01*
X001101Y003451D02*
X004368Y003451D01*
X004286Y003550D02*
X001101Y003550D01*
X001101Y003648D02*
X004224Y003648D01*
X004176Y003747D02*
X001101Y003747D01*
X001101Y003845D02*
X004142Y003845D01*
X004118Y003944D02*
X001101Y003944D01*
D26*
X028601Y009101D02*
X030601Y011101D01*
X032601Y011101D01*
X035601Y010041D02*
X035601Y009101D01*
X035601Y010041D02*
X041661Y010041D01*
X042101Y009601D01*
X042860Y010028D02*
X042860Y008400D01*
X038601Y004141D01*
X038601Y003601D01*
X042860Y010028D02*
X040947Y011941D01*
X040947Y013255D01*
X034101Y020101D01*
X034101Y022601D01*
X029734Y023234D02*
X029101Y022601D01*
X029734Y023234D02*
X041327Y023234D01*
X041327Y023327D01*
X042101Y024101D01*
X041327Y023234D02*
X041327Y015375D01*
X042101Y014601D01*
D27*
X015443Y012317D03*
M02*
