G75*
G70*
%OFA0B0*%
%FSLAX24Y24*%
%IPPOS*%
%LPD*%
%AMOC8*
5,1,8,0,0,1.08239X$1,22.5*
%
%ADD10R,0.0630X0.0315*%
%ADD11R,0.0315X0.0630*%
%ADD12R,0.0780X0.0209*%
D10*
X018284Y021752D03*
X018284Y022225D03*
X018284Y022697D03*
X018284Y023170D03*
X018284Y023642D03*
X018284Y024115D03*
X018284Y024587D03*
X018284Y025059D03*
X018284Y025532D03*
X018284Y026004D03*
X018284Y026477D03*
X018284Y026949D03*
X023481Y026949D03*
X023481Y026477D03*
X023481Y026004D03*
X023481Y025532D03*
X023481Y025059D03*
X023481Y024587D03*
X023481Y024115D03*
X023481Y023642D03*
X023481Y023170D03*
X023481Y022697D03*
X023481Y022225D03*
X023481Y021752D03*
D11*
X022506Y020650D03*
X022103Y020650D03*
X021631Y020650D03*
X021158Y020650D03*
X020607Y020650D03*
X020135Y020650D03*
X019662Y020650D03*
X019260Y020650D03*
X021513Y028052D03*
X022143Y028052D03*
X022773Y028052D03*
D12*
X016116Y008351D03*
X016116Y008851D03*
X016116Y009351D03*
X016116Y009851D03*
X016116Y010351D03*
X016116Y010851D03*
X016116Y011351D03*
X016116Y011851D03*
X016116Y012351D03*
X016116Y012851D03*
X019805Y012851D03*
X019805Y012351D03*
X019805Y011851D03*
X019805Y011351D03*
X019805Y010851D03*
X019805Y010351D03*
X019805Y009851D03*
X019805Y009351D03*
X019805Y008851D03*
X019805Y008351D03*
M02*
