G75*
G70*
%OFA0B0*%
%FSLAX24Y24*%
%IPPOS*%
%LPD*%
%AMOC8*
5,1,8,0,0,1.08239X$1,22.5*
%
%ADD10R,0.0138X0.0433*%
%ADD11R,0.0138X0.0591*%
%ADD12R,0.0630X0.0709*%
%ADD13R,0.0709X0.0630*%
%ADD14R,0.0315X0.0630*%
%ADD15R,0.0630X0.0315*%
%ADD16C,0.0570*%
%ADD17C,0.0740*%
%ADD18C,0.0080*%
%ADD19C,0.0400*%
D10*
X005589Y002469D03*
X006613Y002469D03*
D11*
X006357Y002391D03*
X006101Y002391D03*
X005845Y002391D03*
D12*
X004252Y001402D03*
X003150Y001402D03*
X012550Y007702D03*
X013652Y007702D03*
X015550Y006202D03*
X016652Y006202D03*
D13*
X017101Y007650D03*
X017101Y008753D03*
X015601Y008853D03*
X015601Y007750D03*
X011101Y007753D03*
X011101Y006650D03*
X009101Y006650D03*
X009101Y007753D03*
X003801Y008450D03*
X003801Y009553D03*
D14*
X020502Y009300D03*
X020975Y009300D03*
X021447Y009300D03*
X021920Y009300D03*
X022392Y009300D03*
X022865Y009300D03*
X023337Y009300D03*
X023809Y009300D03*
X024282Y009300D03*
X024754Y009300D03*
X025227Y009300D03*
X025699Y009300D03*
X025699Y004103D03*
X025227Y004103D03*
X024754Y004103D03*
X024282Y004103D03*
X023809Y004103D03*
X023337Y004103D03*
X022865Y004103D03*
X022392Y004103D03*
X021920Y004103D03*
X021447Y004103D03*
X020975Y004103D03*
X020502Y004103D03*
D15*
X019400Y005079D03*
X019400Y005481D03*
X019400Y005954D03*
X019400Y006426D03*
X019400Y006977D03*
X019400Y007450D03*
X019400Y007922D03*
X019400Y008324D03*
X026802Y008591D03*
X026802Y007961D03*
X026802Y007331D03*
D16*
X002394Y021402D03*
X001607Y021402D03*
D17*
X008821Y002592D03*
X008821Y000812D03*
X011381Y000812D03*
X011381Y002592D03*
X013601Y001702D03*
X014601Y001702D03*
X015601Y001702D03*
X016601Y001702D03*
X017601Y001702D03*
X018601Y001702D03*
X019601Y001702D03*
D18*
X002705Y002078D02*
X002705Y000967D01*
X002755Y000917D01*
X003545Y000917D01*
X003807Y001179D01*
X003807Y001402D01*
X004252Y001402D01*
X004697Y001402D01*
X008341Y001402D01*
X009327Y002387D01*
X009327Y002803D01*
X009019Y003111D01*
X009019Y003627D01*
X012240Y006848D01*
X013678Y006848D01*
X014097Y007267D01*
X014097Y008111D01*
X013951Y008258D01*
X013628Y008258D01*
X010560Y011326D01*
X010560Y013639D01*
X010596Y013675D01*
X010596Y014998D01*
X010273Y015321D01*
X010273Y021322D01*
X010413Y021463D01*
X011152Y018884D02*
X019815Y018884D01*
X020754Y017945D01*
X020014Y017171D02*
X018878Y018307D01*
X013524Y018307D01*
X012259Y017042D01*
X011763Y017042D02*
X013199Y018478D01*
X019193Y018478D01*
X020875Y016796D01*
X021733Y015058D02*
X019029Y015058D01*
X018610Y014734D02*
X018610Y014618D01*
X020065Y013164D01*
X020030Y012663D02*
X019146Y012663D01*
X017890Y011407D01*
X017890Y011249D01*
X019234Y012271D02*
X019879Y012271D01*
X025641Y018033D01*
X025641Y018128D01*
X026135Y018136D02*
X026135Y018370D01*
X026135Y018136D02*
X019889Y011890D01*
X019664Y011890D01*
X020182Y011582D02*
X021721Y011582D01*
X027779Y017641D01*
X024918Y017798D02*
X024472Y017798D01*
X021733Y015058D01*
X020030Y012663D02*
X024459Y017091D01*
X024459Y017317D01*
X016455Y017964D02*
X015389Y016898D01*
X015389Y016587D01*
X011229Y016587D01*
X010888Y016461D02*
X010888Y016984D01*
X011300Y017395D01*
X011300Y018554D01*
X011152Y018884D02*
X010465Y018197D01*
X010465Y015846D01*
X010890Y015421D01*
X010890Y011469D01*
X011427Y010931D01*
X011759Y011010D02*
X011759Y011307D01*
X011072Y011994D01*
X011072Y013507D01*
X011411Y013846D01*
X010396Y013994D02*
X010230Y013828D01*
X010230Y009577D01*
X012105Y007702D01*
X012550Y007702D01*
X012937Y007209D02*
X008579Y007209D01*
X001970Y013818D01*
X002173Y012284D02*
X002173Y011625D01*
X003801Y009998D01*
X003801Y009553D01*
X003801Y008895D02*
X003471Y008895D01*
X000909Y011458D01*
X003801Y008895D02*
X003801Y008673D01*
X003801Y008450D01*
X003801Y003174D01*
X002705Y002078D01*
X003150Y001402D02*
X003595Y001402D01*
X003595Y001624D01*
X004049Y002078D01*
X005589Y002078D01*
X005702Y001965D01*
X008194Y001965D01*
X008821Y002592D01*
X009019Y003111D02*
X006908Y003111D01*
X006613Y002816D01*
X006613Y002469D01*
X006357Y002391D02*
X006357Y002816D01*
X010191Y006650D01*
X011101Y006650D01*
X011101Y007753D02*
X011101Y008198D01*
X010046Y009253D01*
X010046Y013885D01*
X010120Y013959D01*
X010120Y014459D01*
X010066Y014514D01*
X010396Y014650D02*
X010396Y013994D01*
X009790Y014096D02*
X009101Y013407D01*
X009101Y008198D01*
X009101Y007753D01*
X009101Y006650D02*
X009101Y006205D01*
X006101Y003205D01*
X006101Y002391D01*
X005589Y002469D02*
X005589Y002078D01*
X008821Y000812D02*
X009071Y001062D01*
X010880Y001062D01*
X010880Y002801D01*
X011185Y003107D01*
X011576Y003107D01*
X012365Y002318D01*
X012365Y001472D01*
X013160Y000676D01*
X018844Y000676D01*
X019131Y000964D01*
X019591Y000964D01*
X020104Y001477D01*
X020104Y003477D01*
X023628Y003477D01*
X023809Y003658D01*
X023809Y004103D01*
X025699Y004103D02*
X025699Y003658D01*
X022717Y000676D01*
X019169Y000676D01*
X018999Y000506D01*
X013090Y000506D01*
X012990Y000606D01*
X012990Y000606D01*
X012135Y001461D01*
X012135Y001602D01*
X012185Y001652D01*
X011381Y002456D01*
X011381Y002592D01*
X012739Y001370D02*
X012739Y005643D01*
X014267Y007171D01*
X014267Y008501D01*
X011759Y011010D01*
X012089Y011146D02*
X014443Y008792D01*
X014443Y007101D01*
X012909Y005566D01*
X012909Y001440D01*
X013323Y001026D01*
X017925Y001026D01*
X018601Y001702D01*
X016207Y004095D01*
X016207Y006645D01*
X016767Y007205D01*
X017101Y007205D01*
X017101Y007650D01*
X016114Y007250D02*
X016114Y008371D01*
X016235Y008371D01*
X016616Y008753D01*
X017101Y008753D01*
X017585Y009122D02*
X016870Y009837D01*
X016212Y009837D01*
X016780Y010176D02*
X015601Y010176D01*
X015601Y016375D01*
X015389Y016587D01*
X012742Y014291D02*
X012742Y012079D01*
X014311Y010510D01*
X014798Y010724D02*
X014798Y012552D01*
X010888Y016461D01*
X010702Y016331D02*
X012742Y014291D01*
X011409Y012698D02*
X015007Y009099D01*
X015007Y008580D01*
X015392Y008195D01*
X015601Y008195D01*
X015601Y007750D01*
X015601Y007713D01*
X015601Y007305D01*
X014601Y006305D01*
X014601Y001702D01*
X013393Y001196D02*
X013100Y001489D01*
X013100Y005045D01*
X014613Y006558D01*
X014613Y009089D01*
X011527Y012175D01*
X011402Y012175D01*
X010396Y014650D02*
X003645Y021402D01*
X002394Y021402D01*
X010702Y017938D02*
X010702Y016331D01*
X010702Y017938D02*
X010795Y018031D01*
X015601Y010176D02*
X015601Y009298D01*
X015601Y008853D01*
X015601Y008408D01*
X016077Y008408D01*
X016114Y008371D01*
X016114Y007250D02*
X015550Y006686D01*
X015550Y006202D01*
X015550Y003753D01*
X017601Y001702D01*
X016601Y001702D02*
X016095Y001196D01*
X013393Y001196D01*
X013253Y000856D02*
X012739Y001370D01*
X013253Y000856D02*
X018755Y000856D01*
X019601Y001702D01*
X019822Y003477D02*
X017097Y006202D01*
X016652Y006202D01*
X017097Y006202D02*
X017585Y006690D01*
X017585Y009122D01*
X018356Y008600D02*
X018356Y005462D01*
X020161Y003658D01*
X020975Y003658D01*
X020975Y004103D01*
X020502Y004103D02*
X020502Y004548D01*
X025699Y004548D01*
X025699Y004326D01*
X025699Y004103D01*
X025699Y004548D02*
X025699Y006452D01*
X026579Y007331D01*
X026802Y007331D01*
X026579Y007331D02*
X026357Y007331D01*
X026357Y008591D01*
X026802Y008591D01*
X024282Y008855D02*
X023160Y008855D01*
X021899Y007595D01*
X020975Y008855D02*
X019678Y008855D01*
X019357Y009175D01*
X020123Y009847D02*
X020225Y009745D01*
X020502Y009745D01*
X020502Y009300D01*
X020975Y009300D02*
X020975Y008855D01*
X021447Y009300D02*
X021447Y009745D01*
X021920Y009745D01*
X021920Y009300D01*
X019845Y007922D02*
X019845Y005481D01*
X019845Y005206D01*
X020502Y004548D01*
X019845Y005481D02*
X019400Y005481D01*
X019822Y003477D02*
X020104Y003477D01*
X019845Y007922D02*
X019400Y007922D01*
X018356Y008600D02*
X016780Y010176D01*
X013652Y007702D02*
X013207Y007702D01*
X013207Y007479D01*
X012937Y007209D01*
X011130Y001062D02*
X010880Y001062D01*
X011130Y001062D02*
X011381Y000812D01*
X024282Y008855D02*
X024282Y009300D01*
D19*
X021899Y007595D03*
X019357Y009175D03*
X020123Y009847D03*
X020182Y011582D03*
X019664Y011890D03*
X019234Y012271D03*
X020065Y013164D03*
X018610Y014734D03*
X019029Y015058D03*
X020875Y016796D03*
X020014Y017171D03*
X020754Y017945D03*
X024459Y017317D03*
X024918Y017798D03*
X025641Y018128D03*
X026135Y018370D03*
X027779Y017641D03*
X017890Y011249D03*
X016212Y009837D03*
X014798Y010724D03*
X014311Y010510D03*
X012089Y011146D03*
X011427Y010931D03*
X011402Y012175D03*
X011409Y012698D03*
X011411Y013846D03*
X010560Y013639D03*
X009790Y014096D03*
X010066Y014514D03*
X011229Y016587D03*
X011763Y017042D03*
X012259Y017042D03*
X010795Y018031D03*
X011300Y018554D03*
X010413Y021463D03*
X016455Y017964D03*
X012240Y006848D03*
X002173Y012284D03*
X000909Y011458D03*
X001970Y013818D03*
M02*
