G75*
G70*
%OFA0B0*%
%FSLAX24Y24*%
%IPPOS*%
%LPD*%
%AMOC8*
5,1,8,0,0,1.08239X$1,22.5*
%
%ADD10C,0.0010*%
%ADD11C,0.0030*%
%ADD12C,0.0020*%
%ADD13C,0.0080*%
D10*
X003195Y001996D02*
X003295Y001996D01*
X003295Y001846D01*
X003342Y001846D02*
X003342Y001946D01*
X003295Y001921D02*
X003245Y001921D01*
X003342Y001846D02*
X003417Y001846D01*
X003442Y001871D01*
X003442Y001946D01*
X003540Y001996D02*
X003540Y001846D01*
X003590Y001846D02*
X003490Y001846D01*
X003590Y001946D02*
X003540Y001996D01*
X008515Y006698D02*
X008515Y006748D01*
X008540Y006773D01*
X008565Y006773D01*
X008590Y006748D01*
X008590Y006673D01*
X008540Y006673D01*
X008515Y006698D01*
X008590Y006673D02*
X008641Y006723D01*
X008666Y006773D01*
X008641Y006820D02*
X008616Y006820D01*
X008590Y006845D01*
X008590Y006895D01*
X008565Y006920D01*
X008540Y006920D01*
X008515Y006895D01*
X008515Y006845D01*
X008540Y006820D01*
X008565Y006820D01*
X008590Y006845D01*
X008590Y006895D02*
X008616Y006920D01*
X008641Y006920D01*
X008666Y006895D01*
X008666Y006845D01*
X008641Y006820D01*
X010527Y006837D02*
X010527Y006887D01*
X010552Y006912D01*
X010577Y006912D01*
X010602Y006887D01*
X010602Y006812D01*
X010552Y006812D01*
X010527Y006837D01*
X010602Y006812D02*
X010652Y006862D01*
X010677Y006912D01*
X010652Y006959D02*
X010627Y006959D01*
X010602Y006984D01*
X010602Y007034D01*
X010577Y007059D01*
X010552Y007059D01*
X010527Y007034D01*
X010527Y006984D01*
X010552Y006959D01*
X010577Y006959D01*
X010602Y006984D01*
X010602Y007034D02*
X010627Y007059D01*
X010652Y007059D01*
X010677Y007034D01*
X010677Y006984D01*
X010652Y006959D01*
X013243Y007134D02*
X013268Y007109D01*
X013318Y007109D01*
X013343Y007134D01*
X013390Y007134D02*
X013390Y007159D01*
X013415Y007184D01*
X013490Y007184D01*
X013490Y007134D01*
X013465Y007109D01*
X013415Y007109D01*
X013390Y007134D01*
X013343Y007184D02*
X013293Y007209D01*
X013268Y007209D01*
X013243Y007184D01*
X013243Y007134D01*
X013343Y007184D02*
X013343Y007259D01*
X013243Y007259D01*
X013390Y007259D02*
X013440Y007234D01*
X013490Y007184D01*
X013538Y007109D02*
X013638Y007109D01*
X013588Y007109D02*
X013588Y007259D01*
X013638Y007209D01*
X015012Y007765D02*
X015012Y007865D01*
X015012Y007815D02*
X015162Y007815D01*
X015112Y007765D01*
X015137Y007912D02*
X015037Y007912D01*
X015137Y008012D01*
X015037Y008012D01*
X015012Y007987D01*
X015012Y007937D01*
X015037Y007912D01*
X015137Y007912D02*
X015162Y007937D01*
X015162Y007987D01*
X015137Y008012D01*
X015162Y008059D02*
X015012Y008059D01*
X015062Y008059D02*
X015112Y008134D01*
X015062Y008059D02*
X015012Y008134D01*
X016507Y008013D02*
X016557Y007938D01*
X016607Y008013D01*
X016657Y007938D02*
X016507Y007938D01*
X016532Y007890D02*
X016507Y007865D01*
X016507Y007815D01*
X016532Y007790D01*
X016632Y007890D01*
X016532Y007890D01*
X016532Y007790D02*
X016632Y007790D01*
X016657Y007815D01*
X016657Y007865D01*
X016632Y007890D01*
X016507Y007743D02*
X016507Y007643D01*
X016507Y007693D02*
X016657Y007693D01*
X016607Y007643D01*
X016595Y005768D02*
X016595Y005617D01*
X016645Y005617D02*
X016545Y005617D01*
X016498Y005642D02*
X016397Y005743D01*
X016397Y005642D01*
X016423Y005617D01*
X016473Y005617D01*
X016498Y005642D01*
X016498Y005743D01*
X016473Y005768D01*
X016423Y005768D01*
X016397Y005743D01*
X016350Y005768D02*
X016350Y005617D01*
X016350Y005668D02*
X016275Y005718D01*
X016350Y005668D02*
X016275Y005617D01*
X016595Y005768D02*
X016645Y005718D01*
X003356Y008484D02*
X003356Y008534D01*
X003331Y008559D01*
X003231Y008459D01*
X003206Y008484D01*
X003206Y008534D01*
X003231Y008559D01*
X003331Y008559D01*
X003356Y008484D02*
X003331Y008459D01*
X003231Y008459D01*
D11*
X013396Y000867D02*
X013396Y000722D01*
X013686Y000722D01*
X013686Y000867D01*
X013638Y000915D01*
X013444Y000915D01*
X013396Y000867D01*
X013444Y000621D02*
X013396Y000572D01*
X013396Y000476D01*
X013444Y000427D01*
X013638Y000427D01*
X013686Y000476D01*
X013686Y000572D01*
X013638Y000621D01*
X014496Y000572D02*
X014496Y000427D01*
X014786Y000427D01*
X014786Y000572D01*
X014738Y000621D01*
X014544Y000621D01*
X014496Y000572D01*
X014544Y000722D02*
X014496Y000770D01*
X014496Y000867D01*
X014544Y000915D01*
X014738Y000915D01*
X014786Y000867D01*
X014786Y000770D01*
X014738Y000722D01*
X014544Y000722D01*
X015416Y000805D02*
X015706Y000805D01*
X015706Y000906D02*
X015706Y001051D01*
X015658Y001099D01*
X015464Y001099D01*
X015416Y001051D01*
X015416Y000906D01*
X015706Y000906D01*
X015706Y000611D02*
X015416Y000611D01*
X015464Y000510D02*
X015416Y000462D01*
X015416Y000365D01*
X015464Y000317D01*
X015658Y000317D01*
X015706Y000365D01*
X015706Y000462D01*
X015658Y000510D01*
X015561Y000510D02*
X015561Y000413D01*
X015561Y000510D02*
X015464Y000510D01*
X015706Y000611D02*
X015416Y000805D01*
X016396Y000822D02*
X016686Y000822D01*
X016638Y000721D02*
X016686Y000672D01*
X016686Y000576D01*
X016638Y000527D01*
X016444Y000527D01*
X016396Y000576D01*
X016396Y000672D01*
X016444Y000721D01*
X016493Y000822D02*
X016686Y001015D01*
X016541Y000870D02*
X016396Y001015D01*
X016444Y000426D02*
X016396Y000378D01*
X016396Y000281D01*
X016444Y000233D01*
X016541Y000281D02*
X016589Y000233D01*
X016638Y000233D01*
X016686Y000281D01*
X016686Y000378D01*
X016638Y000426D01*
X016541Y000378D02*
X016493Y000426D01*
X016444Y000426D01*
X016541Y000378D02*
X016541Y000281D01*
X018396Y000426D02*
X018396Y000571D01*
X018444Y000619D01*
X018638Y000619D01*
X018686Y000571D01*
X018686Y000426D01*
X018396Y000426D01*
X018396Y000720D02*
X018396Y000817D01*
X018396Y000769D02*
X018686Y000769D01*
X018686Y000817D02*
X018686Y000720D01*
X019441Y000688D02*
X019490Y000640D01*
X019441Y000688D02*
X019441Y000785D01*
X019490Y000833D01*
X019538Y000833D01*
X019586Y000785D01*
X019586Y000688D01*
X019635Y000640D01*
X019683Y000640D01*
X019731Y000688D01*
X019731Y000785D01*
X019683Y000833D01*
X019683Y000538D02*
X019731Y000490D01*
X019731Y000393D01*
X019683Y000345D01*
X019490Y000345D01*
X019441Y000393D01*
X019441Y000490D01*
X019490Y000538D01*
D12*
X017791Y000606D02*
X017791Y000680D01*
X017754Y000716D01*
X017718Y000716D01*
X017681Y000680D01*
X017644Y000716D01*
X017607Y000716D01*
X017571Y000680D01*
X017571Y000606D01*
X017607Y000570D01*
X017607Y000496D02*
X017571Y000496D01*
X017571Y000459D01*
X017607Y000459D01*
X017607Y000496D01*
X017607Y000385D02*
X017571Y000348D01*
X017571Y000275D01*
X017607Y000238D01*
X017681Y000312D02*
X017681Y000348D01*
X017644Y000385D01*
X017607Y000385D01*
X017681Y000348D02*
X017718Y000385D01*
X017754Y000385D01*
X017791Y000348D01*
X017791Y000275D01*
X017754Y000238D01*
X017754Y000570D02*
X017791Y000606D01*
X017681Y000643D02*
X017681Y000680D01*
X017644Y000791D02*
X017571Y000864D01*
X017644Y000937D01*
X017791Y000937D01*
X017791Y000791D02*
X017644Y000791D01*
D13*
X017851Y001202D02*
X017351Y001202D01*
X017101Y001452D01*
X016851Y001202D01*
X016351Y001202D01*
X016101Y001452D01*
X015851Y001202D01*
X015351Y001202D01*
X015101Y001452D01*
X014851Y001202D01*
X014351Y001202D01*
X014101Y001452D01*
X013851Y001202D01*
X013351Y001202D01*
X013101Y001452D01*
X013101Y001952D01*
X013351Y002202D01*
X013851Y002202D01*
X014101Y001952D01*
X014351Y002202D01*
X014851Y002202D01*
X015101Y001952D01*
X015351Y002202D01*
X015851Y002202D01*
X016101Y001952D01*
X016351Y002202D01*
X016851Y002202D01*
X017101Y001952D01*
X017351Y002202D01*
X017851Y002202D01*
X018101Y001952D01*
X018351Y002202D01*
X018851Y002202D01*
X019101Y001952D01*
X019351Y002202D01*
X019851Y002202D01*
X020101Y001952D01*
X020101Y001452D01*
X019851Y001202D01*
X019351Y001202D01*
X019101Y001452D01*
X018851Y001202D01*
X018351Y001202D01*
X018101Y001452D01*
X017851Y001202D01*
X019400Y004103D02*
X019794Y004103D01*
X019400Y004103D02*
X019400Y004497D01*
X019400Y008906D02*
X019400Y009300D01*
X019794Y009300D01*
X026447Y009300D02*
X027117Y009300D01*
X029164Y009300D02*
X029557Y009300D01*
X029557Y008906D01*
X029557Y004497D02*
X029557Y004103D01*
X029164Y004103D01*
X027117Y004103D02*
X026447Y004103D01*
X003182Y020693D02*
X003182Y023764D01*
X000820Y023764D01*
X000820Y020693D01*
X001213Y020693D01*
X001213Y021402D01*
X002788Y021402D02*
X002788Y020693D01*
X003182Y020693D01*
M02*
