G75*
G70*
%OFA0B0*%
%FSLAX24Y24*%
%IPPOS*%
%LPD*%
%AMOC8*
5,1,8,0,0,1.08239X$1,22.5*
%
%ADD10R,0.0218X0.0513*%
%ADD11R,0.0218X0.0671*%
%ADD12C,0.0415*%
%ADD13R,0.0710X0.0789*%
%ADD14R,0.0789X0.0710*%
%ADD15R,0.0395X0.0710*%
%ADD16R,0.0710X0.0395*%
%ADD17C,0.0650*%
%ADD18C,0.0820*%
D10*
X005589Y002469D03*
X006613Y002469D03*
D11*
X006357Y002391D03*
X006101Y002391D03*
X005845Y002391D03*
D12*
X002691Y004502D03*
X001510Y004502D03*
D13*
X003150Y001402D03*
X004252Y001402D03*
X012550Y007702D03*
X013652Y007702D03*
X015550Y006202D03*
X016652Y006202D03*
D14*
X017101Y007650D03*
X017101Y008753D03*
X015601Y008853D03*
X015601Y007750D03*
X011101Y007753D03*
X011101Y006650D03*
X009101Y006650D03*
X009101Y007753D03*
X003801Y008450D03*
X003801Y009553D03*
D15*
X020502Y009300D03*
X020975Y009300D03*
X021447Y009300D03*
X021920Y009300D03*
X022392Y009300D03*
X022865Y009300D03*
X023337Y009300D03*
X023809Y009300D03*
X024282Y009300D03*
X024754Y009300D03*
X025227Y009300D03*
X025699Y009300D03*
X025699Y004103D03*
X025227Y004103D03*
X024754Y004103D03*
X024282Y004103D03*
X023809Y004103D03*
X023337Y004103D03*
X022865Y004103D03*
X022392Y004103D03*
X021920Y004103D03*
X021447Y004103D03*
X020975Y004103D03*
X020502Y004103D03*
D16*
X019400Y005079D03*
X019400Y005481D03*
X019400Y005954D03*
X019400Y006426D03*
X019400Y006977D03*
X019400Y007450D03*
X019400Y007922D03*
X019400Y008324D03*
X026802Y008591D03*
X026802Y007961D03*
X026802Y007331D03*
D17*
X002394Y021402D03*
X001607Y021402D03*
D18*
X008821Y002592D03*
X008821Y000812D03*
X011381Y000812D03*
X011381Y002592D03*
X013601Y001702D03*
X014601Y001702D03*
X015601Y001702D03*
X016601Y001702D03*
X017601Y001702D03*
X018601Y001702D03*
X019601Y001702D03*
M02*
