G75*
G70*
%OFA0B0*%
%FSLAX24Y24*%
%IPPOS*%
%LPD*%
%AMOC8*
5,1,8,0,0,1.08239X$1,22.5*
%
%ADD10C,0.0640*%
%ADD11OC8,0.0820*%
%ADD12C,0.0820*%
%ADD13C,0.1780*%
%ADD14C,0.0730*%
%ADD15C,0.0050*%
%ADD16OC8,0.0640*%
%ADD17R,0.0710X0.0395*%
%ADD18R,0.0395X0.0710*%
%ADD19C,0.0720*%
%ADD20C,0.1380*%
%ADD21C,0.0760*%
%ADD22C,0.1064*%
%ADD23R,0.0820X0.0820*%
%ADD24OC8,0.0710*%
%ADD25OC8,0.1320*%
%ADD26C,0.1320*%
D10*
X011702Y009149D02*
X012262Y009149D01*
X012262Y010149D02*
X011702Y010149D01*
X011702Y011149D02*
X012262Y011149D01*
X012262Y012149D02*
X011702Y012149D01*
X011702Y013149D02*
X012262Y013149D01*
X012262Y014149D02*
X011702Y014149D01*
X011702Y015149D02*
X012262Y015149D01*
X012262Y016149D02*
X011702Y016149D01*
X011702Y017149D02*
X012262Y017149D01*
X012262Y018149D02*
X011702Y018149D01*
X011702Y019149D02*
X012262Y019149D01*
X012262Y020149D02*
X011702Y020149D01*
X011702Y021149D02*
X012262Y021149D01*
X012262Y022149D02*
X011702Y022149D01*
X014702Y022149D02*
X015262Y022149D01*
X015262Y021149D02*
X014702Y021149D01*
X014702Y020149D02*
X015262Y020149D01*
X015262Y019149D02*
X014702Y019149D01*
X014702Y018149D02*
X015262Y018149D01*
X015262Y017149D02*
X014702Y017149D01*
X014702Y016149D02*
X015262Y016149D01*
X015262Y015149D02*
X014702Y015149D01*
X014702Y014149D02*
X015262Y014149D01*
X015262Y013149D02*
X014702Y013149D01*
X014702Y012149D02*
X015262Y012149D01*
X015262Y011149D02*
X014702Y011149D01*
X014702Y010149D02*
X015262Y010149D01*
X015262Y009149D02*
X014702Y009149D01*
X030601Y006161D02*
X030601Y005601D01*
X031601Y005601D02*
X031601Y006161D01*
X032601Y006161D02*
X032601Y005601D01*
X036601Y005601D02*
X036601Y006161D01*
X037601Y006161D02*
X037601Y005601D01*
X038601Y005601D02*
X038601Y006161D01*
X038601Y002601D02*
X038601Y002041D01*
X037601Y002041D02*
X037601Y002601D01*
X036601Y002601D02*
X036601Y002041D01*
X032601Y002041D02*
X032601Y002601D01*
X031601Y002601D02*
X031601Y002041D01*
X030601Y002041D02*
X030601Y002601D01*
D11*
X003101Y009101D03*
X002101Y009101D03*
X002101Y010101D03*
X003101Y010101D03*
X003101Y011101D03*
X002101Y011101D03*
D12*
X002209Y017185D03*
X002209Y018185D03*
X002209Y019185D03*
X002209Y020185D03*
X002209Y021185D03*
X002209Y022185D03*
X002289Y024718D03*
X002289Y025718D03*
X002289Y026718D03*
X004491Y029081D03*
X005491Y029081D03*
X006491Y029081D03*
X008571Y029061D03*
X009571Y029061D03*
X010571Y029061D03*
X013345Y029071D03*
X014345Y029071D03*
X015345Y029071D03*
X024865Y026418D03*
X024865Y024638D03*
X027425Y024638D03*
X029101Y025101D03*
X027425Y026418D03*
X029101Y027601D03*
X034101Y027601D03*
X034101Y025101D03*
X034101Y021601D03*
X034101Y019101D03*
X029101Y019101D03*
X026601Y018101D03*
X028601Y015101D03*
X028601Y013101D03*
X028601Y011101D03*
X028601Y008101D03*
X026101Y007101D03*
X026101Y006101D03*
X026101Y005101D03*
X026101Y004101D03*
X026101Y003101D03*
X026101Y002101D03*
X022601Y002101D03*
X022601Y003101D03*
X022601Y004101D03*
X022601Y005101D03*
X022601Y006101D03*
X022601Y007101D03*
X020381Y002991D03*
X020381Y001211D03*
X017821Y001211D03*
X016101Y002101D03*
X017821Y002991D03*
X016101Y005101D03*
X012101Y005101D03*
X014101Y002101D03*
X033601Y008101D03*
X033601Y011101D03*
X033601Y013101D03*
X033601Y015101D03*
X029101Y021601D03*
X026601Y022101D03*
X018112Y019304D03*
X018112Y015304D03*
X009101Y019101D03*
X005101Y019101D03*
D13*
X005101Y006494D03*
X006951Y005313D03*
X005101Y004132D03*
D14*
X005101Y013101D03*
X006101Y013101D03*
X006101Y015101D03*
X005101Y015101D03*
X005101Y017101D03*
X006101Y017101D03*
X009101Y015243D03*
X009101Y013243D03*
X021714Y017970D03*
X022714Y017970D03*
D15*
X011277Y002239D02*
X011306Y002212D01*
X011328Y002178D01*
X011342Y002141D01*
X011348Y002101D01*
X011343Y002061D01*
X011329Y002024D01*
X011307Y001991D01*
X011279Y001964D01*
X011245Y001943D01*
X011207Y001931D01*
X011168Y001927D01*
X011129Y001931D01*
X011093Y001945D01*
X011061Y001965D01*
X011033Y001993D01*
X011013Y002026D01*
X011001Y002062D01*
X010997Y002101D01*
X011000Y002139D01*
X011012Y002175D01*
X011032Y002208D01*
X011058Y002236D01*
X011090Y002257D01*
X011126Y002271D01*
X011164Y002276D01*
X011204Y002272D01*
X011242Y002260D01*
X011277Y002239D01*
X011279Y002237D02*
X011059Y002237D01*
X011020Y002188D02*
X011321Y002188D01*
X011342Y002140D02*
X011000Y002140D01*
X010998Y002091D02*
X011347Y002091D01*
X011336Y002043D02*
X011008Y002043D01*
X011033Y001994D02*
X011309Y001994D01*
X011249Y001945D02*
X011092Y001945D01*
X010271Y002057D02*
X010257Y002020D01*
X010235Y001987D01*
X010207Y001960D01*
X010173Y001939D01*
X010135Y001927D01*
X010096Y001923D01*
X010057Y001927D01*
X010021Y001941D01*
X009989Y001961D01*
X009961Y001989D01*
X009941Y002022D01*
X009929Y002058D01*
X009925Y002097D01*
X009928Y002135D01*
X009940Y002171D01*
X009960Y002204D01*
X009986Y002232D01*
X010018Y002253D01*
X010054Y002267D01*
X010092Y002272D01*
X010132Y002268D01*
X010170Y002256D01*
X010205Y002235D01*
X010234Y002208D01*
X010256Y002174D01*
X010270Y002137D01*
X010276Y002097D01*
X010271Y002057D01*
X010265Y002043D02*
X009934Y002043D01*
X009925Y002091D02*
X010275Y002091D01*
X010269Y002140D02*
X009930Y002140D01*
X009950Y002188D02*
X010247Y002188D01*
X010202Y002237D02*
X009993Y002237D01*
X009958Y001994D02*
X010240Y001994D01*
X010184Y001945D02*
X010013Y001945D01*
X009201Y002060D02*
X009187Y002023D01*
X009165Y001990D01*
X009137Y001963D01*
X009103Y001942D01*
X009065Y001930D01*
X009026Y001926D01*
X008987Y001930D01*
X008951Y001944D01*
X008919Y001964D01*
X008891Y001992D01*
X008871Y002025D01*
X008859Y002061D01*
X008855Y002100D01*
X008858Y002138D01*
X008870Y002174D01*
X008890Y002207D01*
X008916Y002235D01*
X008948Y002256D01*
X008984Y002270D01*
X009022Y002275D01*
X009062Y002271D01*
X009100Y002259D01*
X009135Y002238D01*
X009164Y002211D01*
X009186Y002177D01*
X009200Y002140D01*
X008859Y002140D01*
X008856Y002091D02*
X009205Y002091D01*
X009206Y002100D02*
X009201Y002060D01*
X009194Y002043D02*
X008865Y002043D01*
X008890Y001994D02*
X009168Y001994D01*
X009109Y001945D02*
X008948Y001945D01*
X008878Y002188D02*
X009179Y002188D01*
X009200Y002140D02*
X009206Y002100D01*
X009136Y002237D02*
X008919Y002237D01*
D16*
X009101Y005601D03*
X010101Y005601D03*
D17*
X018284Y021752D03*
X018284Y022225D03*
X018284Y022697D03*
X018284Y023170D03*
X018284Y023642D03*
X018284Y024115D03*
X018284Y024587D03*
X018284Y025059D03*
X018284Y025532D03*
X018284Y026004D03*
X018284Y026477D03*
X018284Y026949D03*
X023481Y026949D03*
X023481Y026477D03*
X023481Y026004D03*
X023481Y025532D03*
X023481Y025059D03*
X023481Y024587D03*
X023481Y024115D03*
X023481Y023642D03*
X023481Y023170D03*
X023481Y022697D03*
X023481Y022225D03*
X023481Y021752D03*
D18*
X022506Y020650D03*
X022103Y020650D03*
X021631Y020650D03*
X021158Y020650D03*
X020607Y020650D03*
X020135Y020650D03*
X019662Y020650D03*
X019260Y020650D03*
X021513Y028052D03*
X022143Y028052D03*
X022773Y028052D03*
D19*
X023101Y009921D02*
X023101Y009281D01*
X024101Y009281D02*
X024101Y009921D01*
X025101Y009921D02*
X025101Y009281D01*
D20*
X001801Y001901D03*
X024101Y015501D03*
X036601Y016001D03*
X044401Y029301D03*
X044301Y001801D03*
X001801Y029201D03*
D21*
X035601Y009441D02*
X035601Y008761D01*
X036601Y008761D02*
X036601Y009441D01*
X037601Y009441D02*
X037601Y008761D01*
D22*
X041601Y008093D03*
X041601Y010101D03*
X041601Y012109D03*
X041601Y019593D03*
X041601Y021601D03*
X041601Y023609D03*
D23*
X002289Y023718D03*
D24*
X036101Y022901D03*
X038101Y022901D03*
D25*
X008601Y024101D03*
D26*
X005601Y024101D03*
M02*
