G75*
G70*
%OFA0B0*%
%FSLAX24Y24*%
%IPPOS*%
%LPD*%
%AMOC8*
5,1,8,0,0,1.08239X$1,22.5*
%
%ADD10C,0.0560*%
%ADD11OC8,0.0740*%
%ADD12C,0.0740*%
%ADD13C,0.1700*%
%ADD14C,0.0650*%
%ADD15OC8,0.0560*%
%ADD16R,0.0630X0.0315*%
%ADD17R,0.0315X0.0630*%
%ADD18C,0.0640*%
%ADD19C,0.0680*%
%ADD20C,0.0984*%
%ADD21R,0.1095X0.1095*%
%ADD22R,0.0780X0.0209*%
%ADD23R,0.0740X0.0740*%
%ADD24C,0.0080*%
%ADD25C,0.0400*%
%ADD26C,0.0320*%
D10*
X009702Y013149D02*
X010262Y013149D01*
X010262Y014149D02*
X009702Y014149D01*
X009702Y015149D02*
X010262Y015149D01*
X010262Y016149D02*
X009702Y016149D01*
X009702Y017149D02*
X010262Y017149D01*
X010262Y018149D02*
X009702Y018149D01*
X009702Y019149D02*
X010262Y019149D01*
X010262Y020149D02*
X009702Y020149D01*
X009702Y021149D02*
X010262Y021149D01*
X010262Y022149D02*
X009702Y022149D01*
X009702Y023149D02*
X010262Y023149D01*
X010262Y024149D02*
X009702Y024149D01*
X009702Y025149D02*
X010262Y025149D01*
X010262Y026149D02*
X009702Y026149D01*
X012702Y026149D02*
X013262Y026149D01*
X013262Y025149D02*
X012702Y025149D01*
X012702Y024149D02*
X013262Y024149D01*
X013262Y023149D02*
X012702Y023149D01*
X012702Y022149D02*
X013262Y022149D01*
X013262Y021149D02*
X012702Y021149D01*
X012702Y020149D02*
X013262Y020149D01*
X013262Y019149D02*
X012702Y019149D01*
X012702Y018149D02*
X013262Y018149D01*
X013262Y017149D02*
X012702Y017149D01*
X012702Y016149D02*
X013262Y016149D01*
X013262Y015149D02*
X012702Y015149D01*
X012702Y014149D02*
X013262Y014149D01*
X013262Y013149D02*
X012702Y013149D01*
X029601Y007161D02*
X029601Y006601D01*
X030601Y006601D02*
X030601Y007161D01*
X031601Y007161D02*
X031601Y006601D01*
X031601Y003601D02*
X031601Y003041D01*
X030601Y003041D02*
X030601Y003601D01*
X029601Y003601D02*
X029601Y003041D01*
X037601Y003041D02*
X037601Y003601D01*
X038601Y003601D02*
X038601Y003041D01*
X039601Y003041D02*
X039601Y003601D01*
X039601Y006601D02*
X039601Y007161D01*
X038601Y007161D02*
X038601Y006601D01*
X037601Y006601D02*
X037601Y007161D01*
D11*
X003101Y009101D03*
X002101Y009101D03*
X002101Y010101D03*
X003101Y010101D03*
X003101Y011101D03*
X002101Y011101D03*
D12*
X008821Y007491D03*
X011381Y007491D03*
X011381Y005711D03*
X008821Y005711D03*
X009031Y002101D03*
X010101Y002101D03*
X011171Y002101D03*
X015101Y001601D03*
X017321Y003711D03*
X017321Y005491D03*
X019881Y005491D03*
X022601Y005101D03*
X022601Y006101D03*
X022601Y007101D03*
X026101Y007101D03*
X026101Y006101D03*
X026101Y005101D03*
X026101Y004101D03*
X026101Y003101D03*
X026101Y002101D03*
X022601Y002101D03*
X022601Y003101D03*
X022601Y004101D03*
X019881Y003711D03*
X019101Y001601D03*
X014601Y004601D03*
X014601Y006601D03*
X028601Y009101D03*
X028601Y011101D03*
X028601Y013101D03*
X028601Y015101D03*
X032601Y015101D03*
X032601Y013101D03*
X032601Y011101D03*
X032601Y009101D03*
X026601Y018101D03*
X029101Y020101D03*
X026601Y022101D03*
X029101Y022601D03*
X027425Y024638D03*
X029101Y025101D03*
X027425Y026418D03*
X029101Y027601D03*
X024865Y026418D03*
X024865Y024638D03*
X034101Y025101D03*
X034101Y027601D03*
X034101Y022601D03*
X034101Y020101D03*
X020304Y018090D03*
X016304Y018090D03*
X007179Y016601D03*
X002209Y017185D03*
X002209Y018185D03*
X002209Y019185D03*
X002209Y020185D03*
X002209Y021185D03*
X002209Y022185D03*
X002289Y024718D03*
X003139Y025101D03*
X002289Y025718D03*
X002289Y026718D03*
X004491Y029081D03*
X005491Y029081D03*
X006491Y029081D03*
X008571Y029061D03*
X009571Y029061D03*
X010571Y029061D03*
X013345Y029071D03*
X014345Y029071D03*
X015345Y029071D03*
X007139Y025101D03*
X007179Y020601D03*
D13*
X005101Y004132D03*
X006951Y005313D03*
X005101Y006494D03*
D14*
X004243Y014101D03*
X006243Y014101D03*
X004743Y017101D03*
X003743Y017101D03*
X004178Y019641D03*
X005178Y019641D03*
X005258Y021601D03*
X004258Y021601D03*
X021714Y017970D03*
X022714Y017970D03*
X030601Y017601D03*
X031601Y017601D03*
D15*
X007101Y009601D03*
X006101Y009601D03*
D16*
X018284Y021752D03*
X018284Y022225D03*
X018284Y022697D03*
X018284Y023170D03*
X018284Y023642D03*
X018284Y024115D03*
X018284Y024587D03*
X018284Y025059D03*
X018284Y025532D03*
X018284Y026004D03*
X018284Y026477D03*
X018284Y026949D03*
X023481Y026949D03*
X023481Y026477D03*
X023481Y026004D03*
X023481Y025532D03*
X023481Y025059D03*
X023481Y024587D03*
X023481Y024115D03*
X023481Y023642D03*
X023481Y023170D03*
X023481Y022697D03*
X023481Y022225D03*
X023481Y021752D03*
D17*
X022506Y020650D03*
X022103Y020650D03*
X021631Y020650D03*
X021158Y020650D03*
X020607Y020650D03*
X020135Y020650D03*
X019662Y020650D03*
X019260Y020650D03*
X021513Y028052D03*
X022143Y028052D03*
X022773Y028052D03*
D18*
X023101Y009921D02*
X023101Y009281D01*
X024101Y009281D02*
X024101Y009921D01*
X025101Y009921D02*
X025101Y009281D01*
D19*
X035601Y009441D02*
X035601Y008761D01*
X036601Y008761D02*
X036601Y009441D01*
X037601Y009441D02*
X037601Y008761D01*
D20*
X041601Y010093D03*
X041601Y012101D03*
X041601Y014109D03*
X041601Y019593D03*
X041601Y021601D03*
X041601Y023609D03*
D21*
X020582Y014101D03*
X015382Y014101D03*
D22*
X016116Y012851D03*
X016116Y012351D03*
X016116Y011851D03*
X016116Y011351D03*
X016116Y010851D03*
X016116Y010351D03*
X016116Y009851D03*
X016116Y009351D03*
X016116Y008851D03*
X016116Y008351D03*
X019805Y008351D03*
X019805Y008851D03*
X019805Y009351D03*
X019805Y009851D03*
X019805Y010351D03*
X019805Y010851D03*
X019805Y011351D03*
X019805Y011851D03*
X019805Y012351D03*
X019805Y012851D03*
D23*
X002289Y023718D03*
D24*
X002289Y024208D01*
X002105Y024208D01*
X001779Y024534D01*
X001779Y025208D01*
X002289Y025718D01*
X004941Y028370D01*
X004941Y028591D01*
X008101Y028591D01*
X008571Y029061D01*
X009075Y029557D02*
X009571Y029061D01*
X010061Y028571D01*
X012845Y028571D01*
X013345Y029071D01*
X013843Y029569D01*
X015547Y029569D01*
X017849Y027266D01*
X017849Y026949D01*
X018284Y026949D01*
X018719Y026949D01*
X019387Y027617D01*
X021513Y027617D01*
X021513Y027834D01*
X021513Y028052D01*
X021513Y027617D02*
X022773Y027617D01*
X022773Y028052D01*
X022773Y027617D02*
X023699Y027617D01*
X024865Y026451D01*
X024865Y026418D01*
X027425Y026418D01*
X027425Y024638D02*
X024865Y024638D01*
X023963Y025540D01*
X023963Y027122D01*
X023849Y027235D01*
X022701Y027235D01*
X020525Y025059D01*
X018284Y025059D01*
X015345Y024635D02*
X013333Y022623D01*
X012142Y022623D01*
X010668Y021149D01*
X009982Y021149D01*
X010802Y021649D02*
X007389Y021649D01*
X005845Y020105D01*
X003129Y020105D01*
X002209Y019185D01*
X002861Y018837D02*
X007392Y018837D01*
X008290Y019735D01*
X010435Y019735D01*
X012302Y021602D01*
X012302Y022149D01*
X012982Y022149D01*
X012982Y023149D02*
X012302Y023149D01*
X010802Y021649D01*
X010802Y022649D02*
X004673Y022649D01*
X002209Y020185D01*
X002209Y021185D02*
X005573Y024549D01*
X011702Y024549D01*
X012302Y025149D01*
X012982Y025149D01*
X012982Y024149D02*
X012302Y024149D01*
X010802Y022649D01*
X012302Y021149D02*
X010722Y019569D01*
X009012Y019569D01*
X007548Y018105D01*
X003129Y018105D01*
X002209Y017185D01*
X002209Y018185D02*
X002861Y018837D01*
X004743Y017101D02*
X007254Y017101D01*
X009302Y019149D01*
X009982Y019149D01*
X011302Y019149D01*
X012302Y020149D01*
X012982Y020149D01*
X012982Y021149D02*
X012302Y021149D01*
X009982Y020149D02*
X009302Y020149D01*
X008850Y020601D01*
X007179Y020601D01*
X009088Y017549D02*
X007650Y016111D01*
X005620Y016111D01*
X001435Y011926D01*
X001435Y010069D01*
X001903Y009601D01*
X002314Y009601D01*
X002611Y009898D01*
X002611Y010101D01*
X003101Y010101D01*
X002898Y010591D02*
X002591Y010898D01*
X002591Y011101D01*
X002101Y011101D01*
X002101Y010591D02*
X001898Y010591D01*
X001595Y010894D01*
X001595Y011292D01*
X001972Y011670D01*
X002590Y011670D01*
X005858Y014937D01*
X007448Y014937D01*
X009060Y016549D01*
X010901Y016549D01*
X012302Y015149D01*
X012982Y015149D01*
X015610Y015149D01*
X019295Y011463D01*
X019295Y011351D01*
X019805Y011351D01*
X020255Y011113D02*
X018091Y011113D01*
X016616Y012587D01*
X015570Y012587D01*
X015420Y012736D01*
X011074Y012736D01*
X010662Y013149D01*
X009982Y013149D01*
X009567Y013601D02*
X008053Y012087D01*
X008053Y009958D01*
X007196Y009101D01*
X003101Y009101D01*
X002591Y009101D02*
X002591Y008898D01*
X003274Y008214D01*
X012987Y008214D01*
X014601Y006601D01*
X015446Y005755D01*
X015446Y002255D01*
X015601Y002101D01*
X022601Y002101D01*
X022601Y004101D02*
X021271Y004101D01*
X019881Y005491D01*
X017321Y005491D01*
X015606Y005425D02*
X015606Y010351D01*
X016116Y010351D01*
X016116Y010851D02*
X015606Y010851D01*
X015606Y012098D01*
X015288Y012416D01*
X016116Y012351D02*
X016626Y012351D01*
X016626Y012117D01*
X017759Y010984D01*
X016626Y009851D01*
X016371Y009851D01*
X016371Y009351D01*
X016116Y009351D01*
X016371Y009351D02*
X016626Y009351D01*
X016626Y009175D01*
X016302Y008851D01*
X016244Y008851D01*
X016244Y008351D01*
X016116Y008351D01*
X016116Y008851D02*
X016148Y008851D01*
X016244Y008851D01*
X016371Y009851D02*
X016116Y009851D01*
X017759Y010984D02*
X018392Y010351D01*
X019805Y010351D01*
X020315Y010351D01*
X020315Y009851D01*
X020060Y009851D01*
X019805Y009851D01*
X020060Y009851D02*
X020315Y009596D01*
X020315Y009351D01*
X019933Y009351D01*
X019933Y008851D01*
X019869Y008851D01*
X019869Y008351D01*
X019837Y008351D01*
X019805Y008351D01*
X019837Y008351D02*
X019881Y008307D01*
X019881Y005491D01*
X017321Y003711D02*
X015606Y005425D01*
X014601Y004601D02*
X012101Y002101D01*
X011171Y002101D01*
X015101Y001601D02*
X015601Y002101D01*
X011381Y005711D02*
X008821Y005711D01*
X008821Y007183D02*
X006951Y005313D01*
X006282Y005313D01*
X005101Y004132D01*
X008821Y007183D02*
X008821Y007491D01*
X011381Y007491D01*
X007101Y009601D02*
X006701Y009601D01*
X005711Y010591D01*
X002898Y010591D01*
X002101Y010591D02*
X002101Y010101D01*
X002101Y009101D02*
X002591Y009101D01*
X009567Y013601D02*
X010542Y013601D01*
X011772Y014831D01*
X012337Y014719D02*
X010907Y016149D01*
X010662Y016149D01*
X009982Y016149D01*
X009982Y017149D02*
X009023Y017149D01*
X007668Y015794D01*
X005936Y015794D01*
X004243Y014101D01*
X009088Y017549D02*
X011902Y017549D01*
X012302Y017149D01*
X012982Y017149D01*
X014997Y017149D01*
X019295Y012851D01*
X019805Y012851D01*
X019900Y012851D01*
X020315Y012851D01*
X020315Y011891D01*
X020275Y011851D01*
X019805Y011851D01*
X019805Y012351D02*
X019200Y012351D01*
X015402Y016149D01*
X012982Y016149D01*
X013259Y014719D02*
X012337Y014719D01*
X013259Y014719D02*
X015081Y012896D01*
X015561Y012896D01*
X015606Y012851D01*
X016116Y012851D01*
X019805Y010851D02*
X020315Y010851D01*
X020648Y011184D01*
X020648Y013367D01*
X020582Y013433D01*
X020582Y014101D01*
X019914Y013504D02*
X020482Y012936D01*
X020482Y011339D01*
X020255Y011113D01*
X020350Y010385D02*
X020315Y010351D01*
X020350Y010385D02*
X023261Y010385D01*
X023661Y009986D01*
X023661Y009601D01*
X024101Y009601D01*
X019933Y009351D02*
X019805Y009351D01*
X019805Y008851D02*
X019869Y008851D01*
X025591Y005296D02*
X025591Y003611D01*
X026101Y003101D01*
X026201Y004001D02*
X026101Y004101D01*
X026201Y004001D02*
X030601Y004001D01*
X030601Y003601D01*
X030601Y004001D02*
X037001Y004001D01*
X039201Y006201D01*
X039601Y006201D01*
X039601Y006601D01*
X038601Y006601D02*
X038601Y006201D01*
X037501Y005101D01*
X026101Y005101D01*
X025895Y005601D02*
X025591Y005296D01*
X025895Y005601D02*
X027111Y005601D01*
X029356Y007846D01*
X030147Y007846D01*
X033168Y010866D01*
X033168Y012534D01*
X032601Y013101D01*
X037601Y009101D02*
X037601Y008301D01*
X035501Y006201D01*
X031601Y006201D01*
X031601Y006601D01*
X019914Y013504D02*
X019914Y017700D01*
X020304Y018090D01*
X021297Y017970D02*
X017849Y021417D01*
X017849Y022225D01*
X018284Y022225D01*
X018284Y021752D02*
X018719Y021752D01*
X019387Y021085D01*
X019662Y021085D01*
X019662Y020650D01*
X019662Y020215D01*
X022103Y020215D01*
X022103Y018580D01*
X022714Y017970D01*
X021714Y017970D02*
X021297Y017970D01*
X022103Y020215D02*
X022103Y020650D01*
X023481Y021752D02*
X019193Y021752D01*
X019507Y022225D02*
X023481Y022225D01*
X023481Y022697D02*
X023916Y022697D01*
X023916Y023170D01*
X023481Y023170D01*
X016304Y018090D02*
X013721Y018090D01*
X013662Y018149D01*
X012982Y018149D01*
X015345Y024635D02*
X015345Y029071D01*
X012982Y026149D02*
X012302Y026149D01*
X011902Y025749D01*
X005773Y025749D01*
X002209Y022185D01*
X003139Y025101D02*
X004187Y026149D01*
X009982Y026149D01*
X006967Y029557D02*
X006491Y029081D01*
X006967Y029557D02*
X009075Y029557D01*
X004941Y028631D02*
X004941Y028591D01*
X004941Y028631D02*
X004491Y029081D01*
D25*
X019193Y021752D03*
X019507Y022225D03*
X011772Y014831D03*
X015288Y012416D03*
D26*
X028601Y009101D02*
X030601Y011101D01*
X030601Y017601D01*
X034101Y020101D02*
X034101Y022601D01*
X034101Y020101D02*
X041097Y013105D01*
X041747Y013105D01*
X042409Y012443D01*
X042409Y007999D01*
X038601Y004191D01*
X038601Y003601D01*
X035601Y009101D02*
X035601Y010091D01*
X035603Y010093D01*
X041601Y010093D01*
X041601Y014109D02*
X040798Y014911D01*
X040798Y023294D01*
X029794Y023294D01*
X029101Y022601D01*
X040798Y023294D02*
X041113Y023609D01*
X041601Y023609D01*
X032601Y011101D02*
X030601Y011101D01*
M02*
