%
M48
M72
T01C0.0276
T02C0.0315
T03C0.0320
T04C0.0354
T05C0.0400
T06C0.0440
T07C0.0512
T08C0.1180
T09C0.1300
%
T01
X5101Y13101
X6101Y13101
X6101Y15101
X5101Y15101
X5101Y17101
X6101Y17101
X9101Y15243
X9101Y13243
X21714Y17970
X22714Y17970
T02
X16101Y2101
X14101Y2101
T03
X10101Y5601
X9101Y5601
X11982Y9149
X11982Y10149
X11982Y11149
X11982Y12149
X11982Y13149
X11982Y14149
X11982Y15149
X11982Y16149
X11982Y17149
X11982Y18149
X11982Y19149
X11982Y20149
X11982Y21149
X11982Y22149
X14982Y22149
X14982Y21149
X14982Y20149
X14982Y19149
X14982Y18149
X14982Y17149
X14982Y16149
X14982Y15149
X14982Y14149
X14982Y13149
X14982Y12149
X14982Y11149
X14982Y10149
X14982Y9149
X30601Y5601
X31601Y5601
X32601Y5601
X36601Y5601
X37601Y5601
X38601Y5601
X38601Y2601
X37601Y2601
X36601Y2601
X32601Y2601
X31601Y2601
X30601Y2601
X36101Y22901
X38101Y22901
T04
X34101Y21601
X34101Y19101
X29101Y19101
X26601Y18101
X28601Y15101
X28601Y13101
X28601Y11101
X28601Y8101
X33601Y8101
X33601Y11101
X33601Y13101
X33601Y15101
X29101Y21601
X26601Y22101
X29101Y25101
X29101Y27601
X34101Y27601
X34101Y25101
X18112Y19304
X18112Y15304
X9101Y19101
X5101Y19101
X12101Y5101
X16101Y5101
T05
X17821Y2991
X17821Y1211
X20381Y1211
X22601Y2101
X22601Y3101
X22601Y4101
X22601Y5101
X22601Y6101
X22601Y7101
X23101Y9601
X24101Y9601
X25101Y9601
X26101Y7101
X26101Y6101
X26101Y5101
X26101Y4101
X26101Y3101
X26101Y2101
X20381Y2991
X11171Y2101
X10101Y2101
X9031Y2101
X3101Y9101
X2101Y9101
X2101Y10101
X3101Y10101
X3101Y11101
X2101Y11101
X2209Y17185
X2209Y18185
X2209Y19185
X2209Y20185
X2209Y21185
X2209Y22185
X2289Y23718
X2289Y24718
X2289Y25718
X2289Y26718
X4491Y29081
X5491Y29081
X6491Y29081
X8571Y29061
X9571Y29061
X10571Y29061
X13345Y29071
X14345Y29071
X15345Y29071
X8601Y24101
X5601Y24101
X24865Y24638
X24865Y26418
X27425Y26418
X27425Y24638
T06
X35601Y9101
X36601Y9101
X37601Y9101
T07
X41601Y10101
X41601Y12109
X41601Y8093
X41601Y19593
X41601Y21601
X41601Y23609
T08
X6951Y5313
X5101Y4132
X5101Y6494
T09
X1801Y1901
X24101Y15501
X36601Y16001
X44401Y29301
X44301Y1801
X1801Y29201
M30
