G75*
G70*
%OFA0B0*%
%FSLAX24Y24*%
%IPPOS*%
%LPD*%
%AMOC8*
5,1,8,0,0,1.08239X$1,22.5*
%
%ADD10C,0.0080*%
D10*
X015482Y012601D02*
X016482Y011601D01*
X019482Y011601D01*
X020482Y012601D01*
X020482Y013101D01*
X020482Y015101D02*
X020482Y015701D01*
X020481Y015701D02*
X020477Y015755D01*
X020469Y015809D01*
X020457Y015862D01*
X020441Y015915D01*
X020422Y015966D01*
X020399Y016016D01*
X020373Y016064D01*
X020344Y016110D01*
X020311Y016154D01*
X020276Y016195D01*
X020237Y016234D01*
X020196Y016271D01*
X020153Y016304D01*
X020108Y016334D01*
X020060Y016361D01*
X020011Y016385D01*
X019960Y016405D01*
X019908Y016422D01*
X019855Y016435D01*
X019801Y016444D01*
X019746Y016449D01*
X019692Y016451D01*
X019637Y016449D01*
X019583Y016443D01*
X019529Y016433D01*
X019476Y016420D01*
X019424Y016403D01*
X019373Y016382D01*
X019324Y016358D01*
X019277Y016331D01*
X019232Y016300D01*
X019232Y016301D02*
X019181Y016240D01*
X019126Y016182D01*
X019069Y016126D01*
X019009Y016074D01*
X018947Y016024D01*
X018882Y015978D01*
X018815Y015935D01*
X018746Y015895D01*
X018675Y015859D01*
X018603Y015826D01*
X018528Y015797D01*
X018453Y015772D01*
X018376Y015750D01*
X018299Y015733D01*
X018220Y015719D01*
X018141Y015709D01*
X018062Y015703D01*
X017982Y015701D01*
X017902Y015703D01*
X017823Y015709D01*
X017744Y015719D01*
X017665Y015733D01*
X017588Y015750D01*
X017511Y015772D01*
X017436Y015797D01*
X017361Y015826D01*
X017289Y015859D01*
X017218Y015895D01*
X017149Y015935D01*
X017082Y015978D01*
X017017Y016024D01*
X016955Y016074D01*
X016895Y016126D01*
X016838Y016182D01*
X016783Y016240D01*
X016732Y016301D01*
X016689Y016333D01*
X016644Y016362D01*
X016596Y016388D01*
X016547Y016411D01*
X016497Y016430D01*
X016445Y016445D01*
X016392Y016457D01*
X016339Y016465D01*
X016285Y016469D01*
X016231Y016470D01*
X016177Y016466D01*
X016123Y016459D01*
X016071Y016449D01*
X016019Y016434D01*
X015968Y016416D01*
X015918Y016394D01*
X015870Y016369D01*
X015824Y016341D01*
X015781Y016309D01*
X015739Y016275D01*
X015700Y016237D01*
X015664Y016197D01*
X015630Y016155D01*
X015600Y016110D01*
X015573Y016064D01*
X015549Y016015D01*
X015529Y015965D01*
X015512Y015914D01*
X015499Y015861D01*
X015490Y015808D01*
X015484Y015755D01*
X015482Y015701D01*
X015482Y015101D01*
X015482Y013101D02*
X015482Y012601D01*
M02*
