G75*
G70*
%OFA0B0*%
%FSLAX24Y24*%
%IPPOS*%
%LPD*%
%AMOC8*
5,1,8,0,0,1.08239X$1,22.5*
%
%ADD10C,0.0040*%
%ADD11C,0.0020*%
%ADD12R,0.0120X0.0010*%
%ADD13R,0.0030X0.0010*%
%ADD14R,0.0080X0.0010*%
%ADD15R,0.0020X0.0010*%
%ADD16R,0.0090X0.0010*%
%ADD17R,0.0100X0.0010*%
%ADD18R,0.0040X0.0010*%
%ADD19R,0.0050X0.0010*%
%ADD20R,0.0060X0.0010*%
%ADD21R,0.0010X0.0010*%
%ADD22C,0.0030*%
%ADD23C,0.0060*%
%ADD24C,0.0080*%
%ADD25C,0.0050*%
%ADD26C,0.0100*%
%ADD27R,0.0500X0.0350*%
%ADD28R,0.0300X0.0250*%
%ADD29R,0.0500X0.1000*%
%ADD30C,0.0120*%
%ADD31R,0.0250X0.1500*%
D10*
X008921Y003621D02*
X008921Y004081D01*
X009151Y004081D01*
X009228Y004004D01*
X009228Y003851D01*
X009151Y003774D01*
X008921Y003774D01*
X009381Y003697D02*
X009458Y003621D01*
X009611Y003621D01*
X009688Y003697D01*
X009688Y004004D01*
X009611Y004081D01*
X009458Y004081D01*
X009381Y004004D01*
X009381Y003697D01*
X009841Y003621D02*
X009995Y003774D01*
X010148Y003621D01*
X010148Y004081D01*
X010302Y004081D02*
X010302Y003621D01*
X010609Y003621D01*
X010762Y003621D02*
X010762Y004081D01*
X010992Y004081D01*
X011069Y004004D01*
X011069Y003851D01*
X010992Y003774D01*
X010762Y003774D01*
X010916Y003774D02*
X011069Y003621D01*
X010455Y003851D02*
X010302Y003851D01*
X010302Y004081D02*
X010609Y004081D01*
X009841Y004081D02*
X009841Y003621D01*
X010062Y006721D02*
X010369Y006721D01*
X010523Y006721D02*
X010829Y006721D01*
X010983Y006721D02*
X011213Y006721D01*
X011290Y006797D01*
X011290Y007104D01*
X011213Y007181D01*
X010983Y007181D01*
X010983Y006721D01*
X010676Y006951D02*
X010523Y006951D01*
X010523Y007181D02*
X010523Y006721D01*
X010062Y006721D02*
X010062Y007181D01*
X010523Y007181D02*
X010829Y007181D01*
X009448Y007104D02*
X009448Y006951D01*
X009372Y006874D01*
X009141Y006874D01*
X009141Y006721D02*
X009141Y007181D01*
X009372Y007181D01*
X009448Y007104D01*
X009295Y006874D02*
X009448Y006721D01*
X008988Y006721D02*
X008835Y006874D01*
X008681Y006721D01*
X008681Y007181D01*
X008528Y007104D02*
X008451Y007181D01*
X008221Y007181D01*
X008221Y006721D01*
X008221Y006874D02*
X008451Y006874D01*
X008528Y006951D01*
X008528Y007104D01*
X008988Y007181D02*
X008988Y006721D01*
X016121Y004504D02*
X016121Y004428D01*
X016197Y004351D01*
X016351Y004351D01*
X016428Y004274D01*
X016428Y004197D01*
X016351Y004121D01*
X016197Y004121D01*
X016121Y004197D01*
X016121Y004504D02*
X016197Y004581D01*
X016351Y004581D01*
X016428Y004504D01*
X016581Y004428D02*
X016581Y004197D01*
X016658Y004121D01*
X016888Y004121D01*
X016888Y004044D02*
X016811Y003967D01*
X016735Y003967D01*
X016888Y004044D02*
X016888Y004428D01*
X017041Y004351D02*
X017118Y004428D01*
X017348Y004428D01*
X017502Y004428D02*
X017655Y004428D01*
X017579Y004504D02*
X017579Y004197D01*
X017655Y004121D01*
X017809Y004197D02*
X017809Y004351D01*
X017885Y004428D01*
X018039Y004428D01*
X018116Y004351D01*
X018116Y004274D01*
X017809Y004274D01*
X017809Y004197D02*
X017885Y004121D01*
X018039Y004121D01*
X018269Y004121D02*
X018269Y004428D01*
X018346Y004428D01*
X018423Y004351D01*
X018499Y004428D01*
X018576Y004351D01*
X018576Y004121D01*
X018423Y004121D02*
X018423Y004351D01*
X019190Y004274D02*
X019420Y004274D01*
X019497Y004351D01*
X019497Y004504D01*
X019420Y004581D01*
X019190Y004581D01*
X019190Y004121D01*
X019343Y004274D02*
X019497Y004121D01*
X019650Y004197D02*
X019650Y004351D01*
X019727Y004428D01*
X019880Y004428D01*
X019957Y004351D01*
X019957Y004274D01*
X019650Y004274D01*
X019650Y004197D02*
X019727Y004121D01*
X019880Y004121D01*
X020111Y004121D02*
X020341Y004121D01*
X020417Y004197D01*
X020341Y004274D01*
X020187Y004274D01*
X020111Y004351D01*
X020187Y004428D01*
X020417Y004428D01*
X020571Y004351D02*
X020648Y004428D01*
X020801Y004428D01*
X020878Y004351D01*
X020878Y004274D01*
X020571Y004274D01*
X020571Y004197D02*
X020571Y004351D01*
X020571Y004197D02*
X020648Y004121D01*
X020801Y004121D01*
X021108Y004197D02*
X021185Y004121D01*
X021108Y004197D02*
X021108Y004504D01*
X021031Y004428D02*
X021185Y004428D01*
X023321Y003381D02*
X023321Y002921D01*
X023628Y002921D01*
X023858Y002997D02*
X023935Y002921D01*
X023858Y002997D02*
X023858Y003304D01*
X023781Y003228D02*
X023935Y003228D01*
X024088Y003304D02*
X024088Y002997D01*
X024165Y002921D01*
X024318Y002921D01*
X024395Y002997D01*
X024625Y002997D02*
X024625Y003304D01*
X024548Y003228D02*
X024702Y003228D01*
X024855Y003228D02*
X024855Y002921D01*
X024702Y002921D02*
X024625Y002997D01*
X024855Y003074D02*
X025009Y003228D01*
X025085Y003228D01*
X025239Y003381D02*
X025316Y003381D01*
X025316Y002921D01*
X025392Y002921D02*
X025239Y002921D01*
X024872Y002381D02*
X024718Y002381D01*
X024641Y002304D01*
X024641Y001997D01*
X024718Y001921D01*
X024872Y001921D01*
X024948Y001997D01*
X024948Y002304D02*
X024872Y002381D01*
X024488Y002304D02*
X024411Y002381D01*
X024258Y002381D01*
X024181Y002304D01*
X024181Y001997D01*
X024258Y001921D01*
X024411Y001921D01*
X024488Y001997D01*
X024028Y002074D02*
X024028Y002381D01*
X024028Y002074D02*
X023874Y001921D01*
X023721Y002074D01*
X023721Y002381D01*
X024088Y003304D02*
X024165Y003381D01*
X024318Y003381D01*
X024395Y003304D01*
X024488Y003921D02*
X024488Y004381D01*
X024641Y004381D02*
X024872Y004381D01*
X024948Y004304D01*
X024948Y003997D01*
X024872Y003921D01*
X024641Y003921D01*
X024641Y004381D01*
X024181Y004381D02*
X024488Y003921D01*
X024181Y003921D02*
X024181Y004381D01*
X024028Y004304D02*
X023951Y004381D01*
X023797Y004381D01*
X023721Y004304D01*
X023721Y003997D01*
X023797Y003921D01*
X023951Y003921D01*
X024028Y003997D01*
X024028Y004151D01*
X023874Y004151D01*
X024181Y004844D02*
X024488Y004844D01*
X024641Y004997D02*
X024718Y004921D01*
X024872Y004921D01*
X024948Y004997D01*
X024641Y004997D02*
X024641Y005304D01*
X024718Y005381D01*
X024872Y005381D01*
X024948Y005304D01*
X024028Y005304D02*
X023721Y004997D01*
X023721Y004921D01*
X024028Y004921D01*
X024028Y005304D02*
X024028Y005381D01*
X023721Y005381D01*
X023821Y005921D02*
X023821Y006381D01*
X024128Y005921D01*
X024128Y006381D01*
X024281Y006304D02*
X024281Y005997D01*
X024358Y005921D01*
X024511Y005921D01*
X024588Y005997D01*
X024588Y006304D02*
X024511Y006381D01*
X024358Y006381D01*
X024281Y006304D01*
X017348Y004197D02*
X017272Y004274D01*
X017118Y004274D01*
X017041Y004351D01*
X017041Y004121D02*
X017272Y004121D01*
X017348Y004197D01*
X042619Y009110D02*
X042661Y009380D01*
X042669Y009375D01*
X042676Y009370D01*
X042683Y009366D02*
X042683Y009136D01*
X042676Y009132D02*
X042669Y009127D01*
X042661Y009122D01*
X042619Y009110D02*
X042578Y009137D01*
X042537Y009065D01*
X042578Y009070D02*
X042537Y009142D01*
X042487Y009108D02*
X042487Y009099D01*
X042578Y009070D02*
X042619Y009097D01*
X042879Y009516D02*
X041501Y010894D01*
X041501Y010894D01*
X041502Y010849D02*
X041502Y011079D01*
X040813Y012115D01*
X040813Y013365D01*
X040694Y013365D01*
X040006Y013365D01*
X039809Y013365D01*
X039809Y006751D01*
X040006Y006751D01*
X040122Y006751D01*
X040285Y006751D01*
X040694Y006751D01*
X040813Y006751D01*
X040813Y008100D01*
X041502Y006965D01*
X041502Y006751D01*
X041699Y006751D01*
X041699Y007091D01*
X041648Y007057D02*
X041608Y007031D01*
X041567Y007004D01*
X041525Y006978D02*
X041517Y006974D01*
X041509Y006969D01*
X041502Y006751D02*
X040813Y006751D01*
X040694Y006751D02*
X040694Y013365D01*
X040813Y013365D02*
X041502Y013365D01*
X041699Y013365D01*
X041699Y013124D01*
X041648Y013158D02*
X041608Y013184D01*
X041567Y013211D01*
X041525Y013237D02*
X041517Y013241D01*
X041509Y013246D01*
X041502Y013250D02*
X041502Y013365D01*
X041699Y013365D02*
X042487Y013365D01*
X042683Y013365D01*
X042683Y013250D01*
X042676Y013246D02*
X042669Y013241D01*
X042661Y013237D01*
X042619Y013211D02*
X042578Y013184D01*
X042537Y013158D01*
X042487Y013124D02*
X042487Y013365D01*
X042683Y013365D02*
X043482Y013365D01*
X044731Y013365D01*
X044731Y006751D01*
X043670Y006751D01*
X043507Y006751D01*
X043482Y006751D01*
X042683Y006751D01*
X042683Y006965D01*
X042676Y006969D02*
X042669Y006974D01*
X042661Y006978D01*
X042619Y007004D02*
X042578Y007031D01*
X042537Y007057D01*
X042487Y007091D02*
X042487Y006751D01*
X042683Y006751D01*
X042487Y006751D02*
X041699Y006751D01*
X042685Y007313D02*
X042685Y007313D01*
X042879Y007508D02*
X041501Y008886D01*
X041608Y009070D02*
X041567Y009097D01*
X041567Y009110D02*
X041608Y009137D01*
X041648Y009065D01*
X041608Y009070D02*
X041648Y009142D01*
X041699Y009108D02*
X041699Y009099D01*
X041525Y009122D02*
X041517Y009127D01*
X041509Y009132D01*
X041502Y009136D02*
X041502Y009366D01*
X040813Y010107D01*
X040813Y012115D01*
X041501Y012902D02*
X042879Y011524D01*
X042845Y011480D01*
X042808Y011439D01*
X042769Y011400D01*
X042728Y011363D01*
X042685Y011329D01*
X042619Y011118D02*
X042578Y011046D01*
X042537Y011073D01*
X042487Y011107D02*
X042487Y010722D01*
X042537Y010756D02*
X042578Y010783D01*
X042619Y010809D01*
X042661Y010835D02*
X042669Y010840D01*
X042676Y010845D01*
X042683Y010849D02*
X042683Y011079D01*
X042676Y011083D02*
X042669Y011088D01*
X042661Y011093D01*
X041699Y011107D02*
X041699Y010722D01*
X041648Y010756D02*
X041608Y010783D01*
X041567Y010809D01*
X041525Y010835D02*
X041517Y010840D01*
X041509Y010845D01*
X041608Y011046D02*
X041567Y011118D01*
X041525Y011093D02*
X041517Y011088D01*
X041509Y011083D01*
X041608Y011046D02*
X041648Y011073D01*
X041501Y010894D02*
X041458Y010860D01*
X041417Y010823D01*
X041378Y010784D01*
X041341Y010743D01*
X041307Y010700D01*
X040813Y010107D02*
X040813Y008100D01*
X040814Y008099D02*
X040819Y008168D01*
X040828Y008236D01*
X040840Y008304D01*
X040857Y008371D01*
X040877Y008436D01*
X040901Y008501D01*
X040929Y008564D01*
X040960Y008625D01*
X040995Y008685D01*
X041033Y008742D01*
X041074Y008797D01*
X041119Y008850D01*
X041166Y008900D01*
X041216Y008947D01*
X041269Y008991D01*
X041324Y009032D01*
X041382Y009070D01*
X041441Y009104D01*
X041503Y009135D01*
X041509Y009370D02*
X041517Y009375D01*
X041525Y009380D01*
X040814Y010108D02*
X040828Y010165D01*
X040845Y010222D01*
X040865Y010277D01*
X040889Y010331D01*
X040916Y010384D01*
X040947Y010435D01*
X040980Y010483D01*
X041016Y010530D01*
X041055Y010575D01*
X041096Y010617D01*
X041140Y010656D01*
X041187Y010693D01*
X041235Y010727D01*
X041285Y010758D01*
X041338Y010785D01*
X041391Y010810D01*
X041447Y010831D01*
X041503Y010849D01*
X041069Y010107D02*
X041071Y010171D01*
X041077Y010234D01*
X041087Y010297D01*
X041101Y010359D01*
X041118Y010420D01*
X041140Y010480D01*
X041165Y010539D01*
X041193Y010596D01*
X041225Y010651D01*
X041261Y010704D01*
X041300Y010754D01*
X041341Y010802D01*
X041386Y010848D01*
X041433Y010890D01*
X041483Y010930D01*
X041536Y010966D01*
X041590Y010999D01*
X041647Y011029D01*
X041705Y011055D01*
X041764Y011077D01*
X041825Y011095D01*
X041887Y011110D01*
X041950Y011121D01*
X042013Y011128D01*
X042077Y011131D01*
X042141Y011130D01*
X042204Y011125D01*
X042267Y011116D01*
X042330Y011103D01*
X042391Y011087D01*
X042452Y011066D01*
X042510Y011042D01*
X042568Y011014D01*
X042623Y010983D01*
X042677Y010948D01*
X042728Y010910D01*
X042777Y010869D01*
X042823Y010825D01*
X042866Y010779D01*
X042906Y010729D01*
X042943Y010678D01*
X042977Y010624D01*
X043008Y010568D01*
X043034Y010510D01*
X043058Y010451D01*
X043077Y010390D01*
X043093Y010328D01*
X043105Y010266D01*
X043113Y010202D01*
X043117Y010139D01*
X043117Y010075D01*
X043113Y010012D01*
X043105Y009948D01*
X043093Y009886D01*
X043077Y009824D01*
X043058Y009763D01*
X043034Y009704D01*
X043008Y009646D01*
X042977Y009590D01*
X042943Y009536D01*
X042906Y009485D01*
X042866Y009435D01*
X042823Y009389D01*
X042777Y009345D01*
X042728Y009304D01*
X042677Y009266D01*
X042623Y009231D01*
X042568Y009200D01*
X042510Y009172D01*
X042452Y009148D01*
X042391Y009127D01*
X042330Y009111D01*
X042267Y009098D01*
X042204Y009089D01*
X042141Y009084D01*
X042077Y009083D01*
X042013Y009086D01*
X041950Y009093D01*
X041887Y009104D01*
X041825Y009119D01*
X041764Y009137D01*
X041705Y009159D01*
X041647Y009185D01*
X041590Y009215D01*
X041536Y009248D01*
X041483Y009284D01*
X041433Y009324D01*
X041386Y009366D01*
X041341Y009412D01*
X041300Y009460D01*
X041261Y009510D01*
X041225Y009563D01*
X041193Y009618D01*
X041165Y009675D01*
X041140Y009734D01*
X041118Y009794D01*
X041101Y009855D01*
X041087Y009917D01*
X041077Y009980D01*
X041071Y010043D01*
X041069Y010107D01*
X041307Y010699D02*
X041271Y010649D01*
X041239Y010596D01*
X041211Y010542D01*
X041185Y010487D01*
X041163Y010430D01*
X041145Y010371D01*
X041131Y010312D01*
X041120Y010252D01*
X041113Y010191D01*
X041109Y010130D01*
X041110Y010069D01*
X041114Y010008D01*
X041122Y009947D01*
X041134Y009887D01*
X041149Y009828D01*
X041169Y009770D01*
X041191Y009713D01*
X041218Y009657D01*
X041247Y009604D01*
X041280Y009552D01*
X041316Y009503D01*
X041355Y009456D01*
X041397Y009411D01*
X041442Y009369D01*
X041489Y009330D01*
X041538Y009294D01*
X041590Y009261D01*
X041643Y009232D01*
X041699Y009205D01*
X041756Y009183D01*
X041814Y009163D01*
X041873Y009148D01*
X041933Y009136D01*
X041994Y009128D01*
X042055Y009124D01*
X042116Y009123D01*
X042177Y009127D01*
X042238Y009134D01*
X042298Y009145D01*
X042357Y009159D01*
X042416Y009177D01*
X042473Y009199D01*
X042528Y009225D01*
X042582Y009253D01*
X042635Y009285D01*
X042685Y009321D01*
X042728Y009355D01*
X042769Y009392D01*
X042808Y009431D01*
X042845Y009472D01*
X042879Y009516D01*
X042879Y009515D02*
X042915Y009565D01*
X042947Y009618D01*
X042975Y009672D01*
X043001Y009727D01*
X043023Y009784D01*
X043041Y009843D01*
X043055Y009902D01*
X043066Y009962D01*
X043073Y010023D01*
X043077Y010084D01*
X043076Y010146D01*
X043072Y010207D01*
X043064Y010267D01*
X043052Y010327D01*
X043037Y010386D01*
X043017Y010444D01*
X042995Y010501D01*
X042968Y010557D01*
X042939Y010610D01*
X042906Y010662D01*
X042870Y010711D01*
X042831Y010758D01*
X042789Y010803D01*
X042744Y010845D01*
X042697Y010884D01*
X042648Y010920D01*
X042596Y010953D01*
X042543Y010982D01*
X042487Y011009D01*
X042430Y011031D01*
X042372Y011051D01*
X042313Y011066D01*
X042253Y011078D01*
X042193Y011086D01*
X042132Y011090D01*
X042070Y011091D01*
X042009Y011087D01*
X041948Y011080D01*
X041888Y011069D01*
X041829Y011055D01*
X041770Y011037D01*
X041713Y011015D01*
X041658Y010989D01*
X041604Y010961D01*
X041551Y010929D01*
X041501Y010893D01*
X042685Y011329D02*
X042635Y011293D01*
X042582Y011261D01*
X042528Y011233D01*
X042473Y011207D01*
X042416Y011185D01*
X042357Y011167D01*
X042298Y011153D01*
X042238Y011142D01*
X042177Y011135D01*
X042116Y011131D01*
X042055Y011132D01*
X041994Y011136D01*
X041933Y011144D01*
X041873Y011156D01*
X041814Y011171D01*
X041756Y011191D01*
X041699Y011213D01*
X041643Y011240D01*
X041590Y011269D01*
X041538Y011302D01*
X041489Y011338D01*
X041442Y011377D01*
X041397Y011419D01*
X041355Y011464D01*
X041316Y011511D01*
X041280Y011560D01*
X041247Y011612D01*
X041218Y011665D01*
X041191Y011721D01*
X041169Y011778D01*
X041149Y011836D01*
X041134Y011895D01*
X041122Y011955D01*
X041114Y012016D01*
X041110Y012077D01*
X041109Y012138D01*
X041113Y012199D01*
X041120Y012260D01*
X041131Y012320D01*
X041145Y012379D01*
X041163Y012438D01*
X041185Y012495D01*
X041211Y012550D01*
X041239Y012604D01*
X041271Y012657D01*
X041307Y012707D01*
X041501Y012902D02*
X041501Y012902D01*
X041501Y012901D02*
X041458Y012867D01*
X041417Y012830D01*
X041378Y012791D01*
X041341Y012750D01*
X041307Y012707D01*
X041502Y013251D02*
X041441Y013217D01*
X041382Y013179D01*
X041325Y013139D01*
X041270Y013096D01*
X041218Y013049D01*
X041169Y013000D01*
X041122Y012949D01*
X041078Y012894D01*
X041037Y012838D01*
X040999Y012779D01*
X040964Y012719D01*
X040933Y012656D01*
X040905Y012592D01*
X040881Y012527D01*
X040860Y012460D01*
X040843Y012392D01*
X040830Y012324D01*
X040821Y012254D01*
X040815Y012185D01*
X040813Y012115D01*
X041069Y012115D02*
X041071Y012179D01*
X041077Y012242D01*
X041087Y012305D01*
X041101Y012367D01*
X041118Y012428D01*
X041140Y012488D01*
X041165Y012547D01*
X041193Y012604D01*
X041225Y012659D01*
X041261Y012712D01*
X041300Y012762D01*
X041341Y012810D01*
X041386Y012856D01*
X041433Y012898D01*
X041483Y012938D01*
X041536Y012974D01*
X041590Y013007D01*
X041647Y013037D01*
X041705Y013063D01*
X041764Y013085D01*
X041825Y013103D01*
X041887Y013118D01*
X041950Y013129D01*
X042013Y013136D01*
X042077Y013139D01*
X042141Y013138D01*
X042204Y013133D01*
X042267Y013124D01*
X042330Y013111D01*
X042391Y013095D01*
X042452Y013074D01*
X042510Y013050D01*
X042568Y013022D01*
X042623Y012991D01*
X042677Y012956D01*
X042728Y012918D01*
X042777Y012877D01*
X042823Y012833D01*
X042866Y012787D01*
X042906Y012737D01*
X042943Y012686D01*
X042977Y012632D01*
X043008Y012576D01*
X043034Y012518D01*
X043058Y012459D01*
X043077Y012398D01*
X043093Y012336D01*
X043105Y012274D01*
X043113Y012210D01*
X043117Y012147D01*
X043117Y012083D01*
X043113Y012020D01*
X043105Y011956D01*
X043093Y011894D01*
X043077Y011832D01*
X043058Y011771D01*
X043034Y011712D01*
X043008Y011654D01*
X042977Y011598D01*
X042943Y011544D01*
X042906Y011493D01*
X042866Y011443D01*
X042823Y011397D01*
X042777Y011353D01*
X042728Y011312D01*
X042677Y011274D01*
X042623Y011239D01*
X042568Y011208D01*
X042510Y011180D01*
X042452Y011156D01*
X042391Y011135D01*
X042330Y011119D01*
X042267Y011106D01*
X042204Y011097D01*
X042141Y011092D01*
X042077Y011091D01*
X042013Y011094D01*
X041950Y011101D01*
X041887Y011112D01*
X041825Y011127D01*
X041764Y011145D01*
X041705Y011167D01*
X041647Y011193D01*
X041590Y011223D01*
X041536Y011256D01*
X041483Y011292D01*
X041433Y011332D01*
X041386Y011374D01*
X041341Y011420D01*
X041300Y011468D01*
X041261Y011518D01*
X041225Y011571D01*
X041193Y011626D01*
X041165Y011683D01*
X041140Y011742D01*
X041118Y011802D01*
X041101Y011863D01*
X041087Y011925D01*
X041077Y011988D01*
X041071Y012051D01*
X041069Y012115D01*
X041501Y012901D02*
X041551Y012937D01*
X041604Y012969D01*
X041658Y012997D01*
X041713Y013023D01*
X041770Y013045D01*
X041829Y013063D01*
X041888Y013077D01*
X041948Y013088D01*
X042009Y013095D01*
X042070Y013099D01*
X042132Y013098D01*
X042193Y013094D01*
X042253Y013086D01*
X042313Y013074D01*
X042372Y013059D01*
X042430Y013039D01*
X042487Y013017D01*
X042543Y012990D01*
X042596Y012961D01*
X042648Y012928D01*
X042697Y012892D01*
X042744Y012853D01*
X042789Y012811D01*
X042831Y012766D01*
X042870Y012719D01*
X042906Y012670D01*
X042939Y012618D01*
X042968Y012565D01*
X042995Y012509D01*
X043017Y012452D01*
X043037Y012394D01*
X043052Y012335D01*
X043064Y012275D01*
X043072Y012215D01*
X043076Y012154D01*
X043077Y012092D01*
X043073Y012031D01*
X043066Y011970D01*
X043055Y011910D01*
X043041Y011851D01*
X043023Y011792D01*
X043001Y011735D01*
X042975Y011680D01*
X042947Y011626D01*
X042915Y011573D01*
X042879Y011523D01*
X042487Y009099D02*
X042538Y009065D01*
X041501Y008886D02*
X041458Y008852D01*
X041417Y008815D01*
X041378Y008776D01*
X041341Y008735D01*
X041307Y008691D01*
X041307Y008692D02*
X041271Y008642D01*
X041239Y008589D01*
X041211Y008535D01*
X041185Y008480D01*
X041163Y008423D01*
X041145Y008364D01*
X041131Y008305D01*
X041120Y008245D01*
X041113Y008184D01*
X041109Y008123D01*
X041110Y008061D01*
X041114Y008000D01*
X041122Y007940D01*
X041134Y007880D01*
X041149Y007821D01*
X041169Y007763D01*
X041191Y007706D01*
X041218Y007650D01*
X041247Y007597D01*
X041280Y007545D01*
X041316Y007496D01*
X041355Y007449D01*
X041397Y007404D01*
X041442Y007362D01*
X041489Y007323D01*
X041538Y007287D01*
X041590Y007254D01*
X041643Y007225D01*
X041699Y007198D01*
X041756Y007176D01*
X041814Y007156D01*
X041873Y007141D01*
X041933Y007129D01*
X041993Y007121D01*
X042054Y007117D01*
X042116Y007116D01*
X042177Y007120D01*
X042238Y007127D01*
X042298Y007138D01*
X042357Y007152D01*
X042416Y007170D01*
X042473Y007192D01*
X042528Y007218D01*
X042582Y007246D01*
X042635Y007278D01*
X042685Y007314D01*
X043482Y006751D02*
X043482Y013365D01*
X042487Y011107D02*
X042538Y011073D01*
X042487Y007091D02*
X042538Y007057D01*
X043448Y006630D02*
X043448Y006527D01*
X043730Y006527D01*
X043730Y006630D01*
X043670Y006701D01*
X043670Y006751D01*
X043507Y006751D02*
X043507Y006701D01*
X043448Y006630D01*
X042486Y010722D02*
X042537Y010756D01*
X042487Y013124D02*
X042538Y013158D01*
X040006Y013365D02*
X040006Y006751D01*
X040122Y006751D02*
X040122Y006701D01*
X040063Y006630D01*
X040063Y006527D01*
X040344Y006527D01*
X040344Y006630D01*
X040285Y006701D01*
X040285Y006751D01*
X041699Y010722D02*
X041648Y010756D01*
X041699Y007091D02*
X041648Y007057D01*
X041069Y008100D02*
X041071Y008164D01*
X041077Y008227D01*
X041087Y008290D01*
X041101Y008352D01*
X041118Y008413D01*
X041140Y008473D01*
X041165Y008532D01*
X041193Y008589D01*
X041225Y008644D01*
X041261Y008697D01*
X041300Y008747D01*
X041341Y008795D01*
X041386Y008841D01*
X041433Y008883D01*
X041483Y008923D01*
X041536Y008959D01*
X041590Y008992D01*
X041647Y009022D01*
X041705Y009048D01*
X041764Y009070D01*
X041825Y009088D01*
X041887Y009103D01*
X041950Y009114D01*
X042013Y009121D01*
X042077Y009124D01*
X042141Y009123D01*
X042204Y009118D01*
X042267Y009109D01*
X042330Y009096D01*
X042391Y009080D01*
X042452Y009059D01*
X042510Y009035D01*
X042568Y009007D01*
X042623Y008976D01*
X042677Y008941D01*
X042728Y008903D01*
X042777Y008862D01*
X042823Y008818D01*
X042866Y008772D01*
X042906Y008722D01*
X042943Y008671D01*
X042977Y008617D01*
X043008Y008561D01*
X043034Y008503D01*
X043058Y008444D01*
X043077Y008383D01*
X043093Y008321D01*
X043105Y008259D01*
X043113Y008195D01*
X043117Y008132D01*
X043117Y008068D01*
X043113Y008005D01*
X043105Y007941D01*
X043093Y007879D01*
X043077Y007817D01*
X043058Y007756D01*
X043034Y007697D01*
X043008Y007639D01*
X042977Y007583D01*
X042943Y007529D01*
X042906Y007478D01*
X042866Y007428D01*
X042823Y007382D01*
X042777Y007338D01*
X042728Y007297D01*
X042677Y007259D01*
X042623Y007224D01*
X042568Y007193D01*
X042510Y007165D01*
X042452Y007141D01*
X042391Y007120D01*
X042330Y007104D01*
X042267Y007091D01*
X042204Y007082D01*
X042141Y007077D01*
X042077Y007076D01*
X042013Y007079D01*
X041950Y007086D01*
X041887Y007097D01*
X041825Y007112D01*
X041764Y007130D01*
X041705Y007152D01*
X041647Y007178D01*
X041590Y007208D01*
X041536Y007241D01*
X041483Y007277D01*
X041433Y007317D01*
X041386Y007359D01*
X041341Y007405D01*
X041300Y007453D01*
X041261Y007503D01*
X041225Y007556D01*
X041193Y007611D01*
X041165Y007668D01*
X041140Y007727D01*
X041118Y007787D01*
X041101Y007848D01*
X041087Y007910D01*
X041077Y007973D01*
X041071Y008036D01*
X041069Y008100D01*
X041501Y008886D02*
X041552Y008922D01*
X041604Y008954D01*
X041658Y008982D01*
X041713Y009008D01*
X041770Y009030D01*
X041829Y009048D01*
X041888Y009062D01*
X041948Y009073D01*
X042009Y009080D01*
X042070Y009084D01*
X042132Y009083D01*
X042193Y009079D01*
X042253Y009071D01*
X042313Y009059D01*
X042372Y009044D01*
X042430Y009024D01*
X042487Y009002D01*
X042543Y008975D01*
X042596Y008946D01*
X042648Y008913D01*
X042697Y008877D01*
X042744Y008838D01*
X042789Y008796D01*
X042831Y008751D01*
X042870Y008704D01*
X042906Y008655D01*
X042939Y008603D01*
X042968Y008550D01*
X042995Y008494D01*
X043017Y008437D01*
X043037Y008379D01*
X043052Y008320D01*
X043064Y008260D01*
X043072Y008200D01*
X043076Y008139D01*
X043077Y008077D01*
X043073Y008016D01*
X043066Y007955D01*
X043055Y007895D01*
X043041Y007836D01*
X043023Y007777D01*
X043001Y007720D01*
X042975Y007665D01*
X042947Y007611D01*
X042915Y007559D01*
X042879Y007508D01*
X042845Y007465D01*
X042808Y007424D01*
X042769Y007385D01*
X042728Y007348D01*
X042685Y007314D01*
X042620Y010810D02*
X042661Y010835D01*
X042619Y007004D02*
X042660Y006978D01*
X042486Y009109D02*
X042537Y009143D01*
X042619Y013211D02*
X042660Y013237D01*
X042619Y011118D02*
X042661Y011093D01*
X041699Y013124D02*
X041648Y013158D01*
X041699Y009099D02*
X041648Y009065D01*
X041567Y013211D02*
X041525Y013237D01*
X041699Y011107D02*
X041648Y011073D01*
X041566Y007004D02*
X041525Y006979D01*
X041699Y009108D02*
X041648Y009142D01*
X041567Y010809D02*
X041525Y010835D01*
X041525Y009380D02*
X041567Y009110D01*
X041567Y009097D02*
X041525Y009123D01*
X038876Y005081D02*
X038876Y004621D01*
X038723Y004621D02*
X039029Y004621D01*
X038723Y004928D02*
X038876Y005081D01*
X038569Y004928D02*
X038569Y004621D01*
X038569Y004851D02*
X038262Y004851D01*
X038262Y004928D02*
X038416Y005081D01*
X038569Y004928D01*
X038262Y004928D02*
X038262Y004621D01*
X038109Y004621D02*
X038109Y004928D01*
X037955Y005081D01*
X037802Y004928D01*
X037802Y004621D01*
X037648Y004621D02*
X037341Y004621D01*
X037188Y004621D02*
X036881Y004621D01*
X036728Y004621D02*
X036728Y005081D01*
X036881Y004928D02*
X037035Y005081D01*
X037035Y004621D01*
X036728Y004851D02*
X036421Y004851D01*
X036421Y004621D02*
X036421Y005081D01*
X037341Y004928D02*
X037495Y005081D01*
X037495Y004621D01*
X037802Y004851D02*
X038109Y004851D01*
X042620Y009097D02*
X042661Y009122D01*
X037139Y014721D02*
X037139Y014896D01*
X037081Y014954D01*
X037022Y014896D01*
X037022Y014721D01*
X036906Y014721D02*
X036906Y014954D01*
X036964Y014954D01*
X037022Y014896D01*
X036780Y014896D02*
X036722Y014954D01*
X036663Y014896D01*
X036663Y014721D01*
X036547Y014721D02*
X036547Y014954D01*
X036605Y014954D01*
X036663Y014896D01*
X036780Y014896D02*
X036780Y014721D01*
X036421Y014779D02*
X036363Y014721D01*
X036246Y014721D01*
X036187Y014779D01*
X036187Y014896D02*
X036304Y014954D01*
X036363Y014954D01*
X036421Y014896D01*
X036421Y014779D01*
X036187Y014896D02*
X036187Y015071D01*
X036421Y015071D01*
X036065Y014779D02*
X036006Y014779D01*
X036006Y014721D01*
X036065Y014721D01*
X036065Y014779D01*
X036065Y014721D02*
X035948Y014604D01*
X035589Y014721D02*
X035589Y014779D01*
X035822Y015013D01*
X035822Y015071D01*
X035589Y015071D01*
X035347Y015071D02*
X035347Y014721D01*
X035463Y014721D02*
X035230Y014721D01*
X035104Y014721D02*
X035104Y014954D01*
X034988Y015071D01*
X034871Y014954D01*
X034871Y014721D01*
X034871Y014896D02*
X035104Y014896D01*
X035230Y014954D02*
X035347Y015071D01*
X041525Y011093D02*
X041566Y011118D01*
X041567Y020597D02*
X041525Y020623D01*
X041525Y020622D02*
X041517Y020627D01*
X041509Y020632D01*
X041502Y020636D02*
X041502Y020866D01*
X040813Y021607D01*
X040813Y023615D01*
X041502Y022579D01*
X041502Y022349D01*
X041509Y022345D02*
X041517Y022340D01*
X041525Y022335D01*
X041567Y022309D02*
X041608Y022283D01*
X041648Y022256D01*
X041699Y022222D02*
X041699Y022607D01*
X041648Y022573D02*
X041608Y022546D01*
X041567Y022618D01*
X041525Y022593D02*
X041517Y022588D01*
X041509Y022583D01*
X041501Y022394D02*
X041501Y022394D01*
X042879Y021016D01*
X042683Y020866D02*
X042683Y020636D01*
X042676Y020632D02*
X042669Y020627D01*
X042661Y020622D01*
X042619Y020610D02*
X042578Y020637D01*
X042537Y020565D01*
X042578Y020570D02*
X042537Y020642D01*
X042487Y020608D02*
X042487Y020599D01*
X042578Y020570D02*
X042619Y020597D01*
X042676Y020870D02*
X042669Y020875D01*
X042661Y020880D01*
X042685Y020821D02*
X042728Y020855D01*
X042769Y020892D01*
X042808Y020931D01*
X042845Y020972D01*
X042879Y021016D01*
X041069Y021607D02*
X041071Y021671D01*
X041077Y021734D01*
X041087Y021797D01*
X041101Y021859D01*
X041118Y021920D01*
X041140Y021980D01*
X041165Y022039D01*
X041193Y022096D01*
X041225Y022151D01*
X041261Y022204D01*
X041300Y022254D01*
X041341Y022302D01*
X041386Y022348D01*
X041433Y022390D01*
X041483Y022430D01*
X041536Y022466D01*
X041590Y022499D01*
X041647Y022529D01*
X041705Y022555D01*
X041764Y022577D01*
X041825Y022595D01*
X041887Y022610D01*
X041950Y022621D01*
X042013Y022628D01*
X042077Y022631D01*
X042141Y022630D01*
X042204Y022625D01*
X042267Y022616D01*
X042330Y022603D01*
X042391Y022587D01*
X042452Y022566D01*
X042510Y022542D01*
X042568Y022514D01*
X042623Y022483D01*
X042677Y022448D01*
X042728Y022410D01*
X042777Y022369D01*
X042823Y022325D01*
X042866Y022279D01*
X042906Y022229D01*
X042943Y022178D01*
X042977Y022124D01*
X043008Y022068D01*
X043034Y022010D01*
X043058Y021951D01*
X043077Y021890D01*
X043093Y021828D01*
X043105Y021766D01*
X043113Y021702D01*
X043117Y021639D01*
X043117Y021575D01*
X043113Y021512D01*
X043105Y021448D01*
X043093Y021386D01*
X043077Y021324D01*
X043058Y021263D01*
X043034Y021204D01*
X043008Y021146D01*
X042977Y021090D01*
X042943Y021036D01*
X042906Y020985D01*
X042866Y020935D01*
X042823Y020889D01*
X042777Y020845D01*
X042728Y020804D01*
X042677Y020766D01*
X042623Y020731D01*
X042568Y020700D01*
X042510Y020672D01*
X042452Y020648D01*
X042391Y020627D01*
X042330Y020611D01*
X042267Y020598D01*
X042204Y020589D01*
X042141Y020584D01*
X042077Y020583D01*
X042013Y020586D01*
X041950Y020593D01*
X041887Y020604D01*
X041825Y020619D01*
X041764Y020637D01*
X041705Y020659D01*
X041647Y020685D01*
X041590Y020715D01*
X041536Y020748D01*
X041483Y020784D01*
X041433Y020824D01*
X041386Y020866D01*
X041341Y020912D01*
X041300Y020960D01*
X041261Y021010D01*
X041225Y021063D01*
X041193Y021118D01*
X041165Y021175D01*
X041140Y021234D01*
X041118Y021294D01*
X041101Y021355D01*
X041087Y021417D01*
X041077Y021480D01*
X041071Y021543D01*
X041069Y021607D01*
X040813Y021607D02*
X040813Y019600D01*
X041502Y018465D01*
X041502Y018251D01*
X041699Y018251D01*
X041699Y018591D01*
X041648Y018557D02*
X041608Y018531D01*
X041567Y018504D01*
X041525Y018478D02*
X041517Y018474D01*
X041509Y018469D01*
X041502Y018251D02*
X040813Y018251D01*
X040813Y019600D01*
X041501Y020386D02*
X042879Y019008D01*
X042685Y018813D02*
X042685Y018813D01*
X042537Y018557D02*
X042578Y018531D01*
X042619Y018504D01*
X042661Y018478D02*
X042669Y018474D01*
X042676Y018469D01*
X042683Y018465D02*
X042683Y018251D01*
X043482Y018251D01*
X043482Y024865D01*
X044731Y024865D01*
X044731Y018251D01*
X043670Y018251D01*
X043507Y018251D01*
X043482Y018251D01*
X043507Y018251D02*
X043507Y018201D01*
X043448Y018130D01*
X043448Y018027D01*
X043730Y018027D01*
X043730Y018130D01*
X043670Y018201D01*
X043670Y018251D01*
X042683Y018251D02*
X042487Y018251D01*
X041699Y018251D01*
X042487Y018251D02*
X042487Y018591D01*
X040814Y019599D02*
X040819Y019668D01*
X040828Y019736D01*
X040840Y019804D01*
X040857Y019871D01*
X040877Y019936D01*
X040901Y020001D01*
X040929Y020064D01*
X040960Y020125D01*
X040995Y020185D01*
X041033Y020242D01*
X041074Y020297D01*
X041119Y020350D01*
X041166Y020400D01*
X041216Y020447D01*
X041269Y020491D01*
X041324Y020532D01*
X041382Y020570D01*
X041441Y020604D01*
X041503Y020635D01*
X041567Y020610D02*
X041608Y020637D01*
X041648Y020565D01*
X041608Y020570D02*
X041567Y020597D01*
X041608Y020570D02*
X041648Y020642D01*
X041699Y020608D02*
X041699Y020599D01*
X041517Y020875D02*
X041525Y020880D01*
X041517Y020875D02*
X041509Y020870D01*
X040814Y021608D02*
X040828Y021665D01*
X040845Y021722D01*
X040865Y021777D01*
X040889Y021831D01*
X040916Y021884D01*
X040947Y021935D01*
X040980Y021983D01*
X041016Y022030D01*
X041055Y022075D01*
X041096Y022117D01*
X041140Y022156D01*
X041187Y022193D01*
X041235Y022227D01*
X041285Y022258D01*
X041338Y022285D01*
X041391Y022310D01*
X041447Y022331D01*
X041503Y022349D01*
X041501Y022394D02*
X041458Y022360D01*
X041417Y022323D01*
X041378Y022284D01*
X041341Y022243D01*
X041307Y022200D01*
X041501Y022393D02*
X041551Y022429D01*
X041604Y022461D01*
X041658Y022489D01*
X041713Y022515D01*
X041770Y022537D01*
X041829Y022555D01*
X041888Y022569D01*
X041948Y022580D01*
X042009Y022587D01*
X042070Y022591D01*
X042132Y022590D01*
X042193Y022586D01*
X042253Y022578D01*
X042313Y022566D01*
X042372Y022551D01*
X042430Y022531D01*
X042487Y022509D01*
X042543Y022482D01*
X042596Y022453D01*
X042648Y022420D01*
X042697Y022384D01*
X042744Y022345D01*
X042789Y022303D01*
X042831Y022258D01*
X042870Y022211D01*
X042906Y022162D01*
X042939Y022110D01*
X042968Y022057D01*
X042995Y022001D01*
X043017Y021944D01*
X043037Y021886D01*
X043052Y021827D01*
X043064Y021767D01*
X043072Y021707D01*
X043076Y021646D01*
X043077Y021584D01*
X043073Y021523D01*
X043066Y021462D01*
X043055Y021402D01*
X043041Y021343D01*
X043023Y021284D01*
X043001Y021227D01*
X042975Y021172D01*
X042947Y021118D01*
X042915Y021065D01*
X042879Y021015D01*
X042685Y020821D02*
X042635Y020785D01*
X042582Y020753D01*
X042528Y020725D01*
X042473Y020699D01*
X042416Y020677D01*
X042357Y020659D01*
X042298Y020645D01*
X042238Y020634D01*
X042177Y020627D01*
X042116Y020623D01*
X042055Y020624D01*
X041994Y020628D01*
X041933Y020636D01*
X041873Y020648D01*
X041814Y020663D01*
X041756Y020683D01*
X041699Y020705D01*
X041643Y020732D01*
X041590Y020761D01*
X041538Y020794D01*
X041489Y020830D01*
X041442Y020869D01*
X041397Y020911D01*
X041355Y020956D01*
X041316Y021003D01*
X041280Y021052D01*
X041247Y021104D01*
X041218Y021157D01*
X041191Y021213D01*
X041169Y021270D01*
X041149Y021328D01*
X041134Y021387D01*
X041122Y021447D01*
X041114Y021508D01*
X041110Y021569D01*
X041109Y021630D01*
X041113Y021691D01*
X041120Y021752D01*
X041131Y021812D01*
X041145Y021871D01*
X041163Y021930D01*
X041185Y021987D01*
X041211Y022042D01*
X041239Y022096D01*
X041271Y022149D01*
X041307Y022199D01*
X042487Y022222D02*
X042487Y022607D01*
X042537Y022573D02*
X042578Y022546D01*
X042619Y022618D01*
X042661Y022593D02*
X042669Y022588D01*
X042676Y022583D01*
X042683Y022579D02*
X042683Y022349D01*
X042676Y022345D02*
X042669Y022340D01*
X042661Y022335D01*
X042619Y022309D02*
X042578Y022283D01*
X042537Y022256D01*
X042879Y023024D02*
X041501Y024402D01*
X041501Y024402D01*
X041648Y024658D02*
X041608Y024684D01*
X041567Y024711D01*
X041525Y024737D02*
X041517Y024741D01*
X041509Y024746D01*
X041502Y024750D02*
X041502Y024865D01*
X040813Y024865D01*
X040813Y023615D01*
X040815Y023685D01*
X040821Y023754D01*
X040830Y023824D01*
X040843Y023892D01*
X040860Y023960D01*
X040881Y024027D01*
X040905Y024092D01*
X040933Y024156D01*
X040964Y024219D01*
X040999Y024279D01*
X041037Y024338D01*
X041078Y024394D01*
X041122Y024449D01*
X041169Y024500D01*
X041218Y024549D01*
X041270Y024596D01*
X041325Y024639D01*
X041382Y024679D01*
X041441Y024717D01*
X041502Y024751D01*
X041502Y024865D02*
X041699Y024865D01*
X041699Y024624D01*
X041699Y024865D02*
X042487Y024865D01*
X042683Y024865D01*
X042683Y024750D01*
X042676Y024746D02*
X042669Y024741D01*
X042661Y024737D01*
X042619Y024711D02*
X042578Y024684D01*
X042537Y024658D01*
X042487Y024624D02*
X042487Y024865D01*
X042683Y024865D02*
X043482Y024865D01*
X042487Y022607D02*
X042538Y022573D01*
X042685Y022829D02*
X042728Y022863D01*
X042769Y022900D01*
X042808Y022939D01*
X042845Y022980D01*
X042879Y023024D01*
X041069Y023615D02*
X041071Y023679D01*
X041077Y023742D01*
X041087Y023805D01*
X041101Y023867D01*
X041118Y023928D01*
X041140Y023988D01*
X041165Y024047D01*
X041193Y024104D01*
X041225Y024159D01*
X041261Y024212D01*
X041300Y024262D01*
X041341Y024310D01*
X041386Y024356D01*
X041433Y024398D01*
X041483Y024438D01*
X041536Y024474D01*
X041590Y024507D01*
X041647Y024537D01*
X041705Y024563D01*
X041764Y024585D01*
X041825Y024603D01*
X041887Y024618D01*
X041950Y024629D01*
X042013Y024636D01*
X042077Y024639D01*
X042141Y024638D01*
X042204Y024633D01*
X042267Y024624D01*
X042330Y024611D01*
X042391Y024595D01*
X042452Y024574D01*
X042510Y024550D01*
X042568Y024522D01*
X042623Y024491D01*
X042677Y024456D01*
X042728Y024418D01*
X042777Y024377D01*
X042823Y024333D01*
X042866Y024287D01*
X042906Y024237D01*
X042943Y024186D01*
X042977Y024132D01*
X043008Y024076D01*
X043034Y024018D01*
X043058Y023959D01*
X043077Y023898D01*
X043093Y023836D01*
X043105Y023774D01*
X043113Y023710D01*
X043117Y023647D01*
X043117Y023583D01*
X043113Y023520D01*
X043105Y023456D01*
X043093Y023394D01*
X043077Y023332D01*
X043058Y023271D01*
X043034Y023212D01*
X043008Y023154D01*
X042977Y023098D01*
X042943Y023044D01*
X042906Y022993D01*
X042866Y022943D01*
X042823Y022897D01*
X042777Y022853D01*
X042728Y022812D01*
X042677Y022774D01*
X042623Y022739D01*
X042568Y022708D01*
X042510Y022680D01*
X042452Y022656D01*
X042391Y022635D01*
X042330Y022619D01*
X042267Y022606D01*
X042204Y022597D01*
X042141Y022592D01*
X042077Y022591D01*
X042013Y022594D01*
X041950Y022601D01*
X041887Y022612D01*
X041825Y022627D01*
X041764Y022645D01*
X041705Y022667D01*
X041647Y022693D01*
X041590Y022723D01*
X041536Y022756D01*
X041483Y022792D01*
X041433Y022832D01*
X041386Y022874D01*
X041341Y022920D01*
X041300Y022968D01*
X041261Y023018D01*
X041225Y023071D01*
X041193Y023126D01*
X041165Y023183D01*
X041140Y023242D01*
X041118Y023302D01*
X041101Y023363D01*
X041087Y023425D01*
X041077Y023488D01*
X041071Y023551D01*
X041069Y023615D01*
X041307Y024207D02*
X041341Y024250D01*
X041378Y024291D01*
X041417Y024330D01*
X041458Y024367D01*
X041501Y024401D01*
X040813Y024865D02*
X040694Y024865D01*
X040006Y024865D01*
X039809Y024865D01*
X039809Y018251D01*
X040006Y018251D01*
X040122Y018251D01*
X040285Y018251D01*
X040694Y018251D01*
X040813Y018251D01*
X040694Y018251D02*
X040694Y024865D01*
X040006Y024865D02*
X040006Y018251D01*
X040122Y018251D02*
X040122Y018201D01*
X040063Y018130D01*
X040063Y018027D01*
X040344Y018027D01*
X040344Y018130D01*
X040285Y018201D01*
X040285Y018251D01*
X041699Y022222D02*
X041648Y022256D01*
X042685Y022829D02*
X042635Y022793D01*
X042582Y022761D01*
X042528Y022733D01*
X042473Y022707D01*
X042416Y022685D01*
X042357Y022667D01*
X042298Y022653D01*
X042238Y022642D01*
X042177Y022635D01*
X042116Y022631D01*
X042055Y022632D01*
X041994Y022636D01*
X041933Y022644D01*
X041873Y022656D01*
X041814Y022671D01*
X041756Y022691D01*
X041699Y022713D01*
X041643Y022740D01*
X041590Y022769D01*
X041538Y022802D01*
X041489Y022838D01*
X041442Y022877D01*
X041397Y022919D01*
X041355Y022964D01*
X041316Y023011D01*
X041280Y023060D01*
X041247Y023112D01*
X041218Y023165D01*
X041191Y023221D01*
X041169Y023278D01*
X041149Y023336D01*
X041134Y023395D01*
X041122Y023455D01*
X041114Y023516D01*
X041110Y023577D01*
X041109Y023638D01*
X041113Y023699D01*
X041120Y023760D01*
X041131Y023820D01*
X041145Y023879D01*
X041163Y023938D01*
X041185Y023995D01*
X041211Y024050D01*
X041239Y024104D01*
X041271Y024157D01*
X041307Y024207D01*
X041501Y024401D02*
X041551Y024437D01*
X041604Y024469D01*
X041658Y024497D01*
X041713Y024523D01*
X041770Y024545D01*
X041829Y024563D01*
X041888Y024577D01*
X041948Y024588D01*
X042009Y024595D01*
X042070Y024599D01*
X042132Y024598D01*
X042193Y024594D01*
X042253Y024586D01*
X042313Y024574D01*
X042372Y024559D01*
X042430Y024539D01*
X042487Y024517D01*
X042543Y024490D01*
X042596Y024461D01*
X042648Y024428D01*
X042697Y024392D01*
X042744Y024353D01*
X042789Y024311D01*
X042831Y024266D01*
X042870Y024219D01*
X042906Y024170D01*
X042939Y024118D01*
X042968Y024065D01*
X042995Y024009D01*
X043017Y023952D01*
X043037Y023894D01*
X043052Y023835D01*
X043064Y023775D01*
X043072Y023715D01*
X043076Y023654D01*
X043077Y023592D01*
X043073Y023531D01*
X043066Y023470D01*
X043055Y023410D01*
X043041Y023351D01*
X043023Y023292D01*
X043001Y023235D01*
X042975Y023180D01*
X042947Y023126D01*
X042915Y023073D01*
X042879Y023023D01*
X042487Y020599D02*
X042538Y020565D01*
X041501Y020386D02*
X041458Y020352D01*
X041417Y020315D01*
X041378Y020276D01*
X041341Y020235D01*
X041307Y020191D01*
X041307Y020192D02*
X041271Y020142D01*
X041239Y020089D01*
X041211Y020035D01*
X041185Y019980D01*
X041163Y019923D01*
X041145Y019864D01*
X041131Y019805D01*
X041120Y019745D01*
X041113Y019684D01*
X041109Y019623D01*
X041110Y019561D01*
X041114Y019500D01*
X041122Y019440D01*
X041134Y019380D01*
X041149Y019321D01*
X041169Y019263D01*
X041191Y019206D01*
X041218Y019150D01*
X041247Y019097D01*
X041280Y019045D01*
X041316Y018996D01*
X041355Y018949D01*
X041397Y018904D01*
X041442Y018862D01*
X041489Y018823D01*
X041538Y018787D01*
X041590Y018754D01*
X041643Y018725D01*
X041699Y018698D01*
X041756Y018676D01*
X041814Y018656D01*
X041873Y018641D01*
X041933Y018629D01*
X041993Y018621D01*
X042054Y018617D01*
X042116Y018616D01*
X042177Y018620D01*
X042238Y018627D01*
X042298Y018638D01*
X042357Y018652D01*
X042416Y018670D01*
X042473Y018692D01*
X042528Y018718D01*
X042582Y018746D01*
X042635Y018778D01*
X042685Y018814D01*
X041069Y019600D02*
X041071Y019664D01*
X041077Y019727D01*
X041087Y019790D01*
X041101Y019852D01*
X041118Y019913D01*
X041140Y019973D01*
X041165Y020032D01*
X041193Y020089D01*
X041225Y020144D01*
X041261Y020197D01*
X041300Y020247D01*
X041341Y020295D01*
X041386Y020341D01*
X041433Y020383D01*
X041483Y020423D01*
X041536Y020459D01*
X041590Y020492D01*
X041647Y020522D01*
X041705Y020548D01*
X041764Y020570D01*
X041825Y020588D01*
X041887Y020603D01*
X041950Y020614D01*
X042013Y020621D01*
X042077Y020624D01*
X042141Y020623D01*
X042204Y020618D01*
X042267Y020609D01*
X042330Y020596D01*
X042391Y020580D01*
X042452Y020559D01*
X042510Y020535D01*
X042568Y020507D01*
X042623Y020476D01*
X042677Y020441D01*
X042728Y020403D01*
X042777Y020362D01*
X042823Y020318D01*
X042866Y020272D01*
X042906Y020222D01*
X042943Y020171D01*
X042977Y020117D01*
X043008Y020061D01*
X043034Y020003D01*
X043058Y019944D01*
X043077Y019883D01*
X043093Y019821D01*
X043105Y019759D01*
X043113Y019695D01*
X043117Y019632D01*
X043117Y019568D01*
X043113Y019505D01*
X043105Y019441D01*
X043093Y019379D01*
X043077Y019317D01*
X043058Y019256D01*
X043034Y019197D01*
X043008Y019139D01*
X042977Y019083D01*
X042943Y019029D01*
X042906Y018978D01*
X042866Y018928D01*
X042823Y018882D01*
X042777Y018838D01*
X042728Y018797D01*
X042677Y018759D01*
X042623Y018724D01*
X042568Y018693D01*
X042510Y018665D01*
X042452Y018641D01*
X042391Y018620D01*
X042330Y018604D01*
X042267Y018591D01*
X042204Y018582D01*
X042141Y018577D01*
X042077Y018576D01*
X042013Y018579D01*
X041950Y018586D01*
X041887Y018597D01*
X041825Y018612D01*
X041764Y018630D01*
X041705Y018652D01*
X041647Y018678D01*
X041590Y018708D01*
X041536Y018741D01*
X041483Y018777D01*
X041433Y018817D01*
X041386Y018859D01*
X041341Y018905D01*
X041300Y018953D01*
X041261Y019003D01*
X041225Y019056D01*
X041193Y019111D01*
X041165Y019168D01*
X041140Y019227D01*
X041118Y019287D01*
X041101Y019348D01*
X041087Y019410D01*
X041077Y019473D01*
X041071Y019536D01*
X041069Y019600D01*
X041501Y020386D02*
X041552Y020422D01*
X041604Y020454D01*
X041658Y020482D01*
X041713Y020508D01*
X041770Y020530D01*
X041829Y020548D01*
X041888Y020562D01*
X041948Y020573D01*
X042009Y020580D01*
X042070Y020584D01*
X042132Y020583D01*
X042193Y020579D01*
X042253Y020571D01*
X042313Y020559D01*
X042372Y020544D01*
X042430Y020524D01*
X042487Y020502D01*
X042543Y020475D01*
X042596Y020446D01*
X042648Y020413D01*
X042697Y020377D01*
X042744Y020338D01*
X042789Y020296D01*
X042831Y020251D01*
X042870Y020204D01*
X042906Y020155D01*
X042939Y020103D01*
X042968Y020050D01*
X042995Y019994D01*
X043017Y019937D01*
X043037Y019879D01*
X043052Y019820D01*
X043064Y019760D01*
X043072Y019700D01*
X043076Y019639D01*
X043077Y019577D01*
X043073Y019516D01*
X043066Y019455D01*
X043055Y019395D01*
X043041Y019336D01*
X043023Y019277D01*
X043001Y019220D01*
X042975Y019165D01*
X042947Y019111D01*
X042915Y019059D01*
X042879Y019008D01*
X042845Y018965D01*
X042808Y018924D01*
X042769Y018885D01*
X042728Y018848D01*
X042685Y018814D01*
X042486Y022222D02*
X042537Y022256D01*
X042487Y018591D02*
X042538Y018557D01*
X042486Y020609D02*
X042537Y020643D01*
X042487Y024624D02*
X042538Y024658D01*
X042619Y022618D02*
X042661Y022593D01*
X042619Y018504D02*
X042660Y018478D01*
X042620Y022310D02*
X042661Y022335D01*
X042619Y024711D02*
X042660Y024737D01*
X041575Y026967D02*
X041652Y027044D01*
X041652Y027428D01*
X041422Y027428D01*
X041345Y027351D01*
X041345Y027197D01*
X041422Y027121D01*
X041652Y027121D01*
X041805Y027121D02*
X041805Y027581D01*
X041882Y027428D02*
X042036Y027428D01*
X042112Y027351D01*
X042112Y027121D01*
X042266Y027121D02*
X042419Y027121D01*
X042342Y027121D02*
X042342Y027581D01*
X042266Y027581D01*
X042238Y027835D02*
X042238Y028295D01*
X042468Y028142D02*
X042238Y027988D01*
X042468Y027835D01*
X042621Y027911D02*
X042621Y028142D01*
X042621Y027911D02*
X042698Y027835D01*
X042928Y027835D01*
X042928Y028142D01*
X043082Y028142D02*
X043312Y028142D01*
X043388Y028065D01*
X043388Y027911D01*
X043312Y027835D01*
X043082Y027835D01*
X043082Y028295D01*
X042649Y027658D02*
X042649Y027581D01*
X042649Y027428D02*
X042649Y027121D01*
X042573Y027121D02*
X042726Y027121D01*
X042879Y027121D02*
X042879Y027428D01*
X043110Y027428D01*
X043186Y027351D01*
X043186Y027121D01*
X042649Y027428D02*
X042573Y027428D01*
X042084Y027835D02*
X041854Y027835D01*
X041777Y027911D01*
X041854Y027988D01*
X042084Y027988D01*
X042084Y028065D02*
X042084Y027835D01*
X042084Y028065D02*
X042007Y028142D01*
X041854Y028142D01*
X041624Y028295D02*
X041470Y028295D01*
X041547Y028295D02*
X041547Y027911D01*
X041470Y027835D01*
X041394Y027835D01*
X041317Y027911D01*
X041192Y027428D02*
X041192Y027121D01*
X040961Y027121D01*
X040885Y027197D01*
X040885Y027428D01*
X040731Y027351D02*
X040731Y027121D01*
X040501Y027121D01*
X040424Y027197D01*
X040501Y027274D01*
X040731Y027274D01*
X040731Y027351D02*
X040654Y027428D01*
X040501Y027428D01*
X040271Y027121D02*
X039964Y027121D01*
X039964Y027581D01*
X040166Y027835D02*
X040396Y027835D01*
X040473Y027911D01*
X040473Y028218D01*
X040396Y028295D01*
X040166Y028295D01*
X040166Y027835D01*
X040626Y027835D02*
X040703Y027835D01*
X040703Y027911D01*
X040626Y027911D01*
X040626Y027835D01*
X039552Y027911D02*
X039475Y027988D01*
X039322Y027988D01*
X039245Y028065D01*
X039322Y028142D01*
X039552Y028142D01*
X039552Y027911D02*
X039475Y027835D01*
X039245Y027835D01*
X039092Y027835D02*
X039092Y028065D01*
X039015Y028142D01*
X038938Y028065D01*
X038938Y027835D01*
X038785Y027835D02*
X038785Y028142D01*
X038862Y028142D01*
X038938Y028065D01*
X038631Y028065D02*
X038631Y027835D01*
X038401Y027835D01*
X038325Y027911D01*
X038401Y027988D01*
X038631Y027988D01*
X038631Y028065D02*
X038555Y028142D01*
X038401Y028142D01*
X038094Y028142D02*
X038094Y027835D01*
X038018Y027835D02*
X038171Y027835D01*
X037864Y027835D02*
X037711Y027835D01*
X037787Y027835D02*
X037787Y028295D01*
X037711Y028295D01*
X037481Y028295D02*
X037481Y027835D01*
X037557Y027835D02*
X037404Y027835D01*
X037250Y027835D02*
X037097Y027835D01*
X037174Y027835D02*
X037174Y028142D01*
X037097Y028142D01*
X037174Y028295D02*
X037174Y028372D01*
X037155Y028599D02*
X037155Y028906D01*
X037309Y028906D02*
X037385Y028906D01*
X037309Y028906D02*
X037155Y028752D01*
X037002Y028829D02*
X036925Y028752D01*
X036695Y028752D01*
X036695Y028599D02*
X036695Y029059D01*
X036925Y029059D01*
X037002Y028982D01*
X037002Y028829D01*
X037539Y028829D02*
X037615Y028906D01*
X037769Y028906D01*
X037846Y028829D01*
X037846Y028675D01*
X037769Y028599D01*
X037615Y028599D01*
X037539Y028675D01*
X037539Y028829D01*
X037481Y028295D02*
X037404Y028295D01*
X036944Y028295D02*
X036944Y027835D01*
X036790Y027988D01*
X036637Y027835D01*
X036637Y028295D01*
X036023Y027911D02*
X036023Y027835D01*
X035946Y027835D01*
X035946Y027911D01*
X036023Y027911D01*
X035793Y027911D02*
X035716Y027835D01*
X035562Y027835D01*
X035486Y027911D01*
X035486Y028218D01*
X035562Y028295D01*
X035716Y028295D01*
X035793Y028218D01*
X035821Y027581D02*
X035821Y027274D01*
X035974Y027121D01*
X036128Y027274D01*
X036128Y027581D01*
X036281Y027197D02*
X036358Y027197D01*
X036358Y027121D01*
X036281Y027121D01*
X036281Y027197D01*
X036972Y027121D02*
X037279Y027121D01*
X037432Y027197D02*
X037509Y027274D01*
X037739Y027274D01*
X037739Y027351D02*
X037739Y027121D01*
X037509Y027121D01*
X037432Y027197D01*
X037509Y027428D02*
X037662Y027428D01*
X037739Y027351D01*
X037892Y027428D02*
X037892Y027197D01*
X037969Y027121D01*
X038199Y027121D01*
X038199Y027428D01*
X038813Y027197D02*
X038890Y027121D01*
X038966Y027121D01*
X039043Y027197D01*
X039043Y027581D01*
X038966Y027581D02*
X039120Y027581D01*
X039273Y027197D02*
X039350Y027197D01*
X039350Y027121D01*
X039273Y027121D01*
X039273Y027197D01*
X041566Y022618D02*
X041525Y022593D01*
X041699Y018591D02*
X041648Y018557D01*
X041699Y020608D02*
X041648Y020642D01*
X041699Y024624D02*
X041648Y024658D01*
X041699Y020599D02*
X041648Y020565D01*
X041567Y024711D02*
X041525Y024737D01*
X041699Y022607D02*
X041648Y022573D01*
X041566Y018504D02*
X041525Y018479D01*
X041567Y022309D02*
X041525Y022335D01*
X041525Y020880D02*
X041567Y020610D01*
X042620Y020597D02*
X042661Y020622D01*
X041575Y026967D02*
X041498Y026967D01*
X041805Y027351D02*
X041882Y027428D01*
X041835Y028599D02*
X041835Y029059D01*
X042066Y029059D01*
X042142Y028982D01*
X042142Y028829D01*
X042066Y028752D01*
X041835Y028752D01*
X041989Y028752D02*
X042142Y028599D01*
X041682Y028599D02*
X041682Y028906D01*
X041528Y029059D01*
X041375Y028906D01*
X041375Y028599D01*
X041222Y028675D02*
X041145Y028599D01*
X040991Y028599D01*
X040915Y028675D01*
X040761Y028599D02*
X040761Y028906D01*
X040608Y029059D01*
X040454Y028906D01*
X040454Y028599D01*
X040301Y028599D02*
X039994Y028599D01*
X039994Y029059D01*
X039926Y029373D02*
X039773Y029373D01*
X039849Y029373D02*
X039849Y029833D01*
X039773Y029833D01*
X039542Y029833D02*
X039542Y029373D01*
X039466Y029373D02*
X039619Y029373D01*
X039312Y029526D02*
X039005Y029526D01*
X039005Y029449D02*
X039005Y029603D01*
X039082Y029680D01*
X039236Y029680D01*
X039312Y029603D01*
X039312Y029526D01*
X039236Y029373D02*
X039082Y029373D01*
X039005Y029449D01*
X038852Y029373D02*
X038775Y029449D01*
X038775Y029756D01*
X038699Y029680D02*
X038852Y029680D01*
X038545Y029603D02*
X038545Y029373D01*
X038315Y029373D01*
X038238Y029449D01*
X038315Y029526D01*
X038545Y029526D01*
X038545Y029603D02*
X038468Y029680D01*
X038315Y029680D01*
X038085Y029756D02*
X038008Y029833D01*
X037854Y029833D01*
X037778Y029756D01*
X037778Y029680D01*
X037854Y029603D01*
X038008Y029603D01*
X038085Y029526D01*
X038085Y029449D01*
X038008Y029373D01*
X037854Y029373D01*
X037778Y029449D01*
X038153Y029136D02*
X038153Y029059D01*
X038153Y028906D02*
X038153Y028522D01*
X038076Y028445D01*
X037999Y028445D01*
X038094Y028372D02*
X038094Y028295D01*
X038094Y028142D02*
X038018Y028142D01*
X038383Y028599D02*
X038306Y028675D01*
X038306Y028829D01*
X038383Y028906D01*
X038536Y028906D01*
X038613Y028829D01*
X038613Y028752D01*
X038306Y028752D01*
X038383Y028599D02*
X038536Y028599D01*
X038766Y028675D02*
X038843Y028599D01*
X039073Y028599D01*
X039303Y028675D02*
X039303Y028982D01*
X039227Y028906D02*
X039380Y028906D01*
X039303Y028675D02*
X039380Y028599D01*
X039073Y028906D02*
X038843Y028906D01*
X038766Y028829D01*
X038766Y028675D01*
X040080Y029373D02*
X040233Y029373D01*
X040156Y029373D02*
X040156Y029680D01*
X040080Y029680D01*
X040156Y029833D02*
X040156Y029910D01*
X040386Y029680D02*
X040540Y029680D01*
X040463Y029756D02*
X040463Y029449D01*
X040540Y029373D01*
X040693Y029449D02*
X040693Y029603D01*
X040770Y029680D01*
X040923Y029680D01*
X041000Y029603D01*
X041000Y029526D01*
X040693Y029526D01*
X040693Y029449D02*
X040770Y029373D01*
X040923Y029373D01*
X040991Y029059D02*
X040915Y028982D01*
X040915Y028906D01*
X040991Y028829D01*
X041145Y028829D01*
X041222Y028752D01*
X041222Y028675D01*
X041375Y028829D02*
X041682Y028829D01*
X041222Y028982D02*
X041145Y029059D01*
X040991Y029059D01*
X040761Y028829D02*
X040454Y028829D01*
X039542Y029833D02*
X039466Y029833D01*
X036972Y027581D02*
X036972Y027121D01*
X027797Y027121D02*
X027720Y027197D01*
X027720Y027504D01*
X027643Y027428D02*
X027797Y027428D01*
X027490Y027351D02*
X027490Y027274D01*
X027183Y027274D01*
X027183Y027197D02*
X027183Y027351D01*
X027260Y027428D01*
X027413Y027428D01*
X027490Y027351D01*
X027413Y027121D02*
X027260Y027121D01*
X027183Y027197D01*
X027029Y027197D02*
X026953Y027274D01*
X026799Y027274D01*
X026723Y027351D01*
X026799Y027428D01*
X027029Y027428D01*
X027029Y027197D02*
X026953Y027121D01*
X026723Y027121D01*
X026569Y027274D02*
X026262Y027274D01*
X026262Y027197D02*
X026262Y027351D01*
X026339Y027428D01*
X026492Y027428D01*
X026569Y027351D01*
X026569Y027274D01*
X026492Y027121D02*
X026339Y027121D01*
X026262Y027197D01*
X026109Y027121D02*
X025955Y027274D01*
X026032Y027274D02*
X025802Y027274D01*
X025802Y027121D02*
X025802Y027581D01*
X026032Y027581D01*
X026109Y027504D01*
X026109Y027351D01*
X026032Y027274D01*
X025188Y027581D02*
X024881Y027581D01*
X025035Y027581D02*
X025035Y027121D01*
X024728Y027197D02*
X024651Y027121D01*
X024421Y027121D01*
X024421Y027581D01*
X024651Y027581D01*
X024728Y027504D01*
X024728Y027428D01*
X024651Y027351D01*
X024421Y027351D01*
X024651Y027351D02*
X024728Y027274D01*
X024728Y027197D01*
X017881Y030348D02*
X017794Y030348D01*
X017621Y030174D01*
X017452Y030174D02*
X017105Y030174D01*
X017105Y030088D02*
X017105Y030261D01*
X017192Y030348D01*
X017365Y030348D01*
X017452Y030261D01*
X017452Y030174D01*
X017365Y030001D02*
X017192Y030001D01*
X017105Y030088D01*
X016935Y030001D02*
X016848Y030088D01*
X016848Y030434D01*
X016761Y030348D02*
X016935Y030348D01*
X016592Y030348D02*
X016505Y030348D01*
X016331Y030174D01*
X016163Y030174D02*
X015816Y030174D01*
X015816Y030088D02*
X015816Y030261D01*
X015903Y030348D01*
X016076Y030348D01*
X016163Y030261D01*
X016163Y030174D01*
X016076Y030001D02*
X015903Y030001D01*
X015816Y030088D01*
X015647Y030348D02*
X015474Y030001D01*
X015300Y030348D01*
X015131Y030261D02*
X015131Y030001D01*
X015131Y030261D02*
X015045Y030348D01*
X014785Y030348D01*
X014785Y030001D01*
X014616Y030088D02*
X014616Y030261D01*
X014529Y030348D01*
X014356Y030348D01*
X014269Y030261D01*
X014269Y030088D01*
X014356Y030001D01*
X014529Y030001D01*
X014616Y030088D01*
X014100Y030088D02*
X014014Y030001D01*
X013840Y030001D01*
X013753Y030088D01*
X013753Y030434D01*
X013840Y030521D01*
X014014Y030521D01*
X014100Y030434D01*
X013069Y030521D02*
X012722Y030521D01*
X012722Y030001D01*
X012553Y030001D02*
X012206Y030001D01*
X012553Y030348D01*
X012553Y030434D01*
X012467Y030521D01*
X012293Y030521D01*
X012206Y030434D01*
X012038Y030001D02*
X011691Y030001D01*
X011691Y030521D01*
X012722Y030261D02*
X012896Y030261D01*
X009647Y030261D02*
X009560Y030174D01*
X009300Y030174D01*
X009300Y030001D02*
X009300Y030521D01*
X009560Y030521D01*
X009647Y030434D01*
X009647Y030261D01*
X009474Y030174D02*
X009647Y030001D01*
X009130Y030001D02*
X008956Y030001D01*
X009043Y030001D02*
X009043Y030521D01*
X008956Y030521D02*
X009130Y030521D01*
X008788Y030434D02*
X008788Y030261D01*
X008701Y030174D01*
X008441Y030174D01*
X008441Y030001D02*
X008441Y030521D01*
X008701Y030521D01*
X008788Y030434D01*
X006410Y030374D02*
X006410Y030028D01*
X006324Y029941D01*
X006150Y029941D01*
X006063Y030028D01*
X006063Y030374D01*
X006150Y030461D01*
X006324Y030461D01*
X006410Y030374D01*
X005895Y030461D02*
X005895Y030114D01*
X005721Y029941D01*
X005548Y030114D01*
X005548Y030461D01*
X005379Y030374D02*
X005379Y030201D01*
X005292Y030114D01*
X005032Y030114D01*
X005032Y029941D02*
X005032Y030461D01*
X005292Y030461D01*
X005379Y030374D01*
X005206Y030114D02*
X005379Y029941D01*
X004863Y029941D02*
X004516Y029941D01*
X004516Y030461D01*
X004863Y030461D01*
X004690Y030201D02*
X004516Y030201D01*
X004348Y030114D02*
X004261Y030201D01*
X004088Y030201D01*
X004001Y030288D01*
X004001Y030374D01*
X004088Y030461D01*
X004261Y030461D01*
X004348Y030374D01*
X004348Y030114D02*
X004348Y030028D01*
X004261Y029941D01*
X004088Y029941D01*
X004001Y030028D01*
X016331Y030001D02*
X016331Y030348D01*
X017621Y030348D02*
X017621Y030001D01*
X042661Y020880D02*
X042619Y020610D01*
X024639Y014396D02*
X024639Y014221D01*
X024522Y014221D02*
X024522Y014396D01*
X024581Y014454D01*
X024639Y014396D01*
X024522Y014396D02*
X024464Y014454D01*
X024406Y014454D01*
X024406Y014221D01*
X024280Y014221D02*
X024280Y014396D01*
X024222Y014454D01*
X024163Y014396D01*
X024163Y014221D01*
X024047Y014221D02*
X024047Y014454D01*
X024105Y014454D01*
X024163Y014396D01*
X023921Y014454D02*
X023687Y014221D01*
X023921Y014221D01*
X023921Y014454D02*
X023921Y014513D01*
X023863Y014571D01*
X023746Y014571D01*
X023687Y014513D01*
X023565Y014279D02*
X023506Y014279D01*
X023506Y014221D01*
X023565Y014221D01*
X023565Y014279D01*
X023565Y014221D02*
X023448Y014104D01*
X023322Y014279D02*
X023264Y014221D01*
X023147Y014221D01*
X023089Y014279D01*
X023089Y014396D02*
X023206Y014454D01*
X023264Y014454D01*
X023322Y014396D01*
X023322Y014279D01*
X023089Y014396D02*
X023089Y014571D01*
X023322Y014571D01*
X022847Y014571D02*
X022847Y014221D01*
X022963Y014221D02*
X022730Y014221D01*
X022604Y014221D02*
X022604Y014454D01*
X022488Y014571D01*
X022371Y014454D01*
X022371Y014221D01*
X022371Y014396D02*
X022604Y014396D01*
X022730Y014454D02*
X022847Y014571D01*
D11*
X022301Y014101D02*
X022301Y010851D01*
X025901Y010851D01*
X025901Y014101D01*
X022301Y014101D01*
X021984Y016961D02*
X021984Y017181D01*
X022131Y017181D01*
X022058Y017071D02*
X021984Y017071D01*
X021910Y017108D02*
X021910Y016961D01*
X021800Y016961D01*
X021763Y016997D01*
X021763Y017108D01*
X021616Y017181D02*
X021616Y016961D01*
X021689Y016961D02*
X021542Y016961D01*
X021468Y016961D02*
X021432Y016961D01*
X021432Y016997D01*
X021468Y016997D01*
X021468Y016961D01*
X021358Y016997D02*
X021321Y016961D01*
X021247Y016961D01*
X021211Y016997D01*
X021358Y017144D01*
X021358Y016997D01*
X021211Y016997D02*
X021211Y017144D01*
X021247Y017181D01*
X021321Y017181D01*
X021358Y017144D01*
X021542Y017108D02*
X021616Y017181D01*
X034801Y014601D02*
X034801Y011351D01*
X038401Y011351D01*
X038401Y014601D01*
X034801Y014601D01*
X036147Y021611D02*
X036111Y021647D01*
X036258Y021794D01*
X036258Y021647D01*
X036221Y021611D01*
X036147Y021611D01*
X036111Y021647D02*
X036111Y021794D01*
X036147Y021831D01*
X036221Y021831D01*
X036258Y021794D01*
X036332Y021647D02*
X036368Y021647D01*
X036368Y021611D01*
X036332Y021611D01*
X036332Y021647D01*
X036442Y021611D02*
X036589Y021611D01*
X036516Y021611D02*
X036516Y021831D01*
X036442Y021758D01*
X036663Y021758D02*
X036663Y021647D01*
X036700Y021611D01*
X036810Y021611D01*
X036810Y021758D01*
X036884Y021721D02*
X036958Y021721D01*
X036884Y021831D02*
X037031Y021831D01*
X036884Y021831D02*
X036884Y021611D01*
X037011Y026611D02*
X037011Y026911D01*
X037211Y026911D01*
X037305Y026811D02*
X037355Y026811D01*
X037355Y026611D01*
X037305Y026611D02*
X037406Y026611D01*
X037502Y026611D02*
X037502Y026811D01*
X037652Y026811D01*
X037702Y026761D01*
X037702Y026611D01*
X037796Y026661D02*
X037847Y026711D01*
X037997Y026711D01*
X037997Y026761D02*
X037997Y026611D01*
X037847Y026611D01*
X037796Y026661D01*
X037847Y026811D02*
X037947Y026811D01*
X037997Y026761D01*
X038091Y026911D02*
X038141Y026911D01*
X038141Y026611D01*
X038091Y026611D02*
X038191Y026611D01*
X038288Y026611D02*
X038388Y026611D01*
X038338Y026611D02*
X038338Y026811D01*
X038288Y026811D01*
X038338Y026911D02*
X038338Y026961D01*
X038484Y026811D02*
X038684Y026811D01*
X038484Y026611D01*
X038684Y026611D01*
X038779Y026661D02*
X038779Y026761D01*
X038829Y026811D01*
X038929Y026811D01*
X038979Y026761D01*
X038979Y026711D01*
X038779Y026711D01*
X038779Y026661D02*
X038829Y026611D01*
X038929Y026611D01*
X039073Y026661D02*
X039073Y026761D01*
X039123Y026811D01*
X039273Y026811D01*
X039368Y026811D02*
X039368Y026761D01*
X039418Y026761D01*
X039418Y026811D01*
X039368Y026811D01*
X039273Y026911D02*
X039273Y026611D01*
X039123Y026611D01*
X039073Y026661D01*
X039368Y026661D02*
X039368Y026611D01*
X039418Y026611D01*
X039418Y026661D01*
X039368Y026661D01*
X039810Y026761D02*
X040010Y026761D01*
X040105Y026761D02*
X040305Y026761D01*
X040399Y026661D02*
X040599Y026861D01*
X040599Y026911D01*
X040399Y026911D01*
X040399Y026661D02*
X040399Y026611D01*
X040694Y026761D02*
X040894Y026761D01*
X040988Y026861D02*
X041039Y026911D01*
X041139Y026911D01*
X041189Y026861D01*
X041189Y026811D01*
X040988Y026611D01*
X041189Y026611D01*
X041283Y026661D02*
X041483Y026861D01*
X041483Y026661D01*
X041433Y026611D01*
X041333Y026611D01*
X041283Y026661D01*
X041283Y026861D01*
X041333Y026911D01*
X041433Y026911D01*
X041483Y026861D01*
X041578Y026811D02*
X041678Y026911D01*
X041678Y026611D01*
X041578Y026611D02*
X041778Y026611D01*
X041872Y026611D02*
X042073Y026811D01*
X042073Y026861D01*
X042023Y026911D01*
X041922Y026911D01*
X041872Y026861D01*
X041872Y026611D02*
X042073Y026611D01*
X039960Y026611D02*
X039960Y026911D01*
X039810Y026761D01*
X037355Y026911D02*
X037355Y026961D01*
X037111Y026761D02*
X037011Y026761D01*
X004221Y016731D02*
X004074Y016731D01*
X004074Y016511D01*
X004000Y016547D02*
X003963Y016511D01*
X003853Y016511D01*
X003853Y016437D02*
X003853Y016658D01*
X003963Y016658D01*
X004000Y016621D01*
X004000Y016547D01*
X004074Y016621D02*
X004147Y016621D01*
X003779Y016658D02*
X003742Y016621D01*
X003668Y016621D01*
X003632Y016658D01*
X003632Y016694D01*
X003668Y016731D01*
X003742Y016731D01*
X003779Y016694D01*
X003779Y016658D01*
X003742Y016621D02*
X003779Y016584D01*
X003779Y016547D01*
X003742Y016511D01*
X003668Y016511D01*
X003632Y016547D01*
X003632Y016584D01*
X003668Y016621D01*
X003558Y016511D02*
X003411Y016511D01*
X003484Y016511D02*
X003484Y016731D01*
X003411Y016658D01*
X003484Y014931D02*
X003484Y014711D01*
X003411Y014711D02*
X003558Y014711D01*
X003632Y014747D02*
X003632Y014784D01*
X003668Y014821D01*
X003742Y014821D01*
X003779Y014784D01*
X003779Y014747D01*
X003742Y014711D01*
X003668Y014711D01*
X003632Y014747D01*
X003668Y014821D02*
X003632Y014858D01*
X003632Y014894D01*
X003668Y014931D01*
X003742Y014931D01*
X003779Y014894D01*
X003779Y014858D01*
X003742Y014821D01*
X003853Y014858D02*
X003963Y014858D01*
X004000Y014821D01*
X004000Y014747D01*
X003963Y014711D01*
X003853Y014711D01*
X003853Y014637D02*
X003853Y014858D01*
X004074Y014821D02*
X004147Y014821D01*
X004074Y014711D02*
X004074Y014931D01*
X004221Y014931D01*
X003484Y014931D02*
X003411Y014858D01*
X003447Y013031D02*
X003521Y013031D01*
X003558Y012994D01*
X003411Y012847D01*
X003447Y012811D01*
X003521Y012811D01*
X003558Y012847D01*
X003558Y012994D01*
X003447Y013031D02*
X003411Y012994D01*
X003411Y012847D01*
X003632Y012847D02*
X003668Y012847D01*
X003668Y012811D01*
X003632Y012811D01*
X003632Y012847D01*
X003742Y012811D02*
X003889Y012811D01*
X003816Y012811D02*
X003816Y013031D01*
X003742Y012958D01*
X003963Y012958D02*
X003963Y012847D01*
X004000Y012811D01*
X004110Y012811D01*
X004110Y012958D01*
X004184Y012921D02*
X004258Y012921D01*
X004184Y013031D02*
X004331Y013031D01*
X004184Y013031D02*
X004184Y012811D01*
D12*
X024376Y000841D03*
D13*
X024341Y000861D03*
X024341Y000871D03*
X024341Y000881D03*
X024351Y000891D03*
X024351Y000901D03*
X024441Y000871D03*
X024491Y000871D03*
X024491Y000881D03*
X024491Y000891D03*
X024491Y000841D03*
X024551Y000901D03*
X024611Y000861D03*
X024651Y000841D03*
X024671Y000871D03*
X024681Y000891D03*
X024721Y000891D03*
X024721Y000881D03*
X024721Y000871D03*
X024721Y000841D03*
X024771Y000851D03*
X024771Y000861D03*
X024781Y000891D03*
X024791Y000901D03*
X024851Y000891D03*
X024831Y000841D03*
D14*
X024566Y000841D03*
X024356Y000851D03*
D15*
X024446Y000881D03*
X024456Y000891D03*
X024676Y000881D03*
X024766Y000841D03*
X024836Y000851D03*
D16*
X024811Y000871D03*
X024811Y000881D03*
X024821Y000911D03*
X024691Y000861D03*
X024591Y000911D03*
X024581Y000881D03*
X024461Y000861D03*
X024461Y000851D03*
D17*
X024576Y000851D03*
X024686Y000851D03*
D18*
X024596Y000921D03*
X024836Y000861D03*
X024846Y000901D03*
D19*
X024711Y000911D03*
X024611Y000871D03*
X024561Y000891D03*
X024481Y000911D03*
D20*
X024476Y000901D03*
X024706Y000901D03*
D21*
X024631Y000901D03*
D22*
X030216Y004616D02*
X030216Y004986D01*
X030339Y004863D01*
X030463Y004986D01*
X030463Y004616D01*
X030584Y004677D02*
X030646Y004616D01*
X030769Y004616D01*
X030831Y004677D01*
X030831Y004924D01*
X030769Y004986D01*
X030646Y004986D01*
X030584Y004924D01*
X030584Y004677D01*
X030952Y004677D02*
X031014Y004616D01*
X031138Y004616D01*
X031199Y004677D01*
X031321Y004677D02*
X031382Y004616D01*
X031506Y004616D01*
X031568Y004677D01*
X031568Y004739D01*
X031506Y004801D01*
X031444Y004801D01*
X031506Y004801D02*
X031568Y004863D01*
X031568Y004924D01*
X031506Y004986D01*
X031382Y004986D01*
X031321Y004924D01*
X031199Y004924D02*
X031138Y004986D01*
X031014Y004986D01*
X030952Y004924D01*
X030952Y004677D01*
X031689Y004677D02*
X031751Y004616D01*
X031874Y004616D01*
X031936Y004677D01*
X031936Y004924D01*
X031689Y004677D01*
X031689Y004924D01*
X031751Y004986D01*
X031874Y004986D01*
X031936Y004924D01*
X032057Y004863D02*
X032181Y004986D01*
X032181Y004616D01*
X032304Y004616D02*
X032057Y004616D01*
X032426Y004616D02*
X032672Y004863D01*
X032672Y004924D01*
X032611Y004986D01*
X032487Y004986D01*
X032426Y004924D01*
X032426Y004616D02*
X032672Y004616D01*
X032794Y004616D02*
X032794Y004986D01*
X032917Y004863D01*
X033041Y004986D01*
X033041Y004616D01*
X025404Y006977D02*
X025342Y006916D01*
X025157Y006916D01*
X025157Y007286D01*
X025342Y007286D01*
X025404Y007224D01*
X025404Y007163D01*
X025342Y007101D01*
X025157Y007101D01*
X025342Y007101D02*
X025404Y007039D01*
X025404Y006977D01*
X025036Y006916D02*
X024789Y006916D01*
X024912Y006916D02*
X024912Y007286D01*
X024789Y007163D01*
X024299Y007224D02*
X024299Y007101D01*
X024238Y007039D01*
X024052Y007039D01*
X024052Y006916D02*
X024052Y007286D01*
X024238Y007286D01*
X024299Y007224D01*
X024176Y007039D02*
X024299Y006916D01*
X023931Y006916D02*
X023931Y007286D01*
X023808Y007163D01*
X023684Y007286D01*
X023684Y006916D01*
X023439Y006916D02*
X023439Y007286D01*
X023316Y007286D02*
X023563Y007286D01*
X001323Y017028D02*
X001274Y016980D01*
X001177Y016980D01*
X001129Y017028D01*
X001323Y017222D01*
X001323Y017028D01*
X001323Y017222D02*
X001274Y017270D01*
X001177Y017270D01*
X001129Y017222D01*
X001129Y017028D01*
X001028Y017028D02*
X000980Y016980D01*
X000883Y016980D01*
X000834Y017028D01*
X000834Y017222D01*
X000883Y017270D01*
X000980Y017270D01*
X001028Y017222D01*
X000733Y017222D02*
X000733Y017125D01*
X000685Y017077D01*
X000540Y017077D01*
X000540Y016980D02*
X000540Y017270D01*
X000685Y017270D01*
X000733Y017222D01*
X000883Y017980D02*
X000980Y017980D01*
X001028Y018028D01*
X001129Y017980D02*
X001323Y017980D01*
X001226Y017980D02*
X001226Y018270D01*
X001129Y018173D01*
X001028Y018222D02*
X000980Y018270D01*
X000883Y018270D01*
X000834Y018222D01*
X000834Y018028D01*
X000883Y017980D01*
X000733Y018125D02*
X000685Y018077D01*
X000540Y018077D01*
X000540Y017980D02*
X000540Y018270D01*
X000685Y018270D01*
X000733Y018222D01*
X000733Y018125D01*
X000883Y018980D02*
X000980Y018980D01*
X001028Y019028D01*
X001129Y018980D02*
X001323Y019173D01*
X001323Y019222D01*
X001274Y019270D01*
X001177Y019270D01*
X001129Y019222D01*
X001028Y019222D02*
X000980Y019270D01*
X000883Y019270D01*
X000834Y019222D01*
X000834Y019028D01*
X000883Y018980D01*
X000733Y019125D02*
X000685Y019077D01*
X000540Y019077D01*
X000540Y018980D02*
X000540Y019270D01*
X000685Y019270D01*
X000733Y019222D01*
X000733Y019125D01*
X001129Y018980D02*
X001323Y018980D01*
X001274Y019980D02*
X001177Y019980D01*
X001129Y020028D01*
X001028Y020028D02*
X000980Y019980D01*
X000883Y019980D01*
X000834Y020028D01*
X000834Y020222D01*
X000883Y020270D01*
X000980Y020270D01*
X001028Y020222D01*
X001129Y020222D02*
X001177Y020270D01*
X001274Y020270D01*
X001323Y020222D01*
X001323Y020173D01*
X001274Y020125D01*
X001323Y020077D01*
X001323Y020028D01*
X001274Y019980D01*
X001274Y020125D02*
X001226Y020125D01*
X000733Y020125D02*
X000733Y020222D01*
X000685Y020270D01*
X000540Y020270D01*
X000540Y019980D01*
X000540Y020077D02*
X000685Y020077D01*
X000733Y020125D01*
X000843Y020919D02*
X000940Y020919D01*
X000988Y020967D01*
X001089Y021064D02*
X001283Y021064D01*
X001234Y021209D02*
X001089Y021064D01*
X000988Y021161D02*
X000940Y021209D01*
X000843Y021209D01*
X000794Y021161D01*
X000794Y020967D01*
X000843Y020919D01*
X000693Y021064D02*
X000645Y021016D01*
X000500Y021016D01*
X000500Y020919D02*
X000500Y021209D01*
X000645Y021209D01*
X000693Y021161D01*
X000693Y021064D01*
X001234Y020919D02*
X001234Y021209D01*
X001274Y021980D02*
X001177Y021980D01*
X001129Y022028D01*
X001129Y022125D02*
X001226Y022173D01*
X001274Y022173D01*
X001323Y022125D01*
X001323Y022028D01*
X001274Y021980D01*
X001129Y022125D02*
X001129Y022270D01*
X001323Y022270D01*
X001028Y022222D02*
X000980Y022270D01*
X000883Y022270D01*
X000834Y022222D01*
X000834Y022028D01*
X000883Y021980D01*
X000980Y021980D01*
X001028Y022028D01*
X000733Y022125D02*
X000685Y022077D01*
X000540Y022077D01*
X000540Y021980D02*
X000540Y022270D01*
X000685Y022270D01*
X000733Y022222D01*
X000733Y022125D01*
X000637Y023480D02*
X000733Y023577D01*
X000733Y023770D01*
X000834Y023722D02*
X000834Y023528D01*
X000883Y023480D01*
X000980Y023480D01*
X001028Y023528D01*
X001129Y023528D02*
X001177Y023480D01*
X001274Y023480D01*
X001323Y023528D01*
X001323Y023722D02*
X001274Y023770D01*
X001177Y023770D01*
X001129Y023722D01*
X001129Y023528D01*
X001028Y023722D02*
X000980Y023770D01*
X000883Y023770D01*
X000834Y023722D01*
X000540Y023770D02*
X000540Y023577D01*
X000637Y023480D01*
X000685Y024580D02*
X000733Y024628D01*
X000733Y024725D01*
X000637Y024725D01*
X000733Y024822D02*
X000685Y024870D01*
X000588Y024870D01*
X000540Y024822D01*
X000540Y024628D01*
X000588Y024580D01*
X000685Y024580D01*
X000834Y024580D02*
X000834Y024870D01*
X001028Y024580D01*
X001028Y024870D01*
X001129Y024870D02*
X001274Y024870D01*
X001323Y024822D01*
X001323Y024628D01*
X001274Y024580D01*
X001129Y024580D01*
X001129Y024870D01*
X001177Y025480D02*
X001274Y025480D01*
X001323Y025528D01*
X001177Y025480D02*
X001129Y025528D01*
X001129Y025722D01*
X001177Y025770D01*
X001274Y025770D01*
X001323Y025722D01*
X001028Y025722D02*
X000980Y025770D01*
X000883Y025770D01*
X000834Y025722D01*
X000834Y025528D01*
X000883Y025480D01*
X000980Y025480D01*
X001028Y025528D01*
X000733Y025577D02*
X000733Y025770D01*
X000540Y025770D02*
X000540Y025577D01*
X000637Y025480D01*
X000733Y025577D01*
X000685Y026480D02*
X000733Y026528D01*
X000733Y026625D01*
X000637Y026625D01*
X000733Y026722D02*
X000685Y026770D01*
X000588Y026770D01*
X000540Y026722D01*
X000540Y026528D01*
X000588Y026480D01*
X000685Y026480D01*
X000834Y026480D02*
X000834Y026770D01*
X001028Y026480D01*
X001028Y026770D01*
X001129Y026770D02*
X001274Y026770D01*
X001323Y026722D01*
X001323Y026528D01*
X001274Y026480D01*
X001129Y026480D01*
X001129Y026770D01*
X004332Y027540D02*
X004525Y027540D01*
X004622Y027637D01*
X004525Y027733D01*
X004332Y027733D01*
X004380Y027834D02*
X004573Y027834D01*
X004622Y027883D01*
X004622Y027980D01*
X004573Y028028D01*
X004573Y028129D02*
X004622Y028177D01*
X004622Y028274D01*
X004573Y028323D01*
X004380Y028323D02*
X004332Y028274D01*
X004332Y028177D01*
X004380Y028129D01*
X004573Y028129D01*
X004380Y028028D02*
X004332Y027980D01*
X004332Y027883D01*
X004380Y027834D01*
X005332Y027834D02*
X005332Y028028D01*
X005332Y027931D02*
X005622Y027931D01*
X005622Y027733D02*
X005428Y027733D01*
X005332Y027637D01*
X005428Y027540D01*
X005622Y027540D01*
X005573Y027439D02*
X005380Y027439D01*
X005332Y027390D01*
X005332Y027245D01*
X005622Y027245D01*
X005622Y027390D01*
X005573Y027439D01*
X005477Y027540D02*
X005477Y027733D01*
X005477Y028129D02*
X005477Y028323D01*
X005428Y028323D02*
X005622Y028323D01*
X005428Y028323D02*
X005332Y028226D01*
X005428Y028129D01*
X005622Y028129D01*
X006382Y028204D02*
X006382Y028059D01*
X006672Y028059D01*
X006672Y028204D01*
X006623Y028253D01*
X006430Y028253D01*
X006382Y028204D01*
X006382Y027958D02*
X006672Y027958D01*
X006382Y027764D01*
X006672Y027764D01*
X006623Y027663D02*
X006527Y027663D01*
X006527Y027567D01*
X006623Y027663D02*
X006672Y027615D01*
X006672Y027518D01*
X006623Y027470D01*
X006430Y027470D01*
X006382Y027518D01*
X006382Y027615D01*
X006430Y027663D01*
X008432Y027683D02*
X008625Y027683D01*
X008722Y027587D01*
X008625Y027490D01*
X008432Y027490D01*
X008480Y027784D02*
X008673Y027784D01*
X008722Y027833D01*
X008722Y027930D01*
X008673Y027978D01*
X008673Y028079D02*
X008722Y028127D01*
X008722Y028224D01*
X008673Y028273D01*
X008480Y028273D02*
X008432Y028224D01*
X008432Y028127D01*
X008480Y028079D01*
X008673Y028079D01*
X008480Y027978D02*
X008432Y027930D01*
X008432Y027833D01*
X008480Y027784D01*
X009422Y027784D02*
X009712Y027978D01*
X009422Y027978D01*
X009422Y028079D02*
X009422Y028224D01*
X009470Y028273D01*
X009663Y028273D01*
X009712Y028224D01*
X009712Y028079D01*
X009422Y028079D01*
X009422Y027784D02*
X009712Y027784D01*
X009663Y027683D02*
X009712Y027635D01*
X009712Y027538D01*
X009663Y027490D01*
X009470Y027490D01*
X009422Y027538D01*
X009422Y027635D01*
X009470Y027683D01*
X009567Y027683D02*
X009567Y027587D01*
X009567Y027683D02*
X009663Y027683D01*
X010432Y027587D02*
X010528Y027683D01*
X010722Y027683D01*
X010577Y027683D02*
X010577Y027490D01*
X010528Y027490D02*
X010432Y027587D01*
X010528Y027490D02*
X010722Y027490D01*
X010673Y027389D02*
X010480Y027389D01*
X010432Y027340D01*
X010432Y027195D01*
X010722Y027195D01*
X010722Y027340D01*
X010673Y027389D01*
X010432Y027784D02*
X010432Y027978D01*
X010432Y027881D02*
X010722Y027881D01*
X010722Y028079D02*
X010528Y028079D01*
X010432Y028176D01*
X010528Y028273D01*
X010722Y028273D01*
X010577Y028273D02*
X010577Y028079D01*
X013172Y028079D02*
X013172Y028224D01*
X013220Y028273D01*
X013413Y028273D01*
X013462Y028224D01*
X013462Y028079D01*
X013172Y028079D01*
X013172Y027978D02*
X013462Y027978D01*
X013172Y027784D01*
X013462Y027784D01*
X013413Y027683D02*
X013317Y027683D01*
X013317Y027587D01*
X013413Y027683D02*
X013462Y027635D01*
X013462Y027538D01*
X013413Y027490D01*
X013220Y027490D01*
X013172Y027538D01*
X013172Y027635D01*
X013220Y027683D01*
X014232Y027683D02*
X014425Y027683D01*
X014522Y027587D01*
X014425Y027490D01*
X014232Y027490D01*
X014280Y027784D02*
X014473Y027784D01*
X014522Y027833D01*
X014522Y027930D01*
X014473Y027978D01*
X014473Y028079D02*
X014522Y028127D01*
X014522Y028224D01*
X014473Y028273D01*
X014280Y028273D02*
X014232Y028224D01*
X014232Y028127D01*
X014280Y028079D01*
X014473Y028079D01*
X014280Y027978D02*
X014232Y027930D01*
X014232Y027833D01*
X014280Y027784D01*
X015182Y027784D02*
X015182Y027978D01*
X015182Y027881D02*
X015472Y027881D01*
X015472Y027683D02*
X015278Y027683D01*
X015182Y027587D01*
X015278Y027490D01*
X015472Y027490D01*
X015423Y027389D02*
X015230Y027389D01*
X015182Y027340D01*
X015182Y027195D01*
X015472Y027195D01*
X015472Y027340D01*
X015423Y027389D01*
X015327Y027490D02*
X015327Y027683D01*
X015327Y028079D02*
X015327Y028273D01*
X015278Y028273D02*
X015472Y028273D01*
X015278Y028273D02*
X015182Y028176D01*
X015278Y028079D01*
X015472Y028079D01*
D23*
X007901Y024101D02*
X007351Y024101D01*
X003851Y024101D02*
X003855Y024260D01*
X003867Y024420D01*
X003886Y024578D01*
X003913Y024735D01*
X003948Y024891D01*
X003991Y025044D01*
X004041Y025196D01*
X004098Y025345D01*
X004163Y025491D01*
X004235Y025633D01*
X004313Y025772D01*
X004399Y025907D01*
X004491Y026037D01*
X004589Y026163D01*
X004693Y026284D01*
X004803Y026399D01*
X004918Y026509D01*
X005039Y026613D01*
X005165Y026711D01*
X005295Y026803D01*
X005430Y026889D01*
X005569Y026967D01*
X005711Y027039D01*
X005857Y027104D01*
X006006Y027161D01*
X006158Y027211D01*
X006311Y027254D01*
X006467Y027289D01*
X006624Y027316D01*
X006782Y027335D01*
X006942Y027347D01*
X007101Y027351D01*
X007260Y027347D01*
X007420Y027335D01*
X007578Y027316D01*
X007735Y027289D01*
X007891Y027254D01*
X008044Y027211D01*
X008196Y027161D01*
X008345Y027104D01*
X008491Y027039D01*
X008633Y026967D01*
X008772Y026889D01*
X008907Y026803D01*
X009037Y026711D01*
X009163Y026613D01*
X009284Y026509D01*
X009399Y026399D01*
X009509Y026284D01*
X009613Y026163D01*
X009711Y026037D01*
X009803Y025907D01*
X009889Y025772D01*
X009967Y025633D01*
X010039Y025491D01*
X010104Y025345D01*
X010161Y025196D01*
X010211Y025044D01*
X010254Y024891D01*
X010289Y024735D01*
X010316Y024578D01*
X010335Y024420D01*
X010347Y024260D01*
X010351Y024101D01*
X010347Y023942D01*
X010335Y023782D01*
X010316Y023624D01*
X010289Y023467D01*
X010254Y023311D01*
X010211Y023158D01*
X010161Y023006D01*
X010104Y022857D01*
X010039Y022711D01*
X009967Y022569D01*
X009889Y022430D01*
X009803Y022295D01*
X009711Y022165D01*
X009613Y022039D01*
X009509Y021918D01*
X009399Y021803D01*
X009284Y021693D01*
X009163Y021589D01*
X009037Y021491D01*
X008907Y021399D01*
X008772Y021313D01*
X008633Y021235D01*
X008491Y021163D01*
X008345Y021098D01*
X008196Y021041D01*
X008044Y020991D01*
X007891Y020948D01*
X007735Y020913D01*
X007578Y020886D01*
X007420Y020867D01*
X007260Y020855D01*
X007101Y020851D01*
X006942Y020855D01*
X006782Y020867D01*
X006624Y020886D01*
X006467Y020913D01*
X006311Y020948D01*
X006158Y020991D01*
X006006Y021041D01*
X005857Y021098D01*
X005711Y021163D01*
X005569Y021235D01*
X005430Y021313D01*
X005295Y021399D01*
X005165Y021491D01*
X005039Y021589D01*
X004918Y021693D01*
X004803Y021803D01*
X004693Y021918D01*
X004589Y022039D01*
X004491Y022165D01*
X004399Y022295D01*
X004313Y022430D01*
X004235Y022569D01*
X004163Y022711D01*
X004098Y022857D01*
X004041Y023006D01*
X003991Y023158D01*
X003948Y023311D01*
X003913Y023467D01*
X003886Y023624D01*
X003867Y023782D01*
X003855Y023942D01*
X003851Y024101D01*
X004151Y024101D02*
X004751Y024101D01*
X004451Y023801D02*
X004451Y024401D01*
X006301Y024101D02*
X006751Y024101D01*
X006751Y023351D01*
X007001Y023351D01*
X007001Y024851D01*
X006751Y024851D01*
X006751Y024101D01*
X012382Y022949D02*
X012382Y008349D01*
X014582Y008349D01*
X014582Y022949D01*
X013732Y022949D01*
X013730Y022919D01*
X013725Y022889D01*
X013716Y022860D01*
X013703Y022833D01*
X013688Y022807D01*
X013669Y022783D01*
X013648Y022762D01*
X013624Y022743D01*
X013598Y022728D01*
X013571Y022715D01*
X013542Y022706D01*
X013512Y022701D01*
X013482Y022699D01*
X013452Y022701D01*
X013422Y022706D01*
X013393Y022715D01*
X013366Y022728D01*
X013340Y022743D01*
X013316Y022762D01*
X013295Y022783D01*
X013276Y022807D01*
X013261Y022833D01*
X013248Y022860D01*
X013239Y022889D01*
X013234Y022919D01*
X013232Y022949D01*
X012382Y022949D01*
X022051Y016851D02*
X022051Y016101D01*
X022401Y016101D01*
X022401Y015501D01*
X022051Y015501D01*
X022051Y010601D01*
X026151Y010601D01*
X026151Y015501D01*
X025801Y015501D01*
X025801Y016101D01*
X026151Y016101D01*
X026151Y016851D01*
X022051Y016851D01*
X023391Y015501D02*
X023393Y015554D01*
X023399Y015607D01*
X023409Y015659D01*
X023423Y015710D01*
X023440Y015760D01*
X023461Y015809D01*
X023486Y015856D01*
X023514Y015901D01*
X023546Y015944D01*
X023581Y015984D01*
X023618Y016021D01*
X023658Y016056D01*
X023701Y016088D01*
X023746Y016116D01*
X023793Y016141D01*
X023842Y016162D01*
X023892Y016179D01*
X023943Y016193D01*
X023995Y016203D01*
X024048Y016209D01*
X024101Y016211D01*
X024154Y016209D01*
X024207Y016203D01*
X024259Y016193D01*
X024310Y016179D01*
X024360Y016162D01*
X024409Y016141D01*
X024456Y016116D01*
X024501Y016088D01*
X024544Y016056D01*
X024584Y016021D01*
X024621Y015984D01*
X024656Y015944D01*
X024688Y015901D01*
X024716Y015856D01*
X024741Y015809D01*
X024762Y015760D01*
X024779Y015710D01*
X024793Y015659D01*
X024803Y015607D01*
X024809Y015554D01*
X024811Y015501D01*
X024809Y015448D01*
X024803Y015395D01*
X024793Y015343D01*
X024779Y015292D01*
X024762Y015242D01*
X024741Y015193D01*
X024716Y015146D01*
X024688Y015101D01*
X024656Y015058D01*
X024621Y015018D01*
X024584Y014981D01*
X024544Y014946D01*
X024501Y014914D01*
X024456Y014886D01*
X024409Y014861D01*
X024360Y014840D01*
X024310Y014823D01*
X024259Y014809D01*
X024207Y014799D01*
X024154Y014793D01*
X024101Y014791D01*
X024048Y014793D01*
X023995Y014799D01*
X023943Y014809D01*
X023892Y014823D01*
X023842Y014840D01*
X023793Y014861D01*
X023746Y014886D01*
X023701Y014914D01*
X023658Y014946D01*
X023618Y014981D01*
X023581Y015018D01*
X023546Y015058D01*
X023514Y015101D01*
X023486Y015146D01*
X023461Y015193D01*
X023440Y015242D01*
X023423Y015292D01*
X023409Y015343D01*
X023399Y015395D01*
X023393Y015448D01*
X023391Y015501D01*
X034551Y016001D02*
X034551Y011101D01*
X038651Y011101D01*
X038651Y016001D01*
X038301Y016001D01*
X038301Y016601D01*
X038651Y016601D01*
X038651Y017351D01*
X034551Y017351D01*
X034551Y016601D01*
X034901Y016601D01*
X034901Y016001D01*
X034551Y016001D01*
X035891Y016001D02*
X035893Y016054D01*
X035899Y016107D01*
X035909Y016159D01*
X035923Y016210D01*
X035940Y016260D01*
X035961Y016309D01*
X035986Y016356D01*
X036014Y016401D01*
X036046Y016444D01*
X036081Y016484D01*
X036118Y016521D01*
X036158Y016556D01*
X036201Y016588D01*
X036246Y016616D01*
X036293Y016641D01*
X036342Y016662D01*
X036392Y016679D01*
X036443Y016693D01*
X036495Y016703D01*
X036548Y016709D01*
X036601Y016711D01*
X036654Y016709D01*
X036707Y016703D01*
X036759Y016693D01*
X036810Y016679D01*
X036860Y016662D01*
X036909Y016641D01*
X036956Y016616D01*
X037001Y016588D01*
X037044Y016556D01*
X037084Y016521D01*
X037121Y016484D01*
X037156Y016444D01*
X037188Y016401D01*
X037216Y016356D01*
X037241Y016309D01*
X037262Y016260D01*
X037279Y016210D01*
X037293Y016159D01*
X037303Y016107D01*
X037309Y016054D01*
X037311Y016001D01*
X037309Y015948D01*
X037303Y015895D01*
X037293Y015843D01*
X037279Y015792D01*
X037262Y015742D01*
X037241Y015693D01*
X037216Y015646D01*
X037188Y015601D01*
X037156Y015558D01*
X037121Y015518D01*
X037084Y015481D01*
X037044Y015446D01*
X037001Y015414D01*
X036956Y015386D01*
X036909Y015361D01*
X036860Y015340D01*
X036810Y015323D01*
X036759Y015309D01*
X036707Y015299D01*
X036654Y015293D01*
X036601Y015291D01*
X036548Y015293D01*
X036495Y015299D01*
X036443Y015309D01*
X036392Y015323D01*
X036342Y015340D01*
X036293Y015361D01*
X036246Y015386D01*
X036201Y015414D01*
X036158Y015446D01*
X036118Y015481D01*
X036081Y015518D01*
X036046Y015558D01*
X036014Y015601D01*
X035986Y015646D01*
X035961Y015693D01*
X035940Y015742D01*
X035923Y015792D01*
X035909Y015843D01*
X035899Y015895D01*
X035893Y015948D01*
X035891Y016001D01*
X040931Y014758D02*
X040931Y014331D01*
X040931Y014651D02*
X041358Y014651D01*
X041358Y014758D02*
X041358Y014331D01*
X041575Y014438D02*
X041682Y014331D01*
X041896Y014331D01*
X042002Y014438D01*
X042002Y014865D02*
X041896Y014971D01*
X041682Y014971D01*
X041575Y014865D01*
X041575Y014438D01*
X041358Y014758D02*
X041144Y014971D01*
X040931Y014758D01*
X042864Y014865D02*
X042864Y014438D01*
X042971Y014331D01*
X043185Y014331D01*
X043291Y014438D01*
X043291Y014865D01*
X043185Y014971D01*
X042971Y014971D01*
X042864Y014865D01*
X043509Y014971D02*
X043509Y014438D01*
X043616Y014331D01*
X043829Y014331D01*
X043936Y014438D01*
X043936Y014971D01*
X044153Y014971D02*
X044580Y014971D01*
X044367Y014971D02*
X044367Y014331D01*
X038451Y021901D02*
X035751Y021901D01*
X035734Y021903D01*
X035717Y021907D01*
X035701Y021914D01*
X035687Y021924D01*
X035674Y021937D01*
X035664Y021951D01*
X035657Y021967D01*
X035653Y021984D01*
X035651Y022001D01*
X035651Y023801D01*
X035653Y023818D01*
X035657Y023835D01*
X035664Y023851D01*
X035674Y023865D01*
X035687Y023878D01*
X035701Y023888D01*
X035717Y023895D01*
X035734Y023899D01*
X035751Y023901D01*
X038451Y023901D01*
X038468Y023899D01*
X038485Y023895D01*
X038501Y023888D01*
X038515Y023878D01*
X038528Y023865D01*
X038538Y023851D01*
X038545Y023835D01*
X038549Y023818D01*
X038551Y023801D01*
X038551Y022001D01*
X038549Y021984D01*
X038545Y021967D01*
X038538Y021951D01*
X038528Y021937D01*
X038515Y021924D01*
X038501Y021914D01*
X038485Y021907D01*
X038468Y021903D01*
X038451Y021901D01*
X037701Y022901D02*
X037221Y022901D01*
X036971Y022901D02*
X036501Y022901D01*
X040931Y025431D02*
X040931Y025858D01*
X041144Y026071D01*
X041358Y025858D01*
X041358Y025431D01*
X041575Y025538D02*
X041682Y025431D01*
X041896Y025431D01*
X042002Y025538D01*
X042002Y025965D02*
X041896Y026071D01*
X041682Y026071D01*
X041575Y025965D01*
X041575Y025538D01*
X041358Y025751D02*
X040931Y025751D01*
X042864Y025431D02*
X043078Y025431D01*
X042971Y025431D02*
X042971Y026071D01*
X042864Y026071D02*
X043078Y026071D01*
X043294Y026071D02*
X043721Y025431D01*
X043721Y026071D01*
X043294Y026071D02*
X043294Y025431D01*
X039101Y005251D02*
X036101Y005251D01*
X036101Y004501D01*
X036140Y004499D01*
X036179Y004493D01*
X036217Y004484D01*
X036254Y004471D01*
X036290Y004454D01*
X036323Y004434D01*
X036355Y004410D01*
X036384Y004384D01*
X036410Y004355D01*
X036434Y004323D01*
X036454Y004290D01*
X036471Y004254D01*
X036484Y004217D01*
X036493Y004179D01*
X036499Y004140D01*
X036501Y004101D01*
X036499Y004062D01*
X036493Y004023D01*
X036484Y003985D01*
X036471Y003948D01*
X036454Y003912D01*
X036434Y003879D01*
X036410Y003847D01*
X036384Y003818D01*
X036355Y003792D01*
X036323Y003768D01*
X036290Y003748D01*
X036254Y003731D01*
X036217Y003718D01*
X036179Y003709D01*
X036140Y003703D01*
X036101Y003701D01*
X036101Y002951D01*
X039101Y002951D01*
X039101Y005251D01*
X033101Y005251D02*
X033101Y002951D01*
X030101Y002951D01*
X030101Y003701D01*
X030140Y003703D01*
X030179Y003709D01*
X030217Y003718D01*
X030254Y003731D01*
X030290Y003748D01*
X030323Y003768D01*
X030355Y003792D01*
X030384Y003818D01*
X030410Y003847D01*
X030434Y003879D01*
X030454Y003912D01*
X030471Y003948D01*
X030484Y003985D01*
X030493Y004023D01*
X030499Y004062D01*
X030501Y004101D01*
X030499Y004140D01*
X030493Y004179D01*
X030484Y004217D01*
X030471Y004254D01*
X030454Y004290D01*
X030434Y004323D01*
X030410Y004355D01*
X030384Y004384D01*
X030355Y004410D01*
X030323Y004434D01*
X030290Y004454D01*
X030254Y004471D01*
X030217Y004484D01*
X030179Y004493D01*
X030140Y004499D01*
X030101Y004501D01*
X030101Y005251D01*
X033101Y005251D01*
X009601Y005001D02*
X009556Y005003D01*
X009510Y005008D01*
X009466Y005016D01*
X009422Y005028D01*
X009379Y005044D01*
X009337Y005062D01*
X009297Y005084D01*
X009259Y005108D01*
X009223Y005135D01*
X009188Y005165D01*
X009157Y005198D01*
X009127Y005233D01*
X009601Y005001D02*
X009646Y005003D01*
X009692Y005008D01*
X009736Y005016D01*
X009780Y005028D01*
X009823Y005044D01*
X009865Y005062D01*
X009905Y005084D01*
X009943Y005108D01*
X009979Y005135D01*
X010014Y005165D01*
X010045Y005198D01*
X010075Y005233D01*
X009601Y006201D02*
X009555Y006199D01*
X009509Y006194D01*
X009463Y006185D01*
X009418Y006173D01*
X009375Y006157D01*
X009333Y006138D01*
X009292Y006115D01*
X009253Y006090D01*
X009217Y006062D01*
X009182Y006031D01*
X009150Y005997D01*
X009121Y005961D01*
X009601Y006201D02*
X009648Y006199D01*
X009696Y006193D01*
X009742Y006184D01*
X009788Y006171D01*
X009832Y006155D01*
X009876Y006135D01*
X009917Y006111D01*
X009956Y006085D01*
X009993Y006055D01*
X010028Y006022D01*
X010060Y005987D01*
X010089Y005950D01*
D24*
X006872Y002282D02*
X003329Y002282D01*
X003329Y006494D01*
X004156Y006494D01*
X006046Y006494D02*
X006872Y006494D01*
X006872Y006219D01*
X006872Y004369D02*
X006872Y002282D01*
X007811Y002957D02*
X007811Y001244D01*
X012390Y001244D01*
X012390Y002957D01*
X007811Y002957D01*
X012861Y004628D02*
X012861Y005573D01*
X015341Y005573D01*
X015341Y004628D01*
X012861Y004628D01*
X013601Y002701D02*
X013601Y001501D01*
X016601Y001501D01*
X016601Y002701D01*
X013601Y002701D01*
X017901Y002506D02*
X017901Y001701D01*
X018251Y000901D02*
X019951Y000901D01*
X020301Y001701D02*
X020301Y002494D01*
X019951Y003301D02*
X018251Y003301D01*
X018401Y002101D02*
X018403Y002153D01*
X018409Y002205D01*
X018419Y002257D01*
X018432Y002307D01*
X018449Y002357D01*
X018470Y002405D01*
X018495Y002451D01*
X018523Y002495D01*
X018554Y002537D01*
X018588Y002577D01*
X018625Y002614D01*
X018665Y002648D01*
X018707Y002679D01*
X018751Y002707D01*
X018797Y002732D01*
X018845Y002753D01*
X018895Y002770D01*
X018945Y002783D01*
X018997Y002793D01*
X019049Y002799D01*
X019101Y002801D01*
X019153Y002799D01*
X019205Y002793D01*
X019257Y002783D01*
X019307Y002770D01*
X019357Y002753D01*
X019405Y002732D01*
X019451Y002707D01*
X019495Y002679D01*
X019537Y002648D01*
X019577Y002614D01*
X019614Y002577D01*
X019648Y002537D01*
X019679Y002495D01*
X019707Y002451D01*
X019732Y002405D01*
X019753Y002357D01*
X019770Y002307D01*
X019783Y002257D01*
X019793Y002205D01*
X019799Y002153D01*
X019801Y002101D01*
X019799Y002049D01*
X019793Y001997D01*
X019783Y001945D01*
X019770Y001895D01*
X019753Y001845D01*
X019732Y001797D01*
X019707Y001751D01*
X019679Y001707D01*
X019648Y001665D01*
X019614Y001625D01*
X019577Y001588D01*
X019537Y001554D01*
X019495Y001523D01*
X019451Y001495D01*
X019405Y001470D01*
X019357Y001449D01*
X019307Y001432D01*
X019257Y001419D01*
X019205Y001409D01*
X019153Y001403D01*
X019101Y001401D01*
X019049Y001403D01*
X018997Y001409D01*
X018945Y001419D01*
X018895Y001432D01*
X018845Y001449D01*
X018797Y001470D01*
X018751Y001495D01*
X018707Y001523D01*
X018665Y001554D01*
X018625Y001588D01*
X018588Y001625D01*
X018554Y001665D01*
X018523Y001707D01*
X018495Y001751D01*
X018470Y001797D01*
X018449Y001845D01*
X018432Y001895D01*
X018419Y001945D01*
X018409Y001997D01*
X018403Y002049D01*
X018401Y002101D01*
X022101Y001851D02*
X022101Y002351D01*
X022351Y002601D01*
X022101Y002851D01*
X022101Y003351D01*
X022351Y003601D01*
X022101Y003851D01*
X022101Y004351D01*
X022351Y004601D01*
X022101Y004851D01*
X022101Y005351D01*
X022351Y005601D01*
X022101Y005851D01*
X022101Y006351D01*
X022351Y006601D01*
X022101Y006851D01*
X022101Y007351D01*
X022351Y007601D01*
X022851Y007601D01*
X023101Y007351D01*
X023101Y006851D01*
X022851Y006601D01*
X023101Y006351D01*
X023101Y005851D01*
X022851Y005601D01*
X023101Y005351D01*
X023101Y004851D01*
X022851Y004601D01*
X023101Y004351D01*
X023101Y003851D01*
X022851Y003601D01*
X023101Y003351D01*
X023101Y002851D01*
X022851Y002601D01*
X023101Y002351D01*
X023101Y001851D01*
X022851Y001601D01*
X022351Y001601D01*
X022101Y001851D01*
X025601Y001851D02*
X025851Y001601D01*
X026351Y001601D01*
X026601Y001851D01*
X026601Y002351D01*
X026351Y002601D01*
X026601Y002851D01*
X026601Y003351D01*
X026351Y003601D01*
X026601Y003851D01*
X026601Y004351D01*
X026351Y004601D01*
X026601Y004851D01*
X026601Y005351D01*
X026351Y005601D01*
X026601Y005851D01*
X026601Y006351D01*
X026351Y006601D01*
X026601Y006851D01*
X026601Y007351D01*
X026351Y007601D01*
X025851Y007601D01*
X025601Y007351D01*
X025601Y006851D01*
X025851Y006601D01*
X025601Y006351D01*
X025601Y005851D01*
X025851Y005601D01*
X025601Y005351D01*
X025601Y004851D01*
X025851Y004601D01*
X025601Y004351D01*
X025601Y003851D01*
X025851Y003601D01*
X025601Y003351D01*
X025601Y002851D01*
X025851Y002601D01*
X025601Y002351D01*
X025601Y001851D01*
X029329Y007451D02*
X032872Y007451D01*
X032872Y008750D01*
X029329Y008750D01*
X029329Y007451D01*
X029329Y010451D02*
X032872Y010451D01*
X032872Y011750D01*
X029329Y011750D01*
X029329Y010451D01*
X029329Y012451D02*
X032872Y012451D01*
X032872Y013750D01*
X029329Y013750D01*
X029329Y012451D01*
X029329Y014451D02*
X032872Y014451D01*
X032872Y015750D01*
X029329Y015750D01*
X029329Y014451D01*
X029829Y018451D02*
X029829Y019750D01*
X033372Y019750D01*
X033372Y018451D01*
X029829Y018451D01*
X027073Y018861D02*
X027073Y021341D01*
X026128Y021341D01*
X026128Y018861D01*
X027073Y018861D01*
X029829Y020951D02*
X029829Y022250D01*
X033372Y022250D01*
X033372Y020951D01*
X029829Y020951D01*
X029829Y024451D02*
X029829Y025750D01*
X033372Y025750D01*
X033372Y024451D01*
X029829Y024451D01*
X027345Y025128D02*
X027345Y025921D01*
X026995Y026728D02*
X025295Y026728D01*
X024945Y025932D02*
X024945Y025128D01*
X025295Y024328D02*
X026995Y024328D01*
X025445Y025528D02*
X025447Y025580D01*
X025453Y025632D01*
X025463Y025684D01*
X025476Y025734D01*
X025493Y025784D01*
X025514Y025832D01*
X025539Y025878D01*
X025567Y025922D01*
X025598Y025964D01*
X025632Y026004D01*
X025669Y026041D01*
X025709Y026075D01*
X025751Y026106D01*
X025795Y026134D01*
X025841Y026159D01*
X025889Y026180D01*
X025939Y026197D01*
X025989Y026210D01*
X026041Y026220D01*
X026093Y026226D01*
X026145Y026228D01*
X026197Y026226D01*
X026249Y026220D01*
X026301Y026210D01*
X026351Y026197D01*
X026401Y026180D01*
X026449Y026159D01*
X026495Y026134D01*
X026539Y026106D01*
X026581Y026075D01*
X026621Y026041D01*
X026658Y026004D01*
X026692Y025964D01*
X026723Y025922D01*
X026751Y025878D01*
X026776Y025832D01*
X026797Y025784D01*
X026814Y025734D01*
X026827Y025684D01*
X026837Y025632D01*
X026843Y025580D01*
X026845Y025528D01*
X026843Y025476D01*
X026837Y025424D01*
X026827Y025372D01*
X026814Y025322D01*
X026797Y025272D01*
X026776Y025224D01*
X026751Y025178D01*
X026723Y025134D01*
X026692Y025092D01*
X026658Y025052D01*
X026621Y025015D01*
X026581Y024981D01*
X026539Y024950D01*
X026495Y024922D01*
X026449Y024897D01*
X026401Y024876D01*
X026351Y024859D01*
X026301Y024846D01*
X026249Y024836D01*
X026197Y024830D01*
X026145Y024828D01*
X026093Y024830D01*
X026041Y024836D01*
X025989Y024846D01*
X025939Y024859D01*
X025889Y024876D01*
X025841Y024897D01*
X025795Y024922D01*
X025751Y024950D01*
X025709Y024981D01*
X025669Y025015D01*
X025632Y025052D01*
X025598Y025092D01*
X025567Y025134D01*
X025539Y025178D01*
X025514Y025224D01*
X025493Y025272D01*
X025476Y025322D01*
X025463Y025372D01*
X025453Y025424D01*
X025447Y025476D01*
X025445Y025528D01*
X023481Y027697D02*
X023481Y028367D01*
X023481Y030414D02*
X023481Y030808D01*
X023087Y030808D01*
X018678Y030808D02*
X018284Y030808D01*
X018284Y030414D01*
X015845Y029321D02*
X015845Y028821D01*
X015595Y028571D01*
X015095Y028571D01*
X014845Y028821D01*
X014595Y028571D01*
X014095Y028571D01*
X013845Y028821D01*
X013595Y028571D01*
X013095Y028571D01*
X012845Y028821D01*
X012845Y029321D01*
X013095Y029571D01*
X013595Y029571D01*
X013845Y029321D01*
X014095Y029571D01*
X014595Y029571D01*
X014845Y029321D01*
X015095Y029571D01*
X015595Y029571D01*
X015845Y029321D01*
X018284Y028367D02*
X018284Y027697D01*
X011071Y028811D02*
X010821Y028561D01*
X010321Y028561D01*
X010071Y028811D01*
X009821Y028561D01*
X009321Y028561D01*
X009071Y028811D01*
X008821Y028561D01*
X008321Y028561D01*
X008071Y028811D01*
X008071Y029311D01*
X008321Y029561D01*
X008821Y029561D01*
X009071Y029311D01*
X009321Y029561D01*
X009821Y029561D01*
X010071Y029311D01*
X010321Y029561D01*
X010821Y029561D01*
X011071Y029311D01*
X011071Y028811D01*
X006991Y028831D02*
X006991Y029331D01*
X006741Y029581D01*
X006241Y029581D01*
X005991Y029331D01*
X005741Y029581D01*
X005241Y029581D01*
X004991Y029331D01*
X004741Y029581D01*
X004241Y029581D01*
X003991Y029331D01*
X003991Y028831D01*
X004241Y028581D01*
X004741Y028581D01*
X004991Y028831D01*
X005241Y028581D01*
X005741Y028581D01*
X005991Y028831D01*
X006241Y028581D01*
X006741Y028581D01*
X006991Y028831D01*
X002789Y026968D02*
X002789Y026468D01*
X002539Y026218D01*
X002789Y025968D01*
X002789Y025468D01*
X002539Y025218D01*
X002789Y024968D01*
X002789Y024468D01*
X002539Y024218D01*
X002789Y023968D01*
X002789Y023468D01*
X002539Y023218D01*
X002039Y023218D01*
X001789Y023468D01*
X001789Y023968D01*
X002039Y024218D01*
X001789Y024468D01*
X001789Y024968D01*
X002039Y025218D01*
X001789Y025468D01*
X001789Y025968D01*
X002039Y026218D01*
X001789Y026468D01*
X001789Y026968D01*
X002039Y027218D01*
X002539Y027218D01*
X002789Y026968D01*
X002459Y022685D02*
X001959Y022685D01*
X001709Y022435D01*
X001709Y021935D01*
X001959Y021685D01*
X001709Y021435D01*
X001709Y020935D01*
X001959Y020685D01*
X001709Y020435D01*
X001709Y019935D01*
X001959Y019685D01*
X001709Y019435D01*
X001709Y018935D01*
X001959Y018685D01*
X001709Y018435D01*
X001709Y017935D01*
X001959Y017685D01*
X001709Y017435D01*
X001709Y016935D01*
X001959Y016685D01*
X002459Y016685D01*
X002709Y016935D01*
X002709Y017435D01*
X002459Y017685D01*
X002709Y017935D01*
X002709Y018435D01*
X002459Y018685D01*
X002709Y018935D01*
X002709Y019435D01*
X002459Y019685D01*
X002709Y019935D01*
X002709Y020435D01*
X002459Y020685D01*
X002709Y020935D01*
X002709Y021435D01*
X002459Y021685D01*
X002709Y021935D01*
X002709Y022435D01*
X002459Y022685D01*
X005861Y019573D02*
X008341Y019573D01*
X008341Y018628D01*
X005861Y018628D01*
X005861Y019573D01*
X006601Y017601D02*
X004601Y017601D01*
X004601Y016601D01*
X006601Y016601D01*
X006601Y017601D01*
X005601Y017351D02*
X005601Y016851D01*
X004601Y015601D02*
X006601Y015601D01*
X006601Y014601D01*
X004601Y014601D01*
X004601Y015601D01*
X005601Y015351D02*
X005601Y014851D01*
X004601Y013601D02*
X006601Y013601D01*
X006601Y012601D01*
X004601Y012601D01*
X004601Y013601D01*
X005601Y013351D02*
X005601Y012851D01*
X003601Y011351D02*
X003601Y010851D01*
X003351Y010601D01*
X001851Y010601D01*
X001601Y010851D01*
X001601Y011351D01*
X001851Y011601D01*
X003351Y011601D01*
X003601Y011351D01*
X003351Y010601D02*
X003601Y010351D01*
X003601Y009851D01*
X003351Y009601D01*
X001851Y009601D01*
X001601Y009851D01*
X001601Y010351D01*
X001851Y010601D01*
X001851Y009601D02*
X001601Y009351D01*
X001601Y008851D01*
X001851Y008601D01*
X003351Y008601D01*
X003601Y008851D01*
X003601Y009351D01*
X003351Y009601D01*
X003733Y009351D02*
X003733Y008851D01*
X008201Y012893D02*
X008201Y015593D01*
X008203Y015652D01*
X008209Y015710D01*
X008218Y015769D01*
X008232Y015826D01*
X008249Y015882D01*
X008270Y015937D01*
X008294Y015991D01*
X008322Y016043D01*
X008353Y016093D01*
X008387Y016141D01*
X008424Y016186D01*
X008465Y016229D01*
X008508Y016270D01*
X008553Y016307D01*
X008601Y016341D01*
X008651Y016372D01*
X008703Y016400D01*
X008757Y016424D01*
X008812Y016445D01*
X008868Y016462D01*
X008925Y016476D01*
X008984Y016485D01*
X009042Y016491D01*
X009101Y016493D01*
X009160Y016491D01*
X009218Y016485D01*
X009277Y016476D01*
X009334Y016462D01*
X009390Y016445D01*
X009445Y016424D01*
X009499Y016400D01*
X009551Y016372D01*
X009601Y016341D01*
X009649Y016307D01*
X009694Y016270D01*
X009737Y016229D01*
X009778Y016186D01*
X009815Y016141D01*
X009849Y016093D01*
X009880Y016043D01*
X009908Y015991D01*
X009932Y015937D01*
X009953Y015882D01*
X009970Y015826D01*
X009984Y015769D01*
X009993Y015710D01*
X009999Y015652D01*
X010001Y015593D01*
X010001Y012893D01*
X009999Y012834D01*
X009993Y012776D01*
X009984Y012717D01*
X009970Y012660D01*
X009953Y012604D01*
X009932Y012549D01*
X009908Y012495D01*
X009880Y012443D01*
X009849Y012393D01*
X009815Y012345D01*
X009778Y012300D01*
X009737Y012257D01*
X009694Y012216D01*
X009649Y012179D01*
X009601Y012145D01*
X009551Y012114D01*
X009499Y012086D01*
X009445Y012062D01*
X009390Y012041D01*
X009334Y012024D01*
X009277Y012010D01*
X009218Y012001D01*
X009160Y011995D01*
X009101Y011993D01*
X009042Y011995D01*
X008984Y012001D01*
X008925Y012010D01*
X008868Y012024D01*
X008812Y012041D01*
X008757Y012062D01*
X008703Y012086D01*
X008651Y012114D01*
X008601Y012145D01*
X008553Y012179D01*
X008508Y012216D01*
X008465Y012257D01*
X008424Y012300D01*
X008387Y012345D01*
X008353Y012393D01*
X008322Y012443D01*
X008294Y012495D01*
X008270Y012549D01*
X008249Y012604D01*
X008232Y012660D01*
X008218Y012717D01*
X008209Y012776D01*
X008203Y012834D01*
X008201Y012893D01*
X017639Y016064D02*
X017639Y018544D01*
X018584Y018544D01*
X018584Y016064D01*
X017639Y016064D01*
X021214Y017470D02*
X021214Y018470D01*
X023214Y018470D01*
X023214Y017470D01*
X021214Y017470D01*
X022214Y017720D02*
X022214Y018220D01*
X023087Y020650D02*
X023481Y020650D01*
X023481Y021044D01*
X018678Y020650D02*
X018284Y020650D01*
X018284Y021044D01*
X029829Y026951D02*
X029829Y028250D01*
X033372Y028250D01*
X033372Y026951D01*
X029829Y026951D01*
D25*
X030668Y027591D02*
X030848Y027591D01*
X030803Y027726D02*
X030668Y027591D01*
X030803Y027456D02*
X030803Y027726D01*
X030962Y027726D02*
X031142Y027726D01*
X031142Y027681D01*
X030962Y027501D01*
X030962Y027456D01*
X031257Y027456D02*
X031257Y027726D01*
X031392Y027636D02*
X031257Y027546D01*
X031392Y027456D01*
X031797Y027456D02*
X031977Y027456D01*
X031887Y027456D02*
X031887Y027726D01*
X031797Y027636D01*
X032092Y027456D02*
X032272Y027726D01*
X032386Y027681D02*
X032431Y027726D01*
X032522Y027726D01*
X032567Y027681D01*
X032567Y027636D01*
X032386Y027456D01*
X032567Y027456D01*
X032681Y027456D02*
X032771Y027546D01*
X032861Y027456D01*
X032861Y027726D01*
X032681Y027726D02*
X032681Y027456D01*
X032681Y025226D02*
X032681Y024956D01*
X032771Y025046D01*
X032861Y024956D01*
X032861Y025226D01*
X032567Y025181D02*
X032567Y025136D01*
X032386Y024956D01*
X032567Y024956D01*
X032567Y025181D02*
X032522Y025226D01*
X032431Y025226D01*
X032386Y025181D01*
X032272Y025226D02*
X032092Y024956D01*
X031977Y024956D02*
X031797Y024956D01*
X031887Y024956D02*
X031887Y025226D01*
X031797Y025136D01*
X031392Y025136D02*
X031257Y025046D01*
X031392Y024956D01*
X031257Y024956D02*
X031257Y025226D01*
X031142Y025226D02*
X031142Y025181D01*
X030962Y025001D01*
X030962Y024956D01*
X030803Y024956D02*
X030803Y025226D01*
X030668Y025091D01*
X030848Y025091D01*
X030962Y025226D02*
X031142Y025226D01*
X031142Y021726D02*
X031142Y021681D01*
X030962Y021501D01*
X030962Y021456D01*
X030803Y021456D02*
X030803Y021726D01*
X030668Y021591D01*
X030848Y021591D01*
X030962Y021726D02*
X031142Y021726D01*
X031257Y021726D02*
X031257Y021456D01*
X031257Y021546D02*
X031392Y021636D01*
X031257Y021546D02*
X031392Y021456D01*
X031797Y021456D02*
X031977Y021456D01*
X031887Y021456D02*
X031887Y021726D01*
X031797Y021636D01*
X032092Y021456D02*
X032272Y021726D01*
X032386Y021681D02*
X032431Y021726D01*
X032522Y021726D01*
X032567Y021681D01*
X032567Y021636D01*
X032386Y021456D01*
X032567Y021456D01*
X032681Y021456D02*
X032771Y021546D01*
X032861Y021456D01*
X032861Y021726D01*
X032681Y021726D02*
X032681Y021456D01*
X032681Y019226D02*
X032681Y018956D01*
X032771Y019046D01*
X032861Y018956D01*
X032861Y019226D01*
X032567Y019181D02*
X032522Y019226D01*
X032431Y019226D01*
X032386Y019181D01*
X032272Y019226D02*
X032092Y018956D01*
X031977Y018956D02*
X031797Y018956D01*
X031887Y018956D02*
X031887Y019226D01*
X031797Y019136D01*
X031392Y019136D02*
X031257Y019046D01*
X031392Y018956D01*
X031257Y018956D02*
X031257Y019226D01*
X031142Y019226D02*
X031142Y019181D01*
X030962Y019001D01*
X030962Y018956D01*
X030803Y018956D02*
X030803Y019226D01*
X030668Y019091D01*
X030848Y019091D01*
X030962Y019226D02*
X031142Y019226D01*
X032386Y018956D02*
X032567Y019136D01*
X032567Y019181D01*
X032567Y018956D02*
X032386Y018956D01*
X032117Y015246D02*
X032117Y014976D01*
X032027Y015066D01*
X031936Y014976D01*
X031936Y015246D01*
X031822Y015201D02*
X031777Y015246D01*
X031687Y015246D01*
X031642Y015201D01*
X031527Y015246D02*
X031347Y014976D01*
X031233Y014976D02*
X031053Y014976D01*
X031143Y014976D02*
X031143Y015246D01*
X031053Y015156D01*
X030647Y015156D02*
X030512Y015066D01*
X030647Y014976D01*
X030512Y014976D02*
X030512Y015246D01*
X030353Y015246D02*
X030218Y015111D01*
X030398Y015111D01*
X030353Y014976D02*
X030353Y015246D01*
X030115Y015021D02*
X030115Y014976D01*
X030070Y014976D01*
X030070Y015021D01*
X030115Y015021D01*
X029956Y014976D02*
X029776Y014976D01*
X029956Y015156D01*
X029956Y015201D01*
X029911Y015246D01*
X029821Y015246D01*
X029776Y015201D01*
X031642Y014976D02*
X031822Y015156D01*
X031822Y015201D01*
X031822Y014976D02*
X031642Y014976D01*
X031675Y013246D02*
X031675Y012976D01*
X031585Y013066D01*
X031495Y012976D01*
X031495Y013246D01*
X031380Y013201D02*
X031335Y013246D01*
X031245Y013246D01*
X031200Y013201D01*
X031085Y013246D02*
X030905Y012976D01*
X030791Y012976D02*
X030611Y012976D01*
X030701Y012976D02*
X030701Y013246D01*
X030611Y013156D01*
X030206Y013156D02*
X030070Y013066D01*
X030206Y012976D01*
X030070Y012976D02*
X030070Y013246D01*
X029866Y013246D02*
X029866Y012976D01*
X029776Y012976D02*
X029956Y012976D01*
X029776Y013156D02*
X029866Y013246D01*
X031200Y012976D02*
X031380Y013156D01*
X031380Y013201D01*
X031380Y012976D02*
X031200Y012976D01*
X031380Y011246D02*
X031200Y010976D01*
X031085Y010976D02*
X030905Y010976D01*
X030995Y010976D02*
X030995Y011246D01*
X030905Y011156D01*
X030500Y011156D02*
X030365Y011066D01*
X030500Y010976D01*
X030365Y010976D02*
X030365Y011246D01*
X030251Y011201D02*
X030070Y011021D01*
X030115Y010976D01*
X030206Y010976D01*
X030251Y011021D01*
X030251Y011201D01*
X030206Y011246D01*
X030115Y011246D01*
X030070Y011201D01*
X030070Y011021D01*
X029956Y010976D02*
X029776Y010976D01*
X029866Y010976D02*
X029866Y011246D01*
X029776Y011156D01*
X031495Y011201D02*
X031540Y011246D01*
X031630Y011246D01*
X031675Y011201D01*
X031675Y011156D01*
X031495Y010976D01*
X031675Y010976D01*
X031789Y010976D02*
X031879Y011066D01*
X031969Y010976D01*
X031969Y011246D01*
X031789Y011246D02*
X031789Y010976D01*
X031838Y008246D02*
X031838Y007976D01*
X031928Y008066D01*
X032018Y007976D01*
X032018Y008246D01*
X031724Y008201D02*
X031679Y008246D01*
X031589Y008246D01*
X031544Y008201D01*
X031429Y008246D02*
X031249Y007976D01*
X031134Y007976D02*
X030954Y007976D01*
X031044Y007976D02*
X031044Y008246D01*
X030954Y008156D01*
X030545Y008201D02*
X030365Y008021D01*
X030410Y007976D01*
X030500Y007976D01*
X030545Y008021D01*
X030545Y008201D01*
X030500Y008246D01*
X030410Y008246D01*
X030365Y008201D01*
X030365Y008021D01*
X030251Y008021D02*
X030206Y007976D01*
X030115Y007976D01*
X030070Y008021D01*
X030070Y008066D01*
X030115Y008111D01*
X030206Y008111D01*
X030251Y008066D01*
X030251Y008021D01*
X030206Y008111D02*
X030251Y008156D01*
X030251Y008201D01*
X030206Y008246D01*
X030115Y008246D01*
X030070Y008201D01*
X030070Y008156D01*
X030115Y008111D01*
X029956Y007976D02*
X029776Y007976D01*
X029866Y007976D02*
X029866Y008246D01*
X029776Y008156D01*
X031544Y007976D02*
X031724Y008156D01*
X031724Y008201D01*
X031724Y007976D02*
X031544Y007976D01*
X018257Y017394D02*
X018257Y017574D01*
X018257Y017484D02*
X017987Y017484D01*
X018077Y017394D01*
X018032Y017689D02*
X017987Y017734D01*
X017987Y017824D01*
X018032Y017869D01*
X018212Y017689D01*
X018257Y017734D01*
X018257Y017824D01*
X018212Y017869D01*
X018032Y017869D01*
X017987Y017983D02*
X018257Y017983D01*
X018167Y017983D02*
X018077Y018118D01*
X018167Y017983D02*
X018257Y018118D01*
X018212Y017689D02*
X018032Y017689D01*
X026456Y019316D02*
X026546Y019226D01*
X026456Y019316D02*
X026726Y019316D01*
X026726Y019226D02*
X026726Y019406D01*
X026681Y019520D02*
X026501Y019701D01*
X026681Y019701D01*
X026726Y019656D01*
X026726Y019565D01*
X026681Y019520D01*
X026501Y019520D01*
X026456Y019565D01*
X026456Y019656D01*
X026501Y019701D01*
X026456Y019815D02*
X026726Y019815D01*
X026636Y019815D02*
X026546Y019950D01*
X026636Y019815D02*
X026726Y019950D01*
X007915Y019136D02*
X007780Y019046D01*
X007915Y018956D01*
X007780Y018956D02*
X007780Y019226D01*
X007666Y019181D02*
X007486Y019001D01*
X007531Y018956D01*
X007621Y018956D01*
X007666Y019001D01*
X007666Y019181D01*
X007621Y019226D01*
X007531Y019226D01*
X007486Y019181D01*
X007486Y019001D01*
X007371Y018956D02*
X007191Y018956D01*
X007281Y018956D02*
X007281Y019226D01*
X007191Y019136D01*
X014187Y005226D02*
X014277Y005226D01*
X014322Y005181D01*
X014322Y005136D01*
X014277Y005091D01*
X014322Y005046D01*
X014322Y005001D01*
X014277Y004956D01*
X014187Y004956D01*
X014142Y005001D01*
X014232Y005091D02*
X014277Y005091D01*
X014142Y005181D02*
X014187Y005226D01*
X014436Y005181D02*
X014481Y005226D01*
X014572Y005226D01*
X014617Y005181D01*
X014617Y005136D01*
X014572Y005091D01*
X014617Y005046D01*
X014617Y005001D01*
X014572Y004956D01*
X014481Y004956D01*
X014436Y005001D01*
X014527Y005091D02*
X014572Y005091D01*
X014731Y005181D02*
X014776Y005226D01*
X014866Y005226D01*
X014911Y005181D01*
X014731Y005001D01*
X014776Y004956D01*
X014866Y004956D01*
X014911Y005001D01*
X014911Y005181D01*
X014731Y005181D02*
X014731Y005001D01*
D26*
X009601Y006401D02*
X009547Y006399D01*
X009493Y006394D01*
X009440Y006385D01*
X009387Y006372D01*
X009336Y006356D01*
X009286Y006336D01*
X009237Y006313D01*
X009189Y006287D01*
X009144Y006258D01*
X009101Y006225D01*
X009060Y006190D01*
X009021Y006152D01*
X008985Y006112D01*
X008952Y006069D01*
X008922Y006024D01*
X008895Y005977D01*
X008906Y005204D02*
X008936Y005156D01*
X008969Y005111D01*
X009005Y005068D01*
X009043Y005027D01*
X009085Y004990D01*
X009129Y004955D01*
X009175Y004924D01*
X009224Y004895D01*
X009274Y004871D01*
X009326Y004850D01*
X009380Y004832D01*
X009434Y004819D01*
X009489Y004809D01*
X009545Y004803D01*
X009601Y004801D01*
X009654Y004803D01*
X009708Y004808D01*
X009760Y004817D01*
X009812Y004829D01*
X009863Y004845D01*
X009913Y004864D01*
X009962Y004887D01*
X010009Y004913D01*
X010054Y004941D01*
X010097Y004973D01*
X010137Y005007D01*
X010176Y005045D01*
X010212Y005084D01*
X010216Y006113D02*
X010180Y006153D01*
X010141Y006191D01*
X010100Y006226D01*
X010057Y006258D01*
X010012Y006288D01*
X009965Y006314D01*
X009916Y006336D01*
X009865Y006356D01*
X009814Y006372D01*
X009762Y006385D01*
X009708Y006394D01*
X009655Y006399D01*
X009601Y006401D01*
D27*
X023101Y010426D03*
X024101Y010426D03*
X025101Y010426D03*
D28*
X035601Y009976D03*
X036601Y009976D03*
X037601Y009976D03*
D29*
X037601Y010601D03*
X036601Y010601D03*
X035601Y010601D03*
D30*
X036971Y022651D02*
X036971Y022901D01*
X036971Y023151D01*
X037221Y023151D02*
X037221Y022901D01*
X037221Y022651D01*
D31*
X007326Y024101D03*
M02*
