G75*
G70*
%OFA0B0*%
%FSLAX24Y24*%
%IPPOS*%
%LPD*%
%AMOC8*
5,1,8,0,0,1.08239X$1,22.5*
%
%ADD10C,0.0560*%
%ADD11OC8,0.0740*%
%ADD12C,0.0740*%
%ADD13C,0.1700*%
%ADD14C,0.0650*%
%ADD15OC8,0.0560*%
%ADD16R,0.0630X0.0315*%
%ADD17R,0.0315X0.0630*%
%ADD18C,0.0640*%
%ADD19C,0.0680*%
%ADD20C,0.0984*%
%ADD21R,0.0740X0.0740*%
%ADD22OC8,0.0630*%
%ADD23OC8,0.1240*%
%ADD24C,0.1240*%
%ADD25C,0.0080*%
%ADD26C,0.0320*%
D10*
X011702Y009149D02*
X012262Y009149D01*
X012262Y010149D02*
X011702Y010149D01*
X011702Y011149D02*
X012262Y011149D01*
X012262Y012149D02*
X011702Y012149D01*
X011702Y013149D02*
X012262Y013149D01*
X012262Y014149D02*
X011702Y014149D01*
X011702Y015149D02*
X012262Y015149D01*
X012262Y016149D02*
X011702Y016149D01*
X011702Y017149D02*
X012262Y017149D01*
X012262Y018149D02*
X011702Y018149D01*
X011702Y019149D02*
X012262Y019149D01*
X012262Y020149D02*
X011702Y020149D01*
X011702Y021149D02*
X012262Y021149D01*
X012262Y022149D02*
X011702Y022149D01*
X014702Y022149D02*
X015262Y022149D01*
X015262Y021149D02*
X014702Y021149D01*
X014702Y020149D02*
X015262Y020149D01*
X015262Y019149D02*
X014702Y019149D01*
X014702Y018149D02*
X015262Y018149D01*
X015262Y017149D02*
X014702Y017149D01*
X014702Y016149D02*
X015262Y016149D01*
X015262Y015149D02*
X014702Y015149D01*
X014702Y014149D02*
X015262Y014149D01*
X015262Y013149D02*
X014702Y013149D01*
X014702Y012149D02*
X015262Y012149D01*
X015262Y011149D02*
X014702Y011149D01*
X014702Y010149D02*
X015262Y010149D01*
X015262Y009149D02*
X014702Y009149D01*
X030601Y006161D02*
X030601Y005601D01*
X031601Y005601D02*
X031601Y006161D01*
X032601Y006161D02*
X032601Y005601D01*
X036601Y005601D02*
X036601Y006161D01*
X037601Y006161D02*
X037601Y005601D01*
X038601Y005601D02*
X038601Y006161D01*
X038601Y002601D02*
X038601Y002041D01*
X037601Y002041D02*
X037601Y002601D01*
X036601Y002601D02*
X036601Y002041D01*
X032601Y002041D02*
X032601Y002601D01*
X031601Y002601D02*
X031601Y002041D01*
X030601Y002041D02*
X030601Y002601D01*
D11*
X003101Y009101D03*
X002101Y009101D03*
X002101Y010101D03*
X003101Y010101D03*
X003101Y011101D03*
X002101Y011101D03*
D12*
X002209Y017185D03*
X002209Y018185D03*
X002209Y019185D03*
X002209Y020185D03*
X002209Y021185D03*
X002209Y022185D03*
X002289Y024718D03*
X002289Y025718D03*
X002289Y026718D03*
X004491Y029081D03*
X005491Y029081D03*
X006491Y029081D03*
X008571Y029061D03*
X009571Y029061D03*
X010571Y029061D03*
X013345Y029071D03*
X014345Y029071D03*
X015345Y029071D03*
X024865Y026418D03*
X024865Y024638D03*
X027425Y024638D03*
X029101Y025101D03*
X027425Y026418D03*
X029101Y027601D03*
X034101Y027601D03*
X034101Y025101D03*
X034101Y021601D03*
X034101Y019101D03*
X029101Y019101D03*
X026601Y018101D03*
X028601Y015101D03*
X028601Y013101D03*
X028601Y011101D03*
X028601Y008101D03*
X026101Y007101D03*
X026101Y006101D03*
X026101Y005101D03*
X026101Y004101D03*
X026101Y003101D03*
X026101Y002101D03*
X022601Y002101D03*
X022601Y003101D03*
X022601Y004101D03*
X022601Y005101D03*
X022601Y006101D03*
X022601Y007101D03*
X020381Y002991D03*
X020381Y001211D03*
X017821Y001211D03*
X016101Y002101D03*
X017821Y002991D03*
X016101Y005101D03*
X012101Y005101D03*
X011171Y002101D03*
X010101Y002101D03*
X009031Y002101D03*
X014101Y002101D03*
X033601Y008101D03*
X033601Y011101D03*
X033601Y013101D03*
X033601Y015101D03*
X029101Y021601D03*
X026601Y022101D03*
X018112Y019304D03*
X018112Y015304D03*
X009101Y019101D03*
X005101Y019101D03*
D13*
X005101Y004132D03*
X006951Y005313D03*
X005101Y006494D03*
D14*
X005101Y013101D03*
X006101Y013101D03*
X006101Y015101D03*
X005101Y015101D03*
X005101Y017101D03*
X006101Y017101D03*
X009101Y015243D03*
X009101Y013243D03*
X021714Y017970D03*
X022714Y017970D03*
D15*
X010101Y005601D03*
X009101Y005601D03*
D16*
X018284Y021752D03*
X018284Y022225D03*
X018284Y022697D03*
X018284Y023170D03*
X018284Y023642D03*
X018284Y024115D03*
X018284Y024587D03*
X018284Y025059D03*
X018284Y025532D03*
X018284Y026004D03*
X018284Y026477D03*
X018284Y026949D03*
X023481Y026949D03*
X023481Y026477D03*
X023481Y026004D03*
X023481Y025532D03*
X023481Y025059D03*
X023481Y024587D03*
X023481Y024115D03*
X023481Y023642D03*
X023481Y023170D03*
X023481Y022697D03*
X023481Y022225D03*
X023481Y021752D03*
D17*
X022506Y020650D03*
X022103Y020650D03*
X021631Y020650D03*
X021158Y020650D03*
X020607Y020650D03*
X020135Y020650D03*
X019662Y020650D03*
X019260Y020650D03*
X021513Y028052D03*
X022143Y028052D03*
X022773Y028052D03*
D18*
X023101Y009921D02*
X023101Y009281D01*
X024101Y009281D02*
X024101Y009921D01*
X025101Y009921D02*
X025101Y009281D01*
D19*
X035601Y009441D02*
X035601Y008761D01*
X036601Y008761D02*
X036601Y009441D01*
X037601Y009441D02*
X037601Y008761D01*
D20*
X041601Y008093D03*
X041601Y010101D03*
X041601Y012109D03*
X041601Y019593D03*
X041601Y021601D03*
X041601Y023609D03*
D21*
X002289Y023718D03*
D22*
X036101Y022901D03*
X038101Y022901D03*
D23*
X008601Y024101D03*
D24*
X005601Y024101D03*
D25*
X003162Y024101D01*
X003162Y024845D01*
X002289Y025718D01*
X002289Y026718D02*
X004128Y026718D01*
X006491Y029081D01*
X007481Y028091D01*
X008601Y028091D01*
X008601Y024101D01*
X011982Y021149D02*
X012662Y021149D01*
X013062Y020749D01*
X018192Y020749D01*
X021598Y017343D01*
X022954Y017343D01*
X023337Y017727D01*
X023337Y021184D01*
X023046Y021475D01*
X023046Y022225D01*
X023481Y022225D01*
X023481Y021752D02*
X023916Y021752D01*
X023916Y018076D01*
X023010Y017170D01*
X021066Y017170D01*
X018431Y019804D01*
X017677Y019804D01*
X017617Y019744D01*
X013067Y019744D01*
X012662Y020149D01*
X011982Y020149D01*
X013889Y020562D02*
X014302Y020149D01*
X014982Y020149D01*
X013889Y020562D02*
X002586Y020562D01*
X002209Y020185D01*
X002209Y019185D02*
X002783Y018611D01*
X009304Y018611D01*
X009442Y018749D01*
X013902Y018749D01*
X014302Y019149D01*
X014982Y019149D01*
X014302Y018149D02*
X013889Y018562D01*
X009593Y018562D01*
X009216Y018185D01*
X002209Y018185D01*
X002586Y017562D02*
X013889Y017562D01*
X014302Y017149D01*
X014982Y017149D01*
X014982Y018149D02*
X014302Y018149D01*
X013662Y016149D02*
X014982Y016149D01*
X015817Y015304D02*
X015662Y015149D01*
X014982Y015149D01*
X015817Y015304D02*
X018112Y015304D01*
X018602Y014911D02*
X015370Y011679D01*
X014512Y011679D01*
X011982Y009149D01*
X012310Y008610D02*
X014302Y010602D01*
X014302Y011149D01*
X014982Y011149D01*
X014302Y012149D02*
X013902Y011749D01*
X006239Y011749D01*
X003591Y009101D01*
X003101Y009101D01*
X002885Y008610D02*
X002591Y008904D01*
X002591Y009305D01*
X002285Y009611D01*
X002101Y009611D01*
X002101Y010101D01*
X003101Y010101D02*
X003591Y010101D01*
X006039Y012549D01*
X013702Y012549D01*
X014302Y013149D01*
X014982Y013149D01*
X014982Y014149D02*
X014302Y014149D01*
X012902Y012749D01*
X008826Y012749D01*
X008016Y013558D01*
X005558Y013558D01*
X005101Y013101D01*
X005819Y013749D02*
X008595Y013749D01*
X009101Y013243D01*
X011208Y013243D01*
X011302Y013149D01*
X011982Y013149D01*
X011982Y014149D02*
X011302Y014149D01*
X010208Y015243D01*
X009101Y015243D01*
X008782Y015561D01*
X005561Y015561D01*
X005101Y015101D01*
X004653Y014915D02*
X005819Y013749D01*
X006101Y013101D02*
X004591Y011591D01*
X002897Y011591D01*
X002591Y011285D01*
X002591Y011101D01*
X002101Y011101D01*
X002885Y008610D02*
X012310Y008610D01*
X014982Y010149D02*
X015662Y010149D01*
X018710Y007101D01*
X022601Y007101D01*
X024101Y005601D02*
X022601Y004101D01*
X021491Y004101D01*
X020381Y002991D01*
X017821Y002991D01*
X013111Y002991D01*
X010501Y005601D01*
X010101Y005601D01*
X009914Y006014D02*
X009501Y005601D01*
X009101Y005601D01*
X009914Y006014D02*
X015187Y006014D01*
X016101Y005101D01*
X016101Y002101D02*
X022601Y002101D01*
X020381Y001211D02*
X017821Y001211D01*
X014101Y002101D02*
X011171Y002101D01*
X006951Y005313D02*
X006282Y005313D01*
X005101Y004132D01*
X014302Y012149D02*
X014982Y012149D01*
X018602Y014911D02*
X018602Y018814D01*
X018112Y019304D01*
X019662Y020215D02*
X019662Y020650D01*
X019662Y021085D01*
X018995Y021752D01*
X018284Y021752D01*
X017849Y021752D01*
X017849Y026949D01*
X015466Y026949D01*
X013345Y029071D01*
X012848Y029568D01*
X010078Y029568D01*
X009571Y029061D01*
X008601Y028091D01*
X008571Y029061D02*
X008055Y029576D01*
X004986Y029576D01*
X004491Y029081D01*
X003162Y024101D02*
X002779Y023718D01*
X002289Y023718D01*
X002593Y022569D02*
X013881Y022569D01*
X014302Y022149D01*
X014982Y022149D01*
X014302Y021149D02*
X013889Y021562D01*
X002586Y021562D01*
X002209Y021185D01*
X002209Y022185D02*
X002593Y022569D01*
X002586Y017562D02*
X002209Y017185D01*
X004653Y016653D02*
X004653Y014915D01*
X004653Y016653D02*
X005101Y017101D01*
X006101Y017101D02*
X009350Y017101D01*
X011302Y015149D01*
X011982Y015149D01*
X012662Y015149D01*
X013662Y016149D01*
X019662Y020215D02*
X022103Y020215D01*
X022103Y020650D01*
X022103Y020215D02*
X022714Y019604D01*
X022714Y017970D01*
X023161Y017786D02*
X022880Y017505D01*
X022179Y017505D01*
X021714Y017970D01*
X023161Y017786D02*
X023161Y020638D01*
X021574Y022225D01*
X018284Y022225D01*
X014982Y021149D02*
X014302Y021149D01*
X018284Y025059D02*
X020707Y025059D01*
X022890Y027242D01*
X023835Y027242D01*
X024266Y026811D01*
X024266Y025237D01*
X024865Y024638D01*
X026098Y024638D01*
X026098Y018604D01*
X026601Y018101D01*
X023916Y022697D02*
X023481Y022697D01*
X023916Y022697D02*
X023916Y023170D01*
X023481Y023170D01*
X026098Y024638D02*
X027425Y024638D01*
X027425Y026418D02*
X024865Y026418D01*
X024865Y026448D01*
X023479Y027834D01*
X022773Y027834D01*
X022773Y028052D01*
X022773Y027834D02*
X022555Y027617D01*
X021513Y027617D01*
X020845Y026949D01*
X018284Y026949D01*
X017849Y026949D01*
X021513Y027617D02*
X021513Y027657D01*
X021513Y028052D01*
X033601Y013101D02*
X034096Y012605D01*
X034096Y009591D01*
X032101Y007596D01*
X032101Y004501D01*
X030601Y003001D01*
X030601Y002601D01*
X031601Y002601D02*
X033835Y004835D01*
X038235Y004835D01*
X038601Y005201D01*
X038601Y005601D01*
X034541Y008247D02*
X032854Y006561D01*
X032601Y006561D01*
X032601Y005601D01*
X031150Y005468D02*
X027783Y002101D01*
X026101Y002101D01*
X031150Y005468D02*
X031150Y008650D01*
X033601Y011101D01*
X035383Y009974D02*
X034541Y009131D01*
X034541Y008247D01*
X035383Y009974D02*
X037528Y009974D01*
X037601Y009901D01*
X037601Y009101D01*
X024101Y009601D02*
X024101Y005601D01*
D26*
X028601Y008101D02*
X029951Y006751D01*
X030601Y006751D01*
X030601Y005601D01*
X035601Y008111D02*
X035601Y009101D01*
X035601Y008111D02*
X035619Y008093D01*
X041601Y008093D01*
X042415Y008424D02*
X042415Y007760D01*
X037845Y003191D01*
X037601Y003191D01*
X037601Y002601D01*
X042415Y008424D02*
X041742Y009097D01*
X041441Y009097D01*
X032757Y017781D01*
X032757Y021445D01*
X029101Y025101D01*
X034101Y025101D02*
X035676Y023526D01*
X036101Y023526D01*
X036101Y022901D01*
X034593Y021109D02*
X034101Y021601D01*
X034593Y021109D02*
X034593Y019593D01*
X041601Y019593D01*
X034593Y019593D02*
X034101Y019101D01*
M02*
