G75*
G70*
%OFA0B0*%
%FSLAX24Y24*%
%IPPOS*%
%LPD*%
%AMOC8*
5,1,8,0,0,1.08239X$1,22.5*
%
%ADD10R,0.0630X0.0315*%
%ADD11R,0.0315X0.0630*%
%ADD12R,0.0780X0.0209*%
D10*
X015002Y018502D03*
X015002Y018975D03*
X015002Y019447D03*
X015002Y019920D03*
X015002Y020392D03*
X015002Y020865D03*
X015002Y021337D03*
X015002Y021809D03*
X015002Y022282D03*
X015002Y022754D03*
X015002Y023227D03*
X015002Y023699D03*
X020199Y023699D03*
X020199Y023227D03*
X020199Y022754D03*
X020199Y022282D03*
X020199Y021809D03*
X020199Y021337D03*
X020199Y020865D03*
X020199Y020392D03*
X020199Y019920D03*
X020199Y019447D03*
X020199Y018975D03*
X020199Y018502D03*
D11*
X019224Y017400D03*
X018821Y017400D03*
X018349Y017400D03*
X017876Y017400D03*
X017325Y017400D03*
X016853Y017400D03*
X016380Y017400D03*
X015978Y017400D03*
X018231Y024802D03*
X018861Y024802D03*
X019491Y024802D03*
D12*
X014756Y008351D03*
X014756Y008851D03*
X014756Y009351D03*
X014756Y009851D03*
X014756Y010351D03*
X014756Y010851D03*
X014756Y011351D03*
X014756Y011851D03*
X014756Y012351D03*
X014756Y012851D03*
X018445Y012851D03*
X018445Y012351D03*
X018445Y011851D03*
X018445Y011351D03*
X018445Y010851D03*
X018445Y010351D03*
X018445Y009851D03*
X018445Y009351D03*
X018445Y008851D03*
X018445Y008351D03*
M02*
