%
M48
M72
T01C0.0200
T02C0.0276
T03C0.0315
T04C0.0320
T05C0.0354
T06C0.0400
T07C0.0440
T08C0.0512
T09C0.0730
T10C0.1180
T11C0.1300
%
T01
X15443Y12317
T02
X21714Y17970
X22714Y17970
X30601Y17601
X31601Y17601
X34101Y4101
X35101Y4101
X6243Y14101
X4243Y14101
X4743Y17101
X3743Y17101
X4178Y19641
X5178Y19641
X5258Y21601
X4258Y21601
T03
X14601Y6601
X14601Y4601
T04
X7101Y9601
X6101Y9601
X9982Y13149
X9982Y14149
X9982Y15149
X9982Y16149
X9982Y17149
X9982Y18149
X9982Y19149
X9982Y20149
X9982Y21149
X9982Y22149
X9982Y23149
X9982Y24149
X9982Y25149
X9982Y26149
X12982Y26149
X12982Y25149
X12982Y24149
X12982Y23149
X12982Y22149
X12982Y21149
X12982Y20149
X12982Y19149
X12982Y18149
X12982Y17149
X12982Y16149
X12982Y15149
X12982Y14149
X12982Y13149
X29601Y6601
X30601Y6601
X31601Y6601
X31601Y3601
X30601Y3601
X29601Y3601
X37601Y3601
X38601Y3601
X39601Y3601
X39601Y6601
X38601Y6601
X37601Y6601
T05
X42601Y7101
X42601Y3101
X32601Y9101
X32601Y11101
X32601Y13101
X32601Y15101
X28601Y15101
X28601Y13101
X28601Y11101
X28601Y9101
X19101Y1601
X15101Y1601
X7179Y16601
X7179Y20601
X7139Y25101
X3139Y25101
X16304Y18090
X20304Y18090
X26601Y18101
X29101Y20101
X26601Y22101
X29101Y22601
X29101Y25101
X29101Y27601
X34101Y27601
X34101Y25101
X34101Y22601
X34101Y20101
T06
X27425Y24638
X27425Y26418
X24865Y26418
X24865Y24638
X15345Y29071
X14345Y29071
X13345Y29071
X10571Y29061
X9571Y29061
X8571Y29061
X6491Y29081
X5491Y29081
X4491Y29081
X2289Y26718
X2289Y25718
X2289Y24718
X2289Y23718
X2209Y22185
X2209Y21185
X2209Y20185
X2209Y19185
X2209Y18185
X2209Y17185
X2101Y11101
X3101Y11101
X3101Y10101
X2101Y10101
X2101Y9101
X3101Y9101
X8821Y7491
X11381Y7491
X11381Y5711
X8821Y5711
X9031Y2101
X10101Y2101
X11171Y2101
X17321Y3711
X17321Y5491
X19881Y5491
X22601Y5101
X22601Y6101
X22601Y7101
X23101Y9601
X24101Y9601
X25101Y9601
X26101Y7101
X26101Y6101
X26101Y5101
X26101Y4101
X26101Y3101
X26101Y2101
X22601Y2101
X22601Y3101
X22601Y4101
X19881Y3711
T07
X35601Y9101
X36601Y9101
X37601Y9101
T08
X42101Y9601
X42101Y12101
X42101Y14601
X42101Y19101
X42101Y21601
X42101Y24101
T09
X20582Y14101
X15382Y14101
T10
X5101Y6494
X6951Y5313
X5101Y4132
T11
X1801Y1901
X24101Y15501
X36601Y16001
X44401Y29301
X44301Y1801
X1801Y29201
M30
