G75*
G70*
%OFA0B0*%
%FSLAX24Y24*%
%IPPOS*%
%LPD*%
%AMOC8*
5,1,8,0,0,1.08239X$1,22.5*
%
%ADD10C,0.0560*%
%ADD11OC8,0.0740*%
%ADD12C,0.0740*%
%ADD13C,0.1700*%
%ADD14C,0.0650*%
%ADD15OC8,0.0560*%
%ADD16C,0.0640*%
%ADD17C,0.0680*%
%ADD18C,0.0984*%
%ADD19R,0.3000X0.3000*%
%ADD20R,0.1095X0.1095*%
%ADD21R,0.0740X0.0740*%
%ADD22C,0.0080*%
%ADD23C,0.0100*%
%ADD24C,0.0320*%
%ADD25C,0.0400*%
D10*
X009702Y013149D02*
X010262Y013149D01*
X010262Y014149D02*
X009702Y014149D01*
X009702Y015149D02*
X010262Y015149D01*
X010262Y016149D02*
X009702Y016149D01*
X009702Y017149D02*
X010262Y017149D01*
X010262Y018149D02*
X009702Y018149D01*
X009702Y019149D02*
X010262Y019149D01*
X010262Y020149D02*
X009702Y020149D01*
X009702Y021149D02*
X010262Y021149D01*
X010262Y022149D02*
X009702Y022149D01*
X009702Y023149D02*
X010262Y023149D01*
X010262Y024149D02*
X009702Y024149D01*
X009702Y025149D02*
X010262Y025149D01*
X010262Y026149D02*
X009702Y026149D01*
X012702Y026149D02*
X013262Y026149D01*
X013262Y025149D02*
X012702Y025149D01*
X012702Y024149D02*
X013262Y024149D01*
X013262Y023149D02*
X012702Y023149D01*
X012702Y022149D02*
X013262Y022149D01*
X013262Y021149D02*
X012702Y021149D01*
X012702Y020149D02*
X013262Y020149D01*
X013262Y019149D02*
X012702Y019149D01*
X012702Y018149D02*
X013262Y018149D01*
X013262Y017149D02*
X012702Y017149D01*
X012702Y016149D02*
X013262Y016149D01*
X013262Y015149D02*
X012702Y015149D01*
X012702Y014149D02*
X013262Y014149D01*
X013262Y013149D02*
X012702Y013149D01*
X029601Y007161D02*
X029601Y006601D01*
X030601Y006601D02*
X030601Y007161D01*
X031601Y007161D02*
X031601Y006601D01*
X031601Y003601D02*
X031601Y003041D01*
X030601Y003041D02*
X030601Y003601D01*
X029601Y003601D02*
X029601Y003041D01*
X037601Y003041D02*
X037601Y003601D01*
X038601Y003601D02*
X038601Y003041D01*
X039601Y003041D02*
X039601Y003601D01*
X039601Y006601D02*
X039601Y007161D01*
X038601Y007161D02*
X038601Y006601D01*
X037601Y006601D02*
X037601Y007161D01*
D11*
X003101Y009101D03*
X002101Y009101D03*
X002101Y010101D03*
X003101Y010101D03*
X003101Y011101D03*
X002101Y011101D03*
D12*
X008821Y007491D03*
X011381Y007491D03*
X011381Y005711D03*
X008821Y005711D03*
X009031Y002101D03*
X010101Y002101D03*
X011171Y002101D03*
X015101Y001601D03*
X017321Y003711D03*
X017321Y005491D03*
X019881Y005491D03*
X022601Y005101D03*
X022601Y006101D03*
X022601Y007101D03*
X026101Y007101D03*
X026101Y006101D03*
X026101Y005101D03*
X026101Y004101D03*
X026101Y003101D03*
X026101Y002101D03*
X022601Y002101D03*
X022601Y003101D03*
X022601Y004101D03*
X019881Y003711D03*
X019101Y001601D03*
X014601Y004601D03*
X014601Y006601D03*
X028601Y009101D03*
X028601Y011101D03*
X028601Y013101D03*
X028601Y015101D03*
X032601Y015101D03*
X032601Y013101D03*
X032601Y011101D03*
X032601Y009101D03*
X042601Y007101D03*
X042601Y003101D03*
X026601Y018101D03*
X029101Y020101D03*
X026601Y022101D03*
X029101Y022601D03*
X027425Y024638D03*
X029101Y025101D03*
X027425Y026418D03*
X029101Y027601D03*
X024865Y026418D03*
X024865Y024638D03*
X034101Y025101D03*
X034101Y027601D03*
X034101Y022601D03*
X034101Y020101D03*
X020304Y018090D03*
X016304Y018090D03*
X007179Y016601D03*
X002209Y017185D03*
X002209Y018185D03*
X002209Y019185D03*
X002209Y020185D03*
X002209Y021185D03*
X002209Y022185D03*
X002289Y024718D03*
X003139Y025101D03*
X002289Y025718D03*
X002289Y026718D03*
X004491Y029081D03*
X005491Y029081D03*
X006491Y029081D03*
X008571Y029061D03*
X009571Y029061D03*
X010571Y029061D03*
X013345Y029071D03*
X014345Y029071D03*
X015345Y029071D03*
X007139Y025101D03*
X007179Y020601D03*
D13*
X005101Y006494D03*
X006951Y005313D03*
X005101Y004132D03*
D14*
X004243Y014101D03*
X006243Y014101D03*
X004743Y017101D03*
X003743Y017101D03*
X004178Y019641D03*
X005178Y019641D03*
X005258Y021601D03*
X004258Y021601D03*
X021714Y017970D03*
X022714Y017970D03*
X030601Y017601D03*
X031601Y017601D03*
X034101Y004101D03*
X035101Y004101D03*
D15*
X007101Y009601D03*
X006101Y009601D03*
D16*
X023101Y009281D02*
X023101Y009921D01*
X024101Y009921D02*
X024101Y009281D01*
X025101Y009281D02*
X025101Y009921D01*
D17*
X035601Y009441D02*
X035601Y008761D01*
X036601Y008761D02*
X036601Y009441D01*
X037601Y009441D02*
X037601Y008761D01*
D18*
X042101Y009601D03*
X042101Y012101D03*
X042101Y014601D03*
X042101Y019101D03*
X042101Y021601D03*
X042101Y024101D03*
D19*
X017982Y014101D03*
D20*
X015382Y014101D03*
X020582Y014101D03*
D21*
X002289Y023718D03*
D22*
X002289Y023473D01*
X002289Y023228D01*
X002771Y022746D01*
X002771Y018073D01*
X003743Y017101D01*
X002591Y015949D01*
X002591Y009897D01*
X002285Y009591D01*
X002101Y009591D01*
X002101Y009101D01*
X003101Y011101D02*
X003591Y011101D01*
X003591Y010941D01*
X008821Y005711D01*
X008821Y007491D02*
X007111Y009201D01*
X007101Y009201D01*
X007101Y009601D01*
X006101Y009601D02*
X006101Y010001D01*
X007179Y011079D01*
X007179Y016601D01*
X006243Y017576D02*
X006816Y018149D01*
X009982Y018149D01*
X009982Y019149D02*
X005670Y019149D01*
X005178Y019641D01*
X005178Y021521D01*
X005258Y021601D01*
X005258Y023676D01*
X003135Y025798D01*
X003135Y026413D01*
X002831Y026718D01*
X002289Y026718D01*
X002831Y026718D02*
X004991Y028878D01*
X004991Y029280D01*
X005292Y029581D01*
X005990Y029581D01*
X006491Y029081D01*
X006399Y028173D02*
X006399Y020687D01*
X007462Y019623D01*
X010357Y019623D01*
X012302Y017679D01*
X012302Y013149D01*
X012982Y013149D01*
X013662Y013646D02*
X020207Y007101D01*
X022601Y007101D01*
X023101Y007311D02*
X018488Y011923D01*
X016960Y011923D01*
X016362Y012521D01*
X016362Y016910D01*
X014109Y019163D01*
X014109Y019906D01*
X013280Y020735D01*
X012529Y020735D01*
X010662Y022602D01*
X010662Y023149D01*
X009982Y023149D01*
X009982Y022149D02*
X010662Y022149D01*
X010662Y021602D01*
X012589Y019675D01*
X013321Y019675D01*
X013849Y019147D01*
X013849Y013912D01*
X015443Y012317D01*
X013662Y013646D02*
X013662Y014149D01*
X012982Y014149D01*
X010662Y014544D02*
X010662Y015149D01*
X009982Y015149D01*
X010662Y014544D02*
X017225Y007981D01*
X018085Y007981D01*
X021515Y004551D01*
X021515Y004187D01*
X022601Y003101D01*
X023261Y002761D02*
X023261Y008681D01*
X023101Y008841D01*
X023101Y009601D01*
X023661Y009601D02*
X023661Y009986D01*
X021166Y012481D01*
X020921Y012481D01*
X019602Y013800D01*
X019602Y014101D01*
X017982Y014101D01*
X019602Y014101D02*
X019602Y014858D01*
X022714Y017970D01*
X020493Y017585D02*
X025009Y022101D01*
X026601Y022101D01*
X020304Y019708D02*
X020304Y018090D01*
X020493Y017585D02*
X016809Y017585D01*
X016304Y018090D01*
X012982Y018149D02*
X012302Y018149D01*
X012302Y019149D01*
X011662Y019149D01*
X010662Y020149D01*
X009982Y020149D01*
X009982Y021149D02*
X009302Y021149D01*
X009302Y026571D01*
X010071Y027340D01*
X010071Y029279D01*
X010371Y029579D01*
X014836Y029579D01*
X015345Y029071D01*
X010951Y029061D02*
X010571Y029061D01*
X010951Y029061D02*
X020304Y019708D01*
X012982Y019149D02*
X012302Y019149D01*
X007179Y020601D02*
X007139Y020641D01*
X007139Y025101D01*
X008571Y026533D01*
X008571Y029061D01*
X006399Y028173D02*
X005491Y029081D01*
X003135Y025798D02*
X002289Y024951D01*
X002289Y024718D01*
X002105Y024208D02*
X001779Y024534D01*
X001779Y025208D01*
X002289Y025718D01*
X003139Y025101D02*
X003139Y018792D01*
X004203Y017728D01*
X004203Y016434D01*
X003591Y015822D01*
X003591Y011101D01*
X004243Y014101D02*
X005194Y015052D01*
X005194Y017895D01*
X003722Y019367D01*
X003722Y021065D01*
X004258Y021601D01*
X004178Y019641D02*
X006243Y017576D01*
X006243Y014101D01*
X005101Y006494D02*
X005101Y005777D01*
X007559Y003319D01*
X008883Y003319D01*
X010101Y002101D01*
X011171Y002101D02*
X012101Y002101D01*
X014601Y004601D01*
X017321Y003711D02*
X018321Y003711D01*
X019101Y002931D01*
X019881Y003711D01*
X019101Y002931D02*
X019101Y001601D01*
X022601Y002101D02*
X023261Y002761D01*
X022601Y005101D02*
X023101Y005601D01*
X023101Y007311D01*
X023661Y009601D02*
X024101Y009601D01*
X026611Y013111D02*
X026611Y005611D01*
X026101Y005101D01*
X029601Y004001D02*
X029601Y003601D01*
X029601Y004001D02*
X030013Y004413D01*
X030013Y011688D01*
X028601Y013101D01*
X026611Y013111D02*
X028601Y015101D01*
X034101Y004101D02*
X035563Y002639D01*
X042139Y002639D01*
X042601Y003101D01*
X002289Y023718D02*
X002289Y024208D01*
X002105Y024208D01*
D23*
X002563Y001261D02*
X002372Y001101D01*
X014792Y001101D01*
X014772Y001109D01*
X014609Y001272D01*
X014521Y001485D01*
X014521Y001716D01*
X014609Y001929D01*
X014772Y002092D01*
X014985Y002181D01*
X015216Y002181D01*
X015429Y002092D01*
X015592Y001929D01*
X015681Y001716D01*
X015681Y001485D01*
X015592Y001272D01*
X015429Y001109D01*
X015409Y001101D01*
X018792Y001101D01*
X018772Y001109D01*
X018609Y001272D01*
X018521Y001485D01*
X018521Y001716D01*
X018609Y001929D01*
X018772Y002092D01*
X018851Y002125D01*
X018851Y002827D01*
X018217Y003461D01*
X017845Y003461D01*
X017812Y003382D01*
X017649Y003219D01*
X017436Y003131D01*
X017205Y003131D01*
X016992Y003219D01*
X016829Y003382D01*
X016741Y003595D01*
X016741Y003826D01*
X016829Y004039D01*
X016992Y004202D01*
X017205Y004291D01*
X017436Y004291D01*
X017649Y004202D01*
X017812Y004039D01*
X017845Y003961D01*
X018271Y003961D01*
X018371Y003961D01*
X018462Y003923D01*
X019101Y003284D01*
X019333Y003517D01*
X019301Y003595D01*
X019301Y003826D01*
X019389Y004039D01*
X019552Y004202D01*
X019765Y004291D01*
X019996Y004291D01*
X020209Y004202D01*
X020372Y004039D01*
X020461Y003826D01*
X020461Y003595D01*
X020372Y003382D01*
X020209Y003219D01*
X019996Y003131D01*
X019765Y003131D01*
X019687Y003163D01*
X019351Y002827D01*
X019351Y002125D01*
X019429Y002092D01*
X019592Y001929D01*
X019681Y001716D01*
X019681Y001485D01*
X019592Y001272D01*
X019429Y001109D01*
X019409Y001101D01*
X024101Y001101D01*
X024101Y009551D01*
X024051Y009551D01*
X024051Y008813D01*
X023991Y008822D01*
X023920Y008845D01*
X023854Y008879D01*
X023795Y008922D01*
X023742Y008975D01*
X023699Y009034D01*
X023665Y009100D01*
X023642Y009171D01*
X023631Y009244D01*
X023631Y009551D01*
X024051Y009551D01*
X024051Y009651D01*
X024051Y010389D01*
X023991Y010379D01*
X023920Y010356D01*
X023854Y010323D01*
X023795Y010279D01*
X023742Y010227D01*
X023699Y010167D01*
X023665Y010101D01*
X023642Y010031D01*
X023631Y009958D01*
X023631Y009651D01*
X024051Y009651D01*
X024101Y009651D01*
X024101Y013641D01*
X023856Y013641D01*
X023383Y013768D01*
X022959Y014012D01*
X022612Y014359D01*
X022368Y014783D01*
X022241Y015256D01*
X022241Y015746D01*
X022368Y016219D01*
X022612Y016643D01*
X022959Y016989D01*
X023383Y017234D01*
X023856Y017361D01*
X024101Y017361D01*
X024101Y020839D01*
X021767Y018505D01*
X021820Y018505D01*
X022017Y018423D01*
X022167Y018273D01*
X022249Y018076D01*
X022249Y018070D01*
X022250Y018081D01*
X022274Y018152D01*
X022308Y018219D01*
X022351Y018279D01*
X022404Y018332D01*
X022465Y018376D01*
X022531Y018410D01*
X022603Y018433D01*
X022676Y018445D01*
X022695Y018445D01*
X022695Y017989D01*
X022733Y017989D01*
X022733Y018445D01*
X022751Y018445D01*
X022825Y018433D01*
X022896Y018410D01*
X022963Y018376D01*
X023023Y018332D01*
X023076Y018279D01*
X023120Y018219D01*
X023154Y018152D01*
X023177Y018081D01*
X023189Y018007D01*
X023189Y017989D01*
X022733Y017989D01*
X022733Y017951D01*
X023189Y017951D01*
X023189Y017932D01*
X023177Y017859D01*
X023154Y017787D01*
X023120Y017721D01*
X023076Y017660D01*
X023023Y017607D01*
X022963Y017564D01*
X022896Y017530D01*
X022825Y017506D01*
X022751Y017495D01*
X022733Y017495D01*
X022733Y017951D01*
X022695Y017951D01*
X022695Y017495D01*
X022676Y017495D01*
X022603Y017506D01*
X022531Y017530D01*
X022465Y017564D01*
X022404Y017607D01*
X022351Y017660D01*
X022308Y017721D01*
X022274Y017787D01*
X022250Y017859D01*
X022249Y017870D01*
X022249Y017863D01*
X022167Y017667D01*
X022017Y017516D01*
X021820Y017435D01*
X021607Y017435D01*
X021411Y017516D01*
X021260Y017667D01*
X021179Y017863D01*
X021179Y017917D01*
X020635Y017373D01*
X020543Y017335D01*
X020443Y017335D01*
X016759Y017335D01*
X016667Y017373D01*
X016597Y017443D01*
X016498Y017542D01*
X016419Y017510D01*
X016188Y017510D01*
X016064Y017561D01*
X016574Y017052D01*
X016612Y016960D01*
X016612Y016861D01*
X016612Y015751D01*
X017932Y015751D01*
X017932Y014151D01*
X018032Y014151D01*
X018032Y015751D01*
X019502Y015751D01*
X019540Y015741D01*
X019574Y015721D01*
X019602Y015693D01*
X019622Y015659D01*
X019632Y015621D01*
X019632Y014151D01*
X018032Y014151D01*
X018032Y014051D01*
X019632Y014051D01*
X019632Y012581D01*
X019622Y012543D01*
X019602Y012509D01*
X019574Y012481D01*
X019540Y012461D01*
X019502Y012451D01*
X018032Y012451D01*
X018032Y014051D01*
X017932Y014051D01*
X017932Y012451D01*
X016786Y012451D01*
X017063Y012173D01*
X018538Y012173D01*
X018630Y012135D01*
X018700Y012065D01*
X023011Y007754D01*
X023011Y008577D01*
X022889Y008699D01*
X022851Y008791D01*
X022851Y008811D01*
X022801Y008831D01*
X022651Y008981D01*
X022571Y009175D01*
X022571Y010026D01*
X022651Y010221D01*
X022801Y010370D01*
X022995Y010451D01*
X023206Y010451D01*
X023401Y010370D01*
X023550Y010221D01*
X023631Y010026D01*
X023631Y009175D01*
X023550Y008981D01*
X023432Y008863D01*
X023473Y008822D01*
X023511Y008730D01*
X023511Y008631D01*
X023511Y002711D01*
X023473Y002619D01*
X023402Y002549D01*
X023148Y002295D01*
X023181Y002216D01*
X023181Y001985D01*
X023092Y001772D01*
X022929Y001609D01*
X022716Y001521D01*
X022485Y001521D01*
X022272Y001609D01*
X022109Y001772D01*
X022021Y001985D01*
X022021Y002216D01*
X022109Y002429D01*
X022272Y002592D01*
X022292Y002601D01*
X022272Y002609D01*
X022109Y002772D01*
X022021Y002985D01*
X022021Y003216D01*
X022053Y003295D01*
X021373Y003975D01*
X021373Y003975D01*
X021303Y004045D01*
X021265Y004137D01*
X021265Y004448D01*
X020377Y005336D01*
X020363Y005291D01*
X020326Y005218D01*
X020277Y005152D01*
X020220Y005094D01*
X020153Y005046D01*
X020080Y005009D01*
X020003Y004984D01*
X019931Y004972D01*
X019931Y005441D01*
X019831Y005441D01*
X019831Y004972D01*
X019759Y004984D01*
X019681Y005009D01*
X019608Y005046D01*
X019542Y005094D01*
X019484Y005152D01*
X019436Y005218D01*
X019399Y005291D01*
X019374Y005369D01*
X019362Y005441D01*
X019831Y005441D01*
X019831Y005541D01*
X019362Y005541D01*
X019374Y005613D01*
X019399Y005690D01*
X019436Y005763D01*
X019484Y005830D01*
X019542Y005887D01*
X019608Y005936D01*
X019681Y005973D01*
X019726Y005987D01*
X017982Y007731D01*
X017274Y007731D01*
X017175Y007731D01*
X017083Y007769D01*
X010752Y014100D01*
X010752Y014051D01*
X010677Y013871D01*
X010539Y013733D01*
X010359Y013659D01*
X009604Y013659D01*
X009424Y013733D01*
X009286Y013871D01*
X009212Y014051D01*
X009212Y014246D01*
X009286Y014426D01*
X009424Y014564D01*
X009604Y014639D01*
X010359Y014639D01*
X010412Y014617D01*
X010412Y014681D01*
X010359Y014659D01*
X009604Y014659D01*
X009424Y014733D01*
X009286Y014871D01*
X009212Y015051D01*
X009212Y015246D01*
X009286Y015426D01*
X009424Y015564D01*
X009604Y015639D01*
X010359Y015639D01*
X010539Y015564D01*
X010677Y015426D01*
X010689Y015399D01*
X010712Y015399D01*
X010803Y015361D01*
X010874Y015290D01*
X010912Y015199D01*
X010912Y014647D01*
X012052Y013507D01*
X012052Y017575D01*
X010654Y018972D01*
X010629Y018923D01*
X010704Y018923D01*
X010629Y018923D02*
X010590Y018869D01*
X010542Y018821D01*
X010487Y018781D01*
X010427Y018750D01*
X010362Y018729D01*
X010296Y018719D01*
X010012Y018719D01*
X010012Y019119D01*
X009952Y019119D01*
X009952Y018719D01*
X009668Y018719D01*
X009601Y018729D01*
X009537Y018750D01*
X009476Y018781D01*
X009422Y018821D01*
X009374Y018869D01*
X009334Y018923D01*
X009303Y018984D01*
X009282Y019048D01*
X009272Y019115D01*
X009272Y019119D01*
X009951Y019119D01*
X009951Y019179D01*
X009272Y019179D01*
X009272Y019183D01*
X009282Y019249D01*
X009303Y019314D01*
X009333Y019373D01*
X007412Y019373D01*
X007321Y019411D01*
X007250Y019481D01*
X006187Y020545D01*
X006149Y020637D01*
X006149Y020736D01*
X006149Y028069D01*
X005685Y028533D01*
X005606Y028501D01*
X005375Y028501D01*
X005162Y028589D01*
X004999Y028752D01*
X004991Y028772D01*
X004982Y028752D01*
X004819Y028589D01*
X004606Y028501D01*
X004375Y028501D01*
X004162Y028589D01*
X003999Y028752D01*
X003911Y028965D01*
X003911Y029196D01*
X003999Y029409D01*
X004162Y029572D01*
X004375Y029661D01*
X004606Y029661D01*
X004819Y029572D01*
X004982Y029409D01*
X004991Y029389D01*
X004999Y029409D01*
X005162Y029572D01*
X005375Y029661D01*
X005606Y029661D01*
X005819Y029572D01*
X005982Y029409D01*
X006024Y029310D01*
X006046Y029353D01*
X006094Y029420D01*
X006152Y029477D01*
X006218Y029526D01*
X006291Y029563D01*
X006369Y029588D01*
X006441Y029599D01*
X006441Y029131D01*
X006541Y029131D01*
X006541Y029599D01*
X006613Y029588D01*
X006690Y029563D01*
X006763Y029526D01*
X006830Y029477D01*
X006887Y029420D01*
X006936Y029353D01*
X006973Y029280D01*
X006998Y029203D01*
X007009Y029131D01*
X006541Y029131D01*
X006541Y029031D01*
X007009Y029031D01*
X006998Y028959D01*
X006973Y028881D01*
X006936Y028808D01*
X006887Y028742D01*
X006830Y028684D01*
X006763Y028636D01*
X006690Y028599D01*
X006613Y028574D01*
X006541Y028562D01*
X006541Y029031D01*
X006441Y029031D01*
X006441Y028562D01*
X006369Y028574D01*
X006343Y028582D01*
X006540Y028385D01*
X006610Y028315D01*
X006649Y028223D01*
X006649Y025431D01*
X006810Y025592D01*
X007023Y025681D01*
X007254Y025681D01*
X007333Y025648D01*
X008321Y026636D01*
X008321Y028537D01*
X008242Y028569D01*
X008079Y028732D01*
X007991Y028945D01*
X007991Y029176D01*
X008079Y029389D01*
X008242Y029552D01*
X008455Y029641D01*
X008686Y029641D01*
X008899Y029552D01*
X009062Y029389D01*
X009104Y029290D01*
X009126Y029333D01*
X009174Y029400D01*
X009232Y029457D01*
X009298Y029506D01*
X009371Y029543D01*
X009449Y029568D01*
X009521Y029579D01*
X009521Y029111D01*
X009621Y029111D01*
X009621Y029579D01*
X009693Y029568D01*
X009770Y029543D01*
X009843Y029506D01*
X009902Y029463D01*
X009929Y029491D01*
X009929Y029491D01*
X010159Y029721D01*
X010159Y029721D01*
X010230Y029791D01*
X010321Y029829D01*
X014886Y029829D01*
X014978Y029791D01*
X015048Y029721D01*
X015151Y029618D01*
X015229Y029651D01*
X015460Y029651D01*
X015673Y029562D01*
X015836Y029399D01*
X015925Y029186D01*
X015925Y028955D01*
X015836Y028742D01*
X015673Y028579D01*
X015460Y028491D01*
X015229Y028491D01*
X015016Y028579D01*
X014853Y028742D01*
X014845Y028762D01*
X014836Y028742D01*
X014673Y028579D01*
X014460Y028491D01*
X014229Y028491D01*
X014016Y028579D01*
X013853Y028742D01*
X013812Y028842D01*
X013790Y028798D01*
X013741Y028732D01*
X013684Y028674D01*
X013617Y028626D01*
X013544Y028589D01*
X013467Y028564D01*
X013395Y028552D01*
X013395Y029021D01*
X013295Y029021D01*
X012826Y029021D01*
X012838Y028949D01*
X012863Y028871D01*
X012900Y028798D01*
X012948Y028732D01*
X013006Y028674D01*
X013072Y028626D01*
X013145Y028589D01*
X013223Y028564D01*
X013295Y028552D01*
X013295Y029021D01*
X013295Y029121D01*
X012826Y029121D01*
X012838Y029193D01*
X012863Y029270D01*
X012893Y029329D01*
X011087Y029329D01*
X011124Y029241D01*
X011163Y029202D01*
X020516Y019849D01*
X020554Y019758D01*
X020554Y019658D01*
X020554Y018614D01*
X020632Y018581D01*
X020795Y018418D01*
X020847Y018293D01*
X024101Y021546D01*
X024101Y030101D01*
X002193Y030101D01*
X002298Y030063D01*
X002298Y030063D01*
X002563Y029840D01*
X002563Y029840D01*
X002736Y029541D01*
X002736Y029541D01*
X002796Y029201D01*
X002796Y029201D01*
X002736Y028860D01*
X002563Y028561D01*
X002563Y028561D01*
X002298Y028339D01*
X002298Y028339D01*
X001974Y028221D01*
X001974Y028221D01*
X001851Y028221D01*
X001851Y028221D01*
X001815Y028221D01*
X001801Y028221D01*
X001751Y028221D01*
X001751Y028221D01*
X001628Y028221D01*
X001628Y028221D01*
X001303Y028339D01*
X001303Y028339D01*
X001101Y028509D01*
X001101Y002593D01*
X001303Y002763D01*
X001303Y002763D01*
X001628Y002881D01*
X001628Y002881D01*
X001751Y002881D01*
X001751Y002881D01*
X001800Y002881D01*
X001801Y002881D01*
X001851Y002881D01*
X001851Y002881D01*
X001974Y002881D01*
X001974Y002881D01*
X002298Y002763D01*
X002298Y002763D01*
X002563Y002540D01*
X002563Y002540D01*
X002736Y002241D01*
X002736Y002241D01*
X002796Y001901D01*
X002796Y001901D01*
X002736Y001560D01*
X002736Y001560D01*
X002563Y001261D01*
X002563Y001261D01*
X002563Y001261D01*
X002576Y001283D02*
X014604Y001283D01*
X014564Y001382D02*
X002633Y001382D01*
X002690Y001480D02*
X014523Y001480D01*
X014521Y001579D02*
X011426Y001579D01*
X011499Y001609D02*
X011662Y001772D01*
X011695Y001851D01*
X012051Y001851D01*
X012151Y001851D01*
X012242Y001889D01*
X014407Y004053D01*
X014485Y004021D01*
X014716Y004021D01*
X014929Y004109D01*
X015092Y004272D01*
X015181Y004485D01*
X015181Y004716D01*
X015092Y004929D01*
X020783Y004929D01*
X020882Y004831D02*
X015133Y004831D01*
X015092Y004929D02*
X014929Y005092D01*
X014716Y005181D01*
X014485Y005181D01*
X014272Y005092D01*
X014109Y004929D01*
X014021Y004716D01*
X014021Y004485D01*
X014053Y004407D01*
X011997Y002351D01*
X011695Y002351D01*
X011662Y002429D01*
X011499Y002592D01*
X011286Y002681D01*
X011055Y002681D01*
X010842Y002592D01*
X010679Y002429D01*
X010636Y002325D01*
X010592Y002429D01*
X010429Y002592D01*
X010216Y002681D01*
X009985Y002681D01*
X009907Y002648D01*
X009024Y003531D01*
X008932Y003569D01*
X008833Y003569D01*
X007662Y003569D01*
X006901Y004330D01*
X006901Y005263D01*
X007001Y005263D01*
X007001Y004313D01*
X007007Y004313D01*
X007119Y004326D01*
X007228Y004351D01*
X007334Y004388D01*
X007436Y004437D01*
X007531Y004497D01*
X007619Y004567D01*
X007698Y004646D01*
X007768Y004734D01*
X007828Y004829D01*
X007876Y004930D01*
X007914Y005036D01*
X007939Y005146D01*
X007951Y005257D01*
X007951Y005263D01*
X007001Y005263D01*
X007001Y005363D01*
X007951Y005363D01*
X007951Y005370D01*
X007939Y005481D01*
X007914Y005591D01*
X007876Y005697D01*
X007828Y005798D01*
X007768Y005893D01*
X007698Y005981D01*
X007619Y006060D01*
X007531Y006130D01*
X007436Y006190D01*
X007334Y006239D01*
X007228Y006276D01*
X007119Y006301D01*
X007007Y006313D01*
X007001Y006313D01*
X007001Y005364D01*
X006901Y005364D01*
X006901Y006313D01*
X006895Y006313D01*
X006783Y006301D01*
X006674Y006276D01*
X006568Y006239D01*
X006467Y006190D01*
X006372Y006130D01*
X006284Y006060D01*
X006204Y005981D01*
X006134Y005893D01*
X006075Y005798D01*
X006026Y005697D01*
X005989Y005591D01*
X005964Y005481D01*
X005951Y005370D01*
X005951Y005363D01*
X006901Y005363D01*
X006901Y005263D01*
X005968Y005263D01*
X005646Y005585D01*
X005752Y005646D01*
X005949Y005844D01*
X006089Y006085D01*
X006161Y006355D01*
X006161Y006634D01*
X006089Y006904D01*
X005949Y007145D01*
X005752Y007343D01*
X005510Y007482D01*
X005240Y007554D01*
X004961Y007554D01*
X004692Y007482D01*
X004450Y007343D01*
X004253Y007145D01*
X004113Y006904D01*
X004041Y006634D01*
X004041Y006355D01*
X004113Y006085D01*
X004253Y005844D01*
X004450Y005646D01*
X004692Y005507D01*
X004961Y005434D01*
X005090Y005434D01*
X005457Y005067D01*
X005378Y005095D01*
X005269Y005120D01*
X005157Y005132D01*
X005151Y005132D01*
X005151Y004182D01*
X006101Y004182D01*
X006101Y004188D01*
X006088Y004300D01*
X006063Y004410D01*
X006035Y004489D01*
X007417Y003107D01*
X007509Y003069D01*
X007609Y003069D01*
X008779Y003069D01*
X009182Y002666D01*
X009146Y002681D01*
X008915Y002681D01*
X008702Y002592D01*
X008539Y002429D01*
X008451Y002216D01*
X008451Y001985D01*
X008539Y001772D01*
X008702Y001609D01*
X008915Y001521D01*
X009146Y001521D01*
X009359Y001609D01*
X009522Y001772D01*
X009566Y001877D01*
X009609Y001772D01*
X009772Y001609D01*
X009985Y001521D01*
X010216Y001521D01*
X010429Y001609D01*
X010592Y001772D01*
X010636Y001877D01*
X010679Y001772D01*
X010842Y001609D01*
X011055Y001521D01*
X011286Y001521D01*
X011499Y001609D01*
X011568Y001677D02*
X014521Y001677D01*
X014546Y001776D02*
X011664Y001776D01*
X012208Y001875D02*
X014586Y001875D01*
X014653Y001973D02*
X012327Y001973D01*
X012425Y002072D02*
X014751Y002072D01*
X014960Y002170D02*
X012524Y002170D01*
X012622Y002269D02*
X018851Y002269D01*
X018851Y002367D02*
X012721Y002367D01*
X012819Y002466D02*
X018851Y002466D01*
X018851Y002564D02*
X012918Y002564D01*
X013016Y002663D02*
X018851Y002663D01*
X018851Y002761D02*
X013115Y002761D01*
X013213Y002860D02*
X018818Y002860D01*
X018719Y002959D02*
X013312Y002959D01*
X013411Y003057D02*
X018621Y003057D01*
X018522Y003156D02*
X017496Y003156D01*
X017684Y003254D02*
X018424Y003254D01*
X018325Y003353D02*
X017783Y003353D01*
X017841Y003451D02*
X018227Y003451D01*
X018540Y003845D02*
X019309Y003845D01*
X019301Y003747D02*
X018638Y003747D01*
X018737Y003648D02*
X019301Y003648D01*
X019320Y003550D02*
X018835Y003550D01*
X018934Y003451D02*
X019268Y003451D01*
X019169Y003353D02*
X019032Y003353D01*
X019482Y002959D02*
X022032Y002959D01*
X022021Y003057D02*
X019581Y003057D01*
X019679Y003156D02*
X019705Y003156D01*
X020056Y003156D02*
X022021Y003156D01*
X022037Y003254D02*
X020244Y003254D01*
X020343Y003353D02*
X021995Y003353D01*
X021897Y003451D02*
X020401Y003451D01*
X020442Y003550D02*
X021798Y003550D01*
X021700Y003648D02*
X020461Y003648D01*
X020461Y003747D02*
X021601Y003747D01*
X021503Y003845D02*
X020453Y003845D01*
X020412Y003944D02*
X021404Y003944D01*
X021306Y004043D02*
X020369Y004043D01*
X020271Y004141D02*
X021265Y004141D01*
X021265Y004240D02*
X020120Y004240D01*
X019642Y004240D02*
X017560Y004240D01*
X017711Y004141D02*
X019491Y004141D01*
X019392Y004043D02*
X017809Y004043D01*
X018411Y003944D02*
X019350Y003944D01*
X019384Y002860D02*
X022073Y002860D01*
X022120Y002761D02*
X019351Y002761D01*
X019351Y002663D02*
X022218Y002663D01*
X022244Y002564D02*
X019351Y002564D01*
X019351Y002466D02*
X022146Y002466D01*
X022083Y002367D02*
X019351Y002367D01*
X019351Y002269D02*
X022043Y002269D01*
X022021Y002170D02*
X019351Y002170D01*
X019450Y002072D02*
X022021Y002072D01*
X022026Y001973D02*
X019549Y001973D01*
X019615Y001875D02*
X022067Y001875D01*
X022108Y001776D02*
X019656Y001776D01*
X019681Y001677D02*
X022204Y001677D01*
X022345Y001579D02*
X019681Y001579D01*
X019679Y001480D02*
X024101Y001480D01*
X024101Y001382D02*
X019638Y001382D01*
X019597Y001283D02*
X024101Y001283D01*
X024101Y001185D02*
X019505Y001185D01*
X018697Y001185D02*
X015505Y001185D01*
X015597Y001283D02*
X018604Y001283D01*
X018564Y001382D02*
X015638Y001382D01*
X015679Y001480D02*
X018523Y001480D01*
X018521Y001579D02*
X015681Y001579D01*
X015681Y001677D02*
X018521Y001677D01*
X018546Y001776D02*
X015656Y001776D01*
X015615Y001875D02*
X018586Y001875D01*
X018653Y001973D02*
X015549Y001973D01*
X015450Y002072D02*
X018751Y002072D01*
X018851Y002170D02*
X015242Y002170D01*
X014697Y001185D02*
X002472Y001185D01*
X002739Y001579D02*
X008775Y001579D01*
X008634Y001677D02*
X002756Y001677D01*
X002774Y001776D02*
X008538Y001776D01*
X008497Y001875D02*
X002791Y001875D01*
X002783Y001973D02*
X008456Y001973D01*
X008451Y002072D02*
X002766Y002072D01*
X002748Y002170D02*
X008451Y002170D01*
X008473Y002269D02*
X002720Y002269D01*
X002663Y002367D02*
X008513Y002367D01*
X008576Y002466D02*
X002606Y002466D01*
X002534Y002564D02*
X008674Y002564D01*
X008872Y002663D02*
X002417Y002663D01*
X002300Y002761D02*
X009087Y002761D01*
X008988Y002860D02*
X002031Y002860D01*
X001571Y002860D02*
X001101Y002860D01*
X001101Y002959D02*
X008889Y002959D01*
X008791Y003057D02*
X001101Y003057D01*
X001101Y003156D02*
X004886Y003156D01*
X004933Y003145D02*
X005045Y003132D01*
X005051Y003132D01*
X005051Y004082D01*
X005151Y004082D01*
X005151Y004182D01*
X005051Y004182D01*
X005051Y004082D01*
X004101Y004082D01*
X004101Y004076D01*
X004113Y003964D01*
X004138Y003855D01*
X004175Y003749D01*
X004224Y003648D01*
X004284Y003553D01*
X004354Y003465D01*
X004433Y003385D01*
X004521Y003315D01*
X004616Y003256D01*
X004717Y003207D01*
X004824Y003170D01*
X004933Y003145D01*
X005051Y003156D02*
X005151Y003156D01*
X005151Y003132D02*
X005157Y003132D01*
X005269Y003145D01*
X005378Y003170D01*
X005484Y003207D01*
X005585Y003256D01*
X005680Y003315D01*
X005768Y003385D01*
X005848Y003465D01*
X005918Y003553D01*
X005977Y003648D01*
X006026Y003749D01*
X006063Y003855D01*
X006088Y003964D01*
X006101Y004076D01*
X006101Y004082D01*
X005151Y004082D01*
X005151Y003132D01*
X005151Y003254D02*
X005051Y003254D01*
X005051Y003353D02*
X005151Y003353D01*
X005151Y003451D02*
X005051Y003451D01*
X005051Y003550D02*
X005151Y003550D01*
X005151Y003648D02*
X005051Y003648D01*
X005051Y003747D02*
X005151Y003747D01*
X005151Y003845D02*
X005051Y003845D01*
X005051Y003944D02*
X005151Y003944D01*
X005151Y004043D02*
X005051Y004043D01*
X005051Y004141D02*
X001101Y004141D01*
X001101Y004043D02*
X004105Y004043D01*
X004118Y003944D02*
X001101Y003944D01*
X001101Y003845D02*
X004142Y003845D01*
X004176Y003747D02*
X001101Y003747D01*
X001101Y003648D02*
X004224Y003648D01*
X004286Y003550D02*
X001101Y003550D01*
X001101Y003451D02*
X004368Y003451D01*
X004474Y003353D02*
X001101Y003353D01*
X001101Y003254D02*
X004619Y003254D01*
X005316Y003156D02*
X007369Y003156D01*
X007270Y003254D02*
X005582Y003254D01*
X005727Y003353D02*
X007172Y003353D01*
X007073Y003451D02*
X005834Y003451D01*
X005915Y003550D02*
X006975Y003550D01*
X006876Y003648D02*
X005978Y003648D01*
X006025Y003747D02*
X006777Y003747D01*
X006679Y003845D02*
X006060Y003845D01*
X006084Y003944D02*
X006580Y003944D01*
X006482Y004043D02*
X006097Y004043D01*
X006095Y004240D02*
X006285Y004240D01*
X006186Y004338D02*
X006079Y004338D01*
X006088Y004437D02*
X006054Y004437D01*
X006383Y004141D02*
X005151Y004141D01*
X005151Y004240D02*
X005051Y004240D01*
X005051Y004182D02*
X005051Y005132D01*
X005045Y005132D01*
X004933Y005120D01*
X004824Y005095D01*
X004717Y005058D01*
X004616Y005009D01*
X004521Y004949D01*
X004433Y004879D01*
X004354Y004800D01*
X004284Y004712D01*
X004224Y004617D01*
X004175Y004516D01*
X004138Y004410D01*
X004113Y004300D01*
X004101Y004188D01*
X004101Y004182D01*
X005051Y004182D01*
X005051Y004338D02*
X005151Y004338D01*
X005151Y004437D02*
X005051Y004437D01*
X005051Y004535D02*
X005151Y004535D01*
X005151Y004634D02*
X005051Y004634D01*
X005051Y004732D02*
X005151Y004732D01*
X005151Y004831D02*
X005051Y004831D01*
X005051Y004929D02*
X005151Y004929D01*
X005151Y005028D02*
X005051Y005028D01*
X005051Y005126D02*
X005151Y005126D01*
X005208Y005126D02*
X005398Y005126D01*
X005299Y005225D02*
X001101Y005225D01*
X001101Y005126D02*
X004994Y005126D01*
X005201Y005324D02*
X001101Y005324D01*
X001101Y005422D02*
X005102Y005422D01*
X004667Y005521D02*
X001101Y005521D01*
X001101Y005619D02*
X004497Y005619D01*
X004378Y005718D02*
X001101Y005718D01*
X001101Y005816D02*
X004280Y005816D01*
X004211Y005915D02*
X001101Y005915D01*
X001101Y006013D02*
X004155Y006013D01*
X004106Y006112D02*
X001101Y006112D01*
X001101Y006210D02*
X004079Y006210D01*
X004053Y006309D02*
X001101Y006309D01*
X001101Y006408D02*
X004041Y006408D01*
X004041Y006506D02*
X001101Y006506D01*
X001101Y006605D02*
X004041Y006605D01*
X004059Y006703D02*
X001101Y006703D01*
X001101Y006802D02*
X004086Y006802D01*
X004112Y006900D02*
X001101Y006900D01*
X001101Y006999D02*
X004168Y006999D01*
X004225Y007097D02*
X001101Y007097D01*
X001101Y007196D02*
X004303Y007196D01*
X004402Y007294D02*
X001101Y007294D01*
X001101Y007393D02*
X004537Y007393D01*
X004726Y007492D02*
X001101Y007492D01*
X001101Y007590D02*
X006588Y007590D01*
X006686Y007492D02*
X005475Y007492D01*
X005664Y007393D02*
X006785Y007393D01*
X006884Y007294D02*
X005800Y007294D01*
X005898Y007196D02*
X006982Y007196D01*
X007081Y007097D02*
X005977Y007097D01*
X006034Y006999D02*
X007179Y006999D01*
X007278Y006900D02*
X006089Y006900D01*
X006116Y006802D02*
X007376Y006802D01*
X007475Y006703D02*
X006142Y006703D01*
X006161Y006605D02*
X007573Y006605D01*
X007672Y006506D02*
X006161Y006506D01*
X006161Y006408D02*
X007770Y006408D01*
X007869Y006309D02*
X007046Y006309D01*
X007001Y006309D02*
X006901Y006309D01*
X006857Y006309D02*
X006148Y006309D01*
X006122Y006210D02*
X006509Y006210D01*
X006349Y006112D02*
X006096Y006112D01*
X006047Y006013D02*
X006237Y006013D01*
X006152Y005915D02*
X005990Y005915D01*
X005922Y005816D02*
X006086Y005816D01*
X006036Y005718D02*
X005823Y005718D01*
X005705Y005619D02*
X005999Y005619D01*
X005973Y005521D02*
X005711Y005521D01*
X005809Y005422D02*
X005957Y005422D01*
X005908Y005324D02*
X006901Y005324D01*
X006901Y005422D02*
X007001Y005422D01*
X007001Y005324D02*
X008388Y005324D01*
X008329Y005382D02*
X008492Y005219D01*
X008705Y005131D01*
X008936Y005131D01*
X009149Y005219D01*
X009312Y005382D01*
X009401Y005595D01*
X009401Y005826D01*
X009312Y006039D01*
X009149Y006202D01*
X008936Y006291D01*
X008705Y006291D01*
X008627Y006258D01*
X003841Y011044D01*
X003841Y011051D01*
X003841Y011151D01*
X003841Y013746D01*
X003940Y013647D01*
X004136Y013566D01*
X004349Y013566D01*
X004546Y013647D01*
X004696Y013798D01*
X004778Y013994D01*
X004778Y014207D01*
X004756Y014260D01*
X005335Y014840D01*
X005406Y014910D01*
X005444Y015002D01*
X005444Y017845D01*
X005444Y017945D01*
X005406Y018036D01*
X005429Y018036D01*
X005406Y018036D02*
X004321Y019121D01*
X004337Y019128D01*
X005993Y017472D01*
X005993Y014576D01*
X005940Y014554D01*
X005789Y014404D01*
X005708Y014207D01*
X005708Y013994D01*
X005789Y013798D01*
X004696Y013798D01*
X004737Y013897D02*
X005748Y013897D01*
X005708Y013995D02*
X004778Y013995D01*
X004778Y014094D02*
X005708Y014094D01*
X005708Y014192D02*
X004778Y014192D01*
X004786Y014291D02*
X005743Y014291D01*
X005783Y014390D02*
X004885Y014390D01*
X004984Y014488D02*
X005874Y014488D01*
X005993Y014587D02*
X005082Y014587D01*
X005181Y014685D02*
X005993Y014685D01*
X005993Y014784D02*
X005279Y014784D01*
X005378Y014882D02*
X005993Y014882D01*
X005993Y014981D02*
X005435Y014981D01*
X005444Y015079D02*
X005993Y015079D01*
X005993Y015178D02*
X005444Y015178D01*
X005444Y015276D02*
X005993Y015276D01*
X005993Y015375D02*
X005444Y015375D01*
X005444Y015474D02*
X005993Y015474D01*
X005993Y015572D02*
X005444Y015572D01*
X005444Y015671D02*
X005993Y015671D01*
X005993Y015769D02*
X005444Y015769D01*
X005444Y015868D02*
X005993Y015868D01*
X005993Y015966D02*
X005444Y015966D01*
X005444Y016065D02*
X005993Y016065D01*
X005993Y016163D02*
X005444Y016163D01*
X005444Y016262D02*
X005993Y016262D01*
X005993Y016360D02*
X005444Y016360D01*
X005444Y016459D02*
X005993Y016459D01*
X005993Y016558D02*
X005444Y016558D01*
X005444Y016656D02*
X005993Y016656D01*
X005993Y016755D02*
X005444Y016755D01*
X005444Y016853D02*
X005993Y016853D01*
X005993Y016952D02*
X005444Y016952D01*
X005444Y017050D02*
X005993Y017050D01*
X005993Y017149D02*
X005444Y017149D01*
X005444Y017247D02*
X005993Y017247D01*
X005993Y017346D02*
X005444Y017346D01*
X005444Y017444D02*
X005993Y017444D01*
X005922Y017543D02*
X005444Y017543D01*
X005444Y017641D02*
X005824Y017641D01*
X005725Y017740D02*
X005444Y017740D01*
X005444Y017839D02*
X005626Y017839D01*
X005528Y017937D02*
X005444Y017937D01*
X005331Y018134D02*
X005308Y018134D01*
X005232Y018233D02*
X005209Y018233D01*
X005134Y018331D02*
X005111Y018331D01*
X005035Y018430D02*
X005012Y018430D01*
X004937Y018528D02*
X004914Y018528D01*
X004838Y018627D02*
X004815Y018627D01*
X004740Y018725D02*
X004717Y018725D01*
X004641Y018824D02*
X004618Y018824D01*
X004542Y018923D02*
X004519Y018923D01*
X004444Y019021D02*
X004421Y019021D01*
X004345Y019120D02*
X004322Y019120D01*
X004010Y018725D02*
X003559Y018725D01*
X003657Y018627D02*
X004108Y018627D01*
X004207Y018528D02*
X003756Y018528D01*
X003854Y018430D02*
X004305Y018430D01*
X004404Y018331D02*
X003953Y018331D01*
X004051Y018233D02*
X004502Y018233D01*
X004601Y018134D02*
X004150Y018134D01*
X004248Y018036D02*
X004699Y018036D01*
X004798Y017937D02*
X004347Y017937D01*
X004415Y017869D02*
X003389Y018895D01*
X003389Y024577D01*
X003467Y024609D01*
X003630Y024772D01*
X003719Y024985D01*
X003719Y025216D01*
X003630Y025429D01*
X003467Y025592D01*
X003254Y025681D01*
X003023Y025681D01*
X002869Y025617D01*
X002869Y025833D01*
X002780Y026046D01*
X002617Y026209D01*
X002517Y026251D01*
X002561Y026273D01*
X002627Y026321D01*
X002685Y026379D01*
X002733Y026445D01*
X002771Y026518D01*
X002796Y026596D01*
X002807Y026668D01*
X002339Y026668D01*
X002339Y026768D01*
X002807Y026768D01*
X002796Y026840D01*
X002771Y026917D01*
X002733Y026990D01*
X002685Y027057D01*
X002627Y027114D01*
X002561Y027163D01*
X002488Y027200D01*
X002410Y027225D01*
X002339Y027236D01*
X002339Y026768D01*
X002239Y026768D01*
X002239Y027236D01*
X002167Y027225D01*
X002089Y027200D01*
X002016Y027163D01*
X001950Y027114D01*
X001892Y027057D01*
X001844Y026990D01*
X001807Y026917D01*
X001781Y026840D01*
X001770Y026768D01*
X002239Y026768D01*
X002239Y026668D01*
X001770Y026668D01*
X001781Y026596D01*
X001807Y026518D01*
X001844Y026445D01*
X001892Y026379D01*
X001950Y026321D01*
X002016Y026273D01*
X002060Y026251D01*
X001960Y026209D01*
X001797Y026046D01*
X001709Y025833D01*
X001709Y025602D01*
X001741Y025524D01*
X001567Y025349D01*
X001529Y025258D01*
X001529Y025158D01*
X001529Y024484D01*
X001567Y024392D01*
X001637Y024322D01*
X001747Y024213D01*
X001709Y024175D01*
X001709Y023261D01*
X001832Y023138D01*
X002055Y023138D01*
X002077Y023086D01*
X002451Y022712D01*
X002324Y022765D01*
X002093Y022765D01*
X001880Y022676D01*
X001717Y022513D01*
X001629Y022300D01*
X001629Y022069D01*
X001717Y021856D01*
X001880Y021693D01*
X001900Y021685D01*
X001880Y021676D01*
X001717Y021513D01*
X001629Y021300D01*
X001629Y021069D01*
X001717Y020856D01*
X001880Y020693D01*
X001900Y020685D01*
X001880Y020676D01*
X001717Y020513D01*
X001629Y020300D01*
X001629Y020069D01*
X001717Y019856D01*
X001880Y019693D01*
X001900Y019685D01*
X001880Y019676D01*
X001717Y019513D01*
X001629Y019300D01*
X001629Y019069D01*
X001717Y018856D01*
X001880Y018693D01*
X001900Y018685D01*
X001880Y018676D01*
X001717Y018513D01*
X001629Y018300D01*
X001629Y018069D01*
X001717Y017856D01*
X001880Y017693D01*
X001900Y017685D01*
X001880Y017676D01*
X001717Y017513D01*
X001629Y017300D01*
X001629Y017069D01*
X001717Y016856D01*
X001880Y016693D01*
X002093Y016605D01*
X002324Y016605D01*
X002537Y016693D01*
X002700Y016856D01*
X002789Y017069D01*
X002789Y017300D01*
X002700Y017513D01*
X002537Y017676D01*
X002517Y017685D01*
X002537Y017693D01*
X002667Y017823D01*
X003230Y017260D01*
X003208Y017207D01*
X003208Y016994D01*
X003230Y016941D01*
X002379Y016090D01*
X002341Y015999D01*
X002341Y015899D01*
X002341Y011596D01*
X002316Y011621D01*
X002151Y011621D01*
X002151Y011151D01*
X002051Y011151D01*
X002051Y011621D01*
X001885Y011621D01*
X001581Y011316D01*
X001581Y011151D01*
X002051Y011151D01*
X002051Y011051D01*
X001581Y011051D01*
X001581Y010885D01*
X001823Y010643D01*
X001521Y010341D01*
X001521Y009861D01*
X001781Y009601D01*
X001521Y009341D01*
X001521Y008861D01*
X001861Y008521D01*
X002341Y008521D01*
X002601Y008781D01*
X002861Y008521D01*
X003341Y008521D01*
X003681Y008861D01*
X003681Y009341D01*
X003421Y009601D01*
X003681Y009861D01*
X003681Y010341D01*
X003421Y010601D01*
X003499Y010679D01*
X008273Y005905D01*
X008241Y005826D01*
X008241Y005595D01*
X008329Y005382D01*
X008313Y005422D02*
X007945Y005422D01*
X007930Y005521D02*
X008272Y005521D01*
X008241Y005619D02*
X007904Y005619D01*
X007866Y005718D02*
X008241Y005718D01*
X008241Y005816D02*
X007816Y005816D01*
X007751Y005915D02*
X008263Y005915D01*
X008165Y006013D02*
X007665Y006013D01*
X007554Y006112D02*
X008066Y006112D01*
X007968Y006210D02*
X007393Y006210D01*
X007001Y006210D02*
X006901Y006210D01*
X006901Y006112D02*
X007001Y006112D01*
X007001Y006013D02*
X006901Y006013D01*
X006901Y005915D02*
X007001Y005915D01*
X007001Y005816D02*
X006901Y005816D01*
X006901Y005718D02*
X007001Y005718D01*
X007001Y005619D02*
X006901Y005619D01*
X006901Y005521D02*
X007001Y005521D01*
X007001Y005225D02*
X006901Y005225D01*
X006901Y005126D02*
X007001Y005126D01*
X007001Y005028D02*
X006901Y005028D01*
X006901Y004929D02*
X007001Y004929D01*
X007001Y004831D02*
X006901Y004831D01*
X006901Y004732D02*
X007001Y004732D01*
X007001Y004634D02*
X006901Y004634D01*
X006901Y004535D02*
X007001Y004535D01*
X007001Y004437D02*
X006901Y004437D01*
X006901Y004338D02*
X007001Y004338D01*
X006992Y004240D02*
X013886Y004240D01*
X013985Y004338D02*
X007172Y004338D01*
X007090Y004141D02*
X013788Y004141D01*
X013689Y004043D02*
X007189Y004043D01*
X007287Y003944D02*
X013591Y003944D01*
X013492Y003845D02*
X007386Y003845D01*
X007484Y003747D02*
X013393Y003747D01*
X013295Y003648D02*
X007583Y003648D01*
X007435Y004437D02*
X014041Y004437D01*
X014021Y004535D02*
X007579Y004535D01*
X007686Y004634D02*
X014021Y004634D01*
X014028Y004732D02*
X007767Y004732D01*
X007829Y004831D02*
X014068Y004831D01*
X014109Y004929D02*
X007876Y004929D01*
X007911Y005028D02*
X014208Y005028D01*
X014354Y005126D02*
X007934Y005126D01*
X007948Y005225D02*
X008486Y005225D01*
X009155Y005225D02*
X011046Y005225D01*
X011052Y005219D02*
X011265Y005131D01*
X011496Y005131D01*
X011709Y005219D01*
X011872Y005382D01*
X011961Y005595D01*
X011961Y005826D01*
X011872Y006039D01*
X011709Y006202D01*
X011496Y006291D01*
X011265Y006291D01*
X011052Y006202D01*
X010889Y006039D01*
X010801Y005826D01*
X010801Y005595D01*
X010889Y005382D01*
X011052Y005219D01*
X010948Y005324D02*
X009254Y005324D01*
X009329Y005422D02*
X010873Y005422D01*
X010832Y005521D02*
X009370Y005521D01*
X009401Y005619D02*
X010801Y005619D01*
X010801Y005718D02*
X009401Y005718D01*
X009401Y005816D02*
X010801Y005816D01*
X010838Y005915D02*
X009364Y005915D01*
X009323Y006013D02*
X010878Y006013D01*
X010962Y006112D02*
X009240Y006112D01*
X009130Y006210D02*
X011072Y006210D01*
X011690Y006210D02*
X014171Y006210D01*
X014109Y006272D02*
X014272Y006109D01*
X014485Y006021D01*
X014716Y006021D01*
X014929Y006109D01*
X015092Y006272D01*
X015181Y006485D01*
X015181Y006716D01*
X015092Y006929D01*
X014929Y007092D01*
X014716Y007181D01*
X014485Y007181D01*
X014272Y007092D01*
X014109Y006929D01*
X014021Y006716D01*
X014021Y006485D01*
X014109Y006272D01*
X014094Y006309D02*
X008576Y006309D01*
X008477Y006408D02*
X014053Y006408D01*
X014021Y006506D02*
X008379Y006506D01*
X008280Y006605D02*
X014021Y006605D01*
X014021Y006703D02*
X008182Y006703D01*
X008083Y006802D02*
X014056Y006802D01*
X014097Y006900D02*
X007985Y006900D01*
X007886Y006999D02*
X008652Y006999D01*
X008621Y007009D02*
X008699Y006984D01*
X008771Y006972D01*
X008771Y007441D01*
X008871Y007441D01*
X008871Y007541D01*
X009339Y007541D01*
X009328Y007613D01*
X009303Y007690D01*
X009266Y007763D01*
X009217Y007830D01*
X009160Y007887D01*
X009093Y007936D01*
X009020Y007973D01*
X008943Y007998D01*
X008871Y008009D01*
X008871Y007541D01*
X008771Y007541D01*
X008771Y008009D01*
X008699Y007998D01*
X008621Y007973D01*
X008548Y007936D01*
X008482Y007887D01*
X008424Y007830D01*
X008376Y007763D01*
X008339Y007690D01*
X008314Y007613D01*
X008302Y007541D01*
X008771Y007541D01*
X008771Y007441D01*
X008302Y007441D01*
X008314Y007369D01*
X008339Y007291D01*
X008376Y007218D01*
X008424Y007152D01*
X008482Y007094D01*
X008548Y007046D01*
X008621Y007009D01*
X008771Y006999D02*
X008871Y006999D01*
X008871Y006972D02*
X008943Y006984D01*
X009020Y007009D01*
X009093Y007046D01*
X009160Y007094D01*
X009217Y007152D01*
X009266Y007218D01*
X009303Y007291D01*
X009328Y007369D01*
X009339Y007441D01*
X008871Y007441D01*
X008871Y006972D01*
X008989Y006999D02*
X011212Y006999D01*
X011181Y007009D02*
X011259Y006984D01*
X011331Y006972D01*
X011331Y007441D01*
X011431Y007441D01*
X011431Y007541D01*
X011899Y007541D01*
X011888Y007613D01*
X011863Y007690D01*
X011826Y007763D01*
X011777Y007830D01*
X011720Y007887D01*
X011653Y007936D01*
X011580Y007973D01*
X011503Y007998D01*
X011431Y008009D01*
X011431Y007541D01*
X011331Y007541D01*
X011331Y008009D01*
X011259Y007998D01*
X011181Y007973D01*
X011108Y007936D01*
X011042Y007887D01*
X010984Y007830D01*
X010936Y007763D01*
X010899Y007690D01*
X010874Y007613D01*
X010862Y007541D01*
X011331Y007541D01*
X011331Y007441D01*
X010862Y007441D01*
X010874Y007369D01*
X010899Y007291D01*
X010936Y007218D01*
X010984Y007152D01*
X011042Y007094D01*
X011108Y007046D01*
X011181Y007009D01*
X011331Y006999D02*
X011431Y006999D01*
X011431Y006972D02*
X011503Y006984D01*
X011580Y007009D01*
X011653Y007046D01*
X011720Y007094D01*
X011777Y007152D01*
X011826Y007218D01*
X011863Y007291D01*
X011888Y007369D01*
X011899Y007441D01*
X011431Y007441D01*
X011431Y006972D01*
X011549Y006999D02*
X014179Y006999D01*
X014284Y007097D02*
X011723Y007097D01*
X011809Y007196D02*
X018517Y007196D01*
X018615Y007097D02*
X014917Y007097D01*
X015023Y006999D02*
X018714Y006999D01*
X018812Y006900D02*
X015104Y006900D01*
X015145Y006802D02*
X018911Y006802D01*
X019009Y006703D02*
X015181Y006703D01*
X015181Y006605D02*
X019108Y006605D01*
X019206Y006506D02*
X015181Y006506D01*
X015148Y006408D02*
X019305Y006408D01*
X019404Y006309D02*
X015108Y006309D01*
X015031Y006210D02*
X019502Y006210D01*
X019601Y006112D02*
X014932Y006112D01*
X014269Y006112D02*
X011800Y006112D01*
X011883Y006013D02*
X019699Y006013D01*
X019580Y005915D02*
X017622Y005915D01*
X017593Y005936D02*
X017520Y005973D01*
X017443Y005998D01*
X017371Y006009D01*
X017371Y005541D01*
X017839Y005541D01*
X017828Y005613D01*
X017803Y005690D01*
X017766Y005763D01*
X017717Y005830D01*
X017660Y005887D01*
X017593Y005936D01*
X017727Y005816D02*
X019475Y005816D01*
X019413Y005718D02*
X017789Y005718D01*
X017826Y005619D02*
X019376Y005619D01*
X019365Y005422D02*
X017836Y005422D01*
X017839Y005441D02*
X017371Y005441D01*
X017371Y005541D01*
X017271Y005541D01*
X017271Y006009D01*
X017199Y005998D01*
X017121Y005973D01*
X017048Y005936D01*
X016982Y005887D01*
X016924Y005830D01*
X016876Y005763D01*
X016839Y005690D01*
X016814Y005613D01*
X016802Y005541D01*
X017271Y005541D01*
X017271Y005441D01*
X017371Y005441D01*
X017371Y004972D01*
X017443Y004984D01*
X017520Y005009D01*
X017593Y005046D01*
X017660Y005094D01*
X017717Y005152D01*
X017766Y005218D01*
X017803Y005291D01*
X017828Y005369D01*
X017839Y005441D01*
X017813Y005324D02*
X019388Y005324D01*
X019433Y005225D02*
X017769Y005225D01*
X017692Y005126D02*
X019510Y005126D01*
X019644Y005028D02*
X017558Y005028D01*
X017371Y005028D02*
X017271Y005028D01*
X017271Y004972D02*
X017271Y005441D01*
X016802Y005441D01*
X016814Y005369D01*
X016839Y005291D01*
X016876Y005218D01*
X016924Y005152D01*
X016982Y005094D01*
X017048Y005046D01*
X017121Y005009D01*
X017199Y004984D01*
X017271Y004972D01*
X017271Y005126D02*
X017371Y005126D01*
X017371Y005225D02*
X017271Y005225D01*
X017271Y005324D02*
X017371Y005324D01*
X017371Y005422D02*
X017271Y005422D01*
X017271Y005521D02*
X011930Y005521D01*
X011961Y005619D02*
X016816Y005619D01*
X016853Y005718D02*
X011961Y005718D01*
X011961Y005816D02*
X016915Y005816D01*
X017020Y005915D02*
X011924Y005915D01*
X011889Y005422D02*
X016805Y005422D01*
X016828Y005324D02*
X011814Y005324D01*
X011715Y005225D02*
X016873Y005225D01*
X016950Y005126D02*
X014847Y005126D01*
X014994Y005028D02*
X017084Y005028D01*
X017371Y005521D02*
X019831Y005521D01*
X019831Y005422D02*
X019931Y005422D01*
X019931Y005324D02*
X019831Y005324D01*
X019831Y005225D02*
X019931Y005225D01*
X019931Y005126D02*
X019831Y005126D01*
X019831Y005028D02*
X019931Y005028D01*
X020118Y005028D02*
X020685Y005028D01*
X020586Y005126D02*
X020252Y005126D01*
X020329Y005225D02*
X020487Y005225D01*
X020389Y005324D02*
X020373Y005324D01*
X020702Y005718D02*
X022164Y005718D01*
X022109Y005772D02*
X022272Y005609D01*
X022292Y005601D01*
X022272Y005592D01*
X022109Y005429D01*
X022021Y005216D01*
X022021Y004985D01*
X022109Y004772D01*
X022272Y004609D01*
X022372Y004568D01*
X022328Y004546D01*
X022262Y004497D01*
X022204Y004440D01*
X022156Y004373D01*
X022119Y004300D01*
X022094Y004223D01*
X022082Y004151D01*
X022551Y004151D01*
X022551Y004051D01*
X022082Y004051D01*
X022094Y003979D01*
X022102Y003953D01*
X021765Y004290D01*
X021765Y004501D01*
X021765Y004601D01*
X021727Y004693D01*
X018297Y008122D01*
X018227Y008193D01*
X018135Y008231D01*
X017328Y008231D01*
X012900Y012659D01*
X013359Y012659D01*
X013539Y012733D01*
X013677Y012871D01*
X013752Y013051D01*
X013752Y013203D01*
X019995Y006959D01*
X020066Y006889D01*
X020157Y006851D01*
X022077Y006851D01*
X022109Y006772D01*
X022272Y006609D01*
X022292Y006601D01*
X022272Y006592D01*
X022109Y006429D01*
X022021Y006216D01*
X022021Y005985D01*
X022109Y005772D01*
X022091Y005816D02*
X020603Y005816D01*
X020505Y005915D02*
X022050Y005915D01*
X022021Y006013D02*
X020406Y006013D01*
X020308Y006112D02*
X022021Y006112D01*
X022021Y006210D02*
X020209Y006210D01*
X020111Y006309D02*
X022059Y006309D01*
X022100Y006408D02*
X020012Y006408D01*
X019913Y006506D02*
X022186Y006506D01*
X022283Y006605D02*
X019815Y006605D01*
X019716Y006703D02*
X022178Y006703D01*
X022097Y006802D02*
X019618Y006802D01*
X019519Y006900D02*
X020054Y006900D01*
X019956Y006999D02*
X019421Y006999D01*
X019322Y007097D02*
X019857Y007097D01*
X019759Y007196D02*
X019224Y007196D01*
X019125Y007294D02*
X019660Y007294D01*
X019561Y007393D02*
X019027Y007393D01*
X018928Y007492D02*
X019463Y007492D01*
X019364Y007590D02*
X018829Y007590D01*
X018731Y007689D02*
X019266Y007689D01*
X019167Y007787D02*
X018632Y007787D01*
X018534Y007886D02*
X019069Y007886D01*
X018970Y007984D02*
X018435Y007984D01*
X018337Y008083D02*
X018872Y008083D01*
X018773Y008181D02*
X018238Y008181D01*
X018477Y008477D02*
X017082Y008477D01*
X016983Y008576D02*
X018379Y008576D01*
X018280Y008674D02*
X016885Y008674D01*
X016786Y008773D02*
X018182Y008773D01*
X018083Y008871D02*
X016688Y008871D01*
X016589Y008970D02*
X017985Y008970D01*
X017886Y009068D02*
X016491Y009068D01*
X016392Y009167D02*
X017788Y009167D01*
X017689Y009265D02*
X016294Y009265D01*
X016195Y009364D02*
X017591Y009364D01*
X017492Y009462D02*
X016097Y009462D01*
X015998Y009561D02*
X017394Y009561D01*
X017295Y009659D02*
X015899Y009659D01*
X015801Y009758D02*
X017196Y009758D01*
X017098Y009857D02*
X015702Y009857D01*
X015604Y009955D02*
X016999Y009955D01*
X016901Y010054D02*
X015505Y010054D01*
X015407Y010152D02*
X016802Y010152D01*
X016704Y010251D02*
X015308Y010251D01*
X015210Y010349D02*
X016605Y010349D01*
X016507Y010448D02*
X015111Y010448D01*
X015013Y010546D02*
X016408Y010546D01*
X016310Y010645D02*
X014914Y010645D01*
X014816Y010743D02*
X016211Y010743D01*
X016112Y010842D02*
X014717Y010842D01*
X014618Y010941D02*
X016014Y010941D01*
X015915Y011039D02*
X014520Y011039D01*
X014421Y011138D02*
X015817Y011138D01*
X015718Y011236D02*
X014323Y011236D01*
X014224Y011335D02*
X015620Y011335D01*
X015521Y011433D02*
X014126Y011433D01*
X014027Y011532D02*
X015423Y011532D01*
X015324Y011630D02*
X013929Y011630D01*
X013830Y011729D02*
X015226Y011729D01*
X015127Y011827D02*
X013732Y011827D01*
X013633Y011926D02*
X015028Y011926D01*
X014930Y012025D02*
X013534Y012025D01*
X013436Y012123D02*
X014831Y012123D01*
X014733Y012222D02*
X013337Y012222D01*
X013239Y012320D02*
X014634Y012320D01*
X014536Y012419D02*
X013140Y012419D01*
X013042Y012517D02*
X014437Y012517D01*
X014339Y012616D02*
X012943Y012616D01*
X012630Y012222D02*
X007429Y012222D01*
X007429Y012320D02*
X012532Y012320D01*
X012433Y012419D02*
X007429Y012419D01*
X007429Y012517D02*
X012335Y012517D01*
X012236Y012616D02*
X007429Y012616D01*
X007429Y012714D02*
X009470Y012714D01*
X009424Y012733D02*
X009604Y012659D01*
X010359Y012659D01*
X010539Y012733D01*
X010677Y012871D01*
X010752Y013051D01*
X010752Y013246D01*
X010677Y013426D01*
X010539Y013564D01*
X010359Y013639D01*
X009604Y013639D01*
X009424Y013564D01*
X009286Y013426D01*
X009212Y013246D01*
X009212Y013051D01*
X009286Y012871D01*
X009424Y012733D01*
X009345Y012813D02*
X007429Y012813D01*
X007429Y012911D02*
X009270Y012911D01*
X009229Y013010D02*
X007429Y013010D01*
X007429Y013109D02*
X009212Y013109D01*
X009212Y013207D02*
X007429Y013207D01*
X007429Y013306D02*
X009236Y013306D01*
X009277Y013404D02*
X007429Y013404D01*
X007429Y013503D02*
X009363Y013503D01*
X009514Y013601D02*
X007429Y013601D01*
X007429Y013700D02*
X009505Y013700D01*
X009359Y013798D02*
X007429Y013798D01*
X007429Y013897D02*
X009276Y013897D01*
X009235Y013995D02*
X007429Y013995D01*
X007429Y014094D02*
X009212Y014094D01*
X009212Y014192D02*
X007429Y014192D01*
X007429Y014291D02*
X009230Y014291D01*
X009271Y014390D02*
X007429Y014390D01*
X007429Y014488D02*
X009348Y014488D01*
X009479Y014587D02*
X007429Y014587D01*
X007429Y014685D02*
X009541Y014685D01*
X009374Y014784D02*
X007429Y014784D01*
X007429Y014882D02*
X009282Y014882D01*
X009241Y014981D02*
X007429Y014981D01*
X007429Y015079D02*
X009212Y015079D01*
X009212Y015178D02*
X007429Y015178D01*
X007429Y015276D02*
X009224Y015276D01*
X009265Y015375D02*
X007429Y015375D01*
X007429Y015474D02*
X009334Y015474D01*
X009443Y015572D02*
X007429Y015572D01*
X007429Y015671D02*
X009576Y015671D01*
X009604Y015659D02*
X010359Y015659D01*
X010539Y015733D01*
X010677Y015871D01*
X010752Y016051D01*
X010752Y016246D01*
X010677Y016426D01*
X010539Y016564D01*
X010359Y016639D01*
X009604Y016639D01*
X009424Y016564D01*
X009286Y016426D01*
X009212Y016246D01*
X009212Y016051D01*
X009286Y015871D01*
X009424Y015733D01*
X009604Y015659D01*
X009388Y015769D02*
X007429Y015769D01*
X007429Y015868D02*
X009290Y015868D01*
X009247Y015966D02*
X007429Y015966D01*
X007429Y016065D02*
X009212Y016065D01*
X009212Y016163D02*
X007562Y016163D01*
X007507Y016109D02*
X007670Y016272D01*
X007759Y016485D01*
X007759Y016716D01*
X007670Y016929D01*
X007507Y017092D01*
X007294Y017181D01*
X007063Y017181D01*
X006850Y017092D01*
X006687Y016929D01*
X006599Y016716D01*
X006599Y016485D01*
X006687Y016272D01*
X006850Y016109D01*
X006929Y016077D01*
X006929Y011182D01*
X005889Y010142D01*
X005851Y010051D01*
X005851Y010044D01*
X005611Y009804D01*
X005611Y009398D01*
X005898Y009111D01*
X006304Y009111D01*
X006591Y009398D01*
X006591Y009804D01*
X006424Y009971D01*
X007391Y010937D01*
X007429Y011029D01*
X007429Y011129D01*
X007429Y016077D01*
X007507Y016109D01*
X007660Y016262D02*
X009218Y016262D01*
X009259Y016360D02*
X007707Y016360D01*
X007748Y016459D02*
X009319Y016459D01*
X009418Y016558D02*
X007759Y016558D01*
X007759Y016656D02*
X012052Y016656D01*
X012052Y016558D02*
X010546Y016558D01*
X010644Y016459D02*
X012052Y016459D01*
X012052Y016360D02*
X010704Y016360D01*
X010745Y016262D02*
X012052Y016262D01*
X012052Y016163D02*
X010752Y016163D01*
X010752Y016065D02*
X012052Y016065D01*
X012052Y015966D02*
X010716Y015966D01*
X010674Y015868D02*
X012052Y015868D01*
X012052Y015769D02*
X010575Y015769D01*
X010520Y015572D02*
X012052Y015572D01*
X012052Y015474D02*
X010630Y015474D01*
X010769Y015375D02*
X012052Y015375D01*
X012052Y015276D02*
X010879Y015276D01*
X010912Y015178D02*
X012052Y015178D01*
X012052Y015079D02*
X010912Y015079D01*
X010912Y014981D02*
X012052Y014981D01*
X012052Y014882D02*
X010912Y014882D01*
X010912Y014784D02*
X012052Y014784D01*
X012052Y014685D02*
X010912Y014685D01*
X010972Y014587D02*
X012052Y014587D01*
X012052Y014488D02*
X011071Y014488D01*
X011169Y014390D02*
X012052Y014390D01*
X012052Y014291D02*
X011268Y014291D01*
X011366Y014192D02*
X012052Y014192D01*
X012052Y014094D02*
X011465Y014094D01*
X011564Y013995D02*
X012052Y013995D01*
X012052Y013897D02*
X011662Y013897D01*
X011761Y013798D02*
X012052Y013798D01*
X012052Y013700D02*
X011859Y013700D01*
X011958Y013601D02*
X012052Y013601D01*
X011645Y013207D02*
X010752Y013207D01*
X010752Y013109D02*
X011743Y013109D01*
X011842Y013010D02*
X010735Y013010D01*
X010694Y012911D02*
X011941Y012911D01*
X012039Y012813D02*
X010619Y012813D01*
X010493Y012714D02*
X012138Y012714D01*
X012729Y012123D02*
X007429Y012123D01*
X007429Y012025D02*
X012827Y012025D01*
X012926Y011926D02*
X007429Y011926D01*
X007429Y011827D02*
X013025Y011827D01*
X013123Y011729D02*
X007429Y011729D01*
X007429Y011630D02*
X013222Y011630D01*
X013320Y011532D02*
X007429Y011532D01*
X007429Y011433D02*
X013419Y011433D01*
X013517Y011335D02*
X007429Y011335D01*
X007429Y011236D02*
X013616Y011236D01*
X013714Y011138D02*
X007429Y011138D01*
X007429Y011039D02*
X013813Y011039D01*
X013911Y010941D02*
X007392Y010941D01*
X007295Y010842D02*
X014010Y010842D01*
X014109Y010743D02*
X007197Y010743D01*
X007098Y010645D02*
X014207Y010645D01*
X014306Y010546D02*
X007000Y010546D01*
X006901Y010448D02*
X014404Y010448D01*
X014503Y010349D02*
X006803Y010349D01*
X006704Y010251D02*
X014601Y010251D01*
X014700Y010152D02*
X006606Y010152D01*
X006507Y010054D02*
X014798Y010054D01*
X014897Y009955D02*
X007354Y009955D01*
X007279Y010031D02*
X007131Y010031D01*
X007131Y009631D01*
X007531Y009631D01*
X007531Y009779D01*
X007279Y010031D01*
X007131Y009955D02*
X007071Y009955D01*
X007071Y010031D02*
X006923Y010031D01*
X006671Y009779D01*
X006671Y009631D01*
X007071Y009631D01*
X007071Y010031D01*
X007071Y009857D02*
X007131Y009857D01*
X007131Y009758D02*
X007071Y009758D01*
X007071Y009659D02*
X007131Y009659D01*
X007131Y009631D02*
X007071Y009631D01*
X007071Y009571D01*
X007131Y009571D01*
X007131Y009631D01*
X007131Y009571D02*
X007531Y009571D01*
X007531Y009423D01*
X007279Y009171D01*
X007131Y009171D01*
X007131Y009571D01*
X007131Y009561D02*
X007071Y009561D01*
X007071Y009571D02*
X007071Y009171D01*
X006923Y009171D01*
X006671Y009423D01*
X006671Y009571D01*
X007071Y009571D01*
X007071Y009462D02*
X007131Y009462D01*
X007131Y009364D02*
X007071Y009364D01*
X007071Y009265D02*
X007131Y009265D01*
X007373Y009265D02*
X015587Y009265D01*
X015685Y009167D02*
X006360Y009167D01*
X006458Y009265D02*
X006828Y009265D01*
X006730Y009364D02*
X006557Y009364D01*
X006591Y009462D02*
X006671Y009462D01*
X006671Y009561D02*
X006591Y009561D01*
X006591Y009659D02*
X006671Y009659D01*
X006671Y009758D02*
X006591Y009758D01*
X006538Y009857D02*
X006749Y009857D01*
X006847Y009955D02*
X006439Y009955D01*
X006096Y010349D02*
X004536Y010349D01*
X004634Y010251D02*
X005997Y010251D01*
X005899Y010152D02*
X004733Y010152D01*
X004831Y010054D02*
X005852Y010054D01*
X005762Y009955D02*
X004930Y009955D01*
X005028Y009857D02*
X005664Y009857D01*
X005611Y009758D02*
X005127Y009758D01*
X005226Y009659D02*
X005611Y009659D01*
X005611Y009561D02*
X005324Y009561D01*
X005423Y009462D02*
X005611Y009462D01*
X005645Y009364D02*
X005521Y009364D01*
X005620Y009265D02*
X005743Y009265D01*
X005718Y009167D02*
X005842Y009167D01*
X005817Y009068D02*
X015784Y009068D01*
X015882Y008970D02*
X005915Y008970D01*
X006014Y008871D02*
X015981Y008871D01*
X016079Y008773D02*
X006112Y008773D01*
X006211Y008674D02*
X016178Y008674D01*
X016276Y008576D02*
X006310Y008576D01*
X006408Y008477D02*
X016375Y008477D01*
X016474Y008378D02*
X006507Y008378D01*
X006605Y008280D02*
X016572Y008280D01*
X016671Y008181D02*
X006704Y008181D01*
X006802Y008083D02*
X016769Y008083D01*
X016868Y007984D02*
X011545Y007984D01*
X011431Y007984D02*
X011331Y007984D01*
X011331Y007886D02*
X011431Y007886D01*
X011431Y007787D02*
X011331Y007787D01*
X011331Y007689D02*
X011431Y007689D01*
X011431Y007590D02*
X011331Y007590D01*
X011331Y007492D02*
X008871Y007492D01*
X008871Y007590D02*
X008771Y007590D01*
X008771Y007492D02*
X007394Y007492D01*
X007492Y007393D02*
X008310Y007393D01*
X008338Y007294D02*
X007591Y007294D01*
X007689Y007196D02*
X008392Y007196D01*
X008479Y007097D02*
X007788Y007097D01*
X007295Y007590D02*
X008310Y007590D01*
X008338Y007689D02*
X007196Y007689D01*
X007098Y007787D02*
X008393Y007787D01*
X008480Y007886D02*
X006999Y007886D01*
X006901Y007984D02*
X008657Y007984D01*
X008771Y007984D02*
X008871Y007984D01*
X008871Y007886D02*
X008771Y007886D01*
X008771Y007787D02*
X008871Y007787D01*
X008871Y007689D02*
X008771Y007689D01*
X008771Y007393D02*
X008871Y007393D01*
X008871Y007294D02*
X008771Y007294D01*
X008771Y007196D02*
X008871Y007196D01*
X008871Y007097D02*
X008771Y007097D01*
X009163Y007097D02*
X011039Y007097D01*
X010952Y007196D02*
X009249Y007196D01*
X009304Y007294D02*
X010898Y007294D01*
X010870Y007393D02*
X009332Y007393D01*
X009332Y007590D02*
X010870Y007590D01*
X010898Y007689D02*
X009303Y007689D01*
X009248Y007787D02*
X010953Y007787D01*
X011040Y007886D02*
X009161Y007886D01*
X008985Y007984D02*
X011217Y007984D01*
X011721Y007886D02*
X016966Y007886D01*
X017065Y007787D02*
X011808Y007787D01*
X011863Y007689D02*
X018024Y007689D01*
X018122Y007590D02*
X011892Y007590D01*
X011892Y007393D02*
X018320Y007393D01*
X018418Y007294D02*
X011864Y007294D01*
X011431Y007294D02*
X011331Y007294D01*
X011331Y007196D02*
X011431Y007196D01*
X011431Y007097D02*
X011331Y007097D01*
X011331Y007393D02*
X011431Y007393D01*
X011431Y007492D02*
X018221Y007492D01*
X018675Y008280D02*
X017279Y008280D01*
X017181Y008378D02*
X018576Y008378D01*
X020908Y009857D02*
X022571Y009857D01*
X022571Y009955D02*
X020810Y009955D01*
X020711Y010054D02*
X022582Y010054D01*
X022623Y010152D02*
X020613Y010152D01*
X020514Y010251D02*
X022681Y010251D01*
X022780Y010349D02*
X020416Y010349D01*
X020317Y010448D02*
X022988Y010448D01*
X023213Y010448D02*
X024101Y010448D01*
X024101Y010546D02*
X020218Y010546D01*
X020120Y010645D02*
X024101Y010645D01*
X024101Y010743D02*
X020021Y010743D01*
X019923Y010842D02*
X024101Y010842D01*
X024101Y010941D02*
X019824Y010941D01*
X019726Y011039D02*
X024101Y011039D01*
X024101Y011138D02*
X019627Y011138D01*
X019529Y011236D02*
X024101Y011236D01*
X024101Y011335D02*
X019430Y011335D01*
X019332Y011433D02*
X024101Y011433D01*
X024101Y011532D02*
X019233Y011532D01*
X019134Y011630D02*
X024101Y011630D01*
X024101Y011729D02*
X019036Y011729D01*
X018937Y011827D02*
X024101Y011827D01*
X024101Y011926D02*
X018839Y011926D01*
X018740Y012025D02*
X024101Y012025D01*
X024101Y012123D02*
X018642Y012123D01*
X018032Y012517D02*
X017932Y012517D01*
X017932Y012616D02*
X018032Y012616D01*
X018032Y012714D02*
X017932Y012714D01*
X017932Y012813D02*
X018032Y012813D01*
X018032Y012911D02*
X017932Y012911D01*
X017932Y013010D02*
X018032Y013010D01*
X018032Y013109D02*
X017932Y013109D01*
X017932Y013207D02*
X018032Y013207D01*
X018032Y013306D02*
X017932Y013306D01*
X017932Y013404D02*
X018032Y013404D01*
X018032Y013503D02*
X017932Y013503D01*
X017932Y013601D02*
X018032Y013601D01*
X018032Y013700D02*
X017932Y013700D01*
X017932Y013798D02*
X018032Y013798D01*
X018032Y013897D02*
X017932Y013897D01*
X017932Y013995D02*
X018032Y013995D01*
X018032Y014094D02*
X019824Y014094D01*
X019824Y014192D02*
X019632Y014192D01*
X019632Y014291D02*
X019824Y014291D01*
X019824Y014390D02*
X019632Y014390D01*
X019632Y014488D02*
X019824Y014488D01*
X019824Y014587D02*
X019632Y014587D01*
X019632Y014685D02*
X019824Y014685D01*
X019824Y014735D02*
X019947Y014858D01*
X021216Y014858D01*
X021339Y014735D01*
X021339Y013466D01*
X021216Y013343D01*
X019947Y013343D01*
X019824Y013466D01*
X019824Y014735D01*
X019873Y014784D02*
X019632Y014784D01*
X019632Y014882D02*
X022341Y014882D01*
X022367Y014784D02*
X021291Y014784D01*
X021339Y014685D02*
X022424Y014685D01*
X022481Y014587D02*
X021339Y014587D01*
X021339Y014488D02*
X022538Y014488D01*
X022595Y014390D02*
X021339Y014390D01*
X021339Y014291D02*
X022680Y014291D01*
X022779Y014192D02*
X021339Y014192D01*
X021339Y014094D02*
X022877Y014094D01*
X022988Y013995D02*
X021339Y013995D01*
X021339Y013897D02*
X023159Y013897D01*
X023330Y013798D02*
X021339Y013798D01*
X021339Y013700D02*
X023636Y013700D01*
X024101Y013601D02*
X021339Y013601D01*
X021339Y013503D02*
X024101Y013503D01*
X024101Y013404D02*
X021277Y013404D01*
X019886Y013404D02*
X019632Y013404D01*
X019632Y013306D02*
X024101Y013306D01*
X024101Y013207D02*
X019632Y013207D01*
X019632Y013109D02*
X024101Y013109D01*
X024101Y013010D02*
X019632Y013010D01*
X019632Y012911D02*
X024101Y012911D01*
X024101Y012813D02*
X019632Y012813D01*
X019632Y012714D02*
X024101Y012714D01*
X024101Y012616D02*
X019632Y012616D01*
X019607Y012517D02*
X024101Y012517D01*
X024101Y012419D02*
X016818Y012419D01*
X016916Y012320D02*
X024101Y012320D01*
X024101Y012222D02*
X017015Y012222D01*
X017932Y014192D02*
X018032Y014192D01*
X018032Y014291D02*
X017932Y014291D01*
X017932Y014390D02*
X018032Y014390D01*
X018032Y014488D02*
X017932Y014488D01*
X017932Y014587D02*
X018032Y014587D01*
X018032Y014685D02*
X017932Y014685D01*
X017932Y014784D02*
X018032Y014784D01*
X018032Y014882D02*
X017932Y014882D01*
X017932Y014981D02*
X018032Y014981D01*
X018032Y015079D02*
X017932Y015079D01*
X017932Y015178D02*
X018032Y015178D01*
X018032Y015276D02*
X017932Y015276D01*
X017932Y015375D02*
X018032Y015375D01*
X018032Y015474D02*
X017932Y015474D01*
X017932Y015572D02*
X018032Y015572D01*
X018032Y015671D02*
X017932Y015671D01*
X016612Y015769D02*
X022247Y015769D01*
X022241Y015671D02*
X019615Y015671D01*
X019632Y015572D02*
X022241Y015572D01*
X022241Y015474D02*
X019632Y015474D01*
X019632Y015375D02*
X022241Y015375D01*
X022241Y015276D02*
X019632Y015276D01*
X019632Y015178D02*
X022262Y015178D01*
X022288Y015079D02*
X019632Y015079D01*
X019632Y014981D02*
X022314Y014981D01*
X022274Y015868D02*
X016612Y015868D01*
X016612Y015966D02*
X022300Y015966D01*
X022326Y016065D02*
X016612Y016065D01*
X016612Y016163D02*
X022353Y016163D01*
X022393Y016262D02*
X016612Y016262D01*
X016612Y016360D02*
X022449Y016360D01*
X022506Y016459D02*
X016612Y016459D01*
X016612Y016558D02*
X022563Y016558D01*
X022626Y016656D02*
X016612Y016656D01*
X016612Y016755D02*
X022724Y016755D01*
X022823Y016853D02*
X016612Y016853D01*
X016612Y016952D02*
X022921Y016952D01*
X023065Y017050D02*
X016574Y017050D01*
X016477Y017149D02*
X023235Y017149D01*
X023433Y017247D02*
X016378Y017247D01*
X016280Y017346D02*
X016732Y017346D01*
X016596Y017444D02*
X016181Y017444D01*
X016108Y017543D02*
X016083Y017543D01*
X012052Y017543D02*
X010561Y017543D01*
X010539Y017564D02*
X010359Y017639D01*
X009604Y017639D01*
X009424Y017564D01*
X009286Y017426D01*
X009212Y017246D01*
X009212Y017051D01*
X009286Y016871D01*
X009424Y016733D01*
X009604Y016659D01*
X010359Y016659D01*
X010539Y016733D01*
X010677Y016871D01*
X010752Y017051D01*
X010752Y017246D01*
X010677Y017426D01*
X010539Y017564D01*
X010539Y017733D02*
X010359Y017659D01*
X009604Y017659D01*
X009424Y017733D01*
X009286Y017871D01*
X009275Y017899D01*
X006919Y017899D01*
X006493Y017472D01*
X006493Y014576D01*
X006546Y014554D01*
X006696Y014404D01*
X006778Y014207D01*
X006778Y013994D01*
X006696Y013798D01*
X006546Y013647D01*
X006349Y013566D01*
X006136Y013566D01*
X005940Y013647D01*
X005789Y013798D01*
X005887Y013700D02*
X004598Y013700D01*
X004435Y013601D02*
X006051Y013601D01*
X006435Y013601D02*
X006929Y013601D01*
X006929Y013503D02*
X003841Y013503D01*
X003841Y013601D02*
X004051Y013601D01*
X003887Y013700D02*
X003841Y013700D01*
X003841Y013404D02*
X006929Y013404D01*
X006929Y013306D02*
X003841Y013306D01*
X003841Y013207D02*
X006929Y013207D01*
X006929Y013109D02*
X003841Y013109D01*
X003841Y013010D02*
X006929Y013010D01*
X006929Y012911D02*
X003841Y012911D01*
X003841Y012813D02*
X006929Y012813D01*
X006929Y012714D02*
X003841Y012714D01*
X003841Y012616D02*
X006929Y012616D01*
X006929Y012517D02*
X003841Y012517D01*
X003841Y012419D02*
X006929Y012419D01*
X006929Y012320D02*
X003841Y012320D01*
X003841Y012222D02*
X006929Y012222D01*
X006929Y012123D02*
X003841Y012123D01*
X003841Y012025D02*
X006929Y012025D01*
X006929Y011926D02*
X003841Y011926D01*
X003841Y011827D02*
X006929Y011827D01*
X006929Y011729D02*
X003841Y011729D01*
X003841Y011630D02*
X006929Y011630D01*
X006929Y011532D02*
X003841Y011532D01*
X003841Y011433D02*
X006929Y011433D01*
X006929Y011335D02*
X003841Y011335D01*
X003841Y011236D02*
X006929Y011236D01*
X006884Y011138D02*
X003841Y011138D01*
X003846Y011039D02*
X006786Y011039D01*
X006687Y010941D02*
X003944Y010941D01*
X004043Y010842D02*
X006588Y010842D01*
X006490Y010743D02*
X004142Y010743D01*
X004240Y010645D02*
X006391Y010645D01*
X006293Y010546D02*
X004339Y010546D01*
X004437Y010448D02*
X006194Y010448D01*
X007453Y009857D02*
X014995Y009857D01*
X015094Y009758D02*
X007531Y009758D01*
X007531Y009659D02*
X015192Y009659D01*
X015291Y009561D02*
X007531Y009561D01*
X007531Y009462D02*
X015390Y009462D01*
X015488Y009364D02*
X007472Y009364D01*
X006095Y008083D02*
X001101Y008083D01*
X001101Y008181D02*
X005997Y008181D01*
X005898Y008280D02*
X001101Y008280D01*
X001101Y008378D02*
X005800Y008378D01*
X005701Y008477D02*
X001101Y008477D01*
X001101Y008576D02*
X001806Y008576D01*
X001707Y008674D02*
X001101Y008674D01*
X001101Y008773D02*
X001609Y008773D01*
X001521Y008871D02*
X001101Y008871D01*
X001101Y008970D02*
X001521Y008970D01*
X001521Y009068D02*
X001101Y009068D01*
X001101Y009167D02*
X001521Y009167D01*
X001521Y009265D02*
X001101Y009265D01*
X001101Y009364D02*
X001544Y009364D01*
X001642Y009462D02*
X001101Y009462D01*
X001101Y009561D02*
X001741Y009561D01*
X001722Y009659D02*
X001101Y009659D01*
X001101Y009758D02*
X001623Y009758D01*
X001525Y009857D02*
X001101Y009857D01*
X001101Y009955D02*
X001521Y009955D01*
X001521Y010054D02*
X001101Y010054D01*
X001101Y010152D02*
X001521Y010152D01*
X001521Y010251D02*
X001101Y010251D01*
X001101Y010349D02*
X001529Y010349D01*
X001628Y010448D02*
X001101Y010448D01*
X001101Y010546D02*
X001726Y010546D01*
X001821Y010645D02*
X001101Y010645D01*
X001101Y010743D02*
X001723Y010743D01*
X001624Y010842D02*
X001101Y010842D01*
X001101Y010941D02*
X001581Y010941D01*
X001581Y011039D02*
X001101Y011039D01*
X001101Y011138D02*
X002051Y011138D01*
X002051Y011236D02*
X002151Y011236D01*
X002151Y011335D02*
X002051Y011335D01*
X002051Y011433D02*
X002151Y011433D01*
X002151Y011532D02*
X002051Y011532D01*
X001796Y011532D02*
X001101Y011532D01*
X001101Y011630D02*
X002341Y011630D01*
X002341Y011729D02*
X001101Y011729D01*
X001101Y011827D02*
X002341Y011827D01*
X002341Y011926D02*
X001101Y011926D01*
X001101Y012025D02*
X002341Y012025D01*
X002341Y012123D02*
X001101Y012123D01*
X001101Y012222D02*
X002341Y012222D01*
X002341Y012320D02*
X001101Y012320D01*
X001101Y012419D02*
X002341Y012419D01*
X002341Y012517D02*
X001101Y012517D01*
X001101Y012616D02*
X002341Y012616D01*
X002341Y012714D02*
X001101Y012714D01*
X001101Y012813D02*
X002341Y012813D01*
X002341Y012911D02*
X001101Y012911D01*
X001101Y013010D02*
X002341Y013010D01*
X002341Y013109D02*
X001101Y013109D01*
X001101Y013207D02*
X002341Y013207D01*
X002341Y013306D02*
X001101Y013306D01*
X001101Y013404D02*
X002341Y013404D01*
X002341Y013503D02*
X001101Y013503D01*
X001101Y013601D02*
X002341Y013601D01*
X002341Y013700D02*
X001101Y013700D01*
X001101Y013798D02*
X002341Y013798D01*
X002341Y013897D02*
X001101Y013897D01*
X001101Y013995D02*
X002341Y013995D01*
X002341Y014094D02*
X001101Y014094D01*
X001101Y014192D02*
X002341Y014192D01*
X002341Y014291D02*
X001101Y014291D01*
X001101Y014390D02*
X002341Y014390D01*
X002341Y014488D02*
X001101Y014488D01*
X001101Y014587D02*
X002341Y014587D01*
X002341Y014685D02*
X001101Y014685D01*
X001101Y014784D02*
X002341Y014784D01*
X002341Y014882D02*
X001101Y014882D01*
X001101Y014981D02*
X002341Y014981D01*
X002341Y015079D02*
X001101Y015079D01*
X001101Y015178D02*
X002341Y015178D01*
X002341Y015276D02*
X001101Y015276D01*
X001101Y015375D02*
X002341Y015375D01*
X002341Y015474D02*
X001101Y015474D01*
X001101Y015572D02*
X002341Y015572D01*
X002341Y015671D02*
X001101Y015671D01*
X001101Y015769D02*
X002341Y015769D01*
X002341Y015868D02*
X001101Y015868D01*
X001101Y015966D02*
X002341Y015966D01*
X002368Y016065D02*
X001101Y016065D01*
X001101Y016163D02*
X002452Y016163D01*
X002550Y016262D02*
X001101Y016262D01*
X001101Y016360D02*
X002649Y016360D01*
X002747Y016459D02*
X001101Y016459D01*
X001101Y016558D02*
X002846Y016558D01*
X002945Y016656D02*
X002448Y016656D01*
X002599Y016755D02*
X003043Y016755D01*
X003142Y016853D02*
X002697Y016853D01*
X002740Y016952D02*
X003225Y016952D01*
X003208Y017050D02*
X002781Y017050D01*
X002789Y017149D02*
X003208Y017149D01*
X003224Y017247D02*
X002789Y017247D01*
X002770Y017346D02*
X003144Y017346D01*
X003046Y017444D02*
X002729Y017444D01*
X002671Y017543D02*
X002947Y017543D01*
X002849Y017641D02*
X002572Y017641D01*
X002584Y017740D02*
X002750Y017740D01*
X001845Y017641D02*
X001101Y017641D01*
X001101Y017543D02*
X001747Y017543D01*
X001689Y017444D02*
X001101Y017444D01*
X001101Y017346D02*
X001648Y017346D01*
X001629Y017247D02*
X001101Y017247D01*
X001101Y017149D02*
X001629Y017149D01*
X001637Y017050D02*
X001101Y017050D01*
X001101Y016952D02*
X001677Y016952D01*
X001720Y016853D02*
X001101Y016853D01*
X001101Y016755D02*
X001819Y016755D01*
X001970Y016656D02*
X001101Y016656D01*
X001101Y017740D02*
X001833Y017740D01*
X001735Y017839D02*
X001101Y017839D01*
X001101Y017937D02*
X001684Y017937D01*
X001643Y018036D02*
X001101Y018036D01*
X001101Y018134D02*
X001629Y018134D01*
X001629Y018233D02*
X001101Y018233D01*
X001101Y018331D02*
X001642Y018331D01*
X001682Y018430D02*
X001101Y018430D01*
X001101Y018528D02*
X001732Y018528D01*
X001831Y018627D02*
X001101Y018627D01*
X001101Y018725D02*
X001848Y018725D01*
X001749Y018824D02*
X001101Y018824D01*
X001101Y018923D02*
X001690Y018923D01*
X001649Y019021D02*
X001101Y019021D01*
X001101Y019120D02*
X001629Y019120D01*
X001629Y019218D02*
X001101Y019218D01*
X001101Y019317D02*
X001636Y019317D01*
X001676Y019415D02*
X001101Y019415D01*
X001101Y019514D02*
X001718Y019514D01*
X001816Y019612D02*
X001101Y019612D01*
X001101Y019711D02*
X001862Y019711D01*
X001764Y019809D02*
X001101Y019809D01*
X001101Y019908D02*
X001696Y019908D01*
X001655Y020007D02*
X001101Y020007D01*
X001101Y020105D02*
X001629Y020105D01*
X001629Y020204D02*
X001101Y020204D01*
X001101Y020302D02*
X001630Y020302D01*
X001670Y020401D02*
X001101Y020401D01*
X001101Y020499D02*
X001711Y020499D01*
X001802Y020598D02*
X001101Y020598D01*
X001101Y020696D02*
X001877Y020696D01*
X001778Y020795D02*
X001101Y020795D01*
X001101Y020893D02*
X001702Y020893D01*
X001661Y020992D02*
X001101Y020992D01*
X001101Y021091D02*
X001629Y021091D01*
X001629Y021189D02*
X001101Y021189D01*
X001101Y021288D02*
X001629Y021288D01*
X001664Y021386D02*
X001101Y021386D01*
X001101Y021485D02*
X001705Y021485D01*
X001787Y021583D02*
X001101Y021583D01*
X001101Y021682D02*
X001893Y021682D01*
X001793Y021780D02*
X001101Y021780D01*
X001101Y021879D02*
X001708Y021879D01*
X001667Y021977D02*
X001101Y021977D01*
X001101Y022076D02*
X001629Y022076D01*
X001629Y022174D02*
X001101Y022174D01*
X001101Y022273D02*
X001629Y022273D01*
X001658Y022372D02*
X001101Y022372D01*
X001101Y022470D02*
X001699Y022470D01*
X001772Y022569D02*
X001101Y022569D01*
X001101Y022667D02*
X001871Y022667D01*
X002200Y022963D02*
X001101Y022963D01*
X001101Y023061D02*
X002102Y023061D01*
X002299Y022864D02*
X001101Y022864D01*
X001101Y022766D02*
X002397Y022766D01*
X001810Y023160D02*
X001101Y023160D01*
X001101Y023258D02*
X001711Y023258D01*
X001709Y023357D02*
X001101Y023357D01*
X001101Y023456D02*
X001709Y023456D01*
X001709Y023554D02*
X001101Y023554D01*
X001101Y023653D02*
X001709Y023653D01*
X001709Y023751D02*
X001101Y023751D01*
X001101Y023850D02*
X001709Y023850D01*
X001709Y023948D02*
X001101Y023948D01*
X001101Y024047D02*
X001709Y024047D01*
X001709Y024145D02*
X001101Y024145D01*
X001101Y024244D02*
X001715Y024244D01*
X001617Y024342D02*
X001101Y024342D01*
X001101Y024441D02*
X001547Y024441D01*
X001529Y024540D02*
X001101Y024540D01*
X001101Y024638D02*
X001529Y024638D01*
X001529Y024737D02*
X001101Y024737D01*
X001101Y024835D02*
X001529Y024835D01*
X001529Y024934D02*
X001101Y024934D01*
X001101Y025032D02*
X001529Y025032D01*
X001529Y025131D02*
X001101Y025131D01*
X001101Y025229D02*
X001529Y025229D01*
X001558Y025328D02*
X001101Y025328D01*
X001101Y025426D02*
X001644Y025426D01*
X001741Y025525D02*
X001101Y025525D01*
X001101Y025624D02*
X001709Y025624D01*
X001709Y025722D02*
X001101Y025722D01*
X001101Y025821D02*
X001709Y025821D01*
X001744Y025919D02*
X001101Y025919D01*
X001101Y026018D02*
X001785Y026018D01*
X001867Y026116D02*
X001101Y026116D01*
X001101Y026215D02*
X001973Y026215D01*
X001961Y026313D02*
X001101Y026313D01*
X001101Y026412D02*
X001868Y026412D01*
X001811Y026510D02*
X001101Y026510D01*
X001101Y026609D02*
X001779Y026609D01*
X001776Y026806D02*
X001101Y026806D01*
X001101Y026707D02*
X002239Y026707D01*
X002239Y026806D02*
X002339Y026806D01*
X002339Y026707D02*
X006149Y026707D01*
X006149Y026609D02*
X002798Y026609D01*
X002767Y026510D02*
X006149Y026510D01*
X006149Y026412D02*
X002709Y026412D01*
X002617Y026313D02*
X006149Y026313D01*
X006149Y026215D02*
X002604Y026215D01*
X002710Y026116D02*
X006149Y026116D01*
X006149Y026018D02*
X002792Y026018D01*
X002833Y025919D02*
X006149Y025919D01*
X006149Y025821D02*
X002869Y025821D01*
X002869Y025722D02*
X006149Y025722D01*
X006149Y025624D02*
X003392Y025624D01*
X003535Y025525D02*
X006149Y025525D01*
X006149Y025426D02*
X003632Y025426D01*
X003672Y025328D02*
X006149Y025328D01*
X006149Y025229D02*
X003713Y025229D01*
X003719Y025131D02*
X006149Y025131D01*
X006149Y025032D02*
X003719Y025032D01*
X003697Y024934D02*
X006149Y024934D01*
X006149Y024835D02*
X003656Y024835D01*
X003595Y024737D02*
X006149Y024737D01*
X006149Y024638D02*
X003496Y024638D01*
X003389Y024540D02*
X006149Y024540D01*
X006149Y024441D02*
X003389Y024441D01*
X003389Y024342D02*
X006149Y024342D01*
X006149Y024244D02*
X003389Y024244D01*
X003389Y024145D02*
X006149Y024145D01*
X006149Y024047D02*
X003389Y024047D01*
X003389Y023948D02*
X006149Y023948D01*
X006149Y023850D02*
X003389Y023850D01*
X003389Y023751D02*
X006149Y023751D01*
X006149Y023653D02*
X003389Y023653D01*
X003389Y023554D02*
X006149Y023554D01*
X006149Y023456D02*
X003389Y023456D01*
X003389Y023357D02*
X006149Y023357D01*
X006149Y023258D02*
X003389Y023258D01*
X003389Y023160D02*
X006149Y023160D01*
X006149Y023061D02*
X003389Y023061D01*
X003389Y022963D02*
X006149Y022963D01*
X006149Y022864D02*
X003389Y022864D01*
X003389Y022766D02*
X006149Y022766D01*
X006149Y022667D02*
X003389Y022667D01*
X003389Y022569D02*
X006149Y022569D01*
X006149Y022470D02*
X003389Y022470D01*
X003389Y022372D02*
X006149Y022372D01*
X006149Y022273D02*
X003389Y022273D01*
X003389Y022174D02*
X006149Y022174D01*
X006149Y022076D02*
X004509Y022076D01*
X004561Y022054D02*
X004364Y022136D01*
X004151Y022136D01*
X003955Y022054D01*
X003804Y021904D01*
X003723Y021707D01*
X003723Y021494D01*
X003745Y021441D01*
X003510Y021206D01*
X003472Y021115D01*
X003472Y021015D01*
X003472Y019317D01*
X003510Y019225D01*
X003580Y019155D01*
X004944Y017791D01*
X004944Y017531D01*
X004925Y017541D01*
X004854Y017564D01*
X004780Y017576D01*
X004762Y017576D01*
X004762Y017120D01*
X004724Y017120D01*
X004724Y017576D01*
X004705Y017576D01*
X004631Y017564D01*
X004560Y017541D01*
X004494Y017507D01*
X004453Y017477D01*
X004453Y017678D01*
X004453Y017778D01*
X004415Y017869D01*
X004427Y017839D02*
X004896Y017839D01*
X004944Y017740D02*
X004453Y017740D01*
X004453Y017641D02*
X004944Y017641D01*
X004944Y017543D02*
X004919Y017543D01*
X004762Y017543D02*
X004724Y017543D01*
X004724Y017444D02*
X004762Y017444D01*
X004762Y017346D02*
X004724Y017346D01*
X004724Y017247D02*
X004762Y017247D01*
X004762Y017149D02*
X004724Y017149D01*
X004724Y017082D02*
X004762Y017082D01*
X004762Y016626D01*
X004780Y016626D01*
X004854Y016637D01*
X004925Y016661D01*
X004944Y016670D01*
X004944Y015155D01*
X004402Y014614D01*
X004349Y014636D01*
X004136Y014636D01*
X003940Y014554D01*
X003841Y014455D01*
X003841Y015719D01*
X004344Y016222D01*
X004415Y016293D01*
X004453Y016384D01*
X004453Y016724D01*
X004494Y016695D01*
X004560Y016661D01*
X004631Y016637D01*
X004705Y016626D01*
X004724Y016626D01*
X004724Y017082D01*
X004724Y017050D02*
X004762Y017050D01*
X004762Y016952D02*
X004724Y016952D01*
X004724Y016853D02*
X004762Y016853D01*
X004762Y016755D02*
X004724Y016755D01*
X004724Y016656D02*
X004762Y016656D01*
X004911Y016656D02*
X004944Y016656D01*
X004944Y016558D02*
X004453Y016558D01*
X004453Y016656D02*
X004574Y016656D01*
X004453Y016459D02*
X004944Y016459D01*
X004944Y016360D02*
X004443Y016360D01*
X004384Y016262D02*
X004944Y016262D01*
X004944Y016163D02*
X004285Y016163D01*
X004187Y016065D02*
X004944Y016065D01*
X004944Y015966D02*
X004088Y015966D01*
X003990Y015868D02*
X004944Y015868D01*
X004944Y015769D02*
X003891Y015769D01*
X003841Y015671D02*
X004944Y015671D01*
X004944Y015572D02*
X003841Y015572D01*
X003841Y015474D02*
X004944Y015474D01*
X004944Y015375D02*
X003841Y015375D01*
X003841Y015276D02*
X004944Y015276D01*
X004944Y015178D02*
X003841Y015178D01*
X003841Y015079D02*
X004868Y015079D01*
X004769Y014981D02*
X003841Y014981D01*
X003841Y014882D02*
X004671Y014882D01*
X004572Y014784D02*
X003841Y014784D01*
X003841Y014685D02*
X004474Y014685D01*
X004018Y014587D02*
X003841Y014587D01*
X003841Y014488D02*
X003874Y014488D01*
X006493Y014587D02*
X006929Y014587D01*
X006929Y014685D02*
X006493Y014685D01*
X006493Y014784D02*
X006929Y014784D01*
X006929Y014882D02*
X006493Y014882D01*
X006493Y014981D02*
X006929Y014981D01*
X006929Y015079D02*
X006493Y015079D01*
X006493Y015178D02*
X006929Y015178D01*
X006929Y015276D02*
X006493Y015276D01*
X006493Y015375D02*
X006929Y015375D01*
X006929Y015474D02*
X006493Y015474D01*
X006493Y015572D02*
X006929Y015572D01*
X006929Y015671D02*
X006493Y015671D01*
X006493Y015769D02*
X006929Y015769D01*
X006929Y015868D02*
X006493Y015868D01*
X006493Y015966D02*
X006929Y015966D01*
X006929Y016065D02*
X006493Y016065D01*
X006493Y016163D02*
X006796Y016163D01*
X006697Y016262D02*
X006493Y016262D01*
X006493Y016360D02*
X006651Y016360D01*
X006610Y016459D02*
X006493Y016459D01*
X006493Y016558D02*
X006599Y016558D01*
X006599Y016656D02*
X006493Y016656D01*
X006493Y016755D02*
X006615Y016755D01*
X006656Y016853D02*
X006493Y016853D01*
X006493Y016952D02*
X006709Y016952D01*
X006808Y017050D02*
X006493Y017050D01*
X006493Y017149D02*
X006986Y017149D01*
X007371Y017149D02*
X009212Y017149D01*
X009212Y017247D02*
X006493Y017247D01*
X006493Y017346D02*
X009253Y017346D01*
X009304Y017444D02*
X006493Y017444D01*
X006563Y017543D02*
X009403Y017543D01*
X009418Y017740D02*
X006761Y017740D01*
X006859Y017839D02*
X009319Y017839D01*
X009275Y018399D02*
X006865Y018399D01*
X006766Y018399D01*
X006674Y018361D01*
X006243Y017929D01*
X004946Y019226D01*
X004995Y019201D01*
X005066Y019177D01*
X005140Y019166D01*
X005159Y019166D01*
X005159Y019622D01*
X005197Y019622D01*
X005197Y019660D01*
X005653Y019660D01*
X005653Y019678D01*
X005641Y019752D01*
X005618Y019823D01*
X005584Y019890D01*
X005540Y019950D01*
X005487Y020003D01*
X005427Y020047D01*
X005360Y020081D01*
X005289Y020104D01*
X005215Y020116D01*
X005197Y020116D01*
X005197Y019660D01*
X005159Y019660D01*
X005159Y020116D01*
X005140Y020116D01*
X005066Y020104D01*
X004995Y020081D01*
X004929Y020047D01*
X004868Y020003D01*
X004815Y019950D01*
X004771Y019890D01*
X004738Y019823D01*
X004714Y019752D01*
X004713Y019741D01*
X004713Y019747D01*
X004631Y019944D01*
X004481Y020094D01*
X004284Y020176D01*
X004071Y020176D01*
X003972Y020135D01*
X003972Y020961D01*
X004098Y021088D01*
X004151Y021066D01*
X004364Y021066D01*
X004561Y021147D01*
X004711Y021298D01*
X004793Y021494D01*
X004793Y021501D01*
X004794Y021490D01*
X004818Y021418D01*
X004851Y021352D01*
X004895Y021291D01*
X004948Y021238D01*
X005009Y021195D01*
X005075Y021161D01*
X005146Y021137D01*
X005220Y021126D01*
X005239Y021126D01*
X005239Y021582D01*
X005277Y021582D01*
X005277Y021620D01*
X005733Y021620D01*
X005733Y021638D01*
X005721Y021712D01*
X005698Y021783D01*
X005664Y021850D01*
X005620Y021910D01*
X005567Y021963D01*
X005507Y022007D01*
X005440Y022041D01*
X005369Y022064D01*
X005295Y022076D01*
X005277Y022076D01*
X005277Y021620D01*
X005239Y021620D01*
X005239Y022076D01*
X005220Y022076D01*
X005146Y022064D01*
X005075Y022041D01*
X005009Y022007D01*
X004948Y021963D01*
X004895Y021910D01*
X004851Y021850D01*
X004818Y021783D01*
X004794Y021712D01*
X004793Y021701D01*
X004793Y021707D01*
X004711Y021904D01*
X004561Y022054D01*
X004638Y021977D02*
X004968Y021977D01*
X004873Y021879D02*
X004722Y021879D01*
X004762Y021780D02*
X004817Y021780D01*
X004796Y021485D02*
X004789Y021485D01*
X004748Y021386D02*
X004834Y021386D01*
X004899Y021288D02*
X004701Y021288D01*
X004603Y021189D02*
X005019Y021189D01*
X005239Y021189D02*
X005277Y021189D01*
X005277Y021126D02*
X005295Y021126D01*
X005369Y021137D01*
X005440Y021161D01*
X005507Y021195D01*
X005567Y021238D01*
X005620Y021291D01*
X005664Y021352D01*
X005698Y021418D01*
X005721Y021490D01*
X005733Y021563D01*
X005733Y021582D01*
X005277Y021582D01*
X005277Y021126D01*
X005277Y021288D02*
X005239Y021288D01*
X005239Y021386D02*
X005277Y021386D01*
X005277Y021485D02*
X005239Y021485D01*
X005277Y021583D02*
X006149Y021583D01*
X006149Y021485D02*
X005719Y021485D01*
X005681Y021386D02*
X006149Y021386D01*
X006149Y021288D02*
X005616Y021288D01*
X005496Y021189D02*
X006149Y021189D01*
X006149Y021091D02*
X004424Y021091D01*
X004002Y020992D02*
X006149Y020992D01*
X006149Y020893D02*
X003972Y020893D01*
X003972Y020795D02*
X006149Y020795D01*
X006149Y020696D02*
X003972Y020696D01*
X003972Y020598D02*
X006165Y020598D01*
X006232Y020499D02*
X003972Y020499D01*
X003972Y020401D02*
X006331Y020401D01*
X006429Y020302D02*
X003972Y020302D01*
X003972Y020204D02*
X006528Y020204D01*
X006626Y020105D02*
X005283Y020105D01*
X005197Y020105D02*
X005159Y020105D01*
X005073Y020105D02*
X004455Y020105D01*
X004569Y020007D02*
X004873Y020007D01*
X004785Y019908D02*
X004646Y019908D01*
X004687Y019809D02*
X004733Y019809D01*
X005159Y019809D02*
X005197Y019809D01*
X005197Y019711D02*
X005159Y019711D01*
X005197Y019622D02*
X005653Y019622D01*
X005653Y019603D01*
X005641Y019530D01*
X005618Y019458D01*
X005584Y019392D01*
X005540Y019331D01*
X005487Y019278D01*
X005427Y019235D01*
X005360Y019201D01*
X005289Y019177D01*
X005215Y019166D01*
X005197Y019166D01*
X005197Y019622D01*
X005197Y019612D02*
X005159Y019612D01*
X005159Y019514D02*
X005197Y019514D01*
X005197Y019415D02*
X005159Y019415D01*
X005159Y019317D02*
X005197Y019317D01*
X005197Y019218D02*
X005159Y019218D01*
X005052Y019120D02*
X009951Y019120D01*
X009952Y019021D02*
X010012Y019021D01*
X010012Y018923D02*
X009952Y018923D01*
X009952Y018824D02*
X010012Y018824D01*
X010012Y018725D02*
X009952Y018725D01*
X009626Y018725D02*
X005446Y018725D01*
X005348Y018824D02*
X009418Y018824D01*
X009335Y018923D02*
X005249Y018923D01*
X005151Y019021D02*
X009291Y019021D01*
X009277Y019218D02*
X005395Y019218D01*
X005525Y019317D02*
X009305Y019317D01*
X009286Y019873D02*
X007566Y019873D01*
X007382Y020057D01*
X007507Y020109D01*
X007670Y020272D01*
X007759Y020485D01*
X007759Y020716D01*
X007670Y020929D01*
X007507Y021092D01*
X007389Y021142D01*
X007389Y024577D01*
X007467Y024609D01*
X007630Y024772D01*
X007719Y024985D01*
X007719Y025216D01*
X007686Y025295D01*
X008783Y026391D01*
X008821Y026483D01*
X008821Y026583D01*
X008821Y028537D01*
X008899Y028569D01*
X009062Y028732D01*
X009104Y028832D01*
X009126Y028788D01*
X009174Y028722D01*
X009232Y028664D01*
X009298Y028616D01*
X009371Y028579D01*
X009449Y028554D01*
X009521Y028542D01*
X009521Y029011D01*
X009621Y029011D01*
X009621Y028542D01*
X009693Y028554D01*
X009770Y028579D01*
X009821Y028605D01*
X009821Y027443D01*
X009160Y026783D01*
X009090Y026712D01*
X009052Y026620D01*
X009052Y021199D01*
X009052Y021099D01*
X009090Y021007D01*
X009160Y020937D01*
X009252Y020899D01*
X009275Y020899D01*
X009286Y020871D01*
X009424Y020733D01*
X009604Y020659D01*
X010359Y020659D01*
X010539Y020733D01*
X010677Y020871D01*
X010752Y021051D01*
X010752Y021159D01*
X012377Y019533D01*
X012385Y019525D01*
X012286Y019426D01*
X012275Y019399D01*
X012252Y019399D01*
X011765Y019399D01*
X010803Y020361D01*
X010712Y020399D01*
X010689Y020399D01*
X010677Y020426D01*
X010539Y020564D01*
X010359Y020639D01*
X009604Y020639D01*
X009424Y020564D01*
X009286Y020426D01*
X009212Y020246D01*
X009212Y020051D01*
X009286Y019873D01*
X009271Y019908D02*
X007531Y019908D01*
X007432Y020007D02*
X009230Y020007D01*
X009212Y020105D02*
X007498Y020105D01*
X007602Y020204D02*
X009212Y020204D01*
X009235Y020302D02*
X007683Y020302D01*
X007724Y020401D02*
X009276Y020401D01*
X009359Y020499D02*
X007759Y020499D01*
X007759Y020598D02*
X009505Y020598D01*
X009514Y020696D02*
X007759Y020696D01*
X007726Y020795D02*
X009363Y020795D01*
X009277Y020893D02*
X007685Y020893D01*
X007608Y020992D02*
X009105Y020992D01*
X009055Y021091D02*
X007509Y021091D01*
X007389Y021189D02*
X009052Y021189D01*
X009052Y021288D02*
X007389Y021288D01*
X007389Y021386D02*
X009052Y021386D01*
X009052Y021485D02*
X007389Y021485D01*
X007389Y021583D02*
X009052Y021583D01*
X009052Y021682D02*
X007389Y021682D01*
X007389Y021780D02*
X009052Y021780D01*
X009052Y021879D02*
X007389Y021879D01*
X007389Y021977D02*
X009052Y021977D01*
X009052Y022076D02*
X007389Y022076D01*
X007389Y022174D02*
X009052Y022174D01*
X009052Y022273D02*
X007389Y022273D01*
X007389Y022372D02*
X009052Y022372D01*
X009052Y022470D02*
X007389Y022470D01*
X007389Y022569D02*
X009052Y022569D01*
X009052Y022667D02*
X007389Y022667D01*
X007389Y022766D02*
X009052Y022766D01*
X009052Y022864D02*
X007389Y022864D01*
X007389Y022963D02*
X009052Y022963D01*
X009052Y023061D02*
X007389Y023061D01*
X007389Y023160D02*
X009052Y023160D01*
X009052Y023258D02*
X007389Y023258D01*
X007389Y023357D02*
X009052Y023357D01*
X009052Y023456D02*
X007389Y023456D01*
X007389Y023554D02*
X009052Y023554D01*
X009052Y023653D02*
X007389Y023653D01*
X007389Y023751D02*
X009052Y023751D01*
X009052Y023850D02*
X007389Y023850D01*
X007389Y023948D02*
X009052Y023948D01*
X009052Y024047D02*
X007389Y024047D01*
X007389Y024145D02*
X009052Y024145D01*
X009052Y024244D02*
X007389Y024244D01*
X007389Y024342D02*
X009052Y024342D01*
X009052Y024441D02*
X007389Y024441D01*
X007389Y024540D02*
X009052Y024540D01*
X009052Y024638D02*
X007496Y024638D01*
X007595Y024737D02*
X009052Y024737D01*
X009052Y024835D02*
X007656Y024835D01*
X007697Y024934D02*
X009052Y024934D01*
X009052Y025032D02*
X007719Y025032D01*
X007719Y025131D02*
X009052Y025131D01*
X009052Y025229D02*
X007713Y025229D01*
X007719Y025328D02*
X009052Y025328D01*
X009052Y025426D02*
X007818Y025426D01*
X007916Y025525D02*
X009052Y025525D01*
X009052Y025624D02*
X008015Y025624D01*
X008113Y025722D02*
X009052Y025722D01*
X009052Y025821D02*
X008212Y025821D01*
X008311Y025919D02*
X009052Y025919D01*
X009052Y026018D02*
X008409Y026018D01*
X008508Y026116D02*
X009052Y026116D01*
X009052Y026215D02*
X008606Y026215D01*
X008705Y026313D02*
X009052Y026313D01*
X009052Y026412D02*
X008791Y026412D01*
X008821Y026510D02*
X009052Y026510D01*
X009052Y026609D02*
X008821Y026609D01*
X008821Y026707D02*
X009088Y026707D01*
X009160Y026783D02*
X009160Y026783D01*
X009184Y026806D02*
X008821Y026806D01*
X008821Y026905D02*
X009282Y026905D01*
X009381Y027003D02*
X008821Y027003D01*
X008821Y027102D02*
X009479Y027102D01*
X009578Y027200D02*
X008821Y027200D01*
X008821Y027299D02*
X009676Y027299D01*
X009775Y027397D02*
X008821Y027397D01*
X008821Y027496D02*
X009821Y027496D01*
X009821Y027594D02*
X008821Y027594D01*
X008821Y027693D02*
X009821Y027693D01*
X009821Y027791D02*
X008821Y027791D01*
X008821Y027890D02*
X009821Y027890D01*
X009821Y027989D02*
X008821Y027989D01*
X008821Y028087D02*
X009821Y028087D01*
X009821Y028186D02*
X008821Y028186D01*
X008821Y028284D02*
X009821Y028284D01*
X009821Y028383D02*
X008821Y028383D01*
X008821Y028481D02*
X009821Y028481D01*
X009821Y028580D02*
X009772Y028580D01*
X009621Y028580D02*
X009521Y028580D01*
X009521Y028678D02*
X009621Y028678D01*
X009621Y028777D02*
X009521Y028777D01*
X009521Y028875D02*
X009621Y028875D01*
X009621Y028974D02*
X009521Y028974D01*
X009521Y029171D02*
X009621Y029171D01*
X009621Y029270D02*
X009521Y029270D01*
X009521Y029368D02*
X009621Y029368D01*
X009621Y029467D02*
X009521Y029467D01*
X009521Y029565D02*
X009621Y029565D01*
X009701Y029565D02*
X010004Y029565D01*
X010102Y029664D02*
X002665Y029664D01*
X002608Y029762D02*
X010201Y029762D01*
X009905Y029467D02*
X009897Y029467D01*
X009441Y029565D02*
X008868Y029565D01*
X008985Y029467D02*
X009245Y029467D01*
X009151Y029368D02*
X009071Y029368D01*
X009081Y028777D02*
X009134Y028777D01*
X009218Y028678D02*
X009009Y028678D01*
X008910Y028580D02*
X009369Y028580D01*
X008321Y028481D02*
X006444Y028481D01*
X006441Y028580D02*
X006541Y028580D01*
X006632Y028580D02*
X008232Y028580D01*
X008133Y028678D02*
X006822Y028678D01*
X006913Y028777D02*
X008061Y028777D01*
X008020Y028875D02*
X006970Y028875D01*
X007000Y028974D02*
X007991Y028974D01*
X007991Y029073D02*
X006541Y029073D01*
X006541Y029171D02*
X006441Y029171D01*
X006441Y029270D02*
X006541Y029270D01*
X006541Y029368D02*
X006441Y029368D01*
X006441Y029467D02*
X006541Y029467D01*
X006541Y029565D02*
X006441Y029565D01*
X006299Y029565D02*
X005826Y029565D01*
X005925Y029467D02*
X006141Y029467D01*
X006057Y029368D02*
X005999Y029368D01*
X006441Y028974D02*
X006541Y028974D01*
X006541Y028875D02*
X006441Y028875D01*
X006441Y028777D02*
X006541Y028777D01*
X006541Y028678D02*
X006441Y028678D01*
X006350Y028580D02*
X006345Y028580D01*
X006542Y028383D02*
X008321Y028383D01*
X008321Y028284D02*
X006623Y028284D01*
X006649Y028186D02*
X008321Y028186D01*
X008321Y028087D02*
X006649Y028087D01*
X006649Y027989D02*
X008321Y027989D01*
X008321Y027890D02*
X006649Y027890D01*
X006649Y027791D02*
X008321Y027791D01*
X008321Y027693D02*
X006649Y027693D01*
X006649Y027594D02*
X008321Y027594D01*
X008321Y027496D02*
X006649Y027496D01*
X006649Y027397D02*
X008321Y027397D01*
X008321Y027299D02*
X006649Y027299D01*
X006649Y027200D02*
X008321Y027200D01*
X008321Y027102D02*
X006649Y027102D01*
X006649Y027003D02*
X008321Y027003D01*
X008321Y026905D02*
X006649Y026905D01*
X006649Y026806D02*
X008321Y026806D01*
X008321Y026707D02*
X006649Y026707D01*
X006649Y026609D02*
X008293Y026609D01*
X008195Y026510D02*
X006649Y026510D01*
X006649Y026412D02*
X008096Y026412D01*
X007998Y026313D02*
X006649Y026313D01*
X006649Y026215D02*
X007899Y026215D01*
X007801Y026116D02*
X006649Y026116D01*
X006649Y026018D02*
X007702Y026018D01*
X007604Y025919D02*
X006649Y025919D01*
X006649Y025821D02*
X007505Y025821D01*
X007407Y025722D02*
X006649Y025722D01*
X006649Y025624D02*
X006885Y025624D01*
X006743Y025525D02*
X006649Y025525D01*
X006149Y026806D02*
X002801Y026806D01*
X002775Y026905D02*
X006149Y026905D01*
X006149Y027003D02*
X002724Y027003D01*
X002640Y027102D02*
X006149Y027102D01*
X006149Y027200D02*
X002487Y027200D01*
X002339Y027200D02*
X002239Y027200D01*
X002239Y027102D02*
X002339Y027102D01*
X002339Y027003D02*
X002239Y027003D01*
X002239Y026905D02*
X002339Y026905D01*
X002091Y027200D02*
X001101Y027200D01*
X001101Y027102D02*
X001937Y027102D01*
X001853Y027003D02*
X001101Y027003D01*
X001101Y026905D02*
X001803Y026905D01*
X001101Y027299D02*
X006149Y027299D01*
X006149Y027397D02*
X001101Y027397D01*
X001101Y027496D02*
X006149Y027496D01*
X006149Y027594D02*
X001101Y027594D01*
X001101Y027693D02*
X006149Y027693D01*
X006149Y027791D02*
X001101Y027791D01*
X001101Y027890D02*
X006149Y027890D01*
X006149Y027989D02*
X001101Y027989D01*
X001101Y028087D02*
X006131Y028087D01*
X006032Y028186D02*
X001101Y028186D01*
X001101Y028284D02*
X001454Y028284D01*
X001251Y028383D02*
X001101Y028383D01*
X001101Y028481D02*
X001134Y028481D01*
X002148Y028284D02*
X005934Y028284D01*
X005835Y028383D02*
X002350Y028383D01*
X002468Y028481D02*
X005737Y028481D01*
X005185Y028580D02*
X004797Y028580D01*
X004909Y028678D02*
X005073Y028678D01*
X004185Y028580D02*
X002574Y028580D01*
X002631Y028678D02*
X004073Y028678D01*
X003989Y028777D02*
X002688Y028777D01*
X002738Y028875D02*
X003948Y028875D01*
X003911Y028974D02*
X002756Y028974D01*
X002773Y029073D02*
X003911Y029073D01*
X003911Y029171D02*
X002791Y029171D01*
X002784Y029270D02*
X003941Y029270D01*
X003982Y029368D02*
X002766Y029368D01*
X002749Y029467D02*
X004056Y029467D01*
X004155Y029565D02*
X002722Y029565D01*
X002539Y029861D02*
X024101Y029861D01*
X024101Y029959D02*
X002421Y029959D01*
X002304Y030058D02*
X024101Y030058D01*
X024101Y029762D02*
X015007Y029762D01*
X015105Y029664D02*
X024101Y029664D01*
X024101Y029565D02*
X015667Y029565D01*
X015769Y029467D02*
X024101Y029467D01*
X024101Y029368D02*
X015849Y029368D01*
X015890Y029270D02*
X024101Y029270D01*
X024101Y029171D02*
X015925Y029171D01*
X015925Y029073D02*
X024101Y029073D01*
X024101Y028974D02*
X015925Y028974D01*
X015892Y028875D02*
X024101Y028875D01*
X024101Y028777D02*
X015851Y028777D01*
X015773Y028678D02*
X024101Y028678D01*
X024101Y028580D02*
X015674Y028580D01*
X015016Y028580D02*
X014674Y028580D01*
X014773Y028678D02*
X014917Y028678D01*
X014016Y028580D02*
X013516Y028580D01*
X013395Y028580D02*
X013295Y028580D01*
X013295Y028678D02*
X013395Y028678D01*
X013395Y028777D02*
X013295Y028777D01*
X013295Y028875D02*
X013395Y028875D01*
X013395Y028974D02*
X013295Y028974D01*
X013295Y029073D02*
X011293Y029073D01*
X011194Y029171D02*
X012834Y029171D01*
X012863Y029270D02*
X011112Y029270D01*
X011391Y028974D02*
X012834Y028974D01*
X012861Y028875D02*
X011490Y028875D01*
X011588Y028777D02*
X012916Y028777D01*
X013002Y028678D02*
X011687Y028678D01*
X011785Y028580D02*
X013173Y028580D01*
X013688Y028678D02*
X013917Y028678D01*
X013839Y028777D02*
X013774Y028777D01*
X012672Y027693D02*
X024101Y027693D01*
X024101Y027791D02*
X012574Y027791D01*
X012475Y027890D02*
X024101Y027890D01*
X024101Y027989D02*
X012377Y027989D01*
X012278Y028087D02*
X024101Y028087D01*
X024101Y028186D02*
X012179Y028186D01*
X012081Y028284D02*
X024101Y028284D01*
X024101Y028383D02*
X011982Y028383D01*
X011884Y028481D02*
X024101Y028481D01*
X024101Y027594D02*
X012771Y027594D01*
X012869Y027496D02*
X024101Y027496D01*
X024101Y027397D02*
X012968Y027397D01*
X013066Y027299D02*
X024101Y027299D01*
X024101Y027200D02*
X013165Y027200D01*
X013263Y027102D02*
X024101Y027102D01*
X024101Y027003D02*
X013362Y027003D01*
X013461Y026905D02*
X024101Y026905D01*
X024101Y026806D02*
X013559Y026806D01*
X013658Y026707D02*
X024101Y026707D01*
X024101Y026609D02*
X013756Y026609D01*
X013855Y026510D02*
X024101Y026510D01*
X024101Y026412D02*
X013953Y026412D01*
X014052Y026313D02*
X024101Y026313D01*
X024101Y026215D02*
X014150Y026215D01*
X014249Y026116D02*
X024101Y026116D01*
X024101Y026018D02*
X014347Y026018D01*
X014446Y025919D02*
X024101Y025919D01*
X024101Y025821D02*
X014545Y025821D01*
X014643Y025722D02*
X024101Y025722D01*
X024101Y025624D02*
X014742Y025624D01*
X014840Y025525D02*
X024101Y025525D01*
X024101Y025426D02*
X014939Y025426D01*
X015037Y025328D02*
X024101Y025328D01*
X024101Y025229D02*
X015136Y025229D01*
X015234Y025131D02*
X024101Y025131D01*
X024101Y025032D02*
X015333Y025032D01*
X015431Y024934D02*
X024101Y024934D01*
X024101Y024835D02*
X015530Y024835D01*
X015629Y024737D02*
X024101Y024737D01*
X024101Y024638D02*
X015727Y024638D01*
X015826Y024540D02*
X024101Y024540D01*
X024101Y024441D02*
X015924Y024441D01*
X016023Y024342D02*
X024101Y024342D01*
X024101Y024244D02*
X016121Y024244D01*
X016220Y024145D02*
X024101Y024145D01*
X024101Y024047D02*
X016318Y024047D01*
X016417Y023948D02*
X024101Y023948D01*
X024101Y023850D02*
X016515Y023850D01*
X016614Y023751D02*
X024101Y023751D01*
X024101Y023653D02*
X016712Y023653D01*
X016811Y023554D02*
X024101Y023554D01*
X024101Y023456D02*
X016910Y023456D01*
X017008Y023357D02*
X024101Y023357D01*
X024101Y023258D02*
X017107Y023258D01*
X017205Y023160D02*
X024101Y023160D01*
X024101Y023061D02*
X017304Y023061D01*
X017402Y022963D02*
X024101Y022963D01*
X024101Y022864D02*
X017501Y022864D01*
X017599Y022766D02*
X024101Y022766D01*
X024101Y022667D02*
X017698Y022667D01*
X017796Y022569D02*
X024101Y022569D01*
X024101Y022470D02*
X017895Y022470D01*
X017994Y022372D02*
X024101Y022372D01*
X024101Y022273D02*
X018092Y022273D01*
X018191Y022174D02*
X024101Y022174D01*
X024101Y022076D02*
X018289Y022076D01*
X018388Y021977D02*
X024101Y021977D01*
X024101Y021879D02*
X018486Y021879D01*
X018585Y021780D02*
X024101Y021780D01*
X024101Y021682D02*
X018683Y021682D01*
X018782Y021583D02*
X024101Y021583D01*
X024040Y021485D02*
X018880Y021485D01*
X018979Y021386D02*
X023941Y021386D01*
X023842Y021288D02*
X019078Y021288D01*
X019176Y021189D02*
X023744Y021189D01*
X023645Y021091D02*
X019275Y021091D01*
X019373Y020992D02*
X023547Y020992D01*
X023448Y020893D02*
X019472Y020893D01*
X019570Y020795D02*
X023350Y020795D01*
X023251Y020696D02*
X019669Y020696D01*
X019767Y020598D02*
X023153Y020598D01*
X023054Y020499D02*
X019866Y020499D01*
X019964Y020401D02*
X022956Y020401D01*
X022857Y020302D02*
X020063Y020302D01*
X020161Y020204D02*
X022758Y020204D01*
X022660Y020105D02*
X020260Y020105D01*
X020359Y020007D02*
X022561Y020007D01*
X022463Y019908D02*
X020457Y019908D01*
X020532Y019809D02*
X022364Y019809D01*
X022266Y019711D02*
X020554Y019711D01*
X020554Y019612D02*
X022167Y019612D01*
X022069Y019514D02*
X020554Y019514D01*
X020554Y019415D02*
X021970Y019415D01*
X021872Y019317D02*
X020554Y019317D01*
X020554Y019218D02*
X021773Y019218D01*
X021674Y019120D02*
X020554Y019120D01*
X020554Y019021D02*
X021576Y019021D01*
X021477Y018923D02*
X020554Y018923D01*
X020554Y018824D02*
X021379Y018824D01*
X021280Y018725D02*
X020554Y018725D01*
X020554Y018627D02*
X021182Y018627D01*
X021083Y018528D02*
X020685Y018528D01*
X020784Y018430D02*
X020985Y018430D01*
X020886Y018331D02*
X020831Y018331D01*
X021100Y017839D02*
X021189Y017839D01*
X021230Y017740D02*
X021002Y017740D01*
X020903Y017641D02*
X021285Y017641D01*
X021384Y017543D02*
X020805Y017543D01*
X020706Y017444D02*
X021584Y017444D01*
X021843Y017444D02*
X024101Y017444D01*
X024101Y017543D02*
X022922Y017543D01*
X023057Y017641D02*
X024101Y017641D01*
X024101Y017740D02*
X023130Y017740D01*
X023171Y017839D02*
X024101Y017839D01*
X024101Y017937D02*
X023189Y017937D01*
X023184Y018036D02*
X024101Y018036D01*
X024101Y018134D02*
X023160Y018134D01*
X023110Y018233D02*
X024101Y018233D01*
X024101Y018331D02*
X023024Y018331D01*
X022835Y018430D02*
X024101Y018430D01*
X024101Y018528D02*
X021790Y018528D01*
X021889Y018627D02*
X024101Y018627D01*
X024101Y018725D02*
X021987Y018725D01*
X022086Y018824D02*
X024101Y018824D01*
X024101Y018923D02*
X022184Y018923D01*
X022283Y019021D02*
X024101Y019021D01*
X024101Y019120D02*
X022381Y019120D01*
X022480Y019218D02*
X024101Y019218D01*
X024101Y019317D02*
X022579Y019317D01*
X022677Y019415D02*
X024101Y019415D01*
X024101Y019514D02*
X022776Y019514D01*
X022874Y019612D02*
X024101Y019612D01*
X024101Y019711D02*
X022973Y019711D01*
X023071Y019809D02*
X024101Y019809D01*
X024101Y019908D02*
X023170Y019908D01*
X023268Y020007D02*
X024101Y020007D01*
X024101Y020105D02*
X023367Y020105D01*
X023465Y020204D02*
X024101Y020204D01*
X024101Y020302D02*
X023564Y020302D01*
X023662Y020401D02*
X024101Y020401D01*
X024101Y020499D02*
X023761Y020499D01*
X023860Y020598D02*
X024101Y020598D01*
X024101Y020696D02*
X023958Y020696D01*
X024057Y020795D02*
X024101Y020795D01*
X022733Y018430D02*
X022695Y018430D01*
X022695Y018331D02*
X022733Y018331D01*
X022733Y018233D02*
X022695Y018233D01*
X022695Y018134D02*
X022733Y018134D01*
X022733Y018036D02*
X022695Y018036D01*
X022695Y017937D02*
X022733Y017937D01*
X022733Y017839D02*
X022695Y017839D01*
X022695Y017740D02*
X022733Y017740D01*
X022733Y017641D02*
X022695Y017641D01*
X022695Y017543D02*
X022733Y017543D01*
X022505Y017543D02*
X022044Y017543D01*
X022142Y017641D02*
X022370Y017641D01*
X022298Y017740D02*
X022198Y017740D01*
X022238Y017839D02*
X022257Y017839D01*
X022268Y018134D02*
X022225Y018134D01*
X022184Y018233D02*
X022318Y018233D01*
X022404Y018331D02*
X022109Y018331D01*
X022001Y018430D02*
X022593Y018430D01*
X023800Y017346D02*
X020569Y017346D01*
X019824Y013995D02*
X019632Y013995D01*
X019632Y013897D02*
X019824Y013897D01*
X019824Y013798D02*
X019632Y013798D01*
X019632Y013700D02*
X019824Y013700D01*
X019824Y013601D02*
X019632Y013601D01*
X019632Y013503D02*
X019824Y013503D01*
X023422Y010349D02*
X023907Y010349D01*
X024051Y010349D02*
X024101Y010349D01*
X024101Y010251D02*
X024051Y010251D01*
X024051Y010152D02*
X024101Y010152D01*
X024101Y010054D02*
X024051Y010054D01*
X024051Y009955D02*
X024101Y009955D01*
X024101Y009857D02*
X024051Y009857D01*
X024051Y009758D02*
X024101Y009758D01*
X024101Y009659D02*
X024051Y009659D01*
X024051Y009561D02*
X023631Y009561D01*
X023631Y009659D02*
X023631Y009659D01*
X023631Y009758D02*
X023631Y009758D01*
X023631Y009857D02*
X023631Y009857D01*
X023631Y009955D02*
X023631Y009955D01*
X023619Y010054D02*
X023650Y010054D01*
X023691Y010152D02*
X023579Y010152D01*
X023520Y010251D02*
X023766Y010251D01*
X023631Y009462D02*
X023631Y009462D01*
X023631Y009364D02*
X023631Y009364D01*
X023631Y009265D02*
X023631Y009265D01*
X023627Y009167D02*
X023644Y009167D01*
X023682Y009068D02*
X023586Y009068D01*
X023539Y008970D02*
X023747Y008970D01*
X023869Y008871D02*
X023441Y008871D01*
X023493Y008773D02*
X024101Y008773D01*
X024101Y008871D02*
X024051Y008871D01*
X024051Y008970D02*
X024101Y008970D01*
X024101Y009068D02*
X024051Y009068D01*
X024051Y009167D02*
X024101Y009167D01*
X024101Y009265D02*
X024051Y009265D01*
X024051Y009364D02*
X024101Y009364D01*
X024101Y009462D02*
X024051Y009462D01*
X024101Y008674D02*
X023511Y008674D01*
X023511Y008576D02*
X024101Y008576D01*
X024101Y008477D02*
X023511Y008477D01*
X023511Y008378D02*
X024101Y008378D01*
X024101Y008280D02*
X023511Y008280D01*
X023511Y008181D02*
X024101Y008181D01*
X024101Y008083D02*
X023511Y008083D01*
X023511Y007984D02*
X024101Y007984D01*
X024101Y007886D02*
X023511Y007886D01*
X023511Y007787D02*
X024101Y007787D01*
X024101Y007689D02*
X023511Y007689D01*
X023511Y007590D02*
X024101Y007590D01*
X024101Y007492D02*
X023511Y007492D01*
X023511Y007393D02*
X024101Y007393D01*
X024101Y007294D02*
X023511Y007294D01*
X023511Y007196D02*
X024101Y007196D01*
X024101Y007097D02*
X023511Y007097D01*
X023511Y006999D02*
X024101Y006999D01*
X024101Y006900D02*
X023511Y006900D01*
X023511Y006802D02*
X024101Y006802D01*
X024101Y006703D02*
X023511Y006703D01*
X023511Y006605D02*
X024101Y006605D01*
X024101Y006506D02*
X023511Y006506D01*
X023511Y006408D02*
X024101Y006408D01*
X024101Y006309D02*
X023511Y006309D01*
X023511Y006210D02*
X024101Y006210D01*
X024101Y006112D02*
X023511Y006112D01*
X023511Y006013D02*
X024101Y006013D01*
X024101Y005915D02*
X023511Y005915D01*
X023511Y005816D02*
X024101Y005816D01*
X024101Y005718D02*
X023511Y005718D01*
X023511Y005619D02*
X024101Y005619D01*
X024101Y005521D02*
X023511Y005521D01*
X023511Y005422D02*
X024101Y005422D01*
X024101Y005324D02*
X023511Y005324D01*
X023511Y005225D02*
X024101Y005225D01*
X024101Y005126D02*
X023511Y005126D01*
X023511Y005028D02*
X024101Y005028D01*
X024101Y004929D02*
X023511Y004929D01*
X023511Y004831D02*
X024101Y004831D01*
X024101Y004732D02*
X023511Y004732D01*
X023511Y004634D02*
X024101Y004634D01*
X024101Y004535D02*
X023511Y004535D01*
X023511Y004437D02*
X024101Y004437D01*
X024101Y004338D02*
X023511Y004338D01*
X023511Y004240D02*
X024101Y004240D01*
X024101Y004141D02*
X023511Y004141D01*
X023511Y004043D02*
X024101Y004043D01*
X024101Y003944D02*
X023511Y003944D01*
X023511Y003845D02*
X024101Y003845D01*
X024101Y003747D02*
X023511Y003747D01*
X023511Y003648D02*
X024101Y003648D01*
X024101Y003550D02*
X023511Y003550D01*
X023511Y003451D02*
X024101Y003451D01*
X024101Y003353D02*
X023511Y003353D01*
X023511Y003254D02*
X024101Y003254D01*
X024101Y003156D02*
X023511Y003156D01*
X023511Y003057D02*
X024101Y003057D01*
X024101Y002959D02*
X023511Y002959D01*
X023511Y002860D02*
X024101Y002860D01*
X024101Y002761D02*
X023511Y002761D01*
X023491Y002663D02*
X024101Y002663D01*
X024101Y002564D02*
X023418Y002564D01*
X023319Y002466D02*
X024101Y002466D01*
X024101Y002367D02*
X023221Y002367D01*
X023159Y002269D02*
X024101Y002269D01*
X024101Y002170D02*
X023181Y002170D01*
X023181Y002072D02*
X024101Y002072D01*
X024101Y001973D02*
X023176Y001973D01*
X023135Y001875D02*
X024101Y001875D01*
X024101Y001776D02*
X023094Y001776D01*
X022998Y001677D02*
X024101Y001677D01*
X024101Y001579D02*
X022856Y001579D01*
X025101Y001579D02*
X025845Y001579D01*
X025772Y001609D02*
X025985Y001521D01*
X026216Y001521D01*
X026429Y001609D01*
X026592Y001772D01*
X026681Y001985D01*
X026681Y002216D01*
X026592Y002429D01*
X026429Y002592D01*
X026409Y002601D01*
X026429Y002609D01*
X026592Y002772D01*
X026681Y002985D01*
X026681Y003216D01*
X026592Y003429D01*
X026429Y003592D01*
X026330Y003634D01*
X026373Y003656D01*
X026440Y003704D01*
X026497Y003762D01*
X026546Y003828D01*
X026583Y003901D01*
X026608Y003979D01*
X026619Y004051D01*
X026151Y004051D01*
X026151Y004151D01*
X026619Y004151D01*
X026608Y004223D01*
X026583Y004300D01*
X026546Y004373D01*
X026497Y004440D01*
X026440Y004497D01*
X026373Y004546D01*
X026330Y004568D01*
X026429Y004609D01*
X026592Y004772D01*
X026681Y004985D01*
X026681Y005216D01*
X026648Y005295D01*
X026823Y005469D01*
X026861Y005561D01*
X026861Y005660D01*
X026861Y009861D01*
X027101Y010101D01*
X028101Y010101D01*
X028101Y010792D01*
X028109Y010772D01*
X028272Y010609D01*
X028485Y010521D01*
X028658Y010521D01*
X029231Y009948D01*
X029231Y007484D01*
X029185Y007438D01*
X029111Y007258D01*
X029111Y006503D01*
X029185Y006323D01*
X029323Y006185D01*
X029503Y006111D01*
X029698Y006111D01*
X029763Y006138D01*
X029763Y004517D01*
X029389Y004142D01*
X029351Y004051D01*
X029351Y004028D01*
X029323Y004016D01*
X029185Y003878D01*
X029111Y003698D01*
X029111Y002943D01*
X029185Y002763D01*
X029323Y002625D01*
X029503Y002551D01*
X029698Y002551D01*
X029878Y002625D01*
X030016Y002763D01*
X030091Y002943D01*
X030091Y003698D01*
X030016Y003878D01*
X029924Y003971D01*
X030225Y004272D01*
X030263Y004364D01*
X030263Y004463D01*
X030263Y006245D01*
X030323Y006185D01*
X030503Y006111D01*
X030698Y006111D01*
X030878Y006185D01*
X031016Y006323D01*
X031091Y006503D01*
X031091Y007258D01*
X031016Y007438D01*
X030878Y007576D01*
X030698Y007651D01*
X030503Y007651D01*
X030323Y007576D01*
X030263Y007516D01*
X030263Y011738D01*
X030225Y011830D01*
X030155Y011900D01*
X029148Y012907D01*
X029181Y012985D01*
X029181Y013216D01*
X029092Y013429D01*
X028929Y013592D01*
X028716Y013681D01*
X028485Y013681D01*
X028272Y013592D01*
X028109Y013429D01*
X028101Y013409D01*
X028101Y014247D01*
X028407Y014553D01*
X028485Y014521D01*
X028716Y014521D01*
X028929Y014609D01*
X029092Y014772D01*
X029181Y014985D01*
X029181Y015216D01*
X029092Y015429D01*
X028929Y015592D01*
X028716Y015681D01*
X028485Y015681D01*
X028272Y015592D01*
X028109Y015429D01*
X028101Y015409D01*
X028101Y029101D01*
X043441Y029101D01*
X043466Y028960D01*
X043639Y028661D01*
X043903Y028439D01*
X043903Y028439D01*
X044228Y028321D01*
X044351Y028321D01*
X044351Y028321D01*
X044401Y028321D01*
X044415Y028321D01*
X044451Y028321D01*
X044574Y028321D01*
X044898Y028439D01*
X044898Y028439D01*
X045101Y028609D01*
X045101Y002375D01*
X045063Y002440D01*
X045063Y002440D01*
X044798Y002663D01*
X044474Y002781D01*
X044351Y002781D01*
X044301Y002781D01*
X044300Y002781D01*
X044251Y002781D01*
X044251Y002781D01*
X044128Y002781D01*
X043803Y002663D01*
X043539Y002440D01*
X043366Y002141D01*
X043306Y001801D01*
X043306Y001801D01*
X043366Y001460D01*
X043539Y001161D01*
X043610Y001101D01*
X025101Y001101D01*
X025101Y008101D01*
X026361Y009361D01*
X026361Y007621D01*
X026216Y007681D01*
X025985Y007681D01*
X025772Y007592D01*
X025609Y007429D01*
X025521Y007216D01*
X025521Y006985D01*
X025609Y006772D01*
X025772Y006609D01*
X025792Y006601D01*
X025772Y006592D01*
X025609Y006429D01*
X025521Y006216D01*
X025521Y005985D01*
X025609Y005772D01*
X025772Y005609D01*
X025792Y005601D01*
X025772Y005592D01*
X025609Y005429D01*
X025521Y005216D01*
X025521Y004985D01*
X025609Y004772D01*
X025772Y004609D01*
X025872Y004568D01*
X025828Y004546D01*
X025762Y004497D01*
X025704Y004440D01*
X025656Y004373D01*
X025619Y004300D01*
X025594Y004223D01*
X025582Y004151D01*
X026051Y004151D01*
X026051Y004051D01*
X025582Y004051D01*
X025594Y003979D01*
X025619Y003901D01*
X025656Y003828D01*
X025704Y003762D01*
X025762Y003704D01*
X025828Y003656D01*
X025872Y003634D01*
X025772Y003592D01*
X025609Y003429D01*
X025521Y003216D01*
X025521Y002985D01*
X025609Y002772D01*
X025772Y002609D01*
X025792Y002601D01*
X025772Y002592D01*
X025609Y002429D01*
X025521Y002216D01*
X025521Y001985D01*
X025609Y001772D01*
X025772Y001609D01*
X025704Y001677D02*
X025101Y001677D01*
X025101Y001776D02*
X025608Y001776D01*
X025567Y001875D02*
X025101Y001875D01*
X025101Y001973D02*
X025526Y001973D01*
X025521Y002072D02*
X025101Y002072D01*
X025101Y002170D02*
X025521Y002170D01*
X025543Y002269D02*
X025101Y002269D01*
X025101Y002367D02*
X025583Y002367D01*
X025646Y002466D02*
X025101Y002466D01*
X025101Y002564D02*
X025744Y002564D01*
X025718Y002663D02*
X025101Y002663D01*
X025101Y002761D02*
X025620Y002761D01*
X025573Y002860D02*
X025101Y002860D01*
X025101Y002959D02*
X025532Y002959D01*
X025521Y003057D02*
X025101Y003057D01*
X025101Y003156D02*
X025521Y003156D01*
X025537Y003254D02*
X025101Y003254D01*
X025101Y003353D02*
X025577Y003353D01*
X025631Y003451D02*
X025101Y003451D01*
X025101Y003550D02*
X025730Y003550D01*
X025843Y003648D02*
X025101Y003648D01*
X025101Y003747D02*
X025719Y003747D01*
X025647Y003845D02*
X025101Y003845D01*
X025101Y003944D02*
X025605Y003944D01*
X025584Y004043D02*
X025101Y004043D01*
X025101Y004141D02*
X026051Y004141D01*
X026151Y004141D02*
X029388Y004141D01*
X029351Y004043D02*
X026618Y004043D01*
X026597Y003944D02*
X029251Y003944D01*
X029172Y003845D02*
X026554Y003845D01*
X026482Y003747D02*
X029131Y003747D01*
X029111Y003648D02*
X026358Y003648D01*
X026472Y003550D02*
X029111Y003550D01*
X029111Y003451D02*
X026570Y003451D01*
X026624Y003353D02*
X029111Y003353D01*
X029111Y003254D02*
X026665Y003254D01*
X026681Y003156D02*
X029111Y003156D01*
X029111Y003057D02*
X026681Y003057D01*
X026670Y002959D02*
X029111Y002959D01*
X029145Y002860D02*
X026629Y002860D01*
X026582Y002761D02*
X029187Y002761D01*
X029286Y002663D02*
X026483Y002663D01*
X026457Y002564D02*
X029471Y002564D01*
X029731Y002564D02*
X031471Y002564D01*
X031503Y002551D02*
X031698Y002551D01*
X031878Y002625D01*
X032016Y002763D01*
X032091Y002943D01*
X032091Y003698D01*
X032016Y003878D01*
X031878Y004016D01*
X031698Y004091D01*
X031503Y004091D01*
X031323Y004016D01*
X031185Y003878D01*
X031111Y003698D01*
X031111Y002943D01*
X031185Y002763D01*
X031323Y002625D01*
X031503Y002551D01*
X031731Y002564D02*
X035284Y002564D01*
X035382Y002466D02*
X026556Y002466D01*
X026618Y002367D02*
X043496Y002367D01*
X043539Y002440D02*
X043539Y002440D01*
X043539Y002440D01*
X043569Y002466D02*
X042319Y002466D01*
X042351Y002497D02*
X042280Y002427D01*
X042188Y002389D01*
X035613Y002389D01*
X035513Y002389D01*
X035421Y002427D01*
X034260Y003588D01*
X034207Y003566D01*
X033994Y003566D01*
X033798Y003647D01*
X033647Y003798D01*
X033566Y003994D01*
X033566Y004207D01*
X033647Y004404D01*
X033798Y004554D01*
X033994Y004636D01*
X034207Y004636D01*
X034404Y004554D01*
X034554Y004404D01*
X034601Y004292D01*
X034647Y004404D01*
X034731Y004487D01*
X034731Y007734D01*
X034787Y007870D01*
X034891Y007974D01*
X035231Y008314D01*
X035231Y008353D01*
X035135Y008449D01*
X035051Y008651D01*
X035051Y009550D01*
X035102Y009673D01*
X033696Y009673D01*
X033181Y009158D01*
X033181Y008985D01*
X033092Y008772D01*
X032929Y008609D01*
X032716Y008521D01*
X032485Y008521D01*
X032272Y008609D01*
X032109Y008772D01*
X032021Y008985D01*
X032021Y009216D01*
X032109Y009429D01*
X032272Y009592D01*
X032485Y009681D01*
X032658Y009681D01*
X033229Y010252D01*
X033333Y010357D01*
X033469Y010413D01*
X036674Y010413D01*
X039289Y010413D01*
X039289Y016732D01*
X039345Y016868D01*
X039449Y016972D01*
X039788Y017311D01*
X034661Y022438D01*
X034592Y022272D01*
X034429Y022109D01*
X034216Y022021D01*
X033985Y022021D01*
X033772Y022109D01*
X033609Y022272D01*
X033521Y022485D01*
X033521Y022716D01*
X033609Y022929D01*
X033772Y023092D01*
X033938Y023161D01*
X032369Y024731D01*
X029551Y024731D01*
X029429Y024609D01*
X029216Y024521D01*
X028985Y024521D01*
X028772Y024609D01*
X028609Y024772D01*
X028521Y024985D01*
X028521Y025216D01*
X028609Y025429D01*
X028731Y025551D01*
X028731Y027151D01*
X028609Y027272D01*
X028521Y027485D01*
X028521Y027716D01*
X028609Y027929D01*
X028772Y028092D01*
X028985Y028181D01*
X029216Y028181D01*
X029429Y028092D01*
X029592Y027929D01*
X029681Y027716D01*
X029681Y027485D01*
X029592Y027272D01*
X029471Y027151D01*
X029471Y025551D01*
X029551Y025471D01*
X032596Y025471D01*
X032732Y025414D01*
X032836Y025310D01*
X040311Y017835D01*
X041410Y018933D01*
X041399Y018961D01*
X041399Y019240D01*
X041506Y019499D01*
X041703Y019696D01*
X041954Y019800D01*
X037023Y024731D01*
X034551Y024731D01*
X034429Y024609D01*
X034216Y024521D01*
X033985Y024521D01*
X033772Y024609D01*
X033609Y024772D01*
X033521Y024985D01*
X033521Y025216D01*
X033609Y025429D01*
X033731Y025551D01*
X033731Y027151D01*
X033609Y027272D01*
X033521Y027485D01*
X033521Y027716D01*
X033609Y027929D01*
X033772Y028092D01*
X033985Y028181D01*
X034216Y028181D01*
X034429Y028092D01*
X034592Y027929D01*
X034681Y027716D01*
X034681Y027485D01*
X034592Y027272D01*
X034471Y027151D01*
X034471Y025551D01*
X034551Y025471D01*
X037103Y025471D01*
X037250Y025471D01*
X037386Y025414D01*
X041440Y021360D01*
X041399Y021461D01*
X041399Y021740D01*
X041506Y021999D01*
X041703Y022196D01*
X041961Y022303D01*
X042240Y022303D01*
X042499Y022196D01*
X042696Y021999D01*
X042803Y021740D01*
X042803Y021461D01*
X042696Y021203D01*
X042499Y021006D01*
X042240Y020899D01*
X041961Y020899D01*
X041860Y020940D01*
X043443Y019357D01*
X043547Y019253D01*
X043604Y019117D01*
X043604Y006901D01*
X043604Y006753D01*
X043547Y006617D01*
X040861Y003931D01*
X040757Y003827D01*
X040621Y003771D01*
X040061Y003771D01*
X040091Y003698D01*
X040091Y002943D01*
X040068Y002889D01*
X042035Y002889D01*
X042053Y002907D01*
X042021Y002985D01*
X042021Y003216D01*
X042109Y003429D01*
X042272Y003592D01*
X042485Y003681D01*
X042716Y003681D01*
X042929Y003592D01*
X043092Y003429D01*
X043181Y003216D01*
X043181Y002985D01*
X043092Y002772D01*
X042929Y002609D01*
X042716Y002521D01*
X042485Y002521D01*
X042407Y002553D01*
X042351Y002497D01*
X042821Y002564D02*
X043686Y002564D01*
X043803Y002663D02*
X043803Y002663D01*
X043804Y002663D02*
X042983Y002663D01*
X043082Y002761D02*
X044075Y002761D01*
X044128Y002781D02*
X044128Y002781D01*
X044351Y002781D02*
X044351Y002781D01*
X044474Y002781D02*
X044474Y002781D01*
X044526Y002761D02*
X045101Y002761D01*
X045101Y002663D02*
X044797Y002663D01*
X044798Y002663D02*
X044798Y002663D01*
X044915Y002564D02*
X045101Y002564D01*
X045101Y002466D02*
X045033Y002466D01*
X045101Y002860D02*
X043129Y002860D01*
X043170Y002959D02*
X045101Y002959D01*
X045101Y003057D02*
X043181Y003057D01*
X043181Y003156D02*
X045101Y003156D01*
X045101Y003254D02*
X043165Y003254D01*
X043124Y003353D02*
X045101Y003353D01*
X045101Y003451D02*
X043070Y003451D01*
X042972Y003550D02*
X045101Y003550D01*
X045101Y003648D02*
X042794Y003648D01*
X042407Y003648D02*
X040091Y003648D01*
X040091Y003550D02*
X042230Y003550D01*
X042131Y003451D02*
X040091Y003451D01*
X040091Y003353D02*
X042077Y003353D01*
X042037Y003254D02*
X040091Y003254D01*
X040091Y003156D02*
X042021Y003156D01*
X042021Y003057D02*
X040091Y003057D01*
X040091Y002959D02*
X042032Y002959D01*
X040874Y003944D02*
X045101Y003944D01*
X045101Y004043D02*
X040972Y004043D01*
X041071Y004141D02*
X045101Y004141D01*
X045101Y004240D02*
X041170Y004240D01*
X041268Y004338D02*
X045101Y004338D01*
X045101Y004437D02*
X041367Y004437D01*
X041465Y004535D02*
X045101Y004535D01*
X045101Y004634D02*
X041564Y004634D01*
X041662Y004732D02*
X045101Y004732D01*
X045101Y004831D02*
X041761Y004831D01*
X041859Y004929D02*
X045101Y004929D01*
X045101Y005028D02*
X041958Y005028D01*
X042056Y005126D02*
X045101Y005126D01*
X045101Y005225D02*
X042155Y005225D01*
X042254Y005324D02*
X045101Y005324D01*
X045101Y005422D02*
X042352Y005422D01*
X042451Y005521D02*
X045101Y005521D01*
X045101Y005619D02*
X042549Y005619D01*
X042648Y005718D02*
X045101Y005718D01*
X045101Y005816D02*
X042746Y005816D01*
X042845Y005915D02*
X045101Y005915D01*
X045101Y006013D02*
X042943Y006013D01*
X043042Y006112D02*
X045101Y006112D01*
X045101Y006210D02*
X043140Y006210D01*
X043239Y006309D02*
X045101Y006309D01*
X045101Y006408D02*
X043338Y006408D01*
X043436Y006506D02*
X045101Y006506D01*
X045101Y006605D02*
X043535Y006605D01*
X043583Y006703D02*
X045101Y006703D01*
X045101Y006802D02*
X043604Y006802D01*
X043604Y006900D02*
X045101Y006900D01*
X045101Y006999D02*
X043604Y006999D01*
X043604Y007097D02*
X045101Y007097D01*
X045101Y007196D02*
X043604Y007196D01*
X043604Y007294D02*
X045101Y007294D01*
X045101Y007393D02*
X043604Y007393D01*
X043604Y007492D02*
X045101Y007492D01*
X045101Y007590D02*
X043604Y007590D01*
X043604Y007689D02*
X045101Y007689D01*
X045101Y007787D02*
X043604Y007787D01*
X043604Y007886D02*
X045101Y007886D01*
X045101Y007984D02*
X043604Y007984D01*
X043604Y008083D02*
X045101Y008083D01*
X045101Y008181D02*
X043604Y008181D01*
X043604Y008280D02*
X045101Y008280D01*
X045101Y008378D02*
X043604Y008378D01*
X043604Y008477D02*
X045101Y008477D01*
X045101Y008576D02*
X043604Y008576D01*
X043604Y008674D02*
X045101Y008674D01*
X045101Y008773D02*
X043604Y008773D01*
X043604Y008871D02*
X045101Y008871D01*
X045101Y008970D02*
X043604Y008970D01*
X043604Y009068D02*
X045101Y009068D01*
X045101Y009167D02*
X043604Y009167D01*
X043604Y009265D02*
X045101Y009265D01*
X045101Y009364D02*
X043604Y009364D01*
X043604Y009462D02*
X045101Y009462D01*
X045101Y009561D02*
X043604Y009561D01*
X043604Y009659D02*
X045101Y009659D01*
X045101Y009758D02*
X043604Y009758D01*
X043604Y009857D02*
X045101Y009857D01*
X045101Y009955D02*
X043604Y009955D01*
X043604Y010054D02*
X045101Y010054D01*
X045101Y010152D02*
X043604Y010152D01*
X043604Y010251D02*
X045101Y010251D01*
X045101Y010349D02*
X043604Y010349D01*
X043604Y010448D02*
X045101Y010448D01*
X045101Y010546D02*
X043604Y010546D01*
X043604Y010645D02*
X045101Y010645D01*
X045101Y010743D02*
X043604Y010743D01*
X043604Y010842D02*
X045101Y010842D01*
X045101Y010941D02*
X043604Y010941D01*
X043604Y011039D02*
X045101Y011039D01*
X045101Y011138D02*
X043604Y011138D01*
X043604Y011236D02*
X045101Y011236D01*
X045101Y011335D02*
X043604Y011335D01*
X043604Y011433D02*
X045101Y011433D01*
X045101Y011532D02*
X043604Y011532D01*
X043604Y011630D02*
X045101Y011630D01*
X045101Y011729D02*
X043604Y011729D01*
X043604Y011827D02*
X045101Y011827D01*
X045101Y011926D02*
X043604Y011926D01*
X043604Y012025D02*
X045101Y012025D01*
X045101Y012123D02*
X043604Y012123D01*
X043604Y012222D02*
X045101Y012222D01*
X045101Y012320D02*
X043604Y012320D01*
X043604Y012419D02*
X045101Y012419D01*
X045101Y012517D02*
X043604Y012517D01*
X043604Y012616D02*
X045101Y012616D01*
X045101Y012714D02*
X043604Y012714D01*
X043604Y012813D02*
X045101Y012813D01*
X045101Y012911D02*
X043604Y012911D01*
X043604Y013010D02*
X045101Y013010D01*
X045101Y013109D02*
X043604Y013109D01*
X043604Y013207D02*
X045101Y013207D01*
X045101Y013306D02*
X043604Y013306D01*
X043604Y013404D02*
X045101Y013404D01*
X045101Y013503D02*
X043604Y013503D01*
X043604Y013601D02*
X045101Y013601D01*
X045101Y013700D02*
X043604Y013700D01*
X043604Y013798D02*
X045101Y013798D01*
X045101Y013897D02*
X043604Y013897D01*
X043604Y013995D02*
X045101Y013995D01*
X045101Y014094D02*
X043604Y014094D01*
X043604Y014192D02*
X045101Y014192D01*
X045101Y014291D02*
X043604Y014291D01*
X043604Y014390D02*
X045101Y014390D01*
X045101Y014488D02*
X043604Y014488D01*
X043604Y014587D02*
X045101Y014587D01*
X045101Y014685D02*
X043604Y014685D01*
X043604Y014784D02*
X045101Y014784D01*
X045101Y014882D02*
X043604Y014882D01*
X043604Y014981D02*
X045101Y014981D01*
X045101Y015079D02*
X043604Y015079D01*
X043604Y015178D02*
X045101Y015178D01*
X045101Y015276D02*
X043604Y015276D01*
X043604Y015375D02*
X045101Y015375D01*
X045101Y015474D02*
X043604Y015474D01*
X043604Y015572D02*
X045101Y015572D01*
X045101Y015671D02*
X043604Y015671D01*
X043604Y015769D02*
X045101Y015769D01*
X045101Y015868D02*
X043604Y015868D01*
X043604Y015966D02*
X045101Y015966D01*
X045101Y016065D02*
X043604Y016065D01*
X043604Y016163D02*
X045101Y016163D01*
X045101Y016262D02*
X043604Y016262D01*
X043604Y016360D02*
X045101Y016360D01*
X045101Y016459D02*
X043604Y016459D01*
X043604Y016558D02*
X045101Y016558D01*
X045101Y016656D02*
X043604Y016656D01*
X043604Y016755D02*
X045101Y016755D01*
X045101Y016853D02*
X043604Y016853D01*
X043604Y016952D02*
X045101Y016952D01*
X045101Y017050D02*
X043604Y017050D01*
X043604Y017149D02*
X045101Y017149D01*
X045101Y017247D02*
X043604Y017247D01*
X043604Y017346D02*
X045101Y017346D01*
X045101Y017444D02*
X043604Y017444D01*
X043604Y017543D02*
X045101Y017543D01*
X045101Y017641D02*
X043604Y017641D01*
X043604Y017740D02*
X045101Y017740D01*
X045101Y017839D02*
X043604Y017839D01*
X043604Y017937D02*
X045101Y017937D01*
X045101Y018036D02*
X043604Y018036D01*
X043604Y018134D02*
X045101Y018134D01*
X045101Y018233D02*
X043604Y018233D01*
X043604Y018331D02*
X045101Y018331D01*
X045101Y018430D02*
X043604Y018430D01*
X043604Y018528D02*
X045101Y018528D01*
X045101Y018627D02*
X043604Y018627D01*
X043604Y018725D02*
X045101Y018725D01*
X045101Y018824D02*
X043604Y018824D01*
X043604Y018923D02*
X045101Y018923D01*
X045101Y019021D02*
X043604Y019021D01*
X043603Y019120D02*
X045101Y019120D01*
X045101Y019218D02*
X043562Y019218D01*
X043484Y019317D02*
X045101Y019317D01*
X045101Y019415D02*
X043385Y019415D01*
X043287Y019514D02*
X045101Y019514D01*
X045101Y019612D02*
X043188Y019612D01*
X043090Y019711D02*
X045101Y019711D01*
X045101Y019809D02*
X042991Y019809D01*
X042893Y019908D02*
X045101Y019908D01*
X045101Y020007D02*
X042794Y020007D01*
X042696Y020105D02*
X045101Y020105D01*
X045101Y020204D02*
X042597Y020204D01*
X042499Y020302D02*
X045101Y020302D01*
X045101Y020401D02*
X042400Y020401D01*
X042301Y020499D02*
X045101Y020499D01*
X045101Y020598D02*
X042203Y020598D01*
X042104Y020696D02*
X045101Y020696D01*
X045101Y020795D02*
X042006Y020795D01*
X041907Y020893D02*
X045101Y020893D01*
X045101Y020992D02*
X042466Y020992D01*
X042583Y021091D02*
X045101Y021091D01*
X045101Y021189D02*
X042682Y021189D01*
X042731Y021288D02*
X045101Y021288D01*
X045101Y021386D02*
X042772Y021386D01*
X042803Y021485D02*
X045101Y021485D01*
X045101Y021583D02*
X042803Y021583D01*
X042803Y021682D02*
X045101Y021682D01*
X045101Y021780D02*
X042786Y021780D01*
X042746Y021879D02*
X045101Y021879D01*
X045101Y021977D02*
X042705Y021977D01*
X042619Y022076D02*
X045101Y022076D01*
X045101Y022174D02*
X042520Y022174D01*
X042313Y022273D02*
X045101Y022273D01*
X045101Y022372D02*
X040429Y022372D01*
X040331Y022470D02*
X045101Y022470D01*
X045101Y022569D02*
X040232Y022569D01*
X040134Y022667D02*
X045101Y022667D01*
X045101Y022766D02*
X040035Y022766D01*
X039936Y022864D02*
X045101Y022864D01*
X045101Y022963D02*
X039838Y022963D01*
X039739Y023061D02*
X045101Y023061D01*
X045101Y023160D02*
X039641Y023160D01*
X039542Y023258D02*
X045101Y023258D01*
X045101Y023357D02*
X039444Y023357D01*
X039345Y023456D02*
X041824Y023456D01*
X041703Y023506D02*
X041961Y023399D01*
X042240Y023399D01*
X042499Y023506D01*
X042696Y023703D01*
X042803Y023961D01*
X042803Y024240D01*
X042696Y024499D01*
X042499Y024696D01*
X042240Y024803D01*
X041961Y024803D01*
X041703Y024696D01*
X041506Y024499D01*
X041399Y024240D01*
X041399Y023961D01*
X041506Y023703D01*
X041703Y023506D01*
X041654Y023554D02*
X039247Y023554D01*
X039148Y023653D02*
X041556Y023653D01*
X041486Y023751D02*
X039050Y023751D01*
X038951Y023850D02*
X041445Y023850D01*
X041404Y023948D02*
X038852Y023948D01*
X038754Y024047D02*
X041399Y024047D01*
X041399Y024145D02*
X038655Y024145D01*
X038557Y024244D02*
X041400Y024244D01*
X041441Y024342D02*
X038458Y024342D01*
X038360Y024441D02*
X041482Y024441D01*
X041547Y024540D02*
X038261Y024540D01*
X038163Y024638D02*
X041645Y024638D01*
X041801Y024737D02*
X038064Y024737D01*
X037966Y024835D02*
X045101Y024835D01*
X045101Y024737D02*
X042400Y024737D01*
X042556Y024638D02*
X045101Y024638D01*
X045101Y024540D02*
X042655Y024540D01*
X042720Y024441D02*
X045101Y024441D01*
X045101Y024342D02*
X042761Y024342D01*
X042801Y024244D02*
X045101Y024244D01*
X045101Y024145D02*
X042803Y024145D01*
X042803Y024047D02*
X045101Y024047D01*
X045101Y023948D02*
X042798Y023948D01*
X042757Y023850D02*
X045101Y023850D01*
X045101Y023751D02*
X042716Y023751D01*
X042646Y023653D02*
X045101Y023653D01*
X045101Y023554D02*
X042547Y023554D01*
X042378Y023456D02*
X045101Y023456D01*
X045101Y024934D02*
X037867Y024934D01*
X037768Y025032D02*
X045101Y025032D01*
X045101Y025131D02*
X037670Y025131D01*
X037571Y025229D02*
X045101Y025229D01*
X045101Y025328D02*
X037473Y025328D01*
X037357Y025426D02*
X045101Y025426D01*
X045101Y025525D02*
X034497Y025525D01*
X034471Y025624D02*
X045101Y025624D01*
X045101Y025722D02*
X034471Y025722D01*
X034471Y025821D02*
X045101Y025821D01*
X045101Y025919D02*
X034471Y025919D01*
X034471Y026018D02*
X045101Y026018D01*
X045101Y026116D02*
X034471Y026116D01*
X034471Y026215D02*
X045101Y026215D01*
X045101Y026313D02*
X034471Y026313D01*
X034471Y026412D02*
X045101Y026412D01*
X045101Y026510D02*
X034471Y026510D01*
X034471Y026609D02*
X045101Y026609D01*
X045101Y026707D02*
X034471Y026707D01*
X034471Y026806D02*
X045101Y026806D01*
X045101Y026905D02*
X034471Y026905D01*
X034471Y027003D02*
X045101Y027003D01*
X045101Y027102D02*
X034471Y027102D01*
X034520Y027200D02*
X045101Y027200D01*
X045101Y027299D02*
X034603Y027299D01*
X034644Y027397D02*
X045101Y027397D01*
X045101Y027496D02*
X034681Y027496D01*
X034681Y027594D02*
X045101Y027594D01*
X045101Y027693D02*
X034681Y027693D01*
X034650Y027791D02*
X045101Y027791D01*
X045101Y027890D02*
X034609Y027890D01*
X034533Y027989D02*
X045101Y027989D01*
X045101Y028087D02*
X034435Y028087D01*
X033767Y028087D02*
X029435Y028087D01*
X029533Y027989D02*
X033668Y027989D01*
X033593Y027890D02*
X029609Y027890D01*
X029650Y027791D02*
X033552Y027791D01*
X033521Y027693D02*
X029681Y027693D01*
X029681Y027594D02*
X033521Y027594D01*
X033521Y027496D02*
X029681Y027496D01*
X029644Y027397D02*
X033557Y027397D01*
X033598Y027299D02*
X029603Y027299D01*
X029520Y027200D02*
X033681Y027200D01*
X033731Y027102D02*
X029471Y027102D01*
X029471Y027003D02*
X033731Y027003D01*
X033731Y026905D02*
X029471Y026905D01*
X029471Y026806D02*
X033731Y026806D01*
X033731Y026707D02*
X029471Y026707D01*
X029471Y026609D02*
X033731Y026609D01*
X033731Y026510D02*
X029471Y026510D01*
X029471Y026412D02*
X033731Y026412D01*
X033731Y026313D02*
X029471Y026313D01*
X029471Y026215D02*
X033731Y026215D01*
X033731Y026116D02*
X029471Y026116D01*
X029471Y026018D02*
X033731Y026018D01*
X033731Y025919D02*
X029471Y025919D01*
X029471Y025821D02*
X033731Y025821D01*
X033731Y025722D02*
X029471Y025722D01*
X029471Y025624D02*
X033731Y025624D01*
X033705Y025525D02*
X029497Y025525D01*
X028731Y025624D02*
X028101Y025624D01*
X028101Y025722D02*
X028731Y025722D01*
X028731Y025821D02*
X028101Y025821D01*
X028101Y025919D02*
X028731Y025919D01*
X028731Y026018D02*
X028101Y026018D01*
X028101Y026116D02*
X028731Y026116D01*
X028731Y026215D02*
X028101Y026215D01*
X028101Y026313D02*
X028731Y026313D01*
X028731Y026412D02*
X028101Y026412D01*
X028101Y026510D02*
X028731Y026510D01*
X028731Y026609D02*
X028101Y026609D01*
X028101Y026707D02*
X028731Y026707D01*
X028731Y026806D02*
X028101Y026806D01*
X028101Y026905D02*
X028731Y026905D01*
X028731Y027003D02*
X028101Y027003D01*
X028101Y027102D02*
X028731Y027102D01*
X028681Y027200D02*
X028101Y027200D01*
X028101Y027299D02*
X028598Y027299D01*
X028557Y027397D02*
X028101Y027397D01*
X028101Y027496D02*
X028521Y027496D01*
X028521Y027594D02*
X028101Y027594D01*
X028101Y027693D02*
X028521Y027693D01*
X028552Y027791D02*
X028101Y027791D01*
X028101Y027890D02*
X028593Y027890D01*
X028668Y027989D02*
X028101Y027989D01*
X028101Y028087D02*
X028767Y028087D01*
X028101Y028186D02*
X045101Y028186D01*
X045101Y028284D02*
X028101Y028284D01*
X028101Y028383D02*
X044058Y028383D01*
X044228Y028321D02*
X044228Y028321D01*
X044451Y028321D02*
X044451Y028321D01*
X044574Y028321D02*
X044574Y028321D01*
X044744Y028383D02*
X045101Y028383D01*
X045101Y028481D02*
X044949Y028481D01*
X045066Y028580D02*
X045101Y028580D01*
X043853Y028481D02*
X028101Y028481D01*
X028101Y028580D02*
X043735Y028580D01*
X043639Y028661D02*
X043639Y028661D01*
X043629Y028678D02*
X028101Y028678D01*
X028101Y028777D02*
X043572Y028777D01*
X043515Y028875D02*
X028101Y028875D01*
X028101Y028974D02*
X043463Y028974D01*
X043466Y028960D02*
X043466Y028960D01*
X043446Y029073D02*
X028101Y029073D01*
X028101Y025525D02*
X028705Y025525D01*
X028608Y025426D02*
X028101Y025426D01*
X028101Y025328D02*
X028567Y025328D01*
X028526Y025229D02*
X028101Y025229D01*
X028101Y025131D02*
X028521Y025131D01*
X028521Y025032D02*
X028101Y025032D01*
X028101Y024934D02*
X028542Y024934D01*
X028583Y024835D02*
X028101Y024835D01*
X028101Y024737D02*
X028645Y024737D01*
X028743Y024638D02*
X028101Y024638D01*
X028101Y024540D02*
X028940Y024540D01*
X029261Y024540D02*
X032560Y024540D01*
X032462Y024638D02*
X029458Y024638D01*
X028101Y024441D02*
X032659Y024441D01*
X032757Y024342D02*
X028101Y024342D01*
X028101Y024244D02*
X032856Y024244D01*
X032954Y024145D02*
X028101Y024145D01*
X028101Y024047D02*
X033053Y024047D01*
X033151Y023948D02*
X028101Y023948D01*
X028101Y023850D02*
X033250Y023850D01*
X033348Y023751D02*
X028101Y023751D01*
X028101Y023653D02*
X033447Y023653D01*
X033546Y023554D02*
X028101Y023554D01*
X028101Y023456D02*
X033644Y023456D01*
X033743Y023357D02*
X028101Y023357D01*
X028101Y023258D02*
X033841Y023258D01*
X033935Y023160D02*
X029266Y023160D01*
X029216Y023181D02*
X028985Y023181D01*
X028772Y023092D01*
X028609Y022929D01*
X028521Y022716D01*
X028521Y022485D01*
X028609Y022272D01*
X028731Y022151D01*
X028731Y020551D01*
X028609Y020429D01*
X028521Y020216D01*
X028521Y019985D01*
X028609Y019772D01*
X028772Y019609D01*
X028985Y019521D01*
X029158Y019521D01*
X030543Y018136D01*
X030494Y018136D01*
X030298Y018054D01*
X030147Y017904D01*
X030066Y017707D01*
X030066Y017494D01*
X030147Y017298D01*
X030231Y017214D01*
X030231Y013027D01*
X030287Y012891D01*
X030391Y012787D01*
X032021Y011158D01*
X032021Y010985D01*
X032109Y010772D01*
X032272Y010609D01*
X032485Y010521D01*
X032716Y010521D01*
X032929Y010609D01*
X033092Y010772D01*
X033181Y010985D01*
X033181Y011216D01*
X033092Y011429D01*
X032929Y011592D01*
X032716Y011681D01*
X032544Y011681D01*
X030971Y013254D01*
X030971Y017214D01*
X031054Y017298D01*
X031101Y017410D01*
X031147Y017298D01*
X031298Y017147D01*
X031494Y017066D01*
X031707Y017066D01*
X031904Y017147D01*
X032054Y017298D01*
X032136Y017494D01*
X032136Y017707D01*
X032054Y017904D01*
X031904Y018054D01*
X031707Y018136D01*
X031589Y018136D01*
X029681Y020044D01*
X029681Y020216D01*
X029592Y020429D01*
X029471Y020551D01*
X029471Y022151D01*
X029592Y022272D01*
X029681Y022485D01*
X029681Y022716D01*
X029592Y022929D01*
X029429Y023092D01*
X029216Y023181D01*
X029460Y023061D02*
X033741Y023061D01*
X033643Y022963D02*
X029559Y022963D01*
X029619Y022864D02*
X033582Y022864D01*
X033541Y022766D02*
X029660Y022766D01*
X029681Y022667D02*
X033521Y022667D01*
X033521Y022569D02*
X029681Y022569D01*
X029674Y022470D02*
X033527Y022470D01*
X033568Y022372D02*
X029634Y022372D01*
X029593Y022273D02*
X033609Y022273D01*
X033707Y022174D02*
X029495Y022174D01*
X029471Y022076D02*
X033852Y022076D01*
X034349Y022076D02*
X035024Y022076D01*
X035122Y021977D02*
X029471Y021977D01*
X029471Y021879D02*
X035221Y021879D01*
X035319Y021780D02*
X029471Y021780D01*
X029471Y021682D02*
X035418Y021682D01*
X035516Y021583D02*
X029471Y021583D01*
X029471Y021485D02*
X035615Y021485D01*
X035714Y021386D02*
X029471Y021386D01*
X029471Y021288D02*
X035812Y021288D01*
X035911Y021189D02*
X029471Y021189D01*
X029471Y021091D02*
X036009Y021091D01*
X036108Y020992D02*
X029471Y020992D01*
X029471Y020893D02*
X036206Y020893D01*
X036305Y020795D02*
X029471Y020795D01*
X029471Y020696D02*
X036403Y020696D01*
X036502Y020598D02*
X034416Y020598D01*
X034429Y020592D02*
X034216Y020681D01*
X033985Y020681D01*
X033772Y020592D01*
X033609Y020429D01*
X033521Y020216D01*
X033521Y019985D01*
X033609Y019772D01*
X033772Y019609D01*
X033985Y019521D01*
X034216Y019521D01*
X034429Y019609D01*
X034592Y019772D01*
X034681Y019985D01*
X034681Y020216D01*
X034592Y020429D01*
X034429Y020592D01*
X034522Y020499D02*
X036600Y020499D01*
X036699Y020401D02*
X034604Y020401D01*
X034645Y020302D02*
X036797Y020302D01*
X036896Y020204D02*
X034681Y020204D01*
X034681Y020105D02*
X036995Y020105D01*
X037093Y020007D02*
X034681Y020007D01*
X034649Y019908D02*
X037192Y019908D01*
X037290Y019809D02*
X034608Y019809D01*
X034531Y019711D02*
X037389Y019711D01*
X037487Y019612D02*
X034433Y019612D01*
X033769Y019612D02*
X030112Y019612D01*
X030211Y019514D02*
X037586Y019514D01*
X037684Y019415D02*
X030309Y019415D01*
X030408Y019317D02*
X037783Y019317D01*
X037881Y019218D02*
X030507Y019218D01*
X030605Y019120D02*
X037980Y019120D01*
X038079Y019021D02*
X030704Y019021D01*
X030802Y018923D02*
X038177Y018923D01*
X038276Y018824D02*
X030901Y018824D01*
X030999Y018725D02*
X038374Y018725D01*
X038473Y018627D02*
X031098Y018627D01*
X031196Y018528D02*
X038571Y018528D01*
X038670Y018430D02*
X031295Y018430D01*
X031393Y018331D02*
X038768Y018331D01*
X038867Y018233D02*
X031492Y018233D01*
X031711Y018134D02*
X038965Y018134D01*
X039064Y018036D02*
X031922Y018036D01*
X032021Y017937D02*
X039163Y017937D01*
X039261Y017839D02*
X032081Y017839D01*
X032122Y017740D02*
X039360Y017740D01*
X039458Y017641D02*
X032136Y017641D01*
X032136Y017543D02*
X039557Y017543D01*
X039655Y017444D02*
X032115Y017444D01*
X032074Y017346D02*
X036366Y017346D01*
X036422Y017361D02*
X036076Y017268D01*
X035766Y017089D01*
X035513Y016836D01*
X035333Y016526D01*
X035241Y016180D01*
X035241Y015822D01*
X035333Y015476D01*
X035513Y015166D01*
X035766Y014913D01*
X036076Y014733D01*
X036422Y014641D01*
X036780Y014641D01*
X037126Y014733D01*
X037436Y014913D01*
X037689Y015166D01*
X037868Y015476D01*
X037961Y015822D01*
X037961Y016180D01*
X037868Y016526D01*
X037689Y016836D01*
X037436Y017089D01*
X037126Y017268D01*
X036780Y017361D01*
X036422Y017361D01*
X036040Y017247D02*
X032004Y017247D01*
X031905Y017149D02*
X035869Y017149D01*
X035727Y017050D02*
X030971Y017050D01*
X030971Y016952D02*
X035628Y016952D01*
X035530Y016853D02*
X030971Y016853D01*
X030971Y016755D02*
X035466Y016755D01*
X035409Y016656D02*
X030971Y016656D01*
X030971Y016558D02*
X035352Y016558D01*
X035316Y016459D02*
X030971Y016459D01*
X030971Y016360D02*
X035289Y016360D01*
X035263Y016262D02*
X030971Y016262D01*
X030971Y016163D02*
X035241Y016163D01*
X035241Y016065D02*
X030971Y016065D01*
X030971Y015966D02*
X035241Y015966D01*
X035241Y015868D02*
X030971Y015868D01*
X030971Y015769D02*
X035255Y015769D01*
X035281Y015671D02*
X032741Y015671D01*
X032716Y015681D02*
X032485Y015681D01*
X032272Y015592D01*
X032109Y015429D01*
X032021Y015216D01*
X032021Y014985D01*
X032109Y014772D01*
X032272Y014609D01*
X032485Y014521D01*
X032716Y014521D01*
X032929Y014609D01*
X033092Y014772D01*
X033181Y014985D01*
X033181Y015216D01*
X033092Y015429D01*
X032929Y015592D01*
X032716Y015681D01*
X032461Y015671D02*
X030971Y015671D01*
X030971Y015572D02*
X032252Y015572D01*
X032153Y015474D02*
X030971Y015474D01*
X030971Y015375D02*
X032087Y015375D01*
X032046Y015276D02*
X030971Y015276D01*
X030971Y015178D02*
X032021Y015178D01*
X032021Y015079D02*
X030971Y015079D01*
X030971Y014981D02*
X032023Y014981D01*
X032064Y014882D02*
X030971Y014882D01*
X030971Y014784D02*
X032104Y014784D01*
X032196Y014685D02*
X030971Y014685D01*
X030971Y014587D02*
X032326Y014587D01*
X032875Y014587D02*
X039289Y014587D01*
X039289Y014685D02*
X036946Y014685D01*
X037213Y014784D02*
X039289Y014784D01*
X039289Y014882D02*
X037383Y014882D01*
X037504Y014981D02*
X039289Y014981D01*
X039289Y015079D02*
X037603Y015079D01*
X037696Y015178D02*
X039289Y015178D01*
X039289Y015276D02*
X037753Y015276D01*
X037810Y015375D02*
X039289Y015375D01*
X039289Y015474D02*
X037867Y015474D01*
X037894Y015572D02*
X039289Y015572D01*
X039289Y015671D02*
X037920Y015671D01*
X037947Y015769D02*
X039289Y015769D01*
X039289Y015868D02*
X037961Y015868D01*
X037961Y015966D02*
X039289Y015966D01*
X039289Y016065D02*
X037961Y016065D01*
X037961Y016163D02*
X039289Y016163D01*
X039289Y016262D02*
X037939Y016262D01*
X037912Y016360D02*
X039289Y016360D01*
X039289Y016459D02*
X037886Y016459D01*
X037850Y016558D02*
X039289Y016558D01*
X039289Y016656D02*
X037793Y016656D01*
X037736Y016755D02*
X039298Y016755D01*
X039339Y016853D02*
X037672Y016853D01*
X037573Y016952D02*
X039428Y016952D01*
X039527Y017050D02*
X037475Y017050D01*
X037332Y017149D02*
X039626Y017149D01*
X039724Y017247D02*
X037162Y017247D01*
X036835Y017346D02*
X039754Y017346D01*
X040308Y017839D02*
X040315Y017839D01*
X040414Y017937D02*
X040209Y017937D01*
X040110Y018036D02*
X040512Y018036D01*
X040611Y018134D02*
X040012Y018134D01*
X039913Y018233D02*
X040710Y018233D01*
X040808Y018331D02*
X039815Y018331D01*
X039716Y018430D02*
X040907Y018430D01*
X041005Y018528D02*
X039618Y018528D01*
X039519Y018627D02*
X041104Y018627D01*
X041202Y018725D02*
X039421Y018725D01*
X039322Y018824D02*
X041301Y018824D01*
X041399Y018923D02*
X039224Y018923D01*
X039125Y019021D02*
X041399Y019021D01*
X041399Y019120D02*
X039026Y019120D01*
X038928Y019218D02*
X041399Y019218D01*
X041430Y019317D02*
X038829Y019317D01*
X038731Y019415D02*
X041471Y019415D01*
X041521Y019514D02*
X038632Y019514D01*
X038534Y019612D02*
X041619Y019612D01*
X041739Y019711D02*
X038435Y019711D01*
X038337Y019809D02*
X041945Y019809D01*
X041846Y019908D02*
X038238Y019908D01*
X038140Y020007D02*
X041748Y020007D01*
X041649Y020105D02*
X038041Y020105D01*
X037942Y020204D02*
X041551Y020204D01*
X041452Y020302D02*
X037844Y020302D01*
X037745Y020401D02*
X041354Y020401D01*
X041255Y020499D02*
X037647Y020499D01*
X037548Y020598D02*
X041156Y020598D01*
X041058Y020696D02*
X037450Y020696D01*
X037351Y020795D02*
X040959Y020795D01*
X040861Y020893D02*
X037253Y020893D01*
X037154Y020992D02*
X040762Y020992D01*
X040664Y021091D02*
X037056Y021091D01*
X036957Y021189D02*
X040565Y021189D01*
X040467Y021288D02*
X036859Y021288D01*
X036760Y021386D02*
X040368Y021386D01*
X040270Y021485D02*
X036661Y021485D01*
X036563Y021583D02*
X040171Y021583D01*
X040072Y021682D02*
X036464Y021682D01*
X036366Y021780D02*
X039974Y021780D01*
X039875Y021879D02*
X036267Y021879D01*
X036169Y021977D02*
X039777Y021977D01*
X039678Y022076D02*
X036070Y022076D01*
X035972Y022174D02*
X039580Y022174D01*
X039481Y022273D02*
X035873Y022273D01*
X035775Y022372D02*
X039383Y022372D01*
X039284Y022470D02*
X035676Y022470D01*
X035577Y022569D02*
X039186Y022569D01*
X039087Y022667D02*
X035479Y022667D01*
X035380Y022766D02*
X038989Y022766D01*
X038890Y022864D02*
X035282Y022864D01*
X035183Y022963D02*
X038791Y022963D01*
X038693Y023061D02*
X035085Y023061D01*
X034986Y023160D02*
X038594Y023160D01*
X038496Y023258D02*
X034888Y023258D01*
X034789Y023357D02*
X038397Y023357D01*
X038299Y023456D02*
X034691Y023456D01*
X034592Y023554D02*
X038200Y023554D01*
X038102Y023653D02*
X034493Y023653D01*
X034395Y023751D02*
X038003Y023751D01*
X037905Y023850D02*
X034296Y023850D01*
X034198Y023948D02*
X037806Y023948D01*
X037707Y024047D02*
X034099Y024047D01*
X034001Y024145D02*
X037609Y024145D01*
X037510Y024244D02*
X033902Y024244D01*
X033804Y024342D02*
X037412Y024342D01*
X037313Y024441D02*
X033705Y024441D01*
X033607Y024540D02*
X033940Y024540D01*
X033743Y024638D02*
X033508Y024638D01*
X033409Y024737D02*
X033645Y024737D01*
X033583Y024835D02*
X033311Y024835D01*
X033212Y024934D02*
X033542Y024934D01*
X033521Y025032D02*
X033114Y025032D01*
X033015Y025131D02*
X033521Y025131D01*
X033526Y025229D02*
X032917Y025229D01*
X032818Y025328D02*
X033567Y025328D01*
X033608Y025426D02*
X032703Y025426D01*
X034261Y024540D02*
X037215Y024540D01*
X037116Y024638D02*
X034458Y024638D01*
X034634Y022372D02*
X034728Y022372D01*
X034827Y022273D02*
X034593Y022273D01*
X034495Y022174D02*
X034925Y022174D01*
X033785Y020598D02*
X029471Y020598D01*
X029522Y020499D02*
X033679Y020499D01*
X033597Y020401D02*
X029604Y020401D01*
X029645Y020302D02*
X033556Y020302D01*
X033521Y020204D02*
X029681Y020204D01*
X029681Y020105D02*
X033521Y020105D01*
X033521Y020007D02*
X029718Y020007D01*
X029817Y019908D02*
X033553Y019908D01*
X033594Y019809D02*
X029915Y019809D01*
X030014Y019711D02*
X033670Y019711D01*
X030446Y018233D02*
X028101Y018233D01*
X028101Y018331D02*
X030347Y018331D01*
X030249Y018430D02*
X028101Y018430D01*
X028101Y018528D02*
X030150Y018528D01*
X030051Y018627D02*
X028101Y018627D01*
X028101Y018725D02*
X029953Y018725D01*
X029854Y018824D02*
X028101Y018824D01*
X028101Y018923D02*
X029756Y018923D01*
X029657Y019021D02*
X028101Y019021D01*
X028101Y019120D02*
X029559Y019120D01*
X029460Y019218D02*
X028101Y019218D01*
X028101Y019317D02*
X029362Y019317D01*
X029263Y019415D02*
X028101Y019415D01*
X028101Y019514D02*
X029165Y019514D01*
X028769Y019612D02*
X028101Y019612D01*
X028101Y019711D02*
X028670Y019711D01*
X028594Y019809D02*
X028101Y019809D01*
X028101Y019908D02*
X028553Y019908D01*
X028521Y020007D02*
X028101Y020007D01*
X028101Y020105D02*
X028521Y020105D01*
X028521Y020204D02*
X028101Y020204D01*
X028101Y020302D02*
X028556Y020302D01*
X028597Y020401D02*
X028101Y020401D01*
X028101Y020499D02*
X028679Y020499D01*
X028731Y020598D02*
X028101Y020598D01*
X028101Y020696D02*
X028731Y020696D01*
X028731Y020795D02*
X028101Y020795D01*
X028101Y020893D02*
X028731Y020893D01*
X028731Y020992D02*
X028101Y020992D01*
X028101Y021091D02*
X028731Y021091D01*
X028731Y021189D02*
X028101Y021189D01*
X028101Y021288D02*
X028731Y021288D01*
X028731Y021386D02*
X028101Y021386D01*
X028101Y021485D02*
X028731Y021485D01*
X028731Y021583D02*
X028101Y021583D01*
X028101Y021682D02*
X028731Y021682D01*
X028731Y021780D02*
X028101Y021780D01*
X028101Y021879D02*
X028731Y021879D01*
X028731Y021977D02*
X028101Y021977D01*
X028101Y022076D02*
X028731Y022076D01*
X028707Y022174D02*
X028101Y022174D01*
X028101Y022273D02*
X028609Y022273D01*
X028568Y022372D02*
X028101Y022372D01*
X028101Y022470D02*
X028527Y022470D01*
X028521Y022569D02*
X028101Y022569D01*
X028101Y022667D02*
X028521Y022667D01*
X028541Y022766D02*
X028101Y022766D01*
X028101Y022864D02*
X028582Y022864D01*
X028643Y022963D02*
X028101Y022963D01*
X028101Y023061D02*
X028741Y023061D01*
X028935Y023160D02*
X028101Y023160D01*
X028101Y018134D02*
X030491Y018134D01*
X030279Y018036D02*
X028101Y018036D01*
X028101Y017937D02*
X030181Y017937D01*
X030120Y017839D02*
X028101Y017839D01*
X028101Y017740D02*
X030079Y017740D01*
X030066Y017641D02*
X028101Y017641D01*
X028101Y017543D02*
X030066Y017543D01*
X030086Y017444D02*
X028101Y017444D01*
X028101Y017346D02*
X030127Y017346D01*
X030198Y017247D02*
X028101Y017247D01*
X028101Y017149D02*
X030231Y017149D01*
X030231Y017050D02*
X028101Y017050D01*
X028101Y016952D02*
X030231Y016952D01*
X030231Y016853D02*
X028101Y016853D01*
X028101Y016755D02*
X030231Y016755D01*
X030231Y016656D02*
X028101Y016656D01*
X028101Y016558D02*
X030231Y016558D01*
X030231Y016459D02*
X028101Y016459D01*
X028101Y016360D02*
X030231Y016360D01*
X030231Y016262D02*
X028101Y016262D01*
X028101Y016163D02*
X030231Y016163D01*
X030231Y016065D02*
X028101Y016065D01*
X028101Y015966D02*
X030231Y015966D01*
X030231Y015868D02*
X028101Y015868D01*
X028101Y015769D02*
X030231Y015769D01*
X030231Y015671D02*
X028741Y015671D01*
X028950Y015572D02*
X030231Y015572D01*
X030231Y015474D02*
X029048Y015474D01*
X029115Y015375D02*
X030231Y015375D01*
X030231Y015276D02*
X029156Y015276D01*
X029181Y015178D02*
X030231Y015178D01*
X030231Y015079D02*
X029181Y015079D01*
X029179Y014981D02*
X030231Y014981D01*
X030231Y014882D02*
X029138Y014882D01*
X029097Y014784D02*
X030231Y014784D01*
X030231Y014685D02*
X029005Y014685D01*
X028875Y014587D02*
X030231Y014587D01*
X030231Y014488D02*
X028342Y014488D01*
X028243Y014390D02*
X030231Y014390D01*
X030231Y014291D02*
X028145Y014291D01*
X028101Y014192D02*
X030231Y014192D01*
X030231Y014094D02*
X028101Y014094D01*
X028101Y013995D02*
X030231Y013995D01*
X030231Y013897D02*
X028101Y013897D01*
X028101Y013798D02*
X030231Y013798D01*
X030231Y013700D02*
X028101Y013700D01*
X028101Y013601D02*
X028293Y013601D01*
X028182Y013503D02*
X028101Y013503D01*
X028908Y013601D02*
X030231Y013601D01*
X030231Y013503D02*
X029019Y013503D01*
X029103Y013404D02*
X030231Y013404D01*
X030231Y013306D02*
X029144Y013306D01*
X029181Y013207D02*
X030231Y013207D01*
X030231Y013109D02*
X029181Y013109D01*
X029181Y013010D02*
X030238Y013010D01*
X030279Y012911D02*
X029150Y012911D01*
X029242Y012813D02*
X030365Y012813D01*
X030464Y012714D02*
X029341Y012714D01*
X029439Y012616D02*
X030563Y012616D01*
X030661Y012517D02*
X029538Y012517D01*
X029636Y012419D02*
X030760Y012419D01*
X030858Y012320D02*
X029735Y012320D01*
X029833Y012222D02*
X030957Y012222D01*
X031055Y012123D02*
X029932Y012123D01*
X030031Y012025D02*
X031154Y012025D01*
X031252Y011926D02*
X030129Y011926D01*
X030226Y011827D02*
X031351Y011827D01*
X031449Y011729D02*
X030263Y011729D01*
X030263Y011630D02*
X031548Y011630D01*
X031646Y011532D02*
X030263Y011532D01*
X030263Y011433D02*
X031745Y011433D01*
X031844Y011335D02*
X030263Y011335D01*
X030263Y011236D02*
X031942Y011236D01*
X032021Y011138D02*
X030263Y011138D01*
X030263Y011039D02*
X032021Y011039D01*
X032039Y010941D02*
X030263Y010941D01*
X030263Y010842D02*
X032080Y010842D01*
X032138Y010743D02*
X030263Y010743D01*
X030263Y010645D02*
X032236Y010645D01*
X032424Y010546D02*
X030263Y010546D01*
X030263Y010448D02*
X039289Y010448D01*
X039289Y010546D02*
X032778Y010546D01*
X032965Y010645D02*
X039289Y010645D01*
X039289Y010743D02*
X033064Y010743D01*
X033121Y010842D02*
X039289Y010842D01*
X039289Y010941D02*
X033162Y010941D01*
X033181Y011039D02*
X039289Y011039D01*
X039289Y011138D02*
X033181Y011138D01*
X033172Y011236D02*
X039289Y011236D01*
X039289Y011335D02*
X033132Y011335D01*
X033088Y011433D02*
X039289Y011433D01*
X039289Y011532D02*
X032990Y011532D01*
X032838Y011630D02*
X039289Y011630D01*
X039289Y011729D02*
X032496Y011729D01*
X032397Y011827D02*
X039289Y011827D01*
X039289Y011926D02*
X032299Y011926D01*
X032200Y012025D02*
X039289Y012025D01*
X039289Y012123D02*
X032102Y012123D01*
X032003Y012222D02*
X039289Y012222D01*
X039289Y012320D02*
X031905Y012320D01*
X031806Y012419D02*
X039289Y012419D01*
X039289Y012517D02*
X031708Y012517D01*
X031609Y012616D02*
X032266Y012616D01*
X032272Y012609D02*
X032485Y012521D01*
X032716Y012521D01*
X032929Y012609D01*
X033092Y012772D01*
X033181Y012985D01*
X033181Y013216D01*
X033092Y013429D01*
X032929Y013592D01*
X032716Y013681D01*
X032485Y013681D01*
X032272Y013592D01*
X032109Y013429D01*
X032021Y013216D01*
X032021Y012985D01*
X032109Y012772D01*
X032272Y012609D01*
X032167Y012714D02*
X031510Y012714D01*
X031412Y012813D02*
X032092Y012813D01*
X032051Y012911D02*
X031313Y012911D01*
X031215Y013010D02*
X032021Y013010D01*
X032021Y013109D02*
X031116Y013109D01*
X031018Y013207D02*
X032021Y013207D01*
X032058Y013306D02*
X030971Y013306D01*
X030971Y013404D02*
X032099Y013404D01*
X032182Y013503D02*
X030971Y013503D01*
X030971Y013601D02*
X032293Y013601D01*
X032908Y013601D02*
X039289Y013601D01*
X039289Y013503D02*
X033019Y013503D01*
X033103Y013404D02*
X039289Y013404D01*
X039289Y013306D02*
X033144Y013306D01*
X033181Y013207D02*
X039289Y013207D01*
X039289Y013109D02*
X033181Y013109D01*
X033181Y013010D02*
X039289Y013010D01*
X039289Y012911D02*
X033150Y012911D01*
X033109Y012813D02*
X039289Y012813D01*
X039289Y012714D02*
X033035Y012714D01*
X032936Y012616D02*
X039289Y012616D01*
X039289Y013700D02*
X030971Y013700D01*
X030971Y013798D02*
X039289Y013798D01*
X039289Y013897D02*
X030971Y013897D01*
X030971Y013995D02*
X039289Y013995D01*
X039289Y014094D02*
X030971Y014094D01*
X030971Y014192D02*
X039289Y014192D01*
X039289Y014291D02*
X030971Y014291D01*
X030971Y014390D02*
X039289Y014390D01*
X039289Y014488D02*
X030971Y014488D01*
X033005Y014685D02*
X036256Y014685D01*
X035989Y014784D02*
X033097Y014784D01*
X033138Y014882D02*
X035818Y014882D01*
X035697Y014981D02*
X033179Y014981D01*
X033181Y015079D02*
X035599Y015079D01*
X035505Y015178D02*
X033181Y015178D01*
X033156Y015276D02*
X035449Y015276D01*
X035392Y015375D02*
X033115Y015375D01*
X033048Y015474D02*
X035335Y015474D01*
X035308Y015572D02*
X032950Y015572D01*
X031296Y017149D02*
X030971Y017149D01*
X031004Y017247D02*
X031198Y017247D01*
X031127Y017346D02*
X031074Y017346D01*
X028461Y015671D02*
X028101Y015671D01*
X028101Y015572D02*
X028252Y015572D01*
X028153Y015474D02*
X028101Y015474D01*
X028101Y010743D02*
X028138Y010743D01*
X028101Y010645D02*
X028236Y010645D01*
X028101Y010546D02*
X028424Y010546D01*
X028730Y010448D02*
X028101Y010448D01*
X028101Y010349D02*
X028829Y010349D01*
X028928Y010251D02*
X028101Y010251D01*
X028101Y010152D02*
X029026Y010152D01*
X029125Y010054D02*
X027054Y010054D01*
X026955Y009955D02*
X029223Y009955D01*
X029231Y009857D02*
X026861Y009857D01*
X026861Y009758D02*
X029231Y009758D01*
X029231Y009659D02*
X028767Y009659D01*
X028716Y009681D02*
X028485Y009681D01*
X028272Y009592D01*
X028109Y009429D01*
X028021Y009216D01*
X028021Y008985D01*
X028109Y008772D01*
X028272Y008609D01*
X028485Y008521D01*
X028716Y008521D01*
X028929Y008609D01*
X029092Y008772D01*
X029181Y008985D01*
X029181Y009216D01*
X029092Y009429D01*
X028929Y009592D01*
X028716Y009681D01*
X028961Y009561D02*
X029231Y009561D01*
X029231Y009462D02*
X029059Y009462D01*
X029120Y009364D02*
X029231Y009364D01*
X029231Y009265D02*
X029160Y009265D01*
X029181Y009167D02*
X029231Y009167D01*
X029231Y009068D02*
X029181Y009068D01*
X029174Y008970D02*
X029231Y008970D01*
X029231Y008871D02*
X029133Y008871D01*
X029093Y008773D02*
X029231Y008773D01*
X029231Y008674D02*
X028994Y008674D01*
X028848Y008576D02*
X029231Y008576D01*
X029231Y008477D02*
X026861Y008477D01*
X026861Y008576D02*
X028353Y008576D01*
X028207Y008674D02*
X026861Y008674D01*
X026861Y008773D02*
X028109Y008773D01*
X028068Y008871D02*
X026861Y008871D01*
X026861Y008970D02*
X028027Y008970D01*
X028021Y009068D02*
X026861Y009068D01*
X026861Y009167D02*
X028021Y009167D01*
X028041Y009265D02*
X026861Y009265D01*
X026861Y009364D02*
X028082Y009364D01*
X028142Y009462D02*
X026861Y009462D01*
X026861Y009561D02*
X028241Y009561D01*
X028434Y009659D02*
X026861Y009659D01*
X026361Y009265D02*
X026265Y009265D01*
X026361Y009167D02*
X026167Y009167D01*
X026068Y009068D02*
X026361Y009068D01*
X026361Y008970D02*
X025970Y008970D01*
X025871Y008871D02*
X026361Y008871D01*
X026361Y008773D02*
X025773Y008773D01*
X025674Y008674D02*
X026361Y008674D01*
X026361Y008576D02*
X025576Y008576D01*
X025477Y008477D02*
X026361Y008477D01*
X026361Y008378D02*
X025378Y008378D01*
X025280Y008280D02*
X026361Y008280D01*
X026361Y008181D02*
X025181Y008181D01*
X025101Y008083D02*
X026361Y008083D01*
X026361Y007984D02*
X025101Y007984D01*
X025101Y007886D02*
X026361Y007886D01*
X026361Y007787D02*
X025101Y007787D01*
X025101Y007689D02*
X026361Y007689D01*
X026861Y007689D02*
X029231Y007689D01*
X029231Y007787D02*
X026861Y007787D01*
X026861Y007886D02*
X029231Y007886D01*
X029231Y007984D02*
X026861Y007984D01*
X026861Y008083D02*
X029231Y008083D01*
X029231Y008181D02*
X026861Y008181D01*
X026861Y008280D02*
X029231Y008280D01*
X029231Y008378D02*
X026861Y008378D01*
X026861Y007590D02*
X029231Y007590D01*
X029231Y007492D02*
X026861Y007492D01*
X026861Y007393D02*
X029167Y007393D01*
X029126Y007294D02*
X026861Y007294D01*
X026861Y007196D02*
X029111Y007196D01*
X029111Y007097D02*
X026861Y007097D01*
X026861Y006999D02*
X029111Y006999D01*
X029111Y006900D02*
X026861Y006900D01*
X026861Y006802D02*
X029111Y006802D01*
X029111Y006703D02*
X026861Y006703D01*
X026861Y006605D02*
X029111Y006605D01*
X029111Y006506D02*
X026861Y006506D01*
X026861Y006408D02*
X029150Y006408D01*
X029200Y006309D02*
X026861Y006309D01*
X026861Y006210D02*
X029298Y006210D01*
X029501Y006112D02*
X026861Y006112D01*
X026861Y006013D02*
X029763Y006013D01*
X029763Y005915D02*
X026861Y005915D01*
X026861Y005816D02*
X029763Y005816D01*
X029763Y005718D02*
X026861Y005718D01*
X026861Y005619D02*
X029763Y005619D01*
X029763Y005521D02*
X026844Y005521D01*
X026776Y005422D02*
X029763Y005422D01*
X029763Y005324D02*
X026677Y005324D01*
X026677Y005225D02*
X029763Y005225D01*
X029763Y005126D02*
X026681Y005126D01*
X026681Y005028D02*
X029763Y005028D01*
X029763Y004929D02*
X026658Y004929D01*
X026617Y004831D02*
X029763Y004831D01*
X029763Y004732D02*
X026553Y004732D01*
X026454Y004634D02*
X029763Y004634D01*
X029763Y004535D02*
X026387Y004535D01*
X026499Y004437D02*
X029683Y004437D01*
X029585Y004338D02*
X026563Y004338D01*
X026602Y004240D02*
X029486Y004240D01*
X029996Y004043D02*
X031387Y004043D01*
X031251Y003944D02*
X030860Y003944D01*
X030881Y003929D02*
X030826Y003969D01*
X030766Y003999D01*
X030701Y004020D01*
X030635Y004031D01*
X030631Y004031D01*
X030631Y003631D01*
X030571Y003631D01*
X030571Y004031D01*
X030567Y004031D01*
X030500Y004020D01*
X030436Y003999D01*
X030375Y003969D01*
X030321Y003929D01*
X030273Y003881D01*
X030233Y003826D01*
X030202Y003766D01*
X030181Y003701D01*
X030171Y003635D01*
X030171Y003631D01*
X030571Y003631D01*
X030571Y003571D01*
X030171Y003571D01*
X030171Y003007D01*
X030181Y002940D01*
X030202Y002876D01*
X030233Y002815D01*
X030273Y002761D01*
X030321Y002713D01*
X030375Y002673D01*
X030436Y002642D01*
X030500Y002621D01*
X030567Y002611D01*
X030571Y002611D01*
X030571Y003571D01*
X030631Y003571D01*
X030631Y003631D01*
X031031Y003631D01*
X031031Y003635D01*
X031020Y003701D01*
X030999Y003766D01*
X030969Y003826D01*
X030929Y003881D01*
X030881Y003929D01*
X030955Y003845D02*
X031172Y003845D01*
X031131Y003747D02*
X031005Y003747D01*
X031029Y003648D02*
X031111Y003648D01*
X031111Y003550D02*
X031031Y003550D01*
X031031Y003571D02*
X030631Y003571D01*
X030631Y002611D01*
X030635Y002611D01*
X030701Y002621D01*
X030766Y002642D01*
X030826Y002673D01*
X030881Y002713D01*
X030929Y002761D01*
X030969Y002815D01*
X030999Y002876D01*
X031020Y002940D01*
X031031Y003007D01*
X031031Y003571D01*
X031031Y003451D02*
X031111Y003451D01*
X031111Y003353D02*
X031031Y003353D01*
X031031Y003254D02*
X031111Y003254D01*
X031111Y003156D02*
X031031Y003156D01*
X031031Y003057D02*
X031111Y003057D01*
X031111Y002959D02*
X031023Y002959D01*
X030991Y002860D02*
X031145Y002860D01*
X031187Y002761D02*
X030929Y002761D01*
X030806Y002663D02*
X031286Y002663D01*
X030631Y002663D02*
X030571Y002663D01*
X030571Y002761D02*
X030631Y002761D01*
X030631Y002860D02*
X030571Y002860D01*
X030571Y002959D02*
X030631Y002959D01*
X030631Y003057D02*
X030571Y003057D01*
X030571Y003156D02*
X030631Y003156D01*
X030631Y003254D02*
X030571Y003254D01*
X030571Y003353D02*
X030631Y003353D01*
X030631Y003451D02*
X030571Y003451D01*
X030571Y003550D02*
X030631Y003550D01*
X030631Y003648D02*
X030571Y003648D01*
X030571Y003747D02*
X030631Y003747D01*
X030631Y003845D02*
X030571Y003845D01*
X030571Y003944D02*
X030631Y003944D01*
X030342Y003944D02*
X029951Y003944D01*
X030030Y003845D02*
X030247Y003845D01*
X030196Y003747D02*
X030071Y003747D01*
X030091Y003648D02*
X030173Y003648D01*
X030171Y003550D02*
X030091Y003550D01*
X030091Y003451D02*
X030171Y003451D01*
X030171Y003353D02*
X030091Y003353D01*
X030091Y003254D02*
X030171Y003254D01*
X030171Y003156D02*
X030091Y003156D01*
X030091Y003057D02*
X030171Y003057D01*
X030178Y002959D02*
X030091Y002959D01*
X030056Y002860D02*
X030210Y002860D01*
X030272Y002761D02*
X030014Y002761D01*
X029916Y002663D02*
X030395Y002663D01*
X031916Y002663D02*
X035185Y002663D01*
X035087Y002761D02*
X032014Y002761D01*
X032056Y002860D02*
X034988Y002860D01*
X034889Y002959D02*
X032091Y002959D01*
X032091Y003057D02*
X034791Y003057D01*
X034692Y003156D02*
X032091Y003156D01*
X032091Y003254D02*
X034594Y003254D01*
X034495Y003353D02*
X032091Y003353D01*
X032091Y003451D02*
X034397Y003451D01*
X034298Y003550D02*
X032091Y003550D01*
X032091Y003648D02*
X033797Y003648D01*
X033698Y003747D02*
X032071Y003747D01*
X032030Y003845D02*
X033627Y003845D01*
X033587Y003944D02*
X031951Y003944D01*
X031815Y004043D02*
X033566Y004043D01*
X033566Y004141D02*
X030094Y004141D01*
X030193Y004240D02*
X033579Y004240D01*
X033620Y004338D02*
X030253Y004338D01*
X030263Y004437D02*
X033680Y004437D01*
X033779Y004535D02*
X030263Y004535D01*
X030263Y004634D02*
X033990Y004634D01*
X034212Y004634D02*
X034731Y004634D01*
X034731Y004732D02*
X030263Y004732D01*
X030263Y004831D02*
X034731Y004831D01*
X034731Y004929D02*
X030263Y004929D01*
X030263Y005028D02*
X034731Y005028D01*
X034731Y005126D02*
X030263Y005126D01*
X030263Y005225D02*
X034731Y005225D01*
X034731Y005324D02*
X030263Y005324D01*
X030263Y005422D02*
X034731Y005422D01*
X034731Y005521D02*
X030263Y005521D01*
X030263Y005619D02*
X034731Y005619D01*
X034731Y005718D02*
X030263Y005718D01*
X030263Y005816D02*
X034731Y005816D01*
X034731Y005915D02*
X030263Y005915D01*
X030263Y006013D02*
X034731Y006013D01*
X034731Y006112D02*
X031701Y006112D01*
X031698Y006111D02*
X031878Y006185D01*
X032016Y006323D01*
X032091Y006503D01*
X032091Y007258D01*
X032016Y007438D01*
X031878Y007576D01*
X031698Y007651D01*
X031503Y007651D01*
X031323Y007576D01*
X031185Y007438D01*
X031111Y007258D01*
X031111Y006503D01*
X031185Y006323D01*
X031323Y006185D01*
X031503Y006111D01*
X031698Y006111D01*
X031501Y006112D02*
X030701Y006112D01*
X030501Y006112D02*
X030263Y006112D01*
X030263Y006210D02*
X030298Y006210D01*
X029763Y006112D02*
X029701Y006112D01*
X030903Y006210D02*
X031298Y006210D01*
X031200Y006309D02*
X031002Y006309D01*
X031051Y006408D02*
X031150Y006408D01*
X031111Y006506D02*
X031091Y006506D01*
X031091Y006605D02*
X031111Y006605D01*
X031111Y006703D02*
X031091Y006703D01*
X031091Y006802D02*
X031111Y006802D01*
X031111Y006900D02*
X031091Y006900D01*
X031091Y006999D02*
X031111Y006999D01*
X031111Y007097D02*
X031091Y007097D01*
X031091Y007196D02*
X031111Y007196D01*
X031126Y007294D02*
X031076Y007294D01*
X031035Y007393D02*
X031167Y007393D01*
X031239Y007492D02*
X030963Y007492D01*
X030845Y007590D02*
X031357Y007590D01*
X031845Y007590D02*
X034731Y007590D01*
X034731Y007492D02*
X031963Y007492D01*
X032035Y007393D02*
X034731Y007393D01*
X034731Y007294D02*
X032076Y007294D01*
X032091Y007196D02*
X034731Y007196D01*
X034731Y007097D02*
X032091Y007097D01*
X032091Y006999D02*
X034731Y006999D01*
X034731Y006900D02*
X032091Y006900D01*
X032091Y006802D02*
X034731Y006802D01*
X034731Y006703D02*
X032091Y006703D01*
X032091Y006605D02*
X034731Y006605D01*
X034731Y006506D02*
X032091Y006506D01*
X032051Y006408D02*
X034731Y006408D01*
X034731Y006309D02*
X032002Y006309D01*
X031903Y006210D02*
X034731Y006210D01*
X035471Y006210D02*
X037298Y006210D01*
X037323Y006185D02*
X037503Y006111D01*
X037698Y006111D01*
X037878Y006185D01*
X038016Y006323D01*
X038091Y006503D01*
X038091Y007258D01*
X038016Y007438D01*
X037878Y007576D01*
X037698Y007651D01*
X037503Y007651D01*
X037323Y007576D01*
X037185Y007438D01*
X037111Y007258D01*
X037111Y006503D01*
X037185Y006323D01*
X037323Y006185D01*
X037200Y006309D02*
X035471Y006309D01*
X035471Y006408D02*
X037150Y006408D01*
X037111Y006506D02*
X035471Y006506D01*
X035471Y006605D02*
X037111Y006605D01*
X037111Y006703D02*
X035471Y006703D01*
X035471Y006802D02*
X037111Y006802D01*
X037111Y006900D02*
X035471Y006900D01*
X035471Y006999D02*
X037111Y006999D01*
X037111Y007097D02*
X035471Y007097D01*
X035471Y007196D02*
X037111Y007196D01*
X037126Y007294D02*
X035471Y007294D01*
X035471Y007393D02*
X037167Y007393D01*
X037239Y007492D02*
X035471Y007492D01*
X035471Y007507D02*
X035914Y007951D01*
X035971Y008087D01*
X035971Y008234D01*
X035971Y008353D01*
X036067Y008449D01*
X036101Y008531D01*
X036135Y008449D01*
X036289Y008295D01*
X036491Y008211D01*
X036710Y008211D01*
X036912Y008295D01*
X037067Y008449D01*
X037101Y008531D01*
X037135Y008449D01*
X037289Y008295D01*
X037491Y008211D01*
X037710Y008211D01*
X037912Y008295D01*
X038067Y008449D01*
X038151Y008651D01*
X038151Y009550D01*
X038100Y009673D01*
X039505Y009673D01*
X042021Y007158D01*
X042021Y006985D01*
X042109Y006772D01*
X042272Y006609D01*
X042428Y006545D01*
X040394Y004511D01*
X037674Y004511D01*
X037527Y004511D01*
X037391Y004454D01*
X037287Y004350D01*
X037231Y004214D01*
X037231Y003924D01*
X037185Y003878D01*
X037111Y003698D01*
X037111Y002943D01*
X037133Y002889D01*
X035666Y002889D01*
X034986Y003569D01*
X034994Y003566D01*
X035207Y003566D01*
X035404Y003647D01*
X035554Y003798D01*
X035636Y003994D01*
X035636Y004207D01*
X035554Y004404D01*
X035471Y004487D01*
X035471Y007507D01*
X035553Y007590D02*
X037357Y007590D01*
X037845Y007590D02*
X038357Y007590D01*
X038323Y007576D02*
X038503Y007651D01*
X038698Y007651D01*
X038878Y007576D01*
X039016Y007438D01*
X039091Y007258D01*
X039091Y006503D01*
X039016Y006323D01*
X038878Y006185D01*
X038698Y006111D01*
X038503Y006111D01*
X038323Y006185D01*
X038185Y006323D01*
X038111Y006503D01*
X038111Y007258D01*
X038185Y007438D01*
X038323Y007576D01*
X038239Y007492D02*
X037963Y007492D01*
X038035Y007393D02*
X038167Y007393D01*
X038126Y007294D02*
X038076Y007294D01*
X038091Y007196D02*
X038111Y007196D01*
X038111Y007097D02*
X038091Y007097D01*
X038091Y006999D02*
X038111Y006999D01*
X038111Y006900D02*
X038091Y006900D01*
X038091Y006802D02*
X038111Y006802D01*
X038111Y006703D02*
X038091Y006703D01*
X038091Y006605D02*
X038111Y006605D01*
X038111Y006506D02*
X038091Y006506D01*
X038051Y006408D02*
X038150Y006408D01*
X038200Y006309D02*
X038002Y006309D01*
X037903Y006210D02*
X038298Y006210D01*
X038501Y006112D02*
X037701Y006112D01*
X037501Y006112D02*
X035471Y006112D01*
X035471Y006013D02*
X041897Y006013D01*
X041798Y005915D02*
X035471Y005915D01*
X035471Y005816D02*
X041700Y005816D01*
X041601Y005718D02*
X035471Y005718D01*
X035471Y005619D02*
X041503Y005619D01*
X041404Y005521D02*
X035471Y005521D01*
X035471Y005422D02*
X041306Y005422D01*
X041207Y005324D02*
X035471Y005324D01*
X035471Y005225D02*
X041109Y005225D01*
X041010Y005126D02*
X035471Y005126D01*
X035471Y005028D02*
X040911Y005028D01*
X040813Y004929D02*
X035471Y004929D01*
X035471Y004831D02*
X040714Y004831D01*
X040616Y004732D02*
X035471Y004732D01*
X035471Y004634D02*
X040517Y004634D01*
X040419Y004535D02*
X035471Y004535D01*
X035521Y004437D02*
X037373Y004437D01*
X037282Y004338D02*
X035582Y004338D01*
X035622Y004240D02*
X037241Y004240D01*
X037231Y004141D02*
X035636Y004141D01*
X035636Y004043D02*
X037231Y004043D01*
X037231Y003944D02*
X035615Y003944D01*
X035574Y003845D02*
X037172Y003845D01*
X037131Y003747D02*
X035503Y003747D01*
X035405Y003648D02*
X037111Y003648D01*
X037111Y003550D02*
X035005Y003550D01*
X035104Y003451D02*
X037111Y003451D01*
X037111Y003353D02*
X035202Y003353D01*
X035301Y003254D02*
X037111Y003254D01*
X037111Y003156D02*
X035399Y003156D01*
X035498Y003057D02*
X037111Y003057D01*
X037111Y002959D02*
X035596Y002959D01*
X034620Y004338D02*
X034581Y004338D01*
X034521Y004437D02*
X034680Y004437D01*
X034731Y004535D02*
X034423Y004535D01*
X038701Y006112D02*
X041995Y006112D01*
X042094Y006210D02*
X039782Y006210D01*
X039766Y006202D02*
X039826Y006233D01*
X039881Y006273D01*
X039929Y006321D01*
X039969Y006375D01*
X039999Y006436D01*
X040020Y006500D01*
X040031Y006567D01*
X040031Y006571D01*
X039631Y006571D01*
X039631Y006631D01*
X040031Y006631D01*
X040031Y007195D01*
X040020Y007261D01*
X039999Y007326D01*
X039969Y007386D01*
X039929Y007441D01*
X039881Y007489D01*
X039826Y007529D01*
X039766Y007559D01*
X039701Y007580D01*
X039635Y007591D01*
X039631Y007591D01*
X039631Y006631D01*
X039571Y006631D01*
X039571Y007591D01*
X039567Y007591D01*
X039500Y007580D01*
X039436Y007559D01*
X039375Y007529D01*
X039321Y007489D01*
X039273Y007441D01*
X039233Y007386D01*
X039202Y007326D01*
X039181Y007261D01*
X039171Y007195D01*
X039171Y006631D01*
X039571Y006631D01*
X039571Y006571D01*
X039631Y006571D01*
X039631Y006171D01*
X039635Y006171D01*
X039701Y006181D01*
X039766Y006202D01*
X039631Y006210D02*
X039571Y006210D01*
X039571Y006171D02*
X039571Y006571D01*
X039171Y006571D01*
X039171Y006567D01*
X039181Y006500D01*
X039202Y006436D01*
X039233Y006375D01*
X039273Y006321D01*
X039321Y006273D01*
X039375Y006233D01*
X039436Y006202D01*
X039500Y006181D01*
X039567Y006171D01*
X039571Y006171D01*
X039571Y006309D02*
X039631Y006309D01*
X039631Y006408D02*
X039571Y006408D01*
X039571Y006506D02*
X039631Y006506D01*
X039631Y006605D02*
X042283Y006605D01*
X042178Y006703D02*
X040031Y006703D01*
X040031Y006802D02*
X042097Y006802D01*
X042056Y006900D02*
X040031Y006900D01*
X040031Y006999D02*
X042021Y006999D01*
X042021Y007097D02*
X040031Y007097D01*
X040031Y007196D02*
X041982Y007196D01*
X041884Y007294D02*
X040009Y007294D01*
X039964Y007393D02*
X041785Y007393D01*
X041687Y007492D02*
X039877Y007492D01*
X039631Y007492D02*
X039571Y007492D01*
X039571Y007590D02*
X039631Y007590D01*
X039639Y007590D02*
X041588Y007590D01*
X041490Y007689D02*
X035652Y007689D01*
X035750Y007787D02*
X041391Y007787D01*
X041293Y007886D02*
X035849Y007886D01*
X035928Y007984D02*
X041194Y007984D01*
X041096Y008083D02*
X035969Y008083D01*
X035971Y008181D02*
X040997Y008181D01*
X040898Y008280D02*
X037877Y008280D01*
X037996Y008378D02*
X040800Y008378D01*
X040701Y008477D02*
X038079Y008477D01*
X038119Y008576D02*
X040603Y008576D01*
X040504Y008674D02*
X038151Y008674D01*
X038151Y008773D02*
X040406Y008773D01*
X040307Y008871D02*
X038151Y008871D01*
X038151Y008970D02*
X040209Y008970D01*
X040110Y009068D02*
X038151Y009068D01*
X038151Y009167D02*
X040012Y009167D01*
X039913Y009265D02*
X038151Y009265D01*
X038151Y009364D02*
X039814Y009364D01*
X039716Y009462D02*
X038151Y009462D01*
X038146Y009561D02*
X039617Y009561D01*
X039519Y009659D02*
X038105Y009659D01*
X037123Y008477D02*
X037078Y008477D01*
X036996Y008378D02*
X037205Y008378D01*
X037325Y008280D02*
X036877Y008280D01*
X036325Y008280D02*
X035971Y008280D01*
X035996Y008378D02*
X036205Y008378D01*
X036123Y008477D02*
X036078Y008477D01*
X035205Y008378D02*
X030263Y008378D01*
X030263Y008280D02*
X035197Y008280D01*
X035098Y008181D02*
X030263Y008181D01*
X030263Y008083D02*
X035000Y008083D01*
X034901Y007984D02*
X030263Y007984D01*
X030263Y007886D02*
X034803Y007886D01*
X034753Y007787D02*
X030263Y007787D01*
X030263Y007689D02*
X034731Y007689D01*
X035123Y008477D02*
X030263Y008477D01*
X030263Y008576D02*
X032353Y008576D01*
X032207Y008674D02*
X030263Y008674D01*
X030263Y008773D02*
X032109Y008773D01*
X032068Y008871D02*
X030263Y008871D01*
X030263Y008970D02*
X032027Y008970D01*
X032021Y009068D02*
X030263Y009068D01*
X030263Y009167D02*
X032021Y009167D01*
X032041Y009265D02*
X030263Y009265D01*
X030263Y009364D02*
X032082Y009364D01*
X032142Y009462D02*
X030263Y009462D01*
X030263Y009561D02*
X032241Y009561D01*
X032434Y009659D02*
X030263Y009659D01*
X030263Y009758D02*
X032735Y009758D01*
X032833Y009857D02*
X030263Y009857D01*
X030263Y009955D02*
X032932Y009955D01*
X033030Y010054D02*
X030263Y010054D01*
X030263Y010152D02*
X033129Y010152D01*
X033228Y010251D02*
X030263Y010251D01*
X030263Y010349D02*
X033326Y010349D01*
X033683Y009659D02*
X035096Y009659D01*
X035055Y009561D02*
X033584Y009561D01*
X033486Y009462D02*
X035051Y009462D01*
X035051Y009364D02*
X033387Y009364D01*
X033289Y009265D02*
X035051Y009265D01*
X035051Y009167D02*
X033190Y009167D01*
X033181Y009068D02*
X035051Y009068D01*
X035051Y008970D02*
X033174Y008970D01*
X033133Y008871D02*
X035051Y008871D01*
X035051Y008773D02*
X033093Y008773D01*
X032994Y008674D02*
X035051Y008674D01*
X035082Y008576D02*
X032848Y008576D01*
X030357Y007590D02*
X030263Y007590D01*
X025770Y007590D02*
X025101Y007590D01*
X025101Y007492D02*
X025671Y007492D01*
X025594Y007393D02*
X025101Y007393D01*
X025101Y007294D02*
X025553Y007294D01*
X025521Y007196D02*
X025101Y007196D01*
X025101Y007097D02*
X025521Y007097D01*
X025521Y006999D02*
X025101Y006999D01*
X025101Y006900D02*
X025556Y006900D01*
X025597Y006802D02*
X025101Y006802D01*
X025101Y006703D02*
X025678Y006703D01*
X025783Y006605D02*
X025101Y006605D01*
X025101Y006506D02*
X025686Y006506D01*
X025600Y006408D02*
X025101Y006408D01*
X025101Y006309D02*
X025559Y006309D01*
X025521Y006210D02*
X025101Y006210D01*
X025101Y006112D02*
X025521Y006112D01*
X025521Y006013D02*
X025101Y006013D01*
X025101Y005915D02*
X025550Y005915D01*
X025591Y005816D02*
X025101Y005816D01*
X025101Y005718D02*
X025664Y005718D01*
X025762Y005619D02*
X025101Y005619D01*
X025101Y005521D02*
X025700Y005521D01*
X025606Y005422D02*
X025101Y005422D01*
X025101Y005324D02*
X025565Y005324D01*
X025524Y005225D02*
X025101Y005225D01*
X025101Y005126D02*
X025521Y005126D01*
X025521Y005028D02*
X025101Y005028D01*
X025101Y004929D02*
X025544Y004929D01*
X025585Y004831D02*
X025101Y004831D01*
X025101Y004732D02*
X025649Y004732D01*
X025748Y004634D02*
X025101Y004634D01*
X025101Y004535D02*
X025814Y004535D01*
X025702Y004437D02*
X025101Y004437D01*
X025101Y004338D02*
X025638Y004338D01*
X025599Y004240D02*
X025101Y004240D01*
X026659Y002269D02*
X043439Y002269D01*
X043383Y002170D02*
X026681Y002170D01*
X026681Y002072D02*
X043354Y002072D01*
X043366Y002141D02*
X043366Y002141D01*
X043336Y001973D02*
X026676Y001973D01*
X026635Y001875D02*
X043319Y001875D01*
X043310Y001776D02*
X026594Y001776D01*
X026498Y001677D02*
X043327Y001677D01*
X043345Y001579D02*
X026356Y001579D01*
X025101Y001480D02*
X043362Y001480D01*
X043366Y001460D02*
X043366Y001460D01*
X043411Y001382D02*
X025101Y001382D01*
X025101Y001283D02*
X043468Y001283D01*
X043525Y001185D02*
X025101Y001185D01*
X022551Y004141D02*
X021914Y004141D01*
X022013Y004043D02*
X022084Y004043D01*
X022099Y004240D02*
X021815Y004240D01*
X021765Y004338D02*
X022138Y004338D01*
X022202Y004437D02*
X021765Y004437D01*
X021765Y004535D02*
X022314Y004535D01*
X022248Y004634D02*
X021751Y004634D01*
X021687Y004732D02*
X022149Y004732D01*
X022085Y004831D02*
X021589Y004831D01*
X021490Y004929D02*
X022044Y004929D01*
X022021Y005028D02*
X021392Y005028D01*
X021293Y005126D02*
X022021Y005126D01*
X022024Y005225D02*
X021194Y005225D01*
X021096Y005324D02*
X022065Y005324D01*
X022106Y005422D02*
X020997Y005422D01*
X020899Y005521D02*
X022200Y005521D01*
X022262Y005619D02*
X020800Y005619D01*
X020980Y004732D02*
X015174Y004732D01*
X015181Y004634D02*
X021079Y004634D01*
X021177Y004535D02*
X015181Y004535D01*
X015161Y004437D02*
X021265Y004437D01*
X021265Y004338D02*
X015120Y004338D01*
X015060Y004240D02*
X017082Y004240D01*
X016931Y004141D02*
X014961Y004141D01*
X014769Y004043D02*
X016832Y004043D01*
X016790Y003944D02*
X014297Y003944D01*
X014199Y003845D02*
X016749Y003845D01*
X016741Y003747D02*
X014100Y003747D01*
X014002Y003648D02*
X016741Y003648D01*
X016760Y003550D02*
X013903Y003550D01*
X013805Y003451D02*
X016800Y003451D01*
X016859Y003353D02*
X013706Y003353D01*
X013608Y003254D02*
X016957Y003254D01*
X017145Y003156D02*
X013509Y003156D01*
X013196Y003550D02*
X008979Y003550D01*
X009104Y003451D02*
X013098Y003451D01*
X012999Y003353D02*
X009202Y003353D01*
X009301Y003254D02*
X012901Y003254D01*
X012802Y003156D02*
X009399Y003156D01*
X009498Y003057D02*
X012704Y003057D01*
X012605Y002959D02*
X009596Y002959D01*
X009695Y002860D02*
X012507Y002860D01*
X012408Y002761D02*
X009794Y002761D01*
X009892Y002663D02*
X009942Y002663D01*
X010259Y002663D02*
X011012Y002663D01*
X010814Y002564D02*
X010457Y002564D01*
X010556Y002466D02*
X010716Y002466D01*
X010653Y002367D02*
X010618Y002367D01*
X010635Y001875D02*
X010637Y001875D01*
X010594Y001776D02*
X010678Y001776D01*
X010774Y001677D02*
X010498Y001677D01*
X010356Y001579D02*
X010915Y001579D01*
X009845Y001579D02*
X009286Y001579D01*
X009428Y001677D02*
X009704Y001677D01*
X009608Y001776D02*
X009524Y001776D01*
X009565Y001875D02*
X009567Y001875D01*
X011329Y002663D02*
X012309Y002663D01*
X012211Y002564D02*
X011527Y002564D01*
X011626Y002466D02*
X012112Y002466D01*
X012014Y002367D02*
X011688Y002367D01*
X014396Y004043D02*
X014433Y004043D01*
X017271Y005619D02*
X017371Y005619D01*
X017371Y005718D02*
X017271Y005718D01*
X017271Y005816D02*
X017371Y005816D01*
X017371Y005915D02*
X017271Y005915D01*
X021500Y009265D02*
X022571Y009265D01*
X022574Y009167D02*
X021598Y009167D01*
X021697Y009068D02*
X022615Y009068D01*
X022662Y008970D02*
X021795Y008970D01*
X021894Y008871D02*
X022761Y008871D01*
X022858Y008773D02*
X021992Y008773D01*
X022091Y008674D02*
X022914Y008674D01*
X023011Y008576D02*
X022189Y008576D01*
X022288Y008477D02*
X023011Y008477D01*
X023011Y008378D02*
X022386Y008378D01*
X022485Y008280D02*
X023011Y008280D01*
X023011Y008181D02*
X022584Y008181D01*
X022682Y008083D02*
X023011Y008083D01*
X023011Y007984D02*
X022781Y007984D01*
X022879Y007886D02*
X023011Y007886D01*
X023011Y007787D02*
X022978Y007787D01*
X022571Y009364D02*
X021401Y009364D01*
X021302Y009462D02*
X022571Y009462D01*
X022571Y009561D02*
X021204Y009561D01*
X021105Y009659D02*
X022571Y009659D01*
X022571Y009758D02*
X021007Y009758D01*
X014240Y012714D02*
X013493Y012714D01*
X013619Y012813D02*
X014142Y012813D01*
X014043Y012911D02*
X013694Y012911D01*
X013735Y013010D02*
X013944Y013010D01*
X013846Y013109D02*
X013752Y013109D01*
X011546Y013306D02*
X010727Y013306D01*
X010686Y013404D02*
X011448Y013404D01*
X011349Y013503D02*
X010601Y013503D01*
X010450Y013601D02*
X011251Y013601D01*
X011152Y013700D02*
X010458Y013700D01*
X010604Y013798D02*
X011054Y013798D01*
X010955Y013897D02*
X010688Y013897D01*
X010729Y013995D02*
X010857Y013995D01*
X010758Y014094D02*
X010752Y014094D01*
X010388Y015671D02*
X012052Y015671D01*
X012052Y016755D02*
X010561Y016755D01*
X010659Y016853D02*
X012052Y016853D01*
X012052Y016952D02*
X010710Y016952D01*
X010751Y017050D02*
X012052Y017050D01*
X012052Y017149D02*
X010752Y017149D01*
X010751Y017247D02*
X012052Y017247D01*
X012052Y017346D02*
X010710Y017346D01*
X010659Y017444D02*
X012052Y017444D01*
X011985Y017641D02*
X006662Y017641D01*
X006251Y017937D02*
X006235Y017937D01*
X006136Y018036D02*
X006349Y018036D01*
X006448Y018134D02*
X006038Y018134D01*
X005939Y018233D02*
X006546Y018233D01*
X006645Y018331D02*
X005841Y018331D01*
X005742Y018430D02*
X009290Y018430D01*
X009286Y018426D02*
X009275Y018399D01*
X009286Y018426D02*
X009424Y018564D01*
X009604Y018639D01*
X010359Y018639D01*
X010539Y018564D01*
X010677Y018426D01*
X010752Y018246D01*
X010752Y018051D01*
X010677Y017871D01*
X010539Y017733D01*
X010546Y017740D02*
X011887Y017740D01*
X011788Y017839D02*
X010645Y017839D01*
X010704Y017937D02*
X011690Y017937D01*
X011591Y018036D02*
X010745Y018036D01*
X010752Y018134D02*
X011493Y018134D01*
X011394Y018233D02*
X010752Y018233D01*
X010716Y018331D02*
X011296Y018331D01*
X011197Y018430D02*
X010674Y018430D01*
X010575Y018528D02*
X011098Y018528D01*
X011000Y018627D02*
X010388Y018627D01*
X010338Y018725D02*
X010901Y018725D01*
X010803Y018824D02*
X010545Y018824D01*
X009576Y018627D02*
X005545Y018627D01*
X005644Y018528D02*
X009388Y018528D01*
X011355Y019809D02*
X012101Y019809D01*
X012200Y019711D02*
X011453Y019711D01*
X011552Y019612D02*
X012298Y019612D01*
X012374Y019514D02*
X011650Y019514D01*
X011749Y019415D02*
X012282Y019415D01*
X012003Y019908D02*
X011256Y019908D01*
X011158Y020007D02*
X011904Y020007D01*
X011805Y020105D02*
X011059Y020105D01*
X010960Y020204D02*
X011707Y020204D01*
X011608Y020302D02*
X010862Y020302D01*
X010688Y020401D02*
X011510Y020401D01*
X011411Y020499D02*
X010604Y020499D01*
X010458Y020598D02*
X011313Y020598D01*
X011214Y020696D02*
X010450Y020696D01*
X010601Y020795D02*
X011116Y020795D01*
X011017Y020893D02*
X010686Y020893D01*
X010727Y020992D02*
X010919Y020992D01*
X010820Y021091D02*
X010752Y021091D01*
X007316Y019415D02*
X005596Y019415D01*
X005636Y019514D02*
X007218Y019514D01*
X007119Y019612D02*
X005653Y019612D01*
X005648Y019711D02*
X007021Y019711D01*
X006922Y019809D02*
X005622Y019809D01*
X005571Y019908D02*
X006824Y019908D01*
X006725Y020007D02*
X005482Y020007D01*
X005197Y020007D02*
X005159Y020007D01*
X005159Y019908D02*
X005197Y019908D01*
X004961Y019218D02*
X004954Y019218D01*
X003911Y018824D02*
X003460Y018824D01*
X003389Y018923D02*
X003812Y018923D01*
X003714Y019021D02*
X003389Y019021D01*
X003389Y019120D02*
X003615Y019120D01*
X003517Y019218D02*
X003389Y019218D01*
X003389Y019317D02*
X003472Y019317D01*
X003472Y019415D02*
X003389Y019415D01*
X003389Y019514D02*
X003472Y019514D01*
X003472Y019612D02*
X003389Y019612D01*
X003389Y019711D02*
X003472Y019711D01*
X003472Y019809D02*
X003389Y019809D01*
X003389Y019908D02*
X003472Y019908D01*
X003472Y020007D02*
X003389Y020007D01*
X003389Y020105D02*
X003472Y020105D01*
X003472Y020204D02*
X003389Y020204D01*
X003389Y020302D02*
X003472Y020302D01*
X003472Y020401D02*
X003389Y020401D01*
X003389Y020499D02*
X003472Y020499D01*
X003472Y020598D02*
X003389Y020598D01*
X003389Y020696D02*
X003472Y020696D01*
X003472Y020795D02*
X003389Y020795D01*
X003389Y020893D02*
X003472Y020893D01*
X003472Y020992D02*
X003389Y020992D01*
X003389Y021091D02*
X003472Y021091D01*
X003503Y021189D02*
X003389Y021189D01*
X003389Y021288D02*
X003591Y021288D01*
X003690Y021386D02*
X003389Y021386D01*
X003389Y021485D02*
X003727Y021485D01*
X003723Y021583D02*
X003389Y021583D01*
X003389Y021682D02*
X003723Y021682D01*
X003753Y021780D02*
X003389Y021780D01*
X003389Y021879D02*
X003794Y021879D01*
X003878Y021977D02*
X003389Y021977D01*
X003389Y022076D02*
X004007Y022076D01*
X005239Y021977D02*
X005277Y021977D01*
X005277Y021879D02*
X005239Y021879D01*
X005239Y021780D02*
X005277Y021780D01*
X005277Y021682D02*
X005239Y021682D01*
X005547Y021977D02*
X006149Y021977D01*
X006149Y021879D02*
X005643Y021879D01*
X005699Y021780D02*
X006149Y021780D01*
X006149Y021682D02*
X005726Y021682D01*
X002339Y024768D02*
X002239Y024768D01*
X002239Y025138D01*
X002339Y025138D01*
X002339Y024768D01*
X002339Y024835D02*
X002239Y024835D01*
X002239Y024934D02*
X002339Y024934D01*
X002339Y025032D02*
X002239Y025032D01*
X002239Y025131D02*
X002339Y025131D01*
X002869Y025624D02*
X002885Y025624D01*
X007003Y029171D02*
X007991Y029171D01*
X008030Y029270D02*
X006976Y029270D01*
X006925Y029368D02*
X008070Y029368D01*
X008156Y029467D02*
X006840Y029467D01*
X006682Y029565D02*
X008273Y029565D01*
X005155Y029565D02*
X004826Y029565D01*
X004925Y029467D02*
X005056Y029467D01*
X004567Y017543D02*
X004453Y017543D01*
X007549Y017050D02*
X009212Y017050D01*
X009253Y016952D02*
X007648Y016952D01*
X007702Y016853D02*
X009304Y016853D01*
X009403Y016755D02*
X007743Y016755D01*
X006929Y014488D02*
X006612Y014488D01*
X006702Y014390D02*
X006929Y014390D01*
X006929Y014291D02*
X006743Y014291D01*
X006778Y014192D02*
X006929Y014192D01*
X006929Y014094D02*
X006778Y014094D01*
X006778Y013995D02*
X006929Y013995D01*
X006929Y013897D02*
X006737Y013897D01*
X006696Y013798D02*
X006929Y013798D01*
X006929Y013700D02*
X006598Y013700D01*
X003533Y010645D02*
X003465Y010645D01*
X003475Y010546D02*
X003632Y010546D01*
X003574Y010448D02*
X003730Y010448D01*
X003672Y010349D02*
X003829Y010349D01*
X003927Y010251D02*
X003681Y010251D01*
X003681Y010152D02*
X004026Y010152D01*
X004124Y010054D02*
X003681Y010054D01*
X003681Y009955D02*
X004223Y009955D01*
X004321Y009857D02*
X003677Y009857D01*
X003578Y009758D02*
X004420Y009758D01*
X004519Y009659D02*
X003480Y009659D01*
X003461Y009561D02*
X004617Y009561D01*
X004716Y009462D02*
X003559Y009462D01*
X003658Y009364D02*
X004814Y009364D01*
X004913Y009265D02*
X003681Y009265D01*
X003681Y009167D02*
X005011Y009167D01*
X005110Y009068D02*
X003681Y009068D01*
X003681Y008970D02*
X005208Y008970D01*
X005307Y008871D02*
X003681Y008871D01*
X003593Y008773D02*
X005405Y008773D01*
X005504Y008674D02*
X003494Y008674D01*
X003396Y008576D02*
X005603Y008576D01*
X006194Y007984D02*
X001101Y007984D01*
X001101Y007886D02*
X006292Y007886D01*
X006391Y007787D02*
X001101Y007787D01*
X001101Y007689D02*
X006489Y007689D01*
X004656Y005028D02*
X001101Y005028D01*
X001101Y004929D02*
X004497Y004929D01*
X004385Y004831D02*
X001101Y004831D01*
X001101Y004732D02*
X004300Y004732D01*
X004235Y004634D02*
X001101Y004634D01*
X001101Y004535D02*
X004185Y004535D01*
X004148Y004437D02*
X001101Y004437D01*
X001101Y004338D02*
X004122Y004338D01*
X004107Y004240D02*
X001101Y004240D01*
X001101Y002761D02*
X001302Y002761D01*
X001185Y002663D02*
X001101Y002663D01*
X002396Y008576D02*
X002806Y008576D01*
X002707Y008674D02*
X002494Y008674D01*
X002593Y008773D02*
X002609Y008773D01*
X001581Y011236D02*
X001101Y011236D01*
X001101Y011335D02*
X001599Y011335D01*
X001698Y011433D02*
X001101Y011433D01*
X038845Y007590D02*
X039563Y007590D01*
X039571Y007393D02*
X039631Y007393D01*
X039631Y007294D02*
X039571Y007294D01*
X039571Y007196D02*
X039631Y007196D01*
X039631Y007097D02*
X039571Y007097D01*
X039571Y006999D02*
X039631Y006999D01*
X039631Y006900D02*
X039571Y006900D01*
X039571Y006802D02*
X039631Y006802D01*
X039631Y006703D02*
X039571Y006703D01*
X039571Y006605D02*
X039091Y006605D01*
X039091Y006703D02*
X039171Y006703D01*
X039171Y006802D02*
X039091Y006802D01*
X039091Y006900D02*
X039171Y006900D01*
X039171Y006999D02*
X039091Y006999D01*
X039091Y007097D02*
X039171Y007097D01*
X039171Y007196D02*
X039091Y007196D01*
X039076Y007294D02*
X039192Y007294D01*
X039238Y007393D02*
X039035Y007393D01*
X038963Y007492D02*
X039324Y007492D01*
X039180Y006506D02*
X039091Y006506D01*
X039051Y006408D02*
X039217Y006408D01*
X039284Y006309D02*
X039002Y006309D01*
X038903Y006210D02*
X039420Y006210D01*
X039917Y006309D02*
X042193Y006309D01*
X042291Y006408D02*
X039985Y006408D01*
X040021Y006506D02*
X042390Y006506D01*
X040775Y003845D02*
X045101Y003845D01*
X045101Y003747D02*
X040071Y003747D01*
X043539Y001161D02*
X043539Y001161D01*
X041430Y021386D02*
X041415Y021386D01*
X041399Y021485D02*
X041316Y021485D01*
X041399Y021583D02*
X041217Y021583D01*
X041119Y021682D02*
X041399Y021682D01*
X041415Y021780D02*
X041020Y021780D01*
X040922Y021879D02*
X041456Y021879D01*
X041497Y021977D02*
X040823Y021977D01*
X040725Y022076D02*
X041583Y022076D01*
X041682Y022174D02*
X040626Y022174D01*
X040528Y022273D02*
X041889Y022273D01*
D24*
X042101Y019101D02*
X040311Y017311D01*
X032522Y025101D01*
X029101Y025101D01*
X029101Y027601D01*
X034101Y027601D02*
X034101Y025101D01*
X037177Y025101D01*
X043234Y019044D01*
X043234Y006827D01*
X040548Y004141D01*
X037601Y004141D01*
X037601Y003601D01*
X035101Y004101D02*
X035101Y007661D01*
X035601Y008161D01*
X035601Y009101D01*
X036601Y009101D02*
X036601Y010043D01*
X033543Y010043D01*
X032601Y009101D01*
X032601Y011101D02*
X030601Y013101D01*
X030601Y017601D01*
X031601Y017601D02*
X029101Y020101D01*
X029101Y022601D01*
X039659Y016659D02*
X039659Y010043D01*
X036601Y010043D01*
X039659Y010043D02*
X042601Y007101D01*
X029601Y006601D02*
X029601Y010101D01*
X028601Y011101D01*
X039659Y016659D02*
X040311Y017311D01*
D25*
X015443Y012317D03*
M02*
