G75*
G70*
%OFA0B0*%
%FSLAX24Y24*%
%IPPOS*%
%LPD*%
%AMOC8*
5,1,8,0,0,1.08239X$1,22.5*
%
%ADD10C,0.0640*%
%ADD11OC8,0.0820*%
%ADD12C,0.0820*%
%ADD13C,0.1780*%
%ADD14C,0.0730*%
%ADD15C,0.0050*%
%ADD16OC8,0.0640*%
%ADD17C,0.0720*%
%ADD18C,0.1380*%
%ADD19C,0.0760*%
%ADD20C,0.1064*%
%ADD21R,0.3080X0.3080*%
%ADD22R,0.1175X0.1175*%
%ADD23R,0.0820X0.0820*%
D10*
X007421Y013101D02*
X007981Y013101D01*
X007981Y014101D02*
X007421Y014101D01*
X007421Y015101D02*
X007981Y015101D01*
X007981Y016101D02*
X007421Y016101D01*
X007421Y017101D02*
X007981Y017101D01*
X007981Y018101D02*
X007421Y018101D01*
X007421Y019101D02*
X007981Y019101D01*
X007981Y020101D02*
X007421Y020101D01*
X007421Y021101D02*
X007981Y021101D01*
X007981Y022101D02*
X007421Y022101D01*
X007421Y023101D02*
X007981Y023101D01*
X007981Y024101D02*
X007421Y024101D01*
X007421Y025101D02*
X007981Y025101D01*
X007981Y026101D02*
X007421Y026101D01*
X010421Y026101D02*
X010981Y026101D01*
X010981Y025101D02*
X010421Y025101D01*
X010421Y024101D02*
X010981Y024101D01*
X010981Y023101D02*
X010421Y023101D01*
X010421Y022101D02*
X010981Y022101D01*
X010981Y021101D02*
X010421Y021101D01*
X010421Y020101D02*
X010981Y020101D01*
X010981Y019101D02*
X010421Y019101D01*
X010421Y018101D02*
X010981Y018101D01*
X010981Y017101D02*
X010421Y017101D01*
X010421Y016101D02*
X010981Y016101D01*
X010981Y015101D02*
X010421Y015101D01*
X010421Y014101D02*
X010981Y014101D01*
X010981Y013101D02*
X010421Y013101D01*
X029601Y007161D02*
X029601Y006601D01*
X030601Y006601D02*
X030601Y007161D01*
X031601Y007161D02*
X031601Y006601D01*
X031601Y003601D02*
X031601Y003041D01*
X030601Y003041D02*
X030601Y003601D01*
X029601Y003601D02*
X029601Y003041D01*
X037601Y003041D02*
X037601Y003601D01*
X038601Y003601D02*
X038601Y003041D01*
X039601Y003041D02*
X039601Y003601D01*
X039601Y006601D02*
X039601Y007161D01*
X038601Y007161D02*
X038601Y006601D01*
X037601Y006601D02*
X037601Y007161D01*
D11*
X003101Y009101D03*
X002101Y009101D03*
X002101Y010101D03*
X003101Y010101D03*
X003101Y011101D03*
X002101Y011101D03*
D12*
X008821Y007491D03*
X011381Y007491D03*
X011381Y005711D03*
X008821Y005711D03*
X014601Y006601D03*
X017321Y005491D03*
X017321Y003711D03*
X019881Y003711D03*
X022601Y004101D03*
X022601Y005101D03*
X022601Y006101D03*
X022601Y007101D03*
X019881Y005491D03*
X022601Y003101D03*
X022601Y002101D03*
X019101Y001601D03*
X015101Y001601D03*
X014601Y004601D03*
X026101Y005101D03*
X026101Y006101D03*
X026101Y007101D03*
X028601Y009101D03*
X028601Y011101D03*
X028601Y013101D03*
X028601Y015101D03*
X032601Y015101D03*
X032601Y013101D03*
X032601Y011101D03*
X032601Y009101D03*
X026101Y004101D03*
X026101Y003101D03*
X026101Y002101D03*
X042601Y003101D03*
X042601Y007101D03*
X026601Y018101D03*
X029101Y020101D03*
X026601Y022101D03*
X029101Y022601D03*
X029101Y025101D03*
X029101Y027601D03*
X029134Y029021D03*
X028134Y029021D03*
X027134Y029021D03*
X024601Y029101D03*
X023601Y029101D03*
X022601Y029101D03*
X021601Y029101D03*
X020601Y029101D03*
X019601Y029101D03*
X021821Y026491D03*
X024381Y026491D03*
X024381Y024711D03*
X021821Y024711D03*
X015661Y029071D03*
X014661Y029071D03*
X013661Y029071D03*
X013171Y027121D03*
X010571Y029061D03*
X009571Y029061D03*
X008571Y029061D03*
X006491Y029081D03*
X005491Y029081D03*
X004491Y029081D03*
X005101Y025101D03*
X001101Y025101D03*
X005101Y020601D03*
X005101Y016601D03*
X013171Y023121D03*
X034101Y022601D03*
X034101Y025101D03*
X034101Y027601D03*
X034101Y020101D03*
D13*
X006951Y005313D03*
X005101Y004132D03*
X005101Y006494D03*
D14*
X004601Y014101D03*
X002601Y014101D03*
X003101Y017101D03*
X002101Y017101D03*
X002101Y019601D03*
X003101Y019601D03*
X003101Y021601D03*
X002101Y021601D03*
X013051Y021711D03*
X013051Y020711D03*
X030601Y017601D03*
X031601Y017601D03*
X034101Y004101D03*
X035101Y004101D03*
D15*
X011515Y002102D02*
X011507Y002034D01*
X011487Y001969D01*
X011454Y001909D01*
X011410Y001856D01*
X011357Y001814D01*
X011296Y001782D01*
X011231Y001763D01*
X011163Y001757D01*
X011096Y001765D01*
X011032Y001786D01*
X010973Y001819D01*
X010922Y001862D01*
X010880Y001915D01*
X010849Y001976D01*
X010831Y002041D01*
X010826Y002108D01*
X010832Y002174D01*
X010851Y002237D01*
X010882Y002296D01*
X010924Y002347D01*
X010975Y002389D01*
X011034Y002421D01*
X011097Y002440D01*
X011163Y002447D01*
X011231Y002441D01*
X011296Y002422D01*
X011357Y002390D01*
X011410Y002347D01*
X011454Y002295D01*
X011487Y002235D01*
X011507Y002170D01*
X011515Y002102D01*
X011514Y002091D02*
X010827Y002091D01*
X010831Y002043D02*
X011508Y002043D01*
X011495Y001994D02*
X010844Y001994D01*
X010865Y001945D02*
X011474Y001945D01*
X011444Y001897D02*
X010894Y001897D01*
X010938Y001848D02*
X011400Y001848D01*
X011331Y001800D02*
X011006Y001800D01*
X010829Y002140D02*
X011511Y002140D01*
X011502Y002188D02*
X010836Y002188D01*
X010851Y002237D02*
X011486Y002237D01*
X011459Y002285D02*
X010877Y002285D01*
X010913Y002334D02*
X011421Y002334D01*
X011366Y002382D02*
X010967Y002382D01*
X011067Y002431D02*
X011264Y002431D01*
X010440Y002164D02*
X010447Y002095D01*
X010439Y002028D01*
X010419Y001964D01*
X010386Y001905D01*
X010342Y001853D01*
X010290Y001812D01*
X010230Y001781D01*
X010165Y001762D01*
X010098Y001757D01*
X010031Y001764D01*
X009966Y001784D01*
X009907Y001817D01*
X009855Y001860D01*
X009813Y001913D01*
X009782Y001973D01*
X009763Y002038D01*
X009757Y002105D01*
X009763Y002171D01*
X009782Y002235D01*
X009812Y002293D01*
X009854Y002345D01*
X009905Y002387D01*
X009963Y002419D01*
X010027Y002439D01*
X010093Y002446D01*
X010162Y002439D01*
X010228Y002420D01*
X010289Y002387D01*
X010343Y002344D01*
X010387Y002290D01*
X010419Y002230D01*
X010440Y002164D01*
X010442Y002140D02*
X009760Y002140D01*
X009768Y002188D02*
X010432Y002188D01*
X010416Y002237D02*
X009783Y002237D01*
X009808Y002285D02*
X010389Y002285D01*
X010351Y002334D02*
X009845Y002334D01*
X009899Y002382D02*
X010295Y002382D01*
X010190Y002431D02*
X010001Y002431D01*
X009758Y002091D02*
X010446Y002091D01*
X010441Y002043D02*
X009762Y002043D01*
X009775Y001994D02*
X010428Y001994D01*
X010408Y001945D02*
X009796Y001945D01*
X009826Y001897D02*
X010379Y001897D01*
X010336Y001848D02*
X009869Y001848D01*
X009938Y001800D02*
X010267Y001800D01*
X009370Y002028D02*
X009348Y001963D01*
X009315Y001903D01*
X009270Y001851D01*
X009216Y001809D01*
X009155Y001777D01*
X009089Y001759D01*
X009021Y001754D01*
X008954Y001762D01*
X008890Y001782D01*
X008832Y001815D01*
X008780Y001859D01*
X008739Y001911D01*
X008708Y001971D01*
X008690Y002036D01*
X008685Y002103D01*
X008691Y002169D01*
X008709Y002233D01*
X008740Y002292D01*
X008782Y002344D01*
X008833Y002387D01*
X008891Y002419D01*
X008955Y002439D01*
X009021Y002447D01*
X009090Y002441D01*
X009157Y002421D01*
X009218Y002389D01*
X009272Y002345D01*
X009317Y002292D01*
X009350Y002231D01*
X009370Y002165D01*
X009378Y002096D01*
X009370Y002028D01*
X009371Y002043D02*
X008690Y002043D01*
X008686Y002091D02*
X009377Y002091D01*
X009373Y002140D02*
X008688Y002140D01*
X008696Y002188D02*
X009363Y002188D01*
X009347Y002237D02*
X008711Y002237D01*
X008736Y002285D02*
X009320Y002285D01*
X009282Y002334D02*
X008773Y002334D01*
X008827Y002382D02*
X009226Y002382D01*
X009123Y002431D02*
X008927Y002431D01*
X008702Y001994D02*
X009359Y001994D01*
X009339Y001945D02*
X008721Y001945D01*
X008750Y001897D02*
X009310Y001897D01*
X009267Y001848D02*
X008793Y001848D01*
X008859Y001800D02*
X009199Y001800D01*
D16*
X007101Y009601D03*
X006101Y009601D03*
D17*
X023101Y009281D02*
X023101Y009921D01*
X024101Y009921D02*
X024101Y009281D01*
X025101Y009281D02*
X025101Y009921D01*
D18*
X001801Y001901D03*
X024101Y015501D03*
X036601Y016001D03*
X044401Y029301D03*
X044301Y001801D03*
X001801Y029201D03*
D19*
X035601Y009441D02*
X035601Y008761D01*
X036601Y008761D02*
X036601Y009441D01*
X037601Y009441D02*
X037601Y008761D01*
D20*
X042101Y009601D03*
X042101Y012101D03*
X042101Y014601D03*
X042101Y019101D03*
X042101Y021601D03*
X042101Y024101D03*
D21*
X016601Y014101D03*
D22*
X014001Y014101D03*
X019201Y014101D03*
D23*
X026134Y029021D03*
M02*
