%
M48
M72
T01C0.0276
T02C0.0315
T03C0.0320
T04C0.0354
T05C0.0400
T06C0.0440
T07C0.0512
T08C0.0730
T09C0.1180
T10C0.1300
%
T01
X2601Y14101
X4601Y14101
X3101Y17101
X2101Y17101
X2101Y19601
X3101Y19601
X3101Y21601
X2101Y21601
X13051Y21711
X13051Y20711
X30601Y17601
X31601Y17601
X34101Y4101
X35101Y4101
T02
X14601Y4601
X14601Y6601
T03
X7101Y9601
X6101Y9601
X7701Y13101
X7701Y14101
X7701Y15101
X7701Y16101
X7701Y17101
X7701Y18101
X7701Y19101
X7701Y20101
X7701Y21101
X7701Y22101
X7701Y23101
X7701Y24101
X7701Y25101
X7701Y26101
X10701Y26101
X10701Y25101
X10701Y24101
X10701Y23101
X10701Y22101
X10701Y21101
X10701Y20101
X10701Y19101
X10701Y18101
X10701Y17101
X10701Y16101
X10701Y15101
X10701Y14101
X10701Y13101
X29601Y6601
X30601Y6601
X31601Y6601
X31601Y3601
X30601Y3601
X29601Y3601
X37601Y3601
X38601Y3601
X39601Y3601
X39601Y6601
X38601Y6601
X37601Y6601
T04
X42601Y7101
X42601Y3101
X32601Y9101
X32601Y11101
X32601Y13101
X32601Y15101
X28601Y15101
X28601Y13101
X28601Y11101
X28601Y9101
X19101Y1601
X15101Y1601
X5101Y16601
X5101Y20601
X5101Y25101
X1101Y25101
X13171Y23121
X13171Y27121
X26601Y22101
X29101Y22601
X29101Y25101
X29101Y27601
X34101Y27601
X34101Y25101
X34101Y22601
X34101Y20101
X29101Y20101
X26601Y18101
T05
X24381Y24711
X21821Y24711
X21821Y26491
X24381Y26491
X24601Y29101
X23601Y29101
X22601Y29101
X21601Y29101
X20601Y29101
X19601Y29101
X15661Y29071
X14661Y29071
X13661Y29071
X10571Y29061
X9571Y29061
X8571Y29061
X6491Y29081
X5491Y29081
X4491Y29081
X26134Y29021
X27134Y29021
X28134Y29021
X29134Y29021
X3101Y11101
X2101Y11101
X2101Y10101
X3101Y10101
X3101Y9101
X2101Y9101
X8821Y7491
X11381Y7491
X11381Y5711
X8821Y5711
X9031Y2101
X10101Y2101
X11171Y2101
X17321Y3711
X17321Y5491
X19881Y5491
X22601Y5101
X22601Y6101
X22601Y7101
X23101Y9601
X24101Y9601
X25101Y9601
X26101Y7101
X26101Y6101
X26101Y5101
X26101Y4101
X26101Y3101
X26101Y2101
X22601Y2101
X22601Y3101
X22601Y4101
X19881Y3711
T06
X35601Y9101
X36601Y9101
X37601Y9101
T07
X42101Y9601
X42101Y12101
X42101Y14601
X42101Y19101
X42101Y21601
X42101Y24101
T08
X19201Y14101
X14001Y14101
T09
X5101Y6494
X6951Y5313
X5101Y4132
T10
X1801Y1901
X24101Y15501
X36601Y16001
X44401Y29301
X44301Y1801
X1801Y29201
M30
