G75*
G70*
%OFA0B0*%
%FSLAX24Y24*%
%IPPOS*%
%LPD*%
%AMOC8*
5,1,8,0,0,1.08239X$1,22.5*
%
%ADD10R,0.0630X0.0315*%
%ADD11R,0.0315X0.0630*%
%ADD12R,0.0780X0.0209*%
D10*
X018284Y021252D03*
X018284Y021725D03*
X018284Y022197D03*
X018284Y022670D03*
X018284Y023142D03*
X018284Y023615D03*
X018284Y024087D03*
X018284Y024559D03*
X018284Y025032D03*
X018284Y025504D03*
X018284Y025977D03*
X018284Y026449D03*
X023481Y026449D03*
X023481Y025977D03*
X023481Y025504D03*
X023481Y025032D03*
X023481Y024559D03*
X023481Y024087D03*
X023481Y023615D03*
X023481Y023142D03*
X023481Y022670D03*
X023481Y022197D03*
X023481Y021725D03*
X023481Y021252D03*
D11*
X022506Y020150D03*
X022103Y020150D03*
X021631Y020150D03*
X021158Y020150D03*
X020607Y020150D03*
X020135Y020150D03*
X019662Y020150D03*
X019260Y020150D03*
X021513Y027552D03*
X022143Y027552D03*
X022773Y027552D03*
D12*
X016116Y008351D03*
X016116Y008851D03*
X016116Y009351D03*
X016116Y009851D03*
X016116Y010351D03*
X016116Y010851D03*
X016116Y011351D03*
X016116Y011851D03*
X016116Y012351D03*
X016116Y012851D03*
X019805Y012851D03*
X019805Y012351D03*
X019805Y011851D03*
X019805Y011351D03*
X019805Y010851D03*
X019805Y010351D03*
X019805Y009851D03*
X019805Y009351D03*
X019805Y008851D03*
X019805Y008351D03*
M02*
