G75*
G70*
%OFA0B0*%
%FSLAX24Y24*%
%IPPOS*%
%LPD*%
%AMOC8*
5,1,8,0,0,1.08239X$1,22.5*
%
%ADD10C,0.0000*%
%ADD11C,0.0560*%
%ADD12OC8,0.0740*%
%ADD13C,0.0740*%
%ADD14C,0.1700*%
%ADD15C,0.0650*%
%ADD16OC8,0.0560*%
%ADD17R,0.0630X0.0315*%
%ADD18R,0.0315X0.0630*%
%ADD19C,0.0640*%
%ADD20C,0.0680*%
%ADD21C,0.0984*%
%ADD22R,0.1095X0.1095*%
%ADD23R,0.0780X0.0209*%
%ADD24R,0.0740X0.0740*%
%ADD25C,0.0080*%
%ADD26C,0.0320*%
D10*
X000101Y000101D02*
X000101Y030971D01*
X046093Y030971D01*
X046093Y000101D01*
X000101Y000101D01*
X001151Y001901D02*
X001153Y001951D01*
X001159Y002001D01*
X001169Y002051D01*
X001182Y002099D01*
X001199Y002147D01*
X001220Y002193D01*
X001244Y002237D01*
X001272Y002279D01*
X001303Y002319D01*
X001337Y002356D01*
X001374Y002391D01*
X001413Y002422D01*
X001454Y002451D01*
X001498Y002476D01*
X001544Y002498D01*
X001591Y002516D01*
X001639Y002530D01*
X001688Y002541D01*
X001738Y002548D01*
X001788Y002551D01*
X001839Y002550D01*
X001889Y002545D01*
X001939Y002536D01*
X001987Y002524D01*
X002035Y002507D01*
X002081Y002487D01*
X002126Y002464D01*
X002169Y002437D01*
X002209Y002407D01*
X002247Y002374D01*
X002282Y002338D01*
X002315Y002299D01*
X002344Y002258D01*
X002370Y002215D01*
X002393Y002170D01*
X002412Y002123D01*
X002427Y002075D01*
X002439Y002026D01*
X002447Y001976D01*
X002451Y001926D01*
X002451Y001876D01*
X002447Y001826D01*
X002439Y001776D01*
X002427Y001727D01*
X002412Y001679D01*
X002393Y001632D01*
X002370Y001587D01*
X002344Y001544D01*
X002315Y001503D01*
X002282Y001464D01*
X002247Y001428D01*
X002209Y001395D01*
X002169Y001365D01*
X002126Y001338D01*
X002081Y001315D01*
X002035Y001295D01*
X001987Y001278D01*
X001939Y001266D01*
X001889Y001257D01*
X001839Y001252D01*
X001788Y001251D01*
X001738Y001254D01*
X001688Y001261D01*
X001639Y001272D01*
X001591Y001286D01*
X001544Y001304D01*
X001498Y001326D01*
X001454Y001351D01*
X001413Y001380D01*
X001374Y001411D01*
X001337Y001446D01*
X001303Y001483D01*
X001272Y001523D01*
X001244Y001565D01*
X001220Y001609D01*
X001199Y001655D01*
X001182Y001703D01*
X001169Y001751D01*
X001159Y001801D01*
X001153Y001851D01*
X001151Y001901D01*
X023451Y015501D02*
X023453Y015551D01*
X023459Y015601D01*
X023469Y015651D01*
X023482Y015699D01*
X023499Y015747D01*
X023520Y015793D01*
X023544Y015837D01*
X023572Y015879D01*
X023603Y015919D01*
X023637Y015956D01*
X023674Y015991D01*
X023713Y016022D01*
X023754Y016051D01*
X023798Y016076D01*
X023844Y016098D01*
X023891Y016116D01*
X023939Y016130D01*
X023988Y016141D01*
X024038Y016148D01*
X024088Y016151D01*
X024139Y016150D01*
X024189Y016145D01*
X024239Y016136D01*
X024287Y016124D01*
X024335Y016107D01*
X024381Y016087D01*
X024426Y016064D01*
X024469Y016037D01*
X024509Y016007D01*
X024547Y015974D01*
X024582Y015938D01*
X024615Y015899D01*
X024644Y015858D01*
X024670Y015815D01*
X024693Y015770D01*
X024712Y015723D01*
X024727Y015675D01*
X024739Y015626D01*
X024747Y015576D01*
X024751Y015526D01*
X024751Y015476D01*
X024747Y015426D01*
X024739Y015376D01*
X024727Y015327D01*
X024712Y015279D01*
X024693Y015232D01*
X024670Y015187D01*
X024644Y015144D01*
X024615Y015103D01*
X024582Y015064D01*
X024547Y015028D01*
X024509Y014995D01*
X024469Y014965D01*
X024426Y014938D01*
X024381Y014915D01*
X024335Y014895D01*
X024287Y014878D01*
X024239Y014866D01*
X024189Y014857D01*
X024139Y014852D01*
X024088Y014851D01*
X024038Y014854D01*
X023988Y014861D01*
X023939Y014872D01*
X023891Y014886D01*
X023844Y014904D01*
X023798Y014926D01*
X023754Y014951D01*
X023713Y014980D01*
X023674Y015011D01*
X023637Y015046D01*
X023603Y015083D01*
X023572Y015123D01*
X023544Y015165D01*
X023520Y015209D01*
X023499Y015255D01*
X023482Y015303D01*
X023469Y015351D01*
X023459Y015401D01*
X023453Y015451D01*
X023451Y015501D01*
X035951Y016001D02*
X035953Y016051D01*
X035959Y016101D01*
X035969Y016151D01*
X035982Y016199D01*
X035999Y016247D01*
X036020Y016293D01*
X036044Y016337D01*
X036072Y016379D01*
X036103Y016419D01*
X036137Y016456D01*
X036174Y016491D01*
X036213Y016522D01*
X036254Y016551D01*
X036298Y016576D01*
X036344Y016598D01*
X036391Y016616D01*
X036439Y016630D01*
X036488Y016641D01*
X036538Y016648D01*
X036588Y016651D01*
X036639Y016650D01*
X036689Y016645D01*
X036739Y016636D01*
X036787Y016624D01*
X036835Y016607D01*
X036881Y016587D01*
X036926Y016564D01*
X036969Y016537D01*
X037009Y016507D01*
X037047Y016474D01*
X037082Y016438D01*
X037115Y016399D01*
X037144Y016358D01*
X037170Y016315D01*
X037193Y016270D01*
X037212Y016223D01*
X037227Y016175D01*
X037239Y016126D01*
X037247Y016076D01*
X037251Y016026D01*
X037251Y015976D01*
X037247Y015926D01*
X037239Y015876D01*
X037227Y015827D01*
X037212Y015779D01*
X037193Y015732D01*
X037170Y015687D01*
X037144Y015644D01*
X037115Y015603D01*
X037082Y015564D01*
X037047Y015528D01*
X037009Y015495D01*
X036969Y015465D01*
X036926Y015438D01*
X036881Y015415D01*
X036835Y015395D01*
X036787Y015378D01*
X036739Y015366D01*
X036689Y015357D01*
X036639Y015352D01*
X036588Y015351D01*
X036538Y015354D01*
X036488Y015361D01*
X036439Y015372D01*
X036391Y015386D01*
X036344Y015404D01*
X036298Y015426D01*
X036254Y015451D01*
X036213Y015480D01*
X036174Y015511D01*
X036137Y015546D01*
X036103Y015583D01*
X036072Y015623D01*
X036044Y015665D01*
X036020Y015709D01*
X035999Y015755D01*
X035982Y015803D01*
X035969Y015851D01*
X035959Y015901D01*
X035953Y015951D01*
X035951Y016001D01*
X043751Y029301D02*
X043753Y029351D01*
X043759Y029401D01*
X043769Y029451D01*
X043782Y029499D01*
X043799Y029547D01*
X043820Y029593D01*
X043844Y029637D01*
X043872Y029679D01*
X043903Y029719D01*
X043937Y029756D01*
X043974Y029791D01*
X044013Y029822D01*
X044054Y029851D01*
X044098Y029876D01*
X044144Y029898D01*
X044191Y029916D01*
X044239Y029930D01*
X044288Y029941D01*
X044338Y029948D01*
X044388Y029951D01*
X044439Y029950D01*
X044489Y029945D01*
X044539Y029936D01*
X044587Y029924D01*
X044635Y029907D01*
X044681Y029887D01*
X044726Y029864D01*
X044769Y029837D01*
X044809Y029807D01*
X044847Y029774D01*
X044882Y029738D01*
X044915Y029699D01*
X044944Y029658D01*
X044970Y029615D01*
X044993Y029570D01*
X045012Y029523D01*
X045027Y029475D01*
X045039Y029426D01*
X045047Y029376D01*
X045051Y029326D01*
X045051Y029276D01*
X045047Y029226D01*
X045039Y029176D01*
X045027Y029127D01*
X045012Y029079D01*
X044993Y029032D01*
X044970Y028987D01*
X044944Y028944D01*
X044915Y028903D01*
X044882Y028864D01*
X044847Y028828D01*
X044809Y028795D01*
X044769Y028765D01*
X044726Y028738D01*
X044681Y028715D01*
X044635Y028695D01*
X044587Y028678D01*
X044539Y028666D01*
X044489Y028657D01*
X044439Y028652D01*
X044388Y028651D01*
X044338Y028654D01*
X044288Y028661D01*
X044239Y028672D01*
X044191Y028686D01*
X044144Y028704D01*
X044098Y028726D01*
X044054Y028751D01*
X044013Y028780D01*
X043974Y028811D01*
X043937Y028846D01*
X043903Y028883D01*
X043872Y028923D01*
X043844Y028965D01*
X043820Y029009D01*
X043799Y029055D01*
X043782Y029103D01*
X043769Y029151D01*
X043759Y029201D01*
X043753Y029251D01*
X043751Y029301D01*
X043651Y001801D02*
X043653Y001851D01*
X043659Y001901D01*
X043669Y001951D01*
X043682Y001999D01*
X043699Y002047D01*
X043720Y002093D01*
X043744Y002137D01*
X043772Y002179D01*
X043803Y002219D01*
X043837Y002256D01*
X043874Y002291D01*
X043913Y002322D01*
X043954Y002351D01*
X043998Y002376D01*
X044044Y002398D01*
X044091Y002416D01*
X044139Y002430D01*
X044188Y002441D01*
X044238Y002448D01*
X044288Y002451D01*
X044339Y002450D01*
X044389Y002445D01*
X044439Y002436D01*
X044487Y002424D01*
X044535Y002407D01*
X044581Y002387D01*
X044626Y002364D01*
X044669Y002337D01*
X044709Y002307D01*
X044747Y002274D01*
X044782Y002238D01*
X044815Y002199D01*
X044844Y002158D01*
X044870Y002115D01*
X044893Y002070D01*
X044912Y002023D01*
X044927Y001975D01*
X044939Y001926D01*
X044947Y001876D01*
X044951Y001826D01*
X044951Y001776D01*
X044947Y001726D01*
X044939Y001676D01*
X044927Y001627D01*
X044912Y001579D01*
X044893Y001532D01*
X044870Y001487D01*
X044844Y001444D01*
X044815Y001403D01*
X044782Y001364D01*
X044747Y001328D01*
X044709Y001295D01*
X044669Y001265D01*
X044626Y001238D01*
X044581Y001215D01*
X044535Y001195D01*
X044487Y001178D01*
X044439Y001166D01*
X044389Y001157D01*
X044339Y001152D01*
X044288Y001151D01*
X044238Y001154D01*
X044188Y001161D01*
X044139Y001172D01*
X044091Y001186D01*
X044044Y001204D01*
X043998Y001226D01*
X043954Y001251D01*
X043913Y001280D01*
X043874Y001311D01*
X043837Y001346D01*
X043803Y001383D01*
X043772Y001423D01*
X043744Y001465D01*
X043720Y001509D01*
X043699Y001555D01*
X043682Y001603D01*
X043669Y001651D01*
X043659Y001701D01*
X043653Y001751D01*
X043651Y001801D01*
X001151Y029201D02*
X001153Y029251D01*
X001159Y029301D01*
X001169Y029351D01*
X001182Y029399D01*
X001199Y029447D01*
X001220Y029493D01*
X001244Y029537D01*
X001272Y029579D01*
X001303Y029619D01*
X001337Y029656D01*
X001374Y029691D01*
X001413Y029722D01*
X001454Y029751D01*
X001498Y029776D01*
X001544Y029798D01*
X001591Y029816D01*
X001639Y029830D01*
X001688Y029841D01*
X001738Y029848D01*
X001788Y029851D01*
X001839Y029850D01*
X001889Y029845D01*
X001939Y029836D01*
X001987Y029824D01*
X002035Y029807D01*
X002081Y029787D01*
X002126Y029764D01*
X002169Y029737D01*
X002209Y029707D01*
X002247Y029674D01*
X002282Y029638D01*
X002315Y029599D01*
X002344Y029558D01*
X002370Y029515D01*
X002393Y029470D01*
X002412Y029423D01*
X002427Y029375D01*
X002439Y029326D01*
X002447Y029276D01*
X002451Y029226D01*
X002451Y029176D01*
X002447Y029126D01*
X002439Y029076D01*
X002427Y029027D01*
X002412Y028979D01*
X002393Y028932D01*
X002370Y028887D01*
X002344Y028844D01*
X002315Y028803D01*
X002282Y028764D01*
X002247Y028728D01*
X002209Y028695D01*
X002169Y028665D01*
X002126Y028638D01*
X002081Y028615D01*
X002035Y028595D01*
X001987Y028578D01*
X001939Y028566D01*
X001889Y028557D01*
X001839Y028552D01*
X001788Y028551D01*
X001738Y028554D01*
X001688Y028561D01*
X001639Y028572D01*
X001591Y028586D01*
X001544Y028604D01*
X001498Y028626D01*
X001454Y028651D01*
X001413Y028680D01*
X001374Y028711D01*
X001337Y028746D01*
X001303Y028783D01*
X001272Y028823D01*
X001244Y028865D01*
X001220Y028909D01*
X001199Y028955D01*
X001182Y029003D01*
X001169Y029051D01*
X001159Y029101D01*
X001153Y029151D01*
X001151Y029201D01*
D11*
X007421Y026101D02*
X007981Y026101D01*
X007981Y025101D02*
X007421Y025101D01*
X007421Y024101D02*
X007981Y024101D01*
X007981Y023101D02*
X007421Y023101D01*
X007421Y022101D02*
X007981Y022101D01*
X007981Y021101D02*
X007421Y021101D01*
X007421Y020101D02*
X007981Y020101D01*
X007981Y019101D02*
X007421Y019101D01*
X007421Y018101D02*
X007981Y018101D01*
X007981Y017101D02*
X007421Y017101D01*
X007421Y016101D02*
X007981Y016101D01*
X007981Y015101D02*
X007421Y015101D01*
X007421Y014101D02*
X007981Y014101D01*
X007981Y013101D02*
X007421Y013101D01*
X010421Y013101D02*
X010981Y013101D01*
X010981Y014101D02*
X010421Y014101D01*
X010421Y015101D02*
X010981Y015101D01*
X010981Y016101D02*
X010421Y016101D01*
X010421Y017101D02*
X010981Y017101D01*
X010981Y018101D02*
X010421Y018101D01*
X010421Y019101D02*
X010981Y019101D01*
X010981Y020101D02*
X010421Y020101D01*
X010421Y021101D02*
X010981Y021101D01*
X010981Y022101D02*
X010421Y022101D01*
X010421Y023101D02*
X010981Y023101D01*
X010981Y024101D02*
X010421Y024101D01*
X010421Y025101D02*
X010981Y025101D01*
X010981Y026101D02*
X010421Y026101D01*
X029601Y007161D02*
X029601Y006601D01*
X030601Y006601D02*
X030601Y007161D01*
X031601Y007161D02*
X031601Y006601D01*
X031601Y003601D02*
X031601Y003041D01*
X030601Y003041D02*
X030601Y003601D01*
X029601Y003601D02*
X029601Y003041D01*
X037601Y003041D02*
X037601Y003601D01*
X038601Y003601D02*
X038601Y003041D01*
X039601Y003041D02*
X039601Y003601D01*
X039601Y006601D02*
X039601Y007161D01*
X038601Y007161D02*
X038601Y006601D01*
X037601Y006601D02*
X037601Y007161D01*
D12*
X003101Y009101D03*
X002101Y009101D03*
X002101Y010101D03*
X003101Y010101D03*
X003101Y011101D03*
X002101Y011101D03*
D13*
X008821Y007491D03*
X011381Y007491D03*
X011381Y005711D03*
X008821Y005711D03*
X009031Y002101D03*
X010101Y002101D03*
X011171Y002101D03*
X015101Y001601D03*
X017321Y003711D03*
X017321Y005491D03*
X019881Y005491D03*
X022601Y005101D03*
X022601Y006101D03*
X022601Y007101D03*
X026101Y007101D03*
X026101Y006101D03*
X026101Y005101D03*
X026101Y004101D03*
X026101Y003101D03*
X026101Y002101D03*
X022601Y002101D03*
X022601Y003101D03*
X022601Y004101D03*
X019881Y003711D03*
X019101Y001601D03*
X014601Y004601D03*
X014601Y006601D03*
X028601Y009101D03*
X028601Y011101D03*
X028601Y013101D03*
X028601Y015101D03*
X032601Y015101D03*
X032601Y013101D03*
X032601Y011101D03*
X032601Y009101D03*
X042601Y007101D03*
X042601Y003101D03*
X026601Y018101D03*
X029101Y020101D03*
X026601Y022101D03*
X029101Y022601D03*
X029101Y025101D03*
X029101Y027601D03*
X029134Y029021D03*
X028134Y029021D03*
X027134Y029021D03*
X024601Y029101D03*
X023601Y029101D03*
X022601Y029101D03*
X021601Y029101D03*
X020601Y029101D03*
X019601Y029101D03*
X021821Y026491D03*
X024381Y026491D03*
X024381Y024711D03*
X021821Y024711D03*
X015661Y029071D03*
X014661Y029071D03*
X013661Y029071D03*
X013171Y027121D03*
X010571Y029061D03*
X009571Y029061D03*
X008571Y029061D03*
X006491Y029081D03*
X005491Y029081D03*
X004491Y029081D03*
X005101Y025101D03*
X001101Y025101D03*
X005101Y020601D03*
X005101Y016601D03*
X013171Y023121D03*
X034101Y022601D03*
X034101Y025101D03*
X034101Y027601D03*
X034101Y020101D03*
D14*
X006951Y005313D03*
X005101Y004132D03*
X005101Y006494D03*
D15*
X004601Y014101D03*
X002601Y014101D03*
X003101Y017101D03*
X002101Y017101D03*
X002101Y019601D03*
X003101Y019601D03*
X003101Y021601D03*
X002101Y021601D03*
X013051Y021711D03*
X013051Y020711D03*
X030601Y017601D03*
X031601Y017601D03*
X034101Y004101D03*
X035101Y004101D03*
D16*
X007101Y009601D03*
X006101Y009601D03*
D17*
X015002Y018502D03*
X015002Y018975D03*
X015002Y019447D03*
X015002Y019920D03*
X015002Y020392D03*
X015002Y020865D03*
X015002Y021337D03*
X015002Y021809D03*
X015002Y022282D03*
X015002Y022754D03*
X015002Y023227D03*
X015002Y023699D03*
X020199Y023699D03*
X020199Y023227D03*
X020199Y022754D03*
X020199Y022282D03*
X020199Y021809D03*
X020199Y021337D03*
X020199Y020865D03*
X020199Y020392D03*
X020199Y019920D03*
X020199Y019447D03*
X020199Y018975D03*
X020199Y018502D03*
D18*
X019224Y017400D03*
X018821Y017400D03*
X018349Y017400D03*
X017876Y017400D03*
X017325Y017400D03*
X016853Y017400D03*
X016380Y017400D03*
X015978Y017400D03*
X018231Y024802D03*
X018861Y024802D03*
X019491Y024802D03*
D19*
X023101Y009921D02*
X023101Y009281D01*
X024101Y009281D02*
X024101Y009921D01*
X025101Y009921D02*
X025101Y009281D01*
D20*
X035601Y009441D02*
X035601Y008761D01*
X036601Y008761D02*
X036601Y009441D01*
X037601Y009441D02*
X037601Y008761D01*
D21*
X042101Y009601D03*
X042101Y012101D03*
X042101Y014601D03*
X042101Y019101D03*
X042101Y021601D03*
X042101Y024101D03*
D22*
X019201Y014101D03*
X014001Y014101D03*
D23*
X014756Y012851D03*
X014756Y012351D03*
X014756Y011851D03*
X014756Y011351D03*
X014756Y010851D03*
X014756Y010351D03*
X014756Y009851D03*
X014756Y009351D03*
X014756Y008851D03*
X014756Y008351D03*
X018445Y008351D03*
X018445Y008851D03*
X018445Y009351D03*
X018445Y009851D03*
X018445Y010351D03*
X018445Y010851D03*
X018445Y011351D03*
X018445Y011851D03*
X018445Y012351D03*
X018445Y012851D03*
D24*
X026134Y029021D03*
D25*
X025644Y029021D01*
X024900Y029764D01*
X015354Y029764D01*
X014661Y029071D01*
X015661Y029071D02*
X015661Y028898D01*
X013385Y026623D01*
X009303Y026623D01*
X008281Y025601D01*
X007343Y025601D01*
X007021Y025279D01*
X007021Y021101D01*
X007701Y021101D01*
X007021Y020101D02*
X006521Y020601D01*
X005101Y020601D01*
X002469Y020601D01*
X001655Y019787D01*
X001655Y017546D01*
X002101Y017101D01*
X003601Y018101D02*
X002101Y019601D01*
X003101Y019601D02*
X006521Y019601D01*
X007021Y019101D01*
X007701Y019101D01*
X009021Y019101D01*
X010021Y020101D01*
X010701Y020101D01*
X010249Y020687D02*
X011576Y020687D01*
X015459Y016804D01*
X019528Y016804D01*
X020199Y017475D01*
X020199Y018502D01*
X020199Y018975D02*
X019764Y018975D01*
X019764Y017267D01*
X019462Y016965D01*
X015749Y016965D01*
X011170Y021544D01*
X010410Y021544D01*
X008381Y023573D01*
X008381Y025101D01*
X007701Y025101D01*
X007701Y024101D02*
X007701Y023981D01*
X009307Y022374D01*
X009307Y021629D01*
X010249Y020687D01*
X009968Y020514D02*
X008381Y022101D01*
X007701Y022101D01*
X009968Y020514D02*
X011521Y020514D01*
X019126Y012910D01*
X019126Y011367D01*
X018834Y011075D01*
X015490Y011075D01*
X015266Y010851D01*
X014756Y010851D01*
X014756Y010351D02*
X015266Y010351D01*
X015948Y009669D01*
X015948Y005083D01*
X017321Y003711D01*
X015601Y002101D02*
X015601Y005601D01*
X014601Y006601D01*
X013386Y007491D02*
X011381Y007491D01*
X008821Y007491D01*
X006951Y005621D01*
X006951Y005313D01*
X006282Y005313D01*
X005101Y004132D01*
X008821Y005711D02*
X011381Y005711D01*
X013386Y007491D02*
X014246Y008351D01*
X014754Y008351D01*
X014788Y008385D01*
X014788Y008851D01*
X014756Y008851D01*
X014788Y008851D02*
X014820Y008851D01*
X014884Y008915D01*
X014884Y009351D01*
X014756Y009351D01*
X014884Y009351D02*
X014902Y009369D01*
X014902Y009851D01*
X014756Y009851D01*
X014246Y009851D01*
X014246Y010512D01*
X014310Y010575D01*
X017711Y010575D01*
X017935Y010351D01*
X018445Y010351D01*
X018445Y010851D02*
X018955Y010851D01*
X019290Y011186D01*
X019290Y013344D01*
X019201Y013433D01*
X019201Y014101D01*
X018955Y012851D02*
X018445Y012851D01*
X018190Y012851D01*
X017935Y012851D01*
X013685Y017101D01*
X010701Y017101D01*
X010021Y017101D01*
X010021Y016546D01*
X008049Y014574D01*
X007308Y014574D01*
X003325Y010591D01*
X003101Y010591D01*
X003101Y010101D01*
X002591Y009305D02*
X002285Y009611D01*
X002101Y009611D01*
X002101Y010101D01*
X002591Y009305D02*
X002591Y008917D01*
X002897Y008611D01*
X004307Y008611D01*
X010701Y015004D01*
X010701Y015101D01*
X011381Y015101D01*
X013406Y013075D01*
X015722Y013075D01*
X017447Y011351D01*
X018445Y011351D01*
X018445Y011851D02*
X018915Y011851D01*
X018955Y011891D01*
X018955Y012851D01*
X018445Y012351D02*
X017016Y012351D01*
X013266Y016101D01*
X010701Y016101D01*
X010021Y016101D01*
X010021Y014571D01*
X004550Y009101D01*
X003101Y009101D01*
X003101Y011101D02*
X003101Y011591D01*
X001478Y013214D01*
X001478Y024598D01*
X001541Y024661D01*
X001101Y025101D01*
X001541Y024661D02*
X002981Y026101D01*
X007701Y026101D01*
X010021Y025268D02*
X010021Y024101D01*
X010701Y024101D01*
X010701Y025101D02*
X011381Y025101D01*
X011781Y025501D01*
X020001Y025501D01*
X023601Y029101D01*
X024107Y029594D02*
X022387Y029594D01*
X022111Y029318D01*
X022111Y028897D01*
X019314Y026101D01*
X010701Y026101D01*
X010453Y025701D02*
X010021Y025268D01*
X010453Y025701D02*
X019201Y025701D01*
X022601Y029101D01*
X024107Y029594D02*
X024601Y029101D01*
X027134Y029021D02*
X024604Y026491D01*
X024381Y026491D01*
X021821Y026491D02*
X020567Y025237D01*
X019491Y025237D01*
X019491Y024802D01*
X019491Y024367D01*
X018231Y024367D01*
X016105Y024367D01*
X015437Y023699D01*
X015220Y023699D01*
X015002Y023699D01*
X014567Y023699D01*
X013182Y022313D01*
X013003Y022313D01*
X012591Y021901D01*
X012591Y021171D01*
X013051Y020711D01*
X013051Y020019D01*
X014567Y018502D01*
X015002Y018502D01*
X015437Y018502D01*
X016105Y017835D01*
X016380Y017835D01*
X016380Y017400D01*
X016380Y017835D02*
X018821Y017835D01*
X018821Y017400D01*
X016380Y017835D02*
X016380Y017835D01*
X015002Y018975D02*
X014567Y018975D01*
X014567Y020194D01*
X013051Y021711D01*
X015002Y021809D02*
X017425Y021809D01*
X020327Y024711D01*
X021821Y024711D01*
X024381Y024711D01*
X026601Y022101D02*
X023101Y018601D01*
X023101Y009601D01*
X023661Y009601D02*
X023661Y009216D01*
X023280Y008835D01*
X018994Y008835D01*
X018955Y008874D01*
X018932Y008851D01*
X018700Y008851D01*
X018700Y008351D01*
X018700Y005491D01*
X017321Y005491D01*
X018700Y005491D02*
X019881Y005491D01*
X018700Y008351D02*
X018445Y008351D01*
X018445Y008851D02*
X018700Y008851D01*
X018955Y008874D02*
X018955Y009351D01*
X018445Y009351D01*
X017935Y009351D01*
X017935Y009596D01*
X018190Y009851D01*
X018445Y009851D01*
X018190Y009851D02*
X017935Y009851D01*
X017935Y010351D01*
X014756Y012351D02*
X014246Y012351D01*
X014246Y010638D01*
X014310Y010575D01*
X014754Y008351D02*
X014756Y008351D01*
X008821Y007491D02*
X007111Y009201D01*
X007101Y009201D01*
X007101Y009601D01*
X002601Y014101D02*
X004295Y015795D01*
X005714Y015795D01*
X007021Y017101D01*
X007701Y017101D01*
X007701Y018101D02*
X003601Y018101D01*
X007021Y020101D02*
X007701Y020101D01*
X010511Y027121D02*
X008571Y029061D01*
X008081Y028571D01*
X005001Y028571D01*
X004491Y029081D01*
X009571Y029061D02*
X010065Y028567D01*
X013157Y028567D01*
X013661Y029071D01*
X013171Y027121D02*
X010511Y027121D01*
X018231Y024802D02*
X018231Y024407D01*
X018231Y024367D01*
X020199Y019920D02*
X020634Y019920D01*
X020634Y019447D01*
X020199Y019447D01*
X030601Y017601D02*
X030601Y011101D01*
X028601Y009101D01*
X029408Y007898D02*
X027111Y005601D01*
X025895Y005601D01*
X025591Y005296D01*
X025591Y003611D01*
X026101Y003101D01*
X026201Y004001D02*
X026101Y004101D01*
X026201Y004001D02*
X030601Y004001D01*
X030601Y003601D01*
X030601Y004001D02*
X031400Y004800D01*
X038200Y004800D01*
X039601Y006201D01*
X039601Y006601D01*
X038601Y006601D02*
X038601Y006201D01*
X037501Y005101D01*
X026101Y005101D01*
X029408Y007898D02*
X030103Y007898D01*
X033096Y010891D01*
X033096Y012606D01*
X032601Y013101D01*
X032601Y011101D02*
X030601Y011101D01*
X031601Y006601D02*
X031601Y006201D01*
X034731Y006201D01*
X037141Y008611D01*
X037141Y009101D01*
X037601Y009101D01*
X037642Y004001D02*
X042753Y009111D01*
X042753Y024319D01*
X041970Y025101D01*
X034101Y025101D01*
X024101Y009601D02*
X023661Y009601D01*
X034101Y004101D02*
X035563Y002639D01*
X042139Y002639D01*
X042601Y003101D01*
X037601Y003601D02*
X037601Y004001D01*
X037642Y004001D01*
X022601Y002101D02*
X015601Y002101D01*
X015101Y001601D01*
D26*
X032601Y009101D02*
X033548Y008154D01*
X035846Y008154D01*
X036601Y008908D01*
X036601Y009101D01*
X035661Y009301D02*
X035861Y010009D01*
X036484Y010332D01*
X041670Y010332D01*
X042101Y009601D01*
X035661Y009301D02*
X035601Y009101D01*
X042101Y014601D02*
X039101Y017601D01*
X039101Y021101D01*
X042101Y024101D01*
X039101Y017601D02*
X031601Y017601D01*
M02*
